<svg width="369" height="320" viewBox="0 0 369 320" fill="none" xmlns="http://www.w3.org/2000/svg">
<g clip-path="url(#clip0_3_1192)">
<path fill-rule="evenodd" clip-rule="evenodd" d="M200.818 129.241C199.69 128.141 194.99 122.684 191.418 127.883C186.719 134.604 201.711 140.716 204.202 137.953C206.692 135.189 202.768 131.091 200.865 129.218L200.818 129.241Z" fill="white"/>
<path fill-rule="evenodd" clip-rule="evenodd" d="M211.604 137.835C207.538 138.21 206.128 141.606 208.055 143.385C209.982 145.165 214.635 144.65 215.786 142.472C217.337 139.592 214.141 137.601 211.604 137.789V137.835Z" fill="white"/>
<path fill-rule="evenodd" clip-rule="evenodd" d="M229.368 135.493C231.718 133.643 234.656 128.468 231.201 125.611C226.502 121.537 216.209 133.198 219.006 136.969C220.886 139.568 225.938 138.163 229.368 135.493Z" fill="white"/>
<path fill-rule="evenodd" clip-rule="evenodd" d="M157.44 140.341C148.646 142.234 140.701 146.908 134.787 153.665C133.26 149.263 129.876 144.767 130.088 140.926C132.649 136.243 146.114 129.218 148.44 129.78C150.437 131.068 151.26 131.606 153.657 133.409C158.356 131.395 168.437 125.939 169.941 128.726C171.703 132.051 162.891 136.524 157.44 140.294V140.341Z" fill="white"/>
<path fill-rule="evenodd" clip-rule="evenodd" d="M157.745 141.723C157.927 141.677 158.101 141.606 158.262 141.512C162.28 138.795 167.826 135.704 170.176 132.941C170.835 132.347 171.289 131.561 171.475 130.695C171.66 129.83 171.568 128.927 171.21 128.117C171.035 127.784 170.792 127.491 170.496 127.257C170.201 127.023 169.86 126.853 169.494 126.759C168.485 126.501 167.426 126.501 166.416 126.759C162.102 128.069 157.911 129.753 153.891 131.793C151.941 130.342 151.095 129.78 149.192 128.585C149.042 128.489 148.874 128.425 148.698 128.398C148.233 128.304 147.754 128.304 147.288 128.398C145.933 128.714 144.617 129.177 143.364 129.78C139.88 131.344 136.565 133.258 133.471 135.493C131.614 136.735 130.018 138.326 128.772 140.177C128.671 140.356 128.614 140.557 128.607 140.762C128.592 142.663 129.001 144.542 129.806 146.265C130.863 148.795 132.437 151.441 133.354 154.064C133.432 154.304 133.577 154.518 133.773 154.68C133.968 154.842 134.206 154.945 134.458 154.977C134.707 155.021 134.964 154.996 135.2 154.905C135.436 154.815 135.643 154.661 135.798 154.462C141.487 147.945 149.149 143.449 157.628 141.652L157.745 141.723ZM168.742 129.452C168.801 129.576 168.832 129.712 168.832 129.85C168.832 129.987 168.801 130.123 168.742 130.248C168.32 130.971 167.771 131.614 167.121 132.145C163.892 134.625 160.527 136.924 157.04 139.029C148.828 140.909 141.317 145.065 135.375 151.019C134.693 149.497 133.894 147.998 133.213 146.5C132.311 144.908 131.758 143.144 131.591 141.324C132.617 139.951 133.863 138.756 135.281 137.788C138.221 135.672 141.371 133.859 144.68 132.379C145.65 131.929 146.656 131.561 147.688 131.278L148.181 131.161C149.816 132.187 151.386 133.313 152.881 134.533C153.08 134.682 153.315 134.777 153.561 134.81C153.808 134.843 154.059 134.812 154.291 134.721C158.396 132.664 162.654 130.926 167.027 129.522C167.475 129.429 167.932 129.382 168.39 129.381H168.766L168.742 129.452Z" fill="white"/>
<path fill-rule="evenodd" clip-rule="evenodd" d="M182.607 162.447C181.032 168.349 179.834 175.748 165.359 184.343C161.998 186.333 153.327 187.106 144.704 194.974C134.294 204.341 127.103 219.937 127.103 219.937C127.103 219.937 110.137 206.917 108.962 199.775C108.257 195.466 125.764 172.025 129.829 167.529C140.38 155.82 145.808 150.504 154.056 147.694C169.048 142.589 177.883 150.2 177.883 150.2L208.431 149.216L210.476 155.773C210.476 155.773 185.191 161.956 182.701 162.447H182.607ZM163.949 167.131C168.789 166.381 168.648 156.874 162.75 157.764C156.852 158.654 157.698 168.138 163.949 167.248V167.131Z" fill="white"/>
<path d="M279.326 159.239C278.703 159.323 278.072 159.157 277.572 158.777C277.071 158.397 276.743 157.834 276.659 157.213C276.575 156.592 276.742 155.963 277.123 155.465C277.504 154.967 278.068 154.639 278.692 154.556L322.61 142.332C322.914 142.222 323.237 142.175 323.56 142.196C323.883 142.216 324.198 142.302 324.485 142.449C324.773 142.596 325.027 142.801 325.232 143.05C325.436 143.3 325.587 143.589 325.675 143.899C325.762 144.209 325.784 144.534 325.74 144.853C325.696 145.172 325.586 145.478 325.418 145.753C325.249 146.028 325.026 146.266 324.761 146.45C324.496 146.635 324.196 146.764 323.879 146.828L279.961 159.239C279.75 159.273 279.536 159.273 279.326 159.239Z" fill="white"/>
<path d="M268.47 136.22C268.062 136.22 267.661 136.114 267.307 135.913C266.953 135.711 266.657 135.422 266.449 135.072C266.131 134.538 266.04 133.9 266.194 133.298C266.348 132.697 266.736 132.181 267.272 131.864L339.788 89.174C340.054 88.9812 340.357 88.8463 340.679 88.7778C341 88.7093 341.333 88.7088 341.654 88.7764C341.976 88.844 342.28 88.9781 342.547 89.17C342.813 89.362 343.036 89.6075 343.201 89.8908C343.367 90.1741 343.47 90.4888 343.506 90.8145C343.542 91.1402 343.508 91.4698 343.408 91.7819C343.308 92.0939 343.143 92.3815 342.924 92.6261C342.705 92.8707 342.437 93.0668 342.138 93.2018L269.668 135.822C269.31 136.055 268.897 136.192 268.47 136.22Z" fill="white"/>
<path d="M252.233 116.9C251.616 116.897 251.025 116.654 250.588 116.221C250.15 115.782 249.904 115.189 249.904 114.57C249.904 113.951 250.15 113.358 250.588 112.919L281.676 81.2821C282.112 80.838 282.708 80.5848 283.331 80.5783C283.64 80.575 283.946 80.6324 284.233 80.7471C284.519 80.8618 284.78 81.0317 285.001 81.247C285.222 81.4622 285.398 81.7187 285.519 82.0017C285.64 82.2847 285.704 82.5888 285.707 82.8965C285.711 83.2042 285.653 83.5095 285.538 83.795C285.423 84.0805 285.252 84.3407 285.036 84.5605L253.901 116.198C253.683 116.419 253.424 116.595 253.137 116.715C252.851 116.836 252.543 116.899 252.233 116.9Z" fill="white"/>
<path d="M231.812 102.311C231.409 102.31 231.012 102.205 230.661 102.007C230.119 101.702 229.721 101.195 229.554 100.598C229.387 100.001 229.464 99.3625 229.768 98.822L271.83 24.5183C272.142 23.978 272.656 23.5831 273.26 23.4206C273.864 23.2581 274.507 23.3413 275.05 23.6519C275.592 23.9624 275.988 24.4749 276.151 25.0765C276.314 25.6782 276.231 26.3197 275.919 26.8601L233.857 101.117C233.653 101.479 233.356 101.78 232.997 101.99C232.637 102.2 232.229 102.31 231.812 102.311Z" fill="white"/>
<path d="M208.596 93.108C208.401 93.1309 208.204 93.1309 208.008 93.108C207.709 93.0316 207.427 92.897 207.18 92.712C206.933 92.5269 206.725 92.295 206.567 92.0296C206.41 91.7642 206.307 91.4705 206.264 91.1653C206.221 90.8601 206.239 90.5494 206.317 90.2511L217.925 45.1959C218.001 44.887 218.139 44.5967 218.331 44.3428C218.523 44.0888 218.765 43.8765 219.042 43.7187C219.319 43.5609 219.625 43.4611 219.942 43.4251C220.259 43.3892 220.58 43.418 220.886 43.5098C221.185 43.5862 221.467 43.7208 221.714 43.9059C221.961 44.0909 222.17 44.3228 222.327 44.5882C222.484 44.8537 222.587 45.1474 222.63 45.4526C222.673 45.7578 222.655 46.0684 222.578 46.3667L210.875 91.3283C210.749 91.836 210.456 92.2871 210.043 92.6096C209.63 92.9322 209.121 93.1076 208.596 93.108Z" fill="white"/>
<path d="M183.782 89.5485C183.158 89.5485 182.561 89.3018 182.12 88.8626C181.679 88.4234 181.432 87.8278 181.432 87.2067L180.562 2.34175C180.562 1.72068 180.81 1.12505 181.251 0.685882C181.691 0.246719 182.289 0 182.912 0V0C183.535 0 184.133 0.246719 184.574 0.685882C185.014 1.12505 185.262 1.72068 185.262 2.34175L186.131 87.2067C186.131 87.8278 185.884 88.4234 185.443 88.8626C185.002 89.3018 184.405 89.5485 183.782 89.5485Z" fill="white"/>
<path d="M158.215 93.108C157.688 93.1274 157.169 92.9693 156.743 92.6592C156.316 92.3491 156.007 91.905 155.865 91.3985L142.894 44.4933C142.784 44.1905 142.737 43.8682 142.758 43.5467C142.778 43.2252 142.865 42.9113 143.012 42.6247C143.16 42.3381 143.365 42.0849 143.615 41.8809C143.866 41.677 144.155 41.5267 144.467 41.4395C144.778 41.3523 145.104 41.33 145.424 41.374C145.744 41.418 146.052 41.5274 146.328 41.6954C146.604 41.8633 146.842 42.0862 147.027 42.35C147.213 42.6138 147.342 42.913 147.406 43.2287L160.471 90.0637C160.637 90.6599 160.56 91.2975 160.257 91.8372C159.953 92.3769 159.447 92.7749 158.85 92.944C158.649 93.0335 158.434 93.0889 158.215 93.108Z" fill="white"/>
<path d="M135.351 102.241C134.943 102.241 134.543 102.135 134.188 101.934C133.834 101.733 133.538 101.443 133.33 101.093L90.375 28.6865C90.1355 28.1583 90.101 27.5602 90.2784 27.0081C90.4558 26.456 90.8324 25.989 91.3353 25.6977C91.8382 25.4063 92.4317 25.3112 93.0009 25.4307C93.5701 25.5502 94.0746 25.8759 94.4168 26.3448L137.372 98.7048C137.69 99.239 137.782 99.877 137.627 100.479C137.473 101.08 137.085 101.596 136.55 101.913C136.187 102.128 135.773 102.241 135.351 102.241Z" fill="white"/>
<path d="M115.495 117.485C114.879 117.483 114.288 117.239 113.85 116.806L78.0385 81.8205C77.6501 81.3753 77.4446 80.8004 77.4632 80.2107C77.4817 79.6211 77.7229 79.0601 78.1385 78.64C78.5542 78.22 79.1136 77.9717 79.7049 77.9448C80.2963 77.918 80.876 78.1145 81.3282 78.4952L117.14 113.481C117.578 113.92 117.823 114.513 117.823 115.132C117.823 115.751 117.578 116.344 117.14 116.783C116.706 117.224 116.115 117.477 115.495 117.485Z" fill="white"/>
<path d="M99.093 137.39C98.6893 137.389 98.2928 137.284 97.9416 137.086L25.5193 96.3862C24.9771 96.0756 24.5809 95.5632 24.4179 94.9615C24.2548 94.3599 24.3383 93.7183 24.6499 93.178C24.9615 92.6376 25.4757 92.2428 26.0795 92.0803C26.6832 91.9178 27.327 92.001 27.8692 92.3115L100.244 133.011C100.77 133.332 101.148 133.845 101.298 134.441C101.447 135.036 101.356 135.667 101.043 136.196C100.847 136.544 100.565 136.837 100.224 137.046C99.8826 137.255 99.4933 137.373 99.093 137.39Z" fill="white"/>
<path d="M88.8007 160.949C88.6056 160.972 88.4084 160.972 88.2132 160.949L46.2685 150.106C45.6764 149.937 45.1747 149.543 44.8715 149.008C44.5682 148.474 44.4877 147.842 44.6471 147.249C44.7238 146.951 44.8588 146.67 45.0445 146.424C45.2302 146.177 45.4629 145.97 45.7293 145.813C45.9956 145.657 46.2903 145.554 46.5966 145.511C46.9028 145.468 47.2146 145.486 47.5139 145.563L89.2942 156.335C89.9174 156.413 90.4841 156.734 90.8697 157.228C91.2553 157.722 91.4282 158.349 91.3503 158.97C91.2724 159.591 90.9501 160.156 90.4543 160.54C89.9586 160.924 89.3299 161.097 88.7067 161.019L88.8007 160.949Z" fill="white"/>
<path d="M85.0174 186.333H84.759L2.09138 177.317C1.46817 177.249 0.897707 176.937 0.5055 176.449C0.113294 175.962 -0.0685322 175.339 2.17259e-05 174.718C0.0685757 174.097 0.381894 173.528 0.871051 173.137C1.36021 172.747 1.98513 172.565 2.60835 172.634L85.2759 181.626C85.8991 181.66 86.4832 181.94 86.8997 182.403C87.3161 182.866 87.5308 183.476 87.4965 184.097C87.4623 184.718 87.1818 185.3 86.7169 185.715C86.252 186.13 85.6407 186.344 85.0174 186.31V186.333Z" fill="white"/>
<path d="M283.321 186.333C283.012 186.35 282.704 186.306 282.412 186.204C282.12 186.102 281.852 185.944 281.622 185.738C281.391 185.533 281.204 185.284 281.07 185.006C280.936 184.729 280.859 184.428 280.842 184.12C280.825 183.813 280.869 183.505 280.971 183.214C281.074 182.924 281.233 182.656 281.439 182.426C281.645 182.197 281.895 182.01 282.173 181.877C282.452 181.744 282.754 181.666 283.063 181.65L365.73 172.657C366.039 172.623 366.351 172.65 366.649 172.737C366.947 172.823 367.225 172.967 367.467 173.161C367.71 173.354 367.911 173.594 368.061 173.865C368.21 174.136 368.305 174.434 368.338 174.741C368.372 175.049 368.345 175.36 368.258 175.657C368.172 175.954 368.027 176.231 367.833 176.473C367.639 176.714 367.399 176.915 367.127 177.064C366.855 177.213 366.556 177.307 366.247 177.341L283.58 186.333H283.321Z" fill="white"/>
<path fill-rule="evenodd" clip-rule="evenodd" d="M218.982 146.429C223.118 146.125 223.094 150.153 231.201 164.929C237.875 177.083 254.089 202.772 256.18 207.526C258.247 211.942 259.118 216.821 258.706 221.677C258.293 226.533 256.613 231.197 253.83 235.205C240.953 254.876 210.264 256.936 194.215 248.132C186.178 243.729 173.748 230.849 176.309 217.923C180.092 198.791 199.737 164.25 201.194 163.922C206.598 162.4 203.544 174.156 210.147 173.57C215.105 173.125 217.666 161.299 216.139 155.234C214 146.687 213.413 146.968 219.053 146.546L218.982 146.429ZM246.123 229.351C244.078 233.542 240.953 235.884 235.831 238.156C235.344 238.37 234.964 238.768 234.772 239.262C234.58 239.756 234.593 240.306 234.808 240.79C235.023 241.275 235.423 241.654 235.918 241.845C236.414 242.036 236.966 242.023 237.452 241.809C243.632 239.069 247.298 236.165 249.718 231.013C249.834 230.78 249.902 230.526 249.919 230.266C249.935 230.006 249.9 229.746 249.815 229.499C249.73 229.253 249.596 229.026 249.422 228.832C249.248 228.638 249.037 228.48 248.802 228.367C248.564 228.252 248.306 228.185 248.043 228.17C247.779 228.155 247.515 228.192 247.266 228.279C247.017 228.366 246.788 228.501 246.592 228.677C246.395 228.853 246.236 229.066 246.123 229.304V229.351ZM216.632 234.971C211.124 235.198 205.703 233.546 201.264 230.287C195.813 225.885 193.369 218.766 194.027 209.212C195.437 188.136 210.147 186.075 214.611 185.935C224.716 185.677 232.494 190.618 235.431 199.4C236.175 201.859 236.616 204.399 236.747 206.964C236.911 208.907 237.076 210.921 237.71 211.413C239.322 212.555 241.283 213.101 243.256 212.958C243.724 212.902 244.199 212.962 244.638 213.134C245.077 213.305 245.466 213.583 245.77 213.942C246.074 214.299 246.283 214.726 246.377 215.184C246.472 215.643 246.449 216.118 246.311 216.565C243.961 224.48 234.726 231.505 227.512 233.542C223.964 234.49 220.306 234.97 216.632 234.971ZM214.776 191.461C209.559 191.602 200.677 194.154 199.643 209.493C199.126 217.22 200.865 222.747 204.813 225.885C212.238 231.856 225.256 228.227 225.797 228.227C231.289 226.454 236.044 222.933 239.332 218.204C237.486 217.788 235.749 216.991 234.233 215.862C231.624 213.848 231.366 210.57 231.107 207.432C231.023 205.321 230.676 203.228 230.073 201.203C227.912 194.763 222.507 191.344 214.776 191.578V191.461ZM208.948 201.905C205.964 201.718 205.377 207.245 208.549 207.362C211.721 207.479 212.779 202.163 208.948 201.905ZM218.019 201.905C214.588 201.905 214.776 207.268 218.019 207.081C221.684 206.846 220.627 201.882 218.019 201.905Z" fill="white"/>
<path d="M64.3624 238.531C63.7391 238.531 63.1415 238.284 62.7008 237.845C62.2601 237.406 62.0125 236.81 62.0125 236.189V209.961C55.9734 210.734 40.6994 211.46 17.6239 204.669C23.5183 212.592 31.6027 218.63 40.8874 222.045L52.3312 217.361C52.8725 217.248 53.4366 217.329 53.9241 217.589C54.4116 217.85 54.7913 218.273 54.9963 218.785C55.2012 219.298 55.2183 219.865 55.0446 220.389C54.8709 220.912 54.5175 221.357 54.0465 221.647L29.6551 231.833C29.0963 232.003 28.4941 231.959 27.9659 231.71C27.4378 231.461 27.0217 231.025 26.7986 230.487C26.5756 229.949 26.5617 229.347 26.7597 228.8C26.9576 228.252 27.3532 227.797 27.8693 227.524L34.6368 224.714C24.2714 219.539 15.6352 211.477 9.77544 201.508C9.54537 201.093 9.44666 200.62 9.49233 200.148C9.538 199.677 9.7259 199.231 10.0313 198.868C10.3366 198.506 10.7451 198.244 11.2028 198.117C11.6605 197.99 12.146 198.005 12.5953 198.159C45.0231 209.072 63.6339 204.973 63.8219 204.927C64.1669 204.846 64.5258 204.844 64.8717 204.921C65.2176 204.998 65.5416 205.152 65.8193 205.372C66.0962 205.59 66.3203 205.867 66.4749 206.183C66.6295 206.499 66.7106 206.846 66.7122 207.198V236.189C66.7122 236.81 66.4646 237.406 66.024 237.845C65.5833 238.284 64.9856 238.531 64.3624 238.531Z" fill="white"/>
<path d="M297.561 238.531C296.938 238.531 296.34 238.284 295.899 237.845C295.459 237.406 295.211 236.81 295.211 236.189V207.198C295.213 206.846 295.294 206.499 295.449 206.183C295.603 205.867 295.827 205.59 296.104 205.372C296.376 205.142 296.7 204.982 297.048 204.905C297.396 204.827 297.757 204.835 298.102 204.927C298.289 204.927 316.9 209.072 349.328 198.159C349.777 198.005 350.263 197.99 350.721 198.117C351.178 198.244 351.587 198.506 351.892 198.868C352.197 199.231 352.385 199.677 352.431 200.148C352.477 200.62 352.378 201.093 352.148 201.508C346.27 211.434 337.636 219.453 327.287 224.597L334.054 227.407C334.346 227.524 334.611 227.697 334.836 227.916C335.06 228.136 335.24 228.397 335.363 228.685C335.486 228.973 335.551 229.282 335.555 229.596C335.558 229.909 335.499 230.22 335.382 230.51C335.265 230.801 335.091 231.066 334.871 231.289C334.651 231.513 334.389 231.692 334.1 231.814C333.811 231.937 333.5 232.002 333.186 232.005C332.872 232.009 332.56 231.95 332.268 231.833L307.83 221.647C307.516 221.552 307.227 221.392 306.979 221.179C306.731 220.965 306.53 220.703 306.39 220.408C306.25 220.113 306.174 219.791 306.165 219.465C306.157 219.139 306.218 218.814 306.343 218.513C306.468 218.211 306.655 217.938 306.892 217.713C307.128 217.488 307.41 217.314 307.718 217.203C308.027 217.093 308.355 217.048 308.681 217.071C309.008 217.094 309.326 217.185 309.616 217.338L321.06 222.021C330.36 218.611 338.455 212.563 344.346 204.622C321.2 211.437 305.973 210.711 299.934 209.938V236.166C299.938 236.477 299.878 236.786 299.76 237.074C299.642 237.363 299.467 237.625 299.246 237.845C299.025 238.065 298.762 238.239 298.473 238.357C298.184 238.475 297.874 238.534 297.561 238.531Z" fill="white"/>
<path d="M180.797 245.884C129.739 246.018 78.804 240.878 28.8092 230.545V302.507C78.804 312.84 129.739 317.98 180.797 317.846C232 317.993 283.079 312.829 333.208 302.437V230.428C283.08 240.836 232.001 246.016 180.797 245.884ZM177.695 273.704C177.659 273.435 177.682 273.161 177.763 272.902C177.844 272.643 177.982 272.405 178.165 272.205C178.675 271.905 179.27 271.781 179.857 271.854C180.085 271.887 180.316 271.83 180.501 271.694C180.686 271.558 180.809 271.354 180.844 271.128C180.867 271.043 180.867 270.955 180.844 270.87V264.337C180.811 264.028 180.839 263.716 180.928 263.419C181.017 263.121 181.164 262.844 181.361 262.604C181.844 262.277 182.425 262.128 183.006 262.182H196.4C197.027 262.105 197.661 262.254 198.186 262.604C198.534 263.111 198.684 263.727 198.609 264.337V270.94C198.599 271.06 198.614 271.181 198.651 271.296C198.688 271.41 198.748 271.516 198.827 271.608C198.905 271.699 199.001 271.774 199.109 271.828C199.217 271.883 199.335 271.915 199.455 271.924H199.737C200.342 271.903 200.941 272.04 201.476 272.322C201.825 272.74 201.994 273.279 201.946 273.821V278.083C201.959 278.3 201.924 278.518 201.843 278.721C201.761 278.923 201.636 279.105 201.476 279.254C200.949 279.554 200.339 279.677 199.737 279.605H194.567C193.963 279.661 193.356 279.53 192.828 279.23C192.674 279.08 192.556 278.896 192.482 278.693C192.409 278.49 192.383 278.274 192.405 278.059V269.723H187.048V278.013C187.07 278.233 187.036 278.456 186.95 278.66C186.864 278.865 186.728 279.044 186.554 279.183C186.031 279.494 185.421 279.625 184.815 279.558H179.787C179.195 279.603 178.604 279.464 178.095 279.16C177.923 279.022 177.791 278.841 177.713 278.635C177.634 278.429 177.612 278.206 177.648 277.989L177.695 273.704ZM103.182 268.365C103.173 268.583 103.113 268.796 103.007 268.987C102.901 269.178 102.752 269.342 102.571 269.465C102.39 269.616 102.179 269.727 101.953 269.791C101.726 269.856 101.488 269.872 101.255 269.84L99.0696 269.582L98.6936 272.416C98.5708 273.049 98.653 273.705 98.9286 274.289C99.086 274.482 99.2824 274.641 99.505 274.754C99.7276 274.867 99.9716 274.932 100.221 274.945C100.636 275.014 101.011 275.23 101.278 275.554C101.408 275.708 101.503 275.888 101.556 276.082C101.609 276.276 101.618 276.48 101.584 276.678L100.926 282.064C100.92 282.275 100.869 282.483 100.776 282.673C100.683 282.863 100.549 283.03 100.386 283.164C100.05 283.42 99.632 283.545 99.2106 283.516C97.1499 283.047 95.3347 281.838 94.1114 280.12C92.6085 281.488 90.6479 282.247 88.6128 282.251C88.1965 282.186 87.8195 281.969 87.5554 281.642C87.391 281.452 87.2735 281.225 87.2123 280.981C87.1511 280.737 87.1479 280.483 87.2029 280.237L87.8138 275.179C87.8238 274.952 87.8862 274.73 87.9962 274.531C88.1063 274.332 88.261 274.161 88.4483 274.032C88.7822 273.774 89.2037 273.656 89.6232 273.704C90.1154 273.748 90.6073 273.615 91.0096 273.329C91.457 272.86 91.7161 272.243 91.7381 271.596L92.0671 268.763L87.0854 268.154L85.84 278.481C85.6985 279.802 85.8343 281.138 86.2389 282.404C86.6434 283.67 87.3078 284.838 88.1898 285.834C90.3848 287.822 93.1952 289.003 96.1558 289.183L98.6701 289.464C99.2105 289.531 99.7056 289.798 100.057 290.213C100.219 290.415 100.338 290.648 100.407 290.898C100.476 291.148 100.492 291.409 100.456 291.665L99.939 295.904C99.9298 296.184 99.8599 296.458 99.7342 296.709C99.6085 296.959 99.4298 297.18 99.2106 297.355C98.7576 297.622 98.2281 297.729 97.7067 297.66L95.2159 297.402C90.9916 296.921 87.1138 294.842 84.3831 291.595L83.8426 296.138C83.8195 296.37 83.7441 296.593 83.622 296.792C83.4999 296.991 83.3343 297.159 83.1376 297.285C82.9433 297.426 82.7221 297.525 82.4877 297.578C82.2534 297.63 82.0107 297.634 81.7747 297.59L76.0411 296.91C75.8059 296.901 75.5753 296.841 75.3647 296.736C75.1541 296.631 74.9682 296.483 74.8192 296.302C74.5377 295.942 74.3959 295.493 74.4197 295.037L74.9367 290.564C71.4358 292.972 67.1793 294.037 62.9525 293.562L60.2971 293.257C59.8345 293.191 59.4058 292.978 59.0752 292.648C58.9337 292.473 58.8329 292.269 58.7801 292.05C58.7273 291.832 58.7238 291.604 58.7697 291.384L59.3337 286.7C59.3489 286.477 59.4112 286.26 59.5164 286.062C59.6217 285.864 59.7676 285.691 59.9447 285.553C60.3345 285.299 60.7956 285.176 61.2606 285.202L63.9159 285.506C66.8364 286.047 69.8545 285.576 72.4693 284.171C73.5753 283.409 74.507 282.423 75.2036 281.277C75.9001 280.13 76.3457 278.851 76.5111 277.521L77.7565 267.194L72.8453 266.444L72.4223 269.301C72.2969 269.942 72.4053 270.606 72.7278 271.175C73.0426 271.549 73.4872 271.791 73.9732 271.854C74.1799 271.876 74.3799 271.939 74.5616 272.04C74.7432 272.14 74.9028 272.276 75.0307 272.439C75.1834 272.609 75.2946 272.811 75.3558 273.03C75.4169 273.25 75.4263 273.48 75.3832 273.704L74.7957 278.668C74.793 278.921 74.7298 279.17 74.6113 279.394C74.4928 279.618 74.3224 279.811 74.1142 279.956C73.7709 280.194 73.3568 280.31 72.9393 280.284C71.0021 279.805 69.3013 278.651 68.1456 277.029C66.5416 278.393 64.497 279.133 62.3885 279.113C61.9815 279.038 61.6103 278.832 61.3311 278.528C61.0884 278.171 60.9878 277.737 61.0491 277.31L61.7071 271.924C61.7237 271.725 61.7801 271.531 61.8729 271.354C61.9657 271.178 62.0931 271.021 62.2475 270.894C62.5924 270.659 63.0053 270.544 63.4224 270.566C63.6691 270.603 63.9208 270.592 64.1628 270.531C64.4049 270.471 64.6325 270.363 64.8323 270.215C65.2538 269.724 65.4942 269.104 65.5138 268.458L65.8663 265.625L63.7044 265.367C63.477 265.345 63.2568 265.275 63.0584 265.162C62.8599 265.049 62.6877 264.895 62.553 264.711C62.414 264.544 62.3128 264.348 62.256 264.138C62.1993 263.928 62.1884 263.708 62.224 263.494L62.647 259.911C62.6975 259.447 62.9245 259.019 63.2814 258.717C63.6337 258.413 64.0845 258.246 64.5504 258.248L78.6494 259.934L79.0254 256.867C79.0615 256.639 79.1423 256.42 79.2633 256.223C79.3842 256.026 79.543 255.855 79.7304 255.719C79.9113 255.57 80.1234 255.463 80.3511 255.407C80.5788 255.35 80.8163 255.345 81.0463 255.391L86.7799 256.094C87.0189 256.102 87.2534 256.16 87.4681 256.265C87.6828 256.37 87.8727 256.519 88.0253 256.703C88.1833 256.87 88.303 257.07 88.376 257.289C88.449 257.507 88.4737 257.738 88.4483 257.967L88.0723 261.058L102.171 262.721C102.652 262.81 103.08 263.078 103.37 263.47C103.635 263.853 103.745 264.322 103.675 264.782L103.182 268.365ZM151.965 274.196C151.967 274.732 151.784 275.253 151.448 275.671C151.227 275.858 150.966 275.993 150.685 276.066C150.405 276.139 150.111 276.148 149.826 276.092L136.55 275.296L136.291 279.605L148.252 280.307C148.838 280.271 149.416 280.455 149.873 280.823C150.156 281.379 150.247 282.013 150.132 282.626L149.85 287.309C149.847 287.848 149.692 288.376 149.403 288.831C149.167 289.006 148.896 289.13 148.609 289.194C148.322 289.259 148.024 289.263 147.735 289.206L135.774 288.504L135.516 292.719L149.873 293.562C150.438 293.527 150.994 293.712 151.424 294.077C151.706 294.358 151.8 294.943 151.753 295.88L151.471 300.564C151.473 301.1 151.291 301.621 150.954 302.039C150.731 302.222 150.47 302.355 150.19 302.427C149.91 302.5 149.618 302.511 149.333 302.46L110.772 300.119C110.501 300.13 110.231 300.084 109.98 299.983C109.729 299.882 109.502 299.729 109.315 299.533C109.034 299.078 108.918 298.541 108.986 298.011L109.268 293.328C109.221 292.699 109.405 292.075 109.785 291.571C110.231 291.267 110.78 291.149 111.312 291.243L125.764 292.086L125.999 287.801L113.968 287.099C113.688 287.116 113.408 287.074 113.145 286.978C112.882 286.881 112.642 286.731 112.44 286.537C112.196 286.052 112.098 285.507 112.158 284.968L112.44 280.284V279.863H111.923C111.694 279.851 111.47 279.793 111.264 279.693C111.058 279.592 110.874 279.451 110.725 279.277C110.562 279.117 110.437 278.922 110.36 278.707C110.282 278.492 110.255 278.263 110.278 278.036L110.607 272.603C110.606 272.376 110.659 272.151 110.761 271.948C110.863 271.745 111.012 271.568 111.195 271.432C111.547 271.151 111.99 271.01 112.44 271.034H112.793C113.335 270.995 113.851 270.79 114.273 270.449C114.533 270.182 114.738 269.867 114.875 269.522C115.012 269.176 115.079 268.806 115.072 268.435L115.495 261.246C115.493 261.006 115.54 260.768 115.633 260.547C115.726 260.325 115.863 260.125 116.035 259.958C116.197 259.793 116.391 259.664 116.606 259.58C116.82 259.495 117.05 259.456 117.281 259.466L123.25 259.817C123.48 259.83 123.705 259.894 123.908 260.003C124.111 260.112 124.287 260.265 124.424 260.449C124.733 260.824 124.892 261.3 124.871 261.784L124.636 265.531L127.315 265.695L127.55 261.808C127.618 261.332 127.861 260.898 128.231 260.59C128.42 260.41 128.646 260.272 128.894 260.187C129.141 260.102 129.404 260.072 129.665 260.098L135.586 260.449C135.839 260.45 136.088 260.507 136.316 260.617C136.544 260.726 136.744 260.885 136.902 261.082C137.183 261.451 137.325 261.907 137.302 262.37L137.067 266.257L150.343 267.03C150.906 267.008 151.459 267.172 151.918 267.498C152.239 268.058 152.347 268.715 152.223 269.348L151.965 274.196ZM176.098 274.406C176.149 274.926 175.997 275.446 175.675 275.858C175.455 276.041 175.199 276.177 174.924 276.258C174.65 276.338 174.361 276.362 174.077 276.327H172.949V278.856L174.218 278.294C174.97 278.106 175.487 278.153 175.722 278.528C175.955 279.025 176.052 279.574 176.004 280.12V284.804C176.058 285.302 175.924 285.803 175.628 286.209C175.131 286.511 174.612 286.777 174.077 287.005L172.949 287.473V301.524C172.971 301.738 172.945 301.955 172.872 302.157C172.799 302.36 172.68 302.544 172.526 302.695C172.063 302.98 171.514 303.095 170.975 303.022H163.925C163.401 303.085 162.872 302.969 162.421 302.695C162.267 302.544 162.149 302.36 162.075 302.157C162.002 301.955 161.976 301.738 161.998 301.524V297.215C161.954 296.692 162.114 296.172 162.445 295.763C162.889 295.472 163.419 295.34 163.949 295.388H164.137C164.364 295.408 164.59 295.338 164.765 295.193C164.941 295.049 165.053 294.841 165.077 294.616V290.611L162.492 291.735C162.286 291.853 162.047 291.903 161.811 291.878C161.575 291.852 161.353 291.753 161.176 291.595C160.98 291.364 160.836 291.094 160.755 290.803C160.674 290.512 160.657 290.207 160.706 289.909V285.553C160.659 285.309 160.665 285.058 160.721 284.816C160.778 284.574 160.885 284.346 161.035 284.148C161.536 283.771 162.071 283.442 162.633 283.164L164.983 282.087V276.327H162.492C161.74 276.327 161.223 276.186 160.988 275.858C160.665 275.446 160.514 274.926 160.565 274.406V272.065C160.49 271.455 160.641 270.839 160.988 270.332C161.195 270.161 161.436 270.035 161.695 269.962C161.954 269.89 162.226 269.872 162.492 269.91H164.983V263.868C164.909 263.331 165.026 262.784 165.312 262.323C165.769 262.065 166.293 261.951 166.816 261.995H171.069C171.614 261.936 172.163 262.068 172.62 262.37C172.791 262.576 172.918 262.816 172.991 263.074C173.063 263.333 173.081 263.603 173.043 263.868V269.91H174.171C174.737 269.853 175.305 270.003 175.769 270.332C176.116 270.839 176.266 271.455 176.192 272.065L176.098 274.406ZM202.721 301.5C202.731 301.733 202.684 301.965 202.586 302.177C202.488 302.388 202.341 302.574 202.157 302.718C201.745 303.011 201.254 303.174 200.747 303.186C196.809 302.177 192.94 300.918 189.163 299.416C187.97 300.061 186.737 300.632 185.473 301.126C183.266 302.227 180.878 302.925 178.424 303.186C177.927 303.18 177.447 303.007 177.061 302.695C176.887 302.545 176.75 302.357 176.66 302.146C176.571 301.935 176.531 301.706 176.544 301.477V297.074C176.542 296.847 176.587 296.622 176.676 296.412C176.765 296.203 176.896 296.014 177.061 295.857C177.465 295.577 177.934 295.408 178.424 295.365C179.361 295.296 180.289 295.14 181.197 294.897C180.759 294.538 180.364 294.129 180.022 293.679C179.124 292.857 178.474 291.803 178.142 290.635C178.142 290.119 178.142 289.768 178.518 289.604C178.867 289.383 179.281 289.284 179.693 289.323H183.5C183.925 289.305 184.347 289.402 184.721 289.604C185.123 289.867 185.5 290.165 185.849 290.494C186.868 291.314 187.99 291.999 189.186 292.531C190.293 292.217 191.326 291.686 192.226 290.971C193.125 290.255 193.873 289.369 194.426 288.363H179.669C179.171 288.389 178.683 288.221 178.306 287.895C178.13 287.739 177.988 287.548 177.891 287.334C177.794 287.12 177.743 286.888 177.742 286.654V282.719C177.743 282.481 177.793 282.246 177.89 282.028C177.987 281.81 178.129 281.615 178.306 281.455C178.685 281.118 179.163 280.913 179.669 280.87H199.878C200.377 280.903 200.846 281.12 201.194 281.478C201.552 281.812 201.785 282.259 201.852 282.743V286.583C201.7 287.988 201.252 289.345 200.536 290.564C199.663 292.115 198.469 293.464 197.035 294.522C198.257 294.779 199.526 295.06 200.841 295.388C201.348 295.439 201.833 295.616 202.251 295.904C202.435 296.048 202.582 296.233 202.68 296.445C202.778 296.656 202.825 296.888 202.815 297.121L202.721 301.5ZM254.065 300.212C253.906 300.365 253.705 300.467 253.487 300.505C253.269 300.542 253.045 300.514 252.844 300.423C248.994 298.7 245.515 296.25 242.598 293.211C240.025 296.559 236.835 299.388 233.199 301.547C233.016 301.661 232.804 301.722 232.588 301.722C232.372 301.722 232.16 301.661 231.977 301.547C231.792 301.408 231.642 301.227 231.54 301.02C231.438 300.812 231.387 300.584 231.389 300.353L231.107 295.435C231.065 295.021 231.173 294.605 231.413 294.264C231.671 293.96 232.846 292.953 234.961 291.15C236.1 290.14 237.124 289.009 238.016 287.778C235.825 284.687 234.231 281.217 233.316 277.544C232.72 277.856 232.062 278.032 231.389 278.059C230.928 278.058 230.481 277.901 230.121 277.614C229.948 277.469 229.807 277.29 229.706 277.089C229.605 276.888 229.546 276.668 229.533 276.444V275.647C229.183 275.757 228.819 275.82 228.452 275.835L220.04 276.327L220.228 279.558L227.277 279.137C227.88 279.039 228.498 279.138 229.04 279.418C229.211 279.61 229.336 279.838 229.405 280.086C229.475 280.333 229.486 280.593 229.439 280.846L230.543 299.978C230.615 300.503 230.516 301.036 230.262 301.5C229.768 301.823 229.181 301.972 228.593 301.922L223.517 302.203C222.981 302.278 222.434 302.197 221.943 301.969C221.747 301.782 221.593 301.556 221.492 301.306C221.391 301.056 221.344 300.787 221.356 300.517L221.121 296.442C221.07 296.166 221.082 295.882 221.155 295.61C221.228 295.339 221.361 295.087 221.544 294.873C221.982 294.544 222.523 294.378 223.071 294.405H223.494L223.071 287.239L220.439 287.403C220.435 290.705 219.73 293.969 218.371 296.981C216.726 300.61 215.105 302.484 213.46 302.578C213.008 302.563 212.573 302.407 212.215 302.133C212.036 301.987 211.891 301.806 211.79 301.6C211.688 301.393 211.633 301.168 211.627 300.938L211.322 295.833C211.289 295.431 211.406 295.031 211.651 294.709C212.031 294.142 212.354 293.538 212.614 292.906C213.064 291.734 213.387 290.517 213.578 289.276C213.813 287.066 213.813 284.836 213.578 282.626L213.249 276.725H212.074C211.807 276.77 211.534 276.76 211.271 276.695C211.008 276.631 210.762 276.513 210.546 276.35C210.21 275.932 210.027 275.411 210.029 274.875L209.818 271.081C209.69 270.475 209.809 269.844 210.147 269.325C210.547 268.972 211.07 268.787 211.604 268.809L215.739 268.575L215.434 263.025C215.46 262.548 215.633 262.091 215.927 261.714C216.308 261.351 216.811 261.142 217.337 261.129L220.721 260.941C221.236 260.889 221.751 261.04 222.155 261.363C222.342 261.514 222.495 261.702 222.604 261.916C222.714 262.13 222.777 262.364 222.789 262.604L223.118 268.154L227.818 267.896C228.365 267.804 228.927 267.921 229.392 268.224C229.718 268.739 229.912 269.326 229.956 269.934V271.292L230.52 270.402C231.106 269.305 231.578 268.152 231.93 266.96C232.401 265.736 232.609 264.428 232.541 263.119V262.276C232.519 261.791 232.678 261.316 232.987 260.941C233.115 260.758 233.283 260.605 233.478 260.496C233.674 260.386 233.891 260.322 234.115 260.309L237.499 260.122C237.758 260.067 238.027 260.081 238.279 260.164C238.531 260.246 238.756 260.393 238.932 260.59C239.214 260.963 239.378 261.411 239.402 261.878V262.627C239.49 264.063 239.387 265.504 239.097 266.913L250.071 266.28C250.349 266.222 250.637 266.221 250.915 266.278C251.194 266.334 251.458 266.447 251.692 266.608C252.069 267.095 252.253 267.704 252.209 268.318L252.397 271.596C252.465 272.126 252.349 272.663 252.068 273.118C251.857 273.47 251.293 273.633 250.494 273.68H249.93C249.957 278.466 248.699 283.171 246.287 287.309C247.316 288.45 248.485 289.457 249.765 290.307C251.101 291.118 252.381 292.017 253.595 293C253.878 293.316 254.037 293.724 254.042 294.147L254.324 299.065C254.403 299.496 254.31 299.942 254.065 300.306V300.212ZM260.363 266.046C260.01 265.645 259.818 265.128 259.823 264.594L259.4 261.152C259.332 260.56 259.396 259.96 259.588 259.396C259.99 259.022 260.518 258.813 261.068 258.81L277.916 256.82C278.475 256.696 279.06 256.779 279.561 257.054C279.964 257.525 280.189 258.121 280.196 258.74L280.595 262.182C280.71 262.704 280.618 263.25 280.337 263.704C280.102 264.079 279.608 264.266 278.809 264.36L261.961 266.327C261.69 266.399 261.407 266.411 261.131 266.363C260.855 266.314 260.593 266.206 260.363 266.046ZM271.196 283.328C271.409 286.801 270.889 290.279 269.668 293.538C268.259 297.191 266.731 299.159 265.157 299.346C264.699 299.371 264.246 299.248 263.864 298.995C263.677 298.863 263.522 298.691 263.408 298.493C263.295 298.295 263.226 298.075 263.206 297.847L262.525 292.016C262.473 291.618 262.556 291.215 262.76 290.869C263.18 290.285 263.535 289.656 263.817 288.995C264.311 288.044 264.592 286.997 264.64 285.928C264.781 284.471 264.781 283.005 264.64 281.549L263.183 269.301C263.115 268.838 263.189 268.365 263.394 267.943C263.521 267.737 263.697 267.565 263.906 267.443C264.115 267.32 264.351 267.251 264.593 267.241L277.799 265.695C278.539 265.553 279.305 265.677 279.961 266.046C280.24 266.299 280.466 266.606 280.623 266.948C280.781 267.29 280.867 267.66 280.877 268.037L282.24 279.605C282.24 280.588 282.24 281.314 281.817 281.689C281.249 282.177 280.523 282.443 279.773 282.438L271.196 283.328ZM302.449 274.242C302.042 274.644 301.494 274.871 300.921 274.875L299.159 275.085L301.321 293.374C301.343 293.624 301.315 293.876 301.238 294.115C301.161 294.354 301.037 294.575 300.872 294.765C300.708 294.955 300.507 295.11 300.281 295.221C300.056 295.332 299.81 295.397 299.558 295.412L296.95 295.716C296.691 295.775 296.421 295.776 296.161 295.72C295.902 295.663 295.657 295.55 295.446 295.388C295.049 295.086 294.788 294.64 294.718 294.147L292.579 275.858L289.854 276.186L290.183 278.926C290.752 283.172 290.293 287.492 288.843 291.524C287.41 295.154 285.929 297.074 284.308 297.262C283.859 297.308 283.409 297.191 283.039 296.934C282.845 296.81 282.683 296.64 282.569 296.441C282.454 296.241 282.39 296.016 282.381 295.786L281.7 289.955C281.661 289.758 281.662 289.555 281.702 289.358C281.742 289.161 281.821 288.974 281.935 288.808C282.355 288.224 282.709 287.596 282.992 286.935C283.509 285.875 283.79 284.717 283.814 283.539C283.885 281.472 283.767 279.403 283.462 277.357L281.911 264.056C281.814 263.319 281.87 262.569 282.076 261.854C282.402 261.361 282.857 260.964 283.392 260.707L298.619 254.408C299.063 254.117 299.593 253.985 300.122 254.033C300.381 254.197 300.569 254.595 300.663 255.344L301.25 260.356C301.3 260.579 301.305 260.81 301.264 261.035C301.224 261.26 301.139 261.475 301.015 261.667C300.618 262.082 300.127 262.396 299.582 262.58L288.773 267.006L288.984 268.646L300.028 267.358C300.304 267.284 300.592 267.267 300.875 267.307C301.158 267.347 301.429 267.444 301.673 267.592C301.979 267.779 302.19 268.365 302.308 269.254L302.707 272.697C302.802 273.226 302.71 273.772 302.449 274.242Z" fill="white"/>
<path d="M242.034 281.291C243.075 278.996 243.604 276.503 243.585 273.985L239.637 274.196C239.887 276.711 240.707 279.137 242.034 281.291Z" fill="white"/>
<path d="M274.804 273.614L270.277 274.145L270.452 275.633L274.98 275.103L274.804 273.614Z" fill="white"/>
<path d="M120.9 277.24C120.387 277.762 119.811 278.219 119.184 278.598L126.539 279.043L126.798 274.734L122.897 274.5C122.434 275.544 121.753 276.478 120.9 277.24Z" fill="white"/>
<path d="M182.818 320H178.776C128.252 319.98 77.8611 314.825 28.3862 304.615C27.8475 304.505 27.3643 304.211 27.0208 303.783C26.6773 303.355 26.4953 302.821 26.5063 302.273V230.358C26.4992 230.007 26.5715 229.658 26.7177 229.339C26.864 229.019 27.0806 228.736 27.3514 228.511C27.6222 228.287 27.9403 228.125 28.2821 228.04C28.624 227.954 28.9808 227.946 29.3262 228.016C79.1988 238.317 130.006 243.457 180.938 243.355C231.96 243.502 282.858 238.354 332.809 227.993C333.148 227.922 333.499 227.928 333.837 228.009C334.174 228.09 334.489 228.244 334.759 228.461C335.032 228.681 335.251 228.96 335.402 229.276C335.552 229.592 335.63 229.938 335.629 230.288V302.25C335.64 302.797 335.458 303.332 335.114 303.76C334.771 304.188 334.287 304.482 333.749 304.591C284.099 314.853 233.524 320.016 182.818 320ZM180.797 315.316H182.795C232.521 315.311 282.12 310.298 330.835 300.353V233.168C282.112 243.053 232.517 248.035 182.795 248.038H178.8C129.214 248.025 79.754 243.067 31.159 233.238V300.423C80.3961 310.474 130.538 315.465 180.797 315.316Z" fill="white"/>
</g>
<defs>
<clipPath id="clip0_3_1192">
<rect width="368.338" height="320" fill="white"/>
</clipPath>
</defs>
</svg>
