<svg width="108" height="40" viewBox="0 0 108 40" fill="none" xmlns="http://www.w3.org/2000/svg">
<path d="M1.026 27.3L0.972 26.733C0.936 26.301 1.044 25.923 1.296 25.599C1.566 25.257 1.908 25.041 2.322 24.951C3.042 24.807 3.573 24.699 3.915 24.627C4.041 24.609 4.104 24.519 4.104 24.357V13.692C4.104 13.548 4.023 13.476 3.861 13.476H2.727C2.313 13.476 1.953 13.323 1.647 13.017C1.341 12.711 1.188 12.351 1.188 11.937V11.478C1.188 11.064 1.341 10.713 1.647 10.425C1.953 10.119 2.313 9.966 2.727 9.966H9.99C10.404 9.966 10.764 10.119 11.07 10.425C11.376 10.713 11.529 11.064 11.529 11.478V11.937C11.529 12.351 11.376 12.711 11.07 13.017C10.764 13.323 10.404 13.476 9.99 13.476H8.532C8.37 13.476 8.289 13.548 8.289 13.692V23.358C8.289 23.52 8.361 23.583 8.505 23.547C8.703 23.493 8.982 23.412 9.342 23.304C9.72 23.196 9.927 23.133 9.963 23.115C10.341 23.007 10.692 23.061 11.016 23.277C11.358 23.475 11.538 23.772 11.556 24.168L11.583 24.654C11.619 25.104 11.52 25.518 11.286 25.896C11.052 26.274 10.719 26.526 10.287 26.652C7.965 27.39 5.436 28.02 2.7 28.542C2.286 28.632 1.908 28.551 1.566 28.299C1.242 28.047 1.062 27.714 1.026 27.3ZM19.98 28.407C20.196 28.407 20.385 28.335 20.547 28.191C20.709 28.029 20.862 27.714 21.006 27.246C21.15 26.76 21.267 26.103 21.357 25.275C21.465 24.447 21.546 23.34 21.6 21.954C21.654 20.568 21.681 18.912 21.681 16.986C21.681 16.824 21.6 16.743 21.438 16.743H18.225C18.063 16.743 17.982 16.824 17.982 16.986C17.658 21.018 16.983 24.105 15.957 26.247C14.949 28.371 13.365 30.225 11.205 31.809C10.845 32.079 10.44 32.187 9.99 32.133C9.54 32.097 9.153 31.926 8.829 31.62L7.938 30.783C7.65 30.531 7.524 30.216 7.56 29.838C7.614 29.442 7.794 29.136 8.1 28.92C9.936 27.66 11.268 26.193 12.096 24.519C12.942 22.827 13.509 20.316 13.797 16.986C13.797 16.824 13.725 16.743 13.581 16.743H11.88C11.466 16.743 11.106 16.59 10.8 16.284C10.512 15.978 10.368 15.618 10.368 15.204V14.772C10.368 14.358 10.512 13.998 10.8 13.692C11.106 13.386 11.466 13.233 11.88 13.233H13.797C13.941 13.233 14.013 13.161 14.013 13.017C14.067 10.749 14.094 9.543 14.094 9.399C14.094 8.967 14.238 8.598 14.526 8.292C14.832 7.986 15.201 7.833 15.633 7.833H16.74C17.154 7.833 17.514 7.986 17.82 8.292C18.126 8.598 18.279 8.958 18.279 9.372C18.279 9.534 18.252 10.749 18.198 13.017C18.198 13.161 18.27 13.233 18.414 13.233H24.327C24.741 13.233 25.101 13.386 25.407 13.692C25.713 13.998 25.866 14.358 25.866 14.772C25.866 16.878 25.848 18.714 25.812 20.28C25.776 21.828 25.713 23.223 25.623 24.465C25.551 25.689 25.461 26.715 25.353 27.543C25.263 28.353 25.119 29.055 24.921 29.649C24.723 30.243 24.534 30.693 24.354 30.999C24.174 31.305 23.913 31.548 23.571 31.728C23.229 31.908 22.905 32.016 22.599 32.052C22.311 32.106 21.915 32.133 21.411 32.133C20.457 32.133 19.206 32.079 17.658 31.971C17.226 31.953 16.866 31.782 16.578 31.458C16.29 31.134 16.137 30.756 16.119 30.324L16.092 29.676C16.074 29.28 16.209 28.938 16.497 28.65C16.803 28.362 17.163 28.236 17.577 28.272C18.873 28.362 19.674 28.407 19.98 28.407ZM56.295 15.744C55.881 15.744 55.521 15.6 55.215 15.312C54.927 15.006 54.783 14.646 54.783 14.232V13.773C54.783 13.359 54.927 13.008 55.215 12.72C55.521 12.414 55.881 12.261 56.295 12.261H56.673C56.817 12.261 56.889 12.18 56.889 12.018V9.48C56.889 9.066 57.042 8.706 57.348 8.4C57.654 8.094 58.014 7.941 58.428 7.941H59.373C59.787 7.941 60.138 8.094 60.426 8.4C60.732 8.706 60.885 9.066 60.885 9.48V12.018C60.885 12.18 60.966 12.261 61.128 12.261H61.344C61.668 12.261 61.938 12.333 62.154 12.477C62.28 12.567 62.343 12.54 62.343 12.396C62.361 12.072 62.487 11.802 62.721 11.586C62.955 11.37 63.234 11.262 63.558 11.262C63.666 11.262 63.702 11.208 63.666 11.1C63.648 11.046 63.612 10.965 63.558 10.857C63.522 10.731 63.495 10.641 63.477 10.587C63.333 10.209 63.333 9.831 63.477 9.453C63.639 9.075 63.918 8.823 64.314 8.697L64.341 8.67C64.755 8.526 65.16 8.544 65.556 8.724C65.952 8.886 66.231 9.165 66.393 9.561C66.645 10.209 66.834 10.704 66.96 11.046C67.014 11.19 67.122 11.262 67.284 11.262C67.446 11.262 67.527 11.181 67.527 11.019V9.318C67.527 8.904 67.68 8.553 67.986 8.265C68.292 7.959 68.652 7.806 69.066 7.806H69.255C69.669 7.806 70.029 7.959 70.335 8.265C70.641 8.553 70.794 8.904 70.794 9.318V11.019C70.794 11.181 70.866 11.262 71.01 11.262H71.604C71.766 11.262 71.847 11.181 71.847 11.019V9.318C71.847 8.904 72 8.553 72.306 8.265C72.612 7.959 72.972 7.806 73.386 7.806H73.575C73.989 7.806 74.349 7.959 74.655 8.265C74.961 8.553 75.114 8.904 75.114 9.318V11.019C75.114 11.181 75.186 11.262 75.33 11.262H75.357C75.519 11.262 75.627 11.19 75.681 11.046C75.969 10.29 76.149 9.813 76.221 9.615C76.365 9.201 76.626 8.895 77.004 8.697C77.382 8.499 77.769 8.454 78.165 8.562C78.579 8.67 78.876 8.904 79.056 9.264C79.254 9.624 79.29 10.002 79.164 10.398C79.128 10.47 79.083 10.587 79.029 10.749C78.975 10.911 78.93 11.028 78.894 11.1C78.876 11.136 78.876 11.172 78.894 11.208C78.93 11.244 78.966 11.262 79.002 11.262C79.254 11.262 79.47 11.361 79.65 11.559C79.848 11.739 79.947 11.955 79.947 12.207V13.152C79.947 13.566 79.794 13.926 79.488 14.232C79.182 14.538 78.822 14.691 78.408 14.691H77.652C77.49 14.691 77.391 14.763 77.355 14.907C77.301 15.087 77.22 15.357 77.112 15.717C77.022 16.077 76.95 16.347 76.896 16.527C76.86 16.671 76.905 16.743 77.031 16.743H78.354C78.75 16.743 79.083 16.887 79.353 17.175C79.641 17.445 79.785 17.778 79.785 18.174C79.785 18.57 79.641 18.903 79.353 19.173C79.083 19.443 78.75 19.578 78.354 19.578H73.467C73.305 19.578 73.224 19.659 73.224 19.821V20.199C73.224 20.343 73.305 20.415 73.467 20.415H77.841C78.219 20.415 78.543 20.55 78.813 20.82C79.083 21.09 79.218 21.414 79.218 21.792C79.218 22.17 79.083 22.503 78.813 22.791C78.543 23.061 78.219 23.196 77.841 23.196H73.467C73.305 23.196 73.224 23.268 73.224 23.412V23.79C73.224 23.934 73.305 24.006 73.467 24.006H78.543C78.957 24.006 79.317 24.159 79.623 24.465C79.929 24.771 80.082 25.131 80.082 25.545V25.626C80.082 26.04 79.929 26.4 79.623 26.706C79.317 26.994 78.957 27.138 78.543 27.138H74.79C74.754 27.138 74.727 27.156 74.709 27.192C74.691 27.228 74.7 27.255 74.736 27.273C75.726 28.011 77.166 28.587 79.056 29.001C79.452 29.091 79.758 29.307 79.974 29.649C80.19 29.991 80.235 30.36 80.109 30.756L79.893 31.458C79.767 31.872 79.515 32.187 79.137 32.403C78.777 32.637 78.39 32.691 77.976 32.565C75.222 31.791 73.035 30.531 71.415 28.785C71.289 28.659 71.181 28.65 71.091 28.758C69.273 30.54 66.897 31.818 63.963 32.592C63.549 32.7 63.153 32.637 62.775 32.403C62.415 32.187 62.163 31.872 62.019 31.458L61.776 30.756C61.65 30.36 61.695 29.991 61.911 29.649C62.127 29.307 62.442 29.091 62.856 29.001C64.854 28.587 66.366 28.011 67.392 27.273C67.428 27.255 67.437 27.228 67.419 27.192C67.401 27.156 67.374 27.138 67.338 27.138H63.639C63.225 27.138 62.865 26.994 62.559 26.706C62.253 26.4 62.1 26.04 62.1 25.626V25.545C62.1 25.131 62.253 24.771 62.559 24.465C62.865 24.159 63.225 24.006 63.639 24.006H68.715C68.859 24.006 68.931 23.934 68.931 23.79V23.412C68.931 23.268 68.859 23.196 68.715 23.196H64.476C64.098 23.196 63.774 23.061 63.504 22.791C63.234 22.503 63.099 22.17 63.099 21.792C63.099 21.414 63.234 21.09 63.504 20.82C63.774 20.55 64.098 20.415 64.476 20.415H68.715C68.859 20.415 68.931 20.343 68.931 20.199V19.821C68.931 19.659 68.859 19.578 68.715 19.578H63.801C63.405 19.578 63.072 19.443 62.802 19.173C62.532 18.903 62.397 18.57 62.397 18.174C62.397 17.778 62.532 17.445 62.802 17.175C63.072 16.887 63.405 16.743 63.801 16.743H65.475C65.619 16.743 65.673 16.671 65.637 16.527C65.583 16.347 65.502 16.077 65.394 15.717C65.304 15.357 65.232 15.087 65.178 14.907C65.142 14.763 65.043 14.691 64.881 14.691H63.882C63.594 14.691 63.324 14.61 63.072 14.448C62.964 14.376 62.892 14.403 62.856 14.529C62.784 14.889 62.604 15.186 62.316 15.42C62.046 15.654 61.722 15.771 61.344 15.771H61.128C60.966 15.771 60.885 15.843 60.885 15.987V20.01C60.885 20.154 60.957 20.208 61.101 20.172C61.443 20.064 61.758 20.118 62.046 20.334C62.352 20.532 62.505 20.811 62.505 21.171V21.981C62.505 22.413 62.37 22.809 62.1 23.169C61.848 23.529 61.515 23.772 61.101 23.898C60.957 23.934 60.885 24.033 60.885 24.195V27.651C60.885 28.479 60.876 29.127 60.858 29.595C60.84 30.063 60.777 30.504 60.669 30.918C60.579 31.332 60.462 31.629 60.318 31.809C60.192 31.989 59.976 32.142 59.67 32.268C59.364 32.412 59.031 32.493 58.671 32.511C58.329 32.547 57.852 32.565 57.24 32.565C56.988 32.565 56.763 32.556 56.565 32.538C56.133 32.52 55.764 32.349 55.458 32.025C55.152 31.701 54.981 31.323 54.945 30.891L54.918 30.567C54.9 30.171 55.026 29.838 55.296 29.568C55.584 29.28 55.935 29.145 56.349 29.163H56.565C56.727 29.163 56.817 29.118 56.835 29.028C56.871 28.938 56.889 28.614 56.889 28.056V25.329C56.889 25.275 56.862 25.23 56.808 25.194C56.754 25.14 56.7 25.122 56.646 25.14C56.628 25.14 56.601 25.149 56.565 25.167C56.547 25.167 56.529 25.167 56.511 25.167C56.115 25.257 55.755 25.185 55.431 24.951C55.125 24.717 54.954 24.393 54.918 23.979L54.864 23.304C54.846 22.872 54.963 22.485 55.215 22.143C55.485 21.783 55.827 21.558 56.241 21.468C56.295 21.468 56.367 21.45 56.457 21.414C56.547 21.378 56.619 21.36 56.673 21.36C56.817 21.324 56.889 21.234 56.889 21.09V15.987C56.889 15.825 56.817 15.744 56.673 15.744H56.295ZM69.498 14.691C69.354 14.691 69.3 14.763 69.336 14.907L69.822 16.527C69.858 16.671 69.948 16.743 70.092 16.743H72.387C72.531 16.743 72.63 16.671 72.684 16.527C72.936 15.807 73.116 15.258 73.224 14.88C73.26 14.754 73.206 14.691 73.062 14.691H69.498ZM82.566 17.688C82.242 17.436 82.053 17.112 81.999 16.716C81.945 16.302 82.053 15.933 82.323 15.609L82.728 15.15C82.998 14.826 83.34 14.637 83.754 14.583C84.186 14.511 84.573 14.601 84.915 14.853C85.905 15.591 86.805 16.311 87.615 17.013C87.939 17.301 88.119 17.652 88.155 18.066C88.191 18.48 88.074 18.858 87.804 19.2L87.372 19.74C87.12 20.064 86.787 20.244 86.373 20.28C85.959 20.316 85.599 20.199 85.293 19.929C84.087 18.903 83.178 18.156 82.566 17.688ZM99.927 16.23C99.765 16.23 99.684 16.311 99.684 16.473V16.851C99.684 17.013 99.765 17.094 99.927 17.094H105.327C105.741 17.094 106.101 17.247 106.407 17.553C106.713 17.841 106.866 18.192 106.866 18.606V27.732C106.866 28.47 106.857 29.055 106.839 29.487C106.821 29.919 106.767 30.315 106.677 30.675C106.605 31.053 106.515 31.323 106.407 31.485C106.299 31.647 106.119 31.782 105.867 31.89C105.615 32.016 105.354 32.088 105.084 32.106C104.832 32.124 104.463 32.133 103.977 32.133C103.455 32.133 103.014 32.124 102.654 32.106C102.222 32.088 101.853 31.917 101.547 31.593C101.259 31.287 101.106 30.918 101.088 30.486L101.061 30.324C101.043 29.928 101.187 29.595 101.493 29.325C101.799 29.037 102.159 28.902 102.573 28.92H102.924C103.104 28.92 103.203 28.875 103.221 28.785C103.257 28.695 103.275 28.389 103.275 27.867V26.895C103.257 26.877 103.23 26.877 103.194 26.895C103.05 27.219 102.816 27.408 102.492 27.462C102.168 27.498 101.916 27.372 101.736 27.084C101.718 27.048 101.682 26.985 101.628 26.895C101.574 26.805 101.538 26.733 101.52 26.679C101.448 26.553 101.376 26.544 101.304 26.652C101.196 26.85 101.079 27.021 100.953 27.165C100.737 27.435 100.449 27.534 100.089 27.462C99.747 27.39 99.504 27.192 99.36 26.868C99.342 26.85 99.324 26.841 99.306 26.841C99.288 26.841 99.279 26.85 99.279 26.868V30.081C99.279 30.495 99.126 30.855 98.82 31.161C98.514 31.467 98.154 31.62 97.74 31.62H97.659C97.245 31.62 96.885 31.467 96.579 31.161C96.291 30.855 96.147 30.495 96.147 30.081V26.895C96.147 26.859 96.138 26.841 96.12 26.841C96.102 26.841 96.084 26.85 96.066 26.868C95.922 27.192 95.679 27.381 95.337 27.435C95.013 27.489 94.761 27.372 94.581 27.084C94.545 27.048 94.509 26.985 94.473 26.895C94.437 26.805 94.401 26.733 94.365 26.679C94.293 26.553 94.221 26.544 94.149 26.652C94.041 26.85 93.924 27.021 93.798 27.165C93.582 27.435 93.294 27.534 92.934 27.462C92.592 27.39 92.349 27.192 92.205 26.868C92.187 26.85 92.169 26.841 92.151 26.841C92.133 26.841 92.124 26.85 92.124 26.868V30.621C92.124 31.035 91.971 31.395 91.665 31.701C91.359 32.007 90.999 32.16 90.585 32.16H90.072C89.658 32.16 89.298 32.007 88.992 31.701C88.704 31.395 88.56 31.035 88.56 30.621V25.167C88.56 25.149 88.542 25.14 88.506 25.14C88.488 25.14 88.479 25.149 88.479 25.167C87.723 27.435 86.868 29.442 85.914 31.188C85.716 31.548 85.41 31.782 84.996 31.89C84.582 31.998 84.195 31.935 83.835 31.701L83.052 31.215C82.692 30.981 82.458 30.657 82.35 30.243C82.26 29.829 82.314 29.433 82.512 29.055C83.502 27.201 84.357 25.284 85.077 23.304C85.221 22.908 85.482 22.62 85.86 22.44C86.238 22.26 86.625 22.242 87.021 22.386L87.642 22.629C87.966 22.773 88.227 22.98 88.425 23.25C88.443 23.268 88.47 23.277 88.506 23.277C88.542 23.259 88.56 23.232 88.56 23.196V18.606C88.56 18.192 88.704 17.841 88.992 17.553C89.298 17.247 89.658 17.094 90.072 17.094H95.499C95.643 17.094 95.715 17.013 95.715 16.851V16.473C95.715 16.311 95.643 16.23 95.499 16.23H92.043C91.629 16.23 91.269 16.077 90.963 15.771C90.657 15.465 90.504 15.105 90.504 14.691V12.774C90.504 12.612 90.432 12.531 90.288 12.531H90.018C89.532 12.531 89.154 12.369 88.884 12.045C88.866 12.009 88.83 12 88.776 12.018C88.74 12.036 88.713 12.063 88.695 12.099C88.641 12.369 88.542 12.585 88.398 12.747L87.966 13.287C87.714 13.611 87.372 13.791 86.94 13.827C86.526 13.863 86.157 13.746 85.833 13.476C85.239 12.972 84.519 12.405 83.673 11.775C83.331 11.523 83.133 11.19 83.079 10.776C83.043 10.362 83.16 9.993 83.43 9.669L83.808 9.21C84.078 8.868 84.42 8.67 84.834 8.616C85.266 8.562 85.662 8.661 86.022 8.913C86.652 9.363 87.372 9.912 88.182 10.56L88.344 10.722C88.362 10.758 88.389 10.767 88.425 10.749C88.479 10.731 88.506 10.704 88.506 10.668C88.56 10.29 88.722 9.975 88.992 9.723C89.28 9.471 89.622 9.345 90.018 9.345H90.288C90.432 9.345 90.504 9.273 90.504 9.129C90.504 8.715 90.648 8.364 90.936 8.076C91.242 7.788 91.593 7.644 91.989 7.644H93.204C93.618 7.644 93.969 7.788 94.257 8.076C94.545 8.364 94.689 8.715 94.689 9.129C94.689 9.273 94.761 9.345 94.905 9.345H100.278C100.422 9.345 100.494 9.273 100.494 9.129C100.494 8.715 100.638 8.364 100.926 8.076C101.232 7.788 101.583 7.644 101.979 7.644H103.194C103.608 7.644 103.959 7.788 104.247 8.076C104.535 8.364 104.679 8.715 104.679 9.129C104.679 9.273 104.751 9.345 104.895 9.345H105.624C106.038 9.345 106.398 9.498 106.704 9.804C107.01 10.11 107.163 10.47 107.163 10.884V11.019C107.163 11.433 107.01 11.793 106.704 12.099C106.398 12.387 106.038 12.531 105.624 12.531H104.922C104.76 12.531 104.679 12.612 104.679 12.774V14.691C104.679 15.105 104.526 15.465 104.22 15.771C103.914 16.077 103.554 16.23 103.14 16.23H99.927ZM92.691 24.492C92.925 24.132 93.042 23.682 93.042 23.142C93.042 23.07 93.006 23.034 92.934 23.034C92.664 23.034 92.43 22.908 92.232 22.656C92.214 22.638 92.187 22.629 92.151 22.629C92.133 22.629 92.124 22.647 92.124 22.683V25.545C92.142 25.545 92.169 25.536 92.205 25.518C92.295 25.248 92.457 24.906 92.691 24.492ZM95.904 24.519L96.066 25.005C96.084 25.005 96.111 24.996 96.147 24.978V20.199C96.147 20.037 96.066 19.956 95.904 19.956H92.367C92.205 19.956 92.124 20.037 92.124 20.199V21.333C92.142 21.351 92.169 21.351 92.205 21.333C92.421 20.901 92.772 20.685 93.258 20.685H94.041C94.455 20.685 94.815 20.838 95.121 21.144C95.427 21.45 95.58 21.81 95.58 22.224C95.58 23.232 95.688 23.997 95.904 24.519ZM99.846 24.492C100.08 24.132 100.197 23.682 100.197 23.142C100.197 23.07 100.161 23.034 100.089 23.034C99.801 23.034 99.567 22.908 99.387 22.656C99.369 22.638 99.342 22.629 99.306 22.629C99.288 22.629 99.279 22.647 99.279 22.683V25.545C99.297 25.545 99.324 25.536 99.36 25.518C99.45 25.248 99.612 24.906 99.846 24.492ZM103.059 19.956H99.522C99.36 19.956 99.279 20.037 99.279 20.199V21.333C99.297 21.351 99.324 21.351 99.36 21.333C99.576 20.901 99.927 20.685 100.413 20.685H101.196C101.61 20.685 101.97 20.838 102.276 21.144C102.582 21.45 102.735 21.81 102.735 22.224C102.735 23.232 102.843 23.997 103.059 24.519L103.221 25.005C103.239 24.987 103.257 24.978 103.275 24.978V20.199C103.275 20.037 103.203 19.956 103.059 19.956ZM94.932 13.584H100.278C100.422 13.584 100.494 13.503 100.494 13.341V12.774C100.494 12.612 100.422 12.531 100.278 12.531H94.932C94.77 12.531 94.689 12.612 94.689 12.774V13.341C94.689 13.503 94.77 13.584 94.932 13.584Z" fill="white"/>
<path d="M41.846 13.412C41.8633 13.2387 41.8807 13.0653 41.898 12.892C41.9153 12.7013 41.9327 12.5193 41.95 12.346H35.814V9.46H42.132C42.1493 9.148 42.158 8.84467 42.158 8.55C42.1753 8.25533 42.184 7.96933 42.184 7.692L46.162 7.77L45.954 9.46H52.22V12.346H45.59L45.434 13.412H51.544V20.588H36.646V13.412H41.846ZM35.736 9.122C35.1813 9.902 34.5487 10.6993 33.838 11.514C33.1447 12.3287 32.434 13.1087 31.706 13.854C30.978 14.582 30.2673 15.2407 29.574 15.83C29.418 15.57 29.2187 15.2753 28.976 14.946C28.7507 14.5993 28.5167 14.2527 28.274 13.906C28.0313 13.5593 27.8147 13.2733 27.624 13.048C28.196 12.5973 28.7853 12.0687 29.392 11.462C29.9987 10.8553 30.5707 10.2313 31.108 9.59C31.6453 8.93133 32.0873 8.32467 32.434 7.77L35.736 9.122ZM36.152 14.686C35.892 15.2927 35.606 15.9167 35.294 16.558C34.982 17.1993 34.6527 17.8407 34.306 18.482V32.496H30.796V23.916C30.588 24.1933 30.3713 24.462 30.146 24.722C29.938 24.9647 29.73 25.2073 29.522 25.45C29.4007 25.1727 29.2187 24.8087 28.976 24.358C28.7333 23.89 28.482 23.4307 28.222 22.98C27.962 22.5293 27.728 22.1653 27.52 21.888C28.1787 21.1947 28.8373 20.3973 29.496 19.496C30.1547 18.5947 30.77 17.6327 31.342 16.61C31.914 15.5873 32.408 14.5647 32.824 13.542L36.152 14.686ZM47.15 17.988H48.528V16.012H47.15V17.988ZM44.654 16.012H43.328V17.988H44.654V16.012ZM40.832 16.012H39.506V17.988H40.832V16.012ZM49.672 31.95C49.568 31.5513 49.4033 31.118 49.178 30.65C48.9527 30.1993 48.6927 29.7313 48.398 29.246C48.2247 30.39 47.8953 31.1613 47.41 31.56C46.942 31.976 46.2487 32.184 45.33 32.184H43.354C42.4353 32.184 41.7333 32.0713 41.248 31.846C40.7627 31.6207 40.4333 31.248 40.26 30.728C40.104 30.208 40.026 29.506 40.026 28.622V26.36H42.496C42.1667 26.204 41.8287 26.0567 41.482 25.918C41.1527 25.7793 40.8407 25.6493 40.546 25.528L41.482 24.462H35.84V21.498H52.246V24.462H45.122C45.5207 24.6353 45.8933 24.8173 46.24 25.008C46.5867 25.1813 46.8813 25.3547 47.124 25.528L45.174 27.894C44.758 27.582 44.1947 27.2353 43.484 26.854V28.57C43.484 28.8993 43.51 29.0987 43.562 29.168C43.614 29.2373 43.7527 29.272 43.978 29.272H44.914C45.1047 29.272 45.2347 29.194 45.304 29.038C45.3907 28.882 45.4513 28.5093 45.486 27.92C45.7807 28.1453 46.2053 28.362 46.76 28.57C47.3147 28.778 47.8173 28.934 48.268 29.038C47.8 28.31 47.306 27.634 46.786 27.01L49.49 25.684C50.1487 26.3773 50.7727 27.1747 51.362 28.076C51.9513 28.96 52.3673 29.7573 52.61 30.468L49.672 31.95ZM34.566 30.234C35.138 29.7313 35.5973 29.1073 35.944 28.362C36.308 27.5993 36.568 26.7933 36.724 25.944L39.688 26.828C39.4973 27.8507 39.22 28.8387 38.856 29.792C38.492 30.728 37.9373 31.5253 37.192 32.184L34.566 30.234Z" fill="white"/>
</svg>
