<svg width="41" height="32" viewBox="0 0 41 32" fill="none" xmlns="http://www.w3.org/2000/svg">
<path fill-rule="evenodd" clip-rule="evenodd" d="M36.7357 16.303C36.7357 16.4842 36.7354 16.665 36.7346 16.8454C37.2511 16.808 37.777 16.8876 38.2774 17.1002C40.084 17.8676 40.8746 20.0763 40.0432 22.0334C39.3072 23.7662 37.5466 24.7209 35.8988 24.3844C34.4897 28.8379 30.7301 32 20.7424 32C9.55276 32 5.9035 28.8097 4.71903 24.3248C3.00427 24.8136 1.10311 23.8521 0.330601 22.0334C-0.500749 20.0763 0.289847 17.8676 2.09645 17.1002C2.7653 16.8161 3.47965 16.7694 4.15632 16.9225C4.15678 16.7165 4.15716 16.51 4.15716 16.303C4.15716 8.12458 11.4501 1.49463 20.4464 1.49463C29.4427 1.49463 36.7357 8.12458 36.7357 16.303Z" fill="#E384F2" fill-opacity="0.5"/>
<path d="M2.38086 14.2264C2.38086 5.63751 11.682 0.278458 20.4454 0.0139518C27.8389 -0.209207 35.7066 2.22909 37.9283 8.44996C40.15 14.6708 39.2608 16.004 36.5953 16.8925C33.9297 17.7809 26.8624 11.2683 24.2956 7.71431C18.8215 14.2264 2.38086 21.8083 2.38086 14.2264Z" fill="#3C3B67"/>
<ellipse cx="14.5226" cy="21.0417" rx="4.44252" ry="4.73869" fill="white"/>
<ellipse cx="26.9621" cy="21.0417" rx="4.44252" ry="4.73869" fill="white"/>
<ellipse cx="15.7085" cy="20.1534" rx="2.66551" ry="3.25785" fill="#3C3B67"/>
<ellipse cx="28.146" cy="20.1534" rx="2.66551" ry="3.25785" fill="#3C3B67"/>
</svg>
