<svg width="35" height="33" viewBox="0 0 35 33" fill="none" xmlns="http://www.w3.org/2000/svg">
<path fill-rule="evenodd" clip-rule="evenodd" d="M35 15.3959C35 20.7266 31.9206 25.4245 27.2414 28.1879C26.7449 30.3838 24.7819 32.0235 22.4359 32.0235H13.1984C11.004 32.0235 9.14467 30.5888 8.50724 28.6062C3.41065 25.9152 0 21.0059 0 15.3959C0 6.89298 7.83502 0 17.5 0C27.165 0 35 6.89298 35 15.3959ZM11.1375 25.2495C13.7734 25.2495 15.9103 23.0438 15.9103 20.3228C15.9103 17.6019 13.7734 15.3961 11.1375 15.3961C8.50164 15.3961 6.36481 17.6019 6.36481 20.3228C6.36481 23.0438 8.50164 25.2495 11.1375 25.2495ZM29.2755 20.3228C29.2755 23.0438 27.1387 25.2495 24.5028 25.2495C21.8669 25.2495 19.7301 23.0438 19.7301 20.3228C19.7301 17.6019 21.8669 15.3961 24.5028 15.3961C27.1387 15.3961 29.2755 17.6019 29.2755 20.3228ZM18.7365 24.2845C18.3883 23.4818 17.25 23.4818 16.9018 24.2845L16.2213 25.8528C15.9348 26.5131 16.4188 27.2508 17.1387 27.2508H18.4996C19.2195 27.2508 19.7035 26.5131 19.417 25.8528L18.7365 24.2845Z" fill="#E384F2"/>
</svg>
