<svg width="213" height="48" viewBox="0 0 213 48" fill="none" xmlns="http://www.w3.org/2000/svg">
<path fill-rule="evenodd" clip-rule="evenodd" d="M19.7652 15.9886C19.5583 15.7752 18.6962 14.7176 18.0366 15.7253C17.1831 17.028 19.9247 18.2127 20.3816 17.6771C20.7954 17.1914 20.1187 16.3471 19.7695 15.984L19.7652 15.9886Z" fill="white"/>
<path fill-rule="evenodd" clip-rule="evenodd" d="M21.7437 17.6496C20.9979 17.7222 20.7393 18.3804 21.0928 18.7254C21.4031 19.0295 22.2997 18.9705 22.511 18.5483C22.7955 17.99 22.2092 17.6042 21.7437 17.6496Z" fill="white"/>
<path fill-rule="evenodd" clip-rule="evenodd" d="M25.0024 17.2139C25.4248 16.8553 25.9723 15.8658 25.3386 15.2984C24.4549 14.5086 22.5884 16.7691 23.1014 17.4999C23.4549 18.0037 24.373 17.745 25.0024 17.2139Z" fill="white"/>
<path fill-rule="evenodd" clip-rule="evenodd" d="M23.0962 19.32C23.8549 19.2609 23.8506 20.0417 25.3377 22.9058C26.5619 25.2616 29.5363 30.2409 29.9199 31.1623C31.0708 33.9266 29.838 35.9555 29.4845 36.5275C27.1223 40.3403 21.4926 40.7397 18.5485 39.033C17.0743 38.1797 14.7939 35.6832 15.2638 33.1777C15.9578 29.4693 19.5486 22.7742 19.8287 22.6925C20.8202 22.3974 20.2641 24.676 21.4711 24.5625C22.3806 24.4763 22.8505 22.1841 22.5703 21.0085C22.178 19.3517 22.0703 19.4062 23.1048 19.3245L23.0962 19.32ZM28.1784 34.9615C27.5835 36.069 26.7387 36.65 25.3808 37.1811C25.1136 37.2855 24.9756 37.5987 25.0748 37.8801C25.1739 38.1615 25.4713 38.3068 25.7386 38.2024C27.3723 37.5624 28.3638 36.827 29.075 35.4971C29.2173 35.2338 29.1268 34.9025 28.881 34.7572C28.631 34.6075 28.3164 34.7028 28.1741 34.966L28.1784 34.9615ZM22.6651 36.4821C21.747 36.4821 20.6822 36.2869 19.846 35.5743C18.8459 34.7209 18.3976 33.3411 18.5183 31.471C18.777 27.3813 21.4754 26.9864 22.2944 26.9592C24.148 26.9092 25.5748 27.8806 26.1136 29.5691C26.2817 30.1002 26.3205 30.6176 26.355 31.0352C26.3852 31.412 26.4154 31.8023 26.5318 31.8976C26.9758 32.2608 27.5404 32.1972 27.5491 32.1972C27.7215 32.1745 27.8982 32.2471 28.0103 32.3879C28.1224 32.5286 28.1612 32.7192 28.1094 32.8962C27.6568 34.4531 25.9843 35.8058 24.6308 36.2052C24.4713 36.2506 23.6566 36.4821 22.6651 36.4821ZM22.3246 28.0485C21.3676 28.0758 19.7382 28.5705 19.5486 31.5436C19.4537 33.0415 19.7727 34.1127 20.4969 34.73C21.859 35.8875 24.2471 35.193 24.3463 35.1612C25.2127 34.9025 26.2774 34.1172 26.8292 33.2185C26.5361 33.1459 26.2042 33.0097 25.8938 32.7601C25.4153 32.3697 25.3679 31.7342 25.3205 31.126C25.2903 30.7311 25.2601 30.3226 25.1308 29.9186C24.7342 28.6704 23.7428 28.0077 22.3246 28.0531V28.0485ZM21.2426 30.0729C20.6952 30.0366 20.5874 31.1078 21.1693 31.1305C21.7211 31.1532 21.9453 30.1229 21.2426 30.0729ZM22.9065 30.0729C22.2772 30.082 22.3117 31.1124 22.9065 31.0761C23.579 31.0307 23.385 30.0684 22.9065 30.0729Z" fill="white"/>
<path fill-rule="evenodd" clip-rule="evenodd" d="M11.8113 18.1398C10.1 18.4893 8.40589 19.7057 7.65585 20.7225C7.37566 19.8691 6.75493 18.9977 6.79803 18.2532C7.26789 17.3454 9.73788 16.0019 10.1646 16.0927C10.531 16.3423 10.6819 16.4467 11.1216 16.7962C11.9966 16.4059 13.833 15.3483 14.1088 15.8929C14.4321 16.5375 12.8372 17.4044 11.8156 18.1352L11.8113 18.1398Z" fill="white"/>
<path fill-rule="evenodd" clip-rule="evenodd" d="M11.8595 18.4076C11.894 18.3985 11.9241 18.3849 11.9543 18.3667C12.6914 17.8402 13.7087 17.241 14.1398 16.7054C14.4028 16.3786 14.4717 16.0564 14.3295 15.7704C14.2648 15.6388 14.157 15.5525 14.0148 15.5071C13.8725 15.4617 13.6786 15.4617 13.4501 15.5117C12.7949 15.6524 11.7905 16.188 11.1525 16.4876C10.7948 16.2061 10.6396 16.0972 10.3034 15.8657C10.2775 15.8476 10.243 15.8339 10.2128 15.8294C10.1525 15.8158 10.062 15.8158 9.95419 15.8385C9.78177 15.8748 9.52744 15.9656 9.23432 16.1063C8.67825 16.365 7.97131 16.7871 7.41955 17.2183C7.02728 17.527 6.71692 17.8493 6.57036 18.1307C6.55311 18.167 6.54018 18.2033 6.54018 18.2442C6.52294 18.5801 6.61346 18.9386 6.76002 19.3108C6.954 19.8011 7.24281 20.314 7.41093 20.8223C7.4411 20.9177 7.51869 20.9858 7.61353 20.9994C7.70836 21.0175 7.80319 20.9767 7.85923 20.8995C8.58342 19.9191 10.2128 18.7525 11.8638 18.4167L11.8595 18.4076ZM13.8769 16.0291C13.8984 16.079 13.8769 16.129 13.8553 16.1834C13.7993 16.3015 13.6915 16.424 13.5579 16.5511C13.088 16.9914 12.3078 17.4589 11.7086 17.8856C10.1439 18.2215 8.60066 19.2518 7.73422 20.2096C7.60922 19.9145 7.46265 19.624 7.33765 19.3335C7.18246 18.984 7.05315 18.6481 7.05315 18.3304C7.18246 18.1171 7.43248 17.881 7.72991 17.645C8.2515 17.2365 8.91964 16.8416 9.44123 16.5965C9.65676 16.4966 9.84643 16.4195 9.99299 16.3832C10.0275 16.3741 10.0576 16.365 10.0835 16.3605C10.4025 16.5783 10.5577 16.6873 10.9629 17.0141C11.0362 17.0731 11.1353 17.0867 11.2215 17.0504C11.8207 16.7826 12.8811 16.1925 13.5579 16.0427C13.6527 16.0246 13.7346 16.011 13.8079 16.0155C13.8338 16.0155 13.8682 16.0291 13.8812 16.0291H13.8769Z" fill="white"/>
<path fill-rule="evenodd" clip-rule="evenodd" d="M16.4195 22.4292C16.1307 23.573 15.9109 25.0074 13.2555 26.6732C12.6391 27.059 11.0485 27.2088 9.4665 28.7339C7.5569 30.5722 6.23785 33.5725 6.23785 33.5725C6.23785 33.5725 3.12558 31.0488 2.91005 29.6644C2.78073 28.8292 5.99214 24.2857 6.73788 23.4142C8.67335 21.1673 9.6691 20.1143 11.1821 19.5696C13.9323 18.5801 15.5531 20.0553 15.5531 20.0553L21.1397 19.8646L21.5147 21.1356C21.5147 21.1356 16.8765 22.3339 16.4152 22.4292H16.4195ZM12.9969 23.3597C13.8849 23.2144 13.8504 21.3716 12.7771 21.5577C11.7468 21.7393 11.8503 23.5458 12.9969 23.3597Z" fill="white"/>
<path d="M15.5769 37.5541C7.8155 37.5541 1.51953 31.2932 1.51953 23.5751C1.51953 15.8569 7.8155 9.6001 15.5769 9.6001C23.3342 9.6001 29.6342 15.861 29.6342 23.5751C29.6342 25.6459 29.4475 26.425 28.9198 28.0235" stroke="white" stroke-width="2.4" stroke-linecap="round" stroke-linejoin="round"/>
<path d="M49.5362 19.008C49.4082 19.5627 49.2269 20.2347 48.9922 21.024C48.9495 21.1947 48.9922 21.3227 49.1202 21.408C49.9309 22.1333 50.5389 22.6987 50.9442 23.104C51.3069 23.4667 51.4882 23.904 51.4882 24.416C51.4882 24.928 51.3069 25.3547 50.9442 25.696L50.1762 26.432C49.8135 26.7733 49.3869 26.944 48.8962 26.944C48.4269 26.944 48.0215 26.7627 47.6802 26.4C47.6162 26.3573 47.5415 26.2827 47.4562 26.176C47.3709 26.0693 47.2962 25.984 47.2322 25.92C47.1042 25.792 46.9975 25.8133 46.9122 25.984C46.3789 26.944 45.7709 27.84 45.0882 28.672C44.7895 29.0347 44.3949 29.2053 43.9042 29.184C43.4135 29.1627 43.0189 28.96 42.7202 28.576L41.8242 27.456C41.1202 26.5813 41.1202 25.632 41.8242 24.608C43.1469 22.752 44.0962 20.704 44.6722 18.464C44.8002 17.952 45.0669 17.5467 45.4722 17.248C45.8775 16.928 46.3362 16.8 46.8482 16.864L48.0642 17.024C48.5549 17.088 48.9495 17.3227 49.2482 17.728C49.5469 18.112 49.6429 18.5387 49.5362 19.008ZM66.2402 19.008C66.0909 19.6267 65.8775 20.3733 65.6002 21.248C65.5362 21.4187 65.5789 21.568 65.7282 21.696C66.8375 22.6987 67.8935 23.7333 68.8962 24.8C69.2589 25.184 69.4509 25.6533 69.4722 26.208C69.5149 26.7413 69.3869 27.2213 69.0882 27.648L68.4802 28.512C68.2242 28.896 67.8615 29.0987 67.3922 29.12C66.9442 29.1413 66.5709 28.9813 66.2722 28.64C65.6109 27.8933 64.7682 27.0293 63.7442 26.048C63.7015 26.0053 63.6375 25.9947 63.5522 26.016C63.4669 26.016 63.4135 26.048 63.3922 26.112C63.3069 26.2827 63.2322 26.4107 63.1682 26.496C62.8909 26.88 62.5069 27.0933 62.0162 27.136C61.5469 27.1573 61.1415 26.9973 60.8002 26.656L59.8082 25.664C59.4455 25.3013 59.2322 24.8533 59.1682 24.32C59.1255 23.7867 59.2429 23.296 59.5202 22.848C60.3309 21.4827 60.9495 20.0213 61.3762 18.464C61.5042 17.952 61.7709 17.5467 62.1762 17.248C62.5815 16.928 63.0402 16.8 63.5522 16.864L64.8002 17.024C65.2909 17.088 65.6749 17.3227 65.9522 17.728C66.2509 18.112 66.3469 18.5387 66.2402 19.008ZM41.5042 36.96L40.8642 35.84C40.6295 35.4347 40.5762 34.9973 40.7042 34.528C40.8535 34.0373 41.1415 33.6853 41.5682 33.472C46.4322 30.9333 50.1122 28.3307 52.6082 25.664C52.7149 25.5573 52.7682 25.408 52.7682 25.216V16.352C52.7682 16.1813 52.6829 16.096 52.5122 16.096H42.7522C42.2615 16.096 41.8349 15.9147 41.4722 15.552C41.1095 15.1893 40.9282 14.7627 40.9282 14.272V13.728C40.9282 13.2373 41.1095 12.8213 41.4722 12.48C41.8349 12.1173 42.2615 11.936 42.7522 11.936H52.5122C52.6829 11.936 52.7682 11.84 52.7682 11.648V11.36C52.7682 10.8693 52.9495 10.4427 53.3122 10.08C53.6749 9.71733 54.1015 9.536 54.5922 9.536H56.1922C56.6829 9.536 57.1095 9.71733 57.4722 10.08C57.8349 10.4427 58.0162 10.8693 58.0162 11.36V11.648C58.0162 11.84 58.1015 11.936 58.2722 11.936H68.0322C68.5229 11.936 68.9495 12.1173 69.3122 12.48C69.6749 12.8213 69.8562 13.2373 69.8562 13.728V14.272C69.8562 14.7627 69.6749 15.1893 69.3122 15.552C68.9495 15.9147 68.5229 16.096 68.0322 16.096H58.2722C58.1015 16.096 58.0162 16.1813 58.0162 16.352V25.216C58.0162 25.408 58.0695 25.5573 58.1762 25.664C60.7575 28.4373 64.4375 31.0827 69.2162 33.6C69.6429 33.8347 69.9202 34.1867 70.0482 34.656C70.1975 35.104 70.1442 35.5413 69.8882 35.968L69.2802 36.992C69.0242 37.4187 68.6509 37.696 68.1602 37.824C67.6695 37.952 67.2109 37.888 66.7842 37.632C63.5629 35.7547 60.7042 33.6107 58.2082 31.2C58.1655 31.1573 58.1229 31.1467 58.0802 31.168C58.0375 31.1893 58.0162 31.2213 58.0162 31.264V37.248C58.0162 37.7387 57.8349 38.1653 57.4722 38.528C57.1095 38.8907 56.6829 39.072 56.1922 39.072H54.5922C54.1015 39.072 53.6749 38.8907 53.3122 38.528C52.9495 38.1653 52.7682 37.7387 52.7682 37.248V31.232C52.7682 31.1893 52.7469 31.1573 52.7042 31.136C52.6615 31.1147 52.6189 31.1253 52.5762 31.168C50.2295 33.472 47.3709 35.616 44.0002 37.6C43.5735 37.856 43.1149 37.92 42.6242 37.792C42.1335 37.664 41.7602 37.3867 41.5042 36.96ZM77.2162 24.448C76.7469 24.2347 76.4269 23.8933 76.2562 23.424C76.0855 22.9547 76.0962 22.4853 76.2882 22.016C77.6109 18.8587 78.7095 15.5627 79.5842 12.128C79.7122 11.6373 79.9895 11.2533 80.4162 10.976C80.8429 10.6987 81.3015 10.6027 81.7922 10.688L82.9442 10.88C83.4349 10.9653 83.8189 11.2107 84.0962 11.616C84.3735 12.0213 84.4589 12.4693 84.3522 12.96C84.3309 13.088 84.2882 13.28 84.2242 13.536C84.1602 13.792 84.1175 13.984 84.0962 14.112C84.0535 14.2827 84.1282 14.368 84.3202 14.368H88.2882C88.4589 14.368 88.5442 14.2827 88.5442 14.112V11.648C88.5442 11.1573 88.7255 10.7307 89.0882 10.368C89.4509 10.0053 89.8775 9.824 90.3682 9.824H91.9682C92.4589 9.824 92.8855 10.0053 93.2482 10.368C93.6109 10.7307 93.7922 11.1573 93.7922 11.648V14.112C93.7922 14.2827 93.8775 14.368 94.0482 14.368H102.08C102.571 14.368 102.987 14.5493 103.328 14.912C103.691 15.2747 103.872 15.7013 103.872 16.192V16.864C103.872 17.3547 103.691 17.7813 103.328 18.144C102.987 18.4853 102.571 18.656 102.08 18.656H94.0482C93.8775 18.656 93.7922 18.752 93.7922 18.944V23.36C93.7922 23.5307 93.8775 23.616 94.0482 23.616H100.48C100.971 23.616 101.387 23.7973 101.728 24.16C102.091 24.5227 102.272 24.9493 102.272 25.44V25.984C102.272 26.4747 102.091 26.9013 101.728 27.264C101.387 27.6053 100.971 27.776 100.48 27.776H94.0482C93.8775 27.776 93.7922 27.872 93.7922 28.064V33.76C93.7922 33.9307 93.8775 34.016 94.0482 34.016H103.072C103.563 34.016 103.99 34.1973 104.352 34.56C104.715 34.9227 104.896 35.3493 104.896 35.84V36.512C104.896 37.0027 104.715 37.4293 104.352 37.792C103.99 38.1547 103.563 38.336 103.072 38.336H78.2402C77.7495 38.336 77.3229 38.1547 76.9602 37.792C76.5975 37.4293 76.4162 37.0027 76.4162 36.512V35.84C76.4162 35.3493 76.5975 34.9227 76.9602 34.56C77.3229 34.1973 77.7495 34.016 78.2402 34.016H88.2882C88.4589 34.016 88.5442 33.9307 88.5442 33.76V28.064C88.5442 27.872 88.4589 27.776 88.2882 27.776H81.7922C81.3015 27.776 80.8749 27.5947 80.5122 27.232C80.1495 26.8693 79.9682 26.4427 79.9682 25.952C79.9682 25.76 79.8829 25.632 79.7122 25.568L77.2162 24.448ZM81.0242 23.392C80.9602 23.5413 81.0135 23.616 81.1842 23.616H88.2882C88.4589 23.616 88.5442 23.5307 88.5442 23.36V18.944C88.5442 18.752 88.4589 18.656 88.2882 18.656H83.0722C82.9015 18.656 82.7735 18.752 82.6882 18.944C82.1549 20.544 81.6002 22.0267 81.0242 23.392ZM112.8 19.008C112.31 19.008 111.883 18.8267 111.52 18.464C111.158 18.1013 110.976 17.6747 110.976 17.184V16.672C110.976 16.1813 111.158 15.7547 111.52 15.392C111.883 15.0293 112.31 14.848 112.8 14.848H113.728C113.899 14.848 113.984 14.7627 113.984 14.592V11.68C113.984 11.1893 114.166 10.7627 114.528 10.4C114.891 10.0373 115.318 9.856 115.808 9.856H117.024C117.515 9.856 117.942 10.0373 118.304 10.4C118.667 10.7627 118.848 11.1893 118.848 11.68V14.592C118.848 14.7627 118.934 14.848 119.104 14.848H119.52C120.011 14.848 120.427 15.0293 120.768 15.392C121.131 15.7547 121.312 16.1813 121.312 16.672V17.184C121.312 17.6747 121.131 18.1013 120.768 18.464C120.427 18.8267 120.011 19.008 119.52 19.008H119.104C118.934 19.008 118.848 19.104 118.848 19.296V24.512C118.848 24.6827 118.934 24.7467 119.104 24.704C119.126 24.6827 119.168 24.672 119.232 24.672C119.296 24.672 119.339 24.6613 119.36 24.64C119.808 24.512 120.235 24.576 120.64 24.832C120.811 24.9387 120.896 24.9067 120.896 24.736C120.918 24.2453 121.099 23.8293 121.44 23.488C121.782 23.1253 122.198 22.944 122.688 22.944H122.848C122.891 22.944 122.923 22.9227 122.944 22.88C122.966 22.8373 122.955 22.7947 122.912 22.752L121.664 21.472C121.323 21.1093 121.163 20.6827 121.184 20.192C121.206 19.7013 121.376 19.2533 121.696 18.848C122.336 18.08 122.774 17.2267 123.008 16.288C123.243 15.3493 123.36 14.0373 123.36 12.352C123.36 11.8613 123.542 11.4453 123.904 11.104C124.267 10.7413 124.694 10.56 125.184 10.56H133.984C134.475 10.56 134.891 10.7413 135.232 11.104C135.595 11.4667 135.776 11.8933 135.776 12.384V17.696C135.776 17.9307 135.808 18.08 135.872 18.144C135.936 18.1867 136.128 18.208 136.448 18.208C136.79 18.208 137.003 18.112 137.088 17.92C137.195 17.728 137.291 17.1413 137.376 16.16C137.398 15.6907 137.6 15.3067 137.984 15.008C138.368 14.688 138.795 14.5707 139.264 14.656C139.755 14.7413 140.15 14.9867 140.448 15.392C140.768 15.776 140.918 16.224 140.896 16.736C140.854 17.44 140.811 18.016 140.768 18.464C140.726 18.912 140.64 19.3493 140.512 19.776C140.384 20.1813 140.278 20.5013 140.192 20.736C140.107 20.9493 139.915 21.152 139.616 21.344C139.339 21.536 139.104 21.6747 138.912 21.76C138.72 21.824 138.358 21.888 137.824 21.952C137.291 21.9947 136.832 22.016 136.448 22.016C136.064 22.016 135.456 22.016 134.624 22.016C133.024 22.016 132.011 21.888 131.584 21.632C131.158 21.376 130.944 20.8107 130.944 19.936V14.976C130.944 14.784 130.848 14.688 130.656 14.688H128.224C128.032 14.688 127.936 14.7947 127.936 15.008C127.872 16.6933 127.574 18.144 127.04 19.36C126.507 20.576 125.696 21.7067 124.608 22.752C124.566 22.7947 124.555 22.8373 124.576 22.88C124.598 22.9227 124.63 22.944 124.672 22.944H137.248C137.739 22.944 138.166 23.1253 138.528 23.488C138.891 23.8507 139.072 24.2773 139.072 24.768V26.88C139.072 26.9653 139.03 27.008 138.944 27.008C139.03 27.0293 139.04 27.104 138.976 27.232C137.824 29.344 136.406 31.136 134.72 32.608C134.592 32.736 134.603 32.832 134.752 32.896C135.926 33.408 137.387 33.9093 139.136 34.4C139.606 34.528 139.947 34.8053 140.16 35.232C140.395 35.6587 140.427 36.096 140.256 36.544L139.936 37.312C139.744 37.8027 139.414 38.1653 138.944 38.4C138.475 38.656 137.984 38.7093 137.472 38.56C135.062 37.92 132.704 37.0027 130.4 35.808C130.272 35.7227 130.102 35.7227 129.888 35.808C128.032 36.768 125.707 37.664 122.912 38.496C122.422 38.6453 121.931 38.6027 121.44 38.368C120.971 38.1547 120.63 37.8133 120.416 37.344L120 36.48C119.808 36.0533 119.808 35.6373 120 35.232C120.214 34.8053 120.544 34.5387 120.992 34.432C122.464 34.048 123.968 33.5573 125.504 32.96C125.568 32.9387 125.6 32.896 125.6 32.832C125.622 32.7467 125.611 32.6933 125.568 32.672C124.651 31.904 123.936 31.2533 123.424 30.72C123.083 30.3573 122.944 29.9307 123.008 29.44C123.072 28.9493 123.307 28.5547 123.712 28.256L125.152 27.168C125.195 27.1253 125.206 27.0933 125.184 27.072C125.163 27.0293 125.131 27.008 125.088 27.008H122.688C122.326 27.008 121.984 26.9013 121.664 26.688C121.579 26.6453 121.515 26.6773 121.472 26.784C121.494 27.2747 121.355 27.7227 121.056 28.128C120.779 28.5333 120.416 28.8 119.968 28.928C119.883 28.9493 119.744 28.992 119.552 29.056C119.36 29.0987 119.222 29.1307 119.136 29.152C118.944 29.1947 118.848 29.312 118.848 29.504V33.184C118.848 34.1653 118.838 34.944 118.816 35.52C118.795 36.0747 118.72 36.5867 118.592 37.056C118.464 37.5467 118.315 37.8987 118.144 38.112C117.974 38.3253 117.696 38.5067 117.312 38.656C116.928 38.8053 116.523 38.8907 116.096 38.912C115.691 38.9547 115.115 38.976 114.368 38.976C113.942 38.976 113.558 38.9653 113.216 38.944C112.704 38.9013 112.256 38.6987 111.872 38.336C111.488 37.9733 111.286 37.536 111.264 37.024V36.608C111.243 36.1387 111.392 35.7333 111.712 35.392C112.054 35.0507 112.47 34.9013 112.96 34.944C113.067 34.944 113.195 34.9547 113.344 34.976C113.494 34.976 113.579 34.976 113.6 34.976C113.792 34.976 113.899 34.9227 113.92 34.816C113.963 34.7093 113.984 34.3253 113.984 33.664V30.656C113.984 30.592 113.963 30.5387 113.92 30.496C113.878 30.432 113.824 30.4107 113.76 30.432C113.483 30.5173 113.248 30.5707 113.056 30.592C112.587 30.6773 112.16 30.5707 111.776 30.272C111.392 29.9733 111.179 29.5787 111.136 29.088L111.072 28.288C111.051 27.776 111.2 27.328 111.52 26.944C111.84 26.5387 112.246 26.2827 112.736 26.176L113.696 25.984C113.888 25.9413 113.984 25.8347 113.984 25.664V19.296C113.984 19.104 113.899 19.008 113.728 19.008H112.8ZM126.304 27.008C126.262 27.008 126.219 27.04 126.176 27.104C126.155 27.1467 126.166 27.1893 126.208 27.232C127.232 28.384 128.459 29.4293 129.888 30.368C130.016 30.4747 130.155 30.4747 130.304 30.368C131.627 29.4293 132.736 28.3947 133.632 27.264C133.739 27.0933 133.707 27.008 133.536 27.008H126.304ZM174.528 18.4C174.208 23.9893 173.12 28.2347 171.264 31.136C171.158 31.264 171.168 31.392 171.296 31.52C172.235 32.4373 173.334 33.2693 174.592 34.016C175.019 34.272 175.296 34.6347 175.424 35.104C175.552 35.5733 175.488 36.0213 175.232 36.448L174.752 37.28C174.496 37.728 174.112 38.016 173.6 38.144C173.11 38.2933 172.64 38.24 172.192 37.984C170.635 37.0667 169.291 36.064 168.16 34.976C168.032 34.848 167.894 34.848 167.744 34.976C166.358 36.064 164.566 37.1093 162.368 38.112C161.878 38.3253 161.387 38.3573 160.896 38.208C160.406 38.0587 160.011 37.7707 159.712 37.344L159.104 36.416C158.848 36.032 158.784 35.616 158.912 35.168C159.062 34.6987 159.35 34.3787 159.776 34.208C161.931 33.2907 163.648 32.2987 164.928 31.232C165.056 31.1467 165.078 31.0187 164.992 30.848C163.968 28.9493 163.158 26.72 162.56 24.16C162.539 24.1173 162.507 24.0853 162.464 24.064C162.422 24.0427 162.39 24.0533 162.368 24.096L161.792 25.056C161.558 25.44 161.216 25.6747 160.768 25.76C160.342 25.8453 159.947 25.7707 159.584 25.536C159.542 25.4933 159.488 25.4933 159.424 25.536C159.382 25.5573 159.36 25.6 159.36 25.664C159.318 29.8027 159.168 32.8 158.912 34.656C158.678 36.512 158.347 37.664 157.92 38.112C157.494 38.5813 156.779 38.816 155.776 38.816C155.328 38.816 154.539 38.7627 153.408 38.656C152.896 38.6133 152.47 38.4 152.128 38.016C151.787 37.632 151.606 37.184 151.584 36.672L151.552 35.744C151.531 35.2747 151.691 34.8907 152.032 34.592C152.395 34.2933 152.811 34.1653 153.28 34.208C153.323 34.208 153.376 34.2187 153.44 34.24C153.526 34.24 153.579 34.24 153.6 34.24C153.835 34.24 154.006 34.176 154.112 34.048C154.24 33.8987 154.347 33.4933 154.432 32.832C154.539 32.1707 154.603 31.1787 154.624 29.856C154.667 28.5333 154.688 26.6667 154.688 24.256C154.688 24.064 154.603 23.968 154.432 23.968H152.896C152.726 23.968 152.64 24.0747 152.64 24.288C152.363 29.9627 151.478 34.4533 149.984 37.76C149.792 38.1653 149.472 38.4107 149.024 38.496C148.576 38.5813 148.182 38.4747 147.84 38.176L146.688 37.12C146.304 36.7573 146.059 36.3093 145.952 35.776C145.846 35.2427 145.888 34.7307 146.08 34.24C147.318 30.976 147.936 25.4293 147.936 17.6C147.936 17.4507 147.84 17.376 147.648 17.376H147.616C147.126 17.376 146.699 17.1947 146.336 16.832C145.974 16.4693 145.792 16.0427 145.792 15.552V14.88C145.792 14.3893 145.974 13.9627 146.336 13.6C146.699 13.2373 147.126 13.056 147.616 13.056H150.048C150.24 13.056 150.336 12.9707 150.336 12.8V11.296C150.336 10.8053 150.507 10.3893 150.848 10.048C151.211 9.68533 151.638 9.504 152.128 9.504H153.472C153.963 9.504 154.39 9.68533 154.752 10.048C155.115 10.3893 155.296 10.8053 155.296 11.296V12.8C155.296 12.9707 155.382 13.056 155.552 13.056H158.112C158.603 13.056 159.03 13.2373 159.392 13.6C159.755 13.9627 159.936 14.3893 159.936 14.88V15.552C159.936 16.0427 159.755 16.4693 159.392 16.832C159.03 17.1947 158.603 17.376 158.112 17.376H153.056C152.864 17.376 152.768 17.4613 152.768 17.632V19.392C152.768 19.584 152.854 19.68 153.024 19.68H157.568C158.016 19.68 158.422 19.84 158.784 20.16C158.912 20.288 159.019 20.2773 159.104 20.128C160.427 17.5467 161.568 14.5067 162.528 11.008C162.678 10.5173 162.966 10.1227 163.392 9.824C163.819 9.52533 164.288 9.408 164.8 9.472L165.888 9.6C166.379 9.664 166.763 9.89867 167.04 10.304C167.318 10.7093 167.403 11.1467 167.296 11.616C167.19 12.064 167.008 12.736 166.752 13.632C166.71 13.8027 166.784 13.888 166.976 13.888H174.24C174.731 13.888 175.158 14.0693 175.52 14.432C175.883 14.7947 176.064 15.2213 176.064 15.712V16.864C176.064 17.2267 175.926 17.536 175.648 17.792C175.392 18.048 175.083 18.176 174.72 18.176C174.592 18.176 174.528 18.2507 174.528 18.4ZM168.256 26.496C169.046 24.4053 169.536 21.7173 169.728 18.432C169.728 18.2613 169.632 18.176 169.44 18.176H165.472C165.302 18.176 165.184 18.2613 165.12 18.432C165.014 18.6667 164.864 18.9973 164.672 19.424C164.48 19.8507 164.342 20.1813 164.256 20.416C164.235 20.48 164.235 20.544 164.256 20.608C164.278 20.6507 164.32 20.6613 164.384 20.64L164.768 20.576C165.259 20.4907 165.696 20.5973 166.08 20.896C166.486 21.1733 166.742 21.5573 166.848 22.048C167.168 23.776 167.574 25.2587 168.064 26.496C168.086 26.5387 168.118 26.56 168.16 26.56C168.203 26.56 168.235 26.5387 168.256 26.496ZM194.528 10.784C195.019 10.784 195.446 10.9653 195.808 11.328C196.171 11.6907 196.352 12.1173 196.352 12.608V13.28C196.352 13.7707 196.171 14.1973 195.808 14.56C195.446 14.9227 195.019 15.104 194.528 15.104H183.744C183.254 15.104 182.827 14.9227 182.464 14.56C182.102 14.1973 181.92 13.7707 181.92 13.28V12.608C181.92 12.1173 182.102 11.6907 182.464 11.328C182.827 10.9653 183.254 10.784 183.744 10.784H194.528ZM182.656 37.76C182.208 37.504 181.899 37.12 181.728 36.608C181.579 36.1173 181.59 35.6373 181.76 35.168C182.251 33.8027 182.582 32.2027 182.752 30.368C182.944 28.5333 183.04 25.92 183.04 22.528V18.976C183.04 18.4853 183.222 18.0587 183.584 17.696C183.947 17.3333 184.374 17.152 184.864 17.152H194.272C194.763 17.152 195.19 17.3333 195.552 17.696C195.915 18.0587 196.096 18.4853 196.096 18.976V27.904C196.096 28.3947 195.915 28.8213 195.552 29.184C195.19 29.5253 194.763 29.696 194.272 29.696H188.032C187.84 29.696 187.744 29.7813 187.744 29.952C187.531 33.0027 187.03 35.5947 186.24 37.728C186.07 38.1973 185.75 38.5067 185.28 38.656C184.811 38.8053 184.363 38.752 183.936 38.496L182.656 37.76ZM187.872 24.928V25.408C187.872 25.6 187.968 25.696 188.16 25.696H191.712C191.904 25.696 192 25.6 192 25.408V21.44C192 21.2693 191.904 21.184 191.712 21.184H188.16C187.968 21.184 187.872 21.2693 187.872 21.44V24.928ZM205.824 38.848C205.334 38.848 204.907 38.6667 204.544 38.304C204.182 37.9413 204 37.5147 204 37.024V24.224C204 24.0533 203.915 23.968 203.744 23.968H202.208C202.059 23.968 201.963 24.064 201.92 24.256C201.579 27.2853 201.024 29.8133 200.256 31.84C199.51 33.8667 198.464 35.7333 197.12 37.44C196.822 37.824 196.416 38.0267 195.904 38.048C195.414 38.0693 194.987 37.9093 194.624 37.568L193.824 36.864C193.44 36.5227 193.227 36.1067 193.184 35.616C193.163 35.104 193.302 34.6453 193.6 34.24C195.115 32.1493 196.192 29.6213 196.832 26.656C197.472 23.6907 197.814 19.3813 197.856 13.728C197.856 13.216 198.027 12.7787 198.368 12.416C198.71 12.0533 199.136 11.8507 199.648 11.808C202.742 11.488 205.472 10.9867 207.84 10.304C208.331 10.1547 208.79 10.1973 209.216 10.432C209.664 10.6453 209.952 10.9867 210.08 11.456L210.336 12.384C210.486 12.8747 210.432 13.344 210.176 13.792C209.942 14.24 209.579 14.528 209.088 14.656C207.254 15.1467 205.12 15.5627 202.688 15.904C202.496 15.9467 202.4 16.0533 202.4 16.224C202.358 17.3973 202.326 18.4107 202.304 19.264C202.304 19.4347 202.39 19.52 202.56 19.52H209.344C209.835 19.52 210.262 19.7013 210.624 20.064C210.987 20.4267 211.168 20.8533 211.168 21.344V22.144C211.168 22.6347 210.987 23.0613 210.624 23.424C210.262 23.7867 209.835 23.968 209.344 23.968H208.992C208.822 23.968 208.736 24.0533 208.736 24.224V37.024C208.736 37.5147 208.555 37.9413 208.192 38.304C207.83 38.6667 207.403 38.848 206.912 38.848H205.824Z" fill="white"/>
</svg>
