<svg width="26" height="25" viewBox="0 0 26 25" fill="none" xmlns="http://www.w3.org/2000/svg">
<path d="M21.824 22.6923C18.8141 24.7931 15.0493 25 11.3465 25C7.1233 25 3.14605 23.3004 1.48561 20.0001C-0.174823 16.6997 0.224535 12.4489 0.755204 9.30809C1.69493 3.73268 5.43411 -0.0455211 11.0393 0.000414271C16.6445 0.0463497 20.8422 3.46185 21.824 9.30807C23.0055 16.3431 21.9379 17.3078 25.2248 18.077C25.7168 19.0072 23.4773 21.5385 21.824 22.6923ZM9.85634 11.4383C9.85719 10.9998 9.69697 10.5774 9.40834 10.2573C9.11971 9.9372 8.7244 9.74353 8.30303 9.71576C8.0907 9.69879 7.87723 9.72543 7.67481 9.79415C7.47239 9.86288 7.28499 9.97235 7.1233 10.1163C6.96161 10.2603 6.82879 10.4359 6.73245 10.6332C6.6361 10.8305 6.57811 11.0455 6.56178 11.2661C6.54545 11.4866 6.5711 11.7084 6.63727 11.9186C6.70344 12.1289 6.80882 12.3235 6.94742 12.4915C7.08601 12.6595 7.25508 12.7974 7.445 12.8975C7.63492 12.9976 7.84196 13.0578 8.05429 13.0748C9.05482 13.2011 9.60207 12.5006 9.85634 11.4383ZM15.5168 11.5417C15.5259 11.0997 15.3676 10.6717 15.0762 10.3496C14.7847 10.0275 14.3832 9.83705 13.958 9.81911C13.7422 9.78771 13.5224 9.80505 13.3137 9.86992C13.1049 9.9348 12.9121 10.0457 12.7484 10.195C12.5847 10.3444 12.4539 10.5287 12.365 10.7353C12.2761 10.942 12.2312 11.1661 12.2333 11.3924C12.2075 11.6172 12.2279 11.845 12.2931 12.061C12.3583 12.277 12.4668 12.4762 12.6114 12.6455C12.7561 12.8147 12.9337 12.9502 13.1324 13.043C13.3312 13.1358 13.5466 13.1838 13.7645 13.1839C14.7595 13.2355 15.3289 12.6039 15.5168 11.5417Z" fill="white"/>
</svg>
