<svg width="450" height="450" viewBox="0 0 450 450" fill="none" xmlns="http://www.w3.org/2000/svg">
<path d="M174.469 88.903C174.469 88.903 162.977 77.36 162.212 67.5C161.447 57.64 167.567 44.686 171.613 38.702C172.565 37.308 174.741 37.886 174.894 39.569C175.472 45.825 176.968 56.994 180.368 59.476C195.226 70.254 195.5 66.5 195.5 66.5V76L189.5 82.5L174.452 88.92L174.469 88.903Z" fill="white"/>
<path d="M274.531 88.903C274.531 88.903 286.023 77.36 286.788 67.5C287.553 57.64 281.433 44.686 277.387 38.702C276.435 37.308 274.259 37.886 274.106 39.569C273.528 45.825 272.032 56.994 268.632 59.476C253.774 70.254 250.544 63.42 250.544 63.42L274.548 88.92L274.531 88.903Z" fill="white"/>
</svg>
