<svg width="450" height="450" viewBox="0 0 450 450" fill="none" xmlns="http://www.w3.org/2000/svg">
<path d="M173.959 94.257C173.959 94.257 159.56 91.571 154.341 86.148C134.485 65.459 153.916 31.442 180.98 26.053C192.914 23.69 199.459 40.877 201.499 49.36C205.392 65.425 199.408 70.032 199.408 70.032L173.959 94.257V94.257Z" fill="white"/>
<path d="M275.041 94.257C275.041 94.257 289.44 91.571 294.659 86.148C314.532 65.459 295.101 31.442 268.037 26.07C256.103 23.707 249.558 40.894 247.518 49.377C243.625 65.442 249.609 70.049 249.609 70.049L275.058 94.274L275.041 94.257Z" fill="white"/>
</svg>
