<svg width="45" height="51" viewBox="0 0 45 51" fill="none" xmlns="http://www.w3.org/2000/svg">
<path d="M20.7039 1.66681C21.4355 0.17318 23.5645 0.173181 24.2961 1.66681L29.1962 11.6706C29.5538 12.4006 30.3176 12.8415 31.1285 12.7862L42.2421 12.0279C43.9014 11.9147 44.9659 13.7585 44.0382 15.1389L37.8247 24.3844C37.3713 25.059 37.3713 25.941 37.8247 26.6156L44.0382 35.8611C44.9659 37.2415 43.9014 39.0853 42.2421 38.9721L31.1285 38.2138C30.3176 38.1585 29.5538 38.5994 29.1962 39.3294L24.2961 49.3332C23.5645 50.8268 21.4355 50.8268 20.7039 49.3332L15.8038 39.3294C15.4462 38.5994 14.6824 38.1585 13.8715 38.2138L2.7579 38.9721C1.09857 39.0853 0.0340887 37.2415 0.961797 35.8611L7.17528 26.6156C7.62866 25.941 7.62866 25.059 7.17527 24.3844L0.961796 15.1389C0.0340883 13.7585 1.09857 11.9147 2.7579 12.0279L13.8715 12.7862C14.6825 12.8415 15.4462 12.4006 15.8038 11.6706L20.7039 1.66681Z" fill="white"/>
</svg>
