<svg width="456" height="104" viewBox="0 0 456 104" fill="none" xmlns="http://www.w3.org/2000/svg">
<path d="M454.509 59.1645C453.871 58.3788 453.597 57.7441 453.613 57.0724C453.659 56.1721 453.517 56.0178 451.629 54.9315C448.351 53.0252 445.917 52.1883 443.811 52.2591C442.706 52.3149 440.304 52.0186 437.637 51.5112L433.235 50.6974L431.012 48.0973C427.708 44.1705 427.181 43.3832 426.469 41.0927L425.796 38.9972L422.971 37.1232C421.392 36.0975 419.088 34.2221 417.801 32.9769C416.55 31.7245 414.998 30.2681 414.406 29.7164L413.319 28.7354L407.284 28.1222C403.944 27.7879 397.258 26.8977 392.416 26.1101L383.548 24.7183L378.934 25.4657C374.498 26.1779 374.276 26.1812 373.165 25.8329C372.531 25.6338 371.482 25.0304 370.894 24.4981C370.218 23.9021 369.593 23.5595 369.35 23.6479C367.784 24.1995 366.463 24.4801 365.49 24.4491C363.73 24.3909 362.999 23.7044 362.473 21.6002C361.911 19.5031 361.618 19.338 358.382 19.5301C355.957 19.684 354.934 19.3995 353.964 18.2538C352.867 17.0317 351.356 16.722 345.035 16.5499C342.417 16.4785 338.047 16.2053 335.283 15.9601C330.967 15.5753 329.578 15.3225 324.865 14.0636C319.919 12.7495 319.07 12.5928 315.117 12.359C312.297 12.2059 310.161 11.9382 309.015 11.5969C307.393 11.1064 307.055 11.0919 304.848 11.4054C300.871 11.9869 299.075 11.9357 296.219 11.2225C294.806 10.8526 293.017 10.4558 292.247 10.324C291.513 10.1851 290.64 9.91145 290.336 9.68788C289.64 9.17685 289.18 9.10555 288.213 9.29612C284.27 10.053 275.951 8.61377 270.344 6.2145C269.167 5.71724 267.985 5.38302 267.627 5.4536C266.338 5.70769 258.559 6.06603 256.899 5.94762C255.878 5.86521 252.539 4.96374 248.09 3.5314C241.103 1.30285 240.833 1.25476 235.624 0.681325C227.714 -0.190432 227.789 -0.185047 223.573 0.504264C220.725 0.964364 219.118 1.11893 216.627 1.12386C210.193 1.13599 209.863 1.16052 208.127 1.78641C205.94 2.58205 205.284 2.6506 202.767 2.33649C201.548 2.19187 200.233 2.12693 199.839 2.20457C199.445 2.28221 198.719 2.74946 198.187 3.25943C197.343 4.07396 197 4.22254 194.6 4.87798C189.552 6.25777 183.742 6.9776 174.631 7.37555C166.002 7.75974 162.736 7.79589 160.941 7.56216C159.218 7.31431 155.689 7.34138 153.252 7.61928L151.577 7.80747L151.947 8.36252C152.124 8.69232 152.229 9.03624 152.109 9.18147C151.78 9.59059 149.899 9.29298 148.263 8.54187C147.407 8.16363 146.38 7.85967 145.938 7.88587C145.497 7.91207 143.838 8.17825 142.191 8.50292C139.505 9.03228 139.155 9.14186 138.456 9.74561C137.972 10.1245 137.699 10.624 137.76 10.936C137.909 11.879 136.894 13.335 133.821 16.4321C132.177 18.0931 130.709 19.5167 130.542 19.6105C130.374 19.7043 128.492 20.1564 126.386 20.6118C121.997 21.558 119.954 22.3254 117.459 24.0122C115.978 24.9928 115.874 25.0335 113.524 25.3752C110.306 25.8474 108.78 26.4115 105.521 28.3706C102.796 30.0218 99.1204 31.759 96.2008 32.8004C94.8784 33.2636 94.2696 33.3835 93.0098 33.409C90.7166 33.4762 90.1155 33.6352 86.9274 35.013C83.2214 36.5942 80.8633 38.0313 79.1232 39.772C77.943 40.9566 77.5799 41.1903 76.6411 41.3348C75.6308 41.4934 75.6346 41.5129 76.4097 41.4817C77.296 41.4488 77.3037 41.4878 75.7309 42.5675C70.2094 46.4512 70.2413 46.4246 68.4951 49.078C67.5797 50.4738 65.6672 53.0384 64.2212 54.7617C62.8148 56.4973 61.4712 58.3624 61.245 58.9134C61.0226 59.4839 60.3349 60.7132 59.7724 61.6344C57.0444 66.1018 52.9756 69.0509 46.36 71.3474C43.9583 72.1854 43.3484 72.4879 41.9699 73.6104C40.2041 75.032 39.0122 75.591 32.3597 78.0771C27.0614 80.0734 21.3666 81.9454 19.4328 82.3265C18.0004 82.6088 17.7344 82.5802 15.8553 81.9175C13.2548 80.9919 12.5706 81.1065 10.2178 82.9477C9.25113 83.7054 8.13352 84.4523 7.72302 84.6345C7.34448 84.7902 5.80466 85.0937 4.31724 85.2855C0.149141 85.8437 0.360157 85.7819 0.533102 86.6593C0.667615 87.3418 0.79426 87.4181 1.54627 87.2699C2.79961 87.0229 4.85511 87.4482 5.34387 88.0406C5.94654 88.8334 5.69098 89.6129 4.15433 91.8199C2.73016 93.8427 1.95948 95.5948 2.43147 95.7246C2.59008 95.7744 3.60935 95.4722 4.72068 95.0708C8.47285 93.7236 9.8759 93.6699 13.4805 94.7825C15.9709 95.5272 18.6109 95.8982 20.94 95.824C22.0488 95.7877 22.6538 95.6482 24.0004 95.1195C27.5581 93.7295 30.8781 92.8321 34.1037 92.3989C35.7343 92.1788 39.7438 91.5708 42.9143 91.0472C48.5352 90.1216 48.7859 90.0722 50.2092 89.3663C51.3972 88.7878 52.309 88.5068 54.5651 88.0621C57.3979 87.524 57.545 87.5153 64.5681 87.8528C68.5087 88.0281 75.5561 88.3001 80.236 88.4513C90.4145 88.7543 90.4899 88.7597 92.0083 89.2909C92.6862 89.5219 93.6699 89.7939 94.2454 89.883C95.2099 90.0576 95.3569 90.0488 96.302 89.5587C97.5219 88.9536 99.4838 88.5265 100.341 88.7222C100.686 88.7756 102.911 90.0589 105.321 91.5285C113.247 96.4482 114.919 97.1923 118.331 97.3299C119.269 97.368 120.563 97.518 121.218 97.632C122.694 97.9487 123.088 97.8711 124.76 96.9137C125.494 96.4854 126.347 96.0945 126.669 96.031C127.492 95.8687 129.07 96.5098 130.39 97.546C132.102 98.8696 134.839 99.5455 139.427 99.7958C141.536 99.927 145.602 100.361 148.433 100.755C154.062 101.57 158.152 101.939 161.188 101.867C163.156 101.844 164.555 102.338 165.934 103.484L166.388 103.901L170.268 103.015C175.673 101.747 179.05 101.324 180.752 101.657C181.49 101.816 182.125 102.015 182.148 102.132C182.167 102.229 182.361 102.272 182.54 102.237C183.185 102.109 190.29 102.674 192.819 103.047C194.272 103.246 197.045 103.348 200.196 103.294C208.208 103.173 210.696 102.966 216.178 102.088C221.401 101.221 222.944 101.12 227.377 101.34C229.589 101.43 230.031 101.404 232.192 100.856C234.389 100.302 234.715 100.258 237.869 100.406C240.42 100.511 241.783 100.445 243.879 100.133C245.646 99.8455 248.289 99.6688 251.218 99.6182C260.851 99.421 269.942 98.9255 276.802 98.2421C280.778 97.8432 281.664 97.8103 282.274 98.0749C283.99 98.8509 287.416 98.1148 289.592 96.511C290.79 95.6064 291.001 95.5445 294.114 95.2956C297.009 95.0695 298.009 95.2369 299.961 96.2701L301.541 97.1133L305.504 96.2714C308.608 95.5988 309.694 95.4456 310.635 95.5031C311.279 95.5586 313.15 96.1823 314.818 96.9068C320.706 99.4127 326.517 100.394 330.778 99.5544C334.001 98.9191 336.86 98.7001 338.213 98.96C338.912 99.106 340.215 99.1124 341.086 99.0015C342.064 98.8694 343.192 98.9307 344.125 99.1317C344.978 99.3079 345.963 99.3974 346.392 99.3127C346.786 99.2351 347.854 99.3689 348.798 99.6285C351.039 100.24 351.79 100.274 353.831 99.8721C356.195 99.4063 357.989 99.64 358.147 100.439C358.308 101.258 359.357 101.295 362.155 100.581C365.626 99.6945 370.66 98.0542 372.573 97.191C375.339 95.9368 379.967 94.3156 381.758 93.9627C382.904 93.7368 384.119 93.2948 385.614 92.5748C387.647 91.5663 387.929 91.4904 390.778 91.0303C398.681 89.7965 404.556 90.1579 411.765 92.383C413.784 92.998 416.158 93.9075 417.069 94.3762C418.443 95.1182 418.723 95.4073 418.9 96.3043C419.142 97.5327 419.408 97.5613 422.715 96.7879C423.785 96.5566 424.688 96.4192 424.708 96.5167C424.727 96.6142 424.842 96.632 424.934 96.5328C425.03 96.4531 424.959 96.2847 424.789 96.1765C424.583 96.0753 424.411 95.7649 424.393 95.4849L424.368 94.9833L424.214 95.5202C424.068 95.9135 423.936 96.0003 423.687 95.8671C423.35 95.6701 423.887 94.9971 424.997 94.2111C425.257 94.0182 426.633 93.2608 428.088 92.5284L430.656 91.212L435.383 90.2803L440.11 89.3486L439.755 88.8716C437.712 86.0536 436.72 82.1572 437.335 79.4231C437.925 76.7545 439.092 75.1267 442.409 72.3258C444 70.959 446.261 69.0344 447.44 68.0323C449.291 66.4725 449.821 66.1451 451.127 65.7865L452.68 65.3589L454.106 62.9711C454.926 61.655 455.553 60.4982 455.502 60.4273C455.487 60.3493 455.041 59.7888 454.509 59.1645Z" fill="white"/>
</svg>
