<svg width="450" height="450" viewBox="0 0 450 450" fill="none" xmlns="http://www.w3.org/2000/svg">
<path d="M238.304 153.617C232.575 150.667 227.543 149.717 223.395 149.717C216.493 149.717 211.971 152.35 211.019 152.967C210.883 153.05 210.849 153.083 210.849 153.083C210.288 153.483 209.506 153.367 209.098 152.817C208.69 152.267 208.809 151.5 209.37 151.1C209.489 151.017 214.742 147.267 223.395 147.267C227.934 147.267 233.408 148.317 239.477 151.45C240.089 151.767 240.327 152.517 240.004 153.117C239.783 153.533 239.341 153.783 238.899 153.783C238.695 153.783 238.508 153.733 238.321 153.65L238.304 153.617Z" fill="white"/>
</svg>
