<svg width="450" height="450" viewBox="0 0 450 450" fill="none" xmlns="http://www.w3.org/2000/svg">
<path d="M239.304 153.229C233.575 150.22 228.543 149.251 224.395 149.251C217.493 149.251 212.971 151.937 212.019 152.566C211.883 152.651 211.849 152.685 211.849 152.685C211.288 153.093 210.506 152.974 210.098 152.413C209.69 151.852 209.809 151.07 210.37 150.662C210.489 150.577 215.742 146.752 224.395 146.752C228.934 146.752 234.408 147.823 240.477 151.019C241.089 151.342 241.327 152.107 241.004 152.719C240.783 153.144 240.341 153.399 239.899 153.399C239.695 153.399 239.508 153.348 239.321 153.263L239.304 153.229Z" fill="white"/>
</svg>
