<svg width="450" height="450" viewBox="0 0 450 450" fill="none" xmlns="http://www.w3.org/2000/svg">
<path d="M238.049 148.633C238.049 154.5 231.283 156.633 223.803 156.633C216.323 156.633 210.968 154.5 210.968 148.633C210.968 142.767 217.037 144.65 224.517 144.65C231.997 144.65 238.066 142.767 238.066 148.633" fill="#FF5F83"/>
<path d="M213.96 144.6C214.589 146.517 215.864 149.9 217.275 150.6C218.567 151.233 220.641 147.25 220.352 144.367C218.737 144.3 215.371 143.583 213.943 144.6" fill="white"/>
<path d="M227.713 144.367C227.441 147.233 229.957 151.217 231.249 150.6C232.677 149.9 233.986 146.417 234.598 144.517C233.425 144.333 231.997 144.35 230.416 144.417" fill="white"/>
</svg>
