<svg width="450" height="450" viewBox="0 0 450 450" fill="none" xmlns="http://www.w3.org/2000/svg">
<path d="M238.304 145.851C232.575 149.627 227.543 150.843 223.395 150.843C216.493 150.843 211.971 147.472 211.019 146.683C210.883 146.576 210.849 146.533 210.849 146.533C210.288 146.021 209.506 146.171 209.098 146.875C208.69 147.579 208.809 148.56 209.37 149.072C209.489 149.179 214.742 153.979 223.395 153.979C227.934 153.979 233.408 152.635 239.477 148.624C240.089 148.219 240.327 147.259 240.004 146.491C239.783 145.957 239.341 145.637 238.899 145.637C238.695 145.637 238.508 145.701 238.321 145.808L238.304 145.851Z" fill="white"/>
</svg>
