<svg width="450" height="450" viewBox="0 0 450 450" fill="none" xmlns="http://www.w3.org/2000/svg">
<path d="M209.982 152.498C209.982 146.089 216.476 142.91 224.5 142.91C232.524 142.91 239.018 146.089 239.018 152.498C239.018 158.907 232.524 156.85 224.5 156.85C216.476 156.85 209.982 158.907 209.982 152.498" fill="#FF5F83"/>
<path d="M235.788 156.901C235.108 154.81 233.731 151.104 232.218 150.339C230.841 149.642 227.696 153.79 228.002 156.935C229.719 157.003 234.615 157.921 235.788 156.884" fill="white"/>
<path d="M220.998 156.952C221.304 153.807 218.635 149.659 217.275 150.356C215.728 151.121 214.334 154.929 213.688 157.003C214.946 157.207 216.476 157.19 218.176 157.105" fill="white"/>
</svg>
