<svg width="450" height="450" viewBox="0 0 450 450" fill="none" xmlns="http://www.w3.org/2000/svg">
<path d="M238.049 149.846C238.049 155.83 231.283 158.006 223.803 158.006C216.323 158.006 210.968 155.83 210.968 149.846C210.968 143.862 217.037 145.783 224.517 145.783C231.997 145.783 238.066 143.862 238.066 149.846" fill="#FF5F83"/>
<path d="M213.96 145.732C214.589 147.687 215.864 151.138 217.275 151.852C218.567 152.498 220.641 148.435 220.352 145.494C218.737 145.426 215.371 144.695 213.943 145.732" fill="white"/>
<path d="M227.713 145.494C227.441 148.418 229.957 152.481 231.249 151.852C232.677 151.138 233.986 147.585 234.598 145.647C233.425 145.46 231.997 145.477 230.416 145.545" fill="white"/>
</svg>
