<svg width="450" height="450" viewBox="0 0 450 450" fill="none" xmlns="http://www.w3.org/2000/svg">
<path d="M239.304 146.956C233.575 149.965 228.543 150.934 224.395 150.934C217.493 150.934 212.971 148.248 212.019 147.619C211.883 147.534 211.849 147.5 211.849 147.5C211.288 147.092 210.506 147.211 210.098 147.772C209.69 148.333 209.809 149.115 210.37 149.523C210.489 149.608 215.742 153.433 224.395 153.433C228.934 153.433 234.408 152.362 240.477 149.166C241.089 148.843 241.327 148.078 241.004 147.466C240.783 147.041 240.341 146.786 239.899 146.786C239.695 146.786 239.508 146.837 239.321 146.922L239.304 146.956Z" fill="white"/>
</svg>
