<svg width="450" height="450" viewBox="0 0 450 450" fill="none" xmlns="http://www.w3.org/2000/svg">
<path d="M237.468 153.501C232.062 153.501 227.353 150.832 225.347 149.506C223.392 150.696 218.887 153.025 212.716 153.467C211.815 153.535 210.965 152.821 210.897 151.886C210.829 150.951 211.543 150.135 212.478 150.067C219.669 149.557 224.31 146.123 224.361 146.089C224.973 145.63 225.823 145.63 226.435 146.106C226.486 146.157 232.147 150.492 238.301 150.067C239.219 150.016 240.052 150.713 240.103 151.648C240.171 152.583 239.457 153.399 238.522 153.45C238.165 153.467 237.825 153.484 237.468 153.484V153.501Z" fill="white"/>
</svg>
