<svg width="450" height="450" viewBox="0 0 450 450" fill="none" xmlns="http://www.w3.org/2000/svg">
<path d="M236.468 152.55C231.062 152.55 226.353 149.933 224.347 148.633C222.392 149.8 217.887 152.083 211.716 152.517C210.815 152.583 209.965 151.883 209.897 150.967C209.829 150.05 210.543 149.25 211.478 149.183C218.669 148.683 223.31 145.317 223.361 145.283C223.973 144.833 224.823 144.833 225.435 145.3C225.486 145.35 231.147 149.6 237.301 149.183C238.219 149.133 239.052 149.817 239.103 150.733C239.171 151.65 238.457 152.45 237.522 152.5C237.165 152.517 236.825 152.533 236.468 152.533V152.55Z" fill="white"/>
</svg>
