<svg width="450" height="450" viewBox="0 0 450 450" fill="none" xmlns="http://www.w3.org/2000/svg">
<path d="M209.982 152.9C209.982 146.617 216.476 143.5 224.5 143.5C232.524 143.5 239.018 146.617 239.018 152.9C239.018 159.183 232.524 157.167 224.5 157.167C216.476 157.167 209.982 159.183 209.982 152.9" fill="#FF5F83"/>
<path d="M235.788 157.217C235.108 155.167 233.731 151.533 232.218 150.783C230.841 150.1 227.696 154.167 228.002 157.25C229.719 157.317 234.615 158.217 235.788 157.2" fill="white"/>
<path d="M220.998 157.267C221.304 154.183 218.635 150.117 217.275 150.8C215.728 151.55 214.334 155.283 213.688 157.317C214.946 157.517 216.476 157.5 218.176 157.417" fill="white"/>
</svg>
