<svg width="400" height="55" viewBox="0 0 400 55" fill="none" xmlns="http://www.w3.org/2000/svg">
<path d="M5.488 11.674V17.12H6.454V12.64H11.466V17.05H12.474V11.674H5.488ZM11.956 4.296C10.402 4.856 7.56 5.29 5.124 5.556C5.25 5.794 5.39 6.2 5.432 6.452C7.938 6.214 10.864 5.78 12.782 5.122L11.956 4.296ZM8.512 5.514V12.234H9.52V5.514H8.512ZM4.466 8.356V9.364H13.384V8.356H4.466ZM6.146 15.552V16.518H11.928V15.552H6.146ZM1.26 5.164C2.128 5.626 3.29 6.312 3.878 6.732L4.494 5.878C3.892 5.472 2.702 4.842 1.848 4.422L1.26 5.164ZM0.574 9.028C1.428 9.476 2.59 10.148 3.164 10.54L3.752 9.686C3.164 9.28 1.988 8.664 1.162 8.258L0.574 9.028ZM0.91 16.224L1.792 16.938C2.618 15.636 3.598 13.886 4.34 12.402L3.584 11.716C2.772 13.312 1.666 15.16 0.91 16.224ZM14.966 13.396V14.194H21.35V13.396H14.966ZM14.588 6.648V7.46H21.574V6.648H14.588ZM17.626 5.374V15.678H18.592V5.374H17.626ZM14.574 15.706L14.728 16.616C16.506 16.434 19.04 16.14 21.42 15.86L21.406 15.034C18.9 15.3 16.282 15.552 14.574 15.706ZM15.876 10.778H20.412V11.814H15.876V10.778ZM15.876 9.07H20.412V10.078H15.876V9.07ZM14.994 8.342V12.542H21.308V8.342H14.994ZM20.804 4.38C19.362 4.716 16.814 4.968 14.728 5.08C14.84 5.29 14.938 5.64 14.98 5.864C17.08 5.794 19.684 5.556 21.336 5.192L20.804 4.38ZM21.476 7.516V8.496H26.53V7.516H21.476ZM26.124 7.516V7.768C25.97 13.438 25.816 15.454 25.466 15.888C25.34 16.07 25.2 16.112 24.976 16.112C24.696 16.112 24.08 16.098 23.394 16.042C23.562 16.322 23.674 16.756 23.702 17.05C24.346 17.092 25.018 17.092 25.41 17.05C25.83 17.008 26.11 16.882 26.362 16.518C26.824 15.916 26.964 13.956 27.118 8.048C27.118 7.908 27.132 7.516 27.132 7.516H26.124ZM23.17 4.422C23.156 9.714 23.226 14.152 20.02 16.448C20.272 16.616 20.636 16.952 20.804 17.204C24.15 14.698 24.164 9.994 24.178 4.422H23.17ZM29.694 5.108V6.074H32.732V12.486H29.694V13.466H33.712V5.108H29.694ZM29.708 8.734V9.686H33.152V8.734H29.708ZM35.616 4.842V5.822H40.334V4.842H35.616ZM35.616 8.244V9.21H40.334V8.244H35.616ZM35.532 11.688V12.64H40.306V11.688H35.532ZM29.12 5.108V14.768H30.1V5.108H29.12ZM39.942 4.842V15.734C39.942 15.986 39.858 16.07 39.606 16.084C39.354 16.084 38.472 16.098 37.576 16.07C37.73 16.35 37.898 16.812 37.954 17.092C39.158 17.092 39.928 17.078 40.376 16.91C40.824 16.728 40.992 16.406 40.992 15.748V4.842H39.942ZM35 4.842V9.84C35 12.024 34.762 14.684 32.396 16.504C32.62 16.644 33.012 17.008 33.166 17.218C35.686 15.286 36.036 12.192 36.036 9.84V4.842H35ZM46.004 9.756C46.41 10.638 46.802 11.786 46.928 12.5L47.74 12.178C47.6 11.492 47.18 10.358 46.746 9.49L46.004 9.756ZM44.618 13.354C44.786 14.306 44.94 15.552 44.968 16.364L45.78 16.182C45.738 15.356 45.57 14.138 45.402 13.2L44.618 13.354ZM43.106 13.256C42.98 14.39 42.77 15.65 42.434 16.504C42.658 16.56 43.064 16.7 43.246 16.798C43.54 15.93 43.806 14.614 43.96 13.396L43.106 13.256ZM42.784 9.49C42.784 9.28 43.428 8.972 43.428 8.972V8.958C44.338 7.838 45.276 6.2 46.004 4.646L45.08 4.254C44.52 5.78 43.54 7.39 43.246 7.81C42.952 8.23 42.714 8.524 42.476 8.58C42.588 8.832 42.742 9.294 42.784 9.49ZM42.784 9.476C43.022 9.364 43.386 9.28 45.626 9.042C45.626 8.846 45.654 8.496 45.71 8.244L43.26 8.44L42.77 8.734L42.784 9.476ZM42.882 12.64C42.882 12.444 43.526 12.15 43.526 12.15V12.122C44.856 10.722 46.186 8.748 47.25 6.816L46.41 6.326C45.5 8.244 44.058 10.26 43.596 10.778C43.176 11.31 42.868 11.674 42.574 11.73C42.686 11.982 42.84 12.444 42.882 12.64ZM42.882 12.64C43.162 12.5 43.624 12.388 47.124 11.856C47.11 11.66 47.11 11.31 47.152 11.072L43.344 11.59L42.854 11.912L42.882 12.64ZM46.172 13.074C46.48 13.928 46.844 15.062 46.984 15.818L47.754 15.552C47.6 14.824 47.236 13.704 46.9 12.836L46.172 13.074ZM48.916 15.034V16.014H54.474V15.034H48.916ZM48.888 10.078V11.058H54.544V10.078H48.888ZM51.142 5.71V15.496H52.108V5.71H51.142ZM48.356 4.968V16.924H49.322V6.018H54.054V16.798H55.062V4.968H48.356Z" fill="#9587E1"/>
<path d="M178.222 5.542V6.41H186.048V5.542H178.222ZM182.786 15.146C183.724 15.72 184.942 16.574 185.53 17.12L186.23 16.392C185.614 15.846 184.382 15.034 183.444 14.502L182.786 15.146ZM180.49 14.516C179.832 15.146 178.502 15.93 177.466 16.392C177.676 16.602 177.97 16.91 178.124 17.12C179.174 16.63 180.504 15.832 181.4 15.118L180.49 14.516ZM177.69 13.578V14.488H186.44V13.578H177.69ZM179.37 8.986V9.616H184.802V8.986H179.37ZM179.356 10.456V11.114H184.872V10.456H179.356ZM179.384 11.982V12.64H184.732V11.982H179.384ZM178.936 7.348V13.83H179.874V8.09H184.2V13.83H185.152V7.348H178.936ZM181.554 4.268C181.428 5.332 181.148 6.886 180.896 7.838L181.764 7.95C182.072 7.04 182.422 5.556 182.674 4.338L181.554 4.268ZM173.56 7.614V8.608H177.746V7.614H173.56ZM175.142 4.408V13.69H176.15V4.408H175.142ZM173.462 14.11L173.854 15.16C174.988 14.698 176.43 14.096 177.802 13.494L177.634 12.57C176.094 13.158 174.512 13.76 173.462 14.11ZM188.05 5.374V7.866H189.016V6.298H198.956V7.866H199.95V5.374H188.05ZM192.992 6.746C192.208 7.082 190.864 7.432 189.716 7.67C189.814 7.866 189.94 8.16 189.996 8.356C191.2 8.146 192.628 7.81 193.65 7.432L192.992 6.746ZM189.716 7.67V11.268H190.668V7.88L189.716 7.67ZM189.716 10.876V11.66H198.256V7.46H194.364V8.23H197.29V10.876H189.716ZM190.094 9.168V9.924H193.398V9.168H190.094ZM194.616 9.168V9.924H197.822V9.168H194.616ZM191.69 11.24C190.85 12.528 189.226 13.592 187.602 14.222C187.798 14.418 188.106 14.852 188.232 15.062C189.926 14.292 191.662 13.046 192.628 11.52L191.69 11.24ZM191.088 12.57L190.22 13.424H198.858V12.57H191.088ZM198.522 12.57V12.71C198.382 14.978 198.242 15.846 198.004 16.098C197.892 16.21 197.766 16.224 197.514 16.21C197.29 16.224 196.646 16.21 195.96 16.154C196.128 16.406 196.24 16.798 196.254 17.078C196.954 17.106 197.626 17.12 197.976 17.092C198.368 17.064 198.62 16.98 198.872 16.728C199.208 16.364 199.376 15.412 199.53 12.99C199.544 12.85 199.558 12.57 199.558 12.57H198.522ZM190.696 13.858C190.43 14.67 189.954 15.72 189.394 16.35L190.248 16.77C190.808 16.098 191.242 15.034 191.536 14.194L190.696 13.858ZM192.138 14.068C192.418 14.866 192.614 15.888 192.614 16.532L193.468 16.42C193.468 15.762 193.258 14.754 192.95 13.97L192.138 14.068ZM193.916 14.082C194.322 14.754 194.7 15.664 194.812 16.252L195.624 16C195.512 15.412 195.106 14.53 194.672 13.858L193.916 14.082ZM195.666 14.054C196.142 14.516 196.66 15.174 196.87 15.636L197.598 15.258C197.388 14.81 196.856 14.166 196.38 13.718L195.666 14.054ZM192.95 4.464C193.258 4.996 193.566 5.682 193.692 6.13L194.784 5.78C194.672 5.332 194.322 4.66 194.014 4.17L192.95 4.464ZM204.542 11.562H211.598V12.514H204.542V11.562ZM204.542 13.2H211.598V14.18H204.542V13.2ZM204.542 9.924H211.598V10.876H204.542V9.924ZM203.52 9.224V14.88H212.648V9.224H203.52ZM209.33 15.538C210.842 16.028 212.354 16.63 213.25 17.078L214.188 16.476C213.194 16.028 211.556 15.412 210.03 14.95L209.33 15.538ZM205.872 14.964C204.864 15.524 203.184 16.014 201.742 16.322C201.98 16.504 202.344 16.91 202.512 17.106C203.912 16.728 205.69 16.084 206.824 15.412L205.872 14.964ZM207.482 5.192V6.018H213.25V5.192H207.482ZM207.706 4.212C207.384 5.22 206.796 6.214 206.068 6.886C206.306 7.012 206.698 7.264 206.866 7.418C207.594 6.704 208.266 5.57 208.644 4.422L207.706 4.212ZM209.372 5.71V6.158C209.372 6.872 209.022 7.838 205.382 8.314C205.564 8.51 205.844 8.874 205.942 9.126C209.89 8.51 210.338 7.25 210.338 6.186V5.71H209.372ZM210.198 6.536L209.456 6.718C210.226 7.964 211.836 8.762 213.852 9.056C213.978 8.79 214.244 8.412 214.454 8.202C212.508 8.034 210.912 7.446 210.198 6.536ZM201.98 5.08V5.906H205.354V5.08H201.98ZM201.672 7.264V8.118H205.704V7.264H201.672ZM212.9 5.192V5.346C212.648 5.948 212.256 6.662 211.934 7.124L212.76 7.418C213.152 6.914 213.6 6.102 213.95 5.388L213.236 5.15L213.082 5.192H212.9ZM216.218 8.482V9.322H220.194V8.482H216.218ZM216.218 10.316V11.156H220.208V10.316H216.218ZM215.658 6.62V7.502H220.726V6.62H215.658ZM216.638 12.192V13.074H219.34V15.398H216.638V16.28H220.194V12.192H216.638ZM216.218 12.192V16.938H217.058V12.192H216.218ZM217.142 4.604C217.506 5.178 217.94 5.976 218.122 6.494L218.934 5.99C218.71 5.5 218.29 4.758 217.898 4.184L217.142 4.604ZM220.712 10.204V11.198H225.458V10.204H220.712ZM225.948 5.038C225.948 11.296 225.808 16.406 227.264 16.868C227.922 17.134 228.384 16.686 228.538 14.712C228.384 14.558 228.09 14.194 227.922 13.942C227.866 14.95 227.768 15.846 227.684 15.818C226.886 15.622 226.928 10.736 226.998 5.038H225.948ZM222.616 5.682V17.12H223.596V5.682H222.616ZM220.866 5.038V6.046H226.424V5.038H220.866Z" fill="#9587E1"/>
<path d="M351.784 9.658V10.526H356.362V9.658H351.784ZM351.28 4.898V17.106H352.246V5.836H356.264V4.898H351.28ZM355.76 4.898V7.586C355.76 7.74 355.704 7.796 355.48 7.81C355.256 7.824 354.528 7.824 353.66 7.796C353.8 8.062 353.94 8.44 353.982 8.72C355.06 8.72 355.76 8.706 356.194 8.552C356.628 8.398 356.74 8.118 356.74 7.6V4.898H355.76ZM353.142 10.134L352.316 10.358C353.142 13.256 354.696 15.818 356.866 17.036C357.034 16.77 357.356 16.378 357.594 16.182C355.48 15.146 353.898 12.766 353.142 10.134ZM356.04 9.658V9.882C355.592 12.458 354.192 15.076 352.008 16.434C352.246 16.616 352.554 16.91 352.708 17.148C355.046 15.636 356.502 12.878 357.062 9.84L356.418 9.602L356.236 9.658H356.04ZM345.078 5.682V6.592H350.398V5.682H345.078ZM344.644 13.354V14.264H350.762V13.354H344.644ZM344.658 7.992V8.916H350.734V7.992H344.658ZM344.952 10.904V11.814H350.496V10.904H344.952ZM347.276 4.268V8.314H348.256V4.268H347.276ZM347.276 11.268V17.078H348.256V11.268H347.276ZM349.11 8.916C348.872 9.588 348.382 10.554 347.976 11.156L348.76 11.394C349.166 10.82 349.628 9.938 350.034 9.154L349.11 8.916ZM345.596 9.196C345.89 9.742 346.184 10.47 346.268 10.932L347.094 10.652C346.996 10.204 346.688 9.49 346.38 8.958L345.596 9.196ZM363.096 15.594V16.56H369.858V15.594H363.096ZM362.62 5.654V6.592H367.758V5.654H362.62ZM363.25 4.198C362.438 5.724 360.828 7.53 358.518 8.79C358.756 8.972 359.106 9.336 359.26 9.602C361.696 8.16 363.376 6.256 364.426 4.436L363.25 4.198ZM367.408 5.654V5.836C365.952 9.518 362.074 12.262 358.448 13.312C358.672 13.536 358.938 13.97 359.064 14.25C362.872 13.018 366.82 10.204 368.5 5.976L367.8 5.598L367.604 5.654H367.408ZM360.87 8.146C361.976 8.93 363.306 10.106 363.894 10.904L364.748 10.148C364.104 9.35 362.76 8.23 361.654 7.474L360.87 8.146ZM369.34 11.17V17.148H370.418V11.17H369.34ZM363.572 11.17H363.362L362.522 11.996V17.12H363.572V12.136H369.872V11.17H363.572ZM375.164 8.356V9.336H382.78V8.356H375.164ZM372.784 10.96V11.954H385.202V10.96H372.784ZM376.578 11.59C376.424 14.334 375.934 15.622 372.602 16.266C372.812 16.476 373.078 16.882 373.162 17.134C376.816 16.364 377.474 14.754 377.642 11.59H376.578ZM380.078 11.548V15.454C380.078 16.588 380.414 16.91 381.702 16.91C381.982 16.91 383.578 16.91 383.858 16.91C384.978 16.91 385.272 16.42 385.398 14.488C385.104 14.418 384.67 14.25 384.432 14.068C384.39 15.692 384.292 15.93 383.774 15.93C383.41 15.93 382.094 15.93 381.814 15.93C381.226 15.93 381.128 15.86 381.128 15.454V11.548H380.078ZM373.134 5.85V8.958H374.184V6.872H383.732V8.958H384.81V5.85H373.134ZM377.88 4.422C378.258 5.066 378.65 5.92 378.804 6.438L379.924 6.088C379.742 5.556 379.322 4.73 378.944 4.114L377.88 4.422ZM388.38 9.49V10.47H391.866V9.49H388.38ZM391.446 9.49V9.672C391.404 12.696 391.334 13.746 391.124 13.998C391.026 14.124 390.886 14.138 390.69 14.138C390.452 14.138 389.836 14.138 389.206 14.082C389.36 14.348 389.472 14.754 389.5 15.062C390.186 15.09 390.816 15.104 391.18 15.062C391.572 15.02 391.796 14.922 392.02 14.67C392.314 14.278 392.398 13.102 392.468 9.938C392.468 9.798 392.468 9.49 392.468 9.49H391.446ZM395.394 4.954C396.276 5.416 397.354 6.13 397.886 6.62L398.544 5.906C397.998 5.416 396.892 4.744 396.024 4.296L395.394 4.954ZM397.396 8.748C396.346 12.122 394.372 14.684 391.53 16.196C391.754 16.406 392.146 16.84 392.3 17.05C395.17 15.356 397.256 12.654 398.446 9L397.396 8.748ZM388.464 6.62V7.656H399.3V6.62H388.464ZM387.792 6.62V10.554C387.792 12.388 387.666 14.796 386.504 16.518C386.756 16.644 387.204 17.008 387.386 17.218C388.66 15.384 388.884 12.556 388.884 10.568V6.62H387.792ZM393.602 4.268C393.658 10.974 394.918 17.022 397.774 17.022C398.838 17.022 399.23 16.336 399.426 13.942C399.146 13.844 398.754 13.606 398.516 13.368C398.432 15.23 398.25 15.958 397.858 15.958C396.038 15.958 394.666 10.708 394.694 4.268H393.602Z" fill="#9587E1"/>
<rect x="28" y="34" width="346" height="4" fill="white"/>
<circle cx="374" cy="36" r="11" fill="white"/>
<circle cx="201" cy="36" r="11" fill="white"/>
<ellipse cx="30" cy="36" rx="12" ry="12" fill="white" stroke="#F5DEFA" stroke-width="3"/>
<ellipse cx="30" cy="36" rx="10" ry="10" fill="white" stroke="#E384F2" stroke-width="3"/>
<circle cx="30" cy="36" r="5" fill="#E384F2"/>
</svg>
