<svg width="16" height="16" viewBox="0 0 16 16" fill="none" xmlns="http://www.w3.org/2000/svg">
<path fill-rule="evenodd" clip-rule="evenodd" d="M14.4429 0.821717C14.8052 1.19447 15.014 1.69454 15.0235 2.21193C15.033 2.72931 14.8424 3.22163 14.4935 3.58058L10.5475 7.64078L14.6453 11.8572C15.0075 12.2299 15.2164 12.73 15.2259 13.2474C15.2354 13.7647 15.0447 14.2571 14.6959 14.616C14.347 14.975 13.8686 15.1711 13.3657 15.1614C12.8629 15.1516 12.3769 14.9367 12.0146 14.564L7.91682 10.3476L3.97081 14.4078C3.62196 14.7667 3.14349 14.9629 2.64065 14.9531C2.13782 14.9434 1.65181 14.7285 1.28954 14.3557C0.927276 13.983 0.718427 13.4829 0.708939 12.9655C0.699452 12.4481 0.890103 11.9558 1.23895 11.5969L5.18497 7.53667L1.08718 3.3203C0.724915 2.94755 0.516066 2.44748 0.506578 1.93009C0.497091 1.41271 0.687742 0.92039 1.03659 0.561446C1.38544 0.202501 1.86391 0.00633279 2.36675 0.0160949C2.86958 0.0258569 3.35559 0.24075 3.71786 0.6135L7.81564 4.82987L11.7617 0.769663C12.1105 0.410718 12.589 0.21455 13.0918 0.224312C13.5946 0.234074 14.0807 0.448967 14.4429 0.821717V0.821717Z" fill="#C2C2C2"/>
</svg>
