<svg width="20" height="20" viewBox="0 0 20 20" fill="none" xmlns="http://www.w3.org/2000/svg">
<path d="M17.095 17.2643C14.805 18.8626 11.9407 19.02 9.12364 19.02C5.91062 19.02 2.88472 17.7269 1.62146 15.2161C0.358205 12.7052 0.662036 9.47114 1.06577 7.08159C1.78071 2.83982 4.62548 -0.0346325 8.88992 0.000315177C13.1543 0.0352628 16.348 2.63377 17.095 7.08158C17.9938 12.4338 17.1816 13.1678 19.6823 13.753C20.0566 14.4607 18.3527 16.3865 17.095 17.2643ZM7.98992 8.70228C7.99056 8.36862 7.86867 8.04726 7.64908 7.80374C7.42949 7.56022 7.12874 7.41288 6.80816 7.39175C6.64662 7.37884 6.48421 7.3991 6.33021 7.45139C6.17621 7.50368 6.03363 7.58697 5.91062 7.69649C5.7876 7.80602 5.68656 7.93964 5.61326 8.08973C5.53996 8.23982 5.49584 8.40342 5.48341 8.57122C5.47099 8.73902 5.49051 8.90772 5.54085 9.06769C5.59119 9.22765 5.67137 9.37575 5.77681 9.50353C5.88225 9.63131 6.01088 9.73627 6.15537 9.81241C6.29986 9.88855 6.45738 9.93439 6.61892 9.9473C7.38012 10.0434 7.79646 9.51045 7.98992 8.70228ZM12.2964 8.78091C12.3033 8.44467 12.1829 8.11905 11.9612 7.874C11.7394 7.62895 11.434 7.48403 11.1104 7.47038C10.9463 7.44649 10.7791 7.45968 10.6203 7.50904C10.4615 7.5584 10.3148 7.64277 10.1902 7.75639C10.0656 7.87001 9.96616 8.01022 9.89853 8.16743C9.8309 8.32464 9.79671 8.49515 9.79832 8.66733C9.77871 8.83833 9.7942 9.01171 9.84379 9.17603C9.89338 9.34036 9.97592 9.4919 10.086 9.62068C10.1961 9.74945 10.3312 9.85254 10.4824 9.92314C10.6336 9.99375 10.7975 10.0303 10.9633 10.0303C11.7203 10.0696 12.1534 9.58908 12.2964 8.78091Z" fill="#CE59E7"/>
</svg>
