<svg width="109" height="29" viewBox="0 0 109 29" fill="none" xmlns="http://www.w3.org/2000/svg">
<path d="M6.33727 23.26C9.55727 23.26 11.5173 21.34 11.5173 18.98C11.5173 16.82 10.2573 15.74 8.51727 15L6.49727 14.14C5.29727 13.66 4.11727 13.18 4.11727 11.9C4.11727 10.74 5.09727 10.02 6.59727 10.02C7.89727 10.02 8.91727 10.52 9.83727 11.34L11.0573 9.86C9.93727 8.72 8.31727 8 6.59727 8C3.79727 8 1.75727 9.74 1.75727 12.06C1.75727 14.2 3.33727 15.32 4.75727 15.92L6.79727 16.8C8.15727 17.4 9.15727 17.82 9.15727 19.16C9.15727 20.4 8.15727 21.24 6.37727 21.24C4.95727 21.24 3.51727 20.56 2.45727 19.5L1.09727 21.1C2.43727 22.46 4.31727 23.26 6.33727 23.26ZM20.0452 23.26C21.9452 23.26 23.4452 22.5 24.6252 21.14L23.3852 19.68C22.5052 20.64 21.4852 21.24 20.1252 21.24C17.5252 21.24 15.8852 19.1 15.8852 15.6C15.8852 12.14 17.6452 10.02 20.1852 10.02C21.3852 10.02 22.3052 10.56 23.0652 11.34L24.3252 9.86C23.4252 8.88 21.9852 8 20.1452 8C16.4252 8 13.5052 10.88 13.5052 15.68C13.5052 20.5 16.3452 23.26 20.0452 23.26ZM27.2349 23H29.5549V17.06H31.9349L35.2749 23H37.8949L34.2949 16.76C36.1549 16.18 37.3749 14.82 37.3749 12.54C37.3749 9.36 35.0949 8.26 32.0549 8.26H27.2349V23ZM29.5549 15.2V10.14H31.7749C33.9149 10.14 35.0749 10.76 35.0749 12.54C35.0749 14.32 33.9149 15.2 31.7749 15.2H29.5549ZM45.9599 23.26C49.7399 23.26 52.3799 20.32 52.3799 15.58C52.3799 10.84 49.7399 8 45.9599 8C42.1799 8 39.5599 10.84 39.5599 15.58C39.5599 20.32 42.1799 23.26 45.9599 23.26ZM45.9599 21.24C43.5199 21.24 41.9399 19.02 41.9399 15.58C41.9399 12.12 43.5199 10.02 45.9599 10.02C48.3999 10.02 49.9999 12.12 49.9999 15.58C49.9999 19.02 48.3999 21.24 45.9599 21.24ZM55.438 23H63.998V21.04H57.758V8.26H55.438V23ZM66.5904 23H75.1504V21.04H68.9104V8.26H66.5904V23Z" fill="white"/>
<path d="M97.6104 1.64307L97.6104 27.3574M97.6104 27.3574L108 15.9288M97.6104 27.3574L88 15.9288" stroke="white" stroke-width="2" stroke-linecap="round"/>
</svg>
