<svg width="399" height="251" viewBox="0 0 399 251" fill="none" xmlns="http://www.w3.org/2000/svg">
<circle cx="79.7629" cy="82.1206" r="25.1533" fill="#9587E1" stroke="white" stroke-width="4"/>
<circle cx="128.554" cy="32.4593" r="22.1834" fill="#E384F2" stroke="white" stroke-width="4"/>
<circle cx="198.983" cy="54.0613" r="24.7291" fill="#EAAE77" stroke="white" stroke-width="4"/>
<circle cx="276.2" cy="26.7547" r="24.7291" fill="#81A8E0" stroke="white" stroke-width="4"/>
<circle cx="345.356" cy="65.9766" r="29.396" fill="#84D2B9" stroke="white" stroke-width="4"/>
<line x1="129.728" y1="56.6426" x2="129.728" y2="115.192" stroke="white" stroke-width="1.5"/>
<line x1="80.75" y1="109" x2="80.75" y2="155" stroke="white" stroke-width="1.5"/>
<line x1="199.75" y1="77" x2="199.75" y2="119" stroke="white" stroke-width="1.5"/>
<line x1="277.75" y1="53" x2="277.75" y2="124" stroke="white" stroke-width="1.5"/>
<line x1="346.106" y1="97.3726" x2="346.106" y2="139.8" stroke="white" stroke-width="1.5"/>
<path d="M393.307 150.97C392.765 150.304 392.533 149.765 392.547 149.195C392.585 148.431 392.465 148.3 390.863 147.378C388.082 145.761 386.016 145.051 384.229 145.111C383.291 145.158 381.253 144.907 378.99 144.476L375.255 143.786L373.368 141.579C370.565 138.247 370.118 137.579 369.513 135.636L368.942 133.858L366.545 132.267C365.206 131.397 363.251 129.806 362.158 128.749C361.097 127.686 359.78 126.451 359.277 125.982L358.356 125.15L353.234 124.63C350.4 124.346 344.727 123.591 340.618 122.922L333.093 121.741L329.178 122.376C325.414 122.98 325.225 122.983 324.283 122.687C323.745 122.518 322.855 122.006 322.355 121.554C321.782 121.049 321.251 120.758 321.045 120.833C319.717 121.301 318.596 121.539 317.77 121.513C316.277 121.463 315.657 120.881 315.21 119.095C314.733 117.316 314.485 117.176 311.739 117.339C309.681 117.469 308.813 117.228 307.99 116.256C307.06 115.219 305.777 114.956 300.413 114.81C298.192 114.75 294.484 114.518 292.139 114.31C288.476 113.983 287.297 113.769 283.299 112.7C279.101 111.585 278.381 111.452 275.027 111.254C272.634 111.124 270.822 110.897 269.849 110.607C268.473 110.191 268.186 110.179 266.313 110.445C262.938 110.938 261.414 110.895 258.991 110.29C257.792 109.976 256.274 109.639 255.621 109.527C254.998 109.409 254.257 109.177 253.999 108.987C253.408 108.554 253.018 108.493 252.197 108.655C248.852 109.297 241.792 108.076 237.035 106.04C236.036 105.618 235.033 105.335 234.73 105.394C233.636 105.61 227.035 105.914 225.626 105.814C224.76 105.744 221.926 104.979 218.151 103.763C212.223 101.872 211.994 101.832 207.573 101.345C200.862 100.605 200.926 100.61 197.348 101.195C194.931 101.585 193.568 101.716 191.454 101.72C185.995 101.731 185.715 101.752 184.241 102.283C182.385 102.958 181.829 103.016 179.693 102.749C178.658 102.627 177.543 102.572 177.208 102.637C176.874 102.703 176.258 103.1 175.807 103.533C175.091 104.224 174.8 104.35 172.763 104.906C168.48 106.077 163.549 106.688 155.819 107.025C148.497 107.351 145.725 107.382 144.202 107.184C142.74 106.973 139.746 106.996 137.677 107.232L136.257 107.392L136.57 107.863C136.72 108.143 136.809 108.434 136.707 108.558C136.429 108.905 134.832 108.652 133.444 108.015C132.718 107.694 131.846 107.436 131.472 107.458C131.097 107.481 129.69 107.706 128.292 107.982C126.013 108.431 125.716 108.524 125.122 109.036C124.712 109.358 124.48 109.782 124.532 110.046C124.658 110.847 123.797 112.082 121.19 114.71C119.795 116.12 118.549 117.328 118.407 117.407C118.265 117.487 116.667 117.87 114.881 118.257C111.157 119.06 109.423 119.711 107.306 121.142C106.049 121.974 105.961 122.009 103.967 122.299C101.236 122.699 99.9415 123.178 97.1756 124.84C94.8633 126.242 91.7446 127.716 89.2672 128.599C88.1451 128.992 87.6286 129.094 86.5596 129.116C84.6137 129.173 84.1036 129.308 81.3984 130.477C78.2537 131.819 76.2528 133.038 74.7762 134.515C73.7748 135.52 73.4666 135.718 72.67 135.841C71.8127 135.976 71.816 135.992 72.4736 135.966C73.2257 135.938 73.2323 135.971 71.8977 136.887C67.2124 140.183 67.2396 140.16 65.7578 142.412C64.9811 143.596 63.3582 145.772 62.1312 147.234C60.9378 148.707 59.7977 150.29 59.6058 150.757C59.4171 151.241 58.8335 152.285 58.3562 153.066C56.0415 156.857 52.5889 159.359 46.9753 161.308C44.9373 162.019 44.4197 162.276 43.2501 163.228C41.7517 164.435 40.7404 164.909 35.0954 167.018C30.5996 168.712 25.7673 170.301 24.1264 170.624C22.911 170.864 22.6852 170.84 21.0908 170.277C18.8841 169.492 18.3035 169.589 16.3071 171.151C15.4868 171.794 14.5385 172.428 14.1902 172.583C13.869 172.715 12.5624 172.972 11.3002 173.135C7.76343 173.609 7.94248 173.556 8.08923 174.301C8.20337 174.88 8.31084 174.945 8.94895 174.819C10.0125 174.609 11.7566 174.97 12.1714 175.473C12.6828 176.146 12.4659 176.807 11.162 178.68C9.95353 180.396 9.29957 181.883 9.70008 181.993C9.83467 182.035 10.6996 181.779 11.6426 181.438C14.8264 180.295 16.017 180.25 19.0756 181.194C21.1889 181.826 23.429 182.14 25.4053 182.077C26.3462 182.047 26.8595 181.928 28.0022 181.48C31.0211 180.3 33.8383 179.539 36.5752 179.171C37.9589 178.984 41.3611 178.468 44.0514 178.024C48.821 177.239 49.0337 177.197 50.2414 176.598C51.2495 176.107 52.0233 175.868 53.9376 175.491C56.3414 175.035 56.4662 175.027 62.4256 175.314C65.7694 175.462 71.7494 175.693 75.7205 175.821C84.3573 176.079 84.4213 176.083 85.7097 176.534C86.285 176.73 87.1196 176.961 87.608 177.036C88.4264 177.184 88.5512 177.177 89.3531 176.761C90.3883 176.248 92.053 175.885 92.7802 176.051C93.0732 176.097 94.9609 177.186 97.006 178.433C103.732 182.607 105.15 183.238 108.046 183.355C108.842 183.388 109.94 183.515 110.496 183.612C111.748 183.88 112.082 183.814 113.501 183.002C114.123 182.639 114.847 182.307 115.121 182.253C115.82 182.115 117.158 182.659 118.278 183.539C119.731 184.662 122.053 185.235 125.946 185.448C127.736 185.559 131.186 185.927 133.588 186.262C138.365 186.953 141.836 187.266 144.412 187.205C146.081 187.186 147.269 187.605 148.439 188.577L148.824 188.931L152.117 188.179C156.703 187.103 159.568 186.745 161.012 187.027C161.639 187.162 162.177 187.33 162.197 187.43C162.213 187.512 162.378 187.549 162.53 187.519C163.077 187.411 169.106 187.89 171.251 188.206C172.484 188.376 174.837 188.462 177.511 188.416C184.31 188.314 186.422 188.138 191.073 187.393C195.505 186.657 196.814 186.571 200.575 186.758C202.453 186.835 202.827 186.812 204.661 186.348C206.526 185.877 206.803 185.84 209.479 185.965C211.643 186.054 212.8 185.998 214.579 185.734C216.077 185.49 218.321 185.34 220.806 185.297C228.98 185.13 236.694 184.709 242.514 184.129C245.889 183.791 246.641 183.763 247.158 183.987C248.614 184.646 251.521 184.021 253.368 182.66C254.385 181.893 254.564 181.84 257.205 181.629C259.661 181.437 260.51 181.579 262.166 182.456L263.507 183.171L266.87 182.457C269.504 181.886 270.425 181.756 271.224 181.805C271.77 181.852 273.358 182.381 274.773 182.996C279.769 185.123 284.7 185.956 288.316 185.243C291.051 184.704 293.476 184.518 294.625 184.738C295.217 184.862 296.323 184.868 297.062 184.774C297.893 184.662 298.85 184.714 299.641 184.884C300.365 185.034 301.201 185.11 301.565 185.038C301.9 184.972 302.806 185.085 303.607 185.306C305.508 185.825 306.145 185.854 307.877 185.512C309.883 185.117 311.406 185.315 311.539 185.994C311.676 186.689 312.566 186.72 314.941 186.114C317.886 185.362 322.157 183.97 323.781 183.237C326.128 182.173 330.055 180.797 331.574 180.498C332.547 180.306 333.577 179.931 334.846 179.32C336.571 178.465 336.811 178.4 339.228 178.01C345.935 176.963 350.919 177.269 357.037 179.158C358.75 179.679 360.764 180.451 361.537 180.849C362.703 181.479 362.94 181.724 363.09 182.485C363.296 183.527 363.522 183.552 366.328 182.895C367.236 182.699 368.003 182.582 368.019 182.665C368.035 182.748 368.133 182.763 368.211 182.679C368.292 182.611 368.233 182.468 368.088 182.377C367.913 182.291 367.767 182.027 367.752 181.79L367.731 181.364L367.6 181.82C367.476 182.153 367.364 182.227 367.153 182.114C366.867 181.947 367.323 181.376 368.265 180.709C368.485 180.545 369.652 179.902 370.887 179.281L373.066 178.164L377.077 177.373L381.088 176.583L380.787 176.178C379.053 173.787 378.212 170.481 378.734 168.161C379.234 165.896 380.225 164.515 383.039 162.138C384.389 160.978 386.308 159.345 387.309 158.495C388.879 157.171 389.329 156.894 390.437 156.589L391.754 156.227L392.965 154.2C393.66 153.084 394.193 152.102 394.149 152.042C394.136 151.976 393.758 151.5 393.307 150.97Z" fill="white"/>
<path d="M332.041 70.0252V71.8812H340.873V70.0252H332.041ZM331.177 65.4332V72.5212H333.145V67.2732H339.817V72.5212H341.881V65.4332H331.177ZM334.313 57.3852C333.625 59.1772 332.361 61.4812 331.289 62.9372L333.017 63.6252C334.105 62.2332 335.465 60.0892 336.505 58.1052L334.313 57.3852ZM338.153 60.2492C339.753 61.6252 341.577 63.5772 342.329 64.9212L344.009 63.6412C343.177 62.2652 341.257 60.4092 339.673 59.1292L338.153 60.2492ZM329.481 62.0412L329.593 63.9932C332.745 63.8652 337.545 63.6732 341.977 63.4332L342.073 61.5772C337.673 61.7692 332.713 61.9612 329.481 62.0412ZM347.017 61.3052V63.2252H351.769V61.3052H347.017ZM354.841 57.7852V69.2892C354.841 71.5612 355.385 72.2332 357.225 72.2332C357.577 72.2332 358.985 72.2332 359.369 72.2332C361.177 72.2332 361.657 71.0492 361.833 67.9772C361.305 67.8492 360.473 67.4652 360.009 67.0972C359.897 69.6892 359.785 70.3452 359.177 70.3452C358.889 70.3452 357.785 70.3452 357.513 70.3452C356.937 70.3452 356.841 70.2172 356.841 69.3212V57.7852H354.841ZM350.825 57.7692V72.3612H352.825V57.7692H350.825ZM360.137 60.1692C358.857 61.2572 356.985 62.6332 355.241 63.5292C355.513 63.9452 355.881 64.6172 356.025 65.0492C357.833 64.1372 359.865 63.0172 361.513 61.8972L360.137 60.1692ZM346.457 68.5692L347.305 70.5372C348.713 69.9612 350.457 69.2412 352.057 68.5212L351.705 66.7772C349.785 67.4652 347.753 68.1852 346.457 68.5692Z" fill="white"/>
<path d="M269.325 24.0113V25.7873H275.293V24.0113H269.325ZM260.653 20.2993V21.8673H267.853V20.2993H260.653ZM260.493 26.6673V28.2833H267.837V26.6673H260.493ZM260.445 23.8673V25.4513H267.981V23.8673H260.445ZM271.917 24.7793V33.6593H273.773V24.7793H271.917ZM263.325 18.8433V21.0033H265.197V18.8433H263.325ZM263.325 25.3553V33.7233H265.197V25.3553H263.325ZM268.461 19.9793V25.5633C268.461 27.7553 268.285 30.4913 266.429 32.4593C266.861 32.6993 267.565 33.3553 267.805 33.7713C269.981 31.5153 270.285 27.9793 270.285 25.5953V20.8913C270.573 20.8433 270.685 20.7633 270.701 20.6033L268.461 19.9793ZM273.693 18.8753C272.557 19.4833 270.669 20.0593 268.957 20.4433C269.181 20.8113 269.453 21.4833 269.549 21.8993C271.421 21.5473 273.597 21.0033 275.229 20.2673L273.693 18.8753ZM265.053 28.3473L264.029 29.1793C264.621 29.7073 265.837 30.9073 266.365 31.5473L267.469 30.1713C267.085 29.8513 265.549 28.6513 265.053 28.3473ZM261.453 22.1073C261.709 22.7153 261.917 23.5313 261.949 24.0593L263.517 23.6433C263.437 23.1153 263.213 22.3313 262.925 21.7553L261.453 22.1073ZM265.437 21.7233C265.293 22.2833 265.021 23.0993 264.797 23.6433L266.317 23.9633C266.557 23.4673 266.829 22.7793 267.133 22.0433L265.437 21.7233ZM263.341 27.6113C262.637 29.0193 261.309 30.5713 260.045 31.3873C260.445 31.6913 261.005 32.3313 261.309 32.7473C262.589 31.7073 263.917 29.8673 264.701 28.1073L263.341 27.6113ZM280.413 18.7153C279.885 21.2433 278.925 23.7713 277.661 25.3073C278.141 25.5793 279.037 26.1553 279.405 26.4753C280.669 24.7313 281.789 21.9313 282.445 19.1313L280.413 18.7153ZM280.269 21.8193L279.309 23.7233H285.309V21.8193H280.269ZM286.669 18.7153C286.157 21.2273 285.197 23.7233 283.949 25.2593C284.397 25.5153 285.245 26.1073 285.581 26.4113C286.861 24.6833 287.949 21.8993 288.605 19.0993L286.669 18.7153ZM287.149 21.8193L286.205 23.7233H292.925V21.8193H287.149ZM281.069 22.6993V33.7233H283.005V22.6993H281.069ZM288.861 22.5553V31.4193C288.861 31.6433 288.781 31.7073 288.509 31.7233C288.237 31.7393 287.293 31.7393 286.445 31.6913C286.717 32.2673 287.005 33.1313 287.069 33.7073C288.349 33.7073 289.325 33.6593 289.981 33.3393C290.653 33.0353 290.845 32.4913 290.845 31.4353V22.5553H288.861Z" fill="white"/>
<path d="M186.092 57.6856V59.5416H194.924V57.6856H186.092ZM185.228 53.0936V60.1816H187.196V54.9336H193.868V60.1816H195.932V53.0936H185.228ZM188.364 45.0456C187.676 46.8376 186.412 49.1416 185.34 50.5976L187.068 51.2856C188.156 49.8936 189.516 47.7496 190.556 45.7656L188.364 45.0456ZM192.204 47.9096C193.804 49.2856 195.628 51.2376 196.38 52.5816L198.06 51.3016C197.228 49.9256 195.308 48.0696 193.724 46.7896L192.204 47.9096ZM183.532 49.7016L183.644 51.6536C186.796 51.5256 191.596 51.3336 196.028 51.0936L196.124 49.2376C191.724 49.4296 186.764 49.6216 183.532 49.7016ZM201.58 47.9576V56.0696H203.516V49.8456H212.796V55.9896H214.812V47.9576H201.58ZM202.588 53.2856V55.1736H213.916V53.2856H202.588ZM207.132 45.1736V60.1976H209.164V45.1736H207.132Z" fill="white"/>
<path d="M114.663 36.9319V38.7879H123.495V36.9319H114.663ZM113.799 32.3399V39.4279H115.767V34.1799H122.439V39.4279H124.503V32.3399H113.799ZM116.935 24.2919C116.247 26.0839 114.983 28.3879 113.911 29.8439L115.639 30.5319C116.727 29.1399 118.087 26.9959 119.127 25.0119L116.935 24.2919ZM120.775 27.1559C122.375 28.5319 124.199 30.4839 124.951 31.8279L126.631 30.5479C125.799 29.1719 123.879 27.3159 122.295 26.0359L120.775 27.1559ZM112.103 28.9479L112.215 30.8999C115.367 30.7719 120.167 30.5799 124.599 30.3399L124.695 28.4839C120.295 28.6759 115.335 28.8679 112.103 28.9479ZM129.655 25.7479V27.5399H143.863V25.7479H129.655ZM133.159 32.6279V34.1159H140.327V32.6279H133.159ZM132.823 35.1719V36.7079H140.679V35.1719H132.823ZM135.783 33.3479V38.9799H137.607V33.3479H135.783ZM130.247 28.7399V39.4119H132.183V30.4999H141.831V28.7399H130.247ZM141.287 28.7399V37.4759C141.287 37.7159 141.207 37.7959 140.919 37.8119C140.663 37.8279 139.655 37.8279 138.871 37.7799C139.127 38.2119 139.415 38.9159 139.511 39.4119C140.807 39.4119 141.751 39.3959 142.391 39.1239C143.047 38.8519 143.271 38.4199 143.271 37.4919V28.7399H141.287ZM133.767 30.9319C134.103 31.4919 134.471 32.2439 134.615 32.7559L136.215 32.2119C136.039 31.7319 135.671 30.9959 135.303 30.4839L133.767 30.9319ZM138.279 30.5159C138.071 31.1239 137.655 32.0039 137.319 32.5959L138.679 32.9959C139.047 32.4839 139.479 31.7319 139.911 30.9639L138.279 30.5159ZM135.719 24.5159V29.9719H137.831V24.5159H135.719Z" fill="white"/>
<path d="M63.9036 74.985V76.617H77.9516V74.985H63.9036ZM69.8396 73.625V75.801H71.8236V73.625H69.8396ZM64.5436 81.449V88.697H66.4156V83.033H76.2396V81.449H64.5436ZM75.5196 81.449V86.617C75.5196 86.809 75.4556 86.873 75.2156 86.873C74.9916 86.889 74.1756 86.889 73.4556 86.857C73.7116 87.353 73.9836 88.121 74.0476 88.665C75.1996 88.665 76.0476 88.633 76.6556 88.345C77.2796 88.057 77.4556 87.545 77.4556 86.665V81.449H75.5196ZM67.8556 83.769V88.089H69.5196V83.769H67.8556ZM68.6876 83.769V85.049H72.3036V86.073H68.6876V87.353H73.9996V83.769H68.6876ZM68.3516 78.521H73.3916V79.481H68.3516V78.521ZM66.5276 77.241V80.777H75.3276V77.241H66.5276ZM81.2476 76.089V77.881H88.4476V76.089H81.2476ZM83.1036 86.361L83.6796 88.025C84.9756 87.673 86.5596 87.225 88.0636 86.761L87.8716 85.273C86.0956 85.705 84.3036 86.121 83.1036 86.361ZM86.4796 83.241C86.8796 84.745 87.2636 86.697 87.3596 87.961L88.7996 87.385C88.6876 86.089 88.2876 84.185 87.8236 82.681L86.4796 83.241ZM85.4556 79.065C85.1996 81.401 84.6076 84.633 84.0476 86.601L85.3756 86.953C85.9996 85.033 86.6876 81.929 87.1356 79.417L85.4556 79.065ZM89.5356 79.961V81.561H95.6636V79.961H89.5356ZM89.5356 83.081V84.697H95.6636V83.081H89.5356ZM89.5356 86.265V88.009H95.9836V86.265H89.5356ZM89.9196 73.641C89.2796 75.961 88.1756 78.265 86.8636 79.705C87.2316 80.057 87.9036 80.841 88.1596 81.209C89.5996 79.481 90.9116 76.761 91.7116 74.105L89.9196 73.641ZM93.1676 73.817C92.8476 74.953 92.2396 76.521 91.7276 77.497L93.2316 77.977C93.7596 77.065 94.4156 75.625 94.9756 74.313L93.1676 73.817ZM90.6396 76.729H90.3836L88.8796 78.329V88.681H90.6396V78.441H95.8396V76.729H90.6396ZM92.1436 77.561V87.225H93.9036V77.561H92.1436ZM83.1996 73.657V75.081C83.1996 78.553 83.0556 83.289 80.7356 87.321C81.2636 87.481 81.9996 87.865 82.3836 88.169C84.7836 83.849 84.9116 78.745 84.9116 75.081V73.657H83.1996Z" fill="white"/>
</svg>
