<svg width="121" height="102" viewBox="0 0 121 102" fill="none" xmlns="http://www.w3.org/2000/svg">
<path fill-rule="evenodd" clip-rule="evenodd" d="M16 0C7.16344 0 0 7.16344 0 16V74.4528C0 83.2894 7.16345 90.4528 16 90.4528H54.9661L60.4996 102L66.033 90.4528H105C113.837 90.4528 121 83.2894 121 74.4528V16C121 7.16344 113.837 0 105 0H16Z" fill="#81A8E0"/>
<path d="M24.008 44.232L23.828 43.674C23.744 43.41 23.762 43.152 23.882 42.9C24.014 42.636 24.212 42.432 24.476 42.288C24.848 42.096 25.154 41.868 25.394 41.604C25.418 41.58 25.418 41.556 25.394 41.532C25.382 41.508 25.364 41.496 25.34 41.496H24.926C24.65 41.496 24.41 41.394 24.206 41.19C24.002 40.986 23.9 40.746 23.9 40.47C23.9 40.194 24.002 39.96 24.206 39.768C24.41 39.564 24.65 39.462 24.926 39.462H26.528C26.624 39.462 26.672 39.414 26.672 39.318V39.156C26.672 39.048 26.624 38.994 26.528 38.994H25.358C25.094 38.994 24.872 38.904 24.692 38.724C24.512 38.544 24.422 38.322 24.422 38.058C24.422 37.794 24.512 37.572 24.692 37.392C24.872 37.2 25.094 37.104 25.358 37.104H26.546C26.63 37.104 26.672 37.056 26.672 36.96C26.672 36.696 26.762 36.474 26.942 36.294C27.134 36.114 27.362 36.024 27.626 36.024H28.526C28.79 36.024 29.012 36.114 29.192 36.294C29.372 36.474 29.462 36.696 29.462 36.96C29.462 37.056 29.51 37.104 29.606 37.104H30.848C31.112 37.104 31.334 37.2 31.514 37.392C31.706 37.572 31.802 37.794 31.802 38.058C31.802 38.322 31.706 38.544 31.514 38.724C31.334 38.904 31.112 38.994 30.848 38.994H29.624C29.516 38.994 29.462 39.048 29.462 39.156V39.318C29.462 39.414 29.516 39.462 29.624 39.462H30.992C31.268 39.462 31.508 39.564 31.712 39.768C31.916 39.972 32.018 40.212 32.018 40.488V40.92C32.018 41.016 32.072 41.076 32.18 41.1L32.522 41.136C32.69 41.148 32.846 41.202 32.99 41.298C33.062 41.346 33.11 41.376 33.134 41.388C33.17 41.388 33.2 41.37 33.224 41.334C33.26 40.578 33.278 40.176 33.278 40.128C33.278 40.032 33.224 39.984 33.116 39.984H32.72C32.444 39.984 32.204 39.888 32 39.696C31.808 39.492 31.712 39.252 31.712 38.976V38.67C31.712 38.394 31.808 38.154 32 37.95C32.204 37.746 32.444 37.644 32.72 37.644H33.134C33.23 37.644 33.278 37.596 33.278 37.5V37.05C33.278 36.774 33.38 36.534 33.584 36.33C33.788 36.126 34.028 36.024 34.304 36.024H34.7C34.976 36.024 35.216 36.126 35.42 36.33C35.624 36.534 35.726 36.774 35.726 37.05V37.5C35.726 37.596 35.78 37.644 35.888 37.644H37.994C38.27 37.644 38.51 37.746 38.714 37.95C38.918 38.154 39.02 38.394 39.02 38.67C39.032 43.074 39.152 45.276 39.38 45.276C39.44 45.276 39.494 44.844 39.542 43.98C39.554 43.788 39.638 43.644 39.794 43.548C39.962 43.452 40.13 43.452 40.298 43.548C40.766 43.8 40.982 44.19 40.946 44.718C40.838 45.978 40.604 46.914 40.244 47.526C39.896 48.126 39.464 48.426 38.948 48.426C38.504 48.426 38.126 48.276 37.814 47.976C37.502 47.664 37.25 47.118 37.058 46.338C37.022 46.242 36.98 46.23 36.932 46.302L36.608 46.752C36.464 46.956 36.266 47.064 36.014 47.076C35.774 47.076 35.57 46.98 35.402 46.788C35.222 46.548 35.042 46.332 34.862 46.14C34.85 46.128 34.832 46.122 34.808 46.122C34.796 46.11 34.778 46.11 34.754 46.122C34.73 46.134 34.718 46.152 34.718 46.176C34.394 46.932 34.028 47.574 33.62 48.102C33.452 48.318 33.23 48.426 32.954 48.426C32.69 48.414 32.468 48.3 32.288 48.084L31.856 47.58C31.76 47.472 31.694 47.346 31.658 47.202C31.658 47.19 31.646 47.184 31.622 47.184C31.61 47.184 31.604 47.19 31.604 47.202C31.568 47.442 31.466 47.652 31.298 47.832C31.13 48 30.926 48.096 30.686 48.12C29.402 48.288 27.536 48.474 25.088 48.678C24.812 48.702 24.56 48.624 24.332 48.444C24.116 48.252 23.996 48.018 23.972 47.742L23.954 47.58C23.93 47.304 24.008 47.064 24.188 46.86C24.368 46.644 24.596 46.524 24.872 46.5C25.616 46.452 26.162 46.416 26.51 46.392C26.618 46.392 26.672 46.338 26.672 46.23V45.816C26.672 45.708 26.624 45.654 26.528 45.654H25.754C25.478 45.654 25.244 45.558 25.052 45.366C24.86 45.174 24.764 44.94 24.764 44.664V44.592C24.764 44.544 24.74 44.532 24.692 44.556C24.56 44.616 24.422 44.616 24.278 44.556C24.146 44.484 24.056 44.376 24.008 44.232ZM35.492 43.188C35.48 43.272 35.516 43.356 35.6 43.44C35.9 43.74 36.26 44.142 36.68 44.646C36.728 44.694 36.752 44.676 36.752 44.592C36.62 43.452 36.548 41.964 36.536 40.128C36.536 40.032 36.482 39.984 36.374 39.984H35.87C35.774 39.984 35.726 40.044 35.726 40.164C35.714 41.184 35.636 42.192 35.492 43.188ZM30.74 41.64V41.676C30.74 41.832 30.752 41.928 30.776 41.964C30.8 41.988 30.902 42 31.082 42C31.202 42 31.28 41.994 31.316 41.982C31.364 41.97 31.406 41.94 31.442 41.892C31.478 41.844 31.502 41.766 31.514 41.658C31.514 41.55 31.466 41.496 31.37 41.496H30.884C30.788 41.496 30.74 41.544 30.74 41.64ZM29.462 45.816V45.996C29.462 46.092 29.51 46.14 29.606 46.14C29.702 46.128 29.852 46.116 30.056 46.104C30.272 46.08 30.434 46.062 30.542 46.05C30.77 46.026 30.98 46.08 31.172 46.212C31.364 46.344 31.496 46.518 31.568 46.734C31.58 46.734 31.598 46.728 31.622 46.716C31.658 46.476 31.748 46.26 31.892 46.068C32.3 45.552 32.606 44.928 32.81 44.196C32.834 44.076 32.81 43.992 32.738 43.944L32.702 43.926C32.678 43.914 32.666 43.902 32.666 43.89C32.546 43.794 32.45 43.668 32.378 43.512C32.342 43.428 32.27 43.386 32.162 43.386C31.958 43.41 31.574 43.422 31.01 43.422C30.302 43.422 29.834 43.41 29.606 43.386C29.51 43.386 29.462 43.434 29.462 43.53V43.638C29.462 43.734 29.516 43.782 29.624 43.782H30.92C31.184 43.782 31.406 43.872 31.586 44.052C31.766 44.232 31.856 44.454 31.856 44.718C31.856 44.982 31.766 45.204 31.586 45.384C31.406 45.564 31.184 45.654 30.92 45.654H29.624C29.516 45.654 29.462 45.708 29.462 45.816ZM27.5 42.09C27.476 42.114 27.476 42.144 27.5 42.18C27.524 42.216 27.554 42.234 27.59 42.234H28.31C28.418 42.234 28.472 42.18 28.472 42.072V41.64C28.472 41.544 28.418 41.496 28.31 41.496H27.896C27.8 41.496 27.734 41.544 27.698 41.64C27.65 41.784 27.584 41.934 27.5 42.09ZM26.168 43.692C26.144 43.716 26.132 43.74 26.132 43.764C26.144 43.776 26.162 43.782 26.186 43.782H27.014C27.11 43.782 27.158 43.734 27.158 43.638V42.81C27.158 42.786 27.146 42.774 27.122 42.774C27.098 42.762 27.08 42.768 27.068 42.792C26.792 43.152 26.492 43.452 26.168 43.692ZM26.978 48.894L27.374 49.074C27.626 49.194 27.788 49.386 27.86 49.65C27.944 49.914 27.914 50.16 27.77 50.388C27.35 51.06 26.96 51.636 26.6 52.116C26.42 52.344 26.186 52.488 25.898 52.548C25.61 52.608 25.34 52.566 25.088 52.422L24.62 52.152C24.392 52.02 24.248 51.822 24.188 51.558C24.14 51.306 24.2 51.078 24.368 50.874C24.644 50.526 25.022 50.004 25.502 49.308C25.67 49.068 25.892 48.912 26.168 48.84C26.444 48.756 26.714 48.774 26.978 48.894ZM30.308 49.056C30.596 49.032 30.854 49.104 31.082 49.272C31.322 49.428 31.472 49.65 31.532 49.938C31.676 50.682 31.772 51.234 31.82 51.594C31.868 51.87 31.802 52.116 31.622 52.332C31.442 52.548 31.214 52.668 30.938 52.692L30.326 52.746C30.05 52.77 29.798 52.692 29.57 52.512C29.342 52.344 29.21 52.122 29.174 51.846C29.126 51.498 29.042 50.952 28.922 50.208C28.874 49.932 28.934 49.686 29.102 49.47C29.27 49.254 29.486 49.134 29.75 49.11L30.308 49.056ZM33.926 49.02C34.214 48.96 34.484 49.002 34.736 49.146C35 49.278 35.18 49.482 35.276 49.758C35.504 50.358 35.702 50.904 35.87 51.396C35.954 51.66 35.924 51.9 35.78 52.116C35.648 52.344 35.444 52.488 35.168 52.548L34.61 52.656C34.322 52.704 34.058 52.65 33.818 52.494C33.578 52.35 33.41 52.14 33.314 51.864C33.182 51.456 33.002 50.94 32.774 50.316C32.678 50.064 32.69 49.818 32.81 49.578C32.942 49.338 33.14 49.188 33.404 49.128L33.926 49.02ZM37.292 48.786C37.556 48.654 37.832 48.618 38.12 48.678C38.408 48.738 38.636 48.882 38.804 49.11C39.32 49.818 39.71 50.382 39.974 50.802C40.13 51.042 40.166 51.288 40.082 51.54C40.01 51.804 39.854 52.002 39.614 52.134L39.182 52.368C38.93 52.5 38.66 52.53 38.372 52.458C38.096 52.386 37.88 52.23 37.724 51.99C37.4 51.498 37.016 50.946 36.572 50.334C36.416 50.118 36.362 49.878 36.41 49.614C36.47 49.35 36.62 49.152 36.86 49.02L37.292 48.786ZM54.032 45.276C53.756 45.276 53.516 45.174 53.312 44.97C53.12 44.766 53.024 44.526 53.024 44.25V37.554C53.024 37.278 53.12 37.044 53.312 36.852C53.516 36.648 53.756 36.546 54.032 36.546H59.648C59.924 36.546 60.158 36.648 60.35 36.852C60.554 37.044 60.656 37.278 60.656 37.554V49.398C60.656 49.95 60.644 50.382 60.62 50.694C60.608 51.006 60.56 51.3 60.476 51.576C60.392 51.852 60.296 52.05 60.188 52.17C60.08 52.29 59.894 52.392 59.63 52.476C59.366 52.56 59.09 52.608 58.802 52.62C58.514 52.644 58.112 52.656 57.596 52.656C56.912 52.656 56.252 52.644 55.616 52.62C55.328 52.608 55.076 52.5 54.86 52.296C54.644 52.092 54.53 51.846 54.518 51.558L54.5 51.18C54.488 50.916 54.572 50.688 54.752 50.496C54.944 50.292 55.178 50.196 55.454 50.208C55.97 50.232 56.48 50.244 56.984 50.244C57.38 50.244 57.614 50.214 57.686 50.154C57.758 50.094 57.794 49.884 57.794 49.524V45.42C57.794 45.324 57.746 45.276 57.65 45.276H54.032ZM55.184 38.832V39.894C55.184 40.002 55.238 40.056 55.346 40.056H57.65C57.746 40.056 57.794 40.002 57.794 39.894V38.832C57.794 38.736 57.746 38.688 57.65 38.688H55.346C55.238 38.688 55.184 38.736 55.184 38.832ZM55.184 41.982V43.044C55.184 43.152 55.238 43.206 55.346 43.206H57.65C57.746 43.206 57.794 43.152 57.794 43.044V41.982C57.794 41.886 57.746 41.838 57.65 41.838H55.346C55.238 41.838 55.184 41.886 55.184 41.982ZM45.752 52.692C45.476 52.692 45.236 52.59 45.032 52.386C44.84 52.182 44.744 51.942 44.744 51.666V37.554C44.744 37.278 44.84 37.044 45.032 36.852C45.236 36.648 45.476 36.546 45.752 36.546H51.188C51.464 36.546 51.698 36.648 51.89 36.852C52.094 37.044 52.196 37.278 52.196 37.554V44.25C52.196 44.526 52.094 44.766 51.89 44.97C51.698 45.174 51.464 45.276 51.188 45.276H47.75C47.654 45.276 47.606 45.324 47.606 45.42V51.666C47.606 51.942 47.504 52.182 47.3 52.386C47.096 52.59 46.856 52.692 46.58 52.692H45.752ZM47.606 38.832V39.894C47.606 40.002 47.654 40.056 47.75 40.056H49.874C49.982 40.056 50.036 40.002 50.036 39.894V38.832C50.036 38.736 49.982 38.688 49.874 38.688H47.75C47.654 38.688 47.606 38.736 47.606 38.832ZM47.606 41.982V43.044C47.606 43.152 47.654 43.206 47.75 43.206H49.874C49.982 43.206 50.036 43.152 50.036 43.044V41.982C50.036 41.886 49.982 41.838 49.874 41.838H47.75C47.654 41.838 47.606 41.886 47.606 41.982ZM77.27 39.462C77.174 39.462 77.126 39.516 77.126 39.624V40.038C77.126 40.134 77.174 40.182 77.27 40.182H79.952C80.228 40.182 80.468 40.284 80.672 40.488C80.876 40.692 80.978 40.932 80.978 41.208V44.466C80.978 44.742 80.876 44.982 80.672 45.186C80.468 45.378 80.228 45.474 79.952 45.474H78.35C78.326 45.474 78.308 45.492 78.296 45.528C78.296 45.552 78.308 45.57 78.332 45.582C78.956 46.038 79.742 46.5 80.69 46.968C80.942 47.088 81.11 47.28 81.194 47.544C81.29 47.808 81.272 48.06 81.14 48.3L80.924 48.732C80.792 48.984 80.588 49.152 80.312 49.236C80.036 49.32 79.778 49.29 79.538 49.146C78.806 48.726 78.038 48.186 77.234 47.526C77.162 47.478 77.126 47.496 77.126 47.58V48.75C77.126 49.026 77.024 49.266 76.82 49.47C76.616 49.674 76.376 49.776 76.1 49.776H75.272C74.996 49.776 74.756 49.674 74.552 49.47C74.36 49.266 74.264 49.026 74.264 48.75V47.778C74.264 47.682 74.216 47.664 74.12 47.724C73.52 48.228 72.836 48.702 72.068 49.146C71.828 49.29 71.57 49.326 71.294 49.254C71.018 49.17 70.802 49.008 70.646 48.768L70.322 48.264C70.178 48.036 70.142 47.796 70.214 47.544C70.298 47.292 70.46 47.112 70.7 47.004C71.672 46.572 72.536 46.098 73.292 45.582C73.316 45.57 73.322 45.552 73.31 45.528C73.31 45.492 73.298 45.474 73.274 45.474H72.896H71.42C71.144 45.474 70.904 45.378 70.7 45.186C70.496 44.982 70.394 44.742 70.394 44.466V41.208C70.394 40.932 70.496 40.692 70.7 40.488C70.904 40.284 71.144 40.182 71.42 40.182H74.102C74.21 40.182 74.264 40.134 74.264 40.038V39.624C74.264 39.516 74.21 39.462 74.102 39.462H70.556C70.28 39.462 70.04 39.36 69.836 39.156C69.632 38.952 69.53 38.712 69.53 38.436V38.22C69.53 37.944 69.632 37.704 69.836 37.5C70.04 37.296 70.28 37.194 70.556 37.194H74.12C74.216 37.194 74.264 37.152 74.264 37.068C74.264 36.804 74.354 36.582 74.534 36.402C74.714 36.21 74.936 36.114 75.2 36.114H76.172C76.436 36.114 76.658 36.21 76.838 36.402C77.03 36.582 77.126 36.804 77.126 37.068C77.126 37.152 77.168 37.194 77.252 37.194H80.42C80.696 37.194 80.936 37.296 81.14 37.5C81.344 37.704 81.446 37.944 81.446 38.22V38.436C81.446 38.712 81.344 38.952 81.14 39.156C80.936 39.36 80.696 39.462 80.42 39.462H77.27ZM74.264 43.602V42.306C74.264 42.198 74.21 42.144 74.102 42.144H73.058C72.95 42.144 72.896 42.198 72.896 42.306V43.602C72.896 43.71 72.95 43.764 73.058 43.764H74.102C74.21 43.764 74.264 43.71 74.264 43.602ZM77.27 42.144C77.174 42.144 77.126 42.198 77.126 42.306V43.602C77.126 43.71 77.174 43.764 77.27 43.764H78.242C78.35 43.764 78.404 43.71 78.404 43.602V42.306C78.404 42.198 78.35 42.144 78.242 42.144H77.27ZM67.73 37.32C68.258 37.824 68.846 38.406 69.494 39.066C69.698 39.27 69.8 39.516 69.8 39.804C69.8 40.092 69.704 40.338 69.512 40.542L69.242 40.812C69.05 41.016 68.816 41.124 68.54 41.136C68.264 41.136 68.024 41.04 67.82 40.848C67.256 40.284 66.626 39.684 65.93 39.048C65.726 38.856 65.618 38.628 65.606 38.364C65.606 38.088 65.708 37.854 65.912 37.662L66.254 37.338C66.458 37.134 66.704 37.032 66.992 37.032C67.28 37.032 67.526 37.128 67.73 37.32ZM66.2 45.258C65.924 45.258 65.684 45.156 65.48 44.952C65.276 44.748 65.174 44.508 65.174 44.232V43.944C65.174 43.668 65.276 43.428 65.48 43.224C65.684 43.02 65.924 42.918 66.2 42.918H68.63C68.906 42.918 69.146 43.02 69.35 43.224C69.554 43.428 69.656 43.668 69.656 43.944V48.534C69.656 48.63 69.686 48.726 69.746 48.822C70.01 49.23 70.352 49.53 70.772 49.722C71.192 49.902 71.876 50.034 72.824 50.118C73.784 50.202 75.224 50.244 77.144 50.244H80.636C80.912 50.244 81.146 50.346 81.338 50.55C81.53 50.742 81.62 50.976 81.608 51.252L81.572 51.558C81.548 51.846 81.434 52.086 81.23 52.278C81.026 52.482 80.78 52.584 80.492 52.584H77.126C74.75 52.584 72.914 52.476 71.618 52.26C70.334 52.044 69.368 51.672 68.72 51.144C68.636 51.084 68.558 51.078 68.486 51.126C68.006 51.534 67.508 51.918 66.992 52.278C66.764 52.434 66.518 52.482 66.254 52.422C66.002 52.362 65.804 52.212 65.66 51.972L65.39 51.522C65.246 51.282 65.204 51.024 65.264 50.748C65.324 50.472 65.474 50.25 65.714 50.082C66.122 49.806 66.488 49.542 66.812 49.29C66.896 49.23 66.938 49.152 66.938 49.056V45.402C66.938 45.306 66.884 45.258 66.776 45.258H66.2ZM86.648 42.684C86.42 42.624 86.228 42.504 86.072 42.324C85.928 42.132 85.856 41.916 85.856 41.676V41.46C85.856 41.184 85.958 40.944 86.162 40.74C86.366 40.536 86.606 40.434 86.882 40.434H88.25C88.346 40.434 88.394 40.386 88.394 40.29V39.498C88.394 39.39 88.346 39.336 88.25 39.336H87.35C87.074 39.336 86.834 39.24 86.63 39.048C86.426 38.844 86.324 38.604 86.324 38.328V38.256C86.324 37.98 86.426 37.74 86.63 37.536C86.834 37.332 87.074 37.23 87.35 37.23H88.25C88.346 37.23 88.394 37.176 88.394 37.068V37.05C88.394 36.774 88.496 36.534 88.7 36.33C88.904 36.126 89.144 36.024 89.42 36.024H90.176C90.452 36.024 90.686 36.126 90.878 36.33C91.082 36.534 91.184 36.774 91.184 37.05V37.068C91.184 37.176 91.238 37.23 91.346 37.23H92.102C92.378 37.23 92.618 37.332 92.822 37.536C93.026 37.74 93.128 37.98 93.128 38.256V38.328C93.128 38.604 93.026 38.844 92.822 39.048C92.618 39.24 92.378 39.336 92.102 39.336H91.346C91.238 39.336 91.184 39.39 91.184 39.498V40.29C91.184 40.386 91.238 40.434 91.346 40.434H92.786C93.002 40.434 93.212 40.506 93.416 40.65C93.488 40.698 93.524 40.68 93.524 40.596V37.644C93.524 37.368 93.626 37.128 93.83 36.924C94.034 36.72 94.274 36.618 94.55 36.618H101.282C101.558 36.618 101.792 36.72 101.984 36.924C102.188 37.128 102.284 37.368 102.272 37.644V37.752C102.212 38.94 102.128 39.786 102.02 40.29C101.924 40.794 101.786 41.118 101.606 41.262C101.438 41.394 101.144 41.46 100.724 41.46C100.268 41.46 99.446 41.442 98.258 41.406C97.982 41.394 97.748 41.292 97.556 41.1C97.364 40.908 97.262 40.674 97.25 40.398C97.238 40.134 97.328 39.912 97.52 39.732C97.712 39.54 97.946 39.45 98.222 39.462C98.942 39.486 99.326 39.498 99.374 39.498C99.434 39.498 99.476 39.498 99.5 39.498C99.524 39.486 99.548 39.462 99.572 39.426C99.596 39.39 99.608 39.342 99.608 39.282C99.62 39.21 99.632 39.102 99.644 38.958C99.644 38.862 99.596 38.814 99.5 38.814H96.332C96.224 38.814 96.17 38.862 96.17 38.958V41.802C96.17 41.91 96.224 41.964 96.332 41.964H101.264C101.54 41.964 101.774 42.066 101.966 42.27C102.17 42.462 102.272 42.696 102.272 42.972V43.08C102.272 43.464 102.11 43.758 101.786 43.962C101.726 44.01 101.726 44.064 101.786 44.124C102.086 44.376 102.188 44.7 102.092 45.096C101.816 46.356 101.378 47.538 100.778 48.642C100.73 48.726 100.742 48.804 100.814 48.876C101.126 49.176 101.474 49.458 101.858 49.722C102.11 49.902 102.284 50.13 102.38 50.406C102.488 50.67 102.5 50.94 102.416 51.216L102.254 51.756C102.17 52.02 102.002 52.2 101.75 52.296C101.51 52.404 101.27 52.392 101.03 52.26C100.382 51.864 99.806 51.432 99.302 50.964C99.242 50.892 99.17 50.898 99.086 50.982C98.654 51.438 98.276 51.792 97.952 52.044C97.748 52.212 97.514 52.26 97.25 52.188C96.998 52.116 96.812 51.96 96.692 51.72L96.404 51.126C96.284 50.862 96.26 50.592 96.332 50.316C96.416 50.028 96.572 49.794 96.8 49.614C97.076 49.398 97.298 49.2 97.466 49.02C97.55 48.936 97.556 48.852 97.484 48.768C96.956 47.94 96.542 47.124 96.242 46.32L96.188 46.05H96.17V51.63C96.17 51.906 96.068 52.146 95.864 52.35C95.66 52.554 95.42 52.656 95.144 52.656H94.55C94.274 52.656 94.034 52.554 93.83 52.35C93.626 52.146 93.524 51.906 93.524 51.63V47.148C93.524 47.064 93.488 47.046 93.416 47.094C93.212 47.238 93.002 47.31 92.786 47.31H91.346C91.238 47.31 91.184 47.364 91.184 47.472V48.372C91.184 48.48 91.238 48.534 91.346 48.534H92.138C92.414 48.534 92.654 48.636 92.858 48.84C93.062 49.032 93.164 49.266 93.164 49.542V49.614C93.164 49.89 93.062 50.13 92.858 50.334C92.654 50.538 92.414 50.64 92.138 50.64H91.346C91.238 50.64 91.184 50.694 91.184 50.802V51.81C91.184 52.086 91.082 52.326 90.878 52.53C90.686 52.734 90.452 52.836 90.176 52.836H89.42C89.144 52.836 88.904 52.734 88.7 52.53C88.496 52.326 88.394 52.086 88.394 51.81V50.802C88.394 50.694 88.346 50.64 88.25 50.64H87.242C86.966 50.64 86.726 50.538 86.522 50.334C86.318 50.13 86.216 49.89 86.216 49.614V49.542C86.216 49.266 86.318 49.032 86.522 48.84C86.726 48.636 86.966 48.534 87.242 48.534H88.25C88.346 48.534 88.394 48.48 88.394 48.372V47.472C88.394 47.364 88.346 47.31 88.25 47.31H86.972C86.696 47.31 86.456 47.208 86.252 47.004C86.06 46.8 85.964 46.56 85.964 46.284V46.068C85.964 45.792 86.06 45.552 86.252 45.348C86.456 45.144 86.696 45.042 86.972 45.042H87.08C87.188 45.042 87.23 44.988 87.206 44.88C87.014 43.968 86.882 43.35 86.81 43.026C86.798 42.99 86.792 42.936 86.792 42.864C86.792 42.768 86.744 42.708 86.648 42.684ZM96.332 44.106C96.224 44.106 96.17 44.154 96.17 44.25V45.708H96.188C96.248 45.288 96.434 44.964 96.746 44.736L97.052 44.502C97.256 44.358 97.472 44.322 97.7 44.394C97.928 44.466 98.084 44.616 98.168 44.844C98.372 45.384 98.636 45.942 98.96 46.518C98.984 46.542 99.008 46.554 99.032 46.554C99.068 46.542 99.092 46.524 99.104 46.5C99.356 45.888 99.554 45.222 99.698 44.502C99.71 44.466 99.74 44.382 99.788 44.25C99.848 44.154 99.83 44.106 99.734 44.106H96.332ZM93.434 42.486C93.386 42.522 93.314 42.564 93.218 42.612C93.122 42.66 93.068 42.726 93.056 42.81C93.056 42.87 93.05 42.918 93.038 42.954C92.918 43.398 92.714 44.04 92.426 44.88C92.402 44.988 92.432 45.042 92.516 45.042H92.786C93.002 45.042 93.212 45.114 93.416 45.258C93.488 45.306 93.524 45.288 93.524 45.204V42.54C93.524 42.516 93.512 42.498 93.488 42.486C93.464 42.474 93.446 42.474 93.434 42.486ZM90.716 42.702H89.096C88.988 42.702 88.946 42.75 88.97 42.846C89.15 43.686 89.27 44.256 89.33 44.556C89.354 44.676 89.354 44.79 89.33 44.898C89.306 44.994 89.348 45.042 89.456 45.042H89.996C90.092 45.042 90.158 45 90.194 44.916C90.422 44.268 90.638 43.584 90.842 42.864C90.854 42.828 90.842 42.792 90.806 42.756C90.782 42.72 90.752 42.702 90.716 42.702Z" fill="white"/>
</svg>
