<svg width="407" height="210" viewBox="0 0 407 210" fill="none" xmlns="http://www.w3.org/2000/svg">
<mask id="mask0_2736_10104" style="mask-type:alpha" maskUnits="userSpaceOnUse" x="0" y="0" width="407" height="210">
<rect x="0.5" y="0.5" width="406" height="209" fill="#D9D9D9" stroke="black"/>
</mask>
<g mask="url(#mask0_2736_10104)">
<circle cx="79.7629" cy="93.1206" r="25.1533" fill="#9587E1" stroke="white" stroke-width="4"/>
<circle cx="128.554" cy="43.4593" r="22.1834" fill="#E384F2" stroke="white" stroke-width="4"/>
<circle cx="198.983" cy="65.0613" r="24.7291" fill="#EAAE77" stroke="white" stroke-width="4"/>
<circle cx="276.2" cy="37.7547" r="24.7291" fill="#81A8E0" stroke="white" stroke-width="4"/>
<circle cx="345.356" cy="76.9766" r="29.396" fill="#84D2B9" stroke="white" stroke-width="4"/>
<line x1="129.728" y1="67.6426" x2="129.728" y2="126.192" stroke="white" stroke-width="1.5"/>
<line x1="80.75" y1="120" x2="80.75" y2="166" stroke="white" stroke-width="1.5"/>
<line x1="199.75" y1="88" x2="199.75" y2="130" stroke="white" stroke-width="1.5"/>
<line x1="277.75" y1="64" x2="277.75" y2="135" stroke="white" stroke-width="1.5"/>
<line x1="346.106" y1="108.373" x2="346.106" y2="150.8" stroke="white" stroke-width="1.5"/>
<path d="M393.307 161.97C392.765 161.304 392.533 160.765 392.547 160.195C392.585 159.431 392.465 159.3 390.863 158.378C388.082 156.761 386.016 156.051 384.229 156.111C383.291 156.158 381.253 155.907 378.99 155.476L375.255 154.786L373.368 152.579C370.565 149.247 370.118 148.579 369.513 146.636L368.942 144.858L366.545 143.267C365.206 142.397 363.251 140.806 362.158 139.749C361.097 138.686 359.78 137.451 359.277 136.982L358.356 136.15L353.234 135.63C350.4 135.346 344.727 134.591 340.618 133.922L333.093 132.741L329.178 133.376C325.414 133.98 325.225 133.983 324.283 133.687C323.745 133.518 322.855 133.006 322.355 132.554C321.782 132.049 321.251 131.758 321.045 131.833C319.717 132.301 318.596 132.539 317.77 132.513C316.277 132.463 315.657 131.881 315.21 130.095C314.733 128.316 314.485 128.176 311.739 128.339C309.681 128.469 308.813 128.228 307.99 127.256C307.06 126.219 305.777 125.956 300.413 125.81C298.192 125.75 294.484 125.518 292.139 125.31C288.476 124.983 287.297 124.769 283.299 123.7C279.101 122.585 278.381 122.452 275.027 122.254C272.634 122.124 270.822 121.897 269.849 121.607C268.473 121.191 268.186 121.179 266.313 121.445C262.938 121.938 261.414 121.895 258.991 121.29C257.792 120.976 256.274 120.639 255.621 120.527C254.998 120.409 254.257 120.177 253.999 119.987C253.408 119.554 253.018 119.493 252.197 119.655C248.852 120.297 241.792 119.076 237.035 117.04C236.036 116.618 235.033 116.335 234.73 116.394C233.636 116.61 227.035 116.914 225.626 116.814C224.76 116.744 221.926 115.979 218.151 114.763C212.223 112.872 211.994 112.832 207.573 112.345C200.862 111.605 200.926 111.61 197.348 112.195C194.931 112.585 193.568 112.716 191.454 112.72C185.995 112.731 185.715 112.752 184.241 113.283C182.385 113.958 181.829 114.016 179.693 113.749C178.658 113.627 177.543 113.572 177.208 113.637C176.874 113.703 176.258 114.1 175.807 114.533C175.091 115.224 174.8 115.35 172.763 115.906C168.48 117.077 163.549 117.688 155.819 118.025C148.497 118.351 145.725 118.382 144.202 118.184C142.74 117.973 139.746 117.996 137.677 118.232L136.257 118.392L136.57 118.863C136.72 119.143 136.809 119.434 136.707 119.558C136.429 119.905 134.832 119.652 133.444 119.015C132.718 118.694 131.846 118.436 131.472 118.458C131.097 118.481 129.69 118.706 128.292 118.982C126.013 119.431 125.716 119.524 125.122 120.036C124.712 120.358 124.48 120.782 124.532 121.046C124.658 121.847 123.797 123.082 121.19 125.71C119.795 127.12 118.549 128.328 118.407 128.407C118.265 128.487 116.667 128.87 114.881 129.257C111.157 130.06 109.423 130.711 107.306 132.142C106.049 132.974 105.961 133.009 103.967 133.299C101.236 133.699 99.9415 134.178 97.1756 135.84C94.8633 137.242 91.7446 138.716 89.2672 139.599C88.1451 139.992 87.6286 140.094 86.5596 140.116C84.6137 140.173 84.1036 140.308 81.3984 141.477C78.2537 142.819 76.2528 144.038 74.7762 145.515C73.7748 146.52 73.4666 146.718 72.67 146.841C71.8127 146.976 71.816 146.992 72.4736 146.966C73.2257 146.938 73.2323 146.971 71.8977 147.887C67.2124 151.183 67.2396 151.16 65.7578 153.412C64.9811 154.596 63.3582 156.772 62.1312 158.234C60.9378 159.707 59.7977 161.29 59.6058 161.757C59.4171 162.241 58.8335 163.285 58.3562 164.066C56.0415 167.857 52.5889 170.359 46.9753 172.308C44.9373 173.019 44.4197 173.276 43.2501 174.228C41.7517 175.435 40.7404 175.909 35.0954 178.018C30.5996 179.712 25.7673 181.301 24.1264 181.624C22.911 181.864 22.6852 181.84 21.0908 181.277C18.8841 180.492 18.3035 180.589 16.3071 182.151C15.4868 182.794 14.5385 183.428 14.1902 183.583C13.869 183.715 12.5624 183.972 11.3002 184.135C7.76343 184.609 7.94248 184.556 8.08923 185.301C8.20337 185.88 8.31084 185.945 8.94895 185.819C10.0125 185.609 11.7566 185.97 12.1714 186.473C12.6828 187.146 12.4659 187.807 11.162 189.68C9.95353 191.396 9.29957 192.883 9.70008 192.993C9.83467 193.035 10.6996 192.779 11.6426 192.438C14.8264 191.295 16.017 191.25 19.0756 192.194C21.1889 192.826 23.429 193.14 25.4053 193.077C26.3462 193.047 26.8595 192.928 28.0022 192.48C31.0211 191.3 33.8383 190.539 36.5752 190.171C37.9589 189.984 41.3611 189.468 44.0514 189.024C48.821 188.239 49.0337 188.197 50.2414 187.598C51.2495 187.107 52.0233 186.868 53.9376 186.491C56.3414 186.035 56.4662 186.027 62.4256 186.314C65.7694 186.462 71.7494 186.693 75.7205 186.821C84.3573 187.079 84.4213 187.083 85.7097 187.534C86.285 187.73 87.1196 187.961 87.608 188.036C88.4264 188.184 88.5512 188.177 89.3531 187.761C90.3883 187.248 92.053 186.885 92.7802 187.051C93.0732 187.097 94.9609 188.186 97.006 189.433C103.732 193.607 105.15 194.238 108.046 194.355C108.842 194.388 109.94 194.515 110.496 194.612C111.748 194.88 112.082 194.814 113.501 194.002C114.123 193.639 114.847 193.307 115.121 193.253C115.82 193.115 117.158 193.659 118.278 194.539C119.731 195.662 122.053 196.235 125.946 196.448C127.736 196.559 131.186 196.927 133.588 197.262C138.365 197.953 141.836 198.266 144.412 198.205C146.081 198.186 147.269 198.605 148.439 199.577L148.824 199.931L152.117 199.179C156.703 198.103 159.568 197.745 161.012 198.027C161.639 198.162 162.177 198.33 162.197 198.43C162.213 198.512 162.378 198.549 162.53 198.519C163.077 198.411 169.106 198.89 171.251 199.206C172.484 199.376 174.837 199.462 177.511 199.416C184.31 199.314 186.422 199.138 191.073 198.393C195.505 197.657 196.814 197.571 200.575 197.758C202.453 197.835 202.827 197.812 204.661 197.348C206.526 196.877 206.803 196.84 209.479 196.965C211.643 197.054 212.8 196.998 214.579 196.734C216.077 196.49 218.321 196.34 220.806 196.297C228.98 196.13 236.694 195.709 242.514 195.129C245.889 194.791 246.641 194.763 247.158 194.987C248.614 195.646 251.521 195.021 253.368 193.66C254.385 192.893 254.564 192.84 257.205 192.629C259.661 192.437 260.51 192.579 262.166 193.456L263.507 194.171L266.87 193.457C269.504 192.886 270.425 192.756 271.224 192.805C271.77 192.852 273.358 193.381 274.773 193.996C279.769 196.123 284.7 196.956 288.316 196.243C291.051 195.704 293.476 195.518 294.625 195.738C295.217 195.862 296.323 195.868 297.062 195.774C297.893 195.662 298.85 195.714 299.641 195.884C300.365 196.034 301.201 196.11 301.565 196.038C301.9 195.972 302.806 196.085 303.607 196.306C305.508 196.825 306.145 196.854 307.877 196.512C309.883 196.117 311.406 196.315 311.539 196.994C311.676 197.689 312.566 197.72 314.941 197.114C317.886 196.362 322.157 194.97 323.781 194.237C326.128 193.173 330.055 191.797 331.574 191.498C332.547 191.306 333.577 190.931 334.846 190.32C336.571 189.465 336.811 189.4 339.228 189.01C345.935 187.963 350.919 188.269 357.037 190.158C358.75 190.679 360.764 191.451 361.537 191.849C362.703 192.479 362.94 192.724 363.09 193.485C363.296 194.527 363.522 194.552 366.328 193.895C367.236 193.699 368.003 193.582 368.019 193.665C368.035 193.748 368.133 193.763 368.211 193.679C368.292 193.611 368.233 193.468 368.088 193.377C367.913 193.291 367.767 193.027 367.752 192.79L367.731 192.364L367.6 192.82C367.476 193.153 367.364 193.227 367.153 193.114C366.867 192.947 367.323 192.376 368.265 191.709C368.485 191.545 369.652 190.902 370.887 190.281L373.066 189.164L377.077 188.373L381.088 187.583L380.787 187.178C379.053 184.787 378.212 181.481 378.734 179.161C379.234 176.896 380.225 175.515 383.039 173.138C384.389 171.978 386.308 170.345 387.309 169.495C388.879 168.171 389.329 167.894 390.437 167.589L391.754 167.227L392.965 165.2C393.66 164.084 394.193 163.102 394.149 163.042C394.136 162.976 393.758 162.5 393.307 161.97Z" fill="white"/>
<path d="M332.041 81.0252V82.8812H340.873V81.0252H332.041ZM331.177 76.4332V83.5212H333.145V78.2732H339.817V83.5212H341.881V76.4332H331.177ZM334.313 68.3852C333.625 70.1772 332.361 72.4812 331.289 73.9372L333.017 74.6252C334.105 73.2332 335.465 71.0892 336.505 69.1052L334.313 68.3852ZM338.153 71.2492C339.753 72.6252 341.577 74.5772 342.329 75.9212L344.009 74.6412C343.177 73.2652 341.257 71.4092 339.673 70.1292L338.153 71.2492ZM329.481 73.0412L329.593 74.9932C332.745 74.8652 337.545 74.6732 341.977 74.4332L342.073 72.5772C337.673 72.7692 332.713 72.9612 329.481 73.0412ZM347.017 72.3052V74.2252H351.769V72.3052H347.017ZM354.841 68.7852V80.2892C354.841 82.5612 355.385 83.2332 357.225 83.2332C357.577 83.2332 358.985 83.2332 359.369 83.2332C361.177 83.2332 361.657 82.0492 361.833 78.9772C361.305 78.8492 360.473 78.4652 360.009 78.0972C359.897 80.6892 359.785 81.3452 359.177 81.3452C358.889 81.3452 357.785 81.3452 357.513 81.3452C356.937 81.3452 356.841 81.2172 356.841 80.3212V68.7852H354.841ZM350.825 68.7692V83.3612H352.825V68.7692H350.825ZM360.137 71.1692C358.857 72.2572 356.985 73.6332 355.241 74.5292C355.513 74.9452 355.881 75.6172 356.025 76.0492C357.833 75.1372 359.865 74.0172 361.513 72.8972L360.137 71.1692ZM346.457 79.5692L347.305 81.5372C348.713 80.9612 350.457 80.2412 352.057 79.5212L351.705 77.7772C349.785 78.4652 347.753 79.1852 346.457 79.5692Z" fill="white"/>
<path d="M269.325 35.0113V36.7873H275.293V35.0113H269.325ZM260.653 31.2993V32.8673H267.853V31.2993H260.653ZM260.493 37.6673V39.2833H267.837V37.6673H260.493ZM260.445 34.8673V36.4513H267.981V34.8673H260.445ZM271.917 35.7793V44.6593H273.773V35.7793H271.917ZM263.325 29.8433V32.0033H265.197V29.8433H263.325ZM263.325 36.3553V44.7233H265.197V36.3553H263.325ZM268.461 30.9793V36.5633C268.461 38.7553 268.285 41.4913 266.429 43.4593C266.861 43.6993 267.565 44.3553 267.805 44.7713C269.981 42.5153 270.285 38.9793 270.285 36.5953V31.8913C270.573 31.8433 270.685 31.7633 270.701 31.6033L268.461 30.9793ZM273.693 29.8753C272.557 30.4833 270.669 31.0593 268.957 31.4433C269.181 31.8113 269.453 32.4833 269.549 32.8993C271.421 32.5473 273.597 32.0033 275.229 31.2673L273.693 29.8753ZM265.053 39.3473L264.029 40.1793C264.621 40.7073 265.837 41.9073 266.365 42.5473L267.469 41.1713C267.085 40.8513 265.549 39.6513 265.053 39.3473ZM261.453 33.1073C261.709 33.7153 261.917 34.5313 261.949 35.0593L263.517 34.6433C263.437 34.1153 263.213 33.3313 262.925 32.7553L261.453 33.1073ZM265.437 32.7233C265.293 33.2833 265.021 34.0993 264.797 34.6433L266.317 34.9633C266.557 34.4673 266.829 33.7793 267.133 33.0433L265.437 32.7233ZM263.341 38.6113C262.637 40.0193 261.309 41.5713 260.045 42.3873C260.445 42.6913 261.005 43.3313 261.309 43.7473C262.589 42.7073 263.917 40.8673 264.701 39.1073L263.341 38.6113ZM280.413 29.7153C279.885 32.2433 278.925 34.7713 277.661 36.3073C278.141 36.5793 279.037 37.1553 279.405 37.4753C280.669 35.7313 281.789 32.9313 282.445 30.1313L280.413 29.7153ZM280.269 32.8193L279.309 34.7233H285.309V32.8193H280.269ZM286.669 29.7153C286.157 32.2273 285.197 34.7233 283.949 36.2593C284.397 36.5153 285.245 37.1073 285.581 37.4113C286.861 35.6833 287.949 32.8993 288.605 30.0993L286.669 29.7153ZM287.149 32.8193L286.205 34.7233H292.925V32.8193H287.149ZM281.069 33.6993V44.7233H283.005V33.6993H281.069ZM288.861 33.5553V42.4193C288.861 42.6433 288.781 42.7073 288.509 42.7233C288.237 42.7393 287.293 42.7393 286.445 42.6913C286.717 43.2673 287.005 44.1313 287.069 44.7073C288.349 44.7073 289.325 44.6593 289.981 44.3393C290.653 44.0353 290.845 43.4913 290.845 42.4353V33.5553H288.861Z" fill="white"/>
<path d="M186.092 68.6856V70.5416H194.924V68.6856H186.092ZM185.228 64.0936V71.1816H187.196V65.9336H193.868V71.1816H195.932V64.0936H185.228ZM188.364 56.0456C187.676 57.8376 186.412 60.1416 185.34 61.5976L187.068 62.2856C188.156 60.8936 189.516 58.7496 190.556 56.7656L188.364 56.0456ZM192.204 58.9096C193.804 60.2856 195.628 62.2376 196.38 63.5816L198.06 62.3016C197.228 60.9256 195.308 59.0696 193.724 57.7896L192.204 58.9096ZM183.532 60.7016L183.644 62.6536C186.796 62.5256 191.596 62.3336 196.028 62.0936L196.124 60.2376C191.724 60.4296 186.764 60.6216 183.532 60.7016ZM201.58 58.9576V67.0696H203.516V60.8456H212.796V66.9896H214.812V58.9576H201.58ZM202.588 64.2856V66.1736H213.916V64.2856H202.588ZM207.132 56.1736V71.1976H209.164V56.1736H207.132Z" fill="white"/>
<path d="M114.663 47.9319V49.7879H123.495V47.9319H114.663ZM113.799 43.3399V50.4279H115.767V45.1799H122.439V50.4279H124.503V43.3399H113.799ZM116.935 35.2919C116.247 37.0839 114.983 39.3879 113.911 40.8439L115.639 41.5319C116.727 40.1399 118.087 37.9959 119.127 36.0119L116.935 35.2919ZM120.775 38.1559C122.375 39.5319 124.199 41.4839 124.951 42.8279L126.631 41.5479C125.799 40.1719 123.879 38.3159 122.295 37.0359L120.775 38.1559ZM112.103 39.9479L112.215 41.8999C115.367 41.7719 120.167 41.5799 124.599 41.3399L124.695 39.4839C120.295 39.6759 115.335 39.8679 112.103 39.9479ZM129.655 36.7479V38.5399H143.863V36.7479H129.655ZM133.159 43.6279V45.1159H140.327V43.6279H133.159ZM132.823 46.1719V47.7079H140.679V46.1719H132.823ZM135.783 44.3479V49.9799H137.607V44.3479H135.783ZM130.247 39.7399V50.4119H132.183V41.4999H141.831V39.7399H130.247ZM141.287 39.7399V48.4759C141.287 48.7159 141.207 48.7959 140.919 48.8119C140.663 48.8279 139.655 48.8279 138.871 48.7799C139.127 49.2119 139.415 49.9159 139.511 50.4119C140.807 50.4119 141.751 50.3959 142.391 50.1239C143.047 49.8519 143.271 49.4199 143.271 48.4919V39.7399H141.287ZM133.767 41.9319C134.103 42.4919 134.471 43.2439 134.615 43.7559L136.215 43.2119C136.039 42.7319 135.671 41.9959 135.303 41.4839L133.767 41.9319ZM138.279 41.5159C138.071 42.1239 137.655 43.0039 137.319 43.5959L138.679 43.9959C139.047 43.4839 139.479 42.7319 139.911 41.9639L138.279 41.5159ZM135.719 35.5159V40.9719H137.831V35.5159H135.719Z" fill="white"/>
<path d="M63.9036 85.985V87.617H77.9516V85.985H63.9036ZM69.8396 84.625V86.801H71.8236V84.625H69.8396ZM64.5436 92.449V99.697H66.4156V94.033H76.2396V92.449H64.5436ZM75.5196 92.449V97.617C75.5196 97.809 75.4556 97.873 75.2156 97.873C74.9916 97.889 74.1756 97.889 73.4556 97.857C73.7116 98.353 73.9836 99.121 74.0476 99.665C75.1996 99.665 76.0476 99.633 76.6556 99.345C77.2796 99.057 77.4556 98.545 77.4556 97.665V92.449H75.5196ZM67.8556 94.769V99.089H69.5196V94.769H67.8556ZM68.6876 94.769V96.049H72.3036V97.073H68.6876V98.353H73.9996V94.769H68.6876ZM68.3516 89.521H73.3916V90.481H68.3516V89.521ZM66.5276 88.241V91.777H75.3276V88.241H66.5276ZM81.2476 87.089V88.881H88.4476V87.089H81.2476ZM83.1036 97.361L83.6796 99.025C84.9756 98.673 86.5596 98.225 88.0636 97.761L87.8716 96.273C86.0956 96.705 84.3036 97.121 83.1036 97.361ZM86.4796 94.241C86.8796 95.745 87.2636 97.697 87.3596 98.961L88.7996 98.385C88.6876 97.089 88.2876 95.185 87.8236 93.681L86.4796 94.241ZM85.4556 90.065C85.1996 92.401 84.6076 95.633 84.0476 97.601L85.3756 97.953C85.9996 96.033 86.6876 92.929 87.1356 90.417L85.4556 90.065ZM89.5356 90.961V92.561H95.6636V90.961H89.5356ZM89.5356 94.081V95.697H95.6636V94.081H89.5356ZM89.5356 97.265V99.009H95.9836V97.265H89.5356ZM89.9196 84.641C89.2796 86.961 88.1756 89.265 86.8636 90.705C87.2316 91.057 87.9036 91.841 88.1596 92.209C89.5996 90.481 90.9116 87.761 91.7116 85.105L89.9196 84.641ZM93.1676 84.817C92.8476 85.953 92.2396 87.521 91.7276 88.497L93.2316 88.977C93.7596 88.065 94.4156 86.625 94.9756 85.313L93.1676 84.817ZM90.6396 87.729H90.3836L88.8796 89.329V99.681H90.6396V89.441H95.8396V87.729H90.6396ZM92.1436 88.561V98.225H93.9036V88.561H92.1436ZM83.1996 84.657V86.081C83.1996 89.553 83.0556 94.289 80.7356 98.321C81.2636 98.481 81.9996 98.865 82.3836 99.169C84.7836 94.849 84.9116 89.745 84.9116 86.081V84.657H83.1996Z" fill="white"/>
</g>
</svg>
