<svg width="121" height="102" viewBox="0 0 121 102" fill="none" xmlns="http://www.w3.org/2000/svg">
<path fill-rule="evenodd" clip-rule="evenodd" d="M16 0C7.16344 0 0 7.16344 0 16V74.4528C0 83.2894 7.16345 90.4528 16 90.4528H54.9661L60.4996 102L66.033 90.4528H105C113.837 90.4528 121 83.2894 121 74.4528V16C121 7.16344 113.837 0 105 0H16Z" fill="#81A8E0"/>
<path d="M22.486 50.892L22.414 50.316C22.402 50.112 22.462 49.926 22.594 49.758C22.738 49.59 22.912 49.494 23.116 49.47C23.188 49.47 23.224 49.428 23.224 49.344V37.734C23.224 37.458 23.32 37.224 23.512 37.032C23.716 36.828 23.956 36.726 24.232 36.726H29.992C30.268 36.726 30.508 36.828 30.712 37.032C30.916 37.224 31.018 37.458 31.018 37.734V44.772C31.018 45.048 30.916 45.288 30.712 45.492C30.508 45.696 30.268 45.798 29.992 45.798H26.158C26.062 45.798 26.014 45.846 26.014 45.942V48.84C26.014 48.948 26.068 48.99 26.176 48.966C26.788 48.834 27.304 48.72 27.724 48.624C27.82 48.6 27.844 48.54 27.796 48.444C27.604 48.096 27.502 47.91 27.49 47.886C27.358 47.646 27.334 47.394 27.418 47.13C27.502 46.866 27.67 46.674 27.922 46.554L28.39 46.356C28.654 46.236 28.924 46.224 29.2 46.32C29.476 46.404 29.68 46.572 29.812 46.824C30.472 48.084 31.114 49.392 31.738 50.748C31.75 50.772 31.762 50.784 31.774 50.784C31.798 50.784 31.81 50.772 31.81 50.748V37.734C31.81 37.458 31.912 37.224 32.116 37.032C32.32 36.828 32.56 36.726 32.836 36.726H38.128C38.404 36.726 38.644 36.828 38.848 37.032C39.052 37.224 39.154 37.458 39.154 37.734V47.094C39.154 47.646 39.148 48.084 39.136 48.408C39.124 48.72 39.082 49.014 39.01 49.29C38.938 49.566 38.854 49.764 38.758 49.884C38.674 50.004 38.524 50.106 38.308 50.19C38.092 50.274 37.864 50.328 37.624 50.352C37.384 50.364 37.048 50.37 36.616 50.37H36.22C35.932 50.358 35.68 50.25 35.464 50.046C35.248 49.842 35.128 49.596 35.104 49.308L35.068 48.858C35.044 48.594 35.122 48.366 35.302 48.174C35.482 47.97 35.71 47.874 35.986 47.886H36.058C36.25 47.886 36.358 47.856 36.382 47.796C36.418 47.724 36.436 47.508 36.436 47.148V39.21C36.436 39.114 36.382 39.066 36.274 39.066H34.69C34.582 39.066 34.528 39.114 34.528 39.21V51.774C34.528 52.05 34.426 52.29 34.222 52.494C34.018 52.698 33.778 52.8 33.502 52.8H32.836C32.56 52.8 32.32 52.698 32.116 52.494C31.912 52.29 31.81 52.05 31.81 51.774V51.486C31.81 51.378 31.762 51.348 31.666 51.396L30.658 51.864C30.406 51.984 30.142 51.996 29.866 51.9C29.602 51.804 29.41 51.63 29.29 51.378C29.266 51.318 29.218 51.222 29.146 51.09C29.074 50.958 29.026 50.856 29.002 50.784C28.966 50.7 28.894 50.67 28.786 50.694C27.01 51.21 25.282 51.576 23.602 51.792C23.326 51.828 23.074 51.756 22.846 51.576C22.63 51.396 22.51 51.168 22.486 50.892ZM26.014 39.138V40.146C26.014 40.254 26.062 40.308 26.158 40.308H28.282C28.39 40.308 28.444 40.254 28.444 40.146V39.138C28.444 39.03 28.39 38.976 28.282 38.976H26.158C26.062 38.976 26.014 39.03 26.014 39.138ZM26.014 42.414V43.458C26.014 43.554 26.062 43.602 26.158 43.602H28.282C28.39 43.602 28.444 43.554 28.444 43.458V42.414C28.444 42.306 28.39 42.252 28.282 42.252H26.158C26.062 42.252 26.014 42.306 26.014 42.414ZM53.536 48.624C53.728 48.84 53.806 49.086 53.77 49.362C53.746 49.638 53.626 49.866 53.41 50.046L53.068 50.334C52.852 50.514 52.6 50.592 52.312 50.568C52.036 50.544 51.802 50.43 51.61 50.226C51.238 49.794 50.848 49.368 50.44 48.948C50.248 48.744 50.164 48.51 50.188 48.246C50.212 47.97 50.326 47.742 50.53 47.562L50.872 47.274C51.088 47.082 51.34 46.992 51.628 47.004C51.928 47.016 52.174 47.124 52.366 47.328C52.642 47.628 53.032 48.06 53.536 48.624ZM44.734 52.206C44.458 52.206 44.218 52.104 44.014 51.9C43.81 51.696 43.708 51.456 43.708 51.18V37.914C43.708 37.638 43.81 37.404 44.014 37.212C44.218 37.008 44.458 36.906 44.734 36.906H48.73C49.006 36.906 49.246 37.008 49.45 37.212C49.654 37.404 49.756 37.638 49.756 37.914V41.712C49.768 41.724 49.786 41.724 49.81 41.712C49.99 41.328 50.296 41.136 50.728 41.136H53.302C53.41 41.136 53.464 41.088 53.464 40.992V39.984C53.464 39.876 53.41 39.822 53.302 39.822H51.34C51.064 39.822 50.824 39.72 50.62 39.516C50.416 39.312 50.314 39.072 50.314 38.796V38.634C50.314 38.358 50.416 38.124 50.62 37.932C50.824 37.728 51.064 37.626 51.34 37.626H53.302C53.41 37.626 53.464 37.572 53.464 37.464V36.96C53.464 36.684 53.56 36.444 53.752 36.24C53.956 36.036 54.196 35.934 54.472 35.934H55.246C55.522 35.934 55.756 36.036 55.948 36.24C56.152 36.444 56.254 36.684 56.254 36.96V37.464C56.254 37.572 56.308 37.626 56.416 37.626H58.486C58.762 37.626 59.002 37.728 59.206 37.932C59.41 38.124 59.512 38.358 59.512 38.634V38.796C59.512 39.072 59.41 39.312 59.206 39.516C59.002 39.72 58.762 39.822 58.486 39.822H56.416C56.308 39.822 56.254 39.876 56.254 39.984V40.992C56.254 41.088 56.308 41.136 56.416 41.136H59.062C59.338 41.136 59.578 41.238 59.782 41.442C59.986 41.646 60.088 41.886 60.088 42.162V42.396C60.088 42.672 59.986 42.912 59.782 43.116C59.578 43.32 59.338 43.422 59.062 43.422H58.702C58.606 43.422 58.558 43.476 58.558 43.584V44.43C58.558 44.526 58.606 44.574 58.702 44.574H59.062C59.338 44.574 59.578 44.676 59.782 44.88C59.986 45.084 60.088 45.324 60.088 45.6V45.834C60.088 46.11 59.986 46.35 59.782 46.554C59.578 46.758 59.338 46.86 59.062 46.86H58.702C58.606 46.86 58.558 46.914 58.558 47.022V49.398C58.558 49.962 58.546 50.4 58.522 50.712C58.51 51.024 58.456 51.318 58.36 51.594C58.276 51.882 58.174 52.086 58.054 52.206C57.934 52.326 57.736 52.428 57.46 52.512C57.184 52.596 56.89 52.644 56.578 52.656C56.278 52.68 55.852 52.692 55.3 52.692C55.192 52.692 54.802 52.68 54.13 52.656C53.842 52.632 53.59 52.518 53.374 52.314C53.17 52.122 53.062 51.882 53.05 51.594L53.032 51.342C53.008 51.066 53.092 50.832 53.284 50.64C53.476 50.448 53.71 50.364 53.986 50.388C54.466 50.412 54.73 50.424 54.778 50.424C55.258 50.424 55.54 50.394 55.624 50.334C55.708 50.262 55.75 50.034 55.75 49.65V47.022C55.75 46.914 55.696 46.86 55.588 46.86H50.728C50.296 46.86 49.99 46.668 49.81 46.284C49.786 46.272 49.768 46.272 49.756 46.284V50.226C49.756 50.502 49.654 50.742 49.45 50.946C49.246 51.138 49.006 51.234 48.73 51.234H46.354C46.27 51.234 46.228 51.276 46.228 51.36C46.228 51.6 46.144 51.798 45.976 51.954C45.808 52.122 45.61 52.206 45.382 52.206H44.734ZM50.728 43.422C50.296 43.422 49.99 43.23 49.81 42.846C49.798 42.834 49.786 42.828 49.774 42.828C49.762 42.828 49.756 42.84 49.756 42.864V45.15C49.768 45.162 49.786 45.162 49.81 45.15C49.99 44.766 50.296 44.574 50.728 44.574H55.588C55.696 44.574 55.75 44.526 55.75 44.43V43.584C55.75 43.476 55.696 43.422 55.588 43.422H50.728ZM46.228 39.462V42.666C46.228 42.774 46.276 42.828 46.372 42.828H47.218C47.314 42.828 47.362 42.774 47.362 42.666V39.462C47.362 39.366 47.314 39.318 47.218 39.318H46.372C46.276 39.318 46.228 39.366 46.228 39.462ZM46.228 45.312V48.75C46.228 48.846 46.276 48.894 46.372 48.894H47.218C47.314 48.894 47.362 48.846 47.362 48.75V45.312C47.362 45.216 47.314 45.168 47.218 45.168H46.372C46.276 45.168 46.228 45.216 46.228 45.312ZM69.214 47.04H75.316V47.958H69.214V47.04ZM69.214 44.772H75.316V45.672H69.214V44.772ZM67.09 43.35V49.38H77.566V43.35H67.09ZM64.336 37.734V39.588H80.464V37.734H64.336ZM71.248 35.718V42.846H73.39V35.718H71.248ZM70.258 38.31C68.962 40.218 66.424 41.982 63.814 42.81C64.264 43.224 64.894 44.016 65.2 44.538C67.954 43.458 70.51 41.406 72.058 38.994L70.258 38.31ZM74.29 38.292L72.544 38.958C74.128 41.352 76.738 43.386 79.51 44.412C79.816 43.872 80.446 43.044 80.914 42.648C78.232 41.856 75.604 40.164 74.29 38.292ZM64.498 50.208V52.116H80.32V50.208H64.498ZM89.536 36.78C89.812 36.78 90.046 36.882 90.238 37.086C90.442 37.29 90.544 37.53 90.544 37.806C90.544 38.094 90.448 38.34 90.256 38.544C90.064 38.736 89.824 38.832 89.536 38.832H86.062C85.774 38.832 85.534 38.736 85.342 38.544C85.15 38.34 85.054 38.094 85.054 37.806C85.054 37.53 85.15 37.29 85.342 37.086C85.546 36.882 85.786 36.78 86.062 36.78H89.536ZM85.756 41.622C85.48 41.622 85.24 41.52 85.036 41.316C84.832 41.112 84.73 40.872 84.73 40.596V40.398C84.73 40.122 84.832 39.882 85.036 39.678C85.24 39.474 85.48 39.372 85.756 39.372H89.752C90.004 39.372 90.22 39.45 90.4 39.606C90.592 39.762 90.712 39.96 90.76 40.2C90.76 40.224 90.772 40.242 90.796 40.254C90.82 40.254 90.838 40.242 90.85 40.218C91.39 39.234 91.84 38.136 92.2 36.924C92.284 36.648 92.446 36.426 92.686 36.258C92.926 36.09 93.19 36.024 93.478 36.06L94.162 36.132C94.438 36.168 94.654 36.3 94.81 36.528C94.966 36.744 95.008 36.984 94.936 37.248C94.924 37.296 94.906 37.362 94.882 37.446C94.858 37.53 94.84 37.596 94.828 37.644C94.804 37.74 94.84 37.788 94.936 37.788H100.606C100.882 37.788 101.116 37.89 101.308 38.094C101.512 38.298 101.614 38.538 101.614 38.814C101.578 42.27 101.53 44.874 101.47 46.626C101.41 48.378 101.278 49.734 101.074 50.694C100.882 51.654 100.672 52.218 100.444 52.386C100.216 52.566 99.844 52.656 99.328 52.656C98.932 52.656 98.038 52.632 96.646 52.584C96.358 52.572 96.106 52.464 95.89 52.26C95.674 52.056 95.56 51.81 95.548 51.522L95.53 51.144C95.518 50.88 95.602 50.652 95.782 50.46C95.974 50.268 96.208 50.178 96.484 50.19C97.036 50.226 97.498 50.244 97.87 50.244C98.062 50.244 98.2 50.178 98.284 50.046C98.368 49.902 98.452 49.5 98.536 48.84C98.632 48.18 98.704 47.202 98.752 45.906C98.8 44.61 98.848 42.762 98.896 40.362C98.896 40.254 98.848 40.2 98.752 40.2H94.072C93.964 40.2 93.892 40.242 93.856 40.326C93.82 40.386 93.76 40.512 93.676 40.704C93.604 40.884 93.544 41.022 93.496 41.118C93.448 41.214 93.478 41.262 93.586 41.262H94.054H96.898C97.174 41.262 97.408 41.364 97.6 41.568C97.804 41.772 97.906 42.012 97.906 42.288V48.174C97.906 48.45 97.804 48.69 97.6 48.894C97.408 49.098 97.174 49.2 96.898 49.2H94.306C94.198 49.2 94.144 49.254 94.144 49.362V49.434C94.144 49.71 94.042 49.95 93.838 50.154C93.646 50.358 93.412 50.46 93.136 50.46H92.596C92.32 50.46 92.08 50.358 91.876 50.154C91.684 49.95 91.588 49.71 91.588 49.434V42.54C91.588 42.432 91.546 42.348 91.462 42.288L90.958 41.946C90.778 41.826 90.646 41.646 90.562 41.406C90.538 41.334 90.49 41.322 90.418 41.37C90.226 41.538 90.004 41.622 89.752 41.622H85.756ZM94.054 43.44V44.088C94.054 44.196 94.108 44.25 94.216 44.25H95.422C95.53 44.25 95.584 44.196 95.584 44.088V43.44C95.584 43.344 95.53 43.296 95.422 43.296H94.216C94.108 43.296 94.054 43.344 94.054 43.44ZM94.054 46.356V47.022C94.054 47.13 94.108 47.184 94.216 47.184H95.422C95.53 47.184 95.584 47.13 95.584 47.022V46.356C95.584 46.248 95.53 46.194 95.422 46.194H94.216C94.108 46.194 94.054 46.248 94.054 46.356ZM86.206 44.16C85.93 44.16 85.696 44.064 85.504 43.872C85.312 43.68 85.216 43.446 85.216 43.17C85.216 42.894 85.312 42.66 85.504 42.468C85.696 42.276 85.93 42.18 86.206 42.18H89.536C89.812 42.18 90.046 42.282 90.238 42.486C90.442 42.678 90.544 42.906 90.544 43.17C90.544 43.434 90.442 43.668 90.238 43.872C90.046 44.064 89.812 44.16 89.536 44.16H86.206ZM86.206 46.698C85.93 46.698 85.696 46.602 85.504 46.41C85.312 46.206 85.216 45.972 85.216 45.708C85.216 45.444 85.312 45.216 85.504 45.024C85.696 44.82 85.93 44.718 86.206 44.718H89.536C89.812 44.718 90.046 44.82 90.238 45.024C90.442 45.216 90.544 45.444 90.544 45.708C90.544 45.972 90.442 46.206 90.238 46.41C90.046 46.602 89.812 46.698 89.536 46.698H86.206ZM90.634 48.264V51.216C90.634 51.492 90.532 51.726 90.328 51.918C90.124 52.122 89.884 52.224 89.608 52.224H87.376C87.316 52.224 87.286 52.254 87.286 52.314C87.286 52.458 87.238 52.578 87.142 52.674C87.046 52.782 86.926 52.836 86.782 52.836H86.062C85.786 52.836 85.546 52.734 85.342 52.53C85.15 52.326 85.054 52.086 85.054 51.81V48.264C85.054 47.988 85.15 47.754 85.342 47.562C85.546 47.358 85.786 47.256 86.062 47.256H89.608C89.884 47.256 90.124 47.358 90.328 47.562C90.532 47.754 90.634 47.988 90.634 48.264ZM88.636 50.154V49.326C88.636 49.218 88.588 49.164 88.492 49.164H87.448C87.34 49.164 87.286 49.218 87.286 49.326V50.154C87.286 50.262 87.34 50.316 87.448 50.316H88.492C88.588 50.316 88.636 50.262 88.636 50.154Z" fill="white"/>
</svg>
