<svg width="121" height="102" viewBox="0 0 121 102" fill="none" xmlns="http://www.w3.org/2000/svg">
<path fill-rule="evenodd" clip-rule="evenodd" d="M16 0C7.16344 0 0 7.16344 0 16V74.4528C0 83.2894 7.16345 90.4528 16 90.4528H54.9661L60.4996 102L66.033 90.4528H105C113.837 90.4528 121 83.2894 121 74.4528V16C121 7.16344 113.837 0 105 0H16Z" fill="#81A8E0"/>
<path d="M34.696 40.2C32.692 40.2 31.69 41.61 31.69 44.43C31.69 47.25 32.692 48.66 34.696 48.66C36.712 48.66 37.72 47.25 37.72 44.43C37.72 41.61 36.712 40.2 34.696 40.2ZM34.696 51.18C32.8 51.18 31.3 50.586 30.196 49.398C29.104 48.198 28.558 46.542 28.558 44.43C28.558 42.318 29.104 40.668 30.196 39.48C31.3 38.28 32.8 37.68 34.696 37.68C36.592 37.68 38.092 38.28 39.196 39.48C40.3 40.668 40.852 42.318 40.852 44.43C40.852 45.666 40.63 46.764 40.186 47.724C39.742 48.672 39.118 49.434 38.314 50.01C38.302 50.01 38.296 50.022 38.296 50.046C38.296 50.058 38.308 50.064 38.332 50.064C39.652 50.664 40.78 51.594 41.716 52.854C41.848 53.034 41.86 53.22 41.752 53.412C41.644 53.604 41.476 53.7 41.248 53.7H39.988C39.328 53.7 38.812 53.412 38.44 52.836C37.972 52.14 37.498 51.69 37.018 51.486C36.55 51.282 35.776 51.18 34.696 51.18ZM49.9668 40.524L48.6528 45.69C48.6408 45.726 48.6468 45.762 48.6707 45.798C48.7068 45.822 48.7428 45.834 48.7788 45.834H51.1908C51.2267 45.834 51.2567 45.822 51.2807 45.798C51.3168 45.762 51.3288 45.726 51.3168 45.69L50.0028 40.524C50.0028 40.512 49.9968 40.506 49.9848 40.506C49.9728 40.506 49.9668 40.512 49.9668 40.524ZM45.1607 51C44.9087 51 44.7047 50.898 44.5487 50.694C44.4047 50.49 44.3747 50.268 44.4587 50.028L48.0947 38.832C48.1907 38.544 48.3588 38.31 48.5988 38.13C48.8508 37.95 49.1268 37.86 49.4268 37.86H50.6147C50.9268 37.86 51.2088 37.95 51.4608 38.13C51.7128 38.31 51.8808 38.544 51.9648 38.832L55.5827 50.028C55.6668 50.268 55.6308 50.49 55.4748 50.694C55.3308 50.898 55.1328 51 54.8808 51H53.6748C53.3748 51 53.1048 50.91 52.8647 50.73C52.6248 50.538 52.4688 50.298 52.3968 50.01L51.9648 48.3C51.9528 48.204 51.8927 48.156 51.7847 48.156H48.1848C48.0888 48.156 48.0288 48.204 48.0048 48.3L47.5727 50.01C47.5008 50.298 47.3447 50.538 47.1047 50.73C46.8647 50.91 46.5947 51 46.2947 51H45.1607ZM59.7779 51.72C59.5379 51.54 59.3759 51.306 59.2919 51.018C59.2079 50.742 59.2079 50.454 59.2919 50.154C59.6999 48.75 59.9039 46.38 59.9039 43.044V37.644C59.9039 37.368 59.9999 37.128 60.1919 36.924C60.3959 36.72 60.6359 36.618 60.9119 36.618H65.1239C65.3999 36.618 65.6339 36.72 65.8259 36.924C66.0299 37.128 66.1319 37.368 66.1319 37.644V49.416C66.1319 50.46 66.0959 51.198 66.0239 51.63C65.9519 52.074 65.8319 52.356 65.6639 52.476C65.5079 52.608 65.2199 52.674 64.7999 52.674C64.2479 52.674 63.7439 52.662 63.2879 52.638C62.9999 52.626 62.7539 52.518 62.5499 52.314C62.3459 52.11 62.2319 51.864 62.2079 51.576L62.1719 51.198C62.1599 50.922 62.2499 50.688 62.4419 50.496C62.6339 50.304 62.8619 50.22 63.1259 50.244C63.1859 50.244 63.2459 50.25 63.3059 50.262C63.3659 50.262 63.4019 50.262 63.4139 50.262C63.5819 50.262 63.6779 50.232 63.7019 50.172C63.7379 50.112 63.7559 49.896 63.7559 49.524V47.436C63.7559 47.328 63.7019 47.274 63.5939 47.274H62.4779C62.3699 47.274 62.3159 47.328 62.3159 47.436C62.1959 49.092 61.9319 50.556 61.5239 51.828C61.4399 52.068 61.2779 52.224 61.0379 52.296C60.7979 52.368 60.5759 52.326 60.3719 52.17L59.7779 51.72ZM62.4239 39.102V40.758C62.4239 40.854 62.4719 40.902 62.5679 40.902H63.5939C63.7019 40.902 63.7559 40.854 63.7559 40.758V39.102C63.7559 39.006 63.7019 38.958 63.5939 38.958H62.5679C62.4719 38.958 62.4239 39.006 62.4239 39.102ZM62.4239 44.322C62.4239 44.406 62.4179 44.52 62.4059 44.664C62.4059 44.808 62.4059 44.916 62.4059 44.988C62.4059 45.084 62.4599 45.132 62.5679 45.132H63.5939C63.7019 45.132 63.7559 45.084 63.7559 44.988V43.206C63.7559 43.098 63.7019 43.044 63.5939 43.044H62.5679C62.4719 43.044 62.4239 43.098 62.4239 43.206V44.322ZM67.8239 52.656C67.5479 52.656 67.3079 52.554 67.1039 52.35C66.8999 52.146 66.7979 51.906 66.7979 51.63V37.644C66.7979 37.368 66.8999 37.128 67.1039 36.924C67.3079 36.72 67.5479 36.618 67.8239 36.618H74.7719C75.0479 36.618 75.2819 36.72 75.4739 36.924C75.6659 37.128 75.7559 37.368 75.7439 37.644C75.6839 38.88 75.5999 39.756 75.4919 40.272C75.3959 40.788 75.2579 41.118 75.0779 41.262C74.9099 41.394 74.6159 41.46 74.1959 41.46C73.6919 41.46 72.8099 41.442 71.5499 41.406C71.2859 41.394 71.0579 41.298 70.8659 41.118C70.6859 40.926 70.5899 40.698 70.5779 40.434C70.5659 40.182 70.6499 39.966 70.8299 39.786C71.0219 39.606 71.2439 39.522 71.4959 39.534C71.6999 39.546 71.9459 39.558 72.2339 39.57C72.5339 39.582 72.7199 39.588 72.7919 39.588C72.9119 39.588 72.9899 39.558 73.0259 39.498C73.0619 39.426 73.0919 39.24 73.1159 38.94C73.1159 38.844 73.0679 38.796 72.9719 38.796H69.6599C69.5639 38.796 69.5159 38.85 69.5159 38.958V41.73C69.5159 41.826 69.5639 41.874 69.6599 41.874H74.7359C75.0119 41.874 75.2519 41.976 75.4559 42.18C75.6599 42.384 75.7619 42.624 75.7619 42.9V44.106C75.4979 45.762 74.9819 47.28 74.2139 48.66C74.1659 48.756 74.1779 48.834 74.2499 48.894C74.6339 49.254 74.9939 49.548 75.3299 49.776C75.5819 49.944 75.7619 50.166 75.8699 50.442C75.9899 50.706 76.0019 50.97 75.9059 51.234L75.7079 51.756C75.6119 52.02 75.4379 52.206 75.1859 52.314C74.9459 52.422 74.7059 52.41 74.4659 52.278C73.7939 51.894 73.1999 51.474 72.6839 51.018C72.5999 50.946 72.5219 50.946 72.4499 51.018C72.1379 51.342 71.7539 51.684 71.2979 52.044C71.0819 52.212 70.8419 52.26 70.5779 52.188C70.3139 52.128 70.1219 51.978 70.0019 51.738L69.5879 50.856C69.5759 50.844 69.5579 50.838 69.5339 50.838C69.5219 50.838 69.5159 50.85 69.5159 50.874V51.63C69.5159 51.906 69.4139 52.146 69.2099 52.35C69.0059 52.554 68.7659 52.656 68.4899 52.656H67.8239ZM69.5159 44.25V45.24C69.5159 45.276 69.5279 45.306 69.5519 45.33C69.5879 45.342 69.6179 45.342 69.6419 45.33L70.6319 44.754C70.8599 44.634 71.0879 44.622 71.3159 44.718C71.5559 44.814 71.7239 44.982 71.8199 45.222C71.9879 45.654 72.1799 46.074 72.3959 46.482C72.4079 46.506 72.4319 46.518 72.4679 46.518C72.5039 46.518 72.5279 46.506 72.5399 46.482C72.8159 45.834 73.0379 45.09 73.2059 44.25C73.2299 44.154 73.1879 44.106 73.0799 44.106H69.6599C69.5639 44.106 69.5159 44.154 69.5159 44.25ZM69.5159 46.392V49.884C69.5159 49.98 69.5639 49.998 69.6599 49.938C70.0559 49.686 70.4339 49.386 70.7939 49.038C70.8659 48.966 70.8719 48.888 70.8119 48.804C70.3199 48.06 69.9059 47.25 69.5699 46.374C69.5579 46.362 69.5459 46.356 69.5339 46.356C69.5219 46.356 69.5159 46.368 69.5159 46.392ZM80.6399 47.238C81.2639 46.494 81.8159 45.69 82.2959 44.826C82.3199 44.802 82.3199 44.772 82.2959 44.736C82.2839 44.7 82.2599 44.682 82.2239 44.682H81.2699C80.9939 44.682 80.7539 44.586 80.5499 44.394C80.3459 44.19 80.2439 43.95 80.2439 43.674V43.296C80.2439 43.02 80.3459 42.78 80.5499 42.576C80.7539 42.372 80.9939 42.27 81.2699 42.27H82.4939C82.5179 42.27 82.5359 42.258 82.5479 42.234C82.5599 42.198 82.5599 42.174 82.5479 42.162C82.2239 41.802 81.8999 41.46 81.5759 41.136C81.3839 40.932 81.2879 40.692 81.2879 40.416C81.2879 40.14 81.3899 39.9 81.5939 39.696L82.2059 39.102C82.2299 39.09 82.2359 39.072 82.2239 39.048C82.2119 39.012 82.1939 38.994 82.1699 38.994H81.6299C81.3539 38.994 81.1139 38.892 80.9099 38.688C80.7059 38.484 80.6039 38.244 80.6039 37.968V37.734C80.6039 37.458 80.7059 37.224 80.9099 37.032C81.1139 36.828 81.3539 36.726 81.6299 36.726H86.9579C87.2339 36.726 87.4679 36.828 87.6599 37.032C87.8639 37.224 87.9659 37.458 87.9659 37.734V37.968C87.9659 38.28 87.9179 38.61 87.8219 38.958C87.8219 38.97 87.8279 38.976 87.8399 38.976C87.8519 38.976 87.8579 38.97 87.8579 38.958C88.2179 38.298 88.5299 37.62 88.7939 36.924C88.9019 36.648 89.0759 36.432 89.3159 36.276C89.5679 36.108 89.8439 36.036 90.1439 36.06L90.7019 36.132C90.9299 36.156 91.1039 36.264 91.2239 36.456C91.3559 36.636 91.3919 36.834 91.3319 37.05C91.3079 37.134 91.3379 37.176 91.4219 37.176H95.9039C96.1799 37.176 96.4199 37.278 96.6239 37.482C96.8279 37.674 96.9299 37.908 96.9299 38.184V38.85C96.9299 38.994 96.8759 39.12 96.7679 39.228C96.6599 39.324 96.5339 39.372 96.3899 39.372C96.3539 39.372 96.3239 39.396 96.2999 39.444C95.9159 40.548 95.4419 41.442 94.8779 42.126C94.8539 42.15 94.8419 42.18 94.8419 42.216C94.8539 42.252 94.8779 42.276 94.9139 42.288C95.2859 42.42 95.7119 42.552 96.1919 42.684C96.4559 42.756 96.6539 42.912 96.7859 43.152C96.9179 43.392 96.9419 43.644 96.8579 43.908L96.6959 44.376C96.6119 44.652 96.4379 44.862 96.1739 45.006C95.9219 45.138 95.6579 45.168 95.3819 45.096C94.3019 44.796 93.3959 44.46 92.6639 44.088C92.5679 44.028 92.4719 44.028 92.3759 44.088C92.0639 44.256 91.7099 44.418 91.3139 44.574C91.3139 44.586 91.3199 44.604 91.3319 44.628H92.1419C92.4179 44.628 92.6459 44.73 92.8259 44.934C93.0179 45.126 93.0959 45.354 93.0599 45.618C93.0359 45.714 93.0779 45.762 93.1859 45.762H95.4899C95.7659 45.762 95.9999 45.864 96.1919 46.068C96.3959 46.272 96.4979 46.512 96.4979 46.788C96.4859 47.724 96.4619 48.498 96.4259 49.11C96.4019 49.71 96.3479 50.238 96.2639 50.694C96.1799 51.138 96.0839 51.474 95.9759 51.702C95.8679 51.942 95.7059 52.134 95.4899 52.278C95.2739 52.422 95.0519 52.506 94.8239 52.53C94.6079 52.566 94.3019 52.584 93.9059 52.584C93.6659 52.584 93.1859 52.566 92.4659 52.53C92.1779 52.518 91.9319 52.404 91.7279 52.188C91.5359 51.984 91.4279 51.738 91.4039 51.45L91.3859 51.216C91.3619 50.94 91.4459 50.712 91.6379 50.532C91.8299 50.34 92.0579 50.25 92.3219 50.262C92.7539 50.286 92.9819 50.298 93.0059 50.298C93.3179 50.298 93.5099 50.19 93.5819 49.974C93.6659 49.746 93.7079 49.152 93.7079 48.192C93.7079 48.096 93.6599 48.048 93.5639 48.048H92.5919C92.4839 48.048 92.4119 48.096 92.3759 48.192C91.5119 50.244 90.0779 51.684 88.0739 52.512C87.7979 52.62 87.5099 52.626 87.2099 52.53C86.9219 52.434 86.6939 52.26 86.5259 52.008L86.2919 51.648C86.1479 51.432 86.1119 51.204 86.1839 50.964C86.2559 50.712 86.4119 50.538 86.6519 50.442C88.0679 49.842 89.0219 49.092 89.5139 48.192C89.5619 48.096 89.5379 48.048 89.4419 48.048H88.8479C88.5719 48.048 88.3319 47.946 88.1279 47.742C87.9239 47.538 87.8219 47.298 87.8219 47.022V46.788C87.8219 46.512 87.9239 46.272 88.1279 46.068C88.3319 45.864 88.5719 45.762 88.8479 45.762H90.0359C90.1439 45.762 90.1979 45.708 90.1979 45.6L90.2519 45.114C90.2519 45.006 90.2039 44.964 90.1079 44.988C90.0839 44.988 90.0419 45 89.9819 45.024C89.9339 45.048 89.8919 45.066 89.8559 45.078C89.5919 45.162 89.3339 45.138 89.0819 45.006C88.8419 44.862 88.6739 44.652 88.5779 44.376L88.4699 44.052C88.3859 43.788 88.4099 43.536 88.5419 43.296C88.6739 43.056 88.8719 42.894 89.1359 42.81C89.6399 42.654 89.9939 42.534 90.1979 42.45C90.2339 42.438 90.2579 42.414 90.2699 42.378C90.2819 42.33 90.2759 42.294 90.2519 42.27C90.0239 42.006 89.7659 41.682 89.4779 41.298C89.4539 41.274 89.4239 41.262 89.3879 41.262C89.3519 41.262 89.3219 41.274 89.2979 41.298C89.2859 41.31 89.2679 41.334 89.2439 41.37C89.2319 41.394 89.2199 41.412 89.2079 41.424C89.0519 41.652 88.8239 41.79 88.5239 41.838C88.2359 41.874 87.9779 41.808 87.7499 41.64L87.4619 41.442C87.1379 41.202 87.0059 40.866 87.0659 40.434C87.0659 40.422 87.0599 40.41 87.0479 40.398C87.0359 40.386 87.0239 40.386 87.0119 40.398C86.7119 40.83 86.2499 41.424 85.6259 42.18C85.6139 42.192 85.6199 42.21 85.6439 42.234C85.6679 42.258 85.6859 42.27 85.6979 42.27H87.3899C87.6659 42.27 87.8999 42.372 88.0919 42.576C88.2959 42.78 88.3979 43.02 88.3979 43.296V43.656C88.3979 44.4 88.2899 45.06 88.0739 45.636C87.8579 46.212 87.6059 46.812 87.3179 47.436C87.1979 47.7 86.9999 47.874 86.7239 47.958C86.4599 48.042 86.2019 48.018 85.9499 47.886L85.4999 47.67C85.4159 47.634 85.3739 47.664 85.3739 47.76V49.38C85.3739 50.028 85.3559 50.538 85.3199 50.91C85.2959 51.27 85.2479 51.582 85.1759 51.846C85.1159 52.11 85.0019 52.296 84.8339 52.404C84.6659 52.512 84.4799 52.584 84.2759 52.62C84.0839 52.656 83.7959 52.674 83.4119 52.674C83.0279 52.674 82.6919 52.668 82.4039 52.656C82.1159 52.644 81.8699 52.53 81.6659 52.314C81.4619 52.11 81.3479 51.864 81.3239 51.576L81.2339 50.496C81.2339 50.484 81.2279 50.478 81.2159 50.478C81.2039 50.478 81.1919 50.484 81.1799 50.496C81.1199 50.568 81.0419 50.598 80.9459 50.586C80.8499 50.562 80.7899 50.502 80.7659 50.406L80.2799 48.966C80.0759 48.354 80.1959 47.778 80.6399 47.238ZM91.2599 39.372C91.2239 39.372 91.1939 39.39 91.1699 39.426C91.1579 39.45 91.1639 39.474 91.1879 39.498C91.5239 40.086 91.9439 40.584 92.4479 40.992C92.5199 41.052 92.5919 41.046 92.6639 40.974C93.0839 40.554 93.4079 40.074 93.6359 39.534C93.6479 39.498 93.6419 39.462 93.6179 39.426C93.6059 39.39 93.5819 39.372 93.5459 39.372H91.2599ZM85.3739 44.844V46.212C85.3739 46.236 85.3799 46.248 85.3919 46.248C85.4159 46.248 85.4339 46.236 85.4459 46.212C85.6499 45.792 85.8419 45.336 86.0219 44.844C86.0459 44.736 86.0159 44.682 85.9319 44.682H85.5179C85.4219 44.682 85.3739 44.736 85.3739 44.844ZM82.7279 38.976C82.7039 38.976 82.6859 38.994 82.6739 39.03C82.6619 39.066 82.6679 39.09 82.6919 39.102C82.9439 39.354 83.3339 39.756 83.8619 40.308C83.9459 40.392 84.0179 40.392 84.0779 40.308C84.2579 40.08 84.5639 39.678 84.9959 39.102C85.0559 39.018 85.0379 38.976 84.9419 38.976H82.7279ZM82.8179 48.12C82.3739 48.888 81.9239 49.56 81.4679 50.136C81.4079 50.232 81.4259 50.28 81.5219 50.28C81.9899 50.316 82.3259 50.334 82.5299 50.334C82.7219 50.334 82.8299 50.304 82.8539 50.244C82.8899 50.172 82.9079 49.95 82.9079 49.578V48.138C82.9079 48.114 82.8959 48.102 82.8719 48.102C82.8479 48.102 82.8299 48.108 82.8179 48.12Z" fill="white"/>
</svg>
