<svg width="93" height="22" viewBox="0 0 93 22" fill="none" xmlns="http://www.w3.org/2000/svg">
<path d="M5.64163 21.9164C5.03851 22.2068 4.35413 21.6979 4.47601 21.0482L5.77288 14.1111L0.268208 9.18909C-0.245853 8.72858 0.0213334 7.88674 0.710394 7.79581L8.3635 6.77504L11.776 0.428986C12.0838 -0.142995 12.9166 -0.142995 13.2244 0.428986L16.6369 6.77504L24.29 7.79581C24.9791 7.88674 25.2463 8.72858 24.7306 9.18909L19.2275 14.1111L20.5244 21.0482C20.6463 21.6979 19.9619 22.2068 19.3588 21.9164L12.4979 18.6077L5.64007 21.9164H5.64163Z" fill="#FFF500"/>
<path d="M39.6416 21.9164C39.0385 22.2068 38.3541 21.6979 38.476 21.0482L39.7729 14.1111L34.2682 9.18909C33.7541 8.72858 34.0213 7.88674 34.7104 7.79581L42.3635 6.77504L45.776 0.428986C46.0838 -0.142995 46.9166 -0.142995 47.2244 0.428986L50.6369 6.77504L58.29 7.79581C58.9791 7.88674 59.2463 8.72858 58.7306 9.18909L53.2275 14.1111L54.5244 21.0482C54.6463 21.6979 53.9619 22.2068 53.3588 21.9164L46.4979 18.6077L39.6401 21.9164H39.6416Z" fill="#FFF500"/>
<path d="M73.6416 21.9164C73.0385 22.2068 72.3541 21.6979 72.476 21.0482L73.7729 14.1111L68.2682 9.18909C67.7541 8.72858 68.0213 7.88674 68.7104 7.79581L76.3635 6.77504L79.776 0.428986C80.0838 -0.142995 80.9166 -0.142995 81.2244 0.428986L84.6369 6.77504L92.29 7.79581C92.9791 7.88674 93.2463 8.72858 92.7306 9.18909L87.2275 14.1111L88.5244 21.0482C88.6463 21.6979 87.9619 22.2068 87.3588 21.9164L80.4979 18.6077L73.6401 21.9164H73.6416Z" fill="#FFF500"/>
</svg>
