<svg width="56" height="59" viewBox="0 0 56 59" fill="none" xmlns="http://www.w3.org/2000/svg">
<path fill-rule="evenodd" clip-rule="evenodd" d="M21.9083 21.9921C18.8973 22.5761 15.9167 24.6086 14.597 26.3075C14.104 24.8817 13.0119 23.4255 13.0877 22.1817C13.9144 20.6648 18.2602 18.4199 19.0111 18.5715C19.6557 18.9887 19.9212 19.1631 20.6948 19.7471C22.2344 19.0949 25.4653 17.3277 25.9507 18.2378C26.5195 19.3148 23.7133 20.7634 21.9159 21.9845L21.9083 21.9921Z" fill="white"/>
<path fill-rule="evenodd" clip-rule="evenodd" d="M35.9014 18.3972C35.5374 18.0407 34.0205 16.2736 32.8601 17.9573C31.3584 20.134 36.182 22.1135 36.986 21.2186C37.7141 20.407 36.5233 18.9964 35.909 18.3896L35.9014 18.3972Z" fill="white"/>
<path fill-rule="evenodd" clip-rule="evenodd" d="M39.383 21.173C38.0709 21.2944 37.6159 22.3941 38.2378 22.9705C38.7839 23.4787 40.3614 23.3801 40.733 22.6747C41.2336 21.7419 40.2021 21.0972 39.383 21.173Z" fill="white"/>
<path fill-rule="evenodd" clip-rule="evenodd" d="M45.1162 20.445C45.8595 19.8458 46.8227 18.1925 45.7078 17.2444C44.153 15.9248 40.869 19.7017 41.7715 20.9228C42.3934 21.7647 44.0089 21.3324 45.1162 20.445Z" fill="white"/>
<path fill-rule="evenodd" clip-rule="evenodd" d="M41.7639 23.9641C43.0988 23.8655 43.0912 25.17 45.7078 29.9557C47.8617 33.8919 53.0949 42.2119 53.7699 43.7515C55.7949 48.3704 53.6258 51.7606 53.0039 52.7162C48.8477 59.087 38.9426 59.7544 33.7625 56.9027C31.1686 55.4769 27.1565 51.3055 27.9832 47.119C29.2043 40.9226 35.522 29.7357 36.015 29.5992C37.7594 29.1063 36.781 32.9136 38.9046 32.724C40.5049 32.5799 41.3316 28.7498 40.8386 26.7855C40.1485 24.0172 39.9589 24.1082 41.7791 23.9717L41.7639 23.9641ZM50.7058 50.0996C49.6592 51.9502 48.1727 52.921 45.7836 53.8083C45.3134 53.9828 45.0707 54.5061 45.2451 54.9763C45.4196 55.4465 45.9429 55.6892 46.4131 55.5148C49.2875 54.4454 51.0319 53.2168 52.2833 50.9946C52.5336 50.5547 52.3744 50.001 51.9421 49.7583C51.5022 49.508 50.9485 49.6673 50.6982 50.1072L50.7058 50.0996ZM41.0055 52.6403C39.39 52.6403 37.5167 52.3142 36.0454 51.1235C34.2858 49.6976 33.497 47.392 33.7094 44.2673C34.1644 37.4338 38.9122 36.774 40.3532 36.7285C43.6145 36.645 46.1249 38.2681 47.0729 41.0895C47.3687 41.9768 47.437 42.8414 47.4977 43.5392C47.5507 44.1687 47.6038 44.8209 47.8086 44.9802C48.5898 45.5869 49.5833 45.4808 49.5985 45.4808C49.9019 45.4428 50.2128 45.5642 50.41 45.7993C50.6072 46.0344 50.6755 46.353 50.5845 46.6487C49.7881 49.2502 46.8454 51.5103 44.4639 52.1777C44.1833 52.2535 42.7499 52.6403 41.0055 52.6403ZM40.4063 38.5487C38.7226 38.5942 35.8557 39.4209 35.522 44.3886C35.3552 46.8914 35.9164 48.6813 37.1906 49.7128C39.5872 51.6468 43.7889 50.4864 43.9634 50.4333C45.4878 50.001 47.3611 48.6889 48.3319 47.1872C47.8162 47.0659 47.2322 46.8384 46.6861 46.4212C45.8443 45.769 45.7608 44.7072 45.6774 43.6909C45.6243 43.031 45.5712 42.3484 45.3437 41.6734C44.646 39.5878 42.9016 38.4805 40.4063 38.5563V38.5487ZM38.5027 41.9313C37.5395 41.8706 37.3499 43.6605 38.3737 43.6985C39.3445 43.7364 39.7389 42.0147 38.5027 41.9313ZM41.4302 41.9313C40.3229 41.9465 40.3836 43.6681 41.4302 43.6074C42.6134 43.5316 42.2721 41.9237 41.4302 41.9313Z" fill="white"/>
<path fill-rule="evenodd" clip-rule="evenodd" d="M30.0161 29.1594C29.508 31.0706 29.1212 33.4673 24.4492 36.2507C23.3647 36.8954 20.5661 37.1457 17.7826 39.694C14.4228 42.7656 12.102 47.7789 12.102 47.7789C12.102 47.7789 6.62613 43.562 6.24692 41.2488C6.01939 39.8533 11.6697 32.2614 12.9818 30.8052C16.3871 27.051 18.1391 25.2914 20.8012 24.3813C25.64 22.7279 28.4917 25.1928 28.4917 25.1928L38.3209 24.8743L38.9808 26.9979C38.9808 26.9979 30.8201 29.0001 30.0085 29.1594H30.0161ZM23.9942 30.7142C25.5566 30.4715 25.4959 27.3922 23.6074 27.7032C21.7947 28.0066 21.9768 31.0251 23.9942 30.7142Z" fill="white"/>
<path d="M28.2644 54.5213C13.7633 54.5213 2 42.758 2 28.2569C2 13.7557 13.7633 2 28.2644 2C42.758 2 54.5289 13.7633 54.5289 28.2569C54.5289 32.1476 54.18 33.6114 53.194 36.6148" stroke="white" stroke-width="2.4" stroke-linecap="round" stroke-linejoin="round"/>
</svg>
