<svg width="490" height="98" viewBox="0 0 490 98" fill="none" xmlns="http://www.w3.org/2000/svg">
<g opacity="0.7">
<path d="M16.1771 74.75C17.4306 76.6056 18.0995 78.7942 18.0975 81.0335C18.0975 87.2964 12.9652 92.3735 6.63374 92.3735C4.56371 92.3773 2.53105 91.8222 0.750366 90.7666C2.70337 94.6111 6.72374 97.25 11.3692 97.25C17.931 97.25 23.25 91.9884 23.25 85.4975C23.25 80.7001 20.3422 76.5766 16.1771 74.75Z" fill="white"/>
</g>
<g opacity="0.7">
<path d="M202.177 74.75C203.431 76.6056 204.1 78.7942 204.097 81.0335C204.097 87.2964 198.965 92.3735 192.634 92.3735C190.564 92.3773 188.531 91.8222 186.75 90.7666C188.703 94.6111 192.724 97.25 197.369 97.25C203.931 97.25 209.25 91.9884 209.25 85.4975C209.25 80.7001 206.342 76.5766 202.177 74.75Z" fill="white"/>
</g>
<g opacity="0.7" clip-path="url(#clip0_2763_12553)">
<path d="M386.976 74.75C388.229 76.6056 388.898 78.7942 388.896 81.0335C388.896 87.2964 383.764 92.3735 377.432 92.3735C375.362 92.3773 373.33 91.8222 371.549 90.7666C373.502 94.6111 377.522 97.25 382.168 97.25C388.729 97.25 394.048 91.9884 394.048 85.4975C394.048 80.7001 391.141 76.5766 386.976 74.75Z" fill="white"/>
</g>
<g opacity="0.7">
<path d="M44.1771 74.75C45.4306 76.6056 46.0995 78.7942 46.0975 81.0335C46.0975 87.2964 40.9652 92.3735 34.6337 92.3735C32.5637 92.3773 30.5311 91.8222 28.7504 90.7666C30.7034 94.6111 34.7237 97.25 39.3692 97.25C45.931 97.25 51.25 91.9884 51.25 85.4975C51.25 80.7001 48.3422 76.5766 44.1771 74.75Z" fill="white"/>
</g>
<g opacity="0.7">
<path d="M230.177 74.75C231.431 76.6056 232.1 78.7942 232.097 81.0335C232.097 87.2964 226.965 92.3735 220.634 92.3735C218.564 92.3773 216.531 91.8222 214.75 90.7666C216.703 94.6111 220.724 97.25 225.369 97.25C231.931 97.25 237.25 91.9884 237.25 85.4975C237.25 80.7001 234.342 76.5766 230.177 74.75Z" fill="white"/>
</g>
<g opacity="0.7" clip-path="url(#clip1_2763_12553)">
<path d="M414.976 74.75C416.229 76.6056 416.898 78.7942 416.896 81.0335C416.896 87.2964 411.764 92.3735 405.432 92.3735C403.362 92.3773 401.33 91.8222 399.549 90.7666C401.502 94.6111 405.522 97.25 410.168 97.25C416.729 97.25 422.048 91.9884 422.048 85.4975C422.048 80.7001 419.141 76.5766 414.976 74.75Z" fill="white"/>
</g>
<path d="M47.0007 40.75H46.9992C40.7866 40.75 35.75 45.787 35.75 52C35.75 58.2134 40.7866 63.25 46.9992 63.25H47.0007C53.2134 63.25 58.25 58.213 58.25 52C58.25 45.787 53.2134 40.75 47.0007 40.75ZM36.5 52C36.5 46.2014 41.201 41.5 46.9992 41.5C47.0907 41.5 47.18 41.5049 47.2711 41.5071C47.5516 43.135 47.7507 47.218 47.7507 52C47.7507 56.7827 47.5516 60.8654 47.2711 62.4936C47.18 62.4955 47.0907 62.5 46.9992 62.5C41.201 62.5 36.5 57.7994 36.5 52Z" fill="white"/>
<path d="M17.0004 40.75H16.9992C10.7866 40.75 5.75 45.787 5.75 52C5.75 58.213 10.7866 63.25 16.9992 63.25H17.0004C23.2134 63.25 28.25 58.213 28.25 52C28.25 45.787 23.2134 40.75 17.0004 40.75ZM6.5 52C6.5 47.164 9.77075 43.0938 14.2194 41.8746C12.0924 43.6975 10.6257 47.5465 10.6257 52C10.6257 56.4535 12.0924 60.3025 14.2194 62.1254C9.77075 60.9062 6.5 56.836 6.5 52Z" fill="white"/>
<path d="M137 40.75C130.787 40.75 125.75 45.787 125.75 52C125.75 58.213 130.787 63.25 137 63.25C143.213 63.25 148.25 58.213 148.25 52C148.25 45.787 143.213 40.75 137 40.75ZM139.781 62.1246C141.908 60.3018 143.375 56.4535 143.375 52C143.375 47.5465 141.908 43.6982 139.781 41.8754C144.23 43.0945 147.5 47.164 147.5 52C147.5 56.836 144.23 60.9055 139.781 62.1246V62.1246Z" fill="white"/>
<path d="M118.25 52C118.25 45.787 113.213 40.7504 107 40.75H107C100.787 40.75 95.75 45.787 95.75 52C95.75 58.213 100.787 63.25 107 63.25H107C113.213 63.2496 118.25 58.213 118.25 52ZM107 62.5C106.91 62.5 106.82 62.4955 106.73 62.4929C106.45 60.8654 106.25 56.7824 106.25 52C106.25 47.2176 106.45 43.1346 106.73 41.5071C106.82 41.5045 106.91 41.5 107 41.5C112.799 41.5 117.5 46.201 117.5 52C117.5 57.799 112.799 62.5 107 62.5Z" fill="white"/>
<path d="M178.25 52C178.25 45.787 173.213 40.75 167 40.75H167C160.787 40.75 155.75 45.787 155.75 52C155.75 58.213 160.787 63.25 167 63.25H167C173.213 63.25 178.25 58.213 178.25 52ZM167 62.5C166.037 62.5 165.105 62.3676 164.219 62.125C162.092 60.3018 160.625 56.4535 160.625 52C160.625 47.5465 162.092 43.6982 164.219 41.875C165.105 41.6324 166.037 41.5 167 41.5C172.799 41.5 177.5 46.201 177.5 52C177.5 57.799 172.799 62.5 167 62.5Z" fill="white"/>
<path d="M77 63.25C83.2132 63.25 88.25 58.2132 88.25 52C88.25 45.7868 83.2132 40.75 77 40.75C70.7868 40.75 65.75 45.7868 65.75 52C65.75 58.2132 70.7868 63.25 77 63.25Z" fill="white"/>
<path d="M233.001 40.75H232.999C226.787 40.75 221.75 45.787 221.75 52C221.75 58.2134 226.787 63.25 232.999 63.25H233.001C239.213 63.25 244.25 58.213 244.25 52C244.25 45.787 239.213 40.75 233.001 40.75ZM222.5 52C222.5 46.2014 227.201 41.5 232.999 41.5C233.091 41.5 233.18 41.5049 233.271 41.5071C233.552 43.135 233.751 47.218 233.751 52C233.751 56.7827 233.552 60.8654 233.271 62.4936C233.18 62.4955 233.091 62.5 232.999 62.5C227.201 62.5 222.5 57.7994 222.5 52Z" fill="white"/>
<g clip-path="url(#clip2_2763_12553)">
<path d="M417.799 40.75H417.798C411.585 40.75 406.548 45.787 406.548 52C406.548 58.2134 411.585 63.25 417.798 63.25H417.799C424.012 63.25 429.048 58.213 429.048 52C429.048 45.787 424.012 40.75 417.799 40.75ZM407.298 52C407.298 46.2014 411.999 41.5 417.798 41.5C417.889 41.5 417.978 41.5049 418.07 41.5071C418.35 43.135 418.549 47.218 418.549 52C418.549 56.7827 418.35 60.8654 418.07 62.4936C417.978 62.4955 417.889 62.5 417.798 62.5C411.999 62.5 407.298 57.7994 407.298 52Z" fill="white"/>
</g>
<path d="M203 40.75H202.999C196.787 40.75 191.75 45.787 191.75 52C191.75 58.213 196.787 63.25 202.999 63.25H203C209.213 63.25 214.25 58.213 214.25 52C214.25 45.787 209.213 40.75 203 40.75ZM192.5 52C192.5 47.164 195.771 43.0938 200.219 41.8746C198.092 43.6975 196.626 47.5465 196.626 52C196.626 56.4535 198.092 60.3025 200.219 62.1254C195.771 60.9062 192.5 56.836 192.5 52Z" fill="white"/>
<g clip-path="url(#clip3_2763_12553)">
<path d="M387.799 40.75H387.798C381.585 40.75 376.548 45.787 376.548 52C376.548 58.213 381.585 63.25 387.798 63.25H387.799C394.012 63.25 399.048 58.213 399.048 52C399.048 45.787 394.012 40.75 387.799 40.75ZM377.298 52C377.298 47.164 380.569 43.0938 385.018 41.8746C382.891 43.6975 381.424 47.5465 381.424 52C381.424 56.4535 382.891 60.3025 385.018 62.1254C380.569 60.9062 377.298 56.836 377.298 52Z" fill="white"/>
</g>
<path d="M323 40.75C316.787 40.75 311.75 45.787 311.75 52C311.75 58.213 316.787 63.25 323 63.25C329.213 63.25 334.25 58.213 334.25 52C334.25 45.787 329.213 40.75 323 40.75ZM325.781 62.1246C327.908 60.3018 329.375 56.4535 329.375 52C329.375 47.5465 327.908 43.6982 325.781 41.8754C330.23 43.0945 333.5 47.164 333.5 52C333.5 56.836 330.23 60.9055 325.781 62.1246V62.1246Z" fill="white"/>
<path d="M304.25 52C304.25 45.787 299.213 40.7504 293 40.75H293C286.787 40.75 281.75 45.787 281.75 52C281.75 58.213 286.787 63.25 293 63.25H293C299.213 63.2496 304.25 58.213 304.25 52ZM293 62.5C292.91 62.5 292.82 62.4955 292.73 62.4929C292.45 60.8654 292.25 56.7824 292.25 52C292.25 47.2176 292.45 43.1346 292.73 41.5071C292.82 41.5045 292.91 41.5 293 41.5C298.799 41.5 303.5 46.201 303.5 52C303.5 57.799 298.799 62.5 293 62.5Z" fill="white"/>
<g clip-path="url(#clip4_2763_12553)">
<path d="M489.048 52C489.048 45.787 484.012 40.7504 477.799 40.75H477.798C471.585 40.75 466.548 45.787 466.548 52C466.548 58.213 471.585 63.25 477.798 63.25H477.799C484.012 63.2496 489.048 58.213 489.048 52ZM477.798 62.5C477.708 62.5 477.619 62.4955 477.528 62.4929C477.248 60.8654 477.049 56.7824 477.049 52C477.049 47.2176 477.248 43.1346 477.528 41.5071C477.619 41.5045 477.708 41.5 477.798 41.5C483.598 41.5 488.298 46.201 488.298 52C488.298 57.799 483.598 62.5 477.798 62.5Z" fill="white"/>
</g>
<path d="M364.25 52C364.25 45.787 359.213 40.75 353 40.75H353C346.787 40.75 341.75 45.787 341.75 52C341.75 58.213 346.787 63.25 353 63.25H353C359.213 63.25 364.25 58.213 364.25 52ZM353 62.5C352.037 62.5 351.105 62.3676 350.219 62.125C348.092 60.3018 346.625 56.4535 346.625 52C346.625 47.5465 348.092 43.6982 350.219 41.875C351.105 41.6324 352.037 41.5 353 41.5C358.799 41.5 363.5 46.201 363.5 52C363.5 57.799 358.799 62.5 353 62.5Z" fill="white"/>
<path d="M263 63.25C269.213 63.25 274.25 58.2132 274.25 52C274.25 45.7868 269.213 40.75 263 40.75C256.787 40.75 251.75 45.7868 251.75 52C251.75 58.2132 256.787 63.25 263 63.25Z" fill="white"/>
<g clip-path="url(#clip5_2763_12553)">
<path d="M447.798 63.25C454.012 63.25 459.048 58.2132 459.048 52C459.048 45.7868 454.012 40.75 447.798 40.75C441.585 40.75 436.548 45.7868 436.548 52C436.548 58.2132 441.585 63.25 447.798 63.25Z" fill="white"/>
</g>
<path opacity="0.7" fill-rule="evenodd" clip-rule="evenodd" d="M69.5 79.5769C74.7703 74.1025 87.9471 83.682 69.5 96C51.0529 83.6832 64.2297 74.1025 69.5 79.5769Z" fill="#CDC6EC"/>
<path opacity="0.7" fill-rule="evenodd" clip-rule="evenodd" d="M255.5 79.5769C260.77 74.1025 273.947 83.682 255.5 96C237.053 83.6832 250.23 74.1025 255.5 79.5769Z" fill="#CDC6EC"/>
<path opacity="0.7" fill-rule="evenodd" clip-rule="evenodd" d="M440.298 79.5769C445.569 74.1025 458.746 83.682 440.298 96C421.851 83.6832 435.028 74.1025 440.298 79.5769Z" fill="#CDC6EC"/>
<path opacity="0.7" fill-rule="evenodd" clip-rule="evenodd" d="M94.5 79.5769C99.7703 74.1025 112.947 83.682 94.5 96C76.0529 83.6832 89.2297 74.1025 94.5 79.5769Z" fill="#FFF500"/>
<path opacity="0.7" fill-rule="evenodd" clip-rule="evenodd" d="M280.5 79.5769C285.77 74.1025 298.947 83.682 280.5 96C262.053 83.6832 275.23 74.1025 280.5 79.5769Z" fill="#FFF500"/>
<path opacity="0.7" fill-rule="evenodd" clip-rule="evenodd" d="M465.298 79.5769C470.569 74.1025 483.746 83.682 465.298 96C446.851 83.6832 460.028 74.1025 465.298 79.5769Z" fill="#FFF500"/>
<path opacity="0.7" fill-rule="evenodd" clip-rule="evenodd" d="M119.5 79.5769C124.77 74.1025 137.947 83.682 119.5 96C101.053 83.6832 114.23 74.1025 119.5 79.5769Z" fill="#CDC6EC"/>
<path opacity="0.7" fill-rule="evenodd" clip-rule="evenodd" d="M305.5 79.5769C310.77 74.1025 323.947 83.682 305.5 96C287.053 83.6832 300.23 74.1025 305.5 79.5769Z" fill="#CDC6EC"/>
<path opacity="0.7" fill-rule="evenodd" clip-rule="evenodd" d="M144.5 79.5769C149.77 74.1025 162.947 83.682 144.5 96C126.053 83.6832 139.23 74.1025 144.5 79.5769Z" fill="#CDC6EC"/>
<path opacity="0.7" fill-rule="evenodd" clip-rule="evenodd" d="M330.5 79.5769C335.77 74.1025 348.947 83.682 330.5 96C312.053 83.6832 325.23 74.1025 330.5 79.5769Z" fill="#CDC6EC"/>
<path opacity="0.7" fill-rule="evenodd" clip-rule="evenodd" d="M169.5 79.5769C174.77 74.1025 187.947 83.682 169.5 96C151.053 83.6832 164.23 74.1025 169.5 79.5769Z" fill="#CDC6EC"/>
<path opacity="0.7" fill-rule="evenodd" clip-rule="evenodd" d="M355.5 79.5769C360.77 74.1025 373.947 83.682 355.5 96C337.053 83.6832 350.23 74.1025 355.5 79.5769Z" fill="#CDC6EC"/>
<path opacity="0.7" d="M27.9685 12.5712C28.7338 11.7297 30.0863 12.6153 29.6208 13.6532L27.988 17.2944C27.7281 17.8739 28.0672 18.5456 28.6877 18.6807L32.587 19.5296C33.6984 19.7716 33.6077 21.3857 32.4761 21.5015L28.5063 21.9081C27.8745 21.9728 27.4623 22.6023 27.6556 23.2072L28.87 27.0085C29.2162 28.0921 27.773 28.8205 27.1069 27.8985L24.7699 24.6638C24.398 24.149 23.6467 24.1068 23.2195 24.5766L20.5346 27.529C19.7694 28.3706 18.4169 27.485 18.8824 26.4471L20.5152 22.8058C20.7751 22.2263 20.436 21.5546 19.8155 21.4195L15.9162 20.5706C14.8048 20.3286 14.8955 18.7146 16.0271 18.5987L19.9969 18.1921C20.6287 18.1274 21.0409 17.4979 20.8476 16.893L19.6331 13.0917C19.287 12.0082 20.7302 11.2797 21.3963 12.2017L23.7333 15.4365C24.1052 15.9512 24.8565 15.9934 25.2837 15.5236L27.9685 12.5712Z" fill="white"/>
<path opacity="0.7" d="M202.969 12.5712C203.734 11.7297 205.086 12.6153 204.621 13.6532L202.988 17.2944C202.728 17.8739 203.067 18.5456 203.688 18.6807L207.587 19.5296C208.698 19.7716 208.608 21.3857 207.476 21.5015L203.506 21.9081C202.875 21.9728 202.462 22.6023 202.656 23.2072L203.87 27.0085C204.216 28.0921 202.773 28.8205 202.107 27.8985L199.77 24.6638C199.398 24.149 198.647 24.1068 198.219 24.5766L195.535 27.529C194.769 28.3706 193.417 27.485 193.882 26.4471L195.515 22.8058C195.775 22.2263 195.436 21.5546 194.815 21.4195L190.916 20.5706C189.805 20.3286 189.895 18.7146 191.027 18.5987L194.997 18.1921C195.629 18.1274 196.041 17.4979 195.848 16.893L194.633 13.0917C194.287 12.0082 195.73 11.2797 196.396 12.2017L198.733 15.4365C199.105 15.9512 199.856 15.9934 200.284 15.5236L202.969 12.5712Z" fill="white"/>
<path opacity="0.7" d="M387.767 12.5712C388.532 11.7297 389.885 12.6153 389.419 13.6532L387.786 17.2944C387.527 17.8739 387.866 18.5456 388.486 18.6807L392.385 19.5296C393.497 19.7716 393.406 21.3857 392.275 21.5015L388.305 21.9081C387.673 21.9728 387.261 22.6023 387.454 23.2072L388.669 27.0085C389.015 28.0921 387.571 28.8205 386.905 27.8985L384.568 24.6638C384.196 24.149 383.445 24.1068 383.018 24.5766L380.333 27.529C379.568 28.3706 378.215 27.485 378.681 26.4471L380.314 22.8058C380.574 22.2263 380.234 21.5546 379.614 21.4195L375.715 20.5706C374.603 20.3286 374.694 18.7146 375.826 18.5987L379.795 18.1921C380.427 18.1274 380.839 17.4979 380.646 16.893L379.432 13.0917C379.085 12.0082 380.529 11.2797 381.195 12.2017L383.532 15.4365C383.904 15.9512 384.655 15.9934 385.082 15.5236L387.767 12.5712Z" fill="white"/>
<g opacity="0.7">
<path d="M174 20C174 21.5913 173.368 23.1174 172.243 24.2426C171.117 25.3679 169.591 26 168 26C166.409 26 164.883 25.3679 163.757 24.2426C162.632 23.1174 162 21.5913 162 20C162 18.4087 162.632 16.8826 163.757 15.7574C164.883 14.6321 166.409 14 168 14C169.591 14 171.117 14.6321 172.243 15.7574C173.368 16.8826 174 18.4087 174 20V20ZM168 8C168.199 8 168.39 8.07902 168.53 8.21967C168.671 8.36032 168.75 8.55109 168.75 8.75V11.75C168.75 11.9489 168.671 12.1397 168.53 12.2803C168.39 12.421 168.199 12.5 168 12.5C167.801 12.5 167.61 12.421 167.47 12.2803C167.329 12.1397 167.25 11.9489 167.25 11.75V8.75C167.25 8.55109 167.329 8.36032 167.47 8.21967C167.61 8.07902 167.801 8 168 8V8ZM168 27.5C168.199 27.5 168.39 27.579 168.53 27.7197C168.671 27.8603 168.75 28.0511 168.75 28.25V31.25C168.75 31.4489 168.671 31.6397 168.53 31.7803C168.39 31.921 168.199 32 168 32C167.801 32 167.61 31.921 167.47 31.7803C167.329 31.6397 167.25 31.4489 167.25 31.25V28.25C167.25 28.0511 167.329 27.8603 167.47 27.7197C167.61 27.579 167.801 27.5 168 27.5V27.5ZM180 20C180 20.1989 179.921 20.3897 179.78 20.5303C179.64 20.671 179.449 20.75 179.25 20.75H176.25C176.051 20.75 175.86 20.671 175.72 20.5303C175.579 20.3897 175.5 20.1989 175.5 20C175.5 19.8011 175.579 19.6103 175.72 19.4697C175.86 19.329 176.051 19.25 176.25 19.25H179.25C179.449 19.25 179.64 19.329 179.78 19.4697C179.921 19.6103 180 19.8011 180 20ZM160.5 20C160.5 20.1989 160.421 20.3897 160.28 20.5303C160.14 20.671 159.949 20.75 159.75 20.75H156.75C156.551 20.75 156.36 20.671 156.22 20.5303C156.079 20.3897 156 20.1989 156 20C156 19.8011 156.079 19.6103 156.22 19.4697C156.36 19.329 156.551 19.25 156.75 19.25H159.75C159.949 19.25 160.14 19.329 160.28 19.4697C160.421 19.6103 160.5 19.8011 160.5 20ZM176.485 11.5145C176.626 11.6551 176.705 11.8459 176.705 12.0448C176.705 12.2436 176.626 12.4344 176.485 12.575L174.365 14.6975C174.295 14.7671 174.212 14.8224 174.121 14.86C174.03 14.8976 173.932 14.917 173.834 14.9169C173.635 14.9168 173.444 14.8376 173.303 14.6967C173.234 14.627 173.178 14.5443 173.141 14.4532C173.103 14.3621 173.084 14.2645 173.084 14.166C173.084 13.9669 173.163 13.7761 173.304 13.6355L175.425 11.5145C175.566 11.3739 175.756 11.2949 175.955 11.2949C176.154 11.2949 176.345 11.3739 176.485 11.5145V11.5145ZM162.696 25.304C162.837 25.4446 162.916 25.6354 162.916 25.8342C162.916 26.0331 162.837 26.2239 162.696 26.3645L160.575 28.4855C160.434 28.6221 160.244 28.6977 160.047 28.696C159.851 28.6943 159.663 28.6154 159.524 28.4764C159.385 28.3373 159.306 28.1492 159.304 27.9526C159.302 27.7559 159.378 27.5665 159.514 27.425L161.635 25.304C161.776 25.1634 161.967 25.0844 162.166 25.0844C162.365 25.0844 162.555 25.1634 162.696 25.304V25.304ZM176.485 28.4855C176.345 28.6261 176.154 28.7051 175.955 28.7051C175.756 28.7051 175.566 28.6261 175.425 28.4855L173.304 26.3645C173.167 26.223 173.092 26.0336 173.093 25.8369C173.095 25.6403 173.174 25.4522 173.313 25.3131C173.452 25.1741 173.64 25.0952 173.837 25.0935C174.034 25.0918 174.223 25.1674 174.365 25.304L176.485 27.425C176.626 27.5656 176.705 27.7564 176.705 27.9553C176.705 28.1541 176.626 28.3449 176.485 28.4855ZM162.696 14.6975C162.555 14.8381 162.365 14.9171 162.166 14.9171C161.967 14.9171 161.776 14.8381 161.635 14.6975L159.514 12.575C159.443 12.5058 159.386 12.4231 159.346 12.3316C159.307 12.2401 159.286 12.1416 159.286 12.0421C159.285 11.9425 159.304 11.8437 159.341 11.7515C159.379 11.6594 159.435 11.5756 159.505 11.5052C159.576 11.4348 159.659 11.3791 159.752 11.3414C159.844 11.3037 159.942 11.2847 160.042 11.2856C160.142 11.2864 160.24 11.3071 160.332 11.3464C160.423 11.3857 160.506 11.4429 160.575 11.5145L162.696 13.6355C162.766 13.7052 162.821 13.7879 162.859 13.879C162.897 13.9702 162.916 14.0678 162.916 14.1665C162.916 14.2652 162.897 14.3628 162.859 14.454C162.821 14.5451 162.766 14.6278 162.696 14.6975V14.6975Z" fill="#FF96BB"/>
</g>
<g opacity="0.7">
<path d="M349 20C349 21.5913 348.368 23.1174 347.243 24.2426C346.117 25.3679 344.591 26 343 26C341.409 26 339.883 25.3679 338.757 24.2426C337.632 23.1174 337 21.5913 337 20C337 18.4087 337.632 16.8826 338.757 15.7574C339.883 14.6321 341.409 14 343 14C344.591 14 346.117 14.6321 347.243 15.7574C348.368 16.8826 349 18.4087 349 20V20ZM343 8C343.199 8 343.39 8.07902 343.53 8.21967C343.671 8.36032 343.75 8.55109 343.75 8.75V11.75C343.75 11.9489 343.671 12.1397 343.53 12.2803C343.39 12.421 343.199 12.5 343 12.5C342.801 12.5 342.61 12.421 342.47 12.2803C342.329 12.1397 342.25 11.9489 342.25 11.75V8.75C342.25 8.55109 342.329 8.36032 342.47 8.21967C342.61 8.07902 342.801 8 343 8V8ZM343 27.5C343.199 27.5 343.39 27.579 343.53 27.7197C343.671 27.8603 343.75 28.0511 343.75 28.25V31.25C343.75 31.4489 343.671 31.6397 343.53 31.7803C343.39 31.921 343.199 32 343 32C342.801 32 342.61 31.921 342.47 31.7803C342.329 31.6397 342.25 31.4489 342.25 31.25V28.25C342.25 28.0511 342.329 27.8603 342.47 27.7197C342.61 27.579 342.801 27.5 343 27.5V27.5ZM355 20C355 20.1989 354.921 20.3897 354.78 20.5303C354.64 20.671 354.449 20.75 354.25 20.75H351.25C351.051 20.75 350.86 20.671 350.72 20.5303C350.579 20.3897 350.5 20.1989 350.5 20C350.5 19.8011 350.579 19.6103 350.72 19.4697C350.86 19.329 351.051 19.25 351.25 19.25H354.25C354.449 19.25 354.64 19.329 354.78 19.4697C354.921 19.6103 355 19.8011 355 20ZM335.5 20C335.5 20.1989 335.421 20.3897 335.28 20.5303C335.14 20.671 334.949 20.75 334.75 20.75H331.75C331.551 20.75 331.36 20.671 331.22 20.5303C331.079 20.3897 331 20.1989 331 20C331 19.8011 331.079 19.6103 331.22 19.4697C331.36 19.329 331.551 19.25 331.75 19.25H334.75C334.949 19.25 335.14 19.329 335.28 19.4697C335.421 19.6103 335.5 19.8011 335.5 20ZM351.485 11.5145C351.626 11.6551 351.705 11.8459 351.705 12.0448C351.705 12.2436 351.626 12.4344 351.485 12.575L349.365 14.6975C349.295 14.7671 349.212 14.8224 349.121 14.86C349.03 14.8976 348.932 14.917 348.834 14.9169C348.635 14.9168 348.444 14.8376 348.303 14.6967C348.234 14.627 348.178 14.5443 348.141 14.4532C348.103 14.3621 348.084 14.2645 348.084 14.166C348.084 13.9669 348.163 13.7761 348.304 13.6355L350.425 11.5145C350.566 11.3739 350.756 11.2949 350.955 11.2949C351.154 11.2949 351.345 11.3739 351.485 11.5145V11.5145ZM337.696 25.304C337.837 25.4446 337.916 25.6354 337.916 25.8342C337.916 26.0331 337.837 26.2239 337.696 26.3645L335.575 28.4855C335.434 28.6221 335.244 28.6977 335.047 28.696C334.851 28.6943 334.663 28.6154 334.524 28.4764C334.385 28.3373 334.306 28.1492 334.304 27.9526C334.302 27.7559 334.378 27.5665 334.514 27.425L336.635 25.304C336.776 25.1634 336.967 25.0844 337.166 25.0844C337.365 25.0844 337.555 25.1634 337.696 25.304V25.304ZM351.485 28.4855C351.345 28.6261 351.154 28.7051 350.955 28.7051C350.756 28.7051 350.566 28.6261 350.425 28.4855L348.304 26.3645C348.167 26.223 348.092 26.0336 348.093 25.8369C348.095 25.6403 348.174 25.4522 348.313 25.3131C348.452 25.1741 348.64 25.0952 348.837 25.0935C349.034 25.0918 349.223 25.1674 349.365 25.304L351.485 27.425C351.626 27.5656 351.705 27.7564 351.705 27.9553C351.705 28.1541 351.626 28.3449 351.485 28.4855ZM337.696 14.6975C337.555 14.8381 337.365 14.9171 337.166 14.9171C336.967 14.9171 336.776 14.8381 336.635 14.6975L334.514 12.575C334.443 12.5058 334.386 12.4231 334.346 12.3316C334.307 12.2401 334.286 12.1416 334.286 12.0421C334.285 11.9425 334.304 11.8437 334.341 11.7515C334.379 11.6594 334.435 11.5756 334.505 11.5052C334.576 11.4348 334.659 11.3791 334.752 11.3414C334.844 11.3037 334.942 11.2847 335.042 11.2856C335.142 11.2864 335.24 11.3071 335.332 11.3464C335.423 11.3857 335.506 11.4429 335.575 11.5145L337.696 13.6355C337.766 13.7052 337.821 13.7879 337.859 13.879C337.897 13.9702 337.916 14.0678 337.916 14.1665C337.916 14.2652 337.897 14.3628 337.859 14.454C337.821 14.5451 337.766 14.6278 337.696 14.6975V14.6975Z" fill="#FF96BB"/>
</g>
<g opacity="0.7">
<path d="M145 20C145 21.5913 144.368 23.1174 143.243 24.2426C142.117 25.3679 140.591 26 139 26C137.409 26 135.883 25.3679 134.757 24.2426C133.632 23.1174 133 21.5913 133 20C133 18.4087 133.632 16.8826 134.757 15.7574C135.883 14.6321 137.409 14 139 14C140.591 14 142.117 14.6321 143.243 15.7574C144.368 16.8826 145 18.4087 145 20V20ZM139 8C139.199 8 139.39 8.07902 139.53 8.21967C139.671 8.36032 139.75 8.55109 139.75 8.75V11.75C139.75 11.9489 139.671 12.1397 139.53 12.2803C139.39 12.421 139.199 12.5 139 12.5C138.801 12.5 138.61 12.421 138.47 12.2803C138.329 12.1397 138.25 11.9489 138.25 11.75V8.75C138.25 8.55109 138.329 8.36032 138.47 8.21967C138.61 8.07902 138.801 8 139 8V8ZM139 27.5C139.199 27.5 139.39 27.579 139.53 27.7197C139.671 27.8603 139.75 28.0511 139.75 28.25V31.25C139.75 31.4489 139.671 31.6397 139.53 31.7803C139.39 31.921 139.199 32 139 32C138.801 32 138.61 31.921 138.47 31.7803C138.329 31.6397 138.25 31.4489 138.25 31.25V28.25C138.25 28.0511 138.329 27.8603 138.47 27.7197C138.61 27.579 138.801 27.5 139 27.5V27.5ZM151 20C151 20.1989 150.921 20.3897 150.78 20.5303C150.64 20.671 150.449 20.75 150.25 20.75H147.25C147.051 20.75 146.86 20.671 146.72 20.5303C146.579 20.3897 146.5 20.1989 146.5 20C146.5 19.8011 146.579 19.6103 146.72 19.4697C146.86 19.329 147.051 19.25 147.25 19.25H150.25C150.449 19.25 150.64 19.329 150.78 19.4697C150.921 19.6103 151 19.8011 151 20ZM131.5 20C131.5 20.1989 131.421 20.3897 131.28 20.5303C131.14 20.671 130.949 20.75 130.75 20.75H127.75C127.551 20.75 127.36 20.671 127.22 20.5303C127.079 20.3897 127 20.1989 127 20C127 19.8011 127.079 19.6103 127.22 19.4697C127.36 19.329 127.551 19.25 127.75 19.25H130.75C130.949 19.25 131.14 19.329 131.28 19.4697C131.421 19.6103 131.5 19.8011 131.5 20ZM147.485 11.5145C147.626 11.6551 147.705 11.8459 147.705 12.0448C147.705 12.2436 147.626 12.4344 147.485 12.575L145.365 14.6975C145.295 14.7671 145.212 14.8224 145.121 14.86C145.03 14.8976 144.932 14.917 144.834 14.9169C144.635 14.9168 144.444 14.8376 144.303 14.6967C144.234 14.627 144.178 14.5443 144.141 14.4532C144.103 14.3621 144.084 14.2645 144.084 14.166C144.084 13.9669 144.163 13.7761 144.304 13.6355L146.425 11.5145C146.566 11.3739 146.756 11.2949 146.955 11.2949C147.154 11.2949 147.345 11.3739 147.485 11.5145V11.5145ZM133.696 25.304C133.837 25.4446 133.916 25.6354 133.916 25.8342C133.916 26.0331 133.837 26.2239 133.696 26.3645L131.575 28.4855C131.434 28.6221 131.244 28.6977 131.047 28.696C130.851 28.6943 130.663 28.6154 130.524 28.4764C130.385 28.3373 130.306 28.1492 130.304 27.9526C130.302 27.7559 130.378 27.5665 130.514 27.425L132.635 25.304C132.776 25.1634 132.967 25.0844 133.166 25.0844C133.365 25.0844 133.555 25.1634 133.696 25.304V25.304ZM147.485 28.4855C147.345 28.6261 147.154 28.7051 146.955 28.7051C146.756 28.7051 146.566 28.6261 146.425 28.4855L144.304 26.3645C144.167 26.223 144.092 26.0336 144.093 25.8369C144.095 25.6403 144.174 25.4522 144.313 25.3131C144.452 25.1741 144.64 25.0952 144.837 25.0935C145.034 25.0918 145.223 25.1674 145.365 25.304L147.485 27.425C147.626 27.5656 147.705 27.7564 147.705 27.9553C147.705 28.1541 147.626 28.3449 147.485 28.4855ZM133.696 14.6975C133.555 14.8381 133.365 14.9171 133.166 14.9171C132.967 14.9171 132.776 14.8381 132.635 14.6975L130.514 12.575C130.443 12.5058 130.386 12.4231 130.346 12.3316C130.307 12.2401 130.286 12.1416 130.286 12.0421C130.285 11.9425 130.304 11.8437 130.341 11.7515C130.379 11.6594 130.435 11.5756 130.505 11.5052C130.576 11.4348 130.659 11.3791 130.752 11.3414C130.844 11.3037 130.942 11.2847 131.042 11.2856C131.142 11.2864 131.24 11.3071 131.332 11.3464C131.423 11.3857 131.506 11.4429 131.575 11.5145L133.696 13.6355C133.766 13.7052 133.821 13.7879 133.859 13.879C133.897 13.9702 133.916 14.0678 133.916 14.1665C133.916 14.2652 133.897 14.3628 133.859 14.454C133.821 14.5451 133.766 14.6278 133.696 14.6975V14.6975Z" fill="#FF96BB"/>
</g>
<g opacity="0.7">
<path d="M320 20C320 21.5913 319.368 23.1174 318.243 24.2426C317.117 25.3679 315.591 26 314 26C312.409 26 310.883 25.3679 309.757 24.2426C308.632 23.1174 308 21.5913 308 20C308 18.4087 308.632 16.8826 309.757 15.7574C310.883 14.6321 312.409 14 314 14C315.591 14 317.117 14.6321 318.243 15.7574C319.368 16.8826 320 18.4087 320 20V20ZM314 8C314.199 8 314.39 8.07902 314.53 8.21967C314.671 8.36032 314.75 8.55109 314.75 8.75V11.75C314.75 11.9489 314.671 12.1397 314.53 12.2803C314.39 12.421 314.199 12.5 314 12.5C313.801 12.5 313.61 12.421 313.47 12.2803C313.329 12.1397 313.25 11.9489 313.25 11.75V8.75C313.25 8.55109 313.329 8.36032 313.47 8.21967C313.61 8.07902 313.801 8 314 8V8ZM314 27.5C314.199 27.5 314.39 27.579 314.53 27.7197C314.671 27.8603 314.75 28.0511 314.75 28.25V31.25C314.75 31.4489 314.671 31.6397 314.53 31.7803C314.39 31.921 314.199 32 314 32C313.801 32 313.61 31.921 313.47 31.7803C313.329 31.6397 313.25 31.4489 313.25 31.25V28.25C313.25 28.0511 313.329 27.8603 313.47 27.7197C313.61 27.579 313.801 27.5 314 27.5V27.5ZM326 20C326 20.1989 325.921 20.3897 325.78 20.5303C325.64 20.671 325.449 20.75 325.25 20.75H322.25C322.051 20.75 321.86 20.671 321.72 20.5303C321.579 20.3897 321.5 20.1989 321.5 20C321.5 19.8011 321.579 19.6103 321.72 19.4697C321.86 19.329 322.051 19.25 322.25 19.25H325.25C325.449 19.25 325.64 19.329 325.78 19.4697C325.921 19.6103 326 19.8011 326 20ZM306.5 20C306.5 20.1989 306.421 20.3897 306.28 20.5303C306.14 20.671 305.949 20.75 305.75 20.75H302.75C302.551 20.75 302.36 20.671 302.22 20.5303C302.079 20.3897 302 20.1989 302 20C302 19.8011 302.079 19.6103 302.22 19.4697C302.36 19.329 302.551 19.25 302.75 19.25H305.75C305.949 19.25 306.14 19.329 306.28 19.4697C306.421 19.6103 306.5 19.8011 306.5 20ZM322.485 11.5145C322.626 11.6551 322.705 11.8459 322.705 12.0448C322.705 12.2436 322.626 12.4344 322.485 12.575L320.365 14.6975C320.295 14.7671 320.212 14.8224 320.121 14.86C320.03 14.8976 319.932 14.917 319.834 14.9169C319.635 14.9168 319.444 14.8376 319.303 14.6967C319.234 14.627 319.178 14.5443 319.141 14.4532C319.103 14.3621 319.084 14.2645 319.084 14.166C319.084 13.9669 319.163 13.7761 319.304 13.6355L321.425 11.5145C321.566 11.3739 321.756 11.2949 321.955 11.2949C322.154 11.2949 322.345 11.3739 322.485 11.5145V11.5145ZM308.696 25.304C308.837 25.4446 308.916 25.6354 308.916 25.8342C308.916 26.0331 308.837 26.2239 308.696 26.3645L306.575 28.4855C306.434 28.6221 306.244 28.6977 306.047 28.696C305.851 28.6943 305.663 28.6154 305.524 28.4764C305.385 28.3373 305.306 28.1492 305.304 27.9526C305.302 27.7559 305.378 27.5665 305.514 27.425L307.635 25.304C307.776 25.1634 307.967 25.0844 308.166 25.0844C308.365 25.0844 308.555 25.1634 308.696 25.304V25.304ZM322.485 28.4855C322.345 28.6261 322.154 28.7051 321.955 28.7051C321.756 28.7051 321.566 28.6261 321.425 28.4855L319.304 26.3645C319.167 26.223 319.092 26.0336 319.093 25.8369C319.095 25.6403 319.174 25.4522 319.313 25.3131C319.452 25.1741 319.64 25.0952 319.837 25.0935C320.034 25.0918 320.223 25.1674 320.365 25.304L322.485 27.425C322.626 27.5656 322.705 27.7564 322.705 27.9553C322.705 28.1541 322.626 28.3449 322.485 28.4855ZM308.696 14.6975C308.555 14.8381 308.365 14.9171 308.166 14.9171C307.967 14.9171 307.776 14.8381 307.635 14.6975L305.514 12.575C305.443 12.5058 305.386 12.4231 305.346 12.3316C305.307 12.2401 305.286 12.1416 305.286 12.0421C305.285 11.9425 305.304 11.8437 305.341 11.7515C305.379 11.6594 305.435 11.5756 305.505 11.5052C305.576 11.4348 305.659 11.3791 305.752 11.3414C305.844 11.3037 305.942 11.2847 306.042 11.2856C306.142 11.2864 306.24 11.3071 306.332 11.3464C306.423 11.3857 306.506 11.4429 306.575 11.5145L308.696 13.6355C308.766 13.7052 308.821 13.7879 308.859 13.879C308.897 13.9702 308.916 14.0678 308.916 14.1665C308.916 14.2652 308.897 14.3628 308.859 14.454C308.821 14.5451 308.766 14.6278 308.696 14.6975V14.6975Z" fill="#FF96BB"/>
</g>
<g opacity="0.7">
<path d="M116 20C116 21.5913 115.368 23.1174 114.243 24.2426C113.117 25.3679 111.591 26 110 26C108.409 26 106.883 25.3679 105.757 24.2426C104.632 23.1174 104 21.5913 104 20C104 18.4087 104.632 16.8826 105.757 15.7574C106.883 14.6321 108.409 14 110 14C111.591 14 113.117 14.6321 114.243 15.7574C115.368 16.8826 116 18.4087 116 20V20ZM110 8C110.199 8 110.39 8.07902 110.53 8.21967C110.671 8.36032 110.75 8.55109 110.75 8.75V11.75C110.75 11.9489 110.671 12.1397 110.53 12.2803C110.39 12.421 110.199 12.5 110 12.5C109.801 12.5 109.61 12.421 109.47 12.2803C109.329 12.1397 109.25 11.9489 109.25 11.75V8.75C109.25 8.55109 109.329 8.36032 109.47 8.21967C109.61 8.07902 109.801 8 110 8V8ZM110 27.5C110.199 27.5 110.39 27.579 110.53 27.7197C110.671 27.8603 110.75 28.0511 110.75 28.25V31.25C110.75 31.4489 110.671 31.6397 110.53 31.7803C110.39 31.921 110.199 32 110 32C109.801 32 109.61 31.921 109.47 31.7803C109.329 31.6397 109.25 31.4489 109.25 31.25V28.25C109.25 28.0511 109.329 27.8603 109.47 27.7197C109.61 27.579 109.801 27.5 110 27.5V27.5ZM122 20C122 20.1989 121.921 20.3897 121.78 20.5303C121.64 20.671 121.449 20.75 121.25 20.75H118.25C118.051 20.75 117.86 20.671 117.72 20.5303C117.579 20.3897 117.5 20.1989 117.5 20C117.5 19.8011 117.579 19.6103 117.72 19.4697C117.86 19.329 118.051 19.25 118.25 19.25H121.25C121.449 19.25 121.64 19.329 121.78 19.4697C121.921 19.6103 122 19.8011 122 20ZM102.5 20C102.5 20.1989 102.421 20.3897 102.28 20.5303C102.14 20.671 101.949 20.75 101.75 20.75H98.75C98.5511 20.75 98.3603 20.671 98.2197 20.5303C98.079 20.3897 98 20.1989 98 20C98 19.8011 98.079 19.6103 98.2197 19.4697C98.3603 19.329 98.5511 19.25 98.75 19.25H101.75C101.949 19.25 102.14 19.329 102.28 19.4697C102.421 19.6103 102.5 19.8011 102.5 20ZM118.485 11.5145C118.626 11.6551 118.705 11.8459 118.705 12.0448C118.705 12.2436 118.626 12.4344 118.485 12.575L116.365 14.6975C116.295 14.7671 116.212 14.8224 116.121 14.86C116.03 14.8976 115.932 14.917 115.834 14.9169C115.635 14.9168 115.444 14.8376 115.303 14.6967C115.234 14.627 115.178 14.5443 115.141 14.4532C115.103 14.3621 115.084 14.2645 115.084 14.166C115.084 13.9669 115.163 13.7761 115.304 13.6355L117.425 11.5145C117.566 11.3739 117.756 11.2949 117.955 11.2949C118.154 11.2949 118.345 11.3739 118.485 11.5145V11.5145ZM104.696 25.304C104.837 25.4446 104.916 25.6354 104.916 25.8342C104.916 26.0331 104.837 26.2239 104.696 26.3645L102.575 28.4855C102.434 28.6221 102.244 28.6977 102.047 28.696C101.851 28.6943 101.663 28.6154 101.524 28.4764C101.385 28.3373 101.306 28.1492 101.304 27.9526C101.302 27.7559 101.378 27.5665 101.514 27.425L103.635 25.304C103.776 25.1634 103.967 25.0844 104.166 25.0844C104.365 25.0844 104.555 25.1634 104.696 25.304V25.304ZM118.485 28.4855C118.345 28.6261 118.154 28.7051 117.955 28.7051C117.756 28.7051 117.566 28.6261 117.425 28.4855L115.304 26.3645C115.167 26.223 115.092 26.0336 115.093 25.8369C115.095 25.6403 115.174 25.4522 115.313 25.3131C115.452 25.1741 115.64 25.0952 115.837 25.0935C116.034 25.0918 116.223 25.1674 116.365 25.304L118.485 27.425C118.626 27.5656 118.705 27.7564 118.705 27.9553C118.705 28.1541 118.626 28.3449 118.485 28.4855ZM104.696 14.6975C104.555 14.8381 104.365 14.9171 104.166 14.9171C103.967 14.9171 103.776 14.8381 103.635 14.6975L101.514 12.575C101.443 12.5058 101.386 12.4231 101.346 12.3316C101.307 12.2401 101.286 12.1416 101.286 12.0421C101.285 11.9425 101.304 11.8437 101.341 11.7515C101.379 11.6594 101.435 11.5756 101.505 11.5052C101.576 11.4348 101.659 11.3791 101.752 11.3414C101.844 11.3037 101.942 11.2847 102.042 11.2856C102.142 11.2864 102.24 11.3071 102.332 11.3464C102.423 11.3857 102.506 11.4429 102.575 11.5145L104.696 13.6355C104.766 13.7052 104.821 13.7879 104.859 13.879C104.897 13.9702 104.916 14.0678 104.916 14.1665C104.916 14.2652 104.897 14.3628 104.859 14.454C104.821 14.5451 104.766 14.6278 104.696 14.6975V14.6975Z" fill="#FF96BB"/>
</g>
<g opacity="0.7">
<path d="M291 20C291 21.5913 290.368 23.1174 289.243 24.2426C288.117 25.3679 286.591 26 285 26C283.409 26 281.883 25.3679 280.757 24.2426C279.632 23.1174 279 21.5913 279 20C279 18.4087 279.632 16.8826 280.757 15.7574C281.883 14.6321 283.409 14 285 14C286.591 14 288.117 14.6321 289.243 15.7574C290.368 16.8826 291 18.4087 291 20V20ZM285 8C285.199 8 285.39 8.07902 285.53 8.21967C285.671 8.36032 285.75 8.55109 285.75 8.75V11.75C285.75 11.9489 285.671 12.1397 285.53 12.2803C285.39 12.421 285.199 12.5 285 12.5C284.801 12.5 284.61 12.421 284.47 12.2803C284.329 12.1397 284.25 11.9489 284.25 11.75V8.75C284.25 8.55109 284.329 8.36032 284.47 8.21967C284.61 8.07902 284.801 8 285 8V8ZM285 27.5C285.199 27.5 285.39 27.579 285.53 27.7197C285.671 27.8603 285.75 28.0511 285.75 28.25V31.25C285.75 31.4489 285.671 31.6397 285.53 31.7803C285.39 31.921 285.199 32 285 32C284.801 32 284.61 31.921 284.47 31.7803C284.329 31.6397 284.25 31.4489 284.25 31.25V28.25C284.25 28.0511 284.329 27.8603 284.47 27.7197C284.61 27.579 284.801 27.5 285 27.5V27.5ZM297 20C297 20.1989 296.921 20.3897 296.78 20.5303C296.64 20.671 296.449 20.75 296.25 20.75H293.25C293.051 20.75 292.86 20.671 292.72 20.5303C292.579 20.3897 292.5 20.1989 292.5 20C292.5 19.8011 292.579 19.6103 292.72 19.4697C292.86 19.329 293.051 19.25 293.25 19.25H296.25C296.449 19.25 296.64 19.329 296.78 19.4697C296.921 19.6103 297 19.8011 297 20ZM277.5 20C277.5 20.1989 277.421 20.3897 277.28 20.5303C277.14 20.671 276.949 20.75 276.75 20.75H273.75C273.551 20.75 273.36 20.671 273.22 20.5303C273.079 20.3897 273 20.1989 273 20C273 19.8011 273.079 19.6103 273.22 19.4697C273.36 19.329 273.551 19.25 273.75 19.25H276.75C276.949 19.25 277.14 19.329 277.28 19.4697C277.421 19.6103 277.5 19.8011 277.5 20ZM293.485 11.5145C293.626 11.6551 293.705 11.8459 293.705 12.0448C293.705 12.2436 293.626 12.4344 293.485 12.575L291.365 14.6975C291.295 14.7671 291.212 14.8224 291.121 14.86C291.03 14.8976 290.932 14.917 290.834 14.9169C290.635 14.9168 290.444 14.8376 290.303 14.6967C290.234 14.627 290.178 14.5443 290.141 14.4532C290.103 14.3621 290.084 14.2645 290.084 14.166C290.084 13.9669 290.163 13.7761 290.304 13.6355L292.425 11.5145C292.566 11.3739 292.756 11.2949 292.955 11.2949C293.154 11.2949 293.345 11.3739 293.485 11.5145V11.5145ZM279.696 25.304C279.837 25.4446 279.916 25.6354 279.916 25.8342C279.916 26.0331 279.837 26.2239 279.696 26.3645L277.575 28.4855C277.434 28.6221 277.244 28.6977 277.047 28.696C276.851 28.6943 276.663 28.6154 276.524 28.4764C276.385 28.3373 276.306 28.1492 276.304 27.9526C276.302 27.7559 276.378 27.5665 276.514 27.425L278.635 25.304C278.776 25.1634 278.967 25.0844 279.166 25.0844C279.365 25.0844 279.555 25.1634 279.696 25.304V25.304ZM293.485 28.4855C293.345 28.6261 293.154 28.7051 292.955 28.7051C292.756 28.7051 292.566 28.6261 292.425 28.4855L290.304 26.3645C290.167 26.223 290.092 26.0336 290.093 25.8369C290.095 25.6403 290.174 25.4522 290.313 25.3131C290.452 25.1741 290.64 25.0952 290.837 25.0935C291.034 25.0918 291.223 25.1674 291.365 25.304L293.485 27.425C293.626 27.5656 293.705 27.7564 293.705 27.9553C293.705 28.1541 293.626 28.3449 293.485 28.4855ZM279.696 14.6975C279.555 14.8381 279.365 14.9171 279.166 14.9171C278.967 14.9171 278.776 14.8381 278.635 14.6975L276.514 12.575C276.443 12.5058 276.386 12.4231 276.346 12.3316C276.307 12.2401 276.286 12.1416 276.286 12.0421C276.285 11.9425 276.304 11.8437 276.341 11.7515C276.379 11.6594 276.435 11.5756 276.505 11.5052C276.576 11.4348 276.659 11.3791 276.752 11.3414C276.844 11.3037 276.942 11.2847 277.042 11.2856C277.142 11.2864 277.24 11.3071 277.332 11.3464C277.423 11.3857 277.506 11.4429 277.575 11.5145L279.696 13.6355C279.766 13.7052 279.821 13.7879 279.859 13.879C279.897 13.9702 279.916 14.0678 279.916 14.1665C279.916 14.2652 279.897 14.3628 279.859 14.454C279.821 14.5451 279.766 14.6278 279.696 14.6975V14.6975Z" fill="#FF96BB"/>
</g>
<g opacity="0.7" clip-path="url(#clip6_2763_12553)">
<path d="M475.798 20C475.798 21.5913 475.166 23.1174 474.041 24.2426C472.916 25.3679 471.39 26 469.798 26C468.207 26 466.681 25.3679 465.556 24.2426C464.431 23.1174 463.798 21.5913 463.798 20C463.798 18.4087 464.431 16.8826 465.556 15.7574C466.681 14.6321 468.207 14 469.798 14C471.39 14 472.916 14.6321 474.041 15.7574C475.166 16.8826 475.798 18.4087 475.798 20V20ZM469.798 8C469.997 8 470.188 8.07902 470.329 8.21967C470.469 8.36032 470.548 8.55109 470.548 8.75V11.75C470.548 11.9489 470.469 12.1397 470.329 12.2803C470.188 12.421 469.997 12.5 469.798 12.5C469.6 12.5 469.409 12.421 469.268 12.2803C469.127 12.1397 469.048 11.9489 469.048 11.75V8.75C469.048 8.55109 469.127 8.36032 469.268 8.21967C469.409 8.07902 469.6 8 469.798 8V8ZM469.798 27.5C469.997 27.5 470.188 27.579 470.329 27.7197C470.469 27.8603 470.548 28.0511 470.548 28.25V31.25C470.548 31.4489 470.469 31.6397 470.329 31.7803C470.188 31.921 469.997 32 469.798 32C469.6 32 469.409 31.921 469.268 31.7803C469.127 31.6397 469.048 31.4489 469.048 31.25V28.25C469.048 28.0511 469.127 27.8603 469.268 27.7197C469.409 27.579 469.6 27.5 469.798 27.5V27.5ZM481.798 20C481.798 20.1989 481.719 20.3897 481.579 20.5303C481.438 20.671 481.247 20.75 481.048 20.75H478.048C477.85 20.75 477.659 20.671 477.518 20.5303C477.377 20.3897 477.298 20.1989 477.298 20C477.298 19.8011 477.377 19.6103 477.518 19.4697C477.659 19.329 477.85 19.25 478.048 19.25H481.048C481.247 19.25 481.438 19.329 481.579 19.4697C481.719 19.6103 481.798 19.8011 481.798 20ZM462.298 20C462.298 20.1989 462.219 20.3897 462.079 20.5303C461.938 20.671 461.747 20.75 461.548 20.75H458.548C458.35 20.75 458.159 20.671 458.018 20.5303C457.877 20.3897 457.798 20.1989 457.798 20C457.798 19.8011 457.877 19.6103 458.018 19.4697C458.159 19.329 458.35 19.25 458.548 19.25H461.548C461.747 19.25 461.938 19.329 462.079 19.4697C462.219 19.6103 462.298 19.8011 462.298 20ZM478.284 11.5145C478.425 11.6551 478.504 11.8459 478.504 12.0448C478.504 12.2436 478.425 12.4344 478.284 12.575L476.163 14.6975C476.093 14.7671 476.01 14.8224 475.919 14.86C475.828 14.8976 475.731 14.917 475.632 14.9169C475.433 14.9168 475.242 14.8376 475.102 14.6967C475.032 14.627 474.977 14.5443 474.939 14.4532C474.902 14.3621 474.882 14.2645 474.882 14.166C474.882 13.9669 474.962 13.7761 475.102 13.6355L477.223 11.5145C477.364 11.3739 477.555 11.2949 477.754 11.2949C477.953 11.2949 478.143 11.3739 478.284 11.5145V11.5145ZM464.494 25.304C464.635 25.4446 464.714 25.6354 464.714 25.8342C464.714 26.0331 464.635 26.2239 464.494 26.3645L462.373 28.4855C462.232 28.6221 462.043 28.6977 461.846 28.696C461.649 28.6943 461.461 28.6154 461.322 28.4764C461.183 28.3373 461.104 28.1492 461.102 27.9526C461.101 27.7559 461.176 27.5665 461.313 27.425L463.434 25.304C463.575 25.1634 463.765 25.0844 463.964 25.0844C464.163 25.0844 464.354 25.1634 464.494 25.304V25.304ZM478.284 28.4855C478.143 28.6261 477.953 28.7051 477.754 28.7051C477.555 28.7051 477.364 28.6261 477.223 28.4855L475.102 26.3645C474.966 26.223 474.89 26.0336 474.892 25.8369C474.894 25.6403 474.973 25.4522 475.112 25.3131C475.251 25.1741 475.439 25.0952 475.635 25.0935C475.832 25.0918 476.022 25.1674 476.163 25.304L478.284 27.425C478.425 27.5656 478.504 27.7564 478.504 27.9553C478.504 28.1541 478.425 28.3449 478.284 28.4855ZM464.494 14.6975C464.354 14.8381 464.163 14.9171 463.964 14.9171C463.765 14.9171 463.575 14.8381 463.434 14.6975L461.313 12.575C461.241 12.5058 461.184 12.4231 461.145 12.3316C461.106 12.2401 461.085 12.1416 461.084 12.0421C461.083 11.9425 461.102 11.8437 461.14 11.7515C461.178 11.6594 461.233 11.5756 461.304 11.5052C461.374 11.4348 461.458 11.3791 461.55 11.3414C461.642 11.3037 461.741 11.2847 461.841 11.2856C461.94 11.2864 462.039 11.3071 462.13 11.3464C462.222 11.3857 462.304 11.4429 462.373 11.5145L464.494 13.6355C464.564 13.7052 464.62 13.7879 464.658 13.879C464.695 13.9702 464.715 14.0678 464.715 14.1665C464.715 14.2652 464.695 14.3628 464.658 14.454C464.62 14.5451 464.564 14.6278 464.494 14.6975V14.6975Z" fill="#FF96BB"/>
<rect x="-1089.5" y="-1369.5" width="4818" height="1622" stroke="black" stroke-width="7"/>
</g>
<g opacity="0.7">
<path d="M87 20C87 21.5913 86.3679 23.1174 85.2426 24.2426C84.1174 25.3679 82.5913 26 81 26C79.4087 26 77.8826 25.3679 76.7574 24.2426C75.6321 23.1174 75 21.5913 75 20C75 18.4087 75.6321 16.8826 76.7574 15.7574C77.8826 14.6321 79.4087 14 81 14C82.5913 14 84.1174 14.6321 85.2426 15.7574C86.3679 16.8826 87 18.4087 87 20V20ZM81 8C81.1989 8 81.3897 8.07902 81.5303 8.21967C81.671 8.36032 81.75 8.55109 81.75 8.75V11.75C81.75 11.9489 81.671 12.1397 81.5303 12.2803C81.3897 12.421 81.1989 12.5 81 12.5C80.8011 12.5 80.6103 12.421 80.4697 12.2803C80.329 12.1397 80.25 11.9489 80.25 11.75V8.75C80.25 8.55109 80.329 8.36032 80.4697 8.21967C80.6103 8.07902 80.8011 8 81 8V8ZM81 27.5C81.1989 27.5 81.3897 27.579 81.5303 27.7197C81.671 27.8603 81.75 28.0511 81.75 28.25V31.25C81.75 31.4489 81.671 31.6397 81.5303 31.7803C81.3897 31.921 81.1989 32 81 32C80.8011 32 80.6103 31.921 80.4697 31.7803C80.329 31.6397 80.25 31.4489 80.25 31.25V28.25C80.25 28.0511 80.329 27.8603 80.4697 27.7197C80.6103 27.579 80.8011 27.5 81 27.5V27.5ZM93 20C93 20.1989 92.921 20.3897 92.7803 20.5303C92.6397 20.671 92.4489 20.75 92.25 20.75H89.25C89.0511 20.75 88.8603 20.671 88.7197 20.5303C88.579 20.3897 88.5 20.1989 88.5 20C88.5 19.8011 88.579 19.6103 88.7197 19.4697C88.8603 19.329 89.0511 19.25 89.25 19.25H92.25C92.4489 19.25 92.6397 19.329 92.7803 19.4697C92.921 19.6103 93 19.8011 93 20ZM73.5 20C73.5 20.1989 73.421 20.3897 73.2803 20.5303C73.1397 20.671 72.9489 20.75 72.75 20.75H69.75C69.5511 20.75 69.3603 20.671 69.2197 20.5303C69.079 20.3897 69 20.1989 69 20C69 19.8011 69.079 19.6103 69.2197 19.4697C69.3603 19.329 69.5511 19.25 69.75 19.25H72.75C72.9489 19.25 73.1397 19.329 73.2803 19.4697C73.421 19.6103 73.5 19.8011 73.5 20ZM89.4855 11.5145C89.6261 11.6551 89.7051 11.8459 89.7051 12.0448C89.7051 12.2436 89.6261 12.4344 89.4855 12.575L87.3645 14.6975C87.2948 14.7671 87.212 14.8224 87.1209 14.86C87.0299 14.8976 86.9323 14.917 86.8337 14.9169C86.6347 14.9168 86.4439 14.8376 86.3032 14.6967C86.2336 14.627 86.1784 14.5443 86.1408 14.4532C86.1031 14.3621 86.0838 14.2645 86.0838 14.166C86.084 13.9669 86.1632 13.7761 86.304 13.6355L88.425 11.5145C88.5656 11.3739 88.7564 11.2949 88.9553 11.2949C89.1541 11.2949 89.3449 11.3739 89.4855 11.5145V11.5145ZM75.696 25.304C75.8366 25.4446 75.9156 25.6354 75.9156 25.8342C75.9156 26.0331 75.8366 26.2239 75.696 26.3645L73.575 28.4855C73.4335 28.6221 73.2441 28.6977 73.0474 28.696C72.8508 28.6943 72.6627 28.6154 72.5236 28.4764C72.3846 28.3373 72.3057 28.1492 72.304 27.9526C72.3023 27.7559 72.3779 27.5665 72.5145 27.425L74.6355 25.304C74.7761 25.1634 74.9669 25.0844 75.1657 25.0844C75.3646 25.0844 75.5554 25.1634 75.696 25.304V25.304ZM89.4855 28.4855C89.3449 28.6261 89.1541 28.7051 88.9553 28.7051C88.7564 28.7051 88.5656 28.6261 88.425 28.4855L86.304 26.3645C86.1674 26.223 86.0918 26.0336 86.0935 25.8369C86.0952 25.6403 86.1741 25.4522 86.3131 25.3131C86.4522 25.1741 86.6403 25.0952 86.8369 25.0935C87.0336 25.0918 87.223 25.1674 87.3645 25.304L89.4855 27.425C89.6261 27.5656 89.7051 27.7564 89.7051 27.9553C89.7051 28.1541 89.6261 28.3449 89.4855 28.4855ZM75.696 14.6975C75.5554 14.8381 75.3646 14.9171 75.1657 14.9171C74.9669 14.9171 74.7761 14.8381 74.6355 14.6975L72.5145 12.575C72.4429 12.5058 72.3857 12.4231 72.3464 12.3316C72.3071 12.2401 72.2864 12.1416 72.2856 12.0421C72.2847 11.9425 72.3037 11.8437 72.3414 11.7515C72.3791 11.6594 72.4348 11.5756 72.5052 11.5052C72.5756 11.4348 72.6594 11.3791 72.7515 11.3414C72.8437 11.3037 72.9425 11.2847 73.0421 11.2856C73.1416 11.2864 73.2401 11.3071 73.3316 11.3464C73.4231 11.3857 73.5058 11.4429 73.575 11.5145L75.696 13.6355C75.7658 13.7052 75.8213 13.7879 75.8591 13.879C75.8969 13.9702 75.9163 14.0678 75.9163 14.1665C75.9163 14.2652 75.8969 14.3628 75.8591 14.454C75.8213 14.5451 75.7658 14.6278 75.696 14.6975V14.6975Z" fill="#FF96BB"/>
</g>
<g opacity="0.7">
<path d="M262 20C262 21.5913 261.368 23.1174 260.243 24.2426C259.117 25.3679 257.591 26 256 26C254.409 26 252.883 25.3679 251.757 24.2426C250.632 23.1174 250 21.5913 250 20C250 18.4087 250.632 16.8826 251.757 15.7574C252.883 14.6321 254.409 14 256 14C257.591 14 259.117 14.6321 260.243 15.7574C261.368 16.8826 262 18.4087 262 20V20ZM256 8C256.199 8 256.39 8.07902 256.53 8.21967C256.671 8.36032 256.75 8.55109 256.75 8.75V11.75C256.75 11.9489 256.671 12.1397 256.53 12.2803C256.39 12.421 256.199 12.5 256 12.5C255.801 12.5 255.61 12.421 255.47 12.2803C255.329 12.1397 255.25 11.9489 255.25 11.75V8.75C255.25 8.55109 255.329 8.36032 255.47 8.21967C255.61 8.07902 255.801 8 256 8V8ZM256 27.5C256.199 27.5 256.39 27.579 256.53 27.7197C256.671 27.8603 256.75 28.0511 256.75 28.25V31.25C256.75 31.4489 256.671 31.6397 256.53 31.7803C256.39 31.921 256.199 32 256 32C255.801 32 255.61 31.921 255.47 31.7803C255.329 31.6397 255.25 31.4489 255.25 31.25V28.25C255.25 28.0511 255.329 27.8603 255.47 27.7197C255.61 27.579 255.801 27.5 256 27.5V27.5ZM268 20C268 20.1989 267.921 20.3897 267.78 20.5303C267.64 20.671 267.449 20.75 267.25 20.75H264.25C264.051 20.75 263.86 20.671 263.72 20.5303C263.579 20.3897 263.5 20.1989 263.5 20C263.5 19.8011 263.579 19.6103 263.72 19.4697C263.86 19.329 264.051 19.25 264.25 19.25H267.25C267.449 19.25 267.64 19.329 267.78 19.4697C267.921 19.6103 268 19.8011 268 20ZM248.5 20C248.5 20.1989 248.421 20.3897 248.28 20.5303C248.14 20.671 247.949 20.75 247.75 20.75H244.75C244.551 20.75 244.36 20.671 244.22 20.5303C244.079 20.3897 244 20.1989 244 20C244 19.8011 244.079 19.6103 244.22 19.4697C244.36 19.329 244.551 19.25 244.75 19.25H247.75C247.949 19.25 248.14 19.329 248.28 19.4697C248.421 19.6103 248.5 19.8011 248.5 20ZM264.485 11.5145C264.626 11.6551 264.705 11.8459 264.705 12.0448C264.705 12.2436 264.626 12.4344 264.485 12.575L262.365 14.6975C262.295 14.7671 262.212 14.8224 262.121 14.86C262.03 14.8976 261.932 14.917 261.834 14.9169C261.635 14.9168 261.444 14.8376 261.303 14.6967C261.234 14.627 261.178 14.5443 261.141 14.4532C261.103 14.3621 261.084 14.2645 261.084 14.166C261.084 13.9669 261.163 13.7761 261.304 13.6355L263.425 11.5145C263.566 11.3739 263.756 11.2949 263.955 11.2949C264.154 11.2949 264.345 11.3739 264.485 11.5145V11.5145ZM250.696 25.304C250.837 25.4446 250.916 25.6354 250.916 25.8342C250.916 26.0331 250.837 26.2239 250.696 26.3645L248.575 28.4855C248.434 28.6221 248.244 28.6977 248.047 28.696C247.851 28.6943 247.663 28.6154 247.524 28.4764C247.385 28.3373 247.306 28.1492 247.304 27.9526C247.302 27.7559 247.378 27.5665 247.514 27.425L249.635 25.304C249.776 25.1634 249.967 25.0844 250.166 25.0844C250.365 25.0844 250.555 25.1634 250.696 25.304V25.304ZM264.485 28.4855C264.345 28.6261 264.154 28.7051 263.955 28.7051C263.756 28.7051 263.566 28.6261 263.425 28.4855L261.304 26.3645C261.167 26.223 261.092 26.0336 261.093 25.8369C261.095 25.6403 261.174 25.4522 261.313 25.3131C261.452 25.1741 261.64 25.0952 261.837 25.0935C262.034 25.0918 262.223 25.1674 262.365 25.304L264.485 27.425C264.626 27.5656 264.705 27.7564 264.705 27.9553C264.705 28.1541 264.626 28.3449 264.485 28.4855ZM250.696 14.6975C250.555 14.8381 250.365 14.9171 250.166 14.9171C249.967 14.9171 249.776 14.8381 249.635 14.6975L247.514 12.575C247.443 12.5058 247.386 12.4231 247.346 12.3316C247.307 12.2401 247.286 12.1416 247.286 12.0421C247.285 11.9425 247.304 11.8437 247.341 11.7515C247.379 11.6594 247.435 11.5756 247.505 11.5052C247.576 11.4348 247.659 11.3791 247.752 11.3414C247.844 11.3037 247.942 11.2847 248.042 11.2856C248.142 11.2864 248.24 11.3071 248.332 11.3464C248.423 11.3857 248.506 11.4429 248.575 11.5145L250.696 13.6355C250.766 13.7052 250.821 13.7879 250.859 13.879C250.897 13.9702 250.916 14.0678 250.916 14.1665C250.916 14.2652 250.897 14.3628 250.859 14.454C250.821 14.5451 250.766 14.6278 250.696 14.6975V14.6975Z" fill="#FF96BB"/>
</g>
<g opacity="0.7" clip-path="url(#clip7_2763_12553)">
<path d="M446.798 20C446.798 21.5913 446.166 23.1174 445.041 24.2426C443.916 25.3679 442.39 26 440.798 26C439.207 26 437.681 25.3679 436.556 24.2426C435.431 23.1174 434.798 21.5913 434.798 20C434.798 18.4087 435.431 16.8826 436.556 15.7574C437.681 14.6321 439.207 14 440.798 14C442.39 14 443.916 14.6321 445.041 15.7574C446.166 16.8826 446.798 18.4087 446.798 20V20ZM440.798 8C440.997 8 441.188 8.07902 441.329 8.21967C441.469 8.36032 441.548 8.55109 441.548 8.75V11.75C441.548 11.9489 441.469 12.1397 441.329 12.2803C441.188 12.421 440.997 12.5 440.798 12.5C440.6 12.5 440.409 12.421 440.268 12.2803C440.127 12.1397 440.048 11.9489 440.048 11.75V8.75C440.048 8.55109 440.127 8.36032 440.268 8.21967C440.409 8.07902 440.6 8 440.798 8V8ZM440.798 27.5C440.997 27.5 441.188 27.579 441.329 27.7197C441.469 27.8603 441.548 28.0511 441.548 28.25V31.25C441.548 31.4489 441.469 31.6397 441.329 31.7803C441.188 31.921 440.997 32 440.798 32C440.6 32 440.409 31.921 440.268 31.7803C440.127 31.6397 440.048 31.4489 440.048 31.25V28.25C440.048 28.0511 440.127 27.8603 440.268 27.7197C440.409 27.579 440.6 27.5 440.798 27.5V27.5ZM452.798 20C452.798 20.1989 452.719 20.3897 452.579 20.5303C452.438 20.671 452.247 20.75 452.048 20.75H449.048C448.85 20.75 448.659 20.671 448.518 20.5303C448.377 20.3897 448.298 20.1989 448.298 20C448.298 19.8011 448.377 19.6103 448.518 19.4697C448.659 19.329 448.85 19.25 449.048 19.25H452.048C452.247 19.25 452.438 19.329 452.579 19.4697C452.719 19.6103 452.798 19.8011 452.798 20ZM433.298 20C433.298 20.1989 433.219 20.3897 433.079 20.5303C432.938 20.671 432.747 20.75 432.548 20.75H429.548C429.35 20.75 429.159 20.671 429.018 20.5303C428.877 20.3897 428.798 20.1989 428.798 20C428.798 19.8011 428.877 19.6103 429.018 19.4697C429.159 19.329 429.35 19.25 429.548 19.25H432.548C432.747 19.25 432.938 19.329 433.079 19.4697C433.219 19.6103 433.298 19.8011 433.298 20ZM449.284 11.5145C449.425 11.6551 449.504 11.8459 449.504 12.0448C449.504 12.2436 449.425 12.4344 449.284 12.575L447.163 14.6975C447.093 14.7671 447.01 14.8224 446.919 14.86C446.828 14.8976 446.731 14.917 446.632 14.9169C446.433 14.9168 446.242 14.8376 446.102 14.6967C446.032 14.627 445.977 14.5443 445.939 14.4532C445.902 14.3621 445.882 14.2645 445.882 14.166C445.882 13.9669 445.962 13.7761 446.102 13.6355L448.223 11.5145C448.364 11.3739 448.555 11.2949 448.754 11.2949C448.953 11.2949 449.143 11.3739 449.284 11.5145V11.5145ZM435.494 25.304C435.635 25.4446 435.714 25.6354 435.714 25.8342C435.714 26.0331 435.635 26.2239 435.494 26.3645L433.373 28.4855C433.232 28.6221 433.043 28.6977 432.846 28.696C432.649 28.6943 432.461 28.6154 432.322 28.4764C432.183 28.3373 432.104 28.1492 432.102 27.9526C432.101 27.7559 432.176 27.5665 432.313 27.425L434.434 25.304C434.575 25.1634 434.765 25.0844 434.964 25.0844C435.163 25.0844 435.354 25.1634 435.494 25.304V25.304ZM449.284 28.4855C449.143 28.6261 448.953 28.7051 448.754 28.7051C448.555 28.7051 448.364 28.6261 448.223 28.4855L446.102 26.3645C445.966 26.223 445.89 26.0336 445.892 25.8369C445.894 25.6403 445.973 25.4522 446.112 25.3131C446.251 25.1741 446.439 25.0952 446.635 25.0935C446.832 25.0918 447.022 25.1674 447.163 25.304L449.284 27.425C449.425 27.5656 449.504 27.7564 449.504 27.9553C449.504 28.1541 449.425 28.3449 449.284 28.4855ZM435.494 14.6975C435.354 14.8381 435.163 14.9171 434.964 14.9171C434.765 14.9171 434.575 14.8381 434.434 14.6975L432.313 12.575C432.241 12.5058 432.184 12.4231 432.145 12.3316C432.106 12.2401 432.085 12.1416 432.084 12.0421C432.083 11.9425 432.102 11.8437 432.14 11.7515C432.178 11.6594 432.233 11.5756 432.304 11.5052C432.374 11.4348 432.458 11.3791 432.55 11.3414C432.642 11.3037 432.741 11.2847 432.841 11.2856C432.94 11.2864 433.039 11.3071 433.13 11.3464C433.222 11.3857 433.304 11.4429 433.373 11.5145L435.494 13.6355C435.564 13.7052 435.62 13.7879 435.658 13.879C435.695 13.9702 435.715 14.0678 435.715 14.1665C435.715 14.2652 435.695 14.3628 435.658 14.454C435.62 14.5451 435.564 14.6278 435.494 14.6975V14.6975Z" fill="#FF96BB"/>
</g>
<g opacity="0.7">
<path d="M58 20C58 21.5913 57.3679 23.1174 56.2426 24.2426C55.1174 25.3679 53.5913 26 52 26C50.4087 26 48.8826 25.3679 47.7574 24.2426C46.6321 23.1174 46 21.5913 46 20C46 18.4087 46.6321 16.8826 47.7574 15.7574C48.8826 14.6321 50.4087 14 52 14C53.5913 14 55.1174 14.6321 56.2426 15.7574C57.3679 16.8826 58 18.4087 58 20V20ZM52 8C52.1989 8 52.3897 8.07902 52.5303 8.21967C52.671 8.36032 52.75 8.55109 52.75 8.75V11.75C52.75 11.9489 52.671 12.1397 52.5303 12.2803C52.3897 12.421 52.1989 12.5 52 12.5C51.8011 12.5 51.6103 12.421 51.4697 12.2803C51.329 12.1397 51.25 11.9489 51.25 11.75V8.75C51.25 8.55109 51.329 8.36032 51.4697 8.21967C51.6103 8.07902 51.8011 8 52 8V8ZM52 27.5C52.1989 27.5 52.3897 27.579 52.5303 27.7197C52.671 27.8603 52.75 28.0511 52.75 28.25V31.25C52.75 31.4489 52.671 31.6397 52.5303 31.7803C52.3897 31.921 52.1989 32 52 32C51.8011 32 51.6103 31.921 51.4697 31.7803C51.329 31.6397 51.25 31.4489 51.25 31.25V28.25C51.25 28.0511 51.329 27.8603 51.4697 27.7197C51.6103 27.579 51.8011 27.5 52 27.5V27.5ZM64 20C64 20.1989 63.921 20.3897 63.7803 20.5303C63.6397 20.671 63.4489 20.75 63.25 20.75H60.25C60.0511 20.75 59.8603 20.671 59.7197 20.5303C59.579 20.3897 59.5 20.1989 59.5 20C59.5 19.8011 59.579 19.6103 59.7197 19.4697C59.8603 19.329 60.0511 19.25 60.25 19.25H63.25C63.4489 19.25 63.6397 19.329 63.7803 19.4697C63.921 19.6103 64 19.8011 64 20ZM44.5 20C44.5 20.1989 44.421 20.3897 44.2803 20.5303C44.1397 20.671 43.9489 20.75 43.75 20.75H40.75C40.5511 20.75 40.3603 20.671 40.2197 20.5303C40.079 20.3897 40 20.1989 40 20C40 19.8011 40.079 19.6103 40.2197 19.4697C40.3603 19.329 40.5511 19.25 40.75 19.25H43.75C43.9489 19.25 44.1397 19.329 44.2803 19.4697C44.421 19.6103 44.5 19.8011 44.5 20ZM60.4855 11.5145C60.6261 11.6551 60.7051 11.8459 60.7051 12.0448C60.7051 12.2436 60.6261 12.4344 60.4855 12.575L58.3645 14.6975C58.2948 14.7671 58.212 14.8224 58.1209 14.86C58.0299 14.8976 57.9323 14.917 57.8337 14.9169C57.6347 14.9168 57.4439 14.8376 57.3032 14.6967C57.2336 14.627 57.1784 14.5443 57.1408 14.4532C57.1031 14.3621 57.0838 14.2645 57.0838 14.166C57.084 13.9669 57.1632 13.7761 57.304 13.6355L59.425 11.5145C59.5656 11.3739 59.7564 11.2949 59.9553 11.2949C60.1541 11.2949 60.3449 11.3739 60.4855 11.5145V11.5145ZM46.696 25.304C46.8366 25.4446 46.9156 25.6354 46.9156 25.8342C46.9156 26.0331 46.8366 26.2239 46.696 26.3645L44.575 28.4855C44.4335 28.6221 44.2441 28.6977 44.0474 28.696C43.8508 28.6943 43.6627 28.6154 43.5236 28.4764C43.3846 28.3373 43.3057 28.1492 43.304 27.9526C43.3023 27.7559 43.3779 27.5665 43.5145 27.425L45.6355 25.304C45.7761 25.1634 45.9669 25.0844 46.1657 25.0844C46.3646 25.0844 46.5554 25.1634 46.696 25.304V25.304ZM60.4855 28.4855C60.3449 28.6261 60.1541 28.7051 59.9553 28.7051C59.7564 28.7051 59.5656 28.6261 59.425 28.4855L57.304 26.3645C57.1674 26.223 57.0918 26.0336 57.0935 25.8369C57.0952 25.6403 57.1741 25.4522 57.3131 25.3131C57.4522 25.1741 57.6403 25.0952 57.8369 25.0935C58.0336 25.0918 58.223 25.1674 58.3645 25.304L60.4855 27.425C60.6261 27.5656 60.7051 27.7564 60.7051 27.9553C60.7051 28.1541 60.6261 28.3449 60.4855 28.4855ZM46.696 14.6975C46.5554 14.8381 46.3646 14.9171 46.1657 14.9171C45.9669 14.9171 45.7761 14.8381 45.6355 14.6975L43.5145 12.575C43.4429 12.5058 43.3857 12.4231 43.3464 12.3316C43.3071 12.2401 43.2864 12.1416 43.2856 12.0421C43.2847 11.9425 43.3037 11.8437 43.3414 11.7515C43.3791 11.6594 43.4348 11.5756 43.5052 11.5052C43.5756 11.4348 43.6594 11.3791 43.7515 11.3414C43.8437 11.3037 43.9425 11.2847 44.0421 11.2856C44.1416 11.2864 44.2401 11.3071 44.3316 11.3464C44.4231 11.3857 44.5058 11.4429 44.575 11.5145L46.696 13.6355C46.7658 13.7052 46.8213 13.7879 46.8591 13.879C46.8969 13.9702 46.9163 14.0678 46.9163 14.1665C46.9163 14.2652 46.8969 14.3628 46.8591 14.454C46.8213 14.5451 46.7658 14.6278 46.696 14.6975V14.6975Z" fill="#FF96BB"/>
</g>
<g opacity="0.7">
<path d="M233 20C233 21.5913 232.368 23.1174 231.243 24.2426C230.117 25.3679 228.591 26 227 26C225.409 26 223.883 25.3679 222.757 24.2426C221.632 23.1174 221 21.5913 221 20C221 18.4087 221.632 16.8826 222.757 15.7574C223.883 14.6321 225.409 14 227 14C228.591 14 230.117 14.6321 231.243 15.7574C232.368 16.8826 233 18.4087 233 20V20ZM227 8C227.199 8 227.39 8.07902 227.53 8.21967C227.671 8.36032 227.75 8.55109 227.75 8.75V11.75C227.75 11.9489 227.671 12.1397 227.53 12.2803C227.39 12.421 227.199 12.5 227 12.5C226.801 12.5 226.61 12.421 226.47 12.2803C226.329 12.1397 226.25 11.9489 226.25 11.75V8.75C226.25 8.55109 226.329 8.36032 226.47 8.21967C226.61 8.07902 226.801 8 227 8V8ZM227 27.5C227.199 27.5 227.39 27.579 227.53 27.7197C227.671 27.8603 227.75 28.0511 227.75 28.25V31.25C227.75 31.4489 227.671 31.6397 227.53 31.7803C227.39 31.921 227.199 32 227 32C226.801 32 226.61 31.921 226.47 31.7803C226.329 31.6397 226.25 31.4489 226.25 31.25V28.25C226.25 28.0511 226.329 27.8603 226.47 27.7197C226.61 27.579 226.801 27.5 227 27.5V27.5ZM239 20C239 20.1989 238.921 20.3897 238.78 20.5303C238.64 20.671 238.449 20.75 238.25 20.75H235.25C235.051 20.75 234.86 20.671 234.72 20.5303C234.579 20.3897 234.5 20.1989 234.5 20C234.5 19.8011 234.579 19.6103 234.72 19.4697C234.86 19.329 235.051 19.25 235.25 19.25H238.25C238.449 19.25 238.64 19.329 238.78 19.4697C238.921 19.6103 239 19.8011 239 20ZM219.5 20C219.5 20.1989 219.421 20.3897 219.28 20.5303C219.14 20.671 218.949 20.75 218.75 20.75H215.75C215.551 20.75 215.36 20.671 215.22 20.5303C215.079 20.3897 215 20.1989 215 20C215 19.8011 215.079 19.6103 215.22 19.4697C215.36 19.329 215.551 19.25 215.75 19.25H218.75C218.949 19.25 219.14 19.329 219.28 19.4697C219.421 19.6103 219.5 19.8011 219.5 20ZM235.485 11.5145C235.626 11.6551 235.705 11.8459 235.705 12.0448C235.705 12.2436 235.626 12.4344 235.485 12.575L233.365 14.6975C233.295 14.7671 233.212 14.8224 233.121 14.86C233.03 14.8976 232.932 14.917 232.834 14.9169C232.635 14.9168 232.444 14.8376 232.303 14.6967C232.234 14.627 232.178 14.5443 232.141 14.4532C232.103 14.3621 232.084 14.2645 232.084 14.166C232.084 13.9669 232.163 13.7761 232.304 13.6355L234.425 11.5145C234.566 11.3739 234.756 11.2949 234.955 11.2949C235.154 11.2949 235.345 11.3739 235.485 11.5145V11.5145ZM221.696 25.304C221.837 25.4446 221.916 25.6354 221.916 25.8342C221.916 26.0331 221.837 26.2239 221.696 26.3645L219.575 28.4855C219.434 28.6221 219.244 28.6977 219.047 28.696C218.851 28.6943 218.663 28.6154 218.524 28.4764C218.385 28.3373 218.306 28.1492 218.304 27.9526C218.302 27.7559 218.378 27.5665 218.514 27.425L220.635 25.304C220.776 25.1634 220.967 25.0844 221.166 25.0844C221.365 25.0844 221.555 25.1634 221.696 25.304V25.304ZM235.485 28.4855C235.345 28.6261 235.154 28.7051 234.955 28.7051C234.756 28.7051 234.566 28.6261 234.425 28.4855L232.304 26.3645C232.167 26.223 232.092 26.0336 232.093 25.8369C232.095 25.6403 232.174 25.4522 232.313 25.3131C232.452 25.1741 232.64 25.0952 232.837 25.0935C233.034 25.0918 233.223 25.1674 233.365 25.304L235.485 27.425C235.626 27.5656 235.705 27.7564 235.705 27.9553C235.705 28.1541 235.626 28.3449 235.485 28.4855ZM221.696 14.6975C221.555 14.8381 221.365 14.9171 221.166 14.9171C220.967 14.9171 220.776 14.8381 220.635 14.6975L218.514 12.575C218.443 12.5058 218.386 12.4231 218.346 12.3316C218.307 12.2401 218.286 12.1416 218.286 12.0421C218.285 11.9425 218.304 11.8437 218.341 11.7515C218.379 11.6594 218.435 11.5756 218.505 11.5052C218.576 11.4348 218.659 11.3791 218.752 11.3414C218.844 11.3037 218.942 11.2847 219.042 11.2856C219.142 11.2864 219.24 11.3071 219.332 11.3464C219.423 11.3857 219.506 11.4429 219.575 11.5145L221.696 13.6355C221.766 13.7052 221.821 13.7879 221.859 13.879C221.897 13.9702 221.916 14.0678 221.916 14.1665C221.916 14.2652 221.897 14.3628 221.859 14.454C221.821 14.5451 221.766 14.6278 221.696 14.6975V14.6975Z" fill="#FF96BB"/>
</g>
<g opacity="0.7" clip-path="url(#clip8_2763_12553)">
<path d="M417.798 20C417.798 21.5913 417.166 23.1174 416.041 24.2426C414.916 25.3679 413.39 26 411.798 26C410.207 26 408.681 25.3679 407.556 24.2426C406.431 23.1174 405.798 21.5913 405.798 20C405.798 18.4087 406.431 16.8826 407.556 15.7574C408.681 14.6321 410.207 14 411.798 14C413.39 14 414.916 14.6321 416.041 15.7574C417.166 16.8826 417.798 18.4087 417.798 20V20ZM411.798 8C411.997 8 412.188 8.07902 412.329 8.21967C412.469 8.36032 412.548 8.55109 412.548 8.75V11.75C412.548 11.9489 412.469 12.1397 412.329 12.2803C412.188 12.421 411.997 12.5 411.798 12.5C411.6 12.5 411.409 12.421 411.268 12.2803C411.127 12.1397 411.048 11.9489 411.048 11.75V8.75C411.048 8.55109 411.127 8.36032 411.268 8.21967C411.409 8.07902 411.6 8 411.798 8V8ZM411.798 27.5C411.997 27.5 412.188 27.579 412.329 27.7197C412.469 27.8603 412.548 28.0511 412.548 28.25V31.25C412.548 31.4489 412.469 31.6397 412.329 31.7803C412.188 31.921 411.997 32 411.798 32C411.6 32 411.409 31.921 411.268 31.7803C411.127 31.6397 411.048 31.4489 411.048 31.25V28.25C411.048 28.0511 411.127 27.8603 411.268 27.7197C411.409 27.579 411.6 27.5 411.798 27.5V27.5ZM423.798 20C423.798 20.1989 423.719 20.3897 423.579 20.5303C423.438 20.671 423.247 20.75 423.048 20.75H420.048C419.85 20.75 419.659 20.671 419.518 20.5303C419.377 20.3897 419.298 20.1989 419.298 20C419.298 19.8011 419.377 19.6103 419.518 19.4697C419.659 19.329 419.85 19.25 420.048 19.25H423.048C423.247 19.25 423.438 19.329 423.579 19.4697C423.719 19.6103 423.798 19.8011 423.798 20ZM404.298 20C404.298 20.1989 404.219 20.3897 404.079 20.5303C403.938 20.671 403.747 20.75 403.548 20.75H400.548C400.35 20.75 400.159 20.671 400.018 20.5303C399.877 20.3897 399.798 20.1989 399.798 20C399.798 19.8011 399.877 19.6103 400.018 19.4697C400.159 19.329 400.35 19.25 400.548 19.25H403.548C403.747 19.25 403.938 19.329 404.079 19.4697C404.219 19.6103 404.298 19.8011 404.298 20ZM420.284 11.5145C420.425 11.6551 420.504 11.8459 420.504 12.0448C420.504 12.2436 420.425 12.4344 420.284 12.575L418.163 14.6975C418.093 14.7671 418.01 14.8224 417.919 14.86C417.828 14.8976 417.731 14.917 417.632 14.9169C417.433 14.9168 417.242 14.8376 417.102 14.6967C417.032 14.627 416.977 14.5443 416.939 14.4532C416.902 14.3621 416.882 14.2645 416.882 14.166C416.882 13.9669 416.962 13.7761 417.102 13.6355L419.223 11.5145C419.364 11.3739 419.555 11.2949 419.754 11.2949C419.953 11.2949 420.143 11.3739 420.284 11.5145V11.5145ZM406.494 25.304C406.635 25.4446 406.714 25.6354 406.714 25.8342C406.714 26.0331 406.635 26.2239 406.494 26.3645L404.373 28.4855C404.232 28.6221 404.043 28.6977 403.846 28.696C403.649 28.6943 403.461 28.6154 403.322 28.4764C403.183 28.3373 403.104 28.1492 403.102 27.9526C403.101 27.7559 403.176 27.5665 403.313 27.425L405.434 25.304C405.575 25.1634 405.765 25.0844 405.964 25.0844C406.163 25.0844 406.354 25.1634 406.494 25.304V25.304ZM420.284 28.4855C420.143 28.6261 419.953 28.7051 419.754 28.7051C419.555 28.7051 419.364 28.6261 419.223 28.4855L417.102 26.3645C416.966 26.223 416.89 26.0336 416.892 25.8369C416.894 25.6403 416.973 25.4522 417.112 25.3131C417.251 25.1741 417.439 25.0952 417.635 25.0935C417.832 25.0918 418.022 25.1674 418.163 25.304L420.284 27.425C420.425 27.5656 420.504 27.7564 420.504 27.9553C420.504 28.1541 420.425 28.3449 420.284 28.4855ZM406.494 14.6975C406.354 14.8381 406.163 14.9171 405.964 14.9171C405.765 14.9171 405.575 14.8381 405.434 14.6975L403.313 12.575C403.241 12.5058 403.184 12.4231 403.145 12.3316C403.106 12.2401 403.085 12.1416 403.084 12.0421C403.083 11.9425 403.102 11.8437 403.14 11.7515C403.178 11.6594 403.233 11.5756 403.304 11.5052C403.374 11.4348 403.458 11.3791 403.55 11.3414C403.642 11.3037 403.741 11.2847 403.841 11.2856C403.94 11.2864 404.039 11.3071 404.13 11.3464C404.222 11.3857 404.304 11.4429 404.373 11.5145L406.494 13.6355C406.564 13.7052 406.62 13.7879 406.658 13.879C406.695 13.9702 406.715 14.0678 406.715 14.1665C406.715 14.2652 406.695 14.3628 406.658 14.454C406.62 14.5451 406.564 14.6278 406.494 14.6975V14.6975Z" fill="#FF96BB"/>
</g>
<defs>
<clipPath id="clip0_2763_12553">
<rect width="24" height="24" fill="white" transform="translate(370.798 74)"/>
</clipPath>
<clipPath id="clip1_2763_12553">
<rect width="24" height="24" fill="white" transform="translate(398.798 74)"/>
</clipPath>
<clipPath id="clip2_2763_12553">
<rect width="24" height="24" fill="white" transform="translate(405.798 40)"/>
</clipPath>
<clipPath id="clip3_2763_12553">
<rect width="24" height="24" fill="white" transform="translate(375.798 40)"/>
</clipPath>
<clipPath id="clip4_2763_12553">
<rect width="24" height="24" fill="white" transform="translate(465.798 40)"/>
</clipPath>
<clipPath id="clip5_2763_12553">
<rect width="24" height="24" fill="white" transform="translate(435.798 40)"/>
</clipPath>
<clipPath id="clip6_2763_12553">
<rect width="24" height="24" fill="white" transform="translate(457.798 8)"/>
</clipPath>
<clipPath id="clip7_2763_12553">
<rect width="24" height="24" fill="white" transform="translate(428.798 8)"/>
</clipPath>
<clipPath id="clip8_2763_12553">
<rect width="24" height="24" fill="white" transform="translate(399.798 8)"/>
</clipPath>
</defs>
</svg>
