<svg width="401" height="64" viewBox="0 0 401 64" fill="none" xmlns="http://www.w3.org/2000/svg">
<path d="M43.0007 40.75H42.9992C36.7866 40.75 31.75 45.787 31.75 52C31.75 58.2134 36.7866 63.25 42.9992 63.25H43.0007C49.2134 63.25 54.25 58.213 54.25 52C54.25 45.787 49.2134 40.75 43.0007 40.75ZM32.5 52C32.5 46.2014 37.201 41.5 42.9992 41.5C43.0907 41.5 43.18 41.5049 43.2711 41.5071C43.5516 43.135 43.7507 47.218 43.7507 52C43.7507 56.7827 43.5516 60.8654 43.2711 62.4936C43.18 62.4955 43.0907 62.5 42.9992 62.5C37.201 62.5 32.5 57.7994 32.5 52Z" fill="white"/>
<path d="M13.0004 40.75H12.9992C6.78662 40.75 1.75 45.787 1.75 52C1.75 58.213 6.78662 63.25 12.9992 63.25H13.0004C19.2134 63.25 24.25 58.213 24.25 52C24.25 45.787 19.2134 40.75 13.0004 40.75ZM2.5 52C2.5 47.164 5.77075 43.0938 10.2194 41.8746C8.09237 43.6975 6.62575 47.5465 6.62575 52C6.62575 56.4535 8.09237 60.3025 10.2194 62.1254C5.77075 60.9062 2.5 56.836 2.5 52Z" fill="white"/>
<path d="M133 40.75C126.787 40.75 121.75 45.787 121.75 52C121.75 58.213 126.787 63.25 133 63.25C139.213 63.25 144.25 58.213 144.25 52C144.25 45.787 139.213 40.75 133 40.75ZM135.781 62.1246C137.908 60.3018 139.375 56.4535 139.375 52C139.375 47.5465 137.908 43.6983 135.781 41.8754C140.23 43.0945 143.5 47.164 143.5 52C143.5 56.836 140.23 60.9055 135.781 62.1246Z" fill="white"/>
<path d="M114.25 52C114.25 45.787 109.213 40.7504 103 40.75H103C96.787 40.75 91.75 45.787 91.75 52C91.75 58.213 96.787 63.25 103 63.25H103C109.213 63.2496 114.25 58.213 114.25 52ZM103 62.5C102.91 62.5 102.82 62.4955 102.73 62.4929C102.45 60.8654 102.25 56.7824 102.25 52C102.25 47.2176 102.45 43.1346 102.73 41.5071C102.82 41.5045 102.91 41.5 103 41.5C108.799 41.5 113.5 46.201 113.5 52C113.5 57.799 108.799 62.5 103 62.5Z" fill="white"/>
<path d="M174.25 52C174.25 45.787 169.213 40.75 163 40.75H163C156.787 40.75 151.75 45.787 151.75 52C151.75 58.213 156.787 63.25 163 63.25H163C169.213 63.25 174.25 58.213 174.25 52ZM163 62.5C162.037 62.5 161.105 62.3676 160.219 62.125C158.092 60.3018 156.625 56.4535 156.625 52C156.625 47.5465 158.092 43.6983 160.219 41.875C161.105 41.6324 162.037 41.5 163 41.5C168.799 41.5 173.5 46.201 173.5 52C173.5 57.799 168.799 62.5 163 62.5Z" fill="white"/>
<path d="M73 63.25C79.2132 63.25 84.25 58.2132 84.25 52C84.25 45.7868 79.2132 40.75 73 40.75C66.7868 40.75 61.75 45.7868 61.75 52C61.75 58.2132 66.7868 63.25 73 63.25Z" fill="white"/>
<path d="M229.001 40.75H228.999C222.787 40.75 217.75 45.787 217.75 52C217.75 58.2134 222.787 63.25 228.999 63.25H229.001C235.213 63.25 240.25 58.213 240.25 52C240.25 45.787 235.213 40.75 229.001 40.75ZM218.5 52C218.5 46.2014 223.201 41.5 228.999 41.5C229.091 41.5 229.18 41.5049 229.271 41.5071C229.552 43.135 229.751 47.218 229.751 52C229.751 56.7827 229.552 60.8654 229.271 62.4936C229.18 62.4955 229.091 62.5 228.999 62.5C223.201 62.5 218.5 57.7994 218.5 52Z" fill="white"/>
<path d="M199 40.75H198.999C192.787 40.75 187.75 45.787 187.75 52C187.75 58.213 192.787 63.25 198.999 63.25H199C205.213 63.25 210.25 58.213 210.25 52C210.25 45.787 205.213 40.75 199 40.75ZM188.5 52C188.5 47.164 191.771 43.0938 196.219 41.8746C194.092 43.6975 192.626 47.5465 192.626 52C192.626 56.4535 194.092 60.3025 196.219 62.1254C191.771 60.9062 188.5 56.836 188.5 52Z" fill="white"/>
<g clip-path="url(#clip0_2861_10219)">
<path d="M383.799 40.75H383.798C377.585 40.75 372.549 45.787 372.549 52C372.549 58.213 377.585 63.25 383.798 63.25H383.799C390.012 63.25 395.049 58.213 395.049 52C395.049 45.787 390.012 40.75 383.799 40.75ZM373.299 52C373.299 47.164 376.569 43.0938 381.018 41.8746C378.891 43.6975 377.424 47.5465 377.424 52C377.424 56.4535 378.891 60.3025 381.018 62.1254C376.569 60.9062 373.299 56.836 373.299 52Z" fill="white"/>
</g>
<path d="M319 40.75C312.787 40.75 307.75 45.787 307.75 52C307.75 58.213 312.787 63.25 319 63.25C325.213 63.25 330.25 58.213 330.25 52C330.25 45.787 325.213 40.75 319 40.75ZM321.781 62.1246C323.908 60.3018 325.375 56.4535 325.375 52C325.375 47.5465 323.908 43.6983 321.781 41.8754C326.23 43.0945 329.5 47.164 329.5 52C329.5 56.836 326.23 60.9055 321.781 62.1246Z" fill="white"/>
<path d="M300.25 52C300.25 45.787 295.213 40.7504 289 40.75H289C282.787 40.75 277.75 45.787 277.75 52C277.75 58.213 282.787 63.25 289 63.25H289C295.213 63.2496 300.25 58.213 300.25 52ZM289 62.5C288.91 62.5 288.82 62.4955 288.73 62.4929C288.45 60.8654 288.25 56.7824 288.25 52C288.25 47.2176 288.45 43.1346 288.73 41.5071C288.82 41.5045 288.91 41.5 289 41.5C294.799 41.5 299.5 46.201 299.5 52C299.5 57.799 294.799 62.5 289 62.5Z" fill="white"/>
<path d="M360.25 52C360.25 45.787 355.213 40.75 349 40.75H349C342.787 40.75 337.75 45.787 337.75 52C337.75 58.213 342.787 63.25 349 63.25H349C355.213 63.25 360.25 58.213 360.25 52ZM349 62.5C348.037 62.5 347.105 62.3676 346.219 62.125C344.092 60.3018 342.625 56.4535 342.625 52C342.625 47.5465 344.092 43.6983 346.219 41.875C347.105 41.6324 348.037 41.5 349 41.5C354.799 41.5 359.5 46.201 359.5 52C359.5 57.799 354.799 62.5 349 62.5Z" fill="white"/>
<path d="M259 63.25C265.213 63.25 270.25 58.2132 270.25 52C270.25 45.7868 265.213 40.75 259 40.75C252.787 40.75 247.75 45.7868 247.75 52C247.75 58.2132 252.787 63.25 259 63.25Z" fill="white"/>
<path opacity="0.7" d="M23.9685 12.5712C24.7338 11.7297 26.0863 12.6153 25.6208 13.6532L23.988 17.2944C23.7281 17.8739 24.0672 18.5456 24.6877 18.6807L28.587 19.5296C29.6984 19.7716 29.6077 21.3857 28.4761 21.5015L24.5063 21.9081C23.8745 21.9728 23.4623 22.6023 23.6556 23.2072L24.87 27.0085C25.2162 28.0921 23.773 28.8205 23.1069 27.8985L20.7699 24.6638C20.398 24.149 19.6467 24.1068 19.2195 24.5766L16.5346 27.529C15.7694 28.3706 14.4169 27.485 14.8824 26.4471L16.5152 22.8058C16.7751 22.2263 16.436 21.5546 15.8155 21.4195L11.9162 20.5706C10.8048 20.3286 10.8955 18.7146 12.0271 18.5987L15.9969 18.1921C16.6287 18.1274 17.0409 17.4979 16.8476 16.893L15.6331 13.0917C15.287 12.0082 16.7302 11.2797 17.3963 12.2017L19.7333 15.4365C20.1052 15.9512 20.8565 15.9934 21.2837 15.5236L23.9685 12.5712Z" fill="white"/>
<path opacity="0.7" d="M198.969 12.5712C199.734 11.7297 201.086 12.6153 200.621 13.6532L198.988 17.2944C198.728 17.8739 199.067 18.5456 199.688 18.6807L203.587 19.5296C204.698 19.7716 204.608 21.3857 203.476 21.5015L199.506 21.9081C198.875 21.9728 198.462 22.6023 198.656 23.2072L199.87 27.0085C200.216 28.0921 198.773 28.8205 198.107 27.8985L195.77 24.6638C195.398 24.149 194.647 24.1068 194.219 24.5766L191.535 27.529C190.769 28.3706 189.417 27.485 189.882 26.4471L191.515 22.8058C191.775 22.2263 191.436 21.5546 190.815 21.4195L186.916 20.5706C185.805 20.3286 185.895 18.7146 187.027 18.5987L190.997 18.1921C191.629 18.1274 192.041 17.4979 191.848 16.893L190.633 13.0917C190.287 12.0082 191.73 11.2797 192.396 12.2017L194.733 15.4365C195.105 15.9512 195.856 15.9934 196.284 15.5236L198.969 12.5712Z" fill="white"/>
<path opacity="0.7" d="M383.767 12.5712C384.532 11.7297 385.885 12.6153 385.419 13.6532L383.787 17.2944C383.527 17.8739 383.866 18.5456 384.486 18.6807L388.386 19.5296C389.497 19.7716 389.406 21.3857 388.275 21.5015L384.305 21.9081C383.673 21.9728 383.261 22.6023 383.454 23.2072L384.669 27.0085C385.015 28.0921 383.572 28.8205 382.905 27.8985L380.568 24.6638C380.197 24.149 379.445 24.1068 379.018 24.5766L376.333 27.529C375.568 28.3706 374.216 27.485 374.681 26.4471L376.314 22.8058C376.574 22.2263 376.235 21.5546 375.614 21.4195L371.715 20.5706C370.603 20.3286 370.694 18.7146 371.826 18.5987L375.795 18.1921C376.427 18.1274 376.839 17.4979 376.646 16.893L375.432 13.0917C375.086 12.0082 376.529 11.2797 377.195 12.2017L379.532 15.4365C379.904 15.9512 380.655 15.9934 381.082 15.5236L383.767 12.5712Z" fill="white"/>
<g opacity="0.7">
<path d="M170 20C170 21.5913 169.368 23.1174 168.243 24.2426C167.117 25.3679 165.591 26 164 26C162.409 26 160.883 25.3679 159.757 24.2426C158.632 23.1174 158 21.5913 158 20C158 18.4087 158.632 16.8826 159.757 15.7574C160.883 14.6321 162.409 14 164 14C165.591 14 167.117 14.6321 168.243 15.7574C169.368 16.8826 170 18.4087 170 20ZM164 8C164.199 8 164.39 8.07902 164.53 8.21967C164.671 8.36032 164.75 8.55109 164.75 8.75V11.75C164.75 11.9489 164.671 12.1397 164.53 12.2803C164.39 12.421 164.199 12.5 164 12.5C163.801 12.5 163.61 12.421 163.47 12.2803C163.329 12.1397 163.25 11.9489 163.25 11.75V8.75C163.25 8.55109 163.329 8.36032 163.47 8.21967C163.61 8.07902 163.801 8 164 8V8ZM164 27.5C164.199 27.5 164.39 27.579 164.53 27.7197C164.671 27.8603 164.75 28.0511 164.75 28.25V31.25C164.75 31.4489 164.671 31.6397 164.53 31.7803C164.39 31.921 164.199 32 164 32C163.801 32 163.61 31.921 163.47 31.7803C163.329 31.6397 163.25 31.4489 163.25 31.25V28.25C163.25 28.0511 163.329 27.8603 163.47 27.7197C163.61 27.579 163.801 27.5 164 27.5ZM176 20C176 20.1989 175.921 20.3897 175.78 20.5303C175.64 20.671 175.449 20.75 175.25 20.75H172.25C172.051 20.75 171.86 20.671 171.72 20.5303C171.579 20.3897 171.5 20.1989 171.5 20C171.5 19.8011 171.579 19.6103 171.72 19.4697C171.86 19.329 172.051 19.25 172.25 19.25H175.25C175.449 19.25 175.64 19.329 175.78 19.4697C175.921 19.6103 176 19.8011 176 20ZM156.5 20C156.5 20.1989 156.421 20.3897 156.28 20.5303C156.14 20.671 155.949 20.75 155.75 20.75H152.75C152.551 20.75 152.36 20.671 152.22 20.5303C152.079 20.3897 152 20.1989 152 20C152 19.8011 152.079 19.6103 152.22 19.4697C152.36 19.329 152.551 19.25 152.75 19.25H155.75C155.949 19.25 156.14 19.329 156.28 19.4697C156.421 19.6103 156.5 19.8011 156.5 20ZM172.486 11.5145C172.626 11.6551 172.705 11.8459 172.705 12.0448C172.705 12.2436 172.626 12.4344 172.486 12.575L170.365 14.6975C170.295 14.7671 170.212 14.8224 170.121 14.86C170.03 14.8976 169.932 14.917 169.834 14.9169C169.635 14.9168 169.444 14.8376 169.303 14.6967C169.234 14.627 169.178 14.5443 169.141 14.4532C169.103 14.3621 169.084 14.2645 169.084 14.166C169.084 13.9669 169.163 13.7761 169.304 13.6355L171.425 11.5145C171.566 11.3739 171.756 11.2949 171.955 11.2949C172.154 11.2949 172.345 11.3739 172.486 11.5145ZM158.696 25.304C158.837 25.4446 158.916 25.6354 158.916 25.8342C158.916 26.0331 158.837 26.2239 158.696 26.3645L156.575 28.4855C156.434 28.6221 156.244 28.6977 156.047 28.696C155.851 28.6943 155.663 28.6154 155.524 28.4764C155.385 28.3373 155.306 28.1492 155.304 27.9526C155.302 27.7559 155.378 27.5665 155.514 27.425L157.635 25.304C157.776 25.1634 157.967 25.0844 158.166 25.0844C158.365 25.0844 158.555 25.1634 158.696 25.304ZM172.486 28.4855C172.345 28.6261 172.154 28.7051 171.955 28.7051C171.756 28.7051 171.566 28.6261 171.425 28.4855L169.304 26.3645C169.167 26.223 169.092 26.0336 169.093 25.8369C169.095 25.6403 169.174 25.4522 169.313 25.3131C169.452 25.1741 169.64 25.0952 169.837 25.0935C170.034 25.0918 170.223 25.1674 170.365 25.304L172.486 27.425C172.626 27.5656 172.705 27.7564 172.705 27.9552C172.705 28.1541 172.626 28.3449 172.486 28.4855ZM158.696 14.6975C158.555 14.8381 158.365 14.9171 158.166 14.9171C157.967 14.9171 157.776 14.8381 157.635 14.6975L155.514 12.575C155.443 12.5058 155.386 12.4231 155.346 12.3316C155.307 12.2401 155.286 12.1416 155.286 12.0421C155.285 11.9425 155.304 11.8437 155.341 11.7515C155.379 11.6594 155.435 11.5756 155.505 11.5052C155.576 11.4348 155.659 11.3791 155.752 11.3414C155.844 11.3037 155.942 11.2847 156.042 11.2856C156.142 11.2864 156.24 11.3071 156.332 11.3464C156.423 11.3857 156.506 11.4429 156.575 11.5145L158.696 13.6355C158.766 13.7052 158.821 13.7879 158.859 13.879C158.897 13.9702 158.916 14.0678 158.916 14.1665C158.916 14.2652 158.897 14.3628 158.859 14.454C158.821 14.5451 158.766 14.6278 158.696 14.6975Z" fill="#FF96BB"/>
</g>
<g opacity="0.7">
<path d="M345 20C345 21.5913 344.368 23.1174 343.243 24.2426C342.117 25.3679 340.591 26 339 26C337.409 26 335.883 25.3679 334.757 24.2426C333.632 23.1174 333 21.5913 333 20C333 18.4087 333.632 16.8826 334.757 15.7574C335.883 14.6321 337.409 14 339 14C340.591 14 342.117 14.6321 343.243 15.7574C344.368 16.8826 345 18.4087 345 20ZM339 8C339.199 8 339.39 8.07902 339.53 8.21967C339.671 8.36032 339.75 8.55109 339.75 8.75V11.75C339.75 11.9489 339.671 12.1397 339.53 12.2803C339.39 12.421 339.199 12.5 339 12.5C338.801 12.5 338.61 12.421 338.47 12.2803C338.329 12.1397 338.25 11.9489 338.25 11.75V8.75C338.25 8.55109 338.329 8.36032 338.47 8.21967C338.61 8.07902 338.801 8 339 8V8ZM339 27.5C339.199 27.5 339.39 27.579 339.53 27.7197C339.671 27.8603 339.75 28.0511 339.75 28.25V31.25C339.75 31.4489 339.671 31.6397 339.53 31.7803C339.39 31.921 339.199 32 339 32C338.801 32 338.61 31.921 338.47 31.7803C338.329 31.6397 338.25 31.4489 338.25 31.25V28.25C338.25 28.0511 338.329 27.8603 338.47 27.7197C338.61 27.579 338.801 27.5 339 27.5ZM351 20C351 20.1989 350.921 20.3897 350.78 20.5303C350.64 20.671 350.449 20.75 350.25 20.75H347.25C347.051 20.75 346.86 20.671 346.72 20.5303C346.579 20.3897 346.5 20.1989 346.5 20C346.5 19.8011 346.579 19.6103 346.72 19.4697C346.86 19.329 347.051 19.25 347.25 19.25H350.25C350.449 19.25 350.64 19.329 350.78 19.4697C350.921 19.6103 351 19.8011 351 20ZM331.5 20C331.5 20.1989 331.421 20.3897 331.28 20.5303C331.14 20.671 330.949 20.75 330.75 20.75H327.75C327.551 20.75 327.36 20.671 327.22 20.5303C327.079 20.3897 327 20.1989 327 20C327 19.8011 327.079 19.6103 327.22 19.4697C327.36 19.329 327.551 19.25 327.75 19.25H330.75C330.949 19.25 331.14 19.329 331.28 19.4697C331.421 19.6103 331.5 19.8011 331.5 20ZM347.486 11.5145C347.626 11.6551 347.705 11.8459 347.705 12.0448C347.705 12.2436 347.626 12.4344 347.486 12.575L345.365 14.6975C345.295 14.7671 345.212 14.8224 345.121 14.86C345.03 14.8976 344.932 14.917 344.834 14.9169C344.635 14.9168 344.444 14.8376 344.303 14.6967C344.234 14.627 344.178 14.5443 344.141 14.4532C344.103 14.3621 344.084 14.2645 344.084 14.166C344.084 13.9669 344.163 13.7761 344.304 13.6355L346.425 11.5145C346.566 11.3739 346.756 11.2949 346.955 11.2949C347.154 11.2949 347.345 11.3739 347.486 11.5145ZM333.696 25.304C333.837 25.4446 333.916 25.6354 333.916 25.8342C333.916 26.0331 333.837 26.2239 333.696 26.3645L331.575 28.4855C331.434 28.6221 331.244 28.6977 331.047 28.696C330.851 28.6943 330.663 28.6154 330.524 28.4764C330.385 28.3373 330.306 28.1492 330.304 27.9526C330.302 27.7559 330.378 27.5665 330.514 27.425L332.635 25.304C332.776 25.1634 332.967 25.0844 333.166 25.0844C333.365 25.0844 333.555 25.1634 333.696 25.304ZM347.486 28.4855C347.345 28.6261 347.154 28.7051 346.955 28.7051C346.756 28.7051 346.566 28.6261 346.425 28.4855L344.304 26.3645C344.167 26.223 344.092 26.0336 344.093 25.8369C344.095 25.6403 344.174 25.4522 344.313 25.3131C344.452 25.1741 344.64 25.0952 344.837 25.0935C345.034 25.0918 345.223 25.1674 345.365 25.304L347.486 27.425C347.626 27.5656 347.705 27.7564 347.705 27.9552C347.705 28.1541 347.626 28.3449 347.486 28.4855ZM333.696 14.6975C333.555 14.8381 333.365 14.9171 333.166 14.9171C332.967 14.9171 332.776 14.8381 332.635 14.6975L330.514 12.575C330.443 12.5058 330.386 12.4231 330.346 12.3316C330.307 12.2401 330.286 12.1416 330.286 12.0421C330.285 11.9425 330.304 11.8437 330.341 11.7515C330.379 11.6594 330.435 11.5756 330.505 11.5052C330.576 11.4348 330.659 11.3791 330.752 11.3414C330.844 11.3037 330.942 11.2847 331.042 11.2856C331.142 11.2864 331.24 11.3071 331.332 11.3464C331.423 11.3857 331.506 11.4429 331.575 11.5145L333.696 13.6355C333.766 13.7052 333.821 13.7879 333.859 13.879C333.897 13.9702 333.916 14.0678 333.916 14.1665C333.916 14.2652 333.897 14.3628 333.859 14.454C333.821 14.5451 333.766 14.6278 333.696 14.6975Z" fill="#FF96BB"/>
</g>
<g opacity="0.7">
<path d="M141 20C141 21.5913 140.368 23.1174 139.243 24.2426C138.117 25.3679 136.591 26 135 26C133.409 26 131.883 25.3679 130.757 24.2426C129.632 23.1174 129 21.5913 129 20C129 18.4087 129.632 16.8826 130.757 15.7574C131.883 14.6321 133.409 14 135 14C136.591 14 138.117 14.6321 139.243 15.7574C140.368 16.8826 141 18.4087 141 20ZM135 8C135.199 8 135.39 8.07902 135.53 8.21967C135.671 8.36032 135.75 8.55109 135.75 8.75V11.75C135.75 11.9489 135.671 12.1397 135.53 12.2803C135.39 12.421 135.199 12.5 135 12.5C134.801 12.5 134.61 12.421 134.47 12.2803C134.329 12.1397 134.25 11.9489 134.25 11.75V8.75C134.25 8.55109 134.329 8.36032 134.47 8.21967C134.61 8.07902 134.801 8 135 8V8ZM135 27.5C135.199 27.5 135.39 27.579 135.53 27.7197C135.671 27.8603 135.75 28.0511 135.75 28.25V31.25C135.75 31.4489 135.671 31.6397 135.53 31.7803C135.39 31.921 135.199 32 135 32C134.801 32 134.61 31.921 134.47 31.7803C134.329 31.6397 134.25 31.4489 134.25 31.25V28.25C134.25 28.0511 134.329 27.8603 134.47 27.7197C134.61 27.579 134.801 27.5 135 27.5ZM147 20C147 20.1989 146.921 20.3897 146.78 20.5303C146.64 20.671 146.449 20.75 146.25 20.75H143.25C143.051 20.75 142.86 20.671 142.72 20.5303C142.579 20.3897 142.5 20.1989 142.5 20C142.5 19.8011 142.579 19.6103 142.72 19.4697C142.86 19.329 143.051 19.25 143.25 19.25H146.25C146.449 19.25 146.64 19.329 146.78 19.4697C146.921 19.6103 147 19.8011 147 20ZM127.5 20C127.5 20.1989 127.421 20.3897 127.28 20.5303C127.14 20.671 126.949 20.75 126.75 20.75H123.75C123.551 20.75 123.36 20.671 123.22 20.5303C123.079 20.3897 123 20.1989 123 20C123 19.8011 123.079 19.6103 123.22 19.4697C123.36 19.329 123.551 19.25 123.75 19.25H126.75C126.949 19.25 127.14 19.329 127.28 19.4697C127.421 19.6103 127.5 19.8011 127.5 20ZM143.486 11.5145C143.626 11.6551 143.705 11.8459 143.705 12.0448C143.705 12.2436 143.626 12.4344 143.486 12.575L141.365 14.6975C141.295 14.7671 141.212 14.8224 141.121 14.86C141.03 14.8976 140.932 14.917 140.834 14.9169C140.635 14.9168 140.444 14.8376 140.303 14.6967C140.234 14.627 140.178 14.5443 140.141 14.4532C140.103 14.3621 140.084 14.2645 140.084 14.166C140.084 13.9669 140.163 13.7761 140.304 13.6355L142.425 11.5145C142.566 11.3739 142.756 11.2949 142.955 11.2949C143.154 11.2949 143.345 11.3739 143.486 11.5145ZM129.696 25.304C129.837 25.4446 129.916 25.6354 129.916 25.8342C129.916 26.0331 129.837 26.2239 129.696 26.3645L127.575 28.4855C127.434 28.6221 127.244 28.6977 127.047 28.696C126.851 28.6943 126.663 28.6154 126.524 28.4764C126.385 28.3373 126.306 28.1492 126.304 27.9526C126.302 27.7559 126.378 27.5665 126.514 27.425L128.635 25.304C128.776 25.1634 128.967 25.0844 129.166 25.0844C129.365 25.0844 129.555 25.1634 129.696 25.304ZM143.486 28.4855C143.345 28.6261 143.154 28.7051 142.955 28.7051C142.756 28.7051 142.566 28.6261 142.425 28.4855L140.304 26.3645C140.167 26.223 140.092 26.0336 140.093 25.8369C140.095 25.6403 140.174 25.4522 140.313 25.3131C140.452 25.1741 140.64 25.0952 140.837 25.0935C141.034 25.0918 141.223 25.1674 141.365 25.304L143.486 27.425C143.626 27.5656 143.705 27.7564 143.705 27.9552C143.705 28.1541 143.626 28.3449 143.486 28.4855ZM129.696 14.6975C129.555 14.8381 129.365 14.9171 129.166 14.9171C128.967 14.9171 128.776 14.8381 128.635 14.6975L126.514 12.575C126.443 12.5058 126.386 12.4231 126.346 12.3316C126.307 12.2401 126.286 12.1416 126.286 12.0421C126.285 11.9425 126.304 11.8437 126.341 11.7515C126.379 11.6594 126.435 11.5756 126.505 11.5052C126.576 11.4348 126.659 11.3791 126.752 11.3414C126.844 11.3037 126.942 11.2847 127.042 11.2856C127.142 11.2864 127.24 11.3071 127.332 11.3464C127.423 11.3857 127.506 11.4429 127.575 11.5145L129.696 13.6355C129.766 13.7052 129.821 13.7879 129.859 13.879C129.897 13.9702 129.916 14.0678 129.916 14.1665C129.916 14.2652 129.897 14.3628 129.859 14.454C129.821 14.5451 129.766 14.6278 129.696 14.6975Z" fill="#FF96BB"/>
</g>
<g opacity="0.7">
<path d="M316 20C316 21.5913 315.368 23.1174 314.243 24.2426C313.117 25.3679 311.591 26 310 26C308.409 26 306.883 25.3679 305.757 24.2426C304.632 23.1174 304 21.5913 304 20C304 18.4087 304.632 16.8826 305.757 15.7574C306.883 14.6321 308.409 14 310 14C311.591 14 313.117 14.6321 314.243 15.7574C315.368 16.8826 316 18.4087 316 20ZM310 8C310.199 8 310.39 8.07902 310.53 8.21967C310.671 8.36032 310.75 8.55109 310.75 8.75V11.75C310.75 11.9489 310.671 12.1397 310.53 12.2803C310.39 12.421 310.199 12.5 310 12.5C309.801 12.5 309.61 12.421 309.47 12.2803C309.329 12.1397 309.25 11.9489 309.25 11.75V8.75C309.25 8.55109 309.329 8.36032 309.47 8.21967C309.61 8.07902 309.801 8 310 8V8ZM310 27.5C310.199 27.5 310.39 27.579 310.53 27.7197C310.671 27.8603 310.75 28.0511 310.75 28.25V31.25C310.75 31.4489 310.671 31.6397 310.53 31.7803C310.39 31.921 310.199 32 310 32C309.801 32 309.61 31.921 309.47 31.7803C309.329 31.6397 309.25 31.4489 309.25 31.25V28.25C309.25 28.0511 309.329 27.8603 309.47 27.7197C309.61 27.579 309.801 27.5 310 27.5ZM322 20C322 20.1989 321.921 20.3897 321.78 20.5303C321.64 20.671 321.449 20.75 321.25 20.75H318.25C318.051 20.75 317.86 20.671 317.72 20.5303C317.579 20.3897 317.5 20.1989 317.5 20C317.5 19.8011 317.579 19.6103 317.72 19.4697C317.86 19.329 318.051 19.25 318.25 19.25H321.25C321.449 19.25 321.64 19.329 321.78 19.4697C321.921 19.6103 322 19.8011 322 20ZM302.5 20C302.5 20.1989 302.421 20.3897 302.28 20.5303C302.14 20.671 301.949 20.75 301.75 20.75H298.75C298.551 20.75 298.36 20.671 298.22 20.5303C298.079 20.3897 298 20.1989 298 20C298 19.8011 298.079 19.6103 298.22 19.4697C298.36 19.329 298.551 19.25 298.75 19.25H301.75C301.949 19.25 302.14 19.329 302.28 19.4697C302.421 19.6103 302.5 19.8011 302.5 20ZM318.486 11.5145C318.626 11.6551 318.705 11.8459 318.705 12.0448C318.705 12.2436 318.626 12.4344 318.486 12.575L316.365 14.6975C316.295 14.7671 316.212 14.8224 316.121 14.86C316.03 14.8976 315.932 14.917 315.834 14.9169C315.635 14.9168 315.444 14.8376 315.303 14.6967C315.234 14.627 315.178 14.5443 315.141 14.4532C315.103 14.3621 315.084 14.2645 315.084 14.166C315.084 13.9669 315.163 13.7761 315.304 13.6355L317.425 11.5145C317.566 11.3739 317.756 11.2949 317.955 11.2949C318.154 11.2949 318.345 11.3739 318.486 11.5145ZM304.696 25.304C304.837 25.4446 304.916 25.6354 304.916 25.8342C304.916 26.0331 304.837 26.2239 304.696 26.3645L302.575 28.4855C302.434 28.6221 302.244 28.6977 302.047 28.696C301.851 28.6943 301.663 28.6154 301.524 28.4764C301.385 28.3373 301.306 28.1492 301.304 27.9526C301.302 27.7559 301.378 27.5665 301.514 27.425L303.635 25.304C303.776 25.1634 303.967 25.0844 304.166 25.0844C304.365 25.0844 304.555 25.1634 304.696 25.304ZM318.486 28.4855C318.345 28.6261 318.154 28.7051 317.955 28.7051C317.756 28.7051 317.566 28.6261 317.425 28.4855L315.304 26.3645C315.167 26.223 315.092 26.0336 315.093 25.8369C315.095 25.6403 315.174 25.4522 315.313 25.3131C315.452 25.1741 315.64 25.0952 315.837 25.0935C316.034 25.0918 316.223 25.1674 316.365 25.304L318.486 27.425C318.626 27.5656 318.705 27.7564 318.705 27.9552C318.705 28.1541 318.626 28.3449 318.486 28.4855ZM304.696 14.6975C304.555 14.8381 304.365 14.9171 304.166 14.9171C303.967 14.9171 303.776 14.8381 303.635 14.6975L301.514 12.575C301.443 12.5058 301.386 12.4231 301.346 12.3316C301.307 12.2401 301.286 12.1416 301.286 12.0421C301.285 11.9425 301.304 11.8437 301.341 11.7515C301.379 11.6594 301.435 11.5756 301.505 11.5052C301.576 11.4348 301.659 11.3791 301.752 11.3414C301.844 11.3037 301.942 11.2847 302.042 11.2856C302.142 11.2864 302.24 11.3071 302.332 11.3464C302.423 11.3857 302.506 11.4429 302.575 11.5145L304.696 13.6355C304.766 13.7052 304.821 13.7879 304.859 13.879C304.897 13.9702 304.916 14.0678 304.916 14.1665C304.916 14.2652 304.897 14.3628 304.859 14.454C304.821 14.5451 304.766 14.6278 304.696 14.6975Z" fill="#FF96BB"/>
</g>
<g opacity="0.7">
<path d="M112 20C112 21.5913 111.368 23.1174 110.243 24.2426C109.117 25.3679 107.591 26 106 26C104.409 26 102.883 25.3679 101.757 24.2426C100.632 23.1174 100 21.5913 100 20C100 18.4087 100.632 16.8826 101.757 15.7574C102.883 14.6321 104.409 14 106 14C107.591 14 109.117 14.6321 110.243 15.7574C111.368 16.8826 112 18.4087 112 20ZM106 8C106.199 8 106.39 8.07902 106.53 8.21967C106.671 8.36032 106.75 8.55109 106.75 8.75V11.75C106.75 11.9489 106.671 12.1397 106.53 12.2803C106.39 12.421 106.199 12.5 106 12.5C105.801 12.5 105.61 12.421 105.47 12.2803C105.329 12.1397 105.25 11.9489 105.25 11.75V8.75C105.25 8.55109 105.329 8.36032 105.47 8.21967C105.61 8.07902 105.801 8 106 8V8ZM106 27.5C106.199 27.5 106.39 27.579 106.53 27.7197C106.671 27.8603 106.75 28.0511 106.75 28.25V31.25C106.75 31.4489 106.671 31.6397 106.53 31.7803C106.39 31.921 106.199 32 106 32C105.801 32 105.61 31.921 105.47 31.7803C105.329 31.6397 105.25 31.4489 105.25 31.25V28.25C105.25 28.0511 105.329 27.8603 105.47 27.7197C105.61 27.579 105.801 27.5 106 27.5ZM118 20C118 20.1989 117.921 20.3897 117.78 20.5303C117.64 20.671 117.449 20.75 117.25 20.75H114.25C114.051 20.75 113.86 20.671 113.72 20.5303C113.579 20.3897 113.5 20.1989 113.5 20C113.5 19.8011 113.579 19.6103 113.72 19.4697C113.86 19.329 114.051 19.25 114.25 19.25H117.25C117.449 19.25 117.64 19.329 117.78 19.4697C117.921 19.6103 118 19.8011 118 20ZM98.5 20C98.5 20.1989 98.421 20.3897 98.2803 20.5303C98.1397 20.671 97.9489 20.75 97.75 20.75H94.75C94.5511 20.75 94.3603 20.671 94.2197 20.5303C94.079 20.3897 94 20.1989 94 20C94 19.8011 94.079 19.6103 94.2197 19.4697C94.3603 19.329 94.5511 19.25 94.75 19.25H97.75C97.9489 19.25 98.1397 19.329 98.2803 19.4697C98.421 19.6103 98.5 19.8011 98.5 20ZM114.486 11.5145C114.626 11.6551 114.705 11.8459 114.705 12.0448C114.705 12.2436 114.626 12.4344 114.486 12.575L112.365 14.6975C112.295 14.7671 112.212 14.8224 112.121 14.86C112.03 14.8976 111.932 14.917 111.834 14.9169C111.635 14.9168 111.444 14.8376 111.303 14.6967C111.234 14.627 111.178 14.5443 111.141 14.4532C111.103 14.3621 111.084 14.2645 111.084 14.166C111.084 13.9669 111.163 13.7761 111.304 13.6355L113.425 11.5145C113.566 11.3739 113.756 11.2949 113.955 11.2949C114.154 11.2949 114.345 11.3739 114.486 11.5145ZM100.696 25.304C100.837 25.4446 100.916 25.6354 100.916 25.8342C100.916 26.0331 100.837 26.2239 100.696 26.3645L98.575 28.4855C98.4335 28.6221 98.2441 28.6977 98.0474 28.696C97.8508 28.6943 97.6627 28.6154 97.5236 28.4764C97.3846 28.3373 97.3057 28.1492 97.304 27.9526C97.3023 27.7559 97.3779 27.5665 97.5145 27.425L99.6355 25.304C99.7761 25.1634 99.9669 25.0844 100.166 25.0844C100.365 25.0844 100.555 25.1634 100.696 25.304ZM114.486 28.4855C114.345 28.6261 114.154 28.7051 113.955 28.7051C113.756 28.7051 113.566 28.6261 113.425 28.4855L111.304 26.3645C111.167 26.223 111.092 26.0336 111.093 25.8369C111.095 25.6403 111.174 25.4522 111.313 25.3131C111.452 25.1741 111.64 25.0952 111.837 25.0935C112.034 25.0918 112.223 25.1674 112.365 25.304L114.486 27.425C114.626 27.5656 114.705 27.7564 114.705 27.9552C114.705 28.1541 114.626 28.3449 114.486 28.4855ZM100.696 14.6975C100.555 14.8381 100.365 14.9171 100.166 14.9171C99.9669 14.9171 99.7761 14.8381 99.6355 14.6975L97.5145 12.575C97.4429 12.5058 97.3857 12.4231 97.3464 12.3316C97.3071 12.2401 97.2864 12.1416 97.2856 12.0421C97.2847 11.9425 97.3037 11.8437 97.3414 11.7515C97.3791 11.6594 97.4348 11.5756 97.5052 11.5052C97.5756 11.4348 97.6594 11.3791 97.7515 11.3414C97.8437 11.3037 97.9425 11.2847 98.0421 11.2856C98.1416 11.2864 98.2401 11.3071 98.3316 11.3464C98.4231 11.3857 98.5058 11.4429 98.575 11.5145L100.696 13.6355C100.766 13.7052 100.821 13.7879 100.859 13.879C100.897 13.9702 100.916 14.0678 100.916 14.1665C100.916 14.2652 100.897 14.3628 100.859 14.454C100.821 14.5451 100.766 14.6278 100.696 14.6975Z" fill="#FF96BB"/>
</g>
<g opacity="0.7">
<path d="M287 20C287 21.5913 286.368 23.1174 285.243 24.2426C284.117 25.3679 282.591 26 281 26C279.409 26 277.883 25.3679 276.757 24.2426C275.632 23.1174 275 21.5913 275 20C275 18.4087 275.632 16.8826 276.757 15.7574C277.883 14.6321 279.409 14 281 14C282.591 14 284.117 14.6321 285.243 15.7574C286.368 16.8826 287 18.4087 287 20ZM281 8C281.199 8 281.39 8.07902 281.53 8.21967C281.671 8.36032 281.75 8.55109 281.75 8.75V11.75C281.75 11.9489 281.671 12.1397 281.53 12.2803C281.39 12.421 281.199 12.5 281 12.5C280.801 12.5 280.61 12.421 280.47 12.2803C280.329 12.1397 280.25 11.9489 280.25 11.75V8.75C280.25 8.55109 280.329 8.36032 280.47 8.21967C280.61 8.07902 280.801 8 281 8V8ZM281 27.5C281.199 27.5 281.39 27.579 281.53 27.7197C281.671 27.8603 281.75 28.0511 281.75 28.25V31.25C281.75 31.4489 281.671 31.6397 281.53 31.7803C281.39 31.921 281.199 32 281 32C280.801 32 280.61 31.921 280.47 31.7803C280.329 31.6397 280.25 31.4489 280.25 31.25V28.25C280.25 28.0511 280.329 27.8603 280.47 27.7197C280.61 27.579 280.801 27.5 281 27.5ZM293 20C293 20.1989 292.921 20.3897 292.78 20.5303C292.64 20.671 292.449 20.75 292.25 20.75H289.25C289.051 20.75 288.86 20.671 288.72 20.5303C288.579 20.3897 288.5 20.1989 288.5 20C288.5 19.8011 288.579 19.6103 288.72 19.4697C288.86 19.329 289.051 19.25 289.25 19.25H292.25C292.449 19.25 292.64 19.329 292.78 19.4697C292.921 19.6103 293 19.8011 293 20ZM273.5 20C273.5 20.1989 273.421 20.3897 273.28 20.5303C273.14 20.671 272.949 20.75 272.75 20.75H269.75C269.551 20.75 269.36 20.671 269.22 20.5303C269.079 20.3897 269 20.1989 269 20C269 19.8011 269.079 19.6103 269.22 19.4697C269.36 19.329 269.551 19.25 269.75 19.25H272.75C272.949 19.25 273.14 19.329 273.28 19.4697C273.421 19.6103 273.5 19.8011 273.5 20ZM289.486 11.5145C289.626 11.6551 289.705 11.8459 289.705 12.0448C289.705 12.2436 289.626 12.4344 289.486 12.575L287.365 14.6975C287.295 14.7671 287.212 14.8224 287.121 14.86C287.03 14.8976 286.932 14.917 286.834 14.9169C286.635 14.9168 286.444 14.8376 286.303 14.6967C286.234 14.627 286.178 14.5443 286.141 14.4532C286.103 14.3621 286.084 14.2645 286.084 14.166C286.084 13.9669 286.163 13.7761 286.304 13.6355L288.425 11.5145C288.566 11.3739 288.756 11.2949 288.955 11.2949C289.154 11.2949 289.345 11.3739 289.486 11.5145ZM275.696 25.304C275.837 25.4446 275.916 25.6354 275.916 25.8342C275.916 26.0331 275.837 26.2239 275.696 26.3645L273.575 28.4855C273.434 28.6221 273.244 28.6977 273.047 28.696C272.851 28.6943 272.663 28.6154 272.524 28.4764C272.385 28.3373 272.306 28.1492 272.304 27.9526C272.302 27.7559 272.378 27.5665 272.514 27.425L274.635 25.304C274.776 25.1634 274.967 25.0844 275.166 25.0844C275.365 25.0844 275.555 25.1634 275.696 25.304ZM289.486 28.4855C289.345 28.6261 289.154 28.7051 288.955 28.7051C288.756 28.7051 288.566 28.6261 288.425 28.4855L286.304 26.3645C286.167 26.223 286.092 26.0336 286.093 25.8369C286.095 25.6403 286.174 25.4522 286.313 25.3131C286.452 25.1741 286.64 25.0952 286.837 25.0935C287.034 25.0918 287.223 25.1674 287.365 25.304L289.486 27.425C289.626 27.5656 289.705 27.7564 289.705 27.9552C289.705 28.1541 289.626 28.3449 289.486 28.4855ZM275.696 14.6975C275.555 14.8381 275.365 14.9171 275.166 14.9171C274.967 14.9171 274.776 14.8381 274.635 14.6975L272.514 12.575C272.443 12.5058 272.386 12.4231 272.346 12.3316C272.307 12.2401 272.286 12.1416 272.286 12.0421C272.285 11.9425 272.304 11.8437 272.341 11.7515C272.379 11.6594 272.435 11.5756 272.505 11.5052C272.576 11.4348 272.659 11.3791 272.752 11.3414C272.844 11.3037 272.942 11.2847 273.042 11.2856C273.142 11.2864 273.24 11.3071 273.332 11.3464C273.423 11.3857 273.506 11.4429 273.575 11.5145L275.696 13.6355C275.766 13.7052 275.821 13.7879 275.859 13.879C275.897 13.9702 275.916 14.0678 275.916 14.1665C275.916 14.2652 275.897 14.3628 275.859 14.454C275.821 14.5451 275.766 14.6278 275.696 14.6975Z" fill="#FF96BB"/>
</g>
<g opacity="0.7">
<path d="M83 20C83 21.5913 82.3679 23.1174 81.2426 24.2426C80.1174 25.3679 78.5913 26 77 26C75.4087 26 73.8826 25.3679 72.7574 24.2426C71.6321 23.1174 71 21.5913 71 20C71 18.4087 71.6321 16.8826 72.7574 15.7574C73.8826 14.6321 75.4087 14 77 14C78.5913 14 80.1174 14.6321 81.2426 15.7574C82.3679 16.8826 83 18.4087 83 20ZM77 8C77.1989 8 77.3897 8.07902 77.5303 8.21967C77.671 8.36032 77.75 8.55109 77.75 8.75V11.75C77.75 11.9489 77.671 12.1397 77.5303 12.2803C77.3897 12.421 77.1989 12.5 77 12.5C76.8011 12.5 76.6103 12.421 76.4697 12.2803C76.329 12.1397 76.25 11.9489 76.25 11.75V8.75C76.25 8.55109 76.329 8.36032 76.4697 8.21967C76.6103 8.07902 76.8011 8 77 8V8ZM77 27.5C77.1989 27.5 77.3897 27.579 77.5303 27.7197C77.671 27.8603 77.75 28.0511 77.75 28.25V31.25C77.75 31.4489 77.671 31.6397 77.5303 31.7803C77.3897 31.921 77.1989 32 77 32C76.8011 32 76.6103 31.921 76.4697 31.7803C76.329 31.6397 76.25 31.4489 76.25 31.25V28.25C76.25 28.0511 76.329 27.8603 76.4697 27.7197C76.6103 27.579 76.8011 27.5 77 27.5ZM89 20C89 20.1989 88.921 20.3897 88.7803 20.5303C88.6397 20.671 88.4489 20.75 88.25 20.75H85.25C85.0511 20.75 84.8603 20.671 84.7197 20.5303C84.579 20.3897 84.5 20.1989 84.5 20C84.5 19.8011 84.579 19.6103 84.7197 19.4697C84.8603 19.329 85.0511 19.25 85.25 19.25H88.25C88.4489 19.25 88.6397 19.329 88.7803 19.4697C88.921 19.6103 89 19.8011 89 20ZM69.5 20C69.5 20.1989 69.421 20.3897 69.2803 20.5303C69.1397 20.671 68.9489 20.75 68.75 20.75H65.75C65.5511 20.75 65.3603 20.671 65.2197 20.5303C65.079 20.3897 65 20.1989 65 20C65 19.8011 65.079 19.6103 65.2197 19.4697C65.3603 19.329 65.5511 19.25 65.75 19.25H68.75C68.9489 19.25 69.1397 19.329 69.2803 19.4697C69.421 19.6103 69.5 19.8011 69.5 20ZM85.4855 11.5145C85.6261 11.6551 85.7051 11.8459 85.7051 12.0448C85.7051 12.2436 85.6261 12.4344 85.4855 12.575L83.3645 14.6975C83.2948 14.7671 83.212 14.8224 83.1209 14.86C83.0299 14.8976 82.9323 14.917 82.8337 14.9169C82.6347 14.9168 82.4439 14.8376 82.3032 14.6967C82.2336 14.627 82.1784 14.5443 82.1408 14.4532C82.1031 14.3621 82.0838 14.2645 82.0838 14.166C82.084 13.9669 82.1632 13.7761 82.304 13.6355L84.425 11.5145C84.5656 11.3739 84.7564 11.2949 84.9552 11.2949C85.1541 11.2949 85.3449 11.3739 85.4855 11.5145ZM71.696 25.304C71.8366 25.4446 71.9156 25.6354 71.9156 25.8342C71.9156 26.0331 71.8366 26.2239 71.696 26.3645L69.575 28.4855C69.4335 28.6221 69.2441 28.6977 69.0474 28.696C68.8508 28.6943 68.6627 28.6154 68.5236 28.4764C68.3846 28.3373 68.3057 28.1492 68.304 27.9526C68.3023 27.7559 68.3779 27.5665 68.5145 27.425L70.6355 25.304C70.7761 25.1634 70.9669 25.0844 71.1657 25.0844C71.3646 25.0844 71.5554 25.1634 71.696 25.304ZM85.4855 28.4855C85.3449 28.6261 85.1541 28.7051 84.9552 28.7051C84.7564 28.7051 84.5656 28.6261 84.425 28.4855L82.304 26.3645C82.1674 26.223 82.0918 26.0336 82.0935 25.8369C82.0952 25.6403 82.1741 25.4522 82.3131 25.3131C82.4522 25.1741 82.6403 25.0952 82.8369 25.0935C83.0336 25.0918 83.223 25.1674 83.3645 25.304L85.4855 27.425C85.6261 27.5656 85.7051 27.7564 85.7051 27.9552C85.7051 28.1541 85.6261 28.3449 85.4855 28.4855ZM71.696 14.6975C71.5554 14.8381 71.3646 14.9171 71.1657 14.9171C70.9669 14.9171 70.7761 14.8381 70.6355 14.6975L68.5145 12.575C68.4429 12.5058 68.3857 12.4231 68.3464 12.3316C68.3071 12.2401 68.2864 12.1416 68.2856 12.0421C68.2847 11.9425 68.3037 11.8437 68.3414 11.7515C68.3791 11.6594 68.4348 11.5756 68.5052 11.5052C68.5756 11.4348 68.6594 11.3791 68.7515 11.3414C68.8437 11.3037 68.9425 11.2847 69.0421 11.2856C69.1416 11.2864 69.2401 11.3071 69.3316 11.3464C69.4231 11.3857 69.5058 11.4429 69.575 11.5145L71.696 13.6355C71.7658 13.7052 71.8213 13.7879 71.8591 13.879C71.8969 13.9702 71.9163 14.0678 71.9163 14.1665C71.9163 14.2652 71.8969 14.3628 71.8591 14.454C71.8213 14.5451 71.7658 14.6278 71.696 14.6975Z" fill="#FF96BB"/>
</g>
<g opacity="0.7">
<path d="M258 20C258 21.5913 257.368 23.1174 256.243 24.2426C255.117 25.3679 253.591 26 252 26C250.409 26 248.883 25.3679 247.757 24.2426C246.632 23.1174 246 21.5913 246 20C246 18.4087 246.632 16.8826 247.757 15.7574C248.883 14.6321 250.409 14 252 14C253.591 14 255.117 14.6321 256.243 15.7574C257.368 16.8826 258 18.4087 258 20ZM252 8C252.199 8 252.39 8.07902 252.53 8.21967C252.671 8.36032 252.75 8.55109 252.75 8.75V11.75C252.75 11.9489 252.671 12.1397 252.53 12.2803C252.39 12.421 252.199 12.5 252 12.5C251.801 12.5 251.61 12.421 251.47 12.2803C251.329 12.1397 251.25 11.9489 251.25 11.75V8.75C251.25 8.55109 251.329 8.36032 251.47 8.21967C251.61 8.07902 251.801 8 252 8V8ZM252 27.5C252.199 27.5 252.39 27.579 252.53 27.7197C252.671 27.8603 252.75 28.0511 252.75 28.25V31.25C252.75 31.4489 252.671 31.6397 252.53 31.7803C252.39 31.921 252.199 32 252 32C251.801 32 251.61 31.921 251.47 31.7803C251.329 31.6397 251.25 31.4489 251.25 31.25V28.25C251.25 28.0511 251.329 27.8603 251.47 27.7197C251.61 27.579 251.801 27.5 252 27.5ZM264 20C264 20.1989 263.921 20.3897 263.78 20.5303C263.64 20.671 263.449 20.75 263.25 20.75H260.25C260.051 20.75 259.86 20.671 259.72 20.5303C259.579 20.3897 259.5 20.1989 259.5 20C259.5 19.8011 259.579 19.6103 259.72 19.4697C259.86 19.329 260.051 19.25 260.25 19.25H263.25C263.449 19.25 263.64 19.329 263.78 19.4697C263.921 19.6103 264 19.8011 264 20ZM244.5 20C244.5 20.1989 244.421 20.3897 244.28 20.5303C244.14 20.671 243.949 20.75 243.75 20.75H240.75C240.551 20.75 240.36 20.671 240.22 20.5303C240.079 20.3897 240 20.1989 240 20C240 19.8011 240.079 19.6103 240.22 19.4697C240.36 19.329 240.551 19.25 240.75 19.25H243.75C243.949 19.25 244.14 19.329 244.28 19.4697C244.421 19.6103 244.5 19.8011 244.5 20ZM260.486 11.5145C260.626 11.6551 260.705 11.8459 260.705 12.0448C260.705 12.2436 260.626 12.4344 260.486 12.575L258.365 14.6975C258.295 14.7671 258.212 14.8224 258.121 14.86C258.03 14.8976 257.932 14.917 257.834 14.9169C257.635 14.9168 257.444 14.8376 257.303 14.6967C257.234 14.627 257.178 14.5443 257.141 14.4532C257.103 14.3621 257.084 14.2645 257.084 14.166C257.084 13.9669 257.163 13.7761 257.304 13.6355L259.425 11.5145C259.566 11.3739 259.756 11.2949 259.955 11.2949C260.154 11.2949 260.345 11.3739 260.486 11.5145ZM246.696 25.304C246.837 25.4446 246.916 25.6354 246.916 25.8342C246.916 26.0331 246.837 26.2239 246.696 26.3645L244.575 28.4855C244.434 28.6221 244.244 28.6977 244.047 28.696C243.851 28.6943 243.663 28.6154 243.524 28.4764C243.385 28.3373 243.306 28.1492 243.304 27.9526C243.302 27.7559 243.378 27.5665 243.514 27.425L245.635 25.304C245.776 25.1634 245.967 25.0844 246.166 25.0844C246.365 25.0844 246.555 25.1634 246.696 25.304ZM260.486 28.4855C260.345 28.6261 260.154 28.7051 259.955 28.7051C259.756 28.7051 259.566 28.6261 259.425 28.4855L257.304 26.3645C257.167 26.223 257.092 26.0336 257.093 25.8369C257.095 25.6403 257.174 25.4522 257.313 25.3131C257.452 25.1741 257.64 25.0952 257.837 25.0935C258.034 25.0918 258.223 25.1674 258.365 25.304L260.486 27.425C260.626 27.5656 260.705 27.7564 260.705 27.9552C260.705 28.1541 260.626 28.3449 260.486 28.4855ZM246.696 14.6975C246.555 14.8381 246.365 14.9171 246.166 14.9171C245.967 14.9171 245.776 14.8381 245.635 14.6975L243.514 12.575C243.443 12.5058 243.386 12.4231 243.346 12.3316C243.307 12.2401 243.286 12.1416 243.286 12.0421C243.285 11.9425 243.304 11.8437 243.341 11.7515C243.379 11.6594 243.435 11.5756 243.505 11.5052C243.576 11.4348 243.659 11.3791 243.752 11.3414C243.844 11.3037 243.942 11.2847 244.042 11.2856C244.142 11.2864 244.24 11.3071 244.332 11.3464C244.423 11.3857 244.506 11.4429 244.575 11.5145L246.696 13.6355C246.766 13.7052 246.821 13.7879 246.859 13.879C246.897 13.9702 246.916 14.0678 246.916 14.1665C246.916 14.2652 246.897 14.3628 246.859 14.454C246.821 14.5451 246.766 14.6278 246.696 14.6975Z" fill="#FF96BB"/>
</g>
<g opacity="0.7">
<path d="M54 20C54 21.5913 53.3679 23.1174 52.2426 24.2426C51.1174 25.3679 49.5913 26 48 26C46.4087 26 44.8826 25.3679 43.7574 24.2426C42.6321 23.1174 42 21.5913 42 20C42 18.4087 42.6321 16.8826 43.7574 15.7574C44.8826 14.6321 46.4087 14 48 14C49.5913 14 51.1174 14.6321 52.2426 15.7574C53.3679 16.8826 54 18.4087 54 20ZM48 8C48.1989 8 48.3897 8.07902 48.5303 8.21967C48.671 8.36032 48.75 8.55109 48.75 8.75V11.75C48.75 11.9489 48.671 12.1397 48.5303 12.2803C48.3897 12.421 48.1989 12.5 48 12.5C47.8011 12.5 47.6103 12.421 47.4697 12.2803C47.329 12.1397 47.25 11.9489 47.25 11.75V8.75C47.25 8.55109 47.329 8.36032 47.4697 8.21967C47.6103 8.07902 47.8011 8 48 8V8ZM48 27.5C48.1989 27.5 48.3897 27.579 48.5303 27.7197C48.671 27.8603 48.75 28.0511 48.75 28.25V31.25C48.75 31.4489 48.671 31.6397 48.5303 31.7803C48.3897 31.921 48.1989 32 48 32C47.8011 32 47.6103 31.921 47.4697 31.7803C47.329 31.6397 47.25 31.4489 47.25 31.25V28.25C47.25 28.0511 47.329 27.8603 47.4697 27.7197C47.6103 27.579 47.8011 27.5 48 27.5ZM60 20C60 20.1989 59.921 20.3897 59.7803 20.5303C59.6397 20.671 59.4489 20.75 59.25 20.75H56.25C56.0511 20.75 55.8603 20.671 55.7197 20.5303C55.579 20.3897 55.5 20.1989 55.5 20C55.5 19.8011 55.579 19.6103 55.7197 19.4697C55.8603 19.329 56.0511 19.25 56.25 19.25H59.25C59.4489 19.25 59.6397 19.329 59.7803 19.4697C59.921 19.6103 60 19.8011 60 20ZM40.5 20C40.5 20.1989 40.421 20.3897 40.2803 20.5303C40.1397 20.671 39.9489 20.75 39.75 20.75H36.75C36.5511 20.75 36.3603 20.671 36.2197 20.5303C36.079 20.3897 36 20.1989 36 20C36 19.8011 36.079 19.6103 36.2197 19.4697C36.3603 19.329 36.5511 19.25 36.75 19.25H39.75C39.9489 19.25 40.1397 19.329 40.2803 19.4697C40.421 19.6103 40.5 19.8011 40.5 20ZM56.4855 11.5145C56.6261 11.6551 56.7051 11.8459 56.7051 12.0448C56.7051 12.2436 56.6261 12.4344 56.4855 12.575L54.3645 14.6975C54.2948 14.7671 54.212 14.8224 54.1209 14.86C54.0299 14.8976 53.9323 14.917 53.8337 14.9169C53.6347 14.9168 53.4439 14.8376 53.3032 14.6967C53.2336 14.627 53.1784 14.5443 53.1408 14.4532C53.1031 14.3621 53.0838 14.2645 53.0838 14.166C53.084 13.9669 53.1632 13.7761 53.304 13.6355L55.425 11.5145C55.5656 11.3739 55.7564 11.2949 55.9552 11.2949C56.1541 11.2949 56.3449 11.3739 56.4855 11.5145ZM42.696 25.304C42.8366 25.4446 42.9156 25.6354 42.9156 25.8342C42.9156 26.0331 42.8366 26.2239 42.696 26.3645L40.575 28.4855C40.4335 28.6221 40.2441 28.6977 40.0474 28.696C39.8508 28.6943 39.6627 28.6154 39.5236 28.4764C39.3846 28.3373 39.3057 28.1492 39.304 27.9526C39.3023 27.7559 39.3779 27.5665 39.5145 27.425L41.6355 25.304C41.7761 25.1634 41.9669 25.0844 42.1657 25.0844C42.3646 25.0844 42.5554 25.1634 42.696 25.304ZM56.4855 28.4855C56.3449 28.6261 56.1541 28.7051 55.9552 28.7051C55.7564 28.7051 55.5656 28.6261 55.425 28.4855L53.304 26.3645C53.1674 26.223 53.0918 26.0336 53.0935 25.8369C53.0952 25.6403 53.1741 25.4522 53.3131 25.3131C53.4522 25.1741 53.6403 25.0952 53.8369 25.0935C54.0336 25.0918 54.223 25.1674 54.3645 25.304L56.4855 27.425C56.6261 27.5656 56.7051 27.7564 56.7051 27.9552C56.7051 28.1541 56.6261 28.3449 56.4855 28.4855ZM42.696 14.6975C42.5554 14.8381 42.3646 14.9171 42.1657 14.9171C41.9669 14.9171 41.7761 14.8381 41.6355 14.6975L39.5145 12.575C39.4429 12.5058 39.3857 12.4231 39.3464 12.3316C39.3071 12.2401 39.2864 12.1416 39.2856 12.0421C39.2847 11.9425 39.3037 11.8437 39.3414 11.7515C39.3791 11.6594 39.4348 11.5756 39.5052 11.5052C39.5756 11.4348 39.6594 11.3791 39.7515 11.3414C39.8437 11.3037 39.9425 11.2847 40.0421 11.2856C40.1416 11.2864 40.2401 11.3071 40.3316 11.3464C40.4231 11.3857 40.5058 11.4429 40.575 11.5145L42.696 13.6355C42.7658 13.7052 42.8213 13.7879 42.8591 13.879C42.8969 13.9702 42.9163 14.0678 42.9163 14.1665C42.9163 14.2652 42.8969 14.3628 42.8591 14.454C42.8213 14.5451 42.7658 14.6278 42.696 14.6975Z" fill="#FF96BB"/>
</g>
<g opacity="0.7">
<path d="M229 20C229 21.5913 228.368 23.1174 227.243 24.2426C226.117 25.3679 224.591 26 223 26C221.409 26 219.883 25.3679 218.757 24.2426C217.632 23.1174 217 21.5913 217 20C217 18.4087 217.632 16.8826 218.757 15.7574C219.883 14.6321 221.409 14 223 14C224.591 14 226.117 14.6321 227.243 15.7574C228.368 16.8826 229 18.4087 229 20ZM223 8C223.199 8 223.39 8.07902 223.53 8.21967C223.671 8.36032 223.75 8.55109 223.75 8.75V11.75C223.75 11.9489 223.671 12.1397 223.53 12.2803C223.39 12.421 223.199 12.5 223 12.5C222.801 12.5 222.61 12.421 222.47 12.2803C222.329 12.1397 222.25 11.9489 222.25 11.75V8.75C222.25 8.55109 222.329 8.36032 222.47 8.21967C222.61 8.07902 222.801 8 223 8V8ZM223 27.5C223.199 27.5 223.39 27.579 223.53 27.7197C223.671 27.8603 223.75 28.0511 223.75 28.25V31.25C223.75 31.4489 223.671 31.6397 223.53 31.7803C223.39 31.921 223.199 32 223 32C222.801 32 222.61 31.921 222.47 31.7803C222.329 31.6397 222.25 31.4489 222.25 31.25V28.25C222.25 28.0511 222.329 27.8603 222.47 27.7197C222.61 27.579 222.801 27.5 223 27.5ZM235 20C235 20.1989 234.921 20.3897 234.78 20.5303C234.64 20.671 234.449 20.75 234.25 20.75H231.25C231.051 20.75 230.86 20.671 230.72 20.5303C230.579 20.3897 230.5 20.1989 230.5 20C230.5 19.8011 230.579 19.6103 230.72 19.4697C230.86 19.329 231.051 19.25 231.25 19.25H234.25C234.449 19.25 234.64 19.329 234.78 19.4697C234.921 19.6103 235 19.8011 235 20ZM215.5 20C215.5 20.1989 215.421 20.3897 215.28 20.5303C215.14 20.671 214.949 20.75 214.75 20.75H211.75C211.551 20.75 211.36 20.671 211.22 20.5303C211.079 20.3897 211 20.1989 211 20C211 19.8011 211.079 19.6103 211.22 19.4697C211.36 19.329 211.551 19.25 211.75 19.25H214.75C214.949 19.25 215.14 19.329 215.28 19.4697C215.421 19.6103 215.5 19.8011 215.5 20ZM231.486 11.5145C231.626 11.6551 231.705 11.8459 231.705 12.0448C231.705 12.2436 231.626 12.4344 231.486 12.575L229.365 14.6975C229.295 14.7671 229.212 14.8224 229.121 14.86C229.03 14.8976 228.932 14.917 228.834 14.9169C228.635 14.9168 228.444 14.8376 228.303 14.6967C228.234 14.627 228.178 14.5443 228.141 14.4532C228.103 14.3621 228.084 14.2645 228.084 14.166C228.084 13.9669 228.163 13.7761 228.304 13.6355L230.425 11.5145C230.566 11.3739 230.756 11.2949 230.955 11.2949C231.154 11.2949 231.345 11.3739 231.486 11.5145ZM217.696 25.304C217.837 25.4446 217.916 25.6354 217.916 25.8342C217.916 26.0331 217.837 26.2239 217.696 26.3645L215.575 28.4855C215.434 28.6221 215.244 28.6977 215.047 28.696C214.851 28.6943 214.663 28.6154 214.524 28.4764C214.385 28.3373 214.306 28.1492 214.304 27.9526C214.302 27.7559 214.378 27.5665 214.514 27.425L216.635 25.304C216.776 25.1634 216.967 25.0844 217.166 25.0844C217.365 25.0844 217.555 25.1634 217.696 25.304ZM231.486 28.4855C231.345 28.6261 231.154 28.7051 230.955 28.7051C230.756 28.7051 230.566 28.6261 230.425 28.4855L228.304 26.3645C228.167 26.223 228.092 26.0336 228.093 25.8369C228.095 25.6403 228.174 25.4522 228.313 25.3131C228.452 25.1741 228.64 25.0952 228.837 25.0935C229.034 25.0918 229.223 25.1674 229.365 25.304L231.486 27.425C231.626 27.5656 231.705 27.7564 231.705 27.9552C231.705 28.1541 231.626 28.3449 231.486 28.4855ZM217.696 14.6975C217.555 14.8381 217.365 14.9171 217.166 14.9171C216.967 14.9171 216.776 14.8381 216.635 14.6975L214.514 12.575C214.443 12.5058 214.386 12.4231 214.346 12.3316C214.307 12.2401 214.286 12.1416 214.286 12.0421C214.285 11.9425 214.304 11.8437 214.341 11.7515C214.379 11.6594 214.435 11.5756 214.505 11.5052C214.576 11.4348 214.659 11.3791 214.752 11.3414C214.844 11.3037 214.942 11.2847 215.042 11.2856C215.142 11.2864 215.24 11.3071 215.332 11.3464C215.423 11.3857 215.506 11.4429 215.575 11.5145L217.696 13.6355C217.766 13.7052 217.821 13.7879 217.859 13.879C217.897 13.9702 217.916 14.0678 217.916 14.1665C217.916 14.2652 217.897 14.3628 217.859 14.454C217.821 14.5451 217.766 14.6278 217.696 14.6975Z" fill="#FF96BB"/>
</g>
<defs>
<clipPath id="clip0_2861_10219">
<rect width="24" height="24" fill="white" transform="translate(371.799 40)"/>
</clipPath>
</defs>
</svg>
