<svg width="33" height="32" viewBox="0 0 33 32" fill="none" xmlns="http://www.w3.org/2000/svg">
<path d="M32.7356 10.5443L31.3622 18.5613C31.1928 19.4469 30.4993 19.9853 29.6995 19.9954H9.67551L9.27795 22.2755H28.3622C29.3671 22.3532 30.0487 23.0775 30.061 24.0038C29.9879 25.0242 29.2761 25.7196 28.3622 25.7323H7.25384C6.11224 25.6278 5.43152 24.7019 5.55505 23.6729L6.45865 18.6715L5.08517 4.6235L1.18158 3.37324C0.227651 2.98788 -0.161689 2.10987 0.061107 1.20353C0.43156 0.258951 1.31922 -0.172613 2.19362 0.0635102L7.18154 1.68161C7.85351 1.93789 8.24006 2.49753 8.33816 3.15261L8.6273 5.94749L31.2537 8.52172C32.2933 8.75084 32.8577 9.58868 32.7356 10.5443ZM12.4259 29.3614C12.4259 30.8187 11.2649 32 9.83255 32C8.40028 32 7.23922 30.8187 7.23922 29.3614C7.23922 27.9041 8.4003 26.7228 9.83255 26.7228C11.2648 26.7228 12.4259 27.9042 12.4259 29.3614ZM27.9081 29.3614C27.9081 30.8187 26.7471 32 25.3148 32C23.8825 32 22.7214 30.8187 22.7214 29.3614C22.7214 27.9041 23.8825 26.7228 25.3148 26.7228C26.7471 26.7228 27.9081 27.9042 27.9081 29.3614Z" fill="white"/>
</svg>
