<svg width="616" height="282" viewBox="0 0 616 282" fill="none" xmlns="http://www.w3.org/2000/svg">
<g filter="url(#filter0_b_2801_11300)">
<path d="M23 20C23 8.9543 31.9543 0 43 0H573C584.046 0 593 8.95431 593 20V262C593 273.046 584.046 282 573 282H43C31.9543 282 23 273.046 23 262V20Z" fill="#FCFCFF"/>
<path d="M69.928 46.92C71.536 45.48 72.232 43.128 72.688 40.776L70.168 40.08C69.808 42.192 68.992 44.208 67.624 45.48L69.928 46.92ZM73.576 41.184C74.008 42.744 74.344 44.808 74.368 46.152L76.912 45.72C76.84 44.376 76.48 42.36 75.976 40.8L73.576 41.184ZM77.704 41.112C78.304 42.528 78.856 44.4 79 45.552L81.352 44.928C81.16 43.752 80.536 41.928 79.912 40.56L77.704 41.112ZM73.552 35.496H77.896V37.008H73.552V35.496ZM77.896 28.056V29.544H73.552V28.056H77.896ZM77.896 33.288H73.552V31.8H77.896V33.288ZM80.728 37.008V35.496H87.112V33.288H80.728V31.8H87.112V29.544H80.728V28.056H87.952V25.608H70.744V39.48H86.704C86.488 42.576 86.224 43.848 85.888 44.256C85.672 44.496 85.456 44.52 85.072 44.52C84.664 44.544 83.776 44.52 82.816 44.424C83.248 45.168 83.56 46.248 83.608 47.064C84.784 47.112 85.864 47.088 86.536 46.992C87.28 46.896 87.808 46.68 88.336 46.08C89.032 45.288 89.344 43.152 89.656 38.136C89.68 37.752 89.704 37.008 89.704 37.008H80.728ZM85.384 43.344C85.072 42.408 84.304 41.04 83.584 40.008L81.52 40.704C82.216 41.76 82.912 43.224 83.176 44.136L85.384 43.344ZM109.672 38.184C110.728 37.536 111.712 36.84 112.624 36C113.536 36.816 114.52 37.536 115.624 38.184H109.672ZM110.32 43.776V40.584H114.832V43.776H110.32ZM106.24 36.312H103.6V33.504H106V31.968C106.648 32.4 107.512 33.168 107.92 33.6C108.4 33.096 108.88 32.544 109.336 31.944C109.768 32.64 110.248 33.36 110.824 34.056C109.48 35.304 107.896 36.336 106.24 37.056V36.312ZM100.216 28.008H103.384V31.056H100.216V28.008ZM114.256 29.376C113.776 30.384 113.2 31.32 112.504 32.208C111.832 31.392 111.232 30.552 110.752 29.736L110.944 29.376H114.256ZM115.96 26.856L115.456 26.952H112.096C112.312 26.424 112.504 25.872 112.696 25.344L109.984 24.672C109.192 27.288 107.752 29.832 106 31.512V25.56H97.72V33.504H101.08V42.528L99.88 42.768V35.184H97.552V43.248L96.472 43.44L96.976 46.176C99.688 45.552 103.336 44.712 106.696 43.872L106.432 41.352L103.6 42V38.808H106.24V38.112C106.576 38.568 106.936 39.096 107.128 39.48L107.68 39.24V47.04H110.32V46.224H114.832V46.968H117.568V39.12L117.616 39.144C118 38.4 118.816 37.272 119.392 36.744C117.472 36.144 115.816 35.184 114.424 34.08C115.888 32.304 117.016 30.144 117.76 27.624L115.96 26.856ZM133.024 31.488C132.976 33.648 132.616 36.288 131.32 38.832C130.576 38.184 129.808 37.536 129.112 36.936C129.496 35.352 129.904 33.528 130.264 31.68L133.024 31.488ZM135.856 27.624H133.048V28.752L130.744 28.872C130.96 27.552 131.152 26.208 131.296 24.984L128.248 24.816C128.152 26.136 127.984 27.576 127.768 29.016C126.856 29.064 126.016 29.112 125.248 29.136L125.536 31.968L127.288 31.848C126.88 34.032 126.4 36.096 125.92 37.68C127.096 38.736 128.464 39.936 129.784 41.136C128.704 42.504 127.216 43.776 125.248 44.856C125.896 45.336 126.856 46.368 127.264 47.016C129.256 45.864 130.768 44.568 131.92 43.176C132.952 44.16 133.84 45.096 134.464 45.864L136.6 43.704C135.856 42.888 134.776 41.856 133.576 40.776C135.4 37.512 135.784 34.056 135.856 31.296L136.648 31.224L136.672 28.56L135.856 28.608V27.624ZM139.984 41.952V29.832H143.776V41.952H139.984ZM137.272 27.144V46.44H139.984V44.664H143.776V46.056H146.608V27.144H137.272ZM162.136 39.432C162.16 43.296 161.944 44.496 157.768 45.144C158.272 45.624 158.944 46.584 159.112 47.208C164.272 46.272 164.824 44.208 164.8 39.432H162.136ZM166.696 36.36C165.832 36.36 165.688 36.072 165.688 35.352V35.28L171.424 34.776L171.208 32.64L165.688 33.12V31.68H172.48C172.288 32.328 172.096 32.904 171.904 33.384L174.232 33.96C174.736 32.856 175.312 31.224 175.792 29.808L173.824 29.376L173.368 29.448H165.4V28.44H174.04V26.232H165.4V24.696H162.568V29.448H156.448V36.192C156.448 39.072 156.208 42.768 153.976 45.36C154.576 45.624 155.656 46.488 156.112 46.944C158.656 44.088 159.088 39.504 159.088 36.216V31.68H162.904V33.36L159.664 33.648L159.88 35.832L162.904 35.544C162.952 37.8 163.792 38.664 166.576 38.664H171.352C172.384 38.664 173.632 38.64 174.184 38.472C174.088 37.824 174.016 36.912 173.92 36.144C173.344 36.288 172 36.36 171.184 36.36H166.696ZM171.304 44.472C170.56 44.472 170.44 44.376 170.44 43.704V39.432H167.752V43.752C167.752 45.96 168.352 46.68 170.896 46.68H173.656C175.744 46.68 176.416 45.816 176.68 42.312C175.984 42.144 174.856 41.76 174.304 41.376C174.208 44.088 174.064 44.472 173.368 44.472H171.304ZM187.792 41.712V29.928H200.512V41.712H187.792ZM184.792 27.024V46.608H187.792V44.664H200.512V46.56H203.656V27.024H184.792Z" fill="#565656"/>
<line x1="2.5" y1="-2.5" x2="29.0341" y2="-2.5" transform="matrix(0.68412 -0.729369 0.68412 0.729369 550.427 46)" stroke="#565656" stroke-width="5" stroke-linecap="round"/>
<path d="M570.025 43.9709L550.727 23.3972" stroke="#565656" stroke-width="5" stroke-linecap="round"/>
<path d="M43 1H573C583.493 1 592 9.50659 592 20V68H24V20C24 9.50659 32.5066 1 43 1Z" stroke="#81A8E0" stroke-width="2"/>
<rect x="40.5" y="89" width="195" height="60" rx="6" fill="#A08CED" fill-opacity="0.68"/>
<path d="M61.972 113.392H71.044V118.496H61.972V113.392ZM69.876 115.36V114.544H63.14V115.36H69.876ZM69.876 117.344V116.528H63.14V117.344H69.876ZM60.996 126.24V120.48H58.996V119.312H74.004V120.48H66.1V127.424H64.948V126.432H61.156V127.424H58.996V126.24H60.996ZM64.948 121.296V120.48H62.148V121.296H64.948ZM68.9 126.24V124.432H67.908V122.464H66.916V121.296H73.012V123.44H72.036V124.432H71.044V125.248H72.036V126.24H74.004V127.424H71.86V126.432H70.868V125.424H70.052V126.432H69.06V127.424H66.916V126.24H68.9ZM70.868 124.272V123.28H71.86V122.464H69.06V124.272H70.868ZM64.948 123.28V122.464H62.148V123.28H64.948ZM64.948 125.248V124.432H62.148V125.248H64.948ZM76.276 114.368H83.204V112.4H84.372V114.368H91.284V115.536H76.276V114.368ZM79.252 116.352H88.324V119.488H79.252V116.352ZM87.156 118.336V117.52H80.42V118.336H87.156ZM77.284 120.304H90.292V126.432H89.316V127.424H86.18V126.24H89.14V121.472H78.436V127.424H77.284V120.304ZM80.244 122.288H87.332V125.424H80.244V122.288ZM86.18 124.272V123.44H81.412V124.272H86.18ZM96.532 121.472H93.556V120.304H94.564V119.312H95.556V118.336H96.532V117.52H95.556V116.528H94.564V115.536H93.556V114.368H94.74V115.36H95.556V114.368H96.532V112.4H97.7V114.544H96.708V115.536H95.716V116.352H96.708V117.344H97.524V116.352H98.516V114.368H99.668V116.528H98.692V117.52H97.7V118.496H96.708V119.488H95.716V120.304H98.516V118.336H99.668V120.304H100.66V121.472H99.508V120.48H98.692V121.472H97.7V127.424H96.532V121.472ZM101.476 119.312H106.42V114.544H101.476V113.392H107.572V120.48H102.644V126.24H107.396V123.28H108.564V126.432H107.572V127.424H102.468V126.432H101.476V119.312ZM93.556 124.272H94.564V122.288H95.716V124.432H94.74V126.432H93.556V124.272ZM98.516 122.288H99.668V125.424H98.516V122.288ZM119.188 113.776V114.704H123.7V113.776H119.188ZM118.788 116.288V117.216H123.46V116.288H118.788ZM117.156 118.592V119.6H125.668V118.592H117.156ZM123.268 113.776V113.92C123.14 115.088 122.852 117.36 122.548 118.976L123.684 119.072C123.972 117.472 124.276 115.344 124.436 113.808L123.604 113.712L123.396 113.776H123.268ZM119.06 112.56C118.772 114.208 118.308 116.448 117.94 117.776L119.092 117.904C119.428 116.576 119.892 114.368 120.196 112.672L119.06 112.56ZM116.756 125.424L117.364 126.336C118.34 125.728 119.54 124.944 120.644 124.176L120.292 123.296C118.996 124.112 117.652 124.928 116.756 125.424ZM117.476 120.832C118.1 121.472 118.756 122.368 119.028 122.976L119.924 122.384C119.636 121.792 118.948 120.928 118.308 120.32L117.476 120.832ZM124.548 120.288C124.18 120.944 123.508 121.872 123.012 122.448L123.796 122.912C124.324 122.352 124.964 121.552 125.508 120.784L124.548 120.288ZM120.788 119.056V126.048C120.788 126.224 120.74 126.272 120.548 126.272C120.372 126.272 119.812 126.288 119.172 126.256C119.316 126.56 119.476 126.992 119.524 127.296C120.452 127.296 121.06 127.28 121.428 127.104C121.828 126.928 121.94 126.624 121.94 126.048V119.056H120.788ZM121.908 119.92L121.044 120.096C121.684 123.008 122.948 125.328 125.14 126.416C125.3 126.112 125.636 125.696 125.876 125.488C123.764 124.608 122.484 122.496 121.908 119.92ZM112.068 116.528V117.568H116.564V116.528H112.068ZM111.204 119.264V120.32H117.06V119.264H111.204ZM111.572 121.376C111.876 122.352 112.132 123.6 112.148 124.432L113.044 124.208C112.98 123.376 112.724 122.144 112.404 121.168L111.572 121.376ZM111.06 125.68L111.3 126.8C112.932 126.448 115.124 125.984 117.204 125.52L117.124 124.496C114.9 124.96 112.596 125.424 111.06 125.68ZM116.02 121.024C115.876 121.872 115.588 123.136 115.348 123.92L116.132 124.144C116.404 123.392 116.676 122.24 116.948 121.264L116.02 121.024ZM113.716 116.912V125.808L114.772 125.632V116.912H113.716ZM113.668 112.576C113.124 113.856 112.1 115.488 110.644 116.704C110.868 116.864 111.22 117.216 111.396 117.456C112.98 116.064 114.02 114.368 114.644 113.136V112.832H114.292V112.576H113.668ZM113.86 112.576V113.424H114.084C115.028 114.208 116.132 115.536 116.692 116.32L117.492 115.408C116.916 114.608 115.716 113.408 114.756 112.576H113.86Z" fill="white"/>
<path d="M139.396 125.608H141.412V123.624H143.396V121.64H147.332V119.656H149.316V117.704H151.3V112.104H149.316V110.12H143.716V112.104H141.764V118.024H139.396V111.752H141.412V109.768H143.396V107.816H149.668V109.768H151.62V111.752H153.604V118.024H151.62V120.008H149.668V121.992H147.684V123.976H143.716V125.96H141.764V131.528H153.604V133.896H139.396V125.608ZM159.972 129.896H157.956V111.752H159.972V109.768H161.956V107.816H168.228V109.768H170.18V111.752H172.164V129.896H170.18V131.88H168.228V133.896H161.956V131.88H159.972V129.896ZM162.276 129.576V131.528H167.876V129.576H169.86V112.104H167.876V110.12H162.276V112.104H160.324V129.576H162.276ZM178.532 129.896H176.516V111.752H178.532V109.768H180.516V107.816H186.788V109.768H188.74V111.752H190.724V129.896H188.74V131.88H186.788V133.896H180.516V131.88H178.532V129.896ZM180.836 129.576V131.528H186.436V129.576H188.42V112.104H186.436V110.12H180.836V112.104H178.884V129.576H180.836ZM197.092 129.896H195.076V111.752H197.092V109.768H199.076V107.816H205.348V109.768H207.3V111.752H209.284V129.896H207.3V131.88H205.348V133.896H199.076V131.88H197.092V129.896ZM199.396 129.576V131.528H204.996V129.576H206.98V112.104H204.996V110.12H199.396V112.104H197.444V129.576H199.396ZM215.652 129.896H213.636V111.752H215.652V109.768H217.636V107.816H223.908V109.768H225.86V111.752H227.844V129.896H225.86V131.88H223.908V133.896H217.636V131.88H215.652V129.896ZM217.956 129.576V131.528H223.556V129.576H225.54V112.104H223.556V110.12H217.956V112.104H216.004V129.576H217.956Z" fill="white"/>
<rect x="255.5" y="89" width="120" height="60" rx="6" fill="#BDB0F3"/>
<path d="M278.388 113.408H279.572V125.264H285.492V126.448H278.388V113.408ZM287.668 113.408H294.772V114.56H288.852V119.328H293.78V120.496H288.852V125.264H294.772V126.448H287.668V113.408ZM298.948 121.488H297.956V117.536H296.948V113.408H298.132V117.36H299.108V121.312H300.1V124.288H300.916V121.312H301.908V117.36H302.9V113.408H304.052V117.536H303.06V121.488H302.084V124.448H301.092V126.448H299.924V124.448H298.948V121.488ZM306.228 113.408H313.332V114.56H307.412V119.328H312.34V120.496H307.412V125.264H313.332V126.448H306.228V113.408ZM315.508 113.408H316.692V125.264H322.612V126.448H315.508V113.408Z" fill="white"/>
<path d="M342.412 129.896H340.396V125.608H342.764V129.576H344.716V131.528H350.316V129.576H352.3V123.976H350.316V121.992H344.396V119.656H350.316V117.704H352.3V112.104H350.316V110.12H344.716V112.104H342.764V116.072H340.396V111.752H342.412V109.768H344.396V107.816H350.668V109.768H352.62V111.752H354.604V118.024H352.62V120.008H350.668V121.64H352.62V123.624H354.604V129.896H352.62V131.88H350.668V133.896H344.396V131.88H342.412V129.896Z" fill="white"/>
<rect x="395.5" y="89" width="184" height="60" rx="6" fill="#BDB0F3"/>
<path d="M420.06 113.392H431.1V127.424H429.932V126.432H421.212V127.424H420.06V113.392ZM429.932 117.344V114.544H421.212V117.344H429.932ZM429.932 120.304V118.496H421.212V120.304H429.932ZM429.932 125.248V121.472H421.212V125.248H429.932ZM435.356 115.36H440.316V114.544H439.324V113.552H438.332V112.4H439.5V113.392H440.492V114.368H441.468V115.36H443.276V114.368H444.268V113.392H445.26V112.4H446.412V113.552H445.42V114.544H444.444V115.36H450.364V116.528H435.356V115.36ZM436.364 117.344H442.46V126.432H441.468V127.424H439.324V126.24H441.308V123.44H437.516V127.424H436.364V117.344ZM447.228 126.24V117.344H448.396V126.432H447.404V127.424H444.268V126.24H447.228ZM444.268 118.336H445.42V124.432H444.268V118.336ZM441.308 120.304V118.496H437.516V120.304H441.308ZM441.308 122.288V121.472H437.516V122.288H441.308ZM452.636 118.336H453.644V117.344H454.636V116.352H455.612V115.36H456.604V113.392H457.596V112.4H458.748V113.552H457.772V115.536H456.78V116.528H455.788V117.52H454.796V118.496H453.82V119.488H452.636V118.336ZM462.54 113.552H461.548V112.4H462.7V113.392H463.692V115.36H464.684V116.352H465.676V117.344H466.652V118.336H467.644V119.488H466.476V118.496H465.5V117.52H464.508V116.528H463.516V115.536H462.54V113.552ZM454.636 126.24V125.248H455.612V124.272H456.604V122.288H457.596V120.48H454.636V119.312H464.684V126.432H463.692V127.424H459.564V126.24H463.516V120.48H458.748V122.464H457.772V124.432H456.78V125.424H455.788V126.432H454.796V127.424H452.636V126.24H454.636ZM473.884 126.24V125.424H470.924V124.272H471.916V123.44H469.916V122.288H472.892V121.472H469.916V118.336H470.924V116.528H469.916V115.36H470.924V113.392H473.884V112.4H475.052V113.392H478.012V115.36H479.004V116.528H478.012V118.336H478.828V117.344H479.82V112.4H480.972V116.352H484.924V117.52H483.932V120.48H482.956V122.464H481.964V123.28H482.956V125.248H483.932V126.24H484.924V127.424H483.756V126.432H482.78V125.424H481.788V123.44H480.972V125.424H479.98V126.432H479.004V127.424H476.844V126.432H474.06V127.424H469.916V126.24H473.884ZM476.844 115.36V114.544H475.052V115.36H476.844ZM473.884 115.36V114.544H472.076V115.36H473.884ZM476.844 117.344V116.528H475.052V117.344H476.844ZM473.884 117.344V116.528H472.076V117.344H473.884ZM481.788 121.296V120.304H482.78V117.52H479.98V118.336H480.972V121.296H481.788ZM479.004 122.288V123.44H477.02V124.432H476.028V125.248H477.02V126.24H478.828V125.248H479.82V123.28H480.796V121.472H479.82V119.488H479.004V121.472H474.06V122.288H479.004ZM477.836 120.304V119.488H475.052V120.304H477.836ZM473.884 120.304V119.488H471.1V120.304H473.884ZM474.06 124.272V125.248H474.876V124.272H475.868V123.44H473.068V124.272H474.06Z" fill="white"/>
<path d="M500.46 110.12H496.524V107.816H502.796V133.896H500.46V110.12ZM513.132 129.896H511.116V125.608H513.484V129.576H515.436V131.528H521.036V129.576H523.02V123.976H521.036V121.992H515.116V119.656H521.036V117.704H523.02V112.104H521.036V110.12H515.436V112.104H513.484V116.072H511.116V111.752H513.132V109.768H515.116V107.816H521.388V109.768H523.34V111.752H525.324V118.024H523.34V120.008H521.388V121.64H523.34V123.624H525.324V129.896H523.34V131.88H521.388V133.896H515.116V131.88H513.132V129.896ZM531.692 129.896H529.676V111.752H531.692V109.768H533.676V107.816H539.948V109.768H541.9V111.752H543.884V129.896H541.9V131.88H539.948V133.896H533.676V131.88H531.692V129.896ZM533.996 129.576V131.528H539.596V129.576H541.58V112.104H539.596V110.12H533.996V112.104H532.044V129.576H533.996ZM550.252 129.896H548.236V111.752H550.252V109.768H552.236V107.816H558.508V109.768H560.46V111.752H562.444V129.896H560.46V131.88H558.508V133.896H552.236V131.88H550.252V129.896ZM552.556 129.576V131.528H558.156V129.576H560.14V112.104H558.156V110.12H552.556V112.104H550.604V129.576H552.556Z" fill="white"/>
<rect x="198" y="225" width="40" height="40" rx="5" transform="rotate(-90 198 225)" fill="white"/>
<path d="M226 205L210 205M217 212L210 205L217 198" stroke="#9587E1" stroke-width="3" stroke-linecap="round" stroke-linejoin="round"/>
<path d="M211.504 247.248H217.424V243.472H213.648V244.464H212.656V245.44H211.68V246.432H210.496V245.28H211.504V244.288H212.496V243.296H213.472V242.304H214.464V240.336H215.456V238.528H210.496V237.36H216.448V234.4H217.6V237.36H225.504V238.528H216.608V240.496H215.632V242.304H223.536V243.472H218.592V247.248H225.504V248.432H211.504V247.248Z" fill="#9587E1"/>
<rect x="298" y="185" width="40" height="40" rx="5" transform="rotate(90 298 185)" fill="white"/>
<path d="M270 205L286 205M279 198L286 205L279 212" stroke="#9587E1" stroke-width="3" stroke-linecap="round" stroke-linejoin="round"/>
<path d="M270.496 244.288H272.496V243.296H273.472V242.304H274.464V241.312H275.456V240.336H276.448V238.528H270.496V237.36H277.424V234.4H278.592V237.36H285.504V238.528H277.6V240.496H276.608V241.488H275.632V242.304H283.536V249.424H282.368V248.432H275.632V249.424H274.464V243.472H273.648V244.464H272.656V245.44H270.496V244.288ZM282.368 247.248V243.472H275.632V247.248H282.368Z" fill="#9587E1"/>
<rect width="40" height="40" rx="5" transform="matrix(1 0 0 -1 318 225)" fill="white"/>
<path d="M338 197V213M331 206L338 213L345 206" stroke="#9587E1" stroke-width="3" stroke-linecap="round" stroke-linejoin="round"/>
<path d="M337.424 236.544H330.496V235.392H345.504V236.544H338.592V239.344H340.56V240.336H342.544V241.312H344.512V242.48H342.368V241.488H340.4V240.496H338.592V249.424H337.424V236.544Z" fill="#9587E1"/>
<rect x="378" y="185" width="40" height="40" rx="5" fill="white"/>
<path d="M398 213V197M391 204L398 197L405 204" stroke="#9587E1" stroke-width="3" stroke-linecap="round" stroke-linejoin="round"/>
<path d="M386.848 247.248H387.824V243.296H388.992V246.272H389.984V247.248H390.8V241.488H387.824V240.496H386.848V239.344H387.824V237.36H388.816V234.4H389.984V237.36H395.904V238.528H388.992V239.52H388V240.336H394.912V243.472H393.76V241.488H391.952V244.288H394.912V245.44H391.952V248.24H395.904V249.424H391.776V248.432H389.808V247.424H388V249.424H386.848V247.248ZM380.896 247.248H381.904V238.528H380.896V237.36H382.896V234.4H384.048V237.36H387.008V238.528H383.056V241.312H386.032V248.432H385.04V249.424H382.896V248.24H384.864V242.48H383.056V247.424H382.08V249.424H380.896V247.248ZM400.096 245.28H403.072V244.464H400.096V238.352H403.072V237.536H400.096V236.368H403.072V234.4H404.24V236.368H406.048V235.392H410V234.4H411.152V235.392H415.104V236.544H414.112V242.304H415.104V243.472H413.936V242.48H413.136V244.288H415.104V245.44H413.136V248.432H412.144V249.424H410V248.24H411.968V245.44H409.184V246.272H410.16V247.424H409.008V246.432H408.016V245.44H406.208V246.432H404.24V249.424H403.072V246.432H400.096V245.28ZM410 242.304V241.488H407.024V236.544H406.208V237.536H404.24V238.352H406.208V242.304H410ZM410 237.36V236.544H408.192V237.36H410ZM412.96 237.36V236.544H411.152V237.36H412.96ZM410 240.336V238.528H408.192V240.336H410ZM412.96 240.336V238.528H411.152V240.336H412.96ZM403.072 240.336V239.52H401.28V240.336H403.072ZM405.056 240.336V239.52H404.24V240.336H405.056ZM403.072 243.296V241.488H401.28V243.296H403.072ZM412.96 242.304V241.488H411.152V242.304H412.96ZM405.056 243.296V241.488H404.24V243.296H405.056ZM411.968 244.288V243.472H406.208V244.288H411.968ZM406.048 245.28V244.464H404.24V245.28H406.048Z" fill="#9587E1"/>
<path d="M43 1H573C583.493 1 592 9.50659 592 20V262C592 272.493 583.493 281 573 281H43C32.5066 281 24 272.493 24 262V20C24 9.50658 32.5066 1 43 1Z" stroke="#81A8E0" stroke-width="2"/>
</g>
<defs>
<filter id="filter0_b_2801_11300" x="-19.5" y="-20" width="655" height="322" filterUnits="userSpaceOnUse" color-interpolation-filters="sRGB">
<feFlood flood-opacity="0" result="BackgroundImageFix"/>
<feGaussianBlur in="BackgroundImage" stdDeviation="10"/>
<feComposite in2="SourceAlpha" operator="in" result="effect1_backgroundBlur_2801_11300"/>
<feBlend mode="normal" in="SourceGraphic" in2="effect1_backgroundBlur_2801_11300" result="shape"/>
</filter>
</defs>
</svg>
