<svg width="616" height="282" viewBox="0 0 616 282" fill="none" xmlns="http://www.w3.org/2000/svg">
<g filter="url(#filter0_b_2801_11299)">
<path d="M23 20C23 8.9543 31.9543 0 43 0H573C584.046 0 593 8.95431 593 20V262C593 273.046 584.046 282 573 282H43C31.9543 282 23 273.046 23 262V20Z" fill="#FCFCFF"/>
<path d="M86.632 24.696C83.728 25.536 78.808 26.16 74.464 26.448C74.752 27.024 75.064 28.008 75.136 28.632C79.6 28.368 84.832 27.768 88.528 26.736L86.632 24.696ZM86.512 31.968C87.16 31.056 87.952 29.76 88.696 28.392L86.056 27.696C85.648 28.8 84.808 30.336 84.184 31.296L86.512 31.968ZM83.152 31.272C82.936 30.384 82.408 29.088 81.808 28.104L79.72 28.776C80.272 29.808 80.824 31.152 80.992 32.064L83.152 31.272ZM74.176 27.456C73.264 26.568 71.44 25.536 70.048 24.96L68.656 27.048C70.048 27.72 71.824 28.896 72.64 29.76L74.176 27.456ZM72.88 33.864C71.944 33.072 70.096 32.064 68.704 31.488L67.36 33.648C68.8 34.296 70.6 35.4 71.464 36.24L72.88 33.864ZM70.216 46.8C71.512 44.496 72.88 41.832 74.032 39.336L72.136 37.416C70.864 40.176 69.208 43.104 68.032 44.88L70.216 46.8ZM85.96 39.432H82.84V38.064H85.96V39.432ZM82.84 34.368H85.96V35.64H82.84V34.368ZM90.064 35.64H88.432V32.112H77.176L78.496 31.464C78.28 30.624 77.632 29.472 76.96 28.632L74.992 29.496C75.52 30.288 76.048 31.296 76.336 32.112H75.28V34.368H80.176V35.64H73.864V38.064H80.176V39.432H75.064V41.688H80.176V44.064C80.176 44.4 80.08 44.496 79.696 44.496C79.312 44.52 78.04 44.52 76.888 44.472C77.248 45.192 77.584 46.272 77.68 47.016C79.456 47.016 80.776 46.968 81.664 46.584C82.576 46.176 82.84 45.504 82.84 44.112V41.688H88.432V38.064H90.064V35.64ZM99.328 37.776C98.536 40.56 97.456 43.584 96.64 45.456L99.136 46.728C99.976 44.448 100.864 41.616 101.56 39.096L99.328 37.776ZM101.632 33.624C100.84 32.88 99.232 31.944 98.008 31.344L96.424 33.288C97.672 33.936 99.232 34.992 99.976 35.76L101.632 33.624ZM113.536 40.944H114.952V43.464H113.536V40.944ZM113.464 29.208C113.848 28.272 114.184 27.36 114.472 26.424C114.904 27.384 115.312 28.416 115.504 29.208H113.464ZM114.952 33.96H113.536V31.608H114.952V33.96ZM114.952 38.64H113.536V36.264H114.952V38.64ZM108.208 34.992H107.008V33.624H108.208V34.992ZM103.96 33.624H105.088V34.992H103.96V33.624ZM107.008 28.32V29.4H105.28V28.32H107.008ZM119.104 43.464H117.16V40.944H118.48V38.64H117.16V36.264H118.456V33.96H117.16V31.608H118.792V29.208H115.936L117.736 28.56C117.472 27.576 116.824 26.088 116.176 24.984L114.784 25.44L114.808 25.32L112.336 24.672C111.856 26.952 110.848 29.904 109.504 31.824H107.248V31.056H109.12V28.32H110.632V26.256H109.12V24.696H107.008V26.256H105.28V24.696H103.264V26.256H101.608V27.264C100.84 26.544 99.64 25.704 98.68 25.152L97 27C98.128 27.72 99.52 28.848 100.144 29.616L101.608 27.96V28.32H103.264V31.056H104.848V31.824H102.04V36.768H104.848V37.584H102.16V39.552H104.848C104.824 39.84 104.8 40.128 104.776 40.416H101.752V42.48H104.176C103.672 43.464 102.832 44.4 101.416 45.192C101.848 45.552 102.736 46.584 103 47.112C104.464 46.224 105.472 45.144 106.12 43.92C107.056 44.784 108.136 45.864 108.688 46.512L110.44 44.616C109.984 44.256 108.64 43.224 107.632 42.48H110.368V40.416H107.176C107.2 40.128 107.224 39.84 107.248 39.552H110.056V37.584H107.248V36.768H110.224V33.456C110.392 33.744 110.536 33.96 110.632 34.176C110.776 33.984 110.944 33.792 111.088 33.6V47.064H113.536V45.864H119.104V43.464ZM147.256 34.056V31.104H137.824C138.064 28.872 138.088 26.664 138.112 24.696H134.992C134.968 26.664 134.992 28.848 134.752 31.104H126.016V34.056H134.272C133.336 38.184 131.056 42.168 125.56 44.616C126.4 45.216 127.24 46.248 127.696 47.04C132.784 44.592 135.376 40.848 136.672 36.84C138.544 41.472 141.328 44.976 145.672 47.016C146.128 46.2 147.064 44.928 147.784 44.328C143.296 42.504 140.392 38.736 138.808 34.056H147.256ZM159.448 24.768C158.248 28.176 156.16 31.584 153.976 33.744C154.48 34.464 155.296 36.096 155.56 36.792C156.04 36.264 156.544 35.664 157.048 35.064V47.064H159.928V30.624C160.816 29.016 161.608 27.312 162.232 25.632L159.448 24.768ZM176.656 31.296V28.584H167.344C167.8 27.6 168.184 26.616 168.52 25.608L165.76 24.912C164.68 28.344 162.784 31.8 160.672 33.96C161.272 34.416 162.4 35.424 162.856 35.952C163.936 34.704 165.04 33.072 166 31.296H166.912V47.088H169.84V41.76H176.368V39.12H169.84V36.408H176.056V33.816H169.84V31.296H176.656ZM205.216 29.04C204.856 27.912 203.776 26.256 202.84 25.008L200.68 26.136C201.592 27.408 202.552 29.184 202.936 30.288L205.216 29.04ZM193.192 28.632H191.92V27.072H193.192V28.632ZM195.328 25.296H189.904V30.432H195.328V25.296ZM186.928 28.632H185.68V27.072H186.928V28.632ZM189.016 25.296H183.64V30.432H189.016V25.296ZM186.232 36.648H188.224V37.944H186.232V36.648ZM186.232 33.432H188.224V34.68H186.232V33.432ZM192.664 34.68H190.624V33.432H192.664V34.68ZM192.664 37.944H190.624V36.648H192.664V37.944ZM195.736 43.728V41.232H190.768V40.032H195.112V31.344H183.88V40.032H188.056V41.232H182.944V43.728H188.056V47.088H190.768V43.728H195.736ZM202.744 33.792C202.288 35.256 201.64 36.72 200.848 38.088C200.656 36.792 200.464 35.328 200.32 33.744L205.528 33.096L205.24 30.48L200.128 31.104C200.008 29.136 199.912 27 199.888 24.816H197.2C197.248 27.168 197.344 29.376 197.464 31.416L195.376 31.68L195.664 34.32L197.656 34.08C197.896 36.792 198.232 39.168 198.688 41.112C197.296 42.696 195.664 44.016 193.864 44.856C194.608 45.384 195.448 46.2 195.928 46.848C197.224 46.104 198.448 45.12 199.576 43.968C200.392 45.936 201.496 47.04 202.936 47.112C203.968 47.136 205.192 46.2 205.792 42.024C205.336 41.76 204.184 41.04 203.728 40.416C203.608 42.576 203.344 43.704 202.96 43.704C202.456 43.656 202 42.888 201.592 41.544C203.008 39.552 204.16 37.296 204.904 34.992L202.744 33.792Z" fill="#565656"/>
<line x1="2.5" y1="-2.5" x2="29.0341" y2="-2.5" transform="matrix(0.68412 -0.729369 0.68412 0.729369 550.427 46)" stroke="#565656" stroke-width="5" stroke-linecap="round"/>
<path d="M570.025 43.9709L550.727 23.3972" stroke="#565656" stroke-width="5" stroke-linecap="round"/>
<path d="M43 1H573C583.493 1 592 9.50659 592 20V68H24V20C24 9.50659 32.5066 1 43 1Z" stroke="#81A8E0" stroke-width="2"/>
<rect x="40.5" y="89" width="195" height="60" rx="6" fill="#A08CED" fill-opacity="0.68"/>
<path d="M61.972 113.392H71.044V118.496H61.972V113.392ZM69.876 115.36V114.544H63.14V115.36H69.876ZM69.876 117.344V116.528H63.14V117.344H69.876ZM60.996 126.24V120.48H58.996V119.312H74.004V120.48H66.1V127.424H64.948V126.432H61.156V127.424H58.996V126.24H60.996ZM64.948 121.296V120.48H62.148V121.296H64.948ZM68.9 126.24V124.432H67.908V122.464H66.916V121.296H73.012V123.44H72.036V124.432H71.044V125.248H72.036V126.24H74.004V127.424H71.86V126.432H70.868V125.424H70.052V126.432H69.06V127.424H66.916V126.24H68.9ZM70.868 124.272V123.28H71.86V122.464H69.06V124.272H70.868ZM64.948 123.28V122.464H62.148V123.28H64.948ZM64.948 125.248V124.432H62.148V125.248H64.948ZM76.276 114.368H83.204V112.4H84.372V114.368H91.284V115.536H76.276V114.368ZM79.252 116.352H88.324V119.488H79.252V116.352ZM87.156 118.336V117.52H80.42V118.336H87.156ZM77.284 120.304H90.292V126.432H89.316V127.424H86.18V126.24H89.14V121.472H78.436V127.424H77.284V120.304ZM80.244 122.288H87.332V125.424H80.244V122.288ZM86.18 124.272V123.44H81.412V124.272H86.18ZM96.532 121.472H93.556V120.304H94.564V119.312H95.556V118.336H96.532V117.52H95.556V116.528H94.564V115.536H93.556V114.368H94.74V115.36H95.556V114.368H96.532V112.4H97.7V114.544H96.708V115.536H95.716V116.352H96.708V117.344H97.524V116.352H98.516V114.368H99.668V116.528H98.692V117.52H97.7V118.496H96.708V119.488H95.716V120.304H98.516V118.336H99.668V120.304H100.66V121.472H99.508V120.48H98.692V121.472H97.7V127.424H96.532V121.472ZM101.476 119.312H106.42V114.544H101.476V113.392H107.572V120.48H102.644V126.24H107.396V123.28H108.564V126.432H107.572V127.424H102.468V126.432H101.476V119.312ZM93.556 124.272H94.564V122.288H95.716V124.432H94.74V126.432H93.556V124.272ZM98.516 122.288H99.668V125.424H98.516V122.288ZM119.188 113.776V114.704H123.7V113.776H119.188ZM118.788 116.288V117.216H123.46V116.288H118.788ZM117.156 118.592V119.6H125.668V118.592H117.156ZM123.268 113.776V113.92C123.14 115.088 122.852 117.36 122.548 118.976L123.684 119.072C123.972 117.472 124.276 115.344 124.436 113.808L123.604 113.712L123.396 113.776H123.268ZM119.06 112.56C118.772 114.208 118.308 116.448 117.94 117.776L119.092 117.904C119.428 116.576 119.892 114.368 120.196 112.672L119.06 112.56ZM116.756 125.424L117.364 126.336C118.34 125.728 119.54 124.944 120.644 124.176L120.292 123.296C118.996 124.112 117.652 124.928 116.756 125.424ZM117.476 120.832C118.1 121.472 118.756 122.368 119.028 122.976L119.924 122.384C119.636 121.792 118.948 120.928 118.308 120.32L117.476 120.832ZM124.548 120.288C124.18 120.944 123.508 121.872 123.012 122.448L123.796 122.912C124.324 122.352 124.964 121.552 125.508 120.784L124.548 120.288ZM120.788 119.056V126.048C120.788 126.224 120.74 126.272 120.548 126.272C120.372 126.272 119.812 126.288 119.172 126.256C119.316 126.56 119.476 126.992 119.524 127.296C120.452 127.296 121.06 127.28 121.428 127.104C121.828 126.928 121.94 126.624 121.94 126.048V119.056H120.788ZM121.908 119.92L121.044 120.096C121.684 123.008 122.948 125.328 125.14 126.416C125.3 126.112 125.636 125.696 125.876 125.488C123.764 124.608 122.484 122.496 121.908 119.92ZM112.068 116.528V117.568H116.564V116.528H112.068ZM111.204 119.264V120.32H117.06V119.264H111.204ZM111.572 121.376C111.876 122.352 112.132 123.6 112.148 124.432L113.044 124.208C112.98 123.376 112.724 122.144 112.404 121.168L111.572 121.376ZM111.06 125.68L111.3 126.8C112.932 126.448 115.124 125.984 117.204 125.52L117.124 124.496C114.9 124.96 112.596 125.424 111.06 125.68ZM116.02 121.024C115.876 121.872 115.588 123.136 115.348 123.92L116.132 124.144C116.404 123.392 116.676 122.24 116.948 121.264L116.02 121.024ZM113.716 116.912V125.808L114.772 125.632V116.912H113.716ZM113.668 112.576C113.124 113.856 112.1 115.488 110.644 116.704C110.868 116.864 111.22 117.216 111.396 117.456C112.98 116.064 114.02 114.368 114.644 113.136V112.832H114.292V112.576H113.668ZM113.86 112.576V113.424H114.084C115.028 114.208 116.132 115.536 116.692 116.32L117.492 115.408C116.916 114.608 115.716 113.408 114.756 112.576H113.86Z" fill="white"/>
<path d="M147.3 110.12H143.364V107.816H149.636V133.896H147.3V110.12ZM159.972 129.896H157.956V127.592H160.324V129.576H162.276V131.528H167.876V129.576H169.86V121.992H167.876V120.008H162.276V121.992H160.324V123.976H157.956V107.816H170.18V110.12H160.324V119.656H161.956V117.704H168.228V119.656H170.18V121.64H172.164V129.896H170.18V131.88H168.228V133.896H161.956V131.88H159.972V129.896ZM178.532 129.896H176.516V111.752H178.532V109.768H180.516V107.816H186.788V109.768H188.74V111.752H190.724V129.896H188.74V131.88H186.788V133.896H180.516V131.88H178.532V129.896ZM180.836 129.576V131.528H186.436V129.576H188.42V112.104H186.436V110.12H180.836V112.104H178.884V129.576H180.836ZM197.092 129.896H195.076V111.752H197.092V109.768H199.076V107.816H205.348V109.768H207.3V111.752H209.284V129.896H207.3V131.88H205.348V133.896H199.076V131.88H197.092V129.896ZM199.396 129.576V131.528H204.996V129.576H206.98V112.104H204.996V110.12H199.396V112.104H197.444V129.576H199.396Z" fill="white"/>
<rect x="255.5" y="89" width="120" height="60" rx="6" fill="#BDB0F3"/>
<path d="M278.388 113.408H279.572V125.264H285.492V126.448H278.388V113.408ZM287.668 113.408H294.772V114.56H288.852V119.328H293.78V120.496H288.852V125.264H294.772V126.448H287.668V113.408ZM298.948 121.488H297.956V117.536H296.948V113.408H298.132V117.36H299.108V121.312H300.1V124.288H300.916V121.312H301.908V117.36H302.9V113.408H304.052V117.536H303.06V121.488H302.084V124.448H301.092V126.448H299.924V124.448H298.948V121.488ZM306.228 113.408H313.332V114.56H307.412V119.328H312.34V120.496H307.412V125.264H313.332V126.448H306.228V113.408ZM315.508 113.408H316.692V125.264H322.612V126.448H315.508V113.408Z" fill="white"/>
<path d="M339.52 110.12H335.584V107.816H341.856V133.896H339.52V110.12ZM352.192 129.896H350.176V111.752H352.192V109.768H354.176V107.816H360.448V109.768H362.4V111.752H364.384V129.896H362.4V131.88H360.448V133.896H354.176V131.88H352.192V129.896ZM354.496 129.576V131.528H360.096V129.576H362.08V112.104H360.096V110.12H354.496V112.104H352.544V129.576H354.496Z" fill="white"/>
<rect x="395.5" y="89" width="184" height="60" rx="6" fill="#BDB0F3"/>
<path d="M420.06 113.392H431.1V127.424H429.932V126.432H421.212V127.424H420.06V113.392ZM429.932 117.344V114.544H421.212V117.344H429.932ZM429.932 120.304V118.496H421.212V120.304H429.932ZM429.932 125.248V121.472H421.212V125.248H429.932ZM435.356 115.36H440.316V114.544H439.324V113.552H438.332V112.4H439.5V113.392H440.492V114.368H441.468V115.36H443.276V114.368H444.268V113.392H445.26V112.4H446.412V113.552H445.42V114.544H444.444V115.36H450.364V116.528H435.356V115.36ZM436.364 117.344H442.46V126.432H441.468V127.424H439.324V126.24H441.308V123.44H437.516V127.424H436.364V117.344ZM447.228 126.24V117.344H448.396V126.432H447.404V127.424H444.268V126.24H447.228ZM444.268 118.336H445.42V124.432H444.268V118.336ZM441.308 120.304V118.496H437.516V120.304H441.308ZM441.308 122.288V121.472H437.516V122.288H441.308ZM452.636 118.336H453.644V117.344H454.636V116.352H455.612V115.36H456.604V113.392H457.596V112.4H458.748V113.552H457.772V115.536H456.78V116.528H455.788V117.52H454.796V118.496H453.82V119.488H452.636V118.336ZM462.54 113.552H461.548V112.4H462.7V113.392H463.692V115.36H464.684V116.352H465.676V117.344H466.652V118.336H467.644V119.488H466.476V118.496H465.5V117.52H464.508V116.528H463.516V115.536H462.54V113.552ZM454.636 126.24V125.248H455.612V124.272H456.604V122.288H457.596V120.48H454.636V119.312H464.684V126.432H463.692V127.424H459.564V126.24H463.516V120.48H458.748V122.464H457.772V124.432H456.78V125.424H455.788V126.432H454.796V127.424H452.636V126.24H454.636ZM473.884 126.24V125.424H470.924V124.272H471.916V123.44H469.916V122.288H472.892V121.472H469.916V118.336H470.924V116.528H469.916V115.36H470.924V113.392H473.884V112.4H475.052V113.392H478.012V115.36H479.004V116.528H478.012V118.336H478.828V117.344H479.82V112.4H480.972V116.352H484.924V117.52H483.932V120.48H482.956V122.464H481.964V123.28H482.956V125.248H483.932V126.24H484.924V127.424H483.756V126.432H482.78V125.424H481.788V123.44H480.972V125.424H479.98V126.432H479.004V127.424H476.844V126.432H474.06V127.424H469.916V126.24H473.884ZM476.844 115.36V114.544H475.052V115.36H476.844ZM473.884 115.36V114.544H472.076V115.36H473.884ZM476.844 117.344V116.528H475.052V117.344H476.844ZM473.884 117.344V116.528H472.076V117.344H473.884ZM481.788 121.296V120.304H482.78V117.52H479.98V118.336H480.972V121.296H481.788ZM479.004 122.288V123.44H477.02V124.432H476.028V125.248H477.02V126.24H478.828V125.248H479.82V123.28H480.796V121.472H479.82V119.488H479.004V121.472H474.06V122.288H479.004ZM477.836 120.304V119.488H475.052V120.304H477.836ZM473.884 120.304V119.488H471.1V120.304H473.884ZM474.06 124.272V125.248H474.876V124.272H475.868V123.44H473.068V124.272H474.06Z" fill="white"/>
<path d="M503.852 129.896H501.836V111.752H503.852V109.768H505.836V107.816H512.108V109.768H514.06V111.752H516.044V129.896H514.06V131.88H512.108V133.896H505.836V131.88H503.852V129.896ZM506.156 129.576V131.528H511.756V129.576H513.74V112.104H511.756V110.12H506.156V112.104H504.204V129.576H506.156ZM522.412 129.896H520.396V111.752H522.412V109.768H524.396V107.816H530.668V109.768H532.62V111.752H534.604V129.896H532.62V131.88H530.668V133.896H524.396V131.88H522.412V129.896ZM524.716 129.576V131.528H530.316V129.576H532.3V112.104H530.316V110.12H524.716V112.104H522.764V129.576H524.716ZM538.956 125.608H540.972V123.624H542.956V121.64H546.892V119.656H548.876V117.704H550.86V112.104H548.876V110.12H543.276V112.104H541.324V118.024H538.956V111.752H540.972V109.768H542.956V107.816H549.228V109.768H551.18V111.752H553.164V118.024H551.18V120.008H549.228V121.992H547.244V123.976H543.276V125.96H541.324V131.528H553.164V133.896H538.956V125.608Z" fill="white"/>
<rect x="198" y="225" width="40" height="40" rx="5" transform="rotate(-90 198 225)" fill="white"/>
<path d="M226 205L210 205M217 212L210 205L217 198" stroke="#9587E1" stroke-width="3" stroke-linecap="round" stroke-linejoin="round"/>
<path d="M211.504 247.248H217.424V243.472H213.648V244.464H212.656V245.44H211.68V246.432H210.496V245.28H211.504V244.288H212.496V243.296H213.472V242.304H214.464V240.336H215.456V238.528H210.496V237.36H216.448V234.4H217.6V237.36H225.504V238.528H216.608V240.496H215.632V242.304H223.536V243.472H218.592V247.248H225.504V248.432H211.504V247.248Z" fill="#9587E1"/>
<rect x="298" y="185" width="40" height="40" rx="5" transform="rotate(90 298 185)" fill="white"/>
<path d="M270 205L286 205M279 198L286 205L279 212" stroke="#9587E1" stroke-width="3" stroke-linecap="round" stroke-linejoin="round"/>
<path d="M270.496 244.288H272.496V243.296H273.472V242.304H274.464V241.312H275.456V240.336H276.448V238.528H270.496V237.36H277.424V234.4H278.592V237.36H285.504V238.528H277.6V240.496H276.608V241.488H275.632V242.304H283.536V249.424H282.368V248.432H275.632V249.424H274.464V243.472H273.648V244.464H272.656V245.44H270.496V244.288ZM282.368 247.248V243.472H275.632V247.248H282.368Z" fill="#9587E1"/>
<rect width="40" height="40" rx="5" transform="matrix(1 0 0 -1 318 225)" fill="white"/>
<path d="M338 197V213M331 206L338 213L345 206" stroke="#9587E1" stroke-width="3" stroke-linecap="round" stroke-linejoin="round"/>
<path d="M337.424 236.544H330.496V235.392H345.504V236.544H338.592V239.344H340.56V240.336H342.544V241.312H344.512V242.48H342.368V241.488H340.4V240.496H338.592V249.424H337.424V236.544Z" fill="#9587E1"/>
<rect x="378" y="185" width="40" height="40" rx="5" fill="white"/>
<path d="M398 213V197M391 204L398 197L405 204" stroke="#9587E1" stroke-width="3" stroke-linecap="round" stroke-linejoin="round"/>
<path d="M386.848 247.248H387.824V243.296H388.992V246.272H389.984V247.248H390.8V241.488H387.824V240.496H386.848V239.344H387.824V237.36H388.816V234.4H389.984V237.36H395.904V238.528H388.992V239.52H388V240.336H394.912V243.472H393.76V241.488H391.952V244.288H394.912V245.44H391.952V248.24H395.904V249.424H391.776V248.432H389.808V247.424H388V249.424H386.848V247.248ZM380.896 247.248H381.904V238.528H380.896V237.36H382.896V234.4H384.048V237.36H387.008V238.528H383.056V241.312H386.032V248.432H385.04V249.424H382.896V248.24H384.864V242.48H383.056V247.424H382.08V249.424H380.896V247.248ZM400.096 245.28H403.072V244.464H400.096V238.352H403.072V237.536H400.096V236.368H403.072V234.4H404.24V236.368H406.048V235.392H410V234.4H411.152V235.392H415.104V236.544H414.112V242.304H415.104V243.472H413.936V242.48H413.136V244.288H415.104V245.44H413.136V248.432H412.144V249.424H410V248.24H411.968V245.44H409.184V246.272H410.16V247.424H409.008V246.432H408.016V245.44H406.208V246.432H404.24V249.424H403.072V246.432H400.096V245.28ZM410 242.304V241.488H407.024V236.544H406.208V237.536H404.24V238.352H406.208V242.304H410ZM410 237.36V236.544H408.192V237.36H410ZM412.96 237.36V236.544H411.152V237.36H412.96ZM410 240.336V238.528H408.192V240.336H410ZM412.96 240.336V238.528H411.152V240.336H412.96ZM403.072 240.336V239.52H401.28V240.336H403.072ZM405.056 240.336V239.52H404.24V240.336H405.056ZM403.072 243.296V241.488H401.28V243.296H403.072ZM412.96 242.304V241.488H411.152V242.304H412.96ZM405.056 243.296V241.488H404.24V243.296H405.056ZM411.968 244.288V243.472H406.208V244.288H411.968ZM406.048 245.28V244.464H404.24V245.28H406.048Z" fill="#9587E1"/>
<path d="M43 1H573C583.493 1 592 9.50659 592 20V262C592 272.493 583.493 281 573 281H43C32.5066 281 24 272.493 24 262V20C24 9.50658 32.5066 1 43 1Z" stroke="#81A8E0" stroke-width="2"/>
</g>
<defs>
<filter id="filter0_b_2801_11299" x="-19.5" y="-20" width="655" height="322" filterUnits="userSpaceOnUse" color-interpolation-filters="sRGB">
<feFlood flood-opacity="0" result="BackgroundImageFix"/>
<feGaussianBlur in="BackgroundImage" stdDeviation="10"/>
<feComposite in2="SourceAlpha" operator="in" result="effect1_backgroundBlur_2801_11299"/>
<feBlend mode="normal" in="SourceGraphic" in2="effect1_backgroundBlur_2801_11299" result="shape"/>
</filter>
</defs>
</svg>
