<svg width="115" height="115" viewBox="0 0 115 115" fill="none" xmlns="http://www.w3.org/2000/svg">
<circle cx="57.5" cy="57.5" r="57.5" fill="#9587E1"/>
<path d="M68.4756 100.5C64.3548 103.231 59.2007 103.5 54.1314 103.5C48.3497 103.5 42.9046 101.291 40.6314 97.0005C38.3582 92.71 38.905 87.1838 39.6315 83.1007C40.918 75.8526 46.0371 70.9408 53.7108 71.0005C61.3846 71.0603 67.1314 75.5005 68.4756 83.1007C70.0931 92.2463 68.6314 93.5005 73.1314 94.5005C73.805 95.7097 70.7389 99.0005 68.4756 100.5ZM52.0913 85.87C52.0925 85.2999 51.8731 84.7508 51.478 84.3347C51.0828 83.9185 50.5416 83.6668 49.9648 83.6307C49.6741 83.6086 49.3818 83.6432 49.1047 83.7326C48.8276 83.8219 48.571 83.9642 48.3497 84.1514C48.1283 84.3385 47.9465 84.5669 47.8146 84.8233C47.6827 85.0798 47.6033 85.3594 47.5809 85.6461C47.5586 85.9328 47.5937 86.2211 47.6843 86.4944C47.7748 86.7678 47.9191 87.0208 48.1089 87.2392C48.2986 87.4575 48.5301 87.6369 48.7901 87.767C49.0501 87.8971 49.3335 87.9754 49.6242 87.9975C50.994 88.1617 51.7432 87.251 52.0913 85.87ZM59.8408 86.0044C59.8531 85.4299 59.6365 84.8734 59.2375 84.4547C58.8384 84.036 58.2888 83.7883 57.7066 83.765C57.4112 83.7242 57.1103 83.7467 56.8246 83.8311C56.5388 83.9154 56.2748 84.0596 56.0507 84.2537C55.8265 84.4479 55.6475 84.6875 55.5258 84.9561C55.4041 85.2247 55.3426 85.5161 55.3455 85.8103C55.3102 86.1025 55.3381 86.3988 55.4273 86.6796C55.5165 86.9604 55.6651 87.2193 55.8631 87.4393C56.0612 87.6594 56.3043 87.8355 56.5764 87.9562C56.8485 88.0768 57.1434 88.1392 57.4418 88.1393C58.804 88.2064 59.5834 87.3854 59.8408 86.0044Z" fill="white"/>
<rect x="11" y="26" width="93" height="38" rx="19" fill="white"/>
<path d="M73 77C82.0463 73.2759 82.5946 63.4483 81.7379 59H90.9899C91.4011 71.9103 79.168 76.3793 73 77Z" fill="white"/>
<path d="M23.8 41.442C23.524 41.442 23.284 41.34 23.08 41.136C22.876 40.932 22.774 40.692 22.774 40.416V40.128C22.774 39.852 22.876 39.612 23.08 39.408C23.284 39.204 23.524 39.102 23.8 39.102H24.322C24.418 39.102 24.466 39.054 24.466 38.958V37.32C24.466 37.044 24.568 36.804 24.772 36.6C24.976 36.396 25.216 36.294 25.492 36.294H26.176C26.452 36.294 26.692 36.396 26.896 36.6C27.1 36.804 27.202 37.044 27.202 37.32V38.958C27.202 39.054 27.25 39.102 27.346 39.102H27.58C27.856 39.102 28.09 39.204 28.282 39.408C28.486 39.612 28.588 39.852 28.588 40.128V40.416C28.588 40.692 28.486 40.932 28.282 41.136C28.09 41.34 27.856 41.442 27.58 41.442H27.346C27.25 41.442 27.202 41.496 27.202 41.604V44.538C27.202 44.634 27.25 44.67 27.346 44.646C27.358 44.634 27.382 44.628 27.418 44.628C27.454 44.628 27.478 44.622 27.49 44.61C27.742 44.538 27.982 44.574 28.21 44.718C28.306 44.778 28.354 44.76 28.354 44.664C28.366 44.388 28.468 44.154 28.66 43.962C28.852 43.758 29.086 43.656 29.362 43.656H29.452C29.476 43.656 29.494 43.644 29.506 43.62C29.518 43.596 29.512 43.572 29.488 43.548L28.786 42.828C28.594 42.624 28.504 42.384 28.516 42.108C28.528 41.832 28.624 41.58 28.804 41.352C29.164 40.92 29.41 40.44 29.542 39.912C29.674 39.384 29.74 38.646 29.74 37.698C29.74 37.422 29.842 37.188 30.046 36.996C30.25 36.792 30.49 36.69 30.766 36.69H35.716C35.992 36.69 36.226 36.792 36.418 36.996C36.622 37.2 36.724 37.44 36.724 37.716V40.704C36.724 40.836 36.742 40.92 36.778 40.956C36.814 40.98 36.922 40.992 37.102 40.992C37.294 40.992 37.414 40.938 37.462 40.83C37.522 40.722 37.576 40.392 37.624 39.84C37.636 39.576 37.75 39.36 37.966 39.192C38.182 39.012 38.422 38.946 38.686 38.994C38.962 39.042 39.184 39.18 39.352 39.408C39.532 39.624 39.616 39.876 39.604 40.164C39.58 40.56 39.556 40.884 39.532 41.136C39.508 41.388 39.46 41.634 39.388 41.874C39.316 42.102 39.256 42.282 39.208 42.414C39.16 42.534 39.052 42.648 38.884 42.756C38.728 42.864 38.596 42.942 38.488 42.99C38.38 43.026 38.176 43.062 37.876 43.098C37.576 43.122 37.318 43.134 37.102 43.134C36.886 43.134 36.544 43.134 36.076 43.134C35.176 43.134 34.606 43.062 34.366 42.918C34.126 42.774 34.006 42.456 34.006 41.964V39.174C34.006 39.066 33.952 39.012 33.844 39.012H32.476C32.368 39.012 32.314 39.072 32.314 39.192C32.278 40.14 32.11 40.956 31.81 41.64C31.51 42.324 31.054 42.96 30.442 43.548C30.418 43.572 30.412 43.596 30.424 43.62C30.436 43.644 30.454 43.656 30.478 43.656H37.552C37.828 43.656 38.068 43.758 38.272 43.962C38.476 44.166 38.578 44.406 38.578 44.682V45.87C38.578 45.918 38.554 45.942 38.506 45.942C38.554 45.954 38.56 45.996 38.524 46.068C37.876 47.256 37.078 48.264 36.13 49.092C36.058 49.164 36.064 49.218 36.148 49.254C36.808 49.542 37.63 49.824 38.614 50.1C38.878 50.172 39.07 50.328 39.19 50.568C39.322 50.808 39.34 51.054 39.244 51.306L39.064 51.738C38.956 52.014 38.77 52.218 38.506 52.35C38.242 52.494 37.966 52.524 37.678 52.44C36.322 52.08 34.996 51.564 33.7 50.892C33.628 50.844 33.532 50.844 33.412 50.892C32.368 51.432 31.06 51.936 29.488 52.404C29.212 52.488 28.936 52.464 28.66 52.332C28.396 52.212 28.204 52.02 28.084 51.756L27.85 51.27C27.742 51.03 27.742 50.796 27.85 50.568C27.97 50.328 28.156 50.178 28.408 50.118C29.236 49.902 30.082 49.626 30.946 49.29C30.982 49.278 31 49.254 31 49.218C31.012 49.17 31.006 49.14 30.982 49.128C30.466 48.696 30.064 48.33 29.776 48.03C29.584 47.826 29.506 47.586 29.542 47.31C29.578 47.034 29.71 46.812 29.938 46.644L30.748 46.032C30.772 46.008 30.778 45.99 30.766 45.978C30.754 45.954 30.736 45.942 30.712 45.942H29.362C29.158 45.942 28.966 45.882 28.786 45.762C28.738 45.738 28.702 45.756 28.678 45.816C28.69 46.092 28.612 46.344 28.444 46.572C28.288 46.8 28.084 46.95 27.832 47.022C27.784 47.034 27.706 47.058 27.598 47.094C27.49 47.118 27.412 47.136 27.364 47.148C27.256 47.172 27.202 47.238 27.202 47.346V49.416C27.202 49.968 27.196 50.406 27.184 50.73C27.172 51.042 27.13 51.33 27.058 51.594C26.986 51.87 26.902 52.068 26.806 52.188C26.71 52.308 26.554 52.41 26.338 52.494C26.122 52.578 25.894 52.626 25.654 52.638C25.426 52.662 25.102 52.674 24.682 52.674C24.442 52.674 24.226 52.668 24.034 52.656C23.746 52.632 23.494 52.518 23.278 52.314C23.062 52.11 22.948 51.864 22.936 51.576V51.342C22.924 51.078 23.008 50.85 23.188 50.658C23.38 50.466 23.614 50.382 23.89 50.406C23.95 50.406 24.022 50.412 24.106 50.424C24.19 50.424 24.238 50.424 24.25 50.424C24.358 50.424 24.418 50.394 24.43 50.334C24.454 50.274 24.466 50.058 24.466 49.686V47.994C24.466 47.958 24.454 47.928 24.43 47.904C24.406 47.868 24.376 47.856 24.34 47.868C24.184 47.916 24.052 47.946 23.944 47.958C23.68 48.006 23.44 47.946 23.224 47.778C23.008 47.61 22.888 47.388 22.864 47.112L22.828 46.662C22.816 46.374 22.9 46.122 23.08 45.906C23.26 45.678 23.488 45.534 23.764 45.474L24.304 45.366C24.412 45.342 24.466 45.282 24.466 45.186V41.604C24.466 41.496 24.418 41.442 24.322 41.442H23.8ZM31.396 45.942C31.372 45.942 31.348 45.96 31.324 45.996C31.312 46.02 31.318 46.044 31.342 46.068C31.918 46.716 32.608 47.304 33.412 47.832C33.484 47.892 33.562 47.892 33.646 47.832C34.39 47.304 35.014 46.722 35.518 46.086C35.578 45.99 35.56 45.942 35.464 45.942H31.396ZM50.314 43.962C50.038 43.974 49.792 43.884 49.576 43.692C49.372 43.5 49.264 43.266 49.252 42.99L49.216 42.234C49.204 42.054 49.258 41.904 49.378 41.784C49.51 41.652 49.666 41.58 49.846 41.568C49.906 41.568 49.948 41.532 49.972 41.46C50.548 40.068 51.136 38.55 51.736 36.906C51.832 36.63 52.006 36.426 52.258 36.294C52.51 36.162 52.774 36.132 53.05 36.204L53.644 36.348C53.908 36.408 54.1 36.564 54.22 36.816C54.352 37.056 54.37 37.308 54.274 37.572C53.89 38.652 53.416 39.858 52.852 41.19C52.828 41.274 52.858 41.316 52.942 41.316C54.274 41.172 55.162 41.076 55.606 41.028C55.702 41.028 55.732 40.986 55.696 40.902C55.588 40.662 55.402 40.266 55.138 39.714C55.018 39.462 55.006 39.204 55.102 38.94C55.198 38.676 55.378 38.49 55.642 38.382L56.164 38.148C56.428 38.028 56.692 38.022 56.956 38.13C57.22 38.238 57.418 38.424 57.55 38.688C58.15 39.948 58.714 41.226 59.242 42.522C59.35 42.786 59.344 43.05 59.224 43.314C59.116 43.566 58.93 43.746 58.666 43.854L58.144 44.088C57.88 44.196 57.622 44.196 57.37 44.088C57.118 43.98 56.938 43.794 56.83 43.53C56.83 43.518 56.818 43.494 56.794 43.458C56.77 43.422 56.758 43.398 56.758 43.386C56.722 43.29 56.656 43.254 56.56 43.278C54.34 43.614 52.258 43.842 50.314 43.962ZM57.658 44.808C57.934 44.808 58.174 44.91 58.378 45.114C58.582 45.318 58.684 45.558 58.684 45.834V51.72C58.684 51.996 58.582 52.236 58.378 52.44C58.174 52.644 57.934 52.746 57.658 52.746H56.578C56.386 52.746 56.224 52.68 56.092 52.548C55.96 52.416 55.894 52.254 55.894 52.062C55.894 51.99 55.858 51.954 55.786 51.954H52.366C52.294 51.954 52.258 51.99 52.258 52.062C52.258 52.254 52.192 52.416 52.06 52.548C51.928 52.68 51.766 52.746 51.574 52.746H50.566C50.29 52.746 50.05 52.644 49.846 52.44C49.642 52.236 49.54 51.996 49.54 51.72V45.834C49.54 45.558 49.642 45.318 49.846 45.114C50.05 44.91 50.29 44.808 50.566 44.808H57.658ZM55.894 49.542V47.292C55.894 47.196 55.84 47.148 55.732 47.148H52.42C52.312 47.148 52.258 47.196 52.258 47.292V49.542C52.258 49.65 52.312 49.704 52.42 49.704H55.732C55.84 49.704 55.894 49.65 55.894 49.542ZM42.736 51.72C42.496 51.54 42.334 51.306 42.25 51.018C42.166 50.742 42.166 50.454 42.25 50.154C42.658 48.75 42.862 46.38 42.862 43.044V37.644C42.862 37.368 42.958 37.128 43.15 36.924C43.354 36.72 43.594 36.618 43.87 36.618H47.794C48.07 36.618 48.304 36.72 48.496 36.924C48.7 37.128 48.802 37.368 48.802 37.644V49.416C48.802 50.76 48.7 51.636 48.496 52.044C48.292 52.464 47.908 52.674 47.344 52.674C47.284 52.674 46.918 52.662 46.246 52.638C45.958 52.614 45.706 52.5 45.49 52.296C45.286 52.104 45.178 51.864 45.166 51.576L45.13 51.198C45.118 50.934 45.208 50.712 45.4 50.532C45.592 50.34 45.826 50.25 46.102 50.262H46.174C46.33 50.262 46.42 50.232 46.444 50.172C46.468 50.112 46.48 49.896 46.48 49.524V47.436C46.48 47.328 46.432 47.274 46.336 47.274H45.436C45.328 47.274 45.274 47.328 45.274 47.436C45.154 49.092 44.89 50.556 44.482 51.828C44.398 52.068 44.236 52.224 43.996 52.296C43.756 52.368 43.534 52.326 43.33 52.17L42.736 51.72ZM45.382 39.102V40.758C45.382 40.854 45.43 40.902 45.526 40.902H46.336C46.432 40.902 46.48 40.854 46.48 40.758V39.102C46.48 39.006 46.432 38.958 46.336 38.958H45.526C45.43 38.958 45.382 39.006 45.382 39.102ZM45.382 44.322C45.382 44.406 45.376 44.52 45.364 44.664C45.364 44.808 45.364 44.916 45.364 44.988C45.364 45.084 45.418 45.132 45.526 45.132H46.336C46.432 45.132 46.48 45.084 46.48 44.988V43.206C46.48 43.098 46.432 43.044 46.336 43.044H45.526C45.43 43.044 45.382 43.098 45.382 43.206V44.322ZM63.076 45.024C62.8 45.024 62.56 44.928 62.356 44.736C62.152 44.532 62.05 44.292 62.05 44.016V43.638C62.05 43.362 62.152 43.122 62.356 42.918C62.56 42.714 62.8 42.612 63.076 42.612H68.62C68.716 42.612 68.764 42.564 68.764 42.468V40.506C68.764 40.398 68.716 40.344 68.62 40.344H64.336C64.06 40.344 63.82 40.248 63.616 40.056C63.412 39.852 63.31 39.612 63.31 39.336V39.03C63.31 38.754 63.412 38.514 63.616 38.31C63.82 38.106 64.06 38.004 64.336 38.004H68.62C68.716 38.004 68.764 37.956 68.764 37.86V37.248C68.764 36.972 68.866 36.732 69.07 36.528C69.274 36.324 69.514 36.222 69.79 36.222H70.69C70.966 36.222 71.206 36.324 71.41 36.528C71.614 36.732 71.716 36.972 71.716 37.248V37.86C71.716 37.956 71.764 38.004 71.86 38.004H76.144C76.42 38.004 76.66 38.106 76.864 38.31C77.068 38.514 77.17 38.754 77.17 39.03V39.336C77.17 39.612 77.068 39.852 76.864 40.056C76.66 40.248 76.42 40.344 76.144 40.344H71.86C71.764 40.344 71.716 40.398 71.716 40.506V42.468C71.716 42.564 71.764 42.612 71.86 42.612H77.404C77.68 42.612 77.92 42.714 78.124 42.918C78.328 43.122 78.43 43.362 78.43 43.638V44.016C78.43 44.292 78.328 44.532 78.124 44.736C77.92 44.928 77.68 45.024 77.404 45.024H70.258C70.162 45.024 70.096 45.072 70.06 45.168C69.604 46.536 69.094 47.904 68.53 49.272C68.506 49.356 68.542 49.398 68.638 49.398C69.646 49.338 71.344 49.206 73.732 49.002C73.768 49.002 73.798 48.984 73.822 48.948C73.846 48.912 73.846 48.882 73.822 48.858C73.762 48.738 73.636 48.516 73.444 48.192C73.252 47.856 73.108 47.598 73.012 47.418C72.88 47.178 72.856 46.938 72.94 46.698C73.036 46.446 73.21 46.266 73.462 46.158L74.128 45.87C74.404 45.75 74.674 45.738 74.938 45.834C75.214 45.93 75.424 46.104 75.568 46.356C76.336 47.7 77.134 49.182 77.962 50.802C78.082 51.042 78.094 51.288 77.998 51.54C77.902 51.804 77.728 51.99 77.476 52.098L76.828 52.368C76.564 52.476 76.294 52.482 76.018 52.386C75.754 52.302 75.556 52.134 75.424 51.882C75.4 51.822 75.358 51.738 75.298 51.63C75.238 51.522 75.196 51.438 75.172 51.378C75.136 51.27 75.064 51.228 74.956 51.252C71.128 51.66 67.45 51.93 63.922 52.062C63.634 52.074 63.382 51.984 63.166 51.792C62.95 51.6 62.836 51.36 62.824 51.072L62.806 50.694C62.794 50.418 62.878 50.178 63.058 49.974C63.25 49.77 63.484 49.662 63.76 49.65C63.904 49.65 64.12 49.644 64.408 49.632C64.708 49.608 64.936 49.59 65.092 49.578C65.2 49.578 65.272 49.536 65.308 49.452C65.908 48.072 66.466 46.65 66.982 45.186C67.006 45.078 66.97 45.024 66.874 45.024H63.076ZM89.518 46.86C89.23 46.86 88.984 46.764 88.78 46.572C88.588 46.368 88.48 46.122 88.456 45.834L88.096 38.886C88.084 38.61 88.174 38.37 88.366 38.166C88.558 37.962 88.792 37.86 89.068 37.86H90.688C90.964 37.86 91.198 37.962 91.39 38.166C91.582 38.37 91.672 38.61 91.66 38.886L91.318 45.834C91.294 46.122 91.18 46.368 90.976 46.572C90.772 46.764 90.526 46.86 90.238 46.86H89.518ZM90.418 48.3C90.694 48.3 90.934 48.402 91.138 48.606C91.342 48.81 91.444 49.05 91.444 49.326V49.974C91.444 50.25 91.342 50.49 91.138 50.694C90.934 50.898 90.694 51 90.418 51H89.338C89.062 51 88.822 50.898 88.618 50.694C88.414 50.49 88.312 50.25 88.312 49.974V49.326C88.312 49.05 88.414 48.81 88.618 48.606C88.822 48.402 89.062 48.3 89.338 48.3H90.418Z" fill="#9587E1"/>
</svg>
