<svg width="346" height="240" viewBox="0 0 346 240" fill="none" xmlns="http://www.w3.org/2000/svg">
<rect x="258" y="49.8018" width="86" height="140.397" rx="20" fill="#FCFCFF" stroke="#93ABD8" stroke-width="4"/>
<rect x="2" y="49.8018" width="86" height="140.397" rx="20" fill="#FCFCFF" stroke="#93ABD8" stroke-width="4"/>
<rect x="34" y="29.3276" width="112" height="181.345" rx="20" fill="#FCFCFF" stroke="#93ABD8" stroke-width="4"/>
<rect x="200" y="29.3276" width="112" height="181.345" rx="20" fill="#FCFCFF" stroke="#93ABD8" stroke-width="4"/>
<rect x="85" y="2.38794" width="178" height="235.224" rx="20" fill="#FCFCFF" stroke="#93ABD8" stroke-width="4"/>
<path d="M115.788 35.6C112.559 35.6 110.945 37.8717 110.945 42.415C110.945 46.9583 112.559 49.23 115.788 49.23C119.036 49.23 120.66 46.9583 120.66 42.415C120.66 37.8717 119.036 35.6 115.788 35.6ZM115.788 53.29C112.733 53.29 110.317 52.333 108.538 50.419C106.779 48.4857 105.899 45.8177 105.899 42.415C105.899 39.0123 106.779 36.354 108.538 34.44C110.317 32.5067 112.733 31.54 115.788 31.54C118.843 31.54 121.259 32.5067 123.038 34.44C124.817 36.354 125.706 39.0123 125.706 42.415C125.706 44.4063 125.348 46.1753 124.633 47.722C123.918 49.2493 122.912 50.477 121.617 51.405C121.598 51.405 121.588 51.4243 121.588 51.463C121.588 51.4823 121.607 51.492 121.646 51.492C123.773 52.4587 125.59 53.957 127.098 55.987C127.311 56.277 127.33 56.5767 127.156 56.886C126.982 57.1953 126.711 57.35 126.344 57.35H124.314C123.251 57.35 122.419 56.886 121.82 55.958C121.066 54.8367 120.302 54.1117 119.529 53.783C118.775 53.4543 117.528 53.29 115.788 53.29ZM133.591 40.327C133.321 40.5397 133.031 40.5687 132.721 40.414C132.431 40.2593 132.286 40.008 132.286 39.66V37.543C132.286 36.441 132.731 35.571 133.62 34.933L136.549 32.787C137.419 32.149 138.415 31.83 139.536 31.83H141.363C141.808 31.83 142.195 31.9943 142.523 32.323C142.852 32.6517 143.016 33.0383 143.016 33.483V51.347C143.016 51.7917 142.852 52.1783 142.523 52.507C142.195 52.8357 141.808 53 141.363 53H139.536C139.092 53 138.705 52.8357 138.376 52.507C138.048 52.1783 137.883 51.7917 137.883 51.347V37.253H137.854H137.825L133.591 40.327Z" fill="#403963"/>
<path d="M114.606 87.16C114.318 86.716 113.874 86.494 113.274 86.494C112.674 86.494 112.224 86.716 111.924 87.16C111.636 87.604 111.492 88.324 111.492 89.32C111.492 90.316 111.636 91.036 111.924 91.48C112.224 91.924 112.674 92.146 113.274 92.146C113.874 92.146 114.318 91.924 114.606 91.48C114.906 91.036 115.056 90.316 115.056 89.32C115.056 88.324 114.906 87.604 114.606 87.16ZM116.748 92.902C115.92 93.754 114.762 94.18 113.274 94.18C111.786 94.18 110.628 93.754 109.8 92.902C108.972 92.05 108.558 90.856 108.558 89.32C108.558 87.784 108.972 86.59 109.8 85.738C110.628 84.886 111.786 84.46 113.274 84.46C114.762 84.46 115.92 84.886 116.748 85.738C117.576 86.59 117.99 87.784 117.99 89.32C117.99 90.856 117.576 92.05 116.748 92.902ZM126.949 87.16C126.661 86.716 126.217 86.494 125.617 86.494C125.017 86.494 124.567 86.716 124.267 87.16C123.979 87.604 123.835 88.324 123.835 89.32C123.835 90.316 123.979 91.036 124.267 91.48C124.567 91.924 125.017 92.146 125.617 92.146C126.217 92.146 126.661 91.924 126.949 91.48C127.249 91.036 127.399 90.316 127.399 89.32C127.399 88.324 127.249 87.604 126.949 87.16ZM129.091 92.902C128.263 93.754 127.105 94.18 125.617 94.18C124.129 94.18 122.971 93.754 122.143 92.902C121.315 92.05 120.901 90.856 120.901 89.32C120.901 87.784 121.315 86.59 122.143 85.738C122.971 84.886 124.129 84.46 125.617 84.46C127.105 84.46 128.263 84.886 129.091 85.738C129.919 86.59 130.333 87.784 130.333 89.32C130.333 90.856 129.919 92.05 129.091 92.902ZM133.546 94C133.318 94 133.144 93.904 133.024 93.712C132.916 93.52 132.922 93.322 133.042 93.118L135.202 89.356C135.25 89.272 135.25 89.188 135.202 89.104L133.132 85.522C133.012 85.318 133.006 85.12 133.114 84.928C133.234 84.736 133.408 84.64 133.636 84.64H134.716C135.016 84.64 135.298 84.73 135.562 84.91C135.826 85.078 136.024 85.3 136.157 85.576L137.164 87.754C137.164 87.766 137.171 87.772 137.183 87.772C137.195 87.772 137.201 87.766 137.201 87.754L138.208 85.576C138.329 85.3 138.521 85.078 138.785 84.91C139.049 84.73 139.337 84.64 139.649 84.64H140.657C140.873 84.64 141.035 84.736 141.142 84.928C141.263 85.12 141.269 85.318 141.161 85.522L139.091 89.104C139.031 89.188 139.031 89.272 139.091 89.356L141.251 93.118C141.359 93.322 141.353 93.52 141.233 93.712C141.125 93.904 140.963 94 140.746 94H139.666C139.354 94 139.061 93.916 138.785 93.748C138.521 93.58 138.329 93.358 138.208 93.082L137.128 90.742C137.128 90.73 137.122 90.724 137.111 90.724C137.098 90.724 137.092 90.73 137.092 90.742L136.013 93.082C135.88 93.358 135.676 93.58 135.4 93.748C135.136 93.916 134.854 94 134.555 94H133.546ZM145.01 94C144.782 94 144.608 93.904 144.488 93.712C144.38 93.52 144.386 93.322 144.506 93.118L146.666 89.356C146.714 89.272 146.714 89.188 146.666 89.104L144.596 85.522C144.476 85.318 144.47 85.12 144.578 84.928C144.698 84.736 144.872 84.64 145.1 84.64H146.18C146.48 84.64 146.762 84.73 147.026 84.91C147.29 85.078 147.488 85.3 147.62 85.576L148.628 87.754C148.628 87.766 148.634 87.772 148.646 87.772C148.658 87.772 148.664 87.766 148.664 87.754L149.672 85.576C149.792 85.3 149.984 85.078 150.248 84.91C150.512 84.73 150.8 84.64 151.112 84.64H152.12C152.336 84.64 152.498 84.736 152.606 84.928C152.726 85.12 152.732 85.318 152.624 85.522L150.554 89.104C150.494 89.188 150.494 89.272 150.554 89.356L152.714 93.118C152.822 93.322 152.816 93.52 152.696 93.712C152.588 93.904 152.426 94 152.21 94H151.13C150.818 94 150.524 93.916 150.248 93.748C149.984 93.58 149.792 93.358 149.672 93.082L148.592 90.742C148.592 90.73 148.586 90.724 148.574 90.724C148.562 90.724 148.556 90.73 148.556 90.742L147.476 93.082C147.344 93.358 147.14 93.58 146.864 93.748C146.6 93.916 146.318 94 146.018 94H145.01ZM156.474 94C156.246 94 156.072 93.904 155.952 93.712C155.844 93.52 155.85 93.322 155.97 93.118L158.13 89.356C158.178 89.272 158.178 89.188 158.13 89.104L156.06 85.522C155.94 85.318 155.934 85.12 156.042 84.928C156.162 84.736 156.336 84.64 156.564 84.64H157.644C157.944 84.64 158.226 84.73 158.49 84.91C158.754 85.078 158.952 85.3 159.084 85.576L160.092 87.754C160.092 87.766 160.098 87.772 160.11 87.772C160.122 87.772 160.128 87.766 160.128 87.754L161.136 85.576C161.256 85.3 161.448 85.078 161.712 84.91C161.976 84.73 162.264 84.64 162.576 84.64H163.584C163.8 84.64 163.962 84.736 164.07 84.928C164.19 85.12 164.196 85.318 164.088 85.522L162.018 89.104C161.958 89.188 161.958 89.272 162.018 89.356L164.178 93.118C164.286 93.322 164.28 93.52 164.16 93.712C164.052 93.904 163.89 94 163.674 94H162.594C162.282 94 161.988 93.916 161.712 93.748C161.448 93.58 161.256 93.358 161.136 93.082L160.056 90.742C160.056 90.73 160.05 90.724 160.038 90.724C160.026 90.724 160.02 90.73 160.02 90.742L158.94 93.082C158.808 93.358 158.604 93.58 158.328 93.748C158.064 93.916 157.782 94 157.482 94H156.474ZM172.593 87.16C172.305 86.716 171.861 86.494 171.261 86.494C170.661 86.494 170.211 86.716 169.911 87.16C169.623 87.604 169.479 88.324 169.479 89.32C169.479 90.316 169.623 91.036 169.911 91.48C170.211 91.924 170.661 92.146 171.261 92.146C171.861 92.146 172.305 91.924 172.593 91.48C172.893 91.036 173.043 90.316 173.043 89.32C173.043 88.324 172.893 87.604 172.593 87.16ZM174.735 92.902C173.907 93.754 172.749 94.18 171.261 94.18C169.773 94.18 168.615 93.754 167.787 92.902C166.959 92.05 166.545 90.856 166.545 89.32C166.545 87.784 166.959 86.59 167.787 85.738C168.615 84.886 169.773 84.46 171.261 84.46C172.749 84.46 173.907 84.886 174.735 85.738C175.563 86.59 175.977 87.784 175.977 89.32C175.977 90.856 175.563 92.05 174.735 92.902ZM184.935 87.16C184.647 86.716 184.203 86.494 183.603 86.494C183.003 86.494 182.553 86.716 182.253 87.16C181.965 87.604 181.821 88.324 181.821 89.32C181.821 90.316 181.965 91.036 182.253 91.48C182.553 91.924 183.003 92.146 183.603 92.146C184.203 92.146 184.647 91.924 184.935 91.48C185.235 91.036 185.385 90.316 185.385 89.32C185.385 88.324 185.235 87.604 184.935 87.16ZM187.077 92.902C186.249 93.754 185.091 94.18 183.603 94.18C182.115 94.18 180.957 93.754 180.129 92.902C179.301 92.05 178.887 90.856 178.887 89.32C178.887 87.784 179.301 86.59 180.129 85.738C180.957 84.886 182.115 84.46 183.603 84.46C185.091 84.46 186.249 84.886 187.077 85.738C187.905 86.59 188.319 87.784 188.319 89.32C188.319 90.856 187.905 92.05 187.077 92.902ZM191.533 94C191.305 94 191.131 93.904 191.011 93.712C190.903 93.52 190.909 93.322 191.029 93.118L193.189 89.356C193.237 89.272 193.237 89.188 193.189 89.104L191.119 85.522C190.999 85.318 190.993 85.12 191.101 84.928C191.221 84.736 191.395 84.64 191.623 84.64H192.703C193.003 84.64 193.285 84.73 193.549 84.91C193.813 85.078 194.011 85.3 194.143 85.576L195.151 87.754C195.151 87.766 195.157 87.772 195.169 87.772C195.181 87.772 195.187 87.766 195.187 87.754L196.195 85.576C196.315 85.3 196.507 85.078 196.771 84.91C197.035 84.73 197.323 84.64 197.635 84.64H198.643C198.859 84.64 199.021 84.736 199.129 84.928C199.249 85.12 199.255 85.318 199.147 85.522L197.077 89.104C197.017 89.188 197.017 89.272 197.077 89.356L199.237 93.118C199.345 93.322 199.339 93.52 199.219 93.712C199.111 93.904 198.949 94 198.733 94H197.653C197.341 94 197.047 93.916 196.771 93.748C196.507 93.58 196.315 93.358 196.195 93.082L195.115 90.742C195.115 90.73 195.109 90.724 195.097 90.724C195.085 90.724 195.079 90.73 195.079 90.742L193.999 93.082C193.867 93.358 193.663 93.58 193.387 93.748C193.123 93.916 192.841 94 192.541 94H191.533ZM205.751 82.786L205.661 82.372C205.601 82.096 205.643 81.838 205.787 81.598C205.931 81.346 206.141 81.19 206.417 81.13C207.845 80.83 209.249 80.68 210.629 80.68C212.225 80.68 213.467 80.974 214.355 81.562C215.243 82.15 215.687 82.918 215.687 83.866C215.687 84.31 215.627 84.706 215.507 85.054C215.387 85.402 215.183 85.72 214.895 86.008C214.619 86.284 214.379 86.5 214.175 86.656C213.971 86.8 213.665 87.004 213.257 87.268C212.309 87.856 211.703 88.39 211.439 88.87C211.079 89.506 210.647 89.824 210.143 89.824H209.369C209.081 89.824 208.841 89.722 208.649 89.518C208.457 89.314 208.403 89.08 208.487 88.816C208.571 88.504 208.697 88.216 208.865 87.952C209.033 87.676 209.255 87.412 209.531 87.16C209.807 86.908 210.023 86.728 210.179 86.62C210.347 86.5 210.605 86.314 210.953 86.062C211.301 85.822 211.559 85.636 211.727 85.504C211.907 85.36 212.075 85.18 212.231 84.964C212.399 84.736 212.483 84.508 212.483 84.28C212.483 83.488 211.715 83.092 210.179 83.092C209.219 83.092 208.145 83.236 206.957 83.524C206.681 83.584 206.423 83.542 206.183 83.398C205.955 83.254 205.811 83.05 205.751 82.786ZM210.287 91.3C210.563 91.3 210.803 91.402 211.007 91.606C211.211 91.81 211.313 92.05 211.313 92.326V92.974C211.313 93.25 211.211 93.49 211.007 93.694C210.803 93.898 210.563 94 210.287 94H209.207C208.931 94 208.691 93.898 208.487 93.694C208.295 93.49 208.199 93.25 208.199 92.974V92.326C208.199 92.05 208.295 91.81 208.487 91.606C208.691 91.402 208.931 91.3 209.207 91.3H210.287Z" fill="#403963"/>
<path d="M118 115.5H232C238.351 115.5 243.5 120.649 243.5 127C243.5 133.351 238.351 138.5 232 138.5H118C111.649 138.5 106.5 133.351 106.5 127C106.5 120.649 111.649 115.5 118 115.5Z" fill="white" stroke="#919EC0" stroke-width="3"/>
<path d="M170.392 127.654C169.72 127.654 169.216 127.752 168.88 127.948C168.544 128.144 168.376 128.405 168.376 128.732C168.376 129.264 168.67 129.53 169.258 129.53C169.762 129.53 170.182 129.385 170.518 129.096C170.854 128.807 171.022 128.438 171.022 127.99V127.766C171.022 127.691 170.985 127.654 170.91 127.654H170.392ZM168.712 131.14C167.975 131.14 167.391 130.949 166.962 130.566C166.542 130.174 166.332 129.633 166.332 128.942C166.332 128.13 166.682 127.486 167.382 127.01C168.082 126.525 169.099 126.282 170.434 126.282H170.91C170.985 126.282 171.022 126.235 171.022 126.142C171.013 125.787 170.915 125.535 170.728 125.386C170.541 125.237 170.243 125.162 169.832 125.162C169.169 125.162 168.479 125.274 167.76 125.498C167.555 125.563 167.363 125.549 167.186 125.456C167.009 125.363 166.901 125.218 166.864 125.022V124.994C166.817 124.77 166.85 124.555 166.962 124.35C167.074 124.145 167.237 124.009 167.452 123.944C168.236 123.701 169.062 123.58 169.93 123.58C171.125 123.58 171.979 123.804 172.492 124.252C173.005 124.691 173.262 125.414 173.262 126.422V129.04C173.262 129.432 173.29 129.824 173.346 130.216C173.374 130.421 173.323 130.603 173.192 130.762C173.061 130.921 172.893 131 172.688 131H172.156C171.923 131 171.717 130.925 171.54 130.776C171.372 130.627 171.279 130.44 171.26 130.216C171.241 130.123 171.232 130.048 171.232 129.992C171.232 129.983 171.227 129.978 171.218 129.978C171.199 129.978 171.19 129.983 171.19 129.992C170.938 130.337 170.583 130.617 170.126 130.832C169.669 131.037 169.197 131.14 168.712 131.14Z" fill="#403963"/>
<path d="M118.5 149.5H231.5C238.127 149.5 243.5 154.873 243.5 161.5C243.5 168.127 238.127 173.5 231.5 173.5H118.5C111.873 173.5 106.5 168.127 106.5 161.5C106.5 154.873 111.873 149.5 118.5 149.5Z" fill="white" stroke="#919EC0" stroke-width="3"/>
<path d="M168.922 163.29V163.43C168.922 164.055 169.067 164.545 169.356 164.9C169.645 165.245 170.009 165.418 170.448 165.418C170.896 165.418 171.26 165.241 171.54 164.886C171.829 164.522 171.974 164.013 171.974 163.36C171.974 162.679 171.839 162.165 171.568 161.82C171.297 161.475 170.924 161.302 170.448 161.302C170 161.302 169.631 161.479 169.342 161.834C169.062 162.189 168.922 162.674 168.922 163.29ZM167.48 167C167.265 167 167.079 166.921 166.92 166.762C166.761 166.603 166.682 166.417 166.682 166.202V157.298C166.682 157.083 166.761 156.897 166.92 156.738C167.079 156.579 167.265 156.5 167.48 156.5H168.138C168.353 156.5 168.535 156.579 168.684 156.738C168.843 156.897 168.922 157.083 168.922 157.298V160.588C168.922 160.597 168.927 160.602 168.936 160.602C168.955 160.602 168.964 160.597 168.964 160.588C169.533 159.916 170.252 159.58 171.12 159.58C172.035 159.58 172.758 159.907 173.29 160.56C173.831 161.213 174.102 162.147 174.102 163.36C174.102 164.545 173.822 165.474 173.262 166.146C172.711 166.809 171.997 167.14 171.12 167.14C170.187 167.14 169.431 166.767 168.852 166.02L168.824 165.992C168.815 165.992 168.81 165.997 168.81 166.006L168.796 166.202C168.777 166.426 168.689 166.617 168.53 166.776C168.381 166.925 168.194 167 167.97 167H167.48Z" fill="#403963"/>
<path d="M118.5 183.5H231.5C238.127 183.5 243.5 188.873 243.5 195.5C243.5 202.127 238.127 207.5 231.5 207.5H118.5C111.873 207.5 106.5 202.127 106.5 195.5C106.5 188.873 111.873 183.5 118.5 183.5Z" fill="white" stroke="#919EC0" stroke-width="3"/>
<path d="M170.518 200.14C169.258 200.14 168.255 199.804 167.508 199.132C166.761 198.46 166.388 197.536 166.388 196.36C166.388 195.165 166.752 194.237 167.48 193.574C168.208 192.911 169.221 192.58 170.518 192.58C171.087 192.58 171.68 192.669 172.296 192.846C172.511 192.911 172.669 193.047 172.772 193.252C172.875 193.448 172.893 193.658 172.828 193.882L172.786 193.994C172.73 194.19 172.609 194.33 172.422 194.414C172.235 194.498 172.044 194.507 171.848 194.442C171.484 194.311 171.078 194.246 170.63 194.246C169.995 194.246 169.505 194.428 169.16 194.792C168.815 195.156 168.642 195.679 168.642 196.36C168.642 197.032 168.824 197.559 169.188 197.942C169.552 198.315 170.033 198.502 170.63 198.502C171.078 198.502 171.484 198.437 171.848 198.306C172.044 198.241 172.235 198.25 172.422 198.334C172.609 198.418 172.735 198.558 172.8 198.754L172.828 198.838C172.903 199.053 172.884 199.263 172.772 199.468C172.669 199.673 172.511 199.809 172.296 199.874C171.68 200.051 171.087 200.14 170.518 200.14Z" fill="#403963"/>
</svg>
