<svg width="35" height="33" viewBox="0 0 35 33" fill="none" xmlns="http://www.w3.org/2000/svg">
<path d="M29.4756 29.5005C25.3548 32.2315 20.2007 32.5005 15.1314 32.5005C9.34966 32.5005 3.90463 30.2909 1.63143 26.0005C-0.641776 21.71 -0.0950386 16.1838 0.63147 12.1007C1.91799 4.85255 7.03709 -0.0591783 14.7108 0.000538561C22.3846 0.0602554 28.1314 4.50046 29.4756 12.1007C31.0931 21.2463 29.6314 22.5005 34.1314 23.5005C34.805 24.7097 31.7389 28.0005 29.4756 29.5005ZM13.0913 14.87C13.0925 14.2999 12.8731 13.7508 12.478 13.3347C12.0828 12.9185 11.5416 12.6668 10.9648 12.6307C10.6741 12.6086 10.3818 12.6432 10.1047 12.7326C9.82758 12.8219 9.57102 12.9642 9.34966 13.1514C9.1283 13.3385 8.94647 13.5669 8.81457 13.8233C8.68267 14.0798 8.60328 14.3594 8.58091 14.6461C8.55855 14.9328 8.59368 15.2211 8.68427 15.4944C8.77485 15.7678 8.91913 16.0208 9.10887 16.2392C9.29861 16.4575 9.53007 16.6369 9.79008 16.767C10.0501 16.8971 10.3335 16.9754 10.6242 16.9975C11.994 17.1617 12.7432 16.251 13.0913 14.87ZM20.8408 15.0044C20.8531 14.4299 20.6365 13.8734 20.2375 13.4547C19.8384 13.036 19.2888 12.7883 18.7066 12.765C18.4112 12.7242 18.1103 12.7467 17.8246 12.8311C17.5388 12.9154 17.2748 13.0596 17.0507 13.2537C16.8265 13.4479 16.6475 13.6875 16.5258 13.9561C16.4041 14.2247 16.3426 14.5161 16.3455 14.8103C16.3102 15.1025 16.3381 15.3988 16.4273 15.6796C16.5165 15.9604 16.6651 16.2193 16.8631 16.4393C17.0612 16.6594 17.3043 16.8355 17.5764 16.9562C17.8485 17.0768 18.1434 17.1392 18.4418 17.1393C19.804 17.2065 20.5834 16.3854 20.8408 15.0044Z" fill="white"/>
</svg>
