<svg width="332" height="289" viewBox="0 0 332 289" fill="none" xmlns="http://www.w3.org/2000/svg">
<path fill-rule="evenodd" clip-rule="evenodd" d="M181.005 116.721C179.989 115.727 175.753 110.799 172.533 115.494C168.297 121.564 181.81 127.084 184.055 124.588C186.301 122.093 182.763 118.392 181.048 116.7L181.005 116.721Z" fill="white"/>
<path fill-rule="evenodd" clip-rule="evenodd" d="M190.728 124.483C187.063 124.821 185.793 127.887 187.529 129.495C189.266 131.102 193.46 130.637 194.498 128.67C195.896 126.069 193.015 124.271 190.728 124.44V124.483Z" fill="white"/>
<path fill-rule="evenodd" clip-rule="evenodd" d="M206.738 122.368C208.856 120.697 211.504 116.023 208.39 113.443C204.154 109.763 194.877 120.295 197.398 123.7C199.092 126.047 203.646 124.779 206.738 122.368Z" fill="white"/>
<path fill-rule="evenodd" clip-rule="evenodd" d="M142.182 127.993C142.345 127.952 142.502 127.888 142.648 127.803C146.27 125.35 151.268 122.558 153.386 120.062C153.98 119.526 154.39 118.816 154.557 118.034C154.724 117.252 154.641 116.438 154.318 115.706C154.16 115.405 153.941 115.14 153.675 114.929C153.409 114.718 153.101 114.564 152.772 114.479C151.862 114.246 150.907 114.246 149.997 114.479C146.108 115.662 142.331 117.184 138.708 119.026C136.95 117.715 136.188 117.207 134.472 116.129C134.337 116.042 134.186 115.984 134.027 115.959C133.608 115.875 133.176 115.875 132.757 115.959C131.535 116.245 130.349 116.663 129.22 117.207C126.079 118.62 123.091 120.349 120.303 122.368C118.629 123.489 117.19 124.926 116.067 126.597C115.976 126.759 115.925 126.941 115.918 127.126C115.905 128.842 116.274 130.54 116.999 132.096C117.952 134.38 119.371 136.77 120.197 139.139C120.267 139.356 120.398 139.549 120.575 139.695C120.751 139.841 120.965 139.934 121.192 139.963C121.417 140.003 121.648 139.981 121.861 139.899C122.074 139.817 122.26 139.678 122.399 139.498C127.528 133.613 134.434 129.552 142.076 127.93V127.93L142.182 127.993ZM152.094 116.911C152.147 117.024 152.174 117.146 152.174 117.271C152.174 117.395 152.147 117.518 152.094 117.63C151.713 118.284 151.218 118.864 150.633 119.343C147.723 121.584 144.689 123.659 141.546 125.561C134.144 127.258 127.374 131.012 122.018 136.389C121.404 135.015 120.684 133.661 120.07 132.308C119.257 130.871 118.758 129.277 118.608 127.634C119.532 126.393 120.656 125.314 121.934 124.44C124.584 122.529 127.423 120.892 130.406 119.555C131.28 119.148 132.187 118.816 133.117 118.561L133.561 118.455C135.035 119.382 136.45 120.399 137.797 121.5C137.977 121.635 138.188 121.721 138.411 121.75C138.633 121.78 138.86 121.752 139.068 121.67C142.768 119.813 146.606 118.243 150.548 116.975C150.952 116.891 151.364 116.848 151.776 116.848H152.115L152.094 116.911Z" fill="white"/>
<path fill-rule="evenodd" clip-rule="evenodd" d="M164.591 146.71C163.172 152.04 162.092 158.723 149.045 166.484C146.016 168.282 138.2 168.98 130.427 176.086C121.044 184.545 114.563 198.631 114.563 198.631C114.563 198.631 99.271 186.872 98.212 180.421C97.5766 176.53 113.356 155.36 117.02 151.299C126.53 140.725 131.423 135.924 138.857 133.386C152.37 128.776 160.334 135.649 160.334 135.649L187.868 134.761L189.711 140.683C189.711 140.683 166.921 146.266 164.676 146.71H164.591ZM147.774 150.94C152.137 150.263 152.01 141.677 146.694 142.48C141.377 143.284 142.14 151.849 147.774 151.046V150.94Z" fill="white"/>
<path d="M251.769 143.813C251.207 143.888 250.638 143.738 250.187 143.395C249.737 143.052 249.441 142.544 249.365 141.983C249.289 141.422 249.44 140.854 249.783 140.404C250.127 139.954 250.635 139.659 251.197 139.583L290.783 128.543C291.057 128.444 291.348 128.402 291.639 128.42C291.93 128.438 292.214 128.516 292.473 128.649C292.732 128.782 292.961 128.967 293.146 129.192C293.33 129.417 293.466 129.678 293.545 129.958C293.624 130.238 293.644 130.532 293.604 130.82C293.564 131.108 293.465 131.385 293.313 131.633C293.162 131.882 292.96 132.096 292.721 132.263C292.483 132.43 292.212 132.546 291.927 132.604L252.341 143.813C252.151 143.843 251.958 143.843 251.769 143.813V143.813Z" fill="white"/>
<path d="M241.983 123.023C241.615 123.023 241.254 122.928 240.935 122.746C240.615 122.564 240.349 122.303 240.161 121.987C239.875 121.505 239.792 120.928 239.931 120.385C240.07 119.842 240.42 119.376 240.903 119.09L306.265 80.5351C306.504 80.3611 306.778 80.2392 307.068 80.1773C307.358 80.1155 307.657 80.115 307.947 80.1761C308.237 80.2371 308.511 80.3582 308.751 80.5316C308.992 80.7049 309.193 80.9267 309.342 81.1825C309.491 81.4383 309.584 81.7225 309.616 82.0167C309.648 82.3109 309.618 82.6085 309.528 82.8904C309.437 83.1722 309.289 83.432 309.092 83.6529C308.894 83.8737 308.653 84.0508 308.383 84.1727L243.063 122.664C242.74 122.874 242.368 122.998 241.983 123.023V123.023Z" fill="white"/>
<path d="M227.349 105.575C226.793 105.573 226.26 105.353 225.866 104.962C225.471 104.566 225.25 104.03 225.25 103.471C225.25 102.912 225.471 102.376 225.866 101.98L253.887 73.408C254.281 73.0069 254.817 72.7783 255.379 72.7723C255.658 72.7694 255.934 72.8212 256.192 72.9248C256.45 73.0285 256.685 73.1818 256.884 73.3763C257.083 73.5707 257.242 73.8023 257.351 74.0579C257.46 74.3135 257.518 74.5881 257.521 74.866C257.524 75.1439 257.472 75.4196 257.368 75.6775C257.264 75.9353 257.111 76.1703 256.916 76.3688L228.852 104.941C228.656 105.141 228.422 105.3 228.164 105.409C227.906 105.518 227.629 105.574 227.349 105.575Z" fill="white"/>
<path d="M208.942 92.3996C208.578 92.3985 208.221 92.3038 207.904 92.1246C207.416 91.8492 207.057 91.3918 206.906 90.8526C206.755 90.3134 206.825 89.7366 207.099 89.2484L245.012 22.1429C245.293 21.6549 245.756 21.2983 246.3 21.1515C246.844 21.0048 247.425 21.0799 247.913 21.3604C248.402 21.6408 248.759 22.1036 248.906 22.647C249.053 23.1904 248.978 23.7698 248.697 24.2578L210.784 91.321C210.601 91.6477 210.333 91.9197 210.009 92.1092C209.686 92.2987 209.317 92.3989 208.942 92.3996Z" fill="white"/>
<path d="M188.015 84.088C187.839 84.1086 187.661 84.1086 187.485 84.088C187.215 84.019 186.962 83.8974 186.739 83.7303C186.516 83.5632 186.328 83.3537 186.187 83.114C186.045 82.8743 185.952 82.6091 185.913 82.3334C185.874 82.0578 185.89 81.7772 185.961 81.5078L196.424 40.8173C196.492 40.5383 196.616 40.2762 196.789 40.0468C196.962 39.8175 197.18 39.6257 197.43 39.4832C197.68 39.3408 197.956 39.2506 198.242 39.2181C198.528 39.1857 198.817 39.2117 199.092 39.2946C199.362 39.3636 199.616 39.4851 199.839 39.6523C200.062 39.8194 200.25 40.0288 200.391 40.2685C200.533 40.5082 200.626 40.7735 200.665 41.0491C200.703 41.3248 200.687 41.6053 200.617 41.8747L190.069 82.4807C189.956 82.9392 189.692 83.3466 189.32 83.6379C188.947 83.9292 188.488 84.0876 188.015 84.088Z" fill="white"/>
<path d="M165.65 80.8735C165.088 80.8735 164.549 80.6506 164.152 80.254C163.755 79.8574 163.532 79.3195 163.532 78.7586L162.748 2.11489C162.748 1.55399 162.971 1.01606 163.368 0.619438C163.766 0.222818 164.304 0 164.866 0V0C165.428 0 165.967 0.222818 166.364 0.619438C166.761 1.01606 166.984 1.55399 166.984 2.11489L167.768 78.7586C167.768 79.3195 167.545 79.8574 167.147 80.254C166.75 80.6506 166.211 80.8735 165.65 80.8735V80.8735Z" fill="white"/>
<path d="M142.605 84.088C142.129 84.1056 141.662 83.9628 141.278 83.6827C140.893 83.4027 140.615 83.0016 140.487 82.5441L128.795 40.1828C128.696 39.9094 128.654 39.6184 128.672 39.328C128.69 39.0376 128.769 38.7541 128.902 38.4953C129.035 38.2364 129.22 38.0078 129.445 37.8236C129.671 37.6394 129.932 37.5037 130.213 37.4249C130.493 37.3462 130.787 37.326 131.075 37.3658C131.364 37.4055 131.641 37.5044 131.89 37.656C132.139 37.8077 132.353 38.0089 132.521 38.2472C132.688 38.4855 132.804 38.7557 132.862 39.0408L144.638 81.3386C144.788 81.8771 144.719 82.4529 144.445 82.9404C144.171 83.4278 143.715 83.7872 143.177 83.94C142.996 84.0208 142.802 84.0708 142.605 84.088V84.088Z" fill="white"/>
<path d="M121.996 92.3363C121.629 92.3362 121.268 92.2406 120.948 92.0589C120.629 91.8773 120.362 91.6157 120.175 91.3L81.4575 25.9075C81.2415 25.4304 81.2105 24.8903 81.3704 24.3917C81.5303 23.893 81.8697 23.4713 82.323 23.2082C82.7763 22.945 83.3112 22.8591 83.8243 22.9671C84.3374 23.075 84.7921 23.3692 85.1005 23.7926L123.818 89.1428C124.104 89.6252 124.187 90.2014 124.048 90.7448C123.909 91.2881 123.56 91.7541 123.077 92.0402C122.75 92.2339 122.377 92.3362 121.996 92.3363Z" fill="white"/>
<path d="M104.099 106.104C103.544 106.102 103.011 105.881 102.617 105.491L70.3379 73.8943C69.9878 73.4922 69.8027 72.973 69.8194 72.4404C69.8361 71.9079 70.0535 71.4013 70.4281 71.0219C70.8027 70.6425 71.3069 70.4183 71.84 70.394C72.373 70.3698 72.8955 70.5473 73.3031 70.8911L105.582 102.488C105.976 102.884 106.198 103.42 106.198 103.979C106.198 104.537 105.976 105.073 105.582 105.47C105.191 105.868 104.658 106.096 104.099 106.104V106.104Z" fill="white"/>
<path d="M89.3152 124.081C88.9513 124.08 88.5939 123.985 88.2774 123.806L22.9999 87.0491C22.5112 86.7686 22.1541 86.3058 22.0071 85.7624C21.8601 85.219 21.9354 84.6396 22.2162 84.1517C22.4971 83.6637 22.9606 83.3071 23.5048 83.1603C24.049 83.0136 24.6292 83.0887 25.1179 83.3691L90.353 120.126C90.8267 120.415 91.1676 120.879 91.3023 121.417C91.437 121.955 91.3547 122.524 91.0731 123.002C90.8965 123.317 90.6423 123.581 90.3346 123.77C90.0269 123.958 89.676 124.066 89.3152 124.081Z" fill="white"/>
<path d="M80.0397 145.356C79.8638 145.377 79.6861 145.377 79.5102 145.356L41.7035 135.565C41.1699 135.412 40.7177 135.055 40.4444 134.573C40.171 134.09 40.0984 133.52 40.2421 132.984C40.3112 132.715 40.4329 132.461 40.6003 132.239C40.7677 132.016 40.9774 131.829 41.2175 131.687C41.4576 131.546 41.7232 131.453 41.9993 131.414C42.2753 131.376 42.5563 131.392 42.8261 131.462L80.4845 141.19C81.0463 141.26 81.5571 141.55 81.9046 141.996C82.2522 142.443 82.408 143.008 82.3378 143.569C82.2676 144.13 81.9771 144.64 81.5302 144.987C81.0834 145.334 80.5168 145.49 79.955 145.42L80.0397 145.356Z" fill="white"/>
<path d="M76.6292 168.282H76.3962L1.88415 160.14C1.32242 160.078 0.808235 159.796 0.454722 159.356C0.101208 158.915 -0.0626799 158.353 -0.000889104 157.792C0.0609017 157.231 0.34331 156.718 0.784209 156.365C1.22511 156.012 1.78838 155.848 2.35012 155.91L76.8621 164.031C77.4239 164.062 77.9503 164.314 78.3257 164.733C78.701 165.151 78.8946 165.701 78.8637 166.262C78.8328 166.823 78.58 167.349 78.1609 167.724C77.7419 168.098 77.1909 168.292 76.6292 168.261V168.282Z" fill="white"/>
<path d="M255.369 168.282C255.09 168.297 254.812 168.258 254.549 168.165C254.286 168.073 254.044 167.93 253.837 167.745C253.629 167.559 253.46 167.335 253.34 167.084C253.219 166.833 253.149 166.561 253.134 166.283C253.119 166.006 253.158 165.728 253.251 165.465C253.343 165.203 253.486 164.961 253.672 164.754C253.858 164.547 254.083 164.378 254.334 164.258C254.585 164.137 254.857 164.067 255.136 164.052L329.648 155.931C329.926 155.9 330.207 155.925 330.476 156.003C330.745 156.081 330.995 156.211 331.214 156.386C331.432 156.561 331.614 156.777 331.748 157.022C331.883 157.266 331.968 157.535 331.999 157.813C332.029 158.091 332.005 158.372 331.927 158.64C331.848 158.909 331.718 159.159 331.543 159.377C331.368 159.595 331.152 159.776 330.906 159.911C330.661 160.045 330.392 160.13 330.114 160.161L255.602 168.282H255.369Z" fill="white"/>
<path fill-rule="evenodd" clip-rule="evenodd" d="M197.378 132.244C201.106 131.969 201.085 135.607 208.392 148.952C214.407 159.928 229.022 183.129 230.907 187.422C232.77 191.411 233.555 195.817 233.183 200.203C232.811 204.588 231.296 208.8 228.789 212.42C217.182 230.185 189.521 232.046 175.054 224.094C167.811 220.118 156.607 208.486 158.915 196.812C162.325 179.533 180.032 148.339 181.345 148.042C186.216 146.668 183.463 157.285 189.415 156.756C193.884 156.354 196.192 145.674 194.816 140.196C192.888 132.477 192.359 132.731 197.442 132.35L197.378 132.244ZM221.842 207.133C219.999 210.918 217.182 213.033 212.565 215.085C212.127 215.278 211.783 215.637 211.611 216.084C211.438 216.53 211.45 217.026 211.643 217.464C211.837 217.901 212.197 218.244 212.644 218.417C213.091 218.589 213.588 218.577 214.026 218.384C219.596 215.909 222.901 213.287 225.082 208.634C225.187 208.423 225.248 208.194 225.263 207.959C225.278 207.725 225.246 207.489 225.169 207.267C225.092 207.045 224.972 206.84 224.815 206.664C224.659 206.489 224.469 206.346 224.256 206.244V206.244C224.042 206.14 223.81 206.08 223.572 206.066C223.335 206.052 223.097 206.086 222.872 206.164C222.648 206.243 222.441 206.365 222.264 206.524C222.087 206.683 221.944 206.876 221.842 207.09V207.133ZM195.26 212.208C190.296 212.413 185.409 210.921 181.409 207.979C176.495 204.003 174.292 197.573 174.885 188.944C176.156 169.91 189.415 168.049 193.439 167.922C202.546 167.69 209.557 172.152 212.205 180.083C212.875 182.304 213.273 184.598 213.391 186.914C213.539 188.67 213.687 190.488 214.259 190.932C215.712 191.964 217.48 192.457 219.258 192.328C219.679 192.277 220.108 192.332 220.503 192.487C220.899 192.642 221.25 192.892 221.524 193.217C221.798 193.539 221.986 193.925 222.071 194.339C222.156 194.753 222.136 195.181 222.011 195.585C219.893 202.734 211.569 209.078 205.067 210.918C201.868 211.774 198.572 212.208 195.26 212.208V212.208ZM193.587 172.914C188.885 173.041 180.879 175.346 179.947 189.198C179.481 196.177 181.048 201.169 184.607 204.003C191.3 209.395 203.034 206.117 203.521 206.117C208.471 204.516 212.757 201.336 215.721 197.066C214.057 196.69 212.491 195.97 211.124 194.951C208.773 193.132 208.54 190.171 208.307 187.337C208.232 185.431 207.919 183.541 207.376 181.712C205.427 175.896 200.555 172.808 193.587 173.019V172.914ZM188.334 182.346C185.645 182.177 185.115 187.168 187.974 187.274C190.834 187.379 191.787 182.579 188.334 182.346ZM196.51 182.346C193.418 182.346 193.587 187.189 196.51 187.02C199.814 186.808 198.861 182.325 196.51 182.346Z" fill="white"/>
<path d="M58.0116 215.423C57.4498 215.423 56.9111 215.2 56.5139 214.803C56.1167 214.407 55.8936 213.869 55.8936 213.308V189.621C50.4502 190.319 36.6831 190.975 15.8841 184.841C21.197 191.997 28.4838 197.45 36.8525 200.534L47.1673 196.304C47.6553 196.202 48.1637 196.275 48.6031 196.51C49.0425 196.745 49.3847 197.128 49.5695 197.59C49.7542 198.053 49.7696 198.566 49.6131 199.038C49.4565 199.511 49.1379 199.913 48.7135 200.174L26.7284 209.374C26.2247 209.527 25.6819 209.488 25.2058 209.263C24.7298 209.038 24.3547 208.644 24.1537 208.158C23.9527 207.672 23.9401 207.129 24.1186 206.634C24.297 206.14 24.6535 205.729 25.1187 205.483L31.2186 202.945C21.8757 198.271 14.0916 190.99 8.80991 181.986C8.60254 181.612 8.51357 181.184 8.55473 180.759C8.5959 180.333 8.76526 179.93 9.0405 179.603C9.31573 179.275 9.6839 179.039 10.0965 178.924C10.509 178.81 10.9466 178.823 11.3515 178.962C40.5802 188.817 57.355 185.116 57.5244 185.074C57.8354 185.001 58.1589 184.999 58.4707 185.069C58.7825 185.139 59.0744 185.278 59.3247 185.476C59.5744 185.673 59.7763 185.923 59.9157 186.209C60.055 186.495 60.1281 186.808 60.1296 187.126V213.308C60.1296 213.869 59.9064 214.407 59.5092 214.803C59.112 215.2 58.5733 215.423 58.0116 215.423V215.423Z" fill="white"/>
<path d="M268.204 215.423C267.642 215.423 267.103 215.2 266.706 214.803C266.309 214.407 266.086 213.869 266.086 213.308V187.126C266.087 186.808 266.161 186.495 266.3 186.209C266.439 185.923 266.641 185.673 266.891 185.476C267.136 185.269 267.428 185.124 267.742 185.054C268.055 184.984 268.381 184.991 268.691 185.074C268.861 185.074 285.635 188.817 314.864 178.962C315.269 178.823 315.706 178.81 316.119 178.924C316.532 179.039 316.9 179.275 317.175 179.603C317.45 179.93 317.62 180.333 317.661 180.759C317.702 181.184 317.613 181.612 317.406 181.986C312.108 190.951 304.325 198.193 294.997 202.839L301.097 205.377C301.36 205.483 301.599 205.639 301.802 205.837C302.004 206.035 302.165 206.27 302.276 206.531C302.388 206.791 302.446 207.07 302.449 207.353C302.452 207.636 302.399 207.917 302.294 208.179C302.188 208.442 302.031 208.681 301.833 208.883C301.635 209.085 301.399 209.246 301.138 209.357C300.878 209.468 300.598 209.527 300.314 209.53C300.031 209.533 299.75 209.48 299.487 209.374V209.374L277.46 200.174C277.177 200.089 276.916 199.945 276.692 199.752C276.469 199.559 276.288 199.322 276.162 199.055C276.036 198.789 275.967 198.499 275.959 198.204C275.952 197.909 276.006 197.616 276.119 197.344C276.232 197.071 276.4 196.825 276.614 196.622C276.828 196.418 277.081 196.261 277.359 196.161C277.637 196.062 277.933 196.021 278.227 196.042C278.522 196.063 278.809 196.145 279.069 196.283L289.384 200.513C297.767 197.433 305.063 191.971 310.374 184.799C289.511 190.953 275.786 190.298 270.343 189.6V213.287C270.346 213.568 270.293 213.847 270.186 214.108C270.08 214.368 269.922 214.605 269.723 214.803C269.524 215.002 269.287 215.16 269.026 215.266C268.765 215.372 268.486 215.426 268.204 215.423Z" fill="white"/>
<path d="M162.96 222.064C116.939 222.185 71.0294 217.543 25.9668 208.211V273.202C71.0294 282.533 116.939 287.176 162.96 287.054C209.112 287.188 255.151 282.524 300.335 273.138V208.105C255.153 217.505 209.113 222.183 162.96 222.064V222.064ZM160.165 247.189C160.132 246.946 160.152 246.699 160.226 246.465C160.299 246.231 160.423 246.016 160.588 245.835C161.048 245.564 161.584 245.453 162.113 245.518C162.318 245.548 162.527 245.496 162.694 245.373C162.86 245.251 162.971 245.067 163.003 244.862C163.024 244.786 163.024 244.706 163.003 244.63V238.729C162.973 238.45 162.998 238.169 163.078 237.9C163.158 237.631 163.291 237.381 163.469 237.164C163.904 236.869 164.428 236.735 164.951 236.783H177.024C177.589 236.713 178.16 236.848 178.634 237.164C178.947 237.622 179.083 238.179 179.015 238.729V244.693C179.006 244.801 179.019 244.911 179.053 245.014C179.087 245.117 179.14 245.213 179.211 245.296C179.282 245.378 179.369 245.446 179.466 245.495C179.563 245.544 179.669 245.573 179.778 245.581H180.032C180.577 245.562 181.117 245.686 181.599 245.941C181.914 246.319 182.066 246.805 182.023 247.294V251.144C182.035 251.34 182.003 251.537 181.93 251.72C181.856 251.903 181.744 252.067 181.599 252.201C181.124 252.472 180.575 252.584 180.032 252.518H175.372C174.827 252.569 174.28 252.45 173.805 252.18C173.665 252.044 173.559 251.878 173.493 251.695C173.427 251.512 173.403 251.316 173.423 251.122V243.593H168.594V251.08C168.614 251.279 168.584 251.48 168.506 251.665C168.428 251.85 168.306 252.012 168.15 252.138C167.678 252.418 167.128 252.536 166.582 252.476H162.05C161.516 252.517 160.984 252.391 160.525 252.116C160.37 251.992 160.251 251.828 160.18 251.642C160.109 251.456 160.089 251.255 160.122 251.059L160.165 247.189ZM93.0022 242.367C92.9941 242.564 92.9401 242.756 92.8445 242.929C92.7489 243.101 92.6143 243.249 92.4515 243.361C92.2883 243.496 92.0985 243.597 91.8943 243.655C91.69 243.713 91.4758 243.728 91.2654 243.699L89.2957 243.466L88.9568 246.025C88.846 246.598 88.9202 247.19 89.1686 247.717C89.3105 247.892 89.4875 248.035 89.6881 248.137C89.8888 248.239 90.1086 248.298 90.3335 248.31C90.7073 248.372 91.0459 248.567 91.2866 248.859C91.4037 248.998 91.4891 249.161 91.5366 249.337C91.5842 249.512 91.5928 249.696 91.5619 249.875L90.9689 254.739C90.9638 254.93 90.9176 255.117 90.8336 255.289C90.7495 255.46 90.6295 255.612 90.4818 255.733C90.1791 255.964 89.8026 256.076 89.4227 256.05C87.5654 255.627 85.9292 254.535 84.8266 252.983C83.472 254.218 81.7048 254.905 79.8705 254.908C79.4953 254.85 79.1554 254.654 78.9173 254.358C78.7692 254.186 78.6633 253.982 78.6081 253.761C78.553 253.541 78.5501 253.311 78.5996 253.089L79.1503 248.521C79.1593 248.316 79.2155 248.116 79.3147 247.936C79.4139 247.756 79.5534 247.602 79.7222 247.485C80.0231 247.252 80.4031 247.146 80.7812 247.189C81.2249 247.229 81.6682 247.109 82.0308 246.85C82.4341 246.426 82.6677 245.87 82.6874 245.285L82.984 242.726L78.4937 242.176L77.3712 251.503C77.2437 252.696 77.3661 253.903 77.7308 255.046C78.0954 256.189 78.6942 257.244 79.4892 258.144C81.4677 259.939 84.0008 261.006 86.6693 261.168L88.9356 261.422C89.4226 261.482 89.8689 261.724 90.1852 262.099C90.3317 262.281 90.4392 262.492 90.5011 262.717C90.563 262.943 90.5781 263.178 90.5453 263.41L90.0793 267.238C90.071 267.491 90.008 267.739 89.8947 267.965C89.7814 268.192 89.6204 268.391 89.4227 268.549C89.0144 268.79 88.5371 268.886 88.0672 268.824L85.8221 268.591C82.0146 268.157 78.5194 266.28 76.058 263.346L75.5709 267.449C75.55 267.659 75.4821 267.861 75.372 268.04C75.262 268.22 75.1128 268.372 74.9355 268.486C74.7603 268.613 74.5609 268.703 74.3497 268.75C74.1384 268.797 73.9197 268.801 73.707 268.761L68.539 268.147C68.327 268.138 68.1192 268.085 67.9294 267.99C67.7396 267.895 67.572 267.761 67.4377 267.597C67.184 267.272 67.0562 266.867 67.0776 266.455L67.5436 262.416C64.3881 264.59 60.5515 265.552 56.7417 265.123L54.3483 264.848C53.9313 264.788 53.5449 264.595 53.2469 264.298C53.1194 264.14 53.0285 263.955 52.9809 263.758C52.9333 263.561 52.9301 263.355 52.9716 263.156L53.4799 258.926C53.4936 258.725 53.5497 258.528 53.6446 258.35C53.7395 258.171 53.871 258.014 54.0306 257.89C54.382 257.661 54.7976 257.55 55.2167 257.573L57.61 257.848C60.2424 258.336 62.9628 257.911 65.3196 256.642C66.3165 255.954 67.1563 255.063 67.7841 254.028C68.412 252.993 68.8136 251.837 68.9627 250.636L70.0852 241.309L65.6585 240.633L65.2773 243.213C65.1643 243.791 65.2619 244.391 65.5526 244.905C65.8364 245.243 66.2371 245.462 66.6752 245.518C66.8614 245.538 67.0418 245.595 67.2055 245.686C67.3692 245.776 67.513 245.899 67.6283 246.047C67.7659 246.2 67.8662 246.382 67.9213 246.58C67.9765 246.779 67.9849 246.987 67.946 247.189L67.4165 251.672C67.4141 251.901 67.3571 252.126 67.2503 252.328C67.1435 252.53 66.9899 252.704 66.8023 252.835C66.4928 253.05 66.1196 253.155 65.7433 253.132C63.9972 252.699 62.4642 251.656 61.4225 250.192C59.9767 251.424 58.1338 252.092 56.2333 252.074C55.8665 252.006 55.5319 251.82 55.2802 251.545C55.0615 251.223 54.9708 250.831 55.0261 250.446L55.6191 245.581C55.6341 245.402 55.685 245.227 55.7686 245.067C55.8523 244.907 55.9671 244.766 56.1063 244.651C56.4172 244.439 56.7893 244.335 57.1653 244.355C57.3876 244.389 57.6144 244.378 57.8326 244.324C58.0508 244.269 58.2559 244.172 58.4361 244.037C58.8159 243.594 59.0326 243.034 59.0503 242.451L59.368 239.892L57.4194 239.66C57.2144 239.64 57.016 239.576 56.8371 239.474C56.6582 239.372 56.503 239.234 56.3816 239.067C56.2563 238.916 56.1651 238.739 56.1139 238.55C56.0628 238.36 56.0529 238.162 56.0851 237.968L56.4663 234.732C56.5118 234.313 56.7165 233.927 57.0382 233.653C57.3557 233.379 57.762 233.229 58.1819 233.23L70.89 234.753L71.2289 231.983C71.2614 231.777 71.3343 231.579 71.4433 231.401C71.5523 231.223 71.6954 231.069 71.8643 230.946C72.0274 230.812 72.2186 230.715 72.4238 230.664C72.629 230.613 72.8431 230.608 73.0504 230.65L78.2184 231.285C78.4338 231.292 78.6452 231.345 78.8387 231.439C79.0322 231.534 79.2034 231.669 79.341 231.835C79.4834 231.986 79.5912 232.167 79.657 232.364C79.7228 232.561 79.7451 232.77 79.7222 232.977L79.3833 235.768L92.0914 237.27C92.5244 237.35 92.9105 237.592 93.1716 237.947C93.4111 238.292 93.5096 238.716 93.447 239.131L93.0022 242.367ZM136.972 247.633C136.974 248.117 136.81 248.587 136.506 248.965C136.307 249.134 136.072 249.257 135.819 249.322C135.566 249.388 135.302 249.396 135.045 249.346L123.078 248.627L122.845 252.518L133.626 253.153C134.154 253.12 134.675 253.286 135.087 253.618C135.342 254.12 135.424 254.693 135.32 255.246L135.066 259.476C135.063 259.963 134.924 260.439 134.664 260.851C134.45 261.009 134.207 261.12 133.948 261.179C133.689 261.237 133.42 261.241 133.16 261.189L122.379 260.555L122.146 264.362L135.087 265.123C135.596 265.092 136.097 265.258 136.485 265.588C136.739 265.842 136.824 266.371 136.782 267.217L136.528 271.447C136.53 271.931 136.365 272.401 136.062 272.779C135.86 272.944 135.625 273.064 135.373 273.13C135.12 273.195 134.857 273.206 134.6 273.16L99.8434 271.045C99.5994 271.055 99.3561 271.013 99.1297 270.922C98.9032 270.831 98.6988 270.692 98.5302 270.516C98.2773 270.105 98.1726 269.62 98.2337 269.141L98.4879 264.911C98.4455 264.344 98.6111 263.78 98.9538 263.325C99.3563 263.051 99.8505 262.944 100.331 263.029L113.356 263.791L113.568 259.92L102.724 259.286C102.472 259.301 102.219 259.264 101.982 259.177C101.745 259.089 101.529 258.954 101.347 258.778C101.127 258.34 101.039 257.848 101.093 257.361L101.347 253.132V252.751H100.881C100.675 252.74 100.472 252.688 100.287 252.597C100.101 252.506 99.9358 252.379 99.8011 252.222C99.6541 252.077 99.5416 251.901 99.472 251.707C99.4023 251.513 99.3773 251.306 99.3986 251.101L99.6951 246.195C99.6943 245.989 99.7418 245.787 99.8338 245.603C99.9257 245.419 100.06 245.26 100.225 245.137C100.542 244.884 100.941 244.756 101.347 244.778H101.665C102.153 244.742 102.619 244.557 102.999 244.249C103.234 244.008 103.418 243.724 103.542 243.412C103.665 243.099 103.726 242.766 103.719 242.43L104.101 235.937C104.099 235.721 104.142 235.506 104.225 235.306C104.309 235.106 104.432 234.925 104.588 234.774C104.733 234.626 104.908 234.509 105.102 234.433C105.295 234.356 105.502 234.321 105.71 234.33L111.09 234.647C111.298 234.659 111.5 234.717 111.683 234.815C111.866 234.914 112.025 235.052 112.149 235.218C112.428 235.557 112.571 235.986 112.552 236.424L112.34 239.808L114.754 239.956L114.966 236.445C115.028 236.015 115.246 235.623 115.58 235.345C115.751 235.182 115.954 235.058 116.177 234.982C116.401 234.905 116.638 234.877 116.872 234.901L122.21 235.218C122.438 235.219 122.662 235.271 122.868 235.369C123.073 235.468 123.253 235.612 123.396 235.789C123.649 236.123 123.777 236.535 123.756 236.953L123.544 240.463L135.511 241.161C136.018 241.141 136.517 241.29 136.93 241.584C137.219 242.09 137.317 242.683 137.205 243.255L136.972 247.633ZM158.724 247.823C158.77 248.293 158.634 248.762 158.343 249.134C158.145 249.3 157.915 249.422 157.667 249.495C157.419 249.568 157.159 249.589 156.903 249.557H155.886V251.841L157.03 251.334C157.708 251.165 158.174 251.207 158.386 251.545C158.596 251.994 158.683 252.49 158.64 252.983V257.213C158.689 257.664 158.568 258.116 158.301 258.482C157.853 258.755 157.386 258.996 156.903 259.201L155.886 259.624V272.314C155.907 272.507 155.883 272.703 155.817 272.886C155.751 273.069 155.644 273.235 155.505 273.371C155.087 273.628 154.593 273.733 154.107 273.667H147.753C147.281 273.723 146.803 273.619 146.398 273.371C146.258 273.235 146.152 273.069 146.086 272.886C146.02 272.703 145.996 272.507 146.016 272.314V268.422C145.976 267.95 146.12 267.48 146.419 267.111C146.819 266.848 147.297 266.729 147.774 266.773H147.944C148.148 266.79 148.352 266.727 148.51 266.597C148.669 266.466 148.769 266.279 148.791 266.075V262.458L146.461 263.473C146.275 263.58 146.06 263.625 145.847 263.602C145.634 263.579 145.434 263.49 145.275 263.346C145.098 263.138 144.969 262.895 144.895 262.632C144.822 262.369 144.807 262.093 144.851 261.824V257.89C144.809 257.67 144.814 257.443 144.865 257.224C144.916 257.006 145.012 256.8 145.148 256.621C145.599 256.281 146.081 255.984 146.588 255.733L148.706 254.76V249.557H146.461C145.783 249.557 145.317 249.43 145.106 249.134C144.815 248.762 144.678 248.293 144.724 247.823V245.708C144.657 245.158 144.792 244.601 145.106 244.143C145.292 243.989 145.509 243.875 145.743 243.81C145.976 243.744 146.221 243.728 146.461 243.763H148.706V238.306C148.64 237.821 148.745 237.327 149.003 236.91C149.414 236.678 149.887 236.574 150.358 236.614H154.192C154.683 236.561 155.178 236.68 155.59 236.953C155.744 237.139 155.858 237.356 155.924 237.589C155.99 237.822 156.006 238.066 155.971 238.306V243.763H156.988C157.498 243.711 158.01 243.846 158.428 244.143C158.741 244.601 158.877 245.158 158.809 245.708L158.724 247.823ZM182.722 272.292C182.73 272.503 182.688 272.712 182.6 272.903C182.511 273.094 182.379 273.262 182.213 273.392C181.841 273.657 181.399 273.804 180.942 273.815C177.393 272.904 173.905 271.767 170.501 270.41C169.425 270.993 168.315 271.508 167.175 271.954C165.186 272.949 163.034 273.579 160.821 273.815C160.373 273.809 159.941 273.653 159.593 273.371C159.436 273.236 159.313 273.066 159.232 272.875C159.151 272.685 159.115 272.478 159.127 272.271V268.295C159.125 268.09 159.165 267.886 159.246 267.697C159.326 267.508 159.444 267.337 159.593 267.196C159.957 266.943 160.38 266.79 160.821 266.751C161.666 266.69 162.503 266.548 163.321 266.328C162.926 266.005 162.57 265.635 162.262 265.229C161.453 264.487 160.866 263.535 160.567 262.479C160.567 262.014 160.567 261.697 160.906 261.549C161.221 261.349 161.594 261.259 161.965 261.295H165.396C165.78 261.278 166.16 261.366 166.498 261.549C166.859 261.786 167.2 262.055 167.514 262.352C168.433 263.093 169.444 263.712 170.522 264.192C171.519 263.908 172.451 263.429 173.261 262.783C174.072 262.137 174.746 261.336 175.245 260.428H161.944C161.495 260.451 161.055 260.299 160.715 260.005C160.556 259.865 160.429 259.692 160.341 259.499C160.253 259.306 160.208 259.096 160.207 258.884V255.331C160.207 255.116 160.253 254.903 160.34 254.706C160.428 254.51 160.556 254.333 160.715 254.189C161.057 253.885 161.488 253.699 161.944 253.66H180.159C180.609 253.691 181.031 253.887 181.345 254.21C181.668 254.512 181.877 254.915 181.938 255.352V258.821C181.801 260.089 181.397 261.315 180.752 262.416C179.965 263.817 178.889 265.035 177.596 265.99C178.697 266.223 179.841 266.476 181.027 266.773C181.483 266.818 181.921 266.978 182.298 267.238C182.464 267.368 182.596 267.536 182.685 267.727C182.773 267.918 182.815 268.127 182.806 268.338L182.722 272.292ZM229 271.129C228.857 271.267 228.675 271.359 228.479 271.393C228.283 271.427 228.081 271.402 227.899 271.32C224.429 269.763 221.293 267.551 218.664 264.806C216.345 267.83 213.47 270.385 210.192 272.335C210.027 272.438 209.836 272.493 209.642 272.493C209.447 272.493 209.256 272.438 209.091 272.335C208.924 272.209 208.79 272.046 208.698 271.858C208.606 271.671 208.559 271.465 208.561 271.256L208.307 266.815C208.269 266.441 208.367 266.065 208.583 265.757C208.816 265.482 209.875 264.573 211.781 262.945C212.807 262.033 213.73 261.011 214.534 259.899C212.559 257.108 211.123 253.974 210.298 250.657C209.761 250.939 209.168 251.098 208.561 251.122C208.146 251.121 207.743 250.979 207.418 250.721C207.262 250.589 207.135 250.428 207.044 250.246C206.953 250.064 206.9 249.866 206.888 249.663V248.944C206.572 249.043 206.245 249.1 205.914 249.113L198.331 249.557L198.501 252.476L204.855 252.095C205.398 252.007 205.955 252.096 206.443 252.349C206.598 252.522 206.711 252.729 206.773 252.952C206.836 253.176 206.846 253.411 206.804 253.639L207.799 270.918C207.863 271.391 207.774 271.873 207.545 272.292C207.1 272.584 206.571 272.718 206.041 272.673L201.466 272.927C200.983 272.995 200.49 272.922 200.047 272.715C199.87 272.547 199.732 272.343 199.64 272.117C199.549 271.891 199.507 271.648 199.518 271.404L199.306 267.724C199.26 267.475 199.271 267.218 199.337 266.973C199.403 266.728 199.522 266.501 199.687 266.307C200.082 266.01 200.569 265.86 201.064 265.884H201.445L201.064 259.413L198.691 259.561C198.688 262.543 198.053 265.491 196.828 268.211C195.345 271.489 193.884 273.181 192.401 273.265C191.994 273.252 191.601 273.111 191.278 272.863C191.118 272.732 190.987 272.568 190.895 272.382C190.804 272.196 190.754 271.992 190.749 271.785L190.474 267.174C190.444 266.811 190.549 266.45 190.77 266.159C191.113 265.647 191.404 265.101 191.638 264.531C192.044 263.472 192.335 262.373 192.507 261.253C192.719 259.256 192.719 257.243 192.507 255.246L192.21 249.917H191.151C190.911 249.958 190.665 249.949 190.428 249.891C190.191 249.832 189.969 249.726 189.775 249.579C189.471 249.201 189.307 248.73 189.309 248.246L189.118 244.82C189.003 244.273 189.11 243.703 189.415 243.234C189.776 242.915 190.246 242.748 190.728 242.769L194.455 242.557L194.18 237.545C194.204 237.114 194.359 236.701 194.625 236.36C194.968 236.032 195.421 235.844 195.896 235.832L198.946 235.663C199.41 235.615 199.874 235.752 200.238 236.043C200.406 236.179 200.545 236.35 200.643 236.543C200.742 236.736 200.798 236.948 200.81 237.164L201.106 242.176L205.342 241.944C205.836 241.861 206.342 241.967 206.761 242.24C207.055 242.705 207.23 243.235 207.269 243.784V245.01L207.778 244.207C208.306 243.216 208.732 242.174 209.049 241.098C209.473 239.993 209.661 238.811 209.599 237.629V236.868C209.58 236.43 209.723 236.001 210.002 235.663C210.117 235.497 210.268 235.359 210.444 235.26C210.62 235.161 210.817 235.104 211.018 235.091L214.068 234.922C214.302 234.873 214.544 234.886 214.771 234.96C214.998 235.035 215.201 235.167 215.36 235.345C215.615 235.682 215.762 236.087 215.784 236.508V237.185C215.863 238.482 215.77 239.783 215.509 241.055L225.4 240.484C225.651 240.432 225.91 240.431 226.161 240.482C226.412 240.533 226.651 240.635 226.861 240.781C227.201 241.221 227.367 241.77 227.327 242.324L227.497 245.285C227.558 245.764 227.453 246.249 227.2 246.66C227.009 246.977 226.501 247.125 225.781 247.168H225.273C225.297 251.489 224.164 255.739 221.99 259.476C222.917 260.506 223.97 261.416 225.124 262.183C226.329 262.916 227.482 263.728 228.577 264.615C228.832 264.901 228.975 265.269 228.979 265.652L229.233 270.093C229.305 270.483 229.221 270.885 229 271.214V271.129ZM234.677 240.273C234.359 239.91 234.186 239.444 234.19 238.962L233.808 235.853C233.747 235.318 233.805 234.777 233.978 234.267C234.34 233.929 234.817 233.74 235.312 233.738L250.498 231.94C251.002 231.828 251.529 231.903 251.981 232.152C252.344 232.577 252.546 233.116 252.553 233.675L252.913 236.783C253.017 237.254 252.933 237.747 252.68 238.158C252.468 238.496 252.023 238.666 251.303 238.75L236.117 240.527C235.873 240.592 235.618 240.602 235.369 240.559C235.12 240.515 234.884 240.417 234.677 240.273V240.273ZM244.441 255.881C244.633 259.017 244.164 262.158 243.064 265.102C241.793 268.401 240.417 270.178 238.997 270.347C238.585 270.37 238.176 270.259 237.833 270.03C237.664 269.91 237.524 269.756 237.421 269.577C237.319 269.398 237.257 269.199 237.24 268.993L236.625 263.727C236.578 263.368 236.653 263.003 236.837 262.691C237.216 262.163 237.535 261.596 237.79 260.999C238.235 260.14 238.488 259.195 238.532 258.228C238.659 256.913 238.659 255.589 238.532 254.274L237.218 243.213C237.158 242.794 237.224 242.367 237.409 241.986C237.523 241.8 237.681 241.645 237.87 241.534C238.058 241.424 238.271 241.361 238.489 241.352L250.392 239.956C251.059 239.827 251.75 239.94 252.341 240.273C252.593 240.501 252.796 240.778 252.938 241.087C253.08 241.396 253.158 241.731 253.167 242.071L254.395 252.518C254.395 253.406 254.395 254.062 254.014 254.4C253.502 254.841 252.848 255.081 252.172 255.077L244.441 255.881ZM272.61 247.675C272.244 248.038 271.75 248.243 271.234 248.246L269.645 248.436L271.594 264.954C271.614 265.179 271.589 265.407 271.519 265.623C271.45 265.838 271.338 266.038 271.19 266.209C271.041 266.381 270.86 266.521 270.657 266.622C270.453 266.722 270.232 266.78 270.005 266.794L267.654 267.069C267.42 267.122 267.178 267.123 266.943 267.072C266.709 267.021 266.489 266.918 266.299 266.773C265.941 266.499 265.705 266.097 265.642 265.652L263.715 249.134L261.258 249.43L261.554 251.905C262.068 255.739 261.654 259.641 260.347 263.283C259.055 266.561 257.721 268.295 256.259 268.464C255.855 268.506 255.449 268.401 255.116 268.168C254.94 268.056 254.795 267.903 254.692 267.723C254.589 267.542 254.531 267.34 254.523 267.132L253.908 261.866C253.873 261.688 253.874 261.505 253.91 261.327C253.947 261.149 254.018 260.98 254.12 260.83C254.499 260.302 254.818 259.735 255.073 259.138C255.539 258.181 255.792 257.135 255.815 256.071C255.878 254.204 255.772 252.336 255.497 250.488L254.099 238.475C254.011 237.81 254.061 237.133 254.247 236.487C254.542 236.041 254.952 235.683 255.433 235.451L269.158 229.762C269.559 229.499 270.036 229.38 270.514 229.424C270.747 229.572 270.916 229.931 271.001 230.608L271.53 235.134C271.575 235.335 271.579 235.544 271.543 235.747C271.507 235.95 271.43 236.144 271.318 236.318C270.961 236.693 270.517 236.976 270.026 237.143L260.284 241.14L260.474 242.621L270.429 241.457C270.678 241.391 270.937 241.375 271.192 241.412C271.447 241.448 271.692 241.535 271.912 241.669C272.187 241.838 272.377 242.367 272.483 243.17L272.843 246.279C272.929 246.757 272.846 247.25 272.61 247.675V247.675Z" fill="white"/>
<path d="M218.156 254.041C219.095 251.968 219.572 249.717 219.554 247.442L215.996 247.633C216.221 249.905 216.96 252.096 218.156 254.041V254.041Z" fill="white"/>
<path d="M247.694 247.108L243.613 247.587L243.771 248.931L247.852 248.453L247.694 247.108Z" fill="white"/>
<path d="M108.972 250.382C108.51 250.854 107.991 251.266 107.426 251.609L114.055 252.011L114.288 248.119L110.772 247.908C110.355 248.851 109.741 249.694 108.972 250.382V250.382Z" fill="white"/>
</svg>
