<svg width="81" height="81" viewBox="0 0 81 81" fill="none" xmlns="http://www.w3.org/2000/svg">
<g filter="url(#filter0_d_2521_10275)">
<rect width="77" height="77" rx="13" fill="#9587E1"/>
</g>
<path fill-rule="evenodd" clip-rule="evenodd" d="M46.9019 28.3972C46.5379 28.0407 45.021 26.2736 43.8606 27.9573C42.3589 30.134 47.1825 32.1135 47.9865 31.2186C48.7146 30.407 47.5238 28.9964 46.9095 28.3896L46.9019 28.3972Z" fill="white"/>
<path fill-rule="evenodd" clip-rule="evenodd" d="M50.3825 31.173C49.0704 31.2944 48.6154 32.3941 49.2373 32.9705C49.7834 33.4787 51.3609 33.3801 51.7325 32.6747C52.2331 31.7419 51.2016 31.0972 50.3825 31.173Z" fill="white"/>
<path fill-rule="evenodd" clip-rule="evenodd" d="M56.1167 30.445C56.86 29.8458 57.8232 28.1925 56.7083 27.2444C55.1535 25.9248 51.8695 29.7017 52.772 30.9228C53.3939 31.7647 55.0094 31.3324 56.1167 30.445Z" fill="white"/>
<path fill-rule="evenodd" clip-rule="evenodd" d="M52.7639 33.9641C54.0988 33.8655 54.0912 35.17 56.7078 39.9557C58.8617 43.8919 64.0949 52.2119 64.7699 53.7515C66.7949 58.3704 64.6258 61.7606 64.0039 62.7162C59.8477 69.087 49.9426 69.7544 44.7625 66.9027C42.1686 65.4769 38.1565 61.3055 38.9832 57.119C40.2043 50.9226 46.522 39.7357 47.015 39.5992C48.7594 39.1063 47.781 42.9136 49.9046 42.724C51.5049 42.5799 52.3316 38.7498 51.8386 36.7855C51.1485 34.0172 50.9589 34.1082 52.7791 33.9717L52.7639 33.9641ZM61.7058 60.0996C60.6592 61.9502 59.1727 62.921 56.7836 63.8083C56.3134 63.9828 56.0707 64.5061 56.2451 64.9763C56.4196 65.4465 56.9429 65.6892 57.4131 65.5148C60.2875 64.4454 62.0319 63.2168 63.2833 60.9946C63.5336 60.5547 63.3744 60.001 62.9421 59.7583C62.5022 59.508 61.9485 59.6673 61.6982 60.1072L61.7058 60.0996ZM52.0055 62.6403C50.39 62.6403 48.5167 62.3142 47.0454 61.1235C45.2858 59.6976 44.497 57.392 44.7094 54.2673C45.1644 47.4338 49.9122 46.774 51.3532 46.7285C54.6145 46.6451 57.1249 48.2681 58.0729 51.0895C58.3687 51.9768 58.437 52.8414 58.4977 53.5392C58.5507 54.1687 58.6038 54.8209 58.8086 54.9802C59.5898 55.5869 60.5833 55.4808 60.5985 55.4808C60.9019 55.4428 61.2128 55.5642 61.41 55.7993C61.6072 56.0344 61.6755 56.353 61.5845 56.6487C60.7881 59.2502 57.8454 61.5103 55.4639 62.1777C55.1833 62.2535 53.7499 62.6403 52.0055 62.6403ZM51.4063 48.5487C49.7226 48.5942 46.8557 49.4209 46.522 54.3886C46.3552 56.8914 46.9164 58.6813 48.1906 59.7128C50.5872 61.6468 54.7889 60.4864 54.9634 60.4333C56.4878 60.001 58.3611 58.6889 59.3319 57.1872C58.8162 57.0659 58.2322 56.8384 57.6861 56.4212C56.8443 55.769 56.7608 54.7072 56.6774 53.6909C56.6243 53.031 56.5712 52.3484 56.3437 51.6734C55.646 49.5878 53.9016 48.4805 51.4063 48.5563V48.5487ZM49.5027 51.9313C48.5395 51.8706 48.3499 53.6605 49.3737 53.6985C50.3445 53.7364 50.7389 52.0147 49.5027 51.9313ZM52.4302 51.9313C51.3229 51.9465 51.3836 53.6681 52.4302 53.6074C53.6134 53.5316 53.2721 51.9237 52.4302 51.9313Z" fill="white"/>
<path fill-rule="evenodd" clip-rule="evenodd" d="M32.9083 31.9921C29.8973 32.5761 26.9167 34.6086 25.597 36.3075C25.104 34.8817 24.0119 33.4255 24.0877 32.1817C24.9144 30.6648 29.2602 28.4199 30.0111 28.5715C30.6557 28.9887 30.9212 29.1631 31.6948 29.7471C33.2344 29.0949 36.4653 27.3277 36.9507 28.2378C37.5195 29.3148 34.7134 30.7634 32.9159 31.9845L32.9083 31.9921Z" fill="white"/>
<path fill-rule="evenodd" clip-rule="evenodd" d="M32.9916 32.4397C33.0523 32.4245 33.1054 32.4018 33.1585 32.3714C34.4554 31.4917 36.2453 30.4905 37.0037 29.5956C37.4664 29.0495 37.5877 28.511 37.3374 28.0332C37.2237 27.8133 37.0341 27.6692 36.7838 27.5933C36.5335 27.5175 36.1922 27.5175 35.7902 27.6009C34.6374 27.836 32.8703 28.731 31.7478 29.2315C31.1183 28.7613 30.8453 28.5793 30.2537 28.1925C30.2082 28.1621 30.1475 28.1394 30.0944 28.1318C29.9882 28.1091 29.829 28.1091 29.6394 28.147C29.336 28.2076 28.8885 28.3593 28.3728 28.5944C27.3944 29.0268 26.1506 29.7321 25.1798 30.4526C24.4896 30.9683 23.9436 31.5068 23.6857 31.977C23.6553 32.0377 23.6326 32.0984 23.6326 32.1667C23.6023 32.7279 23.7615 33.3271 24.0194 33.949C24.3607 34.7681 24.8688 35.6251 25.1646 36.4745C25.2177 36.6338 25.3542 36.7476 25.5211 36.7703C25.6879 36.8007 25.8548 36.7324 25.9534 36.6035C27.2276 34.9653 30.0944 33.0161 32.9992 32.4549L32.9916 32.4397ZM36.5411 28.4655C36.579 28.5489 36.5411 28.6324 36.5032 28.7234C36.4046 28.9206 36.215 29.1254 35.9798 29.3377C35.1532 30.0734 33.7804 30.8546 32.7262 31.5675C29.9731 32.1287 27.2579 33.8504 25.7334 35.4507C25.5135 34.9577 25.2556 34.4723 25.0357 33.9869C24.7627 33.4029 24.5351 32.8417 24.5351 32.3108C24.7627 31.9543 25.2025 31.5599 25.7259 31.1655C26.6436 30.4829 27.8191 29.8231 28.7368 29.4136C29.116 29.2467 29.4498 29.1178 29.7076 29.0571C29.7683 29.0419 29.8214 29.0268 29.8669 29.0192C30.4281 29.3832 30.7012 29.5652 31.4141 30.1113C31.543 30.2099 31.7175 30.2327 31.8691 30.172C32.9234 29.7245 34.7891 28.7386 35.9798 28.4883C36.1467 28.4579 36.2908 28.4352 36.4197 28.4428C36.4652 28.4428 36.5259 28.4655 36.5487 28.4655H36.5411Z" fill="white"/>
<path fill-rule="evenodd" clip-rule="evenodd" d="M41.0161 39.1594C40.508 41.0706 40.1212 43.4673 35.4492 46.2507C34.3647 46.8954 31.5661 47.1457 28.7826 49.694C25.4228 52.7656 23.102 57.7789 23.102 57.7789C23.102 57.7789 17.6261 53.562 17.2469 51.2488C17.0194 49.8533 22.6697 42.2614 23.9818 40.8052C27.3871 37.051 29.1391 35.2914 31.8012 34.3813C36.64 32.7279 39.4917 35.1928 39.4917 35.1928L49.3209 34.8743L49.9808 36.9979C49.9808 36.9979 41.8201 39.0001 41.0085 39.1594H41.0161ZM34.9942 40.7142C36.5566 40.4715 36.4959 37.3922 34.6074 37.7032C32.7947 38.0066 32.9768 41.0251 34.9942 40.7142Z" fill="white"/>
<path d="M39.2644 64.5213C24.7633 64.5213 13 52.758 13 38.2569C13 23.7557 24.7633 12 39.2644 12C53.758 12 65.5289 23.7633 65.5289 38.2569C65.5289 42.1476 65.18 43.6114 64.194 46.6148" stroke="white" stroke-width="2.4" stroke-linecap="round" stroke-linejoin="round"/>
<defs>
<filter id="filter0_d_2521_10275" x="0" y="0" width="81" height="81" filterUnits="userSpaceOnUse" color-interpolation-filters="sRGB">
<feFlood flood-opacity="0" result="BackgroundImageFix"/>
<feColorMatrix in="SourceAlpha" type="matrix" values="0 0 0 0 0 0 0 0 0 0 0 0 0 0 0 0 0 0 127 0" result="hardAlpha"/>
<feOffset dx="4" dy="4"/>
<feComposite in2="hardAlpha" operator="out"/>
<feColorMatrix type="matrix" values="0 0 0 0 0 0 0 0 0 0 0 0 0 0 0 0 0 0 0.1 0"/>
<feBlend mode="normal" in2="BackgroundImageFix" result="effect1_dropShadow_2521_10275"/>
<feBlend mode="normal" in="SourceGraphic" in2="effect1_dropShadow_2521_10275" result="shape"/>
</filter>
</defs>
</svg>
