<svg width="28" height="36" viewBox="0 0 28 36" fill="none" xmlns="http://www.w3.org/2000/svg">
<path d="M14.98 14.0524C15.2275 13.3099 16.276 13.3099 16.5235 14.0524L17.9748 18.4106C18.2942 19.3687 18.8324 20.2392 19.5467 20.9531C20.261 21.667 21.1318 22.2047 22.09 22.5236L26.446 23.9749C27.1885 24.2224 27.1885 25.2709 26.446 25.5184L22.0878 26.9696C21.1297 27.2891 20.2592 27.8273 19.5453 28.5416C18.8314 29.2559 18.2937 30.1267 17.9748 31.0849L16.5235 35.4409C16.4702 35.6035 16.3668 35.745 16.2282 35.8454C16.0896 35.9458 15.9229 35.9998 15.7518 35.9998C15.5807 35.9998 15.4139 35.9458 15.2753 35.8454C15.1367 35.745 15.0334 35.6035 14.98 35.4409L13.5288 31.0826C13.2096 30.1248 12.6717 29.2545 11.9578 28.5406C11.2439 27.8267 10.3736 27.2888 9.41577 26.9696L5.05752 25.5184C4.89493 25.465 4.75335 25.3617 4.65297 25.2231C4.5526 25.0845 4.49855 24.9177 4.49855 24.7466C4.49855 24.5755 4.5526 24.4088 4.65297 24.2702C4.75335 24.1316 4.89493 24.0282 5.05752 23.9749L9.41577 22.5236C10.3736 22.2044 11.2439 21.6666 11.9578 20.9527C12.6717 20.2388 13.2096 19.3684 13.5288 18.4106L14.98 14.0524ZM6.28827 2.57963C6.32054 2.48219 6.38269 2.3974 6.46589 2.3373C6.5491 2.27721 6.64913 2.24486 6.75177 2.24486C6.85441 2.24486 6.95444 2.27721 7.03765 2.3373C7.12085 2.3974 7.18301 2.48219 7.21527 2.57963L8.08602 5.19413C8.47527 6.35963 9.38877 7.27313 10.5543 7.66238L13.1688 8.53313C13.2662 8.56539 13.351 8.62755 13.4111 8.71075C13.4712 8.79396 13.5035 8.89399 13.5035 8.99663C13.5035 9.09927 13.4712 9.1993 13.4111 9.28251C13.351 9.36571 13.2662 9.42787 13.1688 9.46013L10.5543 10.3309C9.97945 10.5224 9.45714 10.8451 9.02871 11.2736C8.60029 11.702 8.27753 12.2243 8.08602 12.7991L7.21527 15.4136C7.18301 15.5111 7.12085 15.5959 7.03765 15.656C6.95444 15.7161 6.85441 15.7484 6.75177 15.7484C6.64913 15.7484 6.5491 15.7161 6.46589 15.656C6.38269 15.5959 6.32054 15.5111 6.28827 15.4136L5.41752 12.7991C5.22601 12.2243 4.90325 11.702 4.47483 11.2736C4.04641 10.8451 3.52409 10.5224 2.94927 10.3309L0.334771 9.46013C0.237333 9.42787 0.152542 9.36571 0.0924443 9.28251C0.0323468 9.1993 0 9.09927 0 8.99663C0 8.89399 0.0323468 8.79396 0.0924443 8.71075C0.152542 8.62755 0.237333 8.56539 0.334771 8.53313L2.94927 7.66238C3.52409 7.47087 4.04641 7.14811 4.47483 6.71969C4.90325 6.29127 5.22601 5.76895 5.41752 5.19413L6.28827 2.57963ZM22.1935 0.219381C22.2157 0.155315 22.2574 0.0997617 22.3126 0.0604445C22.3678 0.0211273 22.434 0 22.5018 0C22.5696 0 22.6357 0.0211273 22.6909 0.0604445C22.7462 0.0997617 22.7878 0.155315 22.81 0.219381L23.3905 1.96088C23.6493 2.73938 24.259 3.34913 25.0375 3.60788L26.779 4.18838C26.8431 4.21059 26.8986 4.25221 26.938 4.30746C26.9773 4.3627 26.9984 4.42882 26.9984 4.49663C26.9984 4.56444 26.9773 4.63056 26.938 4.6858C26.8986 4.74105 26.8431 4.78267 26.779 4.80488L25.0375 5.38538C24.6539 5.51301 24.3053 5.72832 24.0194 6.01422C23.7335 6.30012 23.5181 6.64873 23.3905 7.03238L22.81 8.77388C22.7878 8.83795 22.7462 8.8935 22.6909 8.93282C22.6357 8.97213 22.5696 8.99326 22.5018 8.99326C22.434 8.99326 22.3678 8.97213 22.3126 8.93282C22.2574 8.8935 22.2157 8.83795 22.1935 8.77388L21.613 7.03238C21.4854 6.64873 21.2701 6.30012 20.9842 6.01422C20.6983 5.72832 20.3497 5.51301 19.966 5.38538L18.2268 4.80488C18.1627 4.78267 18.1072 4.74105 18.0678 4.6858C18.0285 4.63056 18.0074 4.56444 18.0074 4.49663C18.0074 4.42882 18.0285 4.3627 18.0678 4.30746C18.1072 4.25221 18.1627 4.21059 18.2268 4.18838L19.9683 3.60788C20.7468 3.34913 21.3565 2.73938 21.6153 1.96088L22.1935 0.221631V0.219381Z" fill="white"/>
</svg>
