<svg width="116" height="212" viewBox="0 0 116 212" fill="none" xmlns="http://www.w3.org/2000/svg">
<rect width="116" height="38" rx="19" fill="white"/>
<rect y="81" width="116" height="38" rx="19" fill="white"/>
<rect y="161" width="116" height="38" rx="19" fill="white"/>
<path d="M7 51C16.0463 47.2759 16.5946 37.4483 15.7379 33H24.9899C25.4011 45.9103 13.168 50.3793 7 51Z" fill="white"/>
<path d="M7 132C16.0463 128.276 16.5946 118.448 15.7379 114H24.9899C25.4011 126.91 13.168 131.379 7 132Z" fill="white"/>
<path d="M7 212C16.0463 208.276 16.5946 198.448 15.7379 194H24.9899C25.4011 206.91 13.168 211.379 7 212Z" fill="white"/>
<path d="M25.034 12.832C24.746 12.832 24.5 12.736 24.296 12.544C24.104 12.34 24.008 12.094 24.008 11.806C24.008 11.53 24.11 11.29 24.314 11.086C24.518 10.882 24.758 10.78 25.034 10.78H28.886C29.162 10.78 29.402 10.882 29.606 11.086C29.81 11.29 29.912 11.53 29.912 11.806C29.912 12.094 29.81 12.34 29.606 12.544C29.414 12.736 29.174 12.832 28.886 12.832H25.034ZM24.566 15.622C24.29 15.622 24.05 15.52 23.846 15.316C23.642 15.112 23.54 14.872 23.54 14.596V14.398C23.54 14.122 23.642 13.882 23.846 13.678C24.05 13.474 24.29 13.372 24.566 13.372H29.174C29.45 13.372 29.69 13.474 29.894 13.678C30.098 13.882 30.2 14.122 30.2 14.398V14.596C30.2 14.872 30.098 15.112 29.894 15.316C29.69 15.52 29.45 15.622 29.174 15.622H24.566ZM25.16 18.16C24.896 18.16 24.662 18.064 24.458 17.872C24.266 17.68 24.17 17.446 24.17 17.17C24.17 16.894 24.266 16.66 24.458 16.468C24.662 16.276 24.896 16.18 25.16 16.18H28.904C29.168 16.18 29.396 16.276 29.588 16.468C29.792 16.66 29.894 16.894 29.894 17.17C29.894 17.446 29.792 17.68 29.588 17.872C29.396 18.064 29.168 18.16 28.904 18.16H25.16ZM25.16 20.698C24.896 20.698 24.662 20.602 24.458 20.41C24.266 20.206 24.17 19.972 24.17 19.708C24.17 19.444 24.266 19.216 24.458 19.024C24.662 18.82 24.896 18.718 25.16 18.718H28.904C29.168 18.718 29.396 18.82 29.588 19.024C29.792 19.216 29.894 19.444 29.894 19.708C29.894 19.972 29.792 20.206 29.588 20.41C29.396 20.602 29.168 20.698 28.904 20.698H25.16ZM24.008 25.81V22.264C24.008 21.988 24.11 21.754 24.314 21.562C24.518 21.358 24.758 21.256 25.034 21.256H28.976C29.252 21.256 29.486 21.358 29.678 21.562C29.882 21.754 29.984 21.988 29.984 22.264V25.216C29.984 25.492 29.882 25.726 29.678 25.918C29.486 26.122 29.252 26.224 28.976 26.224H26.546C26.486 26.224 26.456 26.254 26.456 26.314C26.456 26.458 26.408 26.578 26.312 26.674C26.216 26.782 26.096 26.836 25.952 26.836H25.034C24.758 26.836 24.518 26.734 24.314 26.53C24.11 26.326 24.008 26.086 24.008 25.81ZM26.456 23.326V24.154C26.456 24.262 26.51 24.316 26.618 24.316H27.644C27.752 24.316 27.806 24.262 27.806 24.154V23.326C27.806 23.218 27.752 23.164 27.644 23.164H26.618C26.51 23.164 26.456 23.218 26.456 23.326ZM31.424 26.314C31.148 26.314 30.908 26.212 30.704 26.008C30.5 25.816 30.398 25.582 30.398 25.306V24.928C30.398 24.652 30.5 24.412 30.704 24.208C30.908 24.004 31.148 23.902 31.424 23.902H33.998C34.094 23.902 34.142 23.854 34.142 23.758V21.094C34.142 20.986 34.094 20.932 33.998 20.932H31.928C31.652 20.932 31.412 20.83 31.208 20.626C31.004 20.422 30.902 20.182 30.902 19.906V19.618C30.902 19.342 31.004 19.102 31.208 18.898C31.412 18.694 31.652 18.592 31.928 18.592H33.998C34.094 18.592 34.142 18.544 34.142 18.448V16.18C34.142 16.084 34.094 16.036 33.998 16.036H31.604C31.328 16.036 31.088 15.934 30.884 15.73C30.692 15.526 30.596 15.286 30.596 15.01V14.632C30.596 14.356 30.692 14.116 30.884 13.912C31.088 13.708 31.328 13.606 31.604 13.606H37.094C37.154 13.606 37.16 13.594 37.112 13.57C35.9 13.138 34.58 12.772 33.152 12.472C32.888 12.412 32.684 12.268 32.54 12.04C32.396 11.812 32.366 11.566 32.45 11.302L32.576 10.942C32.672 10.666 32.84 10.456 33.08 10.312C33.32 10.156 33.584 10.102 33.872 10.15C35.084 10.39 36.434 10.762 37.922 11.266C38.186 11.35 38.372 11.524 38.48 11.788C38.6 12.04 38.612 12.298 38.516 12.562L38.192 13.462C38.168 13.558 38.204 13.606 38.3 13.606H39.362C39.638 13.606 39.878 13.708 40.082 13.912C40.286 14.116 40.388 14.356 40.388 14.632V15.01C40.388 15.286 40.286 15.526 40.082 15.73C39.878 15.934 39.638 16.036 39.362 16.036H37.238C37.13 16.036 37.076 16.084 37.076 16.18V18.448C37.076 18.544 37.13 18.592 37.238 18.592H39.056C39.332 18.592 39.566 18.694 39.758 18.898C39.962 19.102 40.064 19.342 40.064 19.618V19.906C40.064 20.182 39.962 20.422 39.758 20.626C39.566 20.83 39.332 20.932 39.056 20.932H37.238C37.13 20.932 37.076 20.986 37.076 21.094V23.758C37.076 23.854 37.13 23.902 37.238 23.902H39.56C39.836 23.902 40.076 24.004 40.28 24.208C40.484 24.412 40.586 24.652 40.586 24.928V25.306C40.586 25.582 40.484 25.816 40.28 26.008C40.076 26.212 39.836 26.314 39.56 26.314H31.424ZM43.988 19.69C43.712 19.69 43.472 19.588 43.268 19.384C43.064 19.18 42.962 18.94 42.962 18.664V18.376C42.962 18.1 43.064 17.86 43.268 17.656C43.472 17.452 43.712 17.35 43.988 17.35H44.132C44.228 17.35 44.276 17.296 44.276 17.188V11.824C44.276 11.548 44.378 11.308 44.582 11.104C44.786 10.9 45.026 10.798 45.302 10.798H57.938C58.214 10.798 58.454 10.9 58.658 11.104C58.862 11.308 58.964 11.548 58.964 11.824V17.188C58.964 17.296 59.012 17.35 59.108 17.35H59.252C59.528 17.35 59.768 17.452 59.972 17.656C60.176 17.86 60.278 18.1 60.278 18.376V18.664C60.278 18.94 60.176 19.18 59.972 19.384C59.768 19.588 59.528 19.69 59.252 19.69H59.108C59.012 19.69 58.964 19.744 58.964 19.852V23.128C58.964 24.172 58.916 24.91 58.82 25.342C58.724 25.786 58.568 26.074 58.352 26.206C58.136 26.338 57.752 26.404 57.2 26.404C56.72 26.404 56.018 26.38 55.094 26.332C54.854 26.308 54.722 26.176 54.698 25.936C54.698 25.9 54.68 25.882 54.644 25.882H53.348C53.072 25.882 52.832 25.78 52.628 25.576C52.436 25.372 52.34 25.132 52.34 24.856V19.852C52.34 19.744 52.286 19.69 52.178 19.69H51.062C50.954 19.69 50.9 19.744 50.9 19.852V24.856C50.9 25.132 50.798 25.372 50.594 25.576C50.402 25.78 50.168 25.882 49.892 25.882H49.46C49.184 25.882 48.944 25.78 48.74 25.576C48.536 25.372 48.434 25.132 48.434 24.856V19.852C48.434 19.744 48.386 19.69 48.29 19.69H47.174C47.066 19.69 47.012 19.744 47.012 19.852V25.396C47.012 25.672 46.91 25.912 46.706 26.116C46.502 26.32 46.262 26.422 45.986 26.422H45.302C45.026 26.422 44.786 26.32 44.582 26.116C44.378 25.912 44.276 25.672 44.276 25.396V19.852C44.276 19.744 44.228 19.69 44.132 19.69H43.988ZM54.806 13.372V17.188C54.806 17.296 54.854 17.35 54.95 17.35H56.066C56.174 17.35 56.228 17.296 56.228 17.188V13.372C56.228 13.264 56.174 13.21 56.066 13.21H54.95C54.854 13.21 54.806 13.264 54.806 13.372ZM54.806 19.852V23.758C54.806 23.866 54.848 23.92 54.932 23.92C55.364 23.956 55.658 23.974 55.814 23.974C56.018 23.974 56.138 23.944 56.174 23.884C56.21 23.812 56.228 23.596 56.228 23.236V19.852C56.228 19.744 56.174 19.69 56.066 19.69H54.95C54.854 19.69 54.806 19.744 54.806 19.852ZM50.9 13.372V17.188C50.9 17.296 50.954 17.35 51.062 17.35H52.178C52.286 17.35 52.34 17.296 52.34 17.188V13.372C52.34 13.264 52.286 13.21 52.178 13.21H51.062C50.954 13.21 50.9 13.264 50.9 13.372ZM47.012 13.372V17.188C47.012 17.296 47.066 17.35 47.174 17.35H48.29C48.386 17.35 48.434 17.296 48.434 17.188V13.372C48.434 13.264 48.386 13.21 48.29 13.21H47.174C47.066 13.21 47.012 13.264 47.012 13.372ZM63.77 23.758C63.506 23.758 63.278 23.668 63.086 23.488C62.906 23.296 62.816 23.062 62.816 22.786V13.498C62.816 13.222 62.912 12.982 63.104 12.778C63.308 12.574 63.548 12.472 63.824 12.472H64.976C65.084 12.472 65.138 12.424 65.138 12.328V11.32C65.138 11.044 65.24 10.804 65.444 10.6C65.648 10.396 65.888 10.294 66.164 10.294H66.506C66.782 10.294 67.022 10.396 67.226 10.6C67.43 10.804 67.532 11.044 67.532 11.32V12.328C67.532 12.424 67.586 12.472 67.694 12.472H68.756C69.032 12.472 69.272 12.574 69.476 12.778C69.68 12.982 69.782 13.222 69.782 13.498V18.34C69.782 18.412 69.824 18.436 69.908 18.412C69.956 18.388 70.034 18.376 70.142 18.376C70.202 18.376 70.232 18.346 70.232 18.286V11.644C70.232 11.368 70.334 11.128 70.538 10.924C70.742 10.72 70.982 10.618 71.258 10.618H78.242C78.518 10.618 78.758 10.72 78.962 10.924C79.166 11.128 79.268 11.368 79.268 11.644V11.95C79.268 12.226 79.166 12.466 78.962 12.67C78.758 12.874 78.518 12.976 78.242 12.976H73.256C73.148 12.976 73.094 13.024 73.094 13.12V13.426C73.094 13.534 73.148 13.588 73.256 13.588H77.99C78.23 13.588 78.434 13.678 78.602 13.858C78.782 14.026 78.872 14.23 78.872 14.47C78.872 14.71 78.782 14.914 78.602 15.082C78.434 15.25 78.23 15.334 77.99 15.334H73.256C73.148 15.334 73.094 15.388 73.094 15.496V15.82C73.094 15.916 73.148 15.964 73.256 15.964H77.99C78.23 15.964 78.434 16.054 78.602 16.234C78.782 16.402 78.872 16.606 78.872 16.846C78.872 17.086 78.782 17.296 78.602 17.476C78.434 17.644 78.23 17.728 77.99 17.728H73.256C73.148 17.728 73.094 17.776 73.094 17.872V18.214C73.094 18.322 73.148 18.376 73.256 18.376H78.782C79.058 18.376 79.298 18.478 79.502 18.682C79.706 18.874 79.808 19.108 79.808 19.384V19.708C79.808 19.984 79.706 20.224 79.502 20.428C79.298 20.62 79.058 20.716 78.782 20.716H78.314C78.29 20.716 78.278 20.728 78.278 20.752C78.278 20.764 78.284 20.776 78.296 20.788L78.836 21.058C79.088 21.19 79.256 21.394 79.34 21.67C79.424 21.934 79.4 22.192 79.268 22.444C79.064 22.792 78.836 23.164 78.584 23.56C78.524 23.632 78.542 23.704 78.638 23.776C78.698 23.8 78.776 23.848 78.872 23.92C78.968 23.992 79.046 24.04 79.106 24.064C79.358 24.196 79.538 24.394 79.646 24.658C79.754 24.922 79.754 25.18 79.646 25.432L79.502 25.774C79.394 26.038 79.208 26.224 78.944 26.332C78.68 26.44 78.422 26.434 78.17 26.314C77.102 25.786 76.13 25.006 75.254 23.974C75.242 23.95 75.224 23.944 75.2 23.956C75.176 23.956 75.164 23.968 75.164 23.992L75.2 24.514C75.224 24.814 75.152 25.084 74.984 25.324C74.816 25.564 74.588 25.714 74.3 25.774C72.8 26.11 71.282 26.362 69.746 26.53C69.47 26.554 69.224 26.47 69.008 26.278C68.792 26.098 68.672 25.87 68.648 25.594L68.63 25.378C68.606 25.102 68.684 24.856 68.864 24.64C69.056 24.412 69.29 24.286 69.566 24.262C69.626 24.25 69.71 24.238 69.818 24.226C69.926 24.214 70.01 24.208 70.07 24.208C70.178 24.184 70.232 24.13 70.232 24.046V20.824C70.232 20.752 70.202 20.716 70.142 20.716C70.034 20.716 69.956 20.704 69.908 20.68C69.824 20.656 69.782 20.68 69.782 20.752V22.138C69.782 22.558 69.722 22.87 69.602 23.074C69.482 23.278 69.254 23.416 68.918 23.488C68.642 23.548 68.384 23.488 68.144 23.308C67.916 23.116 67.772 22.87 67.712 22.57L67.568 21.814C67.568 21.802 67.562 21.796 67.55 21.796C67.538 21.796 67.532 21.802 67.532 21.814V25.72C67.532 25.996 67.43 26.236 67.226 26.44C67.022 26.644 66.782 26.746 66.506 26.746H66.164C65.888 26.746 65.648 26.644 65.444 26.44C65.24 26.236 65.138 25.996 65.138 25.72V15.046C65.138 14.938 65.084 14.884 64.976 14.884H64.904C64.796 14.884 64.742 14.938 64.742 15.046V22.786C64.742 23.062 64.646 23.296 64.454 23.488C64.274 23.668 64.046 23.758 63.77 23.758ZM75.956 20.716C75.86 20.716 75.836 20.77 75.884 20.878C76.124 21.334 76.424 21.772 76.784 22.192C76.856 22.264 76.916 22.258 76.964 22.174C77.144 21.898 77.39 21.46 77.702 20.86C77.726 20.836 77.726 20.806 77.702 20.77C77.69 20.734 77.666 20.716 77.63 20.716H75.956ZM73.094 20.842V23.614C73.094 23.722 73.148 23.764 73.256 23.74C73.88 23.62 74.348 23.524 74.66 23.452C74.756 23.428 74.774 23.374 74.714 23.29C74.15 22.486 73.706 21.67 73.382 20.842C73.358 20.758 73.304 20.716 73.22 20.716C73.136 20.716 73.094 20.758 73.094 20.842ZM67.532 15.046V20.86C67.532 20.98 67.586 21.028 67.694 21.004C67.802 20.992 67.868 20.926 67.892 20.806C67.916 20.674 67.928 20.38 67.928 19.924V15.046C67.928 14.938 67.874 14.884 67.766 14.884H67.694C67.586 14.884 67.532 14.938 67.532 15.046ZM96.224 20.572C96.5 20.572 96.74 20.674 96.944 20.878C97.148 21.082 97.25 21.322 97.25 21.598V23.668C97.25 23.908 97.256 24.052 97.268 24.1C97.28 24.136 97.322 24.154 97.394 24.154C97.442 24.154 97.472 24.148 97.484 24.136C97.508 24.124 97.532 24.076 97.556 23.992C97.58 23.896 97.592 23.758 97.592 23.578C97.604 23.398 97.61 23.128 97.61 22.768C97.61 22.516 97.706 22.312 97.898 22.156C98.09 22 98.312 21.934 98.564 21.958C98.828 21.994 99.044 22.114 99.212 22.318C99.38 22.51 99.458 22.738 99.446 23.002C99.422 23.518 99.398 23.938 99.374 24.262C99.35 24.586 99.32 24.886 99.284 25.162C99.248 25.438 99.182 25.648 99.086 25.792C99.002 25.936 98.918 26.062 98.834 26.17C98.75 26.278 98.612 26.35 98.42 26.386C98.24 26.434 98.066 26.464 97.898 26.476C97.73 26.488 97.49 26.494 97.178 26.494C96.206 26.494 95.6 26.368 95.36 26.116C95.12 25.876 95 25.222 95 24.154V21.598C95 21.322 95.102 21.082 95.306 20.878C95.51 20.674 95.75 20.572 96.026 20.572H96.224ZM88.124 10.618C88.4 10.618 88.64 10.72 88.844 10.924C89.048 11.128 89.15 11.368 89.15 11.644V15.388C89.15 15.664 89.048 15.904 88.844 16.108C88.64 16.3 88.4 16.396 88.124 16.396H85.046H83.624C83.348 16.396 83.108 16.3 82.904 16.108C82.712 15.904 82.616 15.664 82.616 15.388V11.644C82.616 11.368 82.712 11.128 82.904 10.924C83.108 10.72 83.348 10.618 83.624 10.618H88.124ZM86.774 14.326V13.03C86.774 12.934 86.726 12.886 86.63 12.886H85.208C85.1 12.886 85.046 12.934 85.046 13.03V14.326C85.046 14.434 85.1 14.488 85.208 14.488H86.63C86.726 14.488 86.774 14.434 86.774 14.326ZM83.084 19.474C82.844 19.474 82.634 19.384 82.454 19.204C82.274 19.024 82.184 18.814 82.184 18.574V18.214C82.184 17.938 82.286 17.698 82.49 17.494C82.694 17.29 82.934 17.188 83.21 17.188H88.286C88.562 17.188 88.796 17.29 88.988 17.494C89.192 17.698 89.294 17.938 89.294 18.214V18.448C89.294 18.724 89.192 18.964 88.988 19.168C88.796 19.372 88.562 19.474 88.286 19.474H85.928C85.832 19.474 85.772 19.522 85.748 19.618C85.736 19.714 85.706 19.9 85.658 20.176C85.634 20.296 85.682 20.356 85.802 20.356H88.016C88.292 20.356 88.526 20.458 88.718 20.662C88.91 20.854 89 21.088 88.988 21.364C88.916 22.636 88.862 23.434 88.826 23.758C88.826 23.782 88.832 23.794 88.844 23.794C88.856 23.794 88.868 23.788 88.88 23.776C89.216 23.044 89.438 22.138 89.546 21.058C89.666 19.966 89.726 18.268 89.726 15.964V13.822C89.726 13.546 89.822 13.306 90.014 13.102C90.218 12.898 90.458 12.796 90.734 12.796H92.588C92.684 12.796 92.732 12.748 92.732 12.652V10.924C92.732 10.648 92.834 10.414 93.038 10.222C93.242 10.018 93.482 9.916 93.758 9.916H94.928C95.096 9.916 95.234 9.976 95.342 10.096C95.462 10.216 95.522 10.354 95.522 10.51C95.522 10.57 95.552 10.6 95.612 10.6H97.898C98.126 10.6 98.324 10.684 98.492 10.852C98.672 11.02 98.762 11.224 98.762 11.464C98.762 11.704 98.672 11.908 98.492 12.076C98.324 12.244 98.126 12.328 97.898 12.328H95.684C95.576 12.328 95.522 12.376 95.522 12.472V12.652C95.522 12.748 95.576 12.796 95.684 12.796H98.276C98.552 12.796 98.792 12.898 98.996 13.102C99.2 13.306 99.302 13.546 99.302 13.822V14.056C99.302 14.8 99.188 15.46 98.96 16.036C98.888 16.216 98.768 16.486 98.6 16.846C98.576 16.906 98.594 16.936 98.654 16.936C98.834 16.96 98.984 17.044 99.104 17.188C99.224 17.332 99.278 17.494 99.266 17.674C99.242 18.094 99.218 18.424 99.194 18.664C99.17 18.892 99.098 19.108 98.978 19.312C98.87 19.504 98.768 19.642 98.672 19.726C98.576 19.798 98.366 19.864 98.042 19.924C97.73 19.972 97.442 20.002 97.178 20.014C96.914 20.014 96.476 20.014 95.864 20.014C95.372 20.014 95 20.014 94.748 20.014C94.508 20.002 94.25 19.99 93.974 19.978C93.698 19.966 93.506 19.936 93.398 19.888C93.302 19.84 93.2 19.792 93.092 19.744C92.984 19.696 92.918 19.612 92.894 19.492C92.87 19.36 92.852 19.24 92.84 19.132C92.828 19.024 92.822 18.856 92.822 18.628V18.016C92.822 17.968 92.804 17.932 92.768 17.908C92.744 17.872 92.714 17.86 92.678 17.872L92.264 17.926C92.156 17.95 92.102 18.01 92.102 18.106V18.142C92.102 20.794 91.88 22.822 91.436 24.226C91.424 24.238 91.43 24.25 91.454 24.262C91.478 24.262 91.496 24.256 91.508 24.244C92.048 23.608 92.36 22.726 92.444 21.598C92.468 21.31 92.582 21.07 92.786 20.878C92.99 20.674 93.23 20.572 93.506 20.572H93.632C93.92 20.572 94.16 20.674 94.352 20.878C94.556 21.082 94.652 21.322 94.64 21.598C94.544 23.602 94.004 25.102 93.02 26.098C92.816 26.302 92.576 26.386 92.3 26.35C92.024 26.326 91.79 26.2 91.598 25.972L91.112 25.432C91.04 25.36 90.986 25.366 90.95 25.45L90.734 25.882C90.614 26.11 90.416 26.242 90.14 26.278C89.864 26.314 89.63 26.242 89.438 26.062L88.988 25.648C88.88 25.552 88.784 25.42 88.7 25.252C88.676 25.204 88.646 25.21 88.61 25.27C88.49 25.87 88.322 26.254 88.106 26.422C87.89 26.59 87.566 26.674 87.134 26.674C87.014 26.674 86.69 26.662 86.162 26.638C85.874 26.626 85.634 26.512 85.442 26.296C85.25 26.092 85.148 25.846 85.136 25.558L85.118 25.234C85.106 25.006 85.196 24.814 85.388 24.658C85.58 24.49 85.814 24.376 86.09 24.316C86.174 24.304 86.234 24.202 86.27 24.01C86.306 23.818 86.342 23.368 86.378 22.66C86.378 22.552 86.33 22.498 86.234 22.498H85.424C85.328 22.498 85.268 22.546 85.244 22.642C85.148 23.098 85.076 23.434 85.028 23.65C84.968 23.926 84.818 24.148 84.578 24.316C84.338 24.484 84.074 24.55 83.786 24.514L83.3 24.442C83.036 24.406 82.82 24.28 82.652 24.064C82.496 23.836 82.448 23.584 82.508 23.308C82.784 22.048 83.012 20.818 83.192 19.618C83.216 19.522 83.18 19.474 83.084 19.474ZM95.216 15.226V15.568C95.216 15.616 95.234 15.658 95.27 15.694C95.306 15.718 95.342 15.724 95.378 15.712L96.17 15.604C96.278 15.58 96.374 15.61 96.458 15.694C96.554 15.766 96.602 15.856 96.602 15.964L96.62 15.982C96.776 15.694 96.914 15.43 97.034 15.19C97.046 15.166 97.04 15.142 97.016 15.118C97.004 15.082 96.98 15.064 96.944 15.064H95.378C95.27 15.064 95.216 15.118 95.216 15.226ZM95.216 17.692V17.872C95.216 18.016 95.252 18.1 95.324 18.124C95.396 18.148 95.648 18.16 96.08 18.16C96.608 18.16 96.926 18.106 97.034 17.998C97.154 17.89 97.22 17.542 97.232 16.954C97.232 16.858 97.196 16.774 97.124 16.702L96.71 16.36C96.698 16.348 96.674 16.348 96.638 16.36C96.614 16.36 96.602 16.372 96.602 16.396C96.602 16.672 96.512 16.918 96.332 17.134C96.152 17.338 95.93 17.458 95.666 17.494L95.378 17.53C95.27 17.554 95.216 17.608 95.216 17.692ZM92.102 15.226V15.982C92.102 16.09 92.156 16.132 92.264 16.108L92.678 16.054C92.774 16.03 92.822 15.976 92.822 15.892V15.226C92.822 15.118 92.774 15.064 92.678 15.064H92.264C92.156 15.064 92.102 15.118 92.102 15.226Z" fill="#9587E1"/>
<path d="M26.492 91.942C26.912 92.242 27.386 92.614 27.914 93.058C28.13 93.238 28.25 93.472 28.274 93.76C28.298 94.036 28.22 94.288 28.04 94.516L27.752 94.876C27.572 95.092 27.344 95.212 27.068 95.236C26.792 95.248 26.546 95.164 26.33 94.984C25.826 94.564 25.352 94.186 24.908 93.85C24.692 93.682 24.566 93.46 24.53 93.184C24.494 92.908 24.566 92.662 24.746 92.446L24.998 92.14C25.19 91.912 25.424 91.78 25.7 91.744C25.988 91.708 26.252 91.774 26.492 91.942ZM24.152 97.792C23.936 97.624 23.81 97.408 23.774 97.144C23.738 96.868 23.81 96.622 23.99 96.406L24.26 96.1C24.44 95.884 24.668 95.758 24.944 95.722C25.232 95.674 25.49 95.734 25.718 95.902C26.378 96.394 26.978 96.874 27.518 97.342C27.734 97.534 27.854 97.768 27.878 98.044C27.902 98.32 27.824 98.572 27.644 98.8L27.356 99.16C27.188 99.376 26.96 99.496 26.672 99.52C26.396 99.544 26.156 99.466 25.952 99.286C25.304 98.722 24.704 98.224 24.152 97.792ZM27.662 101.086C27.938 101.182 28.142 101.362 28.274 101.626C28.406 101.878 28.43 102.142 28.346 102.418C27.866 103.966 27.26 105.424 26.528 106.792C26.396 107.044 26.186 107.2 25.898 107.26C25.622 107.332 25.37 107.29 25.142 107.134L24.62 106.81C24.38 106.654 24.224 106.438 24.152 106.162C24.092 105.898 24.128 105.64 24.26 105.388C24.872 104.248 25.436 102.964 25.952 101.536C26.048 101.272 26.222 101.08 26.474 100.96C26.726 100.84 26.984 100.828 27.248 100.924L27.662 101.086ZM29.66 98.512C29.384 98.512 29.144 98.41 28.94 98.206C28.736 98.002 28.634 97.762 28.634 97.486V97.198C28.634 96.922 28.736 96.682 28.94 96.478C29.144 96.274 29.384 96.172 29.66 96.172H32.846C32.942 96.172 32.99 96.124 32.99 96.028V94.966C32.99 94.87 32.942 94.822 32.846 94.822C32.306 94.858 31.49 94.888 30.398 94.912C30.11 94.924 29.864 94.834 29.66 94.642C29.456 94.438 29.342 94.192 29.318 93.904L29.3 93.598C29.288 93.334 29.372 93.1 29.552 92.896C29.732 92.692 29.96 92.584 30.236 92.572C33.344 92.5 36.044 92.17 38.336 91.582C38.612 91.51 38.87 91.54 39.11 91.672C39.362 91.804 39.53 92.002 39.614 92.266L39.722 92.662C39.806 92.938 39.776 93.202 39.632 93.454C39.5 93.694 39.296 93.85 39.02 93.922C38.132 94.15 37.154 94.342 36.086 94.498C35.99 94.522 35.942 94.576 35.942 94.66V96.028C35.942 96.124 35.99 96.172 36.086 96.172H39.398C39.674 96.172 39.914 96.274 40.118 96.478C40.322 96.682 40.424 96.922 40.424 97.198V97.486C40.424 97.762 40.322 98.002 40.118 98.206C39.914 98.41 39.674 98.512 39.398 98.512H36.086C35.99 98.512 35.942 98.566 35.942 98.674V99.988C35.942 100.084 35.99 100.132 36.086 100.132H38.624C38.9 100.132 39.14 100.234 39.344 100.438C39.548 100.642 39.65 100.882 39.65 101.158V106.612C39.65 106.888 39.548 107.128 39.344 107.332C39.14 107.536 38.9 107.638 38.624 107.638H37.526C37.334 107.638 37.172 107.572 37.04 107.44C36.92 107.308 36.86 107.146 36.86 106.954C36.86 106.894 36.824 106.864 36.752 106.864H32.108C32.036 106.864 32 106.894 32 106.954C32 107.146 31.934 107.308 31.802 107.44C31.682 107.572 31.526 107.638 31.334 107.638H30.308C30.032 107.638 29.792 107.536 29.588 107.332C29.396 107.128 29.3 106.888 29.3 106.612V101.158C29.3 100.882 29.396 100.642 29.588 100.438C29.792 100.234 30.032 100.132 30.308 100.132H32.846C32.942 100.132 32.99 100.084 32.99 99.988V98.674C32.99 98.566 32.942 98.512 32.846 98.512H29.66ZM36.698 102.238H32.162C32.054 102.238 32 102.286 32 102.382V104.596C32 104.704 32.054 104.758 32.162 104.758H36.698C36.806 104.758 36.86 104.704 36.86 104.596V102.382C36.86 102.286 36.806 102.238 36.698 102.238ZM43.322 106.594L43.304 106.486C43.292 106.21 43.376 105.97 43.556 105.766C43.748 105.562 43.982 105.454 44.258 105.442C44.93 105.406 45.716 105.37 46.616 105.334C46.724 105.334 46.778 105.28 46.778 105.172V104.848C46.778 104.752 46.724 104.704 46.616 104.704H44.474C44.21 104.704 43.982 104.614 43.79 104.434C43.61 104.242 43.52 104.014 43.52 103.75C43.52 103.486 43.61 103.264 43.79 103.084C43.982 102.904 44.21 102.814 44.474 102.814H46.616C46.724 102.814 46.778 102.76 46.778 102.652V102.418C46.778 102.322 46.724 102.274 46.616 102.274H45.95H44.816C44.54 102.274 44.3 102.172 44.096 101.968C43.892 101.764 43.79 101.524 43.79 101.248V97.864C43.79 97.588 43.892 97.348 44.096 97.144C44.3 96.94 44.54 96.838 44.816 96.838H46.616C46.724 96.838 46.778 96.784 46.778 96.676V96.442C46.778 96.346 46.724 96.298 46.616 96.298H44.366C44.102 96.298 43.874 96.208 43.682 96.028C43.502 95.836 43.412 95.608 43.412 95.344C43.412 95.08 43.502 94.858 43.682 94.678C43.874 94.498 44.102 94.408 44.366 94.408H46.616C46.712 94.408 46.76 94.354 46.76 94.246V93.958C46.76 93.862 46.712 93.814 46.616 93.814C46.472 93.826 46.274 93.844 46.022 93.868C45.77 93.88 45.542 93.892 45.338 93.904C45.134 93.916 44.942 93.922 44.762 93.922C44.486 93.934 44.24 93.85 44.024 93.67C43.82 93.478 43.712 93.25 43.7 92.986C43.676 92.722 43.754 92.488 43.934 92.284C44.114 92.08 44.336 91.972 44.6 91.96C46.616 91.852 48.812 91.66 51.188 91.384C51.464 91.348 51.71 91.42 51.926 91.6C52.154 91.768 52.286 91.99 52.322 92.266C52.358 92.542 52.286 92.794 52.106 93.022C51.938 93.25 51.716 93.376 51.44 93.4C51.308 93.412 51.032 93.442 50.612 93.49C50.204 93.526 49.886 93.556 49.658 93.58C49.562 93.58 49.514 93.634 49.514 93.742V94.246C49.514 94.354 49.568 94.408 49.676 94.408H51.458C51.866 94.408 52.148 94.588 52.304 94.948C52.352 95.02 52.406 95.038 52.466 95.002C52.646 94.882 52.838 94.822 53.042 94.822H53.546C53.654 94.822 53.708 94.774 53.708 94.678C53.732 93.67 53.744 92.86 53.744 92.248C53.744 91.972 53.846 91.732 54.05 91.528C54.254 91.324 54.494 91.222 54.77 91.222H55.13C55.406 91.222 55.646 91.324 55.85 91.528C56.054 91.732 56.156 91.972 56.156 92.248C56.156 92.356 56.138 93.166 56.102 94.678C56.102 94.774 56.156 94.822 56.264 94.822H58.874C59.15 94.822 59.39 94.924 59.594 95.128C59.798 95.332 59.9 95.572 59.9 95.848V96.532C59.9 98.38 59.888 99.868 59.864 100.996C59.852 102.112 59.804 103.114 59.72 104.002C59.636 104.878 59.552 105.52 59.468 105.928C59.384 106.324 59.228 106.648 59 106.9C58.772 107.164 58.55 107.314 58.334 107.35C58.118 107.398 57.794 107.422 57.362 107.422C57.062 107.422 56.564 107.392 55.868 107.332C55.58 107.308 55.34 107.188 55.148 106.972C54.956 106.756 54.854 106.504 54.842 106.216V105.766C54.83 105.502 54.92 105.28 55.112 105.1C55.316 104.92 55.55 104.842 55.814 104.866C56.102 104.902 56.318 104.92 56.462 104.92C56.642 104.92 56.774 104.806 56.858 104.578C56.954 104.338 57.032 103.75 57.092 102.814C57.152 101.866 57.182 100.444 57.182 98.548V97.324C57.182 97.216 57.128 97.162 57.02 97.162H56.156C56.048 97.162 55.994 97.216 55.994 97.324C55.85 99.604 55.598 101.488 55.238 102.976C54.89 104.452 54.392 105.76 53.744 106.9C53.612 107.14 53.408 107.284 53.132 107.332C52.868 107.392 52.622 107.338 52.394 107.17L52.142 106.99C52.07 106.942 51.986 106.936 51.89 106.972C51.818 107.008 51.704 107.038 51.548 107.062C48.86 107.302 46.484 107.47 44.42 107.566C44.132 107.578 43.88 107.488 43.664 107.296C43.448 107.116 43.334 106.882 43.322 106.594ZM49.514 96.442V96.676C49.514 96.784 49.568 96.838 49.676 96.838H51.314C51.59 96.838 51.824 96.94 52.016 97.144C52.22 97.348 52.322 97.588 52.322 97.864V101.248C52.322 101.524 52.22 101.764 52.016 101.968C51.824 102.172 51.59 102.274 51.314 102.274H49.676C49.568 102.274 49.514 102.322 49.514 102.418V102.652C49.514 102.76 49.568 102.814 49.676 102.814H51.206C51.47 102.814 51.692 102.904 51.872 103.084C52.052 103.264 52.142 103.486 52.142 103.75C52.142 104.014 52.052 104.242 51.872 104.434C51.692 104.614 51.47 104.704 51.206 104.704H49.676C49.568 104.704 49.514 104.752 49.514 104.848V105.028C49.514 105.124 49.568 105.172 49.676 105.172C50.468 105.124 51.044 105.088 51.404 105.064C51.56 105.064 51.674 105.076 51.746 105.1C51.854 105.124 51.926 105.1 51.962 105.028C52.85 103.264 53.396 100.702 53.6 97.342C53.6 97.222 53.552 97.162 53.456 97.162H53.042C52.778 97.162 52.55 97.078 52.358 96.91C52.166 96.73 52.058 96.508 52.034 96.244C52.034 96.208 52.016 96.184 51.98 96.172C51.956 96.148 51.932 96.148 51.908 96.172C51.764 96.256 51.614 96.298 51.458 96.298H49.676C49.568 96.298 49.514 96.346 49.514 96.442ZM49.388 98.458V98.854C49.388 98.962 49.442 99.016 49.55 99.016H50.162C50.27 99.016 50.324 98.962 50.324 98.854V98.458C50.324 98.35 50.27 98.296 50.162 98.296H49.55C49.442 98.296 49.388 98.35 49.388 98.458ZM49.388 100.24V100.636C49.388 100.744 49.442 100.798 49.55 100.798H50.162C50.27 100.798 50.324 100.744 50.324 100.636V100.24C50.324 100.144 50.27 100.096 50.162 100.096H49.55C49.442 100.096 49.388 100.144 49.388 100.24ZM45.95 98.458V98.854C45.95 98.962 46.004 99.016 46.112 99.016H46.742C46.838 99.016 46.886 98.962 46.886 98.854V98.458C46.886 98.35 46.838 98.296 46.742 98.296H46.112C46.004 98.296 45.95 98.35 45.95 98.458ZM46.742 100.798C46.838 100.798 46.886 100.744 46.886 100.636V100.24C46.886 100.144 46.838 100.096 46.742 100.096H46.112C46.004 100.096 45.95 100.144 45.95 100.24V100.636C45.95 100.744 46.004 100.798 46.112 100.798H46.742ZM71.636 94.498C71.36 94.498 71.12 94.396 70.916 94.192C70.712 93.988 70.61 93.748 70.61 93.472V93.022C70.61 92.746 70.712 92.506 70.916 92.302C71.12 92.098 71.36 91.996 71.636 91.996H78.89C79.166 91.996 79.406 92.098 79.61 92.302C79.814 92.506 79.916 92.746 79.916 93.022V93.472C79.916 93.748 79.814 93.988 79.61 94.192C79.406 94.396 79.166 94.498 78.89 94.498H78.476C78.368 94.498 78.314 94.546 78.314 94.642V104.236C78.314 104.788 78.302 105.22 78.278 105.532C78.266 105.844 78.218 106.138 78.134 106.414C78.05 106.69 77.948 106.888 77.828 107.008C77.72 107.128 77.534 107.23 77.27 107.314C77.018 107.398 76.748 107.446 76.46 107.458C76.172 107.482 75.77 107.494 75.254 107.494C74.522 107.494 73.73 107.464 72.878 107.404C72.59 107.392 72.344 107.278 72.14 107.062C71.948 106.846 71.84 106.594 71.816 106.306L71.78 105.856C71.768 105.592 71.852 105.364 72.032 105.172C72.224 104.98 72.458 104.896 72.734 104.92C73.502 104.98 74.168 105.01 74.732 105.01C75.08 105.01 75.284 104.98 75.344 104.92C75.416 104.848 75.452 104.632 75.452 104.272V94.642C75.452 94.546 75.404 94.498 75.308 94.498H71.636ZM68.576 91.78C68.852 91.78 69.092 91.882 69.296 92.086C69.5 92.29 69.602 92.53 69.602 92.806C69.602 93.094 69.5 93.34 69.296 93.544C69.104 93.736 68.864 93.832 68.576 93.832H64.382C64.094 93.832 63.854 93.736 63.662 93.544C63.47 93.34 63.374 93.094 63.374 92.806C63.374 92.53 63.47 92.29 63.662 92.086C63.866 91.882 64.106 91.78 64.382 91.78H68.576ZM63.914 96.622C63.638 96.622 63.398 96.52 63.194 96.316C63.002 96.112 62.906 95.872 62.906 95.596V95.398C62.906 95.122 63.002 94.882 63.194 94.678C63.398 94.474 63.638 94.372 63.914 94.372H69.08C69.356 94.372 69.596 94.474 69.8 94.678C70.004 94.882 70.106 95.122 70.106 95.398V95.596C70.106 95.872 70.004 96.112 69.8 96.316C69.596 96.52 69.356 96.622 69.08 96.622H63.914ZM64.526 99.16C64.25 99.16 64.016 99.064 63.824 98.872C63.632 98.68 63.536 98.446 63.536 98.17C63.536 97.894 63.632 97.66 63.824 97.468C64.016 97.276 64.25 97.18 64.526 97.18H68.666C68.942 97.18 69.176 97.276 69.368 97.468C69.56 97.66 69.656 97.894 69.656 98.17C69.656 98.446 69.56 98.68 69.368 98.872C69.176 99.064 68.942 99.16 68.666 99.16H64.526ZM64.526 101.698C64.25 101.698 64.016 101.602 63.824 101.41C63.632 101.206 63.536 100.972 63.536 100.708C63.536 100.444 63.632 100.216 63.824 100.024C64.016 99.82 64.25 99.718 64.526 99.718H68.666C68.942 99.718 69.176 99.82 69.368 100.024C69.56 100.216 69.656 100.444 69.656 100.708C69.656 100.972 69.56 101.206 69.368 101.41C69.176 101.602 68.942 101.698 68.666 101.698H64.526ZM69.746 103.264V106.216C69.746 106.492 69.644 106.726 69.44 106.918C69.236 107.122 68.996 107.224 68.72 107.224H65.84C65.792 107.224 65.768 107.254 65.768 107.314C65.768 107.458 65.714 107.578 65.606 107.674C65.51 107.782 65.39 107.836 65.246 107.836H64.382C64.106 107.836 63.866 107.734 63.662 107.53C63.47 107.326 63.374 107.086 63.374 106.81V103.264C63.374 102.988 63.47 102.754 63.662 102.562C63.866 102.358 64.106 102.256 64.382 102.256H68.72C68.996 102.256 69.236 102.358 69.44 102.562C69.644 102.754 69.746 102.988 69.746 103.264ZM67.604 105.154V104.326C67.604 104.218 67.556 104.164 67.46 104.164H65.912C65.816 104.164 65.768 104.218 65.768 104.326V105.154C65.768 105.262 65.816 105.316 65.912 105.316H67.46C67.556 105.316 67.604 105.262 67.604 105.154ZM84.362 91.546H89.42C89.696 91.546 89.936 91.648 90.14 91.852C90.344 92.044 90.446 92.278 90.446 92.554V95.02C90.446 95.296 90.344 95.536 90.14 95.74C89.936 95.944 89.696 96.046 89.42 96.046H86.036H84.362C84.086 96.046 83.846 95.944 83.642 95.74C83.438 95.536 83.336 95.296 83.336 95.02V92.554C83.336 92.278 83.438 92.044 83.642 91.852C83.846 91.648 84.086 91.546 84.362 91.546ZM87.908 94.156V93.634C87.908 93.526 87.854 93.472 87.746 93.472H86.18C86.084 93.472 86.036 93.526 86.036 93.634V94.156C86.036 94.264 86.084 94.318 86.18 94.318H87.746C87.854 94.318 87.908 94.264 87.908 94.156ZM97.358 91.546C97.634 91.546 97.874 91.648 98.078 91.852C98.282 92.044 98.384 92.278 98.384 92.554V95.02C98.384 95.296 98.282 95.536 98.078 95.74C97.874 95.944 97.634 96.046 97.358 96.046H93.812H92.3C92.024 96.046 91.784 95.944 91.58 95.74C91.376 95.536 91.274 95.296 91.274 95.02V92.554C91.274 92.278 91.376 92.044 91.58 91.852C91.784 91.648 92.024 91.546 92.3 91.546H97.358ZM95.684 94.156V93.634C95.684 93.526 95.636 93.472 95.54 93.472H93.974C93.866 93.472 93.812 93.526 93.812 93.634V94.156C93.812 94.264 93.866 94.318 93.974 94.318H95.54C95.636 94.318 95.684 94.264 95.684 94.156ZM83.336 106.342C83.06 106.342 82.82 106.24 82.616 106.036C82.412 105.832 82.31 105.592 82.31 105.316V105.1C82.31 104.824 82.412 104.584 82.616 104.38C82.82 104.176 83.06 104.074 83.336 104.074H89.24C89.336 104.074 89.384 104.026 89.384 103.93V103.696C89.384 103.588 89.336 103.534 89.24 103.534H86.504H84.74C84.464 103.534 84.224 103.438 84.02 103.246C83.816 103.042 83.714 102.802 83.714 102.526V97.54C83.714 97.264 83.816 97.024 84.02 96.82C84.224 96.616 84.464 96.514 84.74 96.514H96.98C97.256 96.514 97.496 96.616 97.7 96.82C97.904 97.024 98.006 97.264 98.006 97.54V102.526C98.006 102.802 97.904 103.042 97.7 103.246C97.496 103.438 97.256 103.534 96.98 103.534H95.216H92.48C92.384 103.534 92.336 103.588 92.336 103.696V103.93C92.336 104.026 92.384 104.074 92.48 104.074H98.384C98.66 104.074 98.9 104.176 99.104 104.38C99.308 104.584 99.41 104.824 99.41 105.1V105.316C99.41 105.592 99.308 105.832 99.104 106.036C98.9 106.24 98.66 106.342 98.384 106.342H92.48C92.384 106.342 92.336 106.396 92.336 106.504V106.9C92.336 107.176 92.234 107.416 92.03 107.62C91.826 107.824 91.586 107.926 91.31 107.926H90.41C90.134 107.926 89.894 107.824 89.69 107.62C89.486 107.416 89.384 107.176 89.384 106.9V106.504C89.384 106.396 89.336 106.342 89.24 106.342H83.336ZM92.336 98.62V99.034C92.336 99.142 92.384 99.196 92.48 99.196H95.054C95.162 99.196 95.216 99.142 95.216 99.034V98.62C95.216 98.524 95.162 98.476 95.054 98.476H92.48C92.384 98.476 92.336 98.524 92.336 98.62ZM92.336 101.014V101.428C92.336 101.536 92.384 101.59 92.48 101.59H95.054C95.162 101.59 95.216 101.536 95.216 101.428V101.014C95.216 100.906 95.162 100.852 95.054 100.852H92.48C92.384 100.852 92.336 100.906 92.336 101.014ZM86.504 98.62V99.034C86.504 99.142 86.558 99.196 86.666 99.196H89.24C89.336 99.196 89.384 99.142 89.384 99.034V98.62C89.384 98.524 89.336 98.476 89.24 98.476H86.666C86.558 98.476 86.504 98.524 86.504 98.62ZM89.24 101.59C89.336 101.59 89.384 101.536 89.384 101.428V101.014C89.384 100.906 89.336 100.852 89.24 100.852H86.666C86.558 100.852 86.504 100.906 86.504 101.014V101.428C86.504 101.536 86.558 101.59 86.666 101.59H89.24Z" fill="#9587E1"/>
<path d="M39.344 172.176C39.62 172.176 39.86 172.278 40.064 172.482C40.268 172.674 40.37 172.908 40.37 173.184V173.454C40.37 173.706 40.28 173.916 40.1 174.084C39.932 174.252 39.722 174.336 39.47 174.336C39.386 174.336 39.32 174.384 39.272 174.48C38.888 175.368 38.408 176.118 37.832 176.73C37.76 176.802 37.778 176.85 37.886 176.874C38.45 177.066 38.996 177.222 39.524 177.342C39.788 177.402 39.986 177.558 40.118 177.81C40.262 178.05 40.292 178.296 40.208 178.548L40.046 178.998C39.95 179.274 39.776 179.484 39.524 179.628C39.272 179.772 39.008 179.808 38.732 179.736C38.384 179.64 38.06 179.55 37.76 179.466C37.748 179.454 37.724 179.46 37.688 179.484C37.664 179.508 37.658 179.532 37.67 179.556C37.742 179.784 37.73 180.006 37.634 180.222C37.538 180.438 37.388 180.594 37.184 180.69C35.804 181.362 34.262 181.872 32.558 182.22C32.27 182.28 31.994 182.232 31.73 182.076C31.478 181.92 31.304 181.704 31.208 181.428L31.172 181.32C31.088 181.068 31.112 180.828 31.244 180.6C31.388 180.372 31.592 180.228 31.856 180.168C33.464 179.844 34.838 179.43 35.978 178.926C36.002 178.914 36.014 178.896 36.014 178.872C36.014 178.836 36.002 178.812 35.978 178.8C35.918 178.776 35.828 178.734 35.708 178.674C35.588 178.614 35.498 178.572 35.438 178.548C35.318 178.5 35.228 178.488 35.168 178.512C34.34 178.872 33.314 179.208 32.09 179.52C31.802 179.592 31.526 179.562 31.262 179.43C30.998 179.298 30.806 179.094 30.686 178.818L30.542 178.476C30.446 178.236 30.458 178.002 30.578 177.774C30.71 177.534 30.908 177.384 31.172 177.324C31.88 177.156 32.492 176.988 33.008 176.82C33.044 176.808 33.062 176.784 33.062 176.748C33.074 176.7 33.068 176.664 33.044 176.64C32.744 176.292 32.504 175.986 32.324 175.722C32.312 175.698 32.288 175.686 32.252 175.686C32.216 175.686 32.186 175.698 32.162 175.722C32.078 175.83 31.94 175.992 31.748 176.208C31.58 176.4 31.37 176.496 31.118 176.496C30.878 176.496 30.668 176.406 30.488 176.226C30.476 176.202 30.458 176.196 30.434 176.208C30.41 176.22 30.398 176.238 30.398 176.262V184.794C30.398 185.07 30.296 185.31 30.092 185.514C29.888 185.718 29.648 185.82 29.372 185.82H29.03C28.754 185.82 28.514 185.718 28.31 185.514C28.106 185.31 28.004 185.07 28.004 184.794V174.354C27.992 174.366 27.98 174.372 27.968 174.372C27.836 174.984 27.62 175.746 27.32 176.658C27.284 176.742 27.266 176.844 27.266 176.964V186.72C27.266 186.996 27.164 187.236 26.96 187.44C26.768 187.644 26.534 187.746 26.258 187.746H25.772C25.496 187.746 25.256 187.644 25.052 187.44C24.848 187.236 24.746 186.996 24.746 186.72V180.708C24.746 180.684 24.734 180.672 24.71 180.672C24.698 180.672 24.686 180.678 24.674 180.69C24.554 180.894 24.488 181.008 24.476 181.032C24.416 181.14 24.326 181.206 24.206 181.23C24.098 181.242 23.99 181.218 23.882 181.158C23.786 181.086 23.732 180.99 23.72 180.87L23.504 179.556C23.396 178.944 23.522 178.32 23.882 177.684C24.734 176.184 25.376 174.366 25.808 172.23C25.868 171.954 26.006 171.732 26.222 171.564C26.45 171.384 26.708 171.312 26.996 171.348L27.464 171.402C27.74 171.438 27.962 171.564 28.13 171.78C28.31 171.996 28.376 172.242 28.328 172.518C28.316 172.566 28.226 173.04 28.058 173.94C28.034 174.036 28.076 174.084 28.184 174.084H29.372C29.552 174.084 29.744 174.15 29.948 174.282C30.008 174.33 30.074 174.318 30.146 174.246L30.182 174.21C30.746 173.562 31.238 172.788 31.658 171.888C31.79 171.612 31.982 171.402 32.234 171.258C32.498 171.102 32.78 171.036 33.08 171.06L33.656 171.114C33.884 171.138 34.064 171.246 34.196 171.438C34.328 171.63 34.352 171.834 34.268 172.05C34.244 172.134 34.268 172.176 34.34 172.176H39.344ZM36.572 174.48C36.596 174.456 36.596 174.426 36.572 174.39C36.56 174.354 36.536 174.336 36.5 174.336H34.34C34.304 174.336 34.274 174.354 34.25 174.39C34.238 174.426 34.244 174.456 34.268 174.48C34.58 174.912 34.928 175.278 35.312 175.578C35.396 175.638 35.48 175.638 35.564 175.578C35.96 175.266 36.296 174.9 36.572 174.48ZM32.396 185.1C32.108 185.148 31.844 185.094 31.604 184.938C31.364 184.782 31.202 184.566 31.118 184.29L31.064 184.074C30.992 183.81 31.028 183.564 31.172 183.336C31.316 183.108 31.52 182.97 31.784 182.922C34.196 182.502 36.248 181.83 37.94 180.906C38.168 180.774 38.402 180.756 38.642 180.852C38.894 180.936 39.062 181.104 39.146 181.356L39.218 181.59C39.314 181.878 39.308 182.166 39.2 182.454C39.092 182.73 38.906 182.934 38.642 183.066C36.866 183.978 34.784 184.656 32.396 185.1ZM39.2 183.372C39.428 183.24 39.662 183.222 39.902 183.318C40.142 183.414 40.298 183.588 40.37 183.84L40.406 184.002C40.49 184.302 40.478 184.596 40.37 184.884C40.262 185.16 40.076 185.376 39.812 185.532C37.736 186.732 35.132 187.548 32 187.98C31.7 188.016 31.424 187.95 31.172 187.782C30.932 187.614 30.77 187.392 30.686 187.116L30.632 186.936C30.56 186.684 30.596 186.444 30.74 186.216C30.884 185.988 31.088 185.856 31.352 185.82C34.424 185.364 37.04 184.548 39.2 183.372ZM44.366 174.246C44.09 174.246 43.85 174.144 43.646 173.94C43.442 173.736 43.34 173.496 43.34 173.22V172.914C43.34 172.638 43.442 172.404 43.646 172.212C43.85 172.008 44.09 171.906 44.366 171.906H49.496C49.772 171.906 50.006 172.008 50.198 172.212C50.402 172.404 50.504 172.638 50.504 172.914V176.28C50.504 176.304 50.51 176.316 50.522 176.316C50.546 176.316 50.564 176.304 50.576 176.28C51.176 174.996 51.692 173.55 52.124 171.942C52.208 171.666 52.364 171.444 52.592 171.276C52.832 171.108 53.096 171.042 53.384 171.078L54.068 171.168C54.344 171.204 54.56 171.336 54.716 171.564C54.872 171.78 54.92 172.026 54.86 172.302C54.824 172.458 54.74 172.776 54.608 173.256C54.584 173.34 54.62 173.382 54.716 173.382H59.18C59.456 173.382 59.696 173.484 59.9 173.688C60.104 173.892 60.206 174.132 60.206 174.408V175.074C60.206 175.278 60.134 175.452 59.99 175.596C59.858 175.728 59.69 175.794 59.486 175.794C59.414 175.794 59.378 175.836 59.378 175.92C59.222 179.244 58.55 181.758 57.362 183.462C57.29 183.558 57.296 183.636 57.38 183.696C57.884 184.152 58.544 184.608 59.36 185.064C59.6 185.196 59.756 185.394 59.828 185.658C59.912 185.922 59.882 186.174 59.738 186.414L59.45 186.9C59.294 187.152 59.078 187.32 58.802 187.404C58.526 187.488 58.262 187.458 58.01 187.314C57.002 186.762 56.168 186.174 55.508 185.55C55.424 185.49 55.346 185.484 55.274 185.532C54.218 186.264 52.88 186.912 51.26 187.476C50.984 187.572 50.708 187.56 50.432 187.44C50.156 187.32 49.952 187.128 49.82 186.864L49.64 186.504C49.592 186.408 49.52 186.372 49.424 186.396C49.148 186.444 48.908 186.474 48.704 186.486C47.96 186.534 47.336 186.558 46.832 186.558C46.184 186.558 45.644 186.534 45.212 186.486C44.66 186.438 44.276 186.348 44.06 186.216C43.856 186.096 43.712 185.862 43.628 185.514C43.544 185.166 43.502 184.56 43.502 183.696V178.386C43.502 178.11 43.604 177.87 43.808 177.666C44.012 177.462 44.252 177.36 44.528 177.36H47.696C47.804 177.36 47.858 177.312 47.858 177.216V174.39C47.858 174.294 47.804 174.246 47.696 174.246H44.366ZM53.078 177.378C53.054 177.402 53.048 177.432 53.06 177.468C53.084 177.504 53.114 177.516 53.15 177.504L53.42 177.45C53.696 177.402 53.948 177.462 54.176 177.63C54.404 177.786 54.548 178.002 54.608 178.278C54.848 179.406 55.148 180.36 55.508 181.14C55.544 181.236 55.586 181.248 55.634 181.176C56.21 179.964 56.552 178.23 56.66 175.974C56.66 175.854 56.612 175.794 56.516 175.794H53.906C53.798 175.794 53.726 175.842 53.69 175.938C53.426 176.586 53.222 177.066 53.078 177.378ZM51.764 179.844C51.62 180.084 51.416 180.228 51.152 180.276C50.888 180.312 50.648 180.246 50.432 180.078L49.928 179.664C49.856 179.604 49.766 179.586 49.658 179.61C49.622 179.622 49.568 179.628 49.496 179.628H46.382C46.286 179.628 46.238 179.676 46.238 179.772V183.534C46.238 183.834 46.256 184.014 46.292 184.074C46.328 184.122 46.454 184.158 46.67 184.182C46.934 184.206 47.114 184.218 47.21 184.218C47.258 184.218 47.45 184.206 47.786 184.182C48.026 184.158 48.176 184.086 48.236 183.966C48.296 183.834 48.338 183.438 48.362 182.778C48.374 182.502 48.482 182.274 48.686 182.094C48.89 181.902 49.13 181.818 49.406 181.842L49.946 181.896C50.234 181.92 50.474 182.04 50.666 182.256C50.858 182.46 50.948 182.706 50.936 182.994C50.924 183.75 50.87 184.362 50.774 184.83C50.762 184.854 50.774 184.878 50.81 184.902C50.846 184.926 50.876 184.932 50.9 184.92C52.016 184.536 52.94 184.08 53.672 183.552C53.768 183.48 53.786 183.402 53.726 183.318C53.078 182.202 52.568 180.876 52.196 179.34C52.172 179.256 52.136 179.244 52.088 179.304L51.764 179.844ZM63.77 184.758C63.506 184.758 63.278 184.668 63.086 184.488C62.906 184.296 62.816 184.062 62.816 183.786V174.498C62.816 174.222 62.912 173.982 63.104 173.778C63.308 173.574 63.548 173.472 63.824 173.472H64.976C65.084 173.472 65.138 173.424 65.138 173.328V172.32C65.138 172.044 65.24 171.804 65.444 171.6C65.648 171.396 65.888 171.294 66.164 171.294H66.506C66.782 171.294 67.022 171.396 67.226 171.6C67.43 171.804 67.532 172.044 67.532 172.32V173.328C67.532 173.424 67.586 173.472 67.694 173.472H68.756C69.032 173.472 69.272 173.574 69.476 173.778C69.68 173.982 69.782 174.222 69.782 174.498V179.34C69.782 179.412 69.824 179.436 69.908 179.412C69.956 179.388 70.034 179.376 70.142 179.376C70.202 179.376 70.232 179.346 70.232 179.286V172.644C70.232 172.368 70.334 172.128 70.538 171.924C70.742 171.72 70.982 171.618 71.258 171.618H78.242C78.518 171.618 78.758 171.72 78.962 171.924C79.166 172.128 79.268 172.368 79.268 172.644V172.95C79.268 173.226 79.166 173.466 78.962 173.67C78.758 173.874 78.518 173.976 78.242 173.976H73.256C73.148 173.976 73.094 174.024 73.094 174.12V174.426C73.094 174.534 73.148 174.588 73.256 174.588H77.99C78.23 174.588 78.434 174.678 78.602 174.858C78.782 175.026 78.872 175.23 78.872 175.47C78.872 175.71 78.782 175.914 78.602 176.082C78.434 176.25 78.23 176.334 77.99 176.334H73.256C73.148 176.334 73.094 176.388 73.094 176.496V176.82C73.094 176.916 73.148 176.964 73.256 176.964H77.99C78.23 176.964 78.434 177.054 78.602 177.234C78.782 177.402 78.872 177.606 78.872 177.846C78.872 178.086 78.782 178.296 78.602 178.476C78.434 178.644 78.23 178.728 77.99 178.728H73.256C73.148 178.728 73.094 178.776 73.094 178.872V179.214C73.094 179.322 73.148 179.376 73.256 179.376H78.782C79.058 179.376 79.298 179.478 79.502 179.682C79.706 179.874 79.808 180.108 79.808 180.384V180.708C79.808 180.984 79.706 181.224 79.502 181.428C79.298 181.62 79.058 181.716 78.782 181.716H78.314C78.29 181.716 78.278 181.728 78.278 181.752C78.278 181.764 78.284 181.776 78.296 181.788L78.836 182.058C79.088 182.19 79.256 182.394 79.34 182.67C79.424 182.934 79.4 183.192 79.268 183.444C79.064 183.792 78.836 184.164 78.584 184.56C78.524 184.632 78.542 184.704 78.638 184.776C78.698 184.8 78.776 184.848 78.872 184.92C78.968 184.992 79.046 185.04 79.106 185.064C79.358 185.196 79.538 185.394 79.646 185.658C79.754 185.922 79.754 186.18 79.646 186.432L79.502 186.774C79.394 187.038 79.208 187.224 78.944 187.332C78.68 187.44 78.422 187.434 78.17 187.314C77.102 186.786 76.13 186.006 75.254 184.974C75.242 184.95 75.224 184.944 75.2 184.956C75.176 184.956 75.164 184.968 75.164 184.992L75.2 185.514C75.224 185.814 75.152 186.084 74.984 186.324C74.816 186.564 74.588 186.714 74.3 186.774C72.8 187.11 71.282 187.362 69.746 187.53C69.47 187.554 69.224 187.47 69.008 187.278C68.792 187.098 68.672 186.87 68.648 186.594L68.63 186.378C68.606 186.102 68.684 185.856 68.864 185.64C69.056 185.412 69.29 185.286 69.566 185.262C69.626 185.25 69.71 185.238 69.818 185.226C69.926 185.214 70.01 185.208 70.07 185.208C70.178 185.184 70.232 185.13 70.232 185.046V181.824C70.232 181.752 70.202 181.716 70.142 181.716C70.034 181.716 69.956 181.704 69.908 181.68C69.824 181.656 69.782 181.68 69.782 181.752V183.138C69.782 183.558 69.722 183.87 69.602 184.074C69.482 184.278 69.254 184.416 68.918 184.488C68.642 184.548 68.384 184.488 68.144 184.308C67.916 184.116 67.772 183.87 67.712 183.57L67.568 182.814C67.568 182.802 67.562 182.796 67.55 182.796C67.538 182.796 67.532 182.802 67.532 182.814V186.72C67.532 186.996 67.43 187.236 67.226 187.44C67.022 187.644 66.782 187.746 66.506 187.746H66.164C65.888 187.746 65.648 187.644 65.444 187.44C65.24 187.236 65.138 186.996 65.138 186.72V176.046C65.138 175.938 65.084 175.884 64.976 175.884H64.904C64.796 175.884 64.742 175.938 64.742 176.046V183.786C64.742 184.062 64.646 184.296 64.454 184.488C64.274 184.668 64.046 184.758 63.77 184.758ZM75.956 181.716C75.86 181.716 75.836 181.77 75.884 181.878C76.124 182.334 76.424 182.772 76.784 183.192C76.856 183.264 76.916 183.258 76.964 183.174C77.144 182.898 77.39 182.46 77.702 181.86C77.726 181.836 77.726 181.806 77.702 181.77C77.69 181.734 77.666 181.716 77.63 181.716H75.956ZM73.094 181.842V184.614C73.094 184.722 73.148 184.764 73.256 184.74C73.88 184.62 74.348 184.524 74.66 184.452C74.756 184.428 74.774 184.374 74.714 184.29C74.15 183.486 73.706 182.67 73.382 181.842C73.358 181.758 73.304 181.716 73.22 181.716C73.136 181.716 73.094 181.758 73.094 181.842ZM67.532 176.046V181.86C67.532 181.98 67.586 182.028 67.694 182.004C67.802 181.992 67.868 181.926 67.892 181.806C67.916 181.674 67.928 181.38 67.928 180.924V176.046C67.928 175.938 67.874 175.884 67.766 175.884H67.694C67.586 175.884 67.532 175.938 67.532 176.046ZM84.002 180.528C84.098 180.504 84.11 180.456 84.038 180.384L83.246 179.664C83.042 179.484 82.94 179.262 82.94 178.998C82.94 178.722 83.042 178.488 83.246 178.296C83.594 177.972 84.002 177.534 84.47 176.982C84.518 176.91 84.5 176.874 84.416 176.874H83.75C83.474 176.874 83.234 176.772 83.03 176.568C82.826 176.364 82.724 176.124 82.724 175.848V173.328C82.724 173.052 82.826 172.812 83.03 172.608C83.234 172.404 83.474 172.302 83.75 172.302H89.348C89.444 172.302 89.492 172.254 89.492 172.158V171.996C89.492 171.72 89.594 171.48 89.798 171.276C90.002 171.072 90.242 170.97 90.518 170.97H91.418C91.694 170.97 91.934 171.072 92.138 171.276C92.342 171.48 92.444 171.72 92.444 171.996V172.158C92.444 172.254 92.492 172.302 92.588 172.302H98.186C98.462 172.302 98.696 172.404 98.888 172.608C99.092 172.812 99.194 173.052 99.194 173.328V175.812C99.194 176.088 99.092 176.328 98.888 176.532C98.696 176.736 98.462 176.838 98.186 176.838H97.412C97.352 176.838 97.352 176.868 97.412 176.928L97.43 176.946C97.442 176.958 97.448 176.97 97.448 176.982C97.976 177.594 98.462 178.206 98.906 178.818C99.074 179.046 99.134 179.298 99.086 179.574C99.05 179.85 98.912 180.072 98.672 180.24L98.366 180.456C98.138 180.612 97.886 180.666 97.61 180.618C97.346 180.57 97.13 180.432 96.962 180.204C96.806 179.988 96.668 179.802 96.548 179.646C96.524 179.622 96.5 179.616 96.476 179.628C96.452 179.64 96.44 179.658 96.44 179.682C96.404 180.054 96.35 180.36 96.278 180.6C96.218 180.84 96.098 181.056 95.918 181.248C95.75 181.428 95.558 181.566 95.342 181.662C95.138 181.758 94.82 181.836 94.388 181.896C93.968 181.956 93.53 181.992 93.074 182.004C92.63 182.016 92.018 182.022 91.238 182.022C89.678 182.022 88.574 181.962 87.926 181.842C87.83 181.83 87.728 181.842 87.62 181.878C86.96 182.166 86.078 182.49 84.974 182.85C84.986 182.862 84.992 182.874 84.992 182.886H85.01H85.856C86.132 182.886 86.366 182.988 86.558 183.192C86.762 183.384 86.864 183.618 86.864 183.894V184.578C86.864 184.674 86.918 184.722 87.026 184.722H89.348C89.444 184.722 89.492 184.674 89.492 184.578V183.39C89.492 183.114 89.594 182.874 89.798 182.67C90.002 182.466 90.242 182.364 90.518 182.364H91.418C91.694 182.364 91.934 182.466 92.138 182.67C92.342 182.874 92.444 183.114 92.444 183.39V184.578C92.444 184.674 92.492 184.722 92.588 184.722H94.91C95.018 184.722 95.072 184.674 95.072 184.578V183.678C95.072 183.402 95.168 183.162 95.36 182.958C95.564 182.754 95.804 182.652 96.08 182.652H96.926C97.202 182.652 97.442 182.754 97.646 182.958C97.85 183.162 97.952 183.402 97.952 183.678V186.792C97.952 187.068 97.85 187.308 97.646 187.512C97.442 187.716 97.202 187.818 96.926 187.818H95.828C95.624 187.818 95.444 187.74 95.288 187.584C95.144 187.44 95.072 187.266 95.072 187.062C95.072 186.978 95.03 186.936 94.946 186.936H86.99C86.906 186.936 86.864 186.978 86.864 187.062C86.864 187.266 86.786 187.44 86.63 187.584C86.486 187.74 86.312 187.818 86.108 187.818H85.01C84.734 187.818 84.494 187.716 84.29 187.512C84.098 187.308 84.002 187.068 84.002 186.792V183.894C84.002 183.522 84.158 183.24 84.47 183.048C84.458 183.036 84.446 183.03 84.434 183.03C84.398 183.042 84.338 183.06 84.254 183.084C84.182 183.108 84.128 183.126 84.092 183.138C83.828 183.222 83.57 183.192 83.318 183.048C83.078 182.904 82.922 182.694 82.85 182.418L82.724 181.968C82.652 181.704 82.688 181.452 82.832 181.212C82.976 180.96 83.186 180.792 83.462 180.708C83.522 180.684 83.612 180.654 83.732 180.618C83.852 180.582 83.942 180.552 84.002 180.528ZM90.86 177.27C90.884 177.258 90.896 177.234 90.896 177.198C90.896 177.15 90.878 177.12 90.842 177.108C90.11 176.76 89.636 176.538 89.42 176.442C89.336 176.406 89.294 176.436 89.294 176.532V178.134C89.294 178.17 89.312 178.2 89.348 178.224C89.384 178.236 89.414 178.23 89.438 178.206C89.834 177.978 90.308 177.666 90.86 177.27ZM96.242 174.516H90.896C90.872 174.528 90.86 174.552 90.86 174.588C90.908 174.612 90.998 174.654 91.13 174.714C91.262 174.762 91.364 174.804 91.436 174.84C91.688 174.96 91.85 175.152 91.922 175.416C91.994 175.68 91.958 175.926 91.814 176.154L91.436 176.784C91.448 176.796 91.46 176.808 91.472 176.82C92.156 176.28 92.786 175.692 93.362 175.056C93.554 174.852 93.788 174.732 94.064 174.696C94.34 174.66 94.592 174.726 94.82 174.894L95.216 175.182C95.444 175.35 95.576 175.578 95.612 175.866C95.648 176.142 95.57 176.382 95.378 176.586C94.334 177.798 92.996 178.914 91.364 179.934C91.34 179.946 91.328 179.964 91.328 179.988C91.34 180.012 91.358 180.024 91.382 180.024C92.438 180.024 93.122 179.988 93.434 179.916C93.758 179.844 93.956 179.646 94.028 179.322C94.088 179.034 94.22 178.8 94.424 178.62C94.628 178.44 94.862 178.362 95.126 178.386L95.414 178.404C95.498 178.404 95.516 178.38 95.468 178.332C95.312 178.152 95.24 177.948 95.252 177.72C95.276 177.48 95.384 177.288 95.576 177.144L95.954 176.838C96.146 176.682 96.374 176.604 96.638 176.604C96.722 176.604 96.74 176.58 96.692 176.532C96.5 176.34 96.404 176.1 96.404 175.812V174.678C96.404 174.57 96.35 174.516 96.242 174.516ZM85.532 174.678V175.848V175.938C85.532 176.022 85.574 176.064 85.658 176.064C85.886 176.064 86.084 176.124 86.252 176.244L86.576 176.46C86.648 176.508 86.684 176.484 86.684 176.388V176.154C86.684 175.878 86.786 175.638 86.99 175.434C87.194 175.23 87.434 175.128 87.71 175.128H87.89C87.974 175.128 88.046 175.08 88.106 174.984L88.304 174.66C88.328 174.636 88.328 174.606 88.304 174.57C88.292 174.534 88.268 174.516 88.232 174.516H85.694C85.586 174.516 85.532 174.57 85.532 174.678ZM84.56 180.294C84.56 180.318 84.566 180.336 84.578 180.348C85.202 180.132 85.862 179.886 86.558 179.61C86.642 179.574 86.684 179.508 86.684 179.412V178.026C86.684 178.002 86.672 177.984 86.648 177.972C86.636 177.96 86.624 177.966 86.612 177.99C86.024 178.842 85.34 179.61 84.56 180.294Z" fill="#9587E1"/>
</svg>
