<svg width="258" height="269" viewBox="0 0 258 269" fill="none" xmlns="http://www.w3.org/2000/svg">
<path d="M7.54 221.16V222.96H13.58V221.16H7.54ZM7.6 215.64V217.46H13.52V215.64H7.6ZM7.54 223.88V225.7H13.58V223.88H7.54ZM6.58 218.34V220.24H14.24V218.34H6.58ZM8.58 226.66V228.56H11.56V230.84H8.58V232.74H13.6V226.66H8.58ZM7.5 226.66V233.54H9.52V226.66H7.5ZM14.72 216.1V217.82H24.92V216.1H14.72ZM15.22 218.54V220.16H24.6V218.54H15.22ZM14.24 220.94V222.66H25.3V220.94H14.24ZM18.6 215.02V222.4H20.88V215.02H18.6ZM15.6 223.42V233.78H17.82V225.12H23.28V223.42H15.6ZM21.96 223.42V231.54C21.96 231.76 21.9 231.84 21.64 231.84C21.38 231.84 20.54 231.86 19.8 231.82C20.06 232.34 20.36 233.16 20.42 233.74C21.72 233.74 22.66 233.72 23.34 233.42C24 233.1 24.2 232.58 24.2 231.56V223.42H21.96ZM16.58 226.02V227.58H23.12V226.02H16.58ZM16.58 228.52V230.08H23.12V228.52H16.58ZM39.28 225.06V230.48C39.28 232.74 39.8 233.5 42.06 233.5C42.5 233.5 43.92 233.5 44.38 233.5C46.26 233.5 46.9 232.64 47.14 229.44C46.48 229.28 45.44 228.88 44.94 228.5C44.86 230.86 44.76 231.22 44.16 231.22C43.82 231.22 42.7 231.22 42.42 231.22C41.8 231.22 41.7 231.14 41.7 230.48V225.06H39.28ZM29.08 223.28V225.6H46.94V223.28H29.08ZM32.38 217.72V220.02H45.36V217.72H32.38ZM33.9 225.1C33.6 227.94 33.04 230.42 28.76 231.8C29.32 232.28 30 233.26 30.28 233.9C35.1 232.08 36.04 228.88 36.42 225.1H33.9ZM32.36 215.3C31.92 217.36 30.98 220.06 29.66 221.7C30.26 221.92 31.24 222.42 31.8 222.78C33.14 221.02 34.16 218.14 34.8 215.78L32.36 215.3ZM36.8 215.02V224H39.24V215.02H36.8ZM51.1 217.8V220.1H68.94V217.8H51.1ZM57.62 224.28V226.5H68.1V224.28H57.62ZM56.84 231.08V233.3H68.86V231.08H56.84ZM61.7 220.96V232.26H64.12V220.96H61.7ZM57.4 215C56.36 219.04 54.08 223.52 50.46 225.88C50.82 226.46 51.38 227.52 51.62 228.2C55.9 225.28 58.42 220.42 59.9 215.6L57.4 215ZM53.4 223.38V233.76H55.82V223.38H53.4ZM81.16 216.36V218.12H91.08V216.36H81.16ZM80.98 227.72V229.48H91.36V227.72H80.98ZM85.02 215.02V225.82H87.06V215.02H85.02ZM83.38 222.16H88.74V222.94H83.38V222.16ZM83.38 220.14H88.74V220.92H83.38V220.14ZM81.5 218.84V224.24H90.72V218.84H81.5ZM80.96 225.2L81.1 226.9C83.46 226.84 86.78 226.78 89.98 226.66L90.02 225.04C86.68 225.12 83.26 225.18 80.96 225.2ZM86.88 226.92V231.66C86.88 231.88 86.8 231.94 86.52 231.96C86.26 231.98 85.26 231.98 84.4 231.94C84.66 232.48 84.96 233.26 85.04 233.86C86.42 233.86 87.4 233.86 88.16 233.56C88.9 233.26 89.08 232.74 89.08 231.72V226.92H86.88ZM81.92 230.04C82.62 230.76 83.32 231.8 83.62 232.5L85.34 231.42C85 230.72 84.26 229.78 83.52 229.1L81.92 230.04ZM87.84 224.5C88.62 225.38 89.46 226.6 89.8 227.4L91.48 226.56C91.08 225.76 90.24 224.62 89.44 223.78L87.84 224.5ZM72.84 216.94V219H80.76V216.94H72.84ZM72.54 228.54V230.62H81.02V228.54H72.54ZM75.78 215.04V220.86H77.92V215.04H75.78ZM76.06 220.9V226.46H75.78V233.8H77.92V226.46H77.64V220.9H76.06ZM74.92 224.48H78.84V225.68H74.92V224.48ZM74.92 221.74H78.84V222.9H74.92V221.74ZM73.22 220.08V227.34H80.58V220.08H73.22ZM98.14 218.64V220.98H112.06V218.64H98.14ZM97.32 224.54V226.84H111.3V224.54H97.32ZM95 230.88V233.22H113.08V230.88H95ZM102.78 215.02V232.04H105.28V215.02H102.78ZM98.16 215.26C97.44 218.02 96.16 220.78 94.58 222.46C95.2 222.8 96.26 223.5 96.74 223.92C98.3 222 99.76 218.92 100.64 215.82L98.16 215.26ZM117 216.2V218.42H127.52V216.2H117ZM116.64 222.74V224.96H127.76V222.74H116.64ZM123.48 216.8V233.78H125.84V216.8H123.48ZM118.94 216.78V223.5C118.94 226.66 118.68 229.88 116.38 232.32C116.94 232.66 117.78 233.46 118.16 233.96C120.86 231.12 121.18 227.26 121.18 223.52V216.78H118.94ZM132.44 215.3C131.32 216.92 129.12 218.56 127.26 219.48C127.88 219.94 128.58 220.64 128.96 221.18C131.04 219.98 133.2 218.2 134.72 216.22L132.44 215.3ZM132.86 220.82C131.68 222.54 129.42 224.26 127.54 225.26C128.14 225.72 128.84 226.44 129.22 226.94C131.28 225.68 133.52 223.78 135.04 221.72L132.86 220.82ZM133.2 226.14C131.82 228.6 129.2 230.64 126.5 231.82C127.12 232.32 127.82 233.16 128.18 233.76C131.14 232.24 133.78 229.94 135.48 227.02L133.2 226.14ZM144.14 225.62C148.18 227.82 148.52 230.74 147.38 231.48C147.04 231.76 146.62 231.8 146.14 231.8C145.64 231.8 144.94 231.78 144.24 231.7C144.66 232.34 144.88 233.22 144.92 233.86C145.48 233.88 146.06 233.9 146.54 233.9C147.52 233.88 148.1 233.74 148.86 233.24C151.12 231.84 150.9 227.16 145.72 224.46L144.14 225.62ZM146.36 225.82C144.8 226.96 141.74 227.98 139.16 228.44C139.56 228.84 140.14 229.58 140.42 230.06C143.04 229.44 146.16 228.1 147.96 226.62L146.36 225.82ZM147.66 227.64C145.74 229.26 142 230.8 138.8 231.5C139.24 231.94 139.86 232.74 140.16 233.24C143.34 232.34 147.12 230.56 149.34 228.52L147.66 227.64ZM144.22 216.26V218.06H150.1V216.26H144.22ZM147.62 222.74C145.72 224.08 142.2 225.12 139.1 225.64C139.46 226.04 140.04 226.92 140.3 227.32C143.44 226.58 147.16 225.3 149.4 223.6L147.62 222.74ZM150.32 223.14L148.3 223.6C149.56 228.2 151.8 231.56 155.8 233.22C156.12 232.58 156.82 231.66 157.34 231.2C153.62 229.92 151.36 226.94 150.32 223.14ZM154.96 224.18C153.86 225.1 151.98 226.28 150.6 226.96L152.12 228.2C153.54 227.58 155.38 226.56 156.9 225.58L154.96 224.18ZM143.34 220.86H152.82V222.38H143.34V220.86ZM141.08 219.12V224.12H155.18V219.12H141.08ZM144.24 214.92C143.22 216.56 141.36 218.4 138.78 219.78C139.3 220.12 140.04 220.92 140.4 221.46C143.2 219.74 145.2 217.68 146.74 215.44L144.24 214.92ZM146.76 220.04V223.46H149.12V220.04H146.76ZM149.14 216.26V216.7C148.78 217.5 147.88 218.82 147.08 219.62C147.6 219.92 148.36 220.42 148.8 220.76C149.76 219.86 150.96 218.4 151.68 217.24L150.04 216.16L149.68 216.26H149.14ZM162.76 215.72V217.94H167.26V215.72H162.76ZM162.76 220.26V222.48H167.34V220.26H162.76ZM170.56 222.7V224.88H177.58V222.7H170.56ZM162.74 224.9V227.16H167.26V224.9H162.74ZM161.82 215.72V223C161.82 225.94 161.72 229.98 160.46 232.74C161.02 232.94 161.98 233.48 162.4 233.84C163.78 230.86 163.98 226.22 163.98 223V215.72H161.82ZM165.92 215.72V231.16C165.92 231.42 165.82 231.5 165.58 231.5C165.34 231.52 164.6 231.52 163.88 231.5C164.18 232.1 164.46 233.18 164.52 233.8C165.82 233.8 166.68 233.76 167.32 233.36C167.96 232.96 168.14 232.28 168.14 231.2V215.72H165.92ZM176.2 215.74V219.58C176.2 219.82 176.1 219.88 175.78 219.88C175.46 219.9 174.26 219.9 173.26 219.86C173.56 220.42 173.88 221.24 173.98 221.86C175.5 221.86 176.64 221.86 177.44 221.56C178.28 221.24 178.5 220.66 178.5 219.62V215.74H176.2ZM176.92 222.7V223.1C176.24 227.14 174.16 230.52 171.34 232.02C171.82 232.42 172.44 233.24 172.72 233.78C176 231.8 178.24 228.3 179.12 223.1L177.7 222.64L177.32 222.7H176.92ZM173.44 224.18L171.58 224.66C172.82 228.72 174.96 232.08 178.18 233.8C178.52 233.24 179.18 232.4 179.68 231.96C176.66 230.56 174.5 227.58 173.44 224.18ZM169.26 215.74V233.8H171.52V217.96H176.76V215.74H169.26ZM183.06 215.92V217.94H189.62V215.92H183.06ZM191.06 226.22V228.22H199.2V226.22H191.06ZM182.78 222.04V224.14H190.22V222.04H182.78ZM186.04 222.9V231.18C186.04 231.4 185.96 231.46 185.72 231.48C185.48 231.48 184.66 231.48 183.92 231.44C184.22 232.08 184.54 233.08 184.6 233.72C185.86 233.72 186.76 233.68 187.44 233.32C188.14 232.94 188.32 232.3 188.32 231.22V222.9H186.04ZM198.42 226.22V226.54C198.18 229.6 197.88 230.86 197.52 231.2C197.34 231.4 197.16 231.42 196.86 231.42C196.54 231.42 195.88 231.4 195.16 231.34C195.52 231.94 195.76 232.88 195.8 233.54C196.72 233.58 197.56 233.56 198.06 233.5C198.64 233.42 199.08 233.26 199.52 232.78C200.1 232.16 200.44 230.6 200.78 227.14C200.82 226.82 200.84 226.22 200.84 226.22H198.42ZM194.18 224.44C193.9 227.7 193.42 230.44 189.28 231.96C189.78 232.4 190.4 233.24 190.66 233.82C195.4 231.94 196.24 228.54 196.56 224.44H194.18ZM183.52 220.1C185.18 220.76 187.34 221.9 188.36 222.7L189.98 220.98C188.84 220.18 186.64 219.14 185.02 218.56L183.52 220.1ZM189.64 222.04V222.38C189.46 223.88 189.1 225.74 188.74 226.9L190.34 227.66C190.88 226.3 191.4 224.24 191.72 222.42L190.28 221.94L189.96 222.04H189.64ZM197.66 218.02C196.74 220.88 194.08 222.42 190.4 223.16C190.88 223.64 191.62 224.62 191.9 225.16C195.82 224.04 198.8 222.12 200.16 218.4L197.66 218.02ZM193.66 215C192.86 216.86 191.38 218.68 189.82 219.82C190.38 220.12 191.32 220.78 191.78 221.16C193.28 219.86 194.9 217.78 195.9 215.62L193.66 215ZM193.94 218.54L191.94 219.18C193.62 222.16 196.4 224.24 200.1 225.18C200.42 224.56 201.1 223.62 201.62 223.14C198.12 222.48 195.32 220.82 193.94 218.54ZM185.82 222.76C185.2 224.76 183.9 227.02 182.44 228.26C182.82 228.9 183.34 229.9 183.56 230.58C185.26 229.04 186.6 226.02 187.36 223.36L185.82 222.76ZM193.6 217.04L192.64 219.02H201.08V217.04H193.6ZM189.04 215.92V216.34C188.5 217.36 187.22 218.84 185.98 219.72C186.44 220 187.12 220.5 187.54 220.86C188.98 219.86 190.56 218.26 191.46 216.8L189.92 215.84L189.56 215.92H189.04ZM213.46 220.32H216.74V221.98H213.46V220.32ZM211.22 218.76V223.56H219.12V218.76H211.22ZM211.1 226.04H212.66V228.24H211.1V226.04ZM209.16 224.42V229.84H214.7V224.42H209.16ZM217.58 226.04H219.2V228.24H217.58V226.04ZM215.6 224.42V229.84H221.28V224.42H215.6ZM205.62 215.72V233.8H207.96V217.82H222.72V215.72H205.62ZM207.14 230.84V233H223.26V230.84H207.14ZM226.4 225.16L227 227.46C228.76 226.8 230.96 225.96 233 225.16L232.58 223.04C230.32 223.86 227.98 224.7 226.4 225.16ZM226.66 218.82V221.02H232.72V218.82H226.66ZM228.84 215.04V231.26C228.84 231.54 228.74 231.6 228.5 231.6C228.26 231.62 227.56 231.62 226.84 231.58C227.12 232.24 227.4 233.22 227.46 233.82C228.76 233.82 229.62 233.74 230.22 233.36C230.84 233 231.04 232.38 231.04 231.26V215.04H228.84ZM235.64 215.24V223.98C235.64 227.36 235.2 230.2 231.64 232.04C232.16 232.42 232.98 233.22 233.34 233.74C237.32 231.54 237.84 228 237.84 224V215.24H235.64ZM239.12 215.24V230.38C239.12 232.9 239.64 233.62 241.44 233.62C241.8 233.62 242.82 233.62 243.2 233.62C244.76 233.62 245.34 232.56 245.56 229.8C244.92 229.66 244.06 229.26 243.54 228.86C243.48 230.9 243.38 231.48 243 231.48C242.78 231.48 242.04 231.48 241.86 231.48C241.46 231.48 241.38 231.34 241.38 230.4V215.24H239.12ZM232.48 218.52C233.24 219.8 234.1 221.52 234.46 222.64L236.32 221.52C235.94 220.44 235.08 218.8 234.26 217.54L232.48 218.52ZM240.52 225.02C241.8 226.16 243.32 227.82 244.04 228.82L245.56 227.16C244.8 226.16 243.28 224.68 241.96 223.6L240.52 225.02ZM231.84 226.94L233.06 228.94C234.1 228.16 235.3 227.22 236.38 226.32L235.6 224.5C234.2 225.44 232.78 226.38 231.84 226.94ZM243.02 217.3C242.58 218.68 241.72 220.54 241.04 221.72L242.68 222.64C243.42 221.56 244.3 219.86 245.16 218.38L243.02 217.3ZM11.04 249.82H6.72V252.04H8.8V257.18H11.04V249.82ZM11.04 256.26H9.04C8.2 257 7.24 257.76 6.44 258.32L7.58 260.62C8.52 259.72 9.32 258.96 10.08 258.16C11.28 259.72 12.92 260.32 15.36 260.42C17.86 260.52 22.3 260.48 24.86 260.36C24.96 259.7 25.32 258.64 25.58 258.12C22.74 258.34 17.82 258.4 15.34 258.3C13.28 258.2 11.82 257.62 11.04 256.26ZM6.6 243.68C7.62 244.7 8.82 246.16 9.28 247.12L11.32 245.78C10.78 244.8 9.54 243.44 8.48 242.48L6.6 243.68ZM12.26 250.2V251.94H24.52V250.2H12.26ZM11.66 253.28V255.06H25.14V253.28H11.66ZM14.92 249.14V254.14H17.18V249.14H14.92ZM19.5 249.14V254.14H21.78V249.14H19.5ZM12.8 244.98V246.5H17.74V242.64H11.92V244.14H15.72V244.98H12.8ZM12.2 244.98V246.94C12.2 248.54 12.7 249 14.48 249C14.86 249 16.2 249 16.58 249C17.8 249 18.34 248.62 18.54 247.26C18 247.16 17.24 246.9 16.88 246.64C16.8 247.3 16.72 247.42 16.32 247.42C16.02 247.42 15 247.42 14.78 247.42C14.26 247.42 14.18 247.34 14.18 246.92V244.98H12.2ZM19.38 244.98V246.5H24.36V242.64H18.42V244.14H22.32V244.98H19.38ZM18.78 244.98V246.92C18.78 248.54 19.28 249 21.08 249C21.46 249 22.86 249 23.24 249C24.48 249 25.02 248.62 25.22 247.24C24.68 247.12 23.92 246.88 23.56 246.62C23.48 247.3 23.4 247.42 22.98 247.42C22.68 247.42 21.62 247.42 21.38 247.42C20.86 247.42 20.76 247.34 20.76 246.92V244.98H18.78ZM19.16 255.9C20.48 256.58 21.9 257.48 22.64 258.12L25.12 257.22C24.12 256.54 22.36 255.58 20.92 254.92L19.16 255.9ZM15.66 254.92C14.8 255.6 13.32 256.24 11.92 256.66C12.42 256.98 13.28 257.7 13.66 258.1C15.04 257.54 16.72 256.62 17.76 255.66L15.66 254.92ZM37.04 242.04C36.46 243.78 35.4 245.46 34.14 246.54C34.64 246.88 35.5 247.64 35.88 248.06C37.24 246.74 38.5 244.7 39.24 242.58L37.04 242.04ZM36.88 247.16C36.38 248.46 35.52 249.82 34.56 250.72C35.08 251 36.02 251.58 36.46 251.94C37.42 250.92 38.46 249.3 39.08 247.74L36.88 247.16ZM37.48 243.72L36.68 245.74H45.44V243.72H37.48ZM39.76 245.26V251.44C39.76 251.66 39.68 251.72 39.44 251.74C39.2 251.74 38.36 251.74 37.6 251.7C37.92 252.28 38.24 253.18 38.34 253.8C39.58 253.8 40.48 253.78 41.16 253.44C41.9 253.1 42.06 252.52 42.06 251.48V245.26H39.76ZM42.5 247.84C43.36 249.18 44.3 251.04 44.68 252.22L46.74 251.24C46.32 250.04 45.4 248.32 44.46 247L42.5 247.84ZM44.84 243.72V244C44.56 245.16 44.08 246.58 43.7 247.46L45.74 247.86C46.22 246.9 46.8 245.38 47.24 244.02L45.54 243.66L45.18 243.72H44.84ZM33.74 254.56V257.66C33.74 259.76 34.36 260.44 36.92 260.44C37.46 260.44 39.6 260.44 40.14 260.44C42.12 260.44 42.8 259.78 43.06 257.18C42.42 257.04 41.42 256.68 40.94 256.32C40.84 258.06 40.7 258.3 39.94 258.3C39.4 258.3 37.64 258.3 37.22 258.3C36.28 258.3 36.12 258.24 36.12 257.64V254.56H33.74ZM35.44 254C36.66 254.72 38.1 255.86 38.74 256.68L40.46 255.16C39.76 254.34 38.26 253.3 37.04 252.64L35.44 254ZM41.9 255.32C43.32 256.7 44.74 258.64 45.26 260L47.4 258.8C46.8 257.4 45.3 255.56 43.88 254.24L41.9 255.32ZM31.26 254.62C30.82 256.3 29.94 257.86 28.58 258.82L30.58 260.2C32.1 259.04 32.88 257.2 33.42 255.34L31.26 254.62ZM33.08 242.02C32.02 244.1 30.2 246.18 28.38 247.48C28.82 247.92 29.56 248.94 29.82 249.42C31.82 247.82 33.9 245.26 35.2 242.74L33.08 242.02ZM31.36 246.2V253.76H33.66V243.96L33.6 243.94L31.36 246.2ZM51.36 244.52V246.86H68.76V244.52H51.36ZM58.66 242.02V260.8H61.18V242.02H58.66ZM58.94 251.06C57.26 253.94 53.96 256.66 50.5 258C51.04 258.48 51.82 259.46 52.2 260.06C55.76 258.42 58.98 255.36 60.94 251.82L58.94 251.06ZM61.08 251.22L59.1 252C61.06 255.42 64.22 258.44 67.7 260.04C68.1 259.36 68.88 258.36 69.48 257.84C66.04 256.58 62.76 253.98 61.08 251.22ZM53.78 250.34C54.7 251.16 55.96 252.32 56.56 253.04L58.14 251.36C57.5 250.68 56.2 249.58 55.3 248.82L53.78 250.34ZM54.58 246.98C54.02 249.42 52.8 251.54 51.04 252.82C51.58 253.18 52.5 253.96 52.9 254.4C54.76 252.84 56.18 250.34 56.92 247.42L54.58 246.98ZM63.34 250.42C64.62 251.48 66.46 252.96 67.3 253.86L68.96 252.2C68.04 251.34 66.14 249.92 64.9 248.98L63.34 250.42ZM64.02 246.98C63.6 249 62.66 250.86 61.32 252C61.88 252.26 62.9 252.88 63.36 253.26C64.7 251.92 65.8 249.8 66.34 247.4L64.02 246.98ZM76.14 245.64V247.98H90.06V245.64H76.14ZM75.32 251.54V253.84H89.3V251.54H75.32ZM73 257.88V260.22H91.08V257.88H73ZM80.78 242.02V259.04H83.28V242.02H80.78ZM76.16 242.26C75.44 245.02 74.16 247.78 72.58 249.46C73.2 249.8 74.26 250.5 74.74 250.92C76.3 249 77.76 245.92 78.64 242.82L76.16 242.26ZM96.86 245.26V247.36H100.82V256.62H96.86V258.74H103V245.26H96.86ZM95.46 245.26V260.22H97.64V245.26H95.46ZM96.76 250.6V252.68H101.88V250.6H96.76ZM98.3 242C98.2 243.1 97.92 244.64 97.64 245.68L99.56 246.1C99.96 245.16 100.46 243.74 100.92 242.38L98.3 242ZM105.64 245.12V247.3H111.48V245.12H105.64ZM110.66 245.12V245.58C110.44 253.92 110.18 257.36 109.54 258.04C109.28 258.32 109.06 258.4 108.66 258.4C108.16 258.4 106.96 258.38 105.66 258.28C106.1 258.92 106.42 259.94 106.46 260.6C107.62 260.66 108.84 260.68 109.6 260.56C110.42 260.44 110.98 260.22 111.54 259.44C112.36 258.38 112.6 255.2 112.86 246.2C112.88 245.9 112.88 245.12 112.88 245.12H110.66ZM105.7 242.02C105.06 244.68 103.92 247.4 102.58 249.08C103.14 249.4 104.12 250.08 104.56 250.48C105.92 248.56 107.22 245.52 108 242.56L105.7 242.02ZM104.72 250.88C105.68 252.36 106.94 254.32 107.48 255.54L109.52 254.3C108.9 253.12 107.58 251.2 106.6 249.82L104.72 250.88ZM120.76 244.94V247.2H125.66V244.94H120.76ZM129.14 242.06V260.76H131.64V242.06H129.14ZM118.56 250.86C120.06 251.76 121.96 253.16 122.82 254.16L124.1 252.12C123.2 251.18 121.26 249.88 119.76 249.06L118.56 250.86ZM121.02 242C120.14 245.62 118.5 248.98 116.3 250.98C116.86 251.34 117.88 252.12 118.3 252.54C120.54 250.22 122.34 246.52 123.4 242.5L121.02 242ZM127.9 246.88L125.86 247.62C127.72 251.2 130.72 254.46 134.08 256.24C134.48 255.6 135.24 254.64 135.82 254.14C132.56 252.7 129.46 249.82 127.9 246.88ZM125 244.94V245.48C124.06 252.24 121.14 256.6 116.88 258.84C117.46 259.2 118.38 260.1 118.78 260.64C123.1 258.18 126.26 253.12 127.44 245.38L125.86 244.86L125.44 244.94H125ZM139.1 244.8V247.1H156.94V244.8H139.1ZM145.62 251.28V253.5H156.1V251.28H145.62ZM144.84 258.08V260.3H156.86V258.08H144.84ZM149.7 247.96V259.26H152.12V247.96H149.7ZM145.4 242C144.36 246.04 142.08 250.52 138.46 252.88C138.82 253.46 139.38 254.52 139.62 255.2C143.9 252.28 146.42 247.42 147.9 242.6L145.4 242ZM141.4 250.38V260.76H143.82V250.38H141.4ZM161 243.2V245.42H171.52V243.2H161ZM160.64 249.74V251.96H171.76V249.74H160.64ZM167.48 243.8V260.78H169.84V243.8H167.48ZM162.94 243.78V250.5C162.94 253.66 162.68 256.88 160.38 259.32C160.94 259.66 161.78 260.46 162.16 260.96C164.86 258.12 165.18 254.26 165.18 250.52V243.78H162.94ZM176.44 242.3C175.32 243.92 173.12 245.56 171.26 246.48C171.88 246.94 172.58 247.64 172.96 248.18C175.04 246.98 177.2 245.2 178.72 243.22L176.44 242.3ZM176.86 247.82C175.68 249.54 173.42 251.26 171.54 252.26C172.14 252.72 172.84 253.44 173.22 253.94C175.28 252.68 177.52 250.78 179.04 248.72L176.86 247.82ZM177.2 253.14C175.82 255.6 173.2 257.64 170.5 258.82C171.12 259.32 171.82 260.16 172.18 260.76C175.14 259.24 177.78 256.94 179.48 254.02L177.2 253.14ZM188.14 252.62C192.18 254.82 192.52 257.74 191.38 258.48C191.04 258.76 190.62 258.8 190.14 258.8C189.64 258.8 188.94 258.78 188.24 258.7C188.66 259.34 188.88 260.22 188.92 260.86C189.48 260.88 190.06 260.9 190.54 260.9C191.52 260.88 192.1 260.74 192.86 260.24C195.12 258.84 194.9 254.16 189.72 251.46L188.14 252.62ZM190.36 252.82C188.8 253.96 185.74 254.98 183.16 255.44C183.56 255.84 184.14 256.58 184.42 257.06C187.04 256.44 190.16 255.1 191.96 253.62L190.36 252.82ZM191.66 254.64C189.74 256.26 186 257.8 182.8 258.5C183.24 258.94 183.86 259.74 184.16 260.24C187.34 259.34 191.12 257.56 193.34 255.52L191.66 254.64ZM188.22 243.26V245.06H194.1V243.26H188.22ZM191.62 249.74C189.72 251.08 186.2 252.12 183.1 252.64C183.46 253.04 184.04 253.92 184.3 254.32C187.44 253.58 191.16 252.3 193.4 250.6L191.62 249.74ZM194.32 250.14L192.3 250.6C193.56 255.2 195.8 258.56 199.8 260.22C200.12 259.58 200.82 258.66 201.34 258.2C197.62 256.92 195.36 253.94 194.32 250.14ZM198.96 251.18C197.86 252.1 195.98 253.28 194.6 253.96L196.12 255.2C197.54 254.58 199.38 253.56 200.9 252.58L198.96 251.18ZM187.34 247.86H196.82V249.38H187.34V247.86ZM185.08 246.12V251.12H199.18V246.12H185.08ZM188.24 241.92C187.22 243.56 185.36 245.4 182.78 246.78C183.3 247.12 184.04 247.92 184.4 248.46C187.2 246.74 189.2 244.68 190.74 242.44L188.24 241.92ZM190.76 247.04V250.46H193.12V247.04H190.76ZM193.14 243.26V243.7C192.78 244.5 191.88 245.82 191.08 246.62C191.6 246.92 192.36 247.42 192.8 247.76C193.76 246.86 194.96 245.4 195.68 244.24L194.04 243.16L193.68 243.26H193.14Z" fill="#3C3B67"/>
<rect y="57" width="254" height="142" rx="10" fill="white"/>
<rect width="254" height="46" rx="23" fill="#E384F2"/>
<path d="M97.0163 20.375V25.4C97.0163 25.675 96.9163 25.75 96.5663 25.75C96.1913 25.775 94.8663 25.775 93.8163 25.725C94.1663 26.475 94.5913 27.6 94.7163 28.4C96.4413 28.4 97.7663 28.4 98.7663 28C99.7663 27.575 100.041 26.85 100.041 25.475V20.375H97.0163ZM91.8663 21.05C90.7663 22.875 88.7663 24.7 86.8163 25.825C87.5663 26.3 88.8413 27.275 89.4413 27.85C91.3413 26.5 93.5913 24.275 94.9913 22.075L91.8663 21.05ZM104.441 21.8C102.216 28.125 97.3663 30.5 88.9663 31.45C89.5913 32.175 90.1913 33.375 90.4913 34.275C99.5663 32.9 104.791 30.1 107.516 22.775L104.441 21.8ZM87.1663 17.85V20.675H109.766V17.85H87.1663ZM98.8163 13.175V15.975H107.141V13.175H98.8163ZM96.9913 10.775V19.625H100.091V10.775H96.9913ZM90.5913 12.4V19.375H93.6413V12.4H90.5913ZM134.416 21.825C133.391 22.65 131.566 23.575 129.941 24.2C130.216 24.675 130.566 25.425 130.691 25.9C132.541 25.3 134.741 24.425 136.341 23.45L134.416 21.825ZM126.966 23.075C126.166 24.25 124.791 25.425 123.466 26.2C123.966 26.6 124.841 27.475 125.241 27.925C126.666 26.95 128.266 25.35 129.266 23.825L126.966 23.075ZM126.866 27.5C126.141 29.1 124.791 30.65 123.291 31.65C123.841 32.075 124.766 33 125.191 33.475C126.816 32.225 128.441 30.225 129.366 28.15L126.866 27.5ZM131.991 24.9L130.141 25.425C131.241 28.875 133.266 32.05 135.941 33.65C136.341 32.975 137.166 31.975 137.741 31.475C135.141 30.25 133.041 27.675 131.991 24.9ZM135.691 24.75C134.816 25.6 133.291 26.825 132.216 27.525L133.566 28.8C134.716 28.225 136.166 27.275 137.566 26.35L135.691 24.75ZM129.291 23.5V34.3H131.891V23.5H129.291ZM116.466 15.55V17.775H123.291V15.55H116.466ZM116.466 19.3V21.5H123.366V19.3H116.466ZM114.991 23.075V25.35H122.641V23.075H114.991ZM118.866 13.1V24.375H121.141V13.1H118.866ZM119.741 26.6C120.216 27.625 120.666 28.95 120.816 29.85L121.991 29.425C121.816 28.55 121.341 27.225 120.841 26.25L119.741 26.6ZM118.216 26.825C118.591 28.1 118.866 29.8 118.916 30.9L120.191 30.65C120.141 29.575 119.816 27.9 119.416 26.6L118.216 26.825ZM116.666 27C116.841 28.475 116.891 30.35 116.791 31.625L118.166 31.45C118.216 30.225 118.166 28.35 117.941 26.85L116.666 27ZM114.816 26.475C114.741 28.625 114.491 30.775 113.666 32.075L115.191 32.875C116.116 31.425 116.341 29.075 116.441 26.775L114.816 26.475ZM114.991 11.675V24.35H117.341V14.025H123.741V11.675H114.991ZM121.666 23.075V23.5C121.541 29.375 121.416 31.4 121.091 31.85C120.916 32.125 120.741 32.175 120.466 32.175C120.166 32.175 119.641 32.175 118.991 32.075C119.291 32.7 119.516 33.65 119.566 34.325C120.391 34.35 121.216 34.325 121.716 34.25C122.316 34.15 122.741 33.95 123.141 33.375C123.691 32.625 123.841 30.275 123.991 24.05C124.016 23.725 124.016 23.075 124.016 23.075H121.666ZM124.116 11.675V13.725H131.541V11.675H124.116ZM131.316 12.375V14.55H135.491V12.375H131.316ZM125.866 14.6V16.2H129.516V14.6H125.866ZM125.866 17.1V18.7H129.516V17.1H125.866ZM124.866 12.775V20.7H126.916V12.775H124.866ZM128.566 12.775V22.775H130.641V12.775H128.566ZM123.641 20.275L124.066 22.35C125.866 22.025 128.016 21.65 130.116 21.275L129.991 19.4C127.616 19.75 125.316 20.075 123.641 20.275ZM134.941 12.375V12.725C134.466 16.325 132.916 19.2 130.641 20.425C131.116 20.875 131.716 21.75 131.991 22.3C134.766 20.575 136.516 17.4 137.141 12.675L135.766 12.325L135.366 12.375H134.941ZM130.716 16.575C132.541 18.15 134.941 20.35 136.041 21.75L137.766 20.05C136.591 18.675 134.141 16.6 132.291 15.1L130.716 16.575ZM144.041 32C143.658 32 143.325 31.8583 143.041 31.575C142.758 31.2917 142.616 30.9583 142.616 30.575V28.675C142.616 28.2917 142.758 27.9583 143.041 27.675C143.325 27.3917 143.658 27.25 144.041 27.25H145.941C146.325 27.25 146.658 27.3917 146.941 27.675C147.225 27.9583 147.366 28.2917 147.366 28.675V30.575C147.366 30.9583 147.225 31.2917 146.941 31.575C146.658 31.8583 146.325 32 145.941 32H144.041ZM155.324 21.075C155.091 21.2583 154.841 21.2833 154.574 21.15C154.324 21.0167 154.199 20.8 154.199 20.5V18.675C154.199 17.725 154.582 16.975 155.349 16.425L157.874 14.575C158.624 14.025 159.482 13.75 160.449 13.75H162.024C162.407 13.75 162.741 13.8917 163.024 14.175C163.307 14.4583 163.449 14.7917 163.449 15.175V30.575C163.449 30.9583 163.307 31.2917 163.024 31.575C162.741 31.8583 162.407 32 162.024 32H160.449C160.066 32 159.732 31.8583 159.449 31.575C159.166 31.2917 159.024 30.9583 159.024 30.575V18.425H158.999H158.974L155.324 21.075Z" fill="white"/>
</svg>
