<svg width="100" height="50" viewBox="0 0 100 50" fill="none" xmlns="http://www.w3.org/2000/svg">
<path d="M0 7.9375C0 5.9981 0.98772 4.13814 2.74587 2.76678C4.50403 1.39542 6.8886 0.625 9.375 0.625H90.625C93.1114 0.625 95.496 1.39542 97.2541 2.76678C99.0123 4.13814 100 5.9981 100 7.9375V15.25C100 15.8965 99.6708 16.5165 99.0847 16.9736C98.4987 17.4307 97.7038 17.6875 96.875 17.6875C94.3886 17.6875 92.004 18.4579 90.2459 19.8293C88.4877 21.2006 87.5 23.0606 87.5 25C87.5 26.9394 88.4877 28.7994 90.2459 30.1707C92.004 31.5421 94.3886 32.3125 96.875 32.3125C97.7038 32.3125 98.4987 32.5693 99.0847 33.0264C99.6708 33.4835 100 34.1035 100 34.75V42.0625C100 44.0019 99.0123 45.8619 97.2541 47.2332C95.496 48.6046 93.1114 49.375 90.625 49.375H9.375C6.8886 49.375 4.50403 48.6046 2.74587 47.2332C0.98772 45.8619 0 44.0019 0 42.0625L0 34.75C0 34.1035 0.32924 33.4835 0.915291 33.0264C1.50134 32.5693 2.2962 32.3125 3.125 32.3125C5.6114 32.3125 7.99597 31.5421 9.75413 30.1707C11.5123 28.7994 12.5 26.9394 12.5 25C12.5 23.0606 11.5123 21.2006 9.75413 19.8293C7.99597 18.4579 5.6114 17.6875 3.125 17.6875C2.2962 17.6875 1.50134 17.4307 0.915291 16.9736C0.32924 16.5165 0 15.8965 0 15.25V7.9375ZM25 3.0625V7.9375H31.25V3.0625H25ZM31.25 17.6875V12.8125H25V17.6875H31.25ZM75 17.6875V12.8125H68.75V17.6875H75ZM68.75 7.9375H75V3.0625H68.75V7.9375ZM31.25 22.5625H25V27.4375H31.25V22.5625ZM75 27.4375V22.5625H68.75V27.4375H75ZM31.25 32.3125H25V37.1875H31.25V32.3125ZM75 37.1875V32.3125H68.75V37.1875H75ZM25 42.0625V46.9375H31.25V42.0625H25ZM68.75 46.9375H75V42.0625H68.75V46.9375Z" fill="white"/>
</svg>
