<svg width="215" height="51" viewBox="0 0 215 51" fill="none" xmlns="http://www.w3.org/2000/svg">
<path d="M39 50C92.617 41.0228 97.5418 1.84969 114.064 3.48191C130.586 5.11412 125.846 25.3808 120.021 31.2295C127.964 23.3405 161.167 -7.94359 170.064 3.48191C177.936 13.5926 156.117 26.6858 148.423 30.3193C164.344 24.5015 207.797 22.8788 214.149 35.31C220.821 48.3677 186.347 48.0957 177.61 50H39Z" fill="#9587E1"/>
<path d="M82.8212 50H7.37045C6.36829 50 5.52086 49.2583 5.38808 48.265L1.25304 17.3305C1.11144 16.2712 1.82769 15.2878 2.87935 15.0975L78.6388 1.391C79.7983 1.18123 80.8869 2.01425 80.9876 3.18825L84.8139 47.8292C84.914 48.9969 83.9932 50 82.8212 50Z" stroke="#EDEFF7" stroke-width="2"/>
</svg>
