<svg width="278" height="325" viewBox="0 0 278 325" fill="none" xmlns="http://www.w3.org/2000/svg">
<path d="M213.038 67.623C219.81 50.5147 197.537 43.623 188.537 43.623C197.537 76.623 155.438 132.123 167.038 134.123C181.538 136.623 203.208 143.05 198.208 122.55C196.521 115.635 209.537 117.623 213.037 102.123C217.619 81.8372 203.537 91.623 213.038 67.623Z" fill="#EDEFF7"/>
<path d="M52.999 70.623C46.2267 53.5147 68.5001 46.623 77.4999 46.623C68.5 79.623 116.6 146.123 105 148.123C90.5 150.623 63.5 145.623 68.5 125.123C70.1866 118.208 56.5 120.623 52.9992 105.123C48.4177 84.8372 62.4994 94.623 52.999 70.623Z" fill="#EDEFF7"/>
<path d="M225.5 247.656H21C29.4995 179.656 52.7995 88.6554 128 90.6554C203.2 92.6554 221 189.155 225.5 247.656Z" fill="white"/>
<path d="M197.513 68.4826C194.415 99.9792 189.064 142.922 134.018 137.508C72.6218 131.469 77.9735 88.5264 81.0714 57.0298C84.1692 25.5332 112.747 2.56393 144.902 5.72653C177.056 8.88913 200.611 36.986 197.513 68.4826Z" fill="#F1C1F8"/>
<circle cx="124" cy="78.623" r="5" fill="#3C3B67"/>
<circle cx="168" cy="85.623" r="5" fill="#3C3B67"/>
<path d="M86.4097 95.1844C94.9097 86.8401 124.409 95.8674 145.41 95.1844C166.41 94.5014 174.296 95.6844 187.91 106.684C201.523 117.684 190.165 124.022 191.343 131.42C192.383 137.951 196.343 133.42 196.343 150.92C196.343 161.42 184.843 165.42 184.843 175.42V175.617C184.844 185.513 184.844 192.506 172.843 198.42C163.629 202.961 157.695 200.583 147.843 203.92C138.23 207.176 125.844 208.42 117.344 201.42C109.331 194.821 84.5745 196.383 88.8432 179.92C93.8993 160.42 84.8736 160.92 81.8434 150.92C79.1161 141.92 90.3433 141.42 83.8432 125.42C80.2039 116.462 73.9165 107.449 86.4097 95.1844Z" fill="#EDEFF7"/>
<path d="M84.4994 70.123C54.0743 91.4203 56.4987 42.6227 76.999 23.123C85.851 14.7031 106 2.62303 110 15.623C114 28.623 104.5 56.123 84.4994 70.123Z" fill="#EDEFF7"/>
<path d="M190.59 70.1034C190.59 104.35 213.617 50.3808 199.725 28.3995C193.726 18.908 186.052 13.75 179.724 19.7259C173.396 25.7018 190.59 45.123 190.59 70.1034Z" fill="#EDEFF7"/>
<ellipse rx="12.9201" ry="14.7405" transform="matrix(-0.909285 0.416173 0.366756 0.930317 79.1537 75.7134)" fill="#F1C1F8"/>
<ellipse rx="12.9201" ry="14.7405" transform="matrix(0.909285 0.416173 -0.366756 0.930317 194.154 84.7134)" fill="#F1C1F8"/>
<circle cx="146.5" cy="96.123" r="6.5" fill="#E384F2"/>
<path d="M129.048 111.265C128.644 108.129 153.068 110.376 151.021 113.541C148.681 117.158 146.229 117.186 141.524 117.791C133.528 118.819 129.771 116.882 129.048 111.265Z" fill="#E384F2"/>
<path d="M74.4997 173.123C74.4997 173.123 69.9995 192.623 67.4997 212.623C64.9999 232.623 63 243.123 63 243.123" stroke="#EDEFF7" stroke-width="4" stroke-linecap="round"/>
<path d="M199 146.623C206.265 159.902 221.436 197.692 224 242.623" stroke="#EDEFF7" stroke-width="3" stroke-linecap="round"/>
<path d="M146.5 324.123C16.1 324.123 0 296.123 0 242.623H277.5C277.5 299.123 276.9 324.123 146.5 324.123Z" fill="#EDEFF7"/>
</svg>
