<svg width="427" height="512" viewBox="0 0 427 512" fill="none" xmlns="http://www.w3.org/2000/svg">
<circle cx="93" cy="293" r="30" fill="#F1C1F8"/>
<ellipse cx="306" cy="395.5" rx="121" ry="116.5" fill="#3C3B67"/>
<path d="M107 396.5C80.2 374.9 68.6667 335.167 66.5 319L129 287C133 295 147 335.5 156 335.5C186.994 335.5 210.333 311.833 228.5 307.5L224 406C197.167 409.333 133.8 418.1 107 396.5Z" fill="#3C3B67"/>
<path d="M366.258 213.858C366.258 263.95 362.959 310 277.22 310C181.588 310 184.887 263.95 184.887 213.858C184.887 163.765 225.488 123.157 275.572 123.157C325.656 123.157 366.258 163.765 366.258 213.858Z" fill="#F1C1F8"/>
<path d="M175 201.136C175 148.529 226.781 115.706 275.569 114.085C316.73 112.719 360.53 127.653 372.899 165.755C385.268 203.858 389.209 256.054 367.631 277.632C346.053 299.209 213.889 326.182 218.385 265.045C220.248 239.712 175 247.574 175 201.136Z" fill="#3C3B67"/>
<ellipse rx="20.1015" ry="23.2667" transform="matrix(-0.997131 0.0756973 0.00705828 0.999975 221.51 253.87)" fill="#F1C1F8"/>
<g filter="url(#filter0_d_11_402)">
<path d="M75 219.709C75 218.369 75.5385 217.084 76.4945 216.144L89.4945 203.363C92.6564 200.254 98 202.494 98 206.928V263.291C98 264.631 97.4615 265.916 96.5055 266.856L83.5054 279.637C80.3436 282.746 75 280.506 75 276.072V219.709Z" fill="#3C3B67"/>
<ellipse cx="97.5" cy="139" rx="71.5" ry="115" fill="#3C3B67"/>
<g filter="url(#filter1_d_11_402)">
<ellipse cx="98" cy="139" rx="58" ry="99" fill="white"/>
</g>
</g>
<defs>
<filter id="filter0_d_11_402" x="6" y="4" width="183" height="297.082" filterUnits="userSpaceOnUse" color-interpolation-filters="sRGB">
<feFlood flood-opacity="0" result="BackgroundImageFix"/>
<feColorMatrix in="SourceAlpha" type="matrix" values="0 0 0 0 0 0 0 0 0 0 0 0 0 0 0 0 0 0 127 0" result="hardAlpha"/>
<feOffset/>
<feGaussianBlur stdDeviation="10"/>
<feComposite in2="hardAlpha" operator="out"/>
<feColorMatrix type="matrix" values="0 0 0 0 0 0 0 0 0 0 0 0 0 0 0 0 0 0 0.25 0"/>
<feBlend mode="normal" in2="BackgroundImageFix" result="effect1_dropShadow_11_402"/>
<feBlend mode="normal" in="SourceGraphic" in2="effect1_dropShadow_11_402" result="shape"/>
</filter>
<filter id="filter1_d_11_402" x="0" y="0" width="196" height="278" filterUnits="userSpaceOnUse" color-interpolation-filters="sRGB">
<feFlood flood-opacity="0" result="BackgroundImageFix"/>
<feColorMatrix in="SourceAlpha" type="matrix" values="0 0 0 0 0 0 0 0 0 0 0 0 0 0 0 0 0 0 127 0" result="hardAlpha"/>
<feMorphology radius="20" operator="dilate" in="SourceAlpha" result="effect1_dropShadow_11_402"/>
<feOffset/>
<feGaussianBlur stdDeviation="10"/>
<feComposite in2="hardAlpha" operator="out"/>
<feColorMatrix type="matrix" values="0 0 0 0 1 0 0 0 0 1 0 0 0 0 1 0 0 0 0.25 0"/>
<feBlend mode="normal" in2="BackgroundImageFix" result="effect1_dropShadow_11_402"/>
<feBlend mode="normal" in="SourceGraphic" in2="effect1_dropShadow_11_402" result="shape"/>
</filter>
</defs>
</svg>
