<svg width="401" height="488" viewBox="0 0 401 488" fill="none" xmlns="http://www.w3.org/2000/svg">
<circle cx="67" cy="269" r="30" fill="#F1C1F8"/>
<ellipse cx="280" cy="371.5" rx="121" ry="116.5" fill="#3C3B67"/>
<path d="M81 372.5C54.2 350.9 42.6667 311.167 40.5 295L103 263C107 271 121 311.5 130 311.5C160.994 311.5 184.333 287.833 202.5 283.5L198 382C171.167 385.333 107.8 394.1 81 372.5Z" fill="#3C3B67"/>
<path d="M340.258 189.858C340.258 239.95 336.959 286 251.22 286C155.588 286 158.887 239.95 158.887 189.858C158.887 139.765 199.488 99.1572 249.572 99.1572C299.656 99.1572 340.258 139.765 340.258 189.858Z" fill="#F1C1F8"/>
<path d="M149 177.136C149 124.529 200.781 91.7055 249.569 90.0855C290.73 88.7186 334.53 103.653 346.899 141.755C359.268 179.858 363.209 232.054 341.631 253.632C320.053 275.209 187.889 302.182 192.385 241.045C194.248 215.712 149 223.574 149 177.136Z" fill="#3C3B67"/>
<ellipse rx="20.1015" ry="23.2667" transform="matrix(-0.997131 0.0756973 0.00705828 0.999975 195.51 229.87)" fill="#F1C1F8"/>
<path d="M49 195.709C49 194.369 49.5385 193.084 50.4945 192.144L63.4945 179.363C66.6564 176.254 72 178.494 72 182.928V239.291C72 240.631 71.4615 241.916 70.5055 242.856L57.5054 255.637C54.3436 258.746 49 256.506 49 252.072V195.709Z" fill="#3C3B67"/>
<ellipse cx="71.5" cy="115" rx="71.5" ry="115" fill="#3C3B67"/>
<ellipse cx="72" cy="115" rx="58" ry="99" fill="#D7D7D7"/>
</svg>
