<svg width="135" height="155" viewBox="0 0 135 155" fill="none" xmlns="http://www.w3.org/2000/svg">
<path d="M68.2417 98.737C45.8417 97.537 19.4084 113.07 11.2417 123.737C27.2417 141.237 46.8059 158.302 97.2417 150.737C117.242 147.737 128.575 134.404 132.742 123.737C125.742 115.737 90.6417 99.937 68.2417 98.737Z" fill="#81A8E0"/>
<path d="M117.94 56.6614C118.385 84.8674 116.975 110.822 69.713 111.476C16.9976 112.205 18.4073 86.2498 17.9628 58.0438C17.5183 29.8377 39.5387 6.66273 67.1466 6.28099C94.7546 5.89925 117.496 28.4553 117.94 56.6614Z" fill="#F1C1F8"/>
<ellipse rx="11.1398" ry="13.0464" transform="matrix(0.909789 0.416633 -0.340106 0.939781 118.379 71.5431)" fill="#F1C1F8"/>
<ellipse rx="11.1389" ry="13.0472" transform="matrix(-0.896044 0.442466 0.368965 0.930038 16.377 73.0693)" fill="#F1C1F8"/>
<path d="M12.3745 51.0395C11.9111 21.3996 40.1898 2.50301 67.0917 1.21073C89.7884 0.120468 114.085 8.19423 121.245 29.5659C128.404 50.9377 125.745 55.5768 117.606 58.7583C109.467 61.9399 87.4083 39.7712 79.3328 27.6176C62.871 50.3275 12.7836 77.2043 12.3745 51.0395Z" fill="#3C3B67"/>
<ellipse rx="13.6264" ry="16.3475" transform="matrix(0.999897 -0.0137097 0.0159827 0.999862 49.9815 73.9339)" fill="white"/>
<ellipse rx="13.6264" ry="16.3475" transform="matrix(0.999897 -0.0137097 0.0159827 0.999862 88.234 73.3618)" fill="white"/>
</svg>
