<svg width="246" height="274" viewBox="0 0 246 274" fill="none" xmlns="http://www.w3.org/2000/svg">
<path d="M245.859 273.207C205.359 273.206 175.375 273.207 120.5 273.207C65.625 273.207 -6.86646e-05 273.207 -6.86646e-05 273.207C24.9999 134.707 62.9844 156.207 117.859 156.207C172.734 156.207 229.859 136.207 245.859 273.207Z" fill="#81A8E0"/>
<path d="M191.876 88.1324C191.876 127.535 189.276 163.758 121.682 163.758C46.2883 163.758 48.8888 127.535 48.8888 88.1324C48.8888 48.7297 80.8976 16.7875 120.383 16.7875C159.868 16.7875 191.876 48.7297 191.876 88.1324Z" fill="#F1C1F8"/>
<ellipse rx="16.4967" ry="19.0943" transform="matrix(-0.999521 -0.0309588 -0.0995103 0.995037 194.926 110.591)" fill="#F1C1F8"/>
<ellipse rx="16.4967" ry="19.0943" transform="matrix(0.999521 -0.0309588 0.0995103 0.995037 43.9255 108.591)" fill="#F1C1F8"/>
<path d="M44 88C38.5 70.4999 53 16.7869 117 16.7871C176.5 16.7873 195.5 59.9999 195.5 83.4999C195.5 107 187.243 129.443 168.5 144.5C149.757 159.557 98.8768 163.184 70 144.5C50.1701 131.67 49.5001 105.5 44 88Z" fill="#3C3B67"/>
<path d="M59.65 221L58.2939 271.677" stroke="#3C3B67" stroke-width="4" stroke-linecap="round"/>
<path d="M184.976 221L184.536 271.693" stroke="#3C3B67" stroke-width="4" stroke-linecap="round"/>
</svg>
