<svg width="450" height="450" viewBox="0 0 450 450" fill="none" xmlns="http://www.w3.org/2000/svg">
<g clip-path="url(#clip0_63_1559)">
<path d="M142.664 399.997L96.8661 382.368C91.7831 380.413 50.4221 364.484 43.5031 354.896C40.8001 351.156 36.0911 342.214 41.1911 340.412C45.8661 338.746 66.2661 341.925 76.8571 343.319C92.1571 345.342 122.094 337.488 122.094 337.488L160.344 354.08C168.096 357.072 171.955 365.776 168.98 373.528L162.095 391.412C159.103 399.164 150.399 403.023 142.647 400.048L142.664 399.997Z" fill="white"/>
</g>
<g clip-path="url(#clip1_63_1559)">
<path d="M310.336 399.997L356.134 382.368C361.217 380.413 402.578 364.484 409.497 354.896C412.2 351.156 416.909 342.214 411.809 340.412C407.134 338.746 386.734 341.925 376.143 343.319C360.843 345.342 330.906 337.488 330.906 337.488L292.639 354.046C284.887 357.038 281.028 365.742 284.003 373.494L290.888 391.378C293.88 399.13 302.584 402.989 310.336 400.014V399.997Z" fill="white"/>
</g>
<defs>
<clipPath id="clip0_63_1559">
<rect width="153" height="85" fill="white" transform="translate(17 316)"/>
</clipPath>
<clipPath id="clip1_63_1559">
<rect width="153" height="85" fill="white" transform="translate(283 316)"/>
</clipPath>
</defs>
</svg>
