<svg width="450" height="450" viewBox="0 0 450 450" fill="none" xmlns="http://www.w3.org/2000/svg">
<g clip-path="url(#clip0_63_1568)">
<path d="M141.325 298.314L177.264 314.928C184.794 318.409 188.095 327.351 184.607 334.897L176.568 352.288C173.087 359.818 164.144 363.119 156.598 359.631L112.049 339.037C102.081 334.429 97.7326 322.605 102.341 312.637C109.139 297.931 126.604 291.509 141.309 298.307L141.325 298.314Z" fill="white"/>
<path className="palm" fill-rule="evenodd" clip-rule="evenodd" d="M114.005 338.662C114.498 339.189 115.178 339.444 115.841 339.444V339.461C116.47 339.461 117.116 339.223 117.609 338.747C118.629 337.778 118.663 336.163 117.677 335.143C115.059 332.423 115.382 329.805 116.113 328.088C117.354 325.164 120.601 322.869 123.508 322.869C124.919 322.869 126.058 321.73 126.058 320.319C126.058 318.908 124.919 317.769 123.508 317.769C118.561 317.769 113.478 321.271 111.421 326.082C109.568 330.451 110.503 335.024 114.005 338.662ZM126.313 344.306C126.823 344.884 127.537 345.19 128.251 345.19L128.234 345.224C128.829 345.224 129.424 345.02 129.9 344.612C130.971 343.694 131.09 342.079 130.172 341.008C128.081 338.56 127.52 336.282 128.523 334.225C129.713 331.811 132.96 330.043 135.918 330.145C137.38 330.23 138.519 329.125 138.587 327.714C138.655 326.303 137.567 325.113 136.156 325.045C131.141 324.79 126.024 327.731 123.95 331.981C122.845 334.259 121.672 338.883 126.313 344.306Z" fill="#555555"/>
</g>
<g clip-path="url(#clip1_63_1568)">
<path d="M338.934 339.023L294.385 359.617C286.855 363.098 277.904 359.819 274.416 352.274L266.376 334.883C262.895 327.353 266.174 318.402 273.72 314.913L309.674 298.293C324.387 291.51 341.844 297.917 348.642 312.623C353.251 322.591 348.903 334.415 338.934 339.023V339.023Z" fill="white"/>
<path className="palm" fill-rule="evenodd" clip-rule="evenodd" d="M333.391 338.73C333.884 339.206 334.513 339.444 335.159 339.444C335.822 339.444 336.502 339.189 336.995 338.662C340.497 335.024 341.432 330.451 339.579 326.082C337.539 321.271 332.456 317.769 327.492 317.769C326.081 317.769 324.942 318.908 324.942 320.319C324.942 321.73 326.081 322.869 327.492 322.869C330.399 322.869 333.646 325.164 334.887 328.088C335.618 329.788 335.941 332.406 333.323 335.126C332.354 336.146 332.371 337.761 333.391 338.73ZM321.083 344.578C321.576 344.986 322.154 345.19 322.749 345.19L322.732 345.173C323.446 345.173 324.16 344.884 324.67 344.289C329.311 338.883 328.138 334.242 327.033 331.964C324.959 327.731 319.876 324.807 314.827 325.028C313.416 325.096 312.328 326.286 312.396 327.697C312.464 329.108 313.654 330.196 315.065 330.128C318.04 330.043 321.287 331.794 322.46 334.208C323.463 336.248 322.902 338.526 320.811 340.974C319.893 342.045 320.012 343.66 321.083 344.578Z" fill="#555555"/>
</g>
<defs>
<clipPath id="clip0_63_1568">
<rect width="153" height="85" fill="white" transform="translate(33 276)"/>
</clipPath>
<clipPath id="clip1_63_1568">
<rect width="153" height="85" fill="white" transform="translate(265 276)"/>
</clipPath>
</defs>
</svg>
