<svg width="450" height="450" viewBox="0 0 450 450" fill="none" xmlns="http://www.w3.org/2000/svg">
<path d="M142.562 399.98L96.815 382.198C91.732 380.226 65.501 370.043 43.775 361.594C35.7 358.449 62.764 336.111 90.321 346.566C90.321 346.566 116.399 343.353 121.091 344.271L160.378 354.08C168.113 357.089 171.955 365.81 168.946 373.545L162.01 391.395C159.001 399.13 150.28 402.972 142.545 399.963L142.562 399.98Z" fill="white"/>
<path className="palm" fill-rule="evenodd" clip-rule="evenodd" d="M61.1661 368.649C61.1717 368.649 61.1774 368.649 61.183 368.649H61.149C61.1547 368.649 61.1604 368.649 61.1661 368.649ZM59.364 367.884C59.8697 368.39 60.509 368.645 61.1661 368.649C61.8064 368.645 62.4454 368.407 62.934 367.918C62.985 367.867 66.929 364.059 72.25 363.804C78.659 363.498 87.992 363.141 87.992 363.141L87.805 358.041C87.805 358.041 78.438 358.398 72.012 358.721C64.702 359.078 59.585 364.076 59.364 364.297C58.378 365.283 58.378 366.881 59.364 367.884ZM82.6201 376.911C82.6257 376.911 82.6314 376.911 82.637 376.911H82.603C82.6087 376.911 82.6144 376.911 82.6201 376.911ZM80.818 376.146C81.3237 376.652 81.963 376.907 82.6201 376.911C83.2604 376.907 83.8993 376.669 84.388 376.18C84.439 376.129 88.383 372.321 93.704 372.066C100.113 371.76 109.446 371.403 109.446 371.403L109.259 366.303C109.259 366.303 99.892 366.66 93.466 366.983C86.156 367.34 81.039 372.338 80.818 372.559C79.832 373.545 79.832 375.143 80.818 376.146Z" fill="#555555"/>
<g clip-path="url(#clip0_63_1613)">
<path d="M310.438 399.98L356.185 382.198C361.268 380.226 387.499 370.043 409.225 361.594C417.3 358.449 390.236 336.111 362.679 346.566C362.679 346.566 336.601 343.353 331.909 344.271L292.588 354.08C284.853 357.089 281.011 365.81 284.02 373.545L290.956 391.395C293.965 399.13 302.686 402.972 310.421 399.963L310.438 399.98Z" fill="white"/>
<path className="palm" fill-rule="evenodd" clip-rule="evenodd" d="M390.032 367.935C390.525 368.428 391.171 368.666 391.817 368.666V368.649C392.463 368.649 393.126 368.394 393.619 367.901C394.622 366.898 394.622 365.283 393.619 364.297C393.613 364.292 393.604 364.283 393.591 364.271C393.125 363.83 388.087 359.069 380.971 358.721C374.545 358.415 365.178 358.058 365.178 358.058L364.991 363.158C364.991 363.158 374.324 363.515 380.733 363.821C386.037 364.076 390.032 367.935 390.032 367.935ZM368.578 376.18C369.071 376.673 369.717 376.911 370.363 376.911L370.346 376.894C370.992 376.894 371.655 376.639 372.148 376.146C373.151 375.143 373.151 373.528 372.148 372.542C372.142 372.537 372.133 372.528 372.12 372.516C371.654 372.075 366.616 367.314 359.5 366.966C353.074 366.66 343.707 366.303 343.707 366.303L343.52 371.403C343.52 371.403 352.853 371.76 359.262 372.066C364.583 372.321 368.578 376.18 368.578 376.18Z" fill="#555555"/>
</g>
<defs>
<clipPath id="clip0_63_1613">
<rect width="153" height="85" fill="white" transform="translate(283 316)"/>
</clipPath>
</defs>
</svg>
