<svg width="450" height="450" viewBox="0 0 450 450" fill="none" xmlns="http://www.w3.org/2000/svg">
<path d="M141.101 431.592L93.3479 420.321C88.0439 419.063 44.9149 408.88 36.7549 400.312C33.5759 396.963 27.6939 388.752 32.5049 386.27C36.9079 383.992 57.5629 384.366 68.2389 384.315C83.6579 384.247 112.269 372.415 112.269 372.415L152.406 383.669C160.498 385.573 165.496 393.682 163.592 401.757L159.189 420.406C157.285 428.498 149.176 433.496 141.101 431.592V431.592Z" fill="white"/>
<g clip-path="url(#clip0_63_1550)">
<path d="M311.899 431.592L359.652 420.321C364.956 419.063 408.085 408.88 416.245 400.312C419.424 396.963 425.306 388.752 420.495 386.27C416.092 383.992 395.437 384.366 384.761 384.315C369.342 384.247 340.731 372.415 340.731 372.415L300.594 383.669C292.502 385.59 287.504 393.682 289.408 401.774L293.811 420.423C295.715 428.515 303.824 433.513 311.899 431.609V431.592Z" fill="white"/>
</g>
<defs>
<clipPath id="clip0_63_1550">
<rect width="153" height="85" fill="white" transform="translate(289 347)"/>
</clipPath>
</defs>
</svg>
