<svg width="450" height="450" viewBox="0 0 450 450" fill="none" xmlns="http://www.w3.org/2000/svg">
<g clip-path="url(#clip0_63_1577)">
<path d="M113.879 374.561L152.413 383.656C160.487 385.561 165.509 393.664 163.6 401.754L159.199 420.401C157.293 428.475 149.191 433.497 141.1 431.588L93.3335 420.314C82.6451 417.791 76.0216 407.075 78.5443 396.387C82.2658 380.619 98.0945 370.835 113.862 374.557L113.879 374.561Z" fill="white"/>
<path className="palm" fill-rule="evenodd" clip-rule="evenodd" d="M95.1669 419.59C95.6089 419.879 96.1189 420.032 96.6119 420.032L96.5949 420.049C97.4109 420.049 98.2099 419.658 98.7029 418.944C99.5019 417.771 99.2129 416.19 98.0569 415.391C94.9459 413.249 94.7419 410.614 95.1159 408.795C95.7449 405.667 98.4819 402.777 101.321 402.199C102.698 401.91 103.599 400.567 103.31 399.19C103.021 397.813 101.661 396.929 100.301 397.201C95.4389 398.204 91.1549 402.641 90.1179 407.775C89.1659 412.433 91.0189 416.734 95.1669 419.59ZM108.342 422.633C108.801 423.007 109.362 423.177 109.906 423.177L109.889 423.143C110.654 423.143 111.402 422.803 111.912 422.157C112.779 421.052 112.575 419.454 111.47 418.587C108.92 416.615 107.934 414.49 108.495 412.28C109.158 409.679 111.98 407.265 114.921 406.806C116.315 406.602 117.25 405.293 117.046 403.899C116.842 402.505 115.533 401.553 114.139 401.774C109.192 402.556 104.738 406.449 103.565 411.022C102.936 413.487 102.715 418.247 108.342 422.633Z" fill="#555555"/>
</g>
<g clip-path="url(#clip1_63_1577)">
<path d="M359.664 420.315L311.897 431.589C303.823 433.495 295.708 428.493 293.799 420.402L289.398 401.756C287.492 393.681 292.494 385.567 300.584 383.657L339.135 374.558C354.907 370.853 370.732 380.62 374.453 396.388C376.976 407.076 370.352 417.792 359.664 420.315V420.315Z" fill="white"/>
<path d="M356.388 420.032C355.572 420.032 354.773 419.641 354.28 418.927C353.481 417.771 353.77 416.173 354.926 415.374C358.037 413.232 358.241 410.614 357.867 408.778C357.238 405.667 354.501 402.777 351.662 402.199C350.285 401.91 349.384 400.567 349.673 399.19C349.962 397.813 351.305 396.929 352.682 397.201C357.544 398.187 361.811 402.641 362.865 407.758C363.817 412.399 361.964 416.7 357.816 419.573C357.374 419.879 356.864 420.015 356.371 420.015L356.388 420.032Z" fill="#555555"/>
<path className="palm" d="M343.094 423.177C342.329 423.177 341.581 422.837 341.071 422.191C340.204 421.086 340.408 419.471 341.513 418.604C344.063 416.632 345.049 414.507 344.488 412.297C343.808 409.696 340.986 407.282 338.062 406.823C336.668 406.602 335.716 405.293 335.937 403.916C336.158 402.522 337.467 401.587 338.844 401.791C343.791 402.573 348.245 406.449 349.418 411.039C350.047 413.487 350.268 418.264 344.641 422.65C344.182 423.007 343.621 423.194 343.077 423.194L343.094 423.177Z" fill="#555555"/>
</g>
<defs>
<clipPath id="clip0_63_1577">
<rect width="153" height="85" fill="white" transform="translate(11 347)"/>
</clipPath>
<clipPath id="clip1_63_1577">
<rect width="153" height="85" fill="white" transform="translate(289 347)"/>
</clipPath>
</defs>
</svg>
