<svg width="450" height="450" viewBox="0 0 450 450" fill="none" xmlns="http://www.w3.org/2000/svg">
<path d="M158.607 359.606L114.067 339.019C109.12 336.741 83.569 324.943 62.404 315.168C54.533 311.53 82.94 290.926 109.8 303.064C109.8 303.064 136.031 301.483 140.655 302.69L179.262 314.913C186.81 318.398 190.091 327.34 186.606 334.871L178.565 352.262C175.08 359.81 166.138 363.091 158.607 359.606V359.606Z" fill="white"/>
<path className="palm" fill-rule="evenodd" clip-rule="evenodd" d="M77.6019 322.138C78.0949 322.716 78.8089 323.022 79.5229 323.022H79.5569C80.1519 323.022 80.7469 322.818 81.2229 322.41C81.2249 322.409 81.2333 322.402 81.2477 322.39C81.5986 322.107 85.5611 318.908 90.5899 318.908H90.7769C97.1859 319.01 106.519 319.265 106.519 319.265L106.655 314.165C106.655 314.165 97.2879 313.91 90.8449 313.808C83.5859 313.689 78.0779 318.347 77.8569 318.551C76.7859 319.469 76.6839 321.084 77.6019 322.138ZM98.4609 331.777C98.9539 332.355 99.6679 332.661 100.382 332.661H100.399C100.994 332.661 101.589 332.457 102.065 332.049C102.067 332.048 102.075 332.041 102.09 332.029C102.441 331.746 106.403 328.547 111.432 328.547H111.619C118.045 328.649 127.378 328.904 127.378 328.904L127.514 323.804C127.514 323.804 118.147 323.549 111.704 323.447C104.394 323.294 98.9369 327.986 98.7159 328.19C97.6449 329.108 97.5429 330.723 98.4609 331.777Z" fill="#555555"/>
<path d="M292.393 359.606L336.933 339.019C341.88 336.741 367.431 324.943 388.596 315.168C396.467 311.53 368.06 290.926 341.2 303.064C341.2 303.064 314.969 301.483 310.345 302.69L271.738 314.913C264.19 318.398 260.909 327.34 264.394 334.871L272.435 352.262C275.92 359.81 284.862 363.091 292.393 359.606Z" fill="white"/>
<path className="palm" fill-rule="evenodd" clip-rule="evenodd" d="M369.811 322.41C370.287 322.835 370.882 323.039 371.477 323.039C372.191 323.039 372.888 322.75 373.398 322.172C374.316 321.101 374.197 319.486 373.143 318.568C372.922 318.364 367.618 313.825 360.444 313.825H360.155C353.712 313.927 344.345 314.182 344.345 314.182L344.481 319.282C344.482 319.282 344.536 319.281 344.637 319.278C345.88 319.245 354.311 319.019 360.24 318.925H360.444C365.631 318.925 369.685 322.305 369.81 322.409L369.811 322.41ZM348.952 332.049C349.428 332.474 350.023 332.678 350.618 332.678H350.635C351.349 332.678 352.046 332.389 352.556 331.811C353.491 330.74 353.372 329.125 352.318 328.207C352.08 328.003 346.623 323.362 339.33 323.464C332.887 323.566 323.52 323.821 323.52 323.821L323.656 328.921C323.656 328.921 332.989 328.666 339.398 328.564C344.633 328.431 348.657 331.802 348.938 332.037C348.945 332.043 348.95 332.047 348.952 332.049Z" fill="#555555"/>
</svg>
