<svg width="450" height="450" viewBox="0 0 450 450" fill="none" xmlns="http://www.w3.org/2000/svg">
<g clip-path="url(#clip0_61_1487)">
<path d="M179.602 315.27L141.964 298.168C131.849 306.498 88.703 296.553 89.264 292.201C93.021 263.386 65.192 282.511 83.858 297.505C94.704 306.226 108.083 308.725 113.693 308.385C114.815 308.317 115.835 308.674 115.495 309.133C111.381 314.692 83.263 302.435 82.685 299.035C77.823 270.237 58.443 298.593 77.432 307.263C88.652 312.397 95.928 318.211 111.313 318.925C113.013 319.01 111.874 320.132 111.874 320.132C103.629 323.141 80.016 311.309 79.115 308.827C68.15 278.448 52.034 308.64 74.967 319.061C96.132 328.666 107.08 334.48 113.812 337.795L157.842 359.453C165.288 363.125 174.315 360.048 177.97 352.602L186.419 335.415C190.091 327.969 187.014 318.942 179.568 315.287L179.602 315.27Z" fill="white"/>
<path className="palm" fill-rule="evenodd" clip-rule="evenodd" d="M81.801 295.346C81.869 295.771 82.226 296.06 82.634 296.06L82.651 296.043H82.787C83.246 295.958 83.569 295.516 83.484 295.057C82.872 291.487 80.73 287.424 78.826 286.2C78.435 285.945 77.908 286.064 77.653 286.455C77.398 286.846 77.517 287.373 77.908 287.628C79.234 288.478 81.24 292.048 81.801 295.346ZM77.653 307.178C77.738 307.569 78.095 307.841 78.486 307.841V307.824C78.52 307.824 78.5498 307.82 78.5795 307.815C78.6093 307.811 78.639 307.807 78.673 307.807C79.132 307.722 79.421 307.263 79.319 306.804C79.285 306.651 78.418 302.894 74.729 298.508C73.114 296.587 70.377 295.397 70.258 295.346C69.816 295.159 69.323 295.363 69.136 295.788C68.949 296.23 69.153 296.723 69.578 296.91C69.5795 296.911 69.5995 296.921 69.6358 296.938C70.0158 297.115 72.1784 298.123 73.42 299.613C76.837 303.659 77.653 307.144 77.653 307.178Z" fill="#555555"/>
</g>
<g clip-path="url(#clip1_61_1487)">
<path d="M272.398 315.27L310.036 298.168C320.151 306.498 363.297 296.553 362.736 292.201C358.979 263.386 386.808 282.511 368.142 297.505C357.296 306.226 343.917 308.725 338.307 308.385C337.185 308.317 336.165 308.674 336.505 309.133C340.619 314.692 368.737 302.435 369.315 299.035C374.177 270.237 393.557 298.593 374.568 307.263C363.348 312.397 356.072 318.211 340.687 318.925C338.987 319.01 340.126 320.132 340.126 320.132C348.371 323.141 371.984 311.309 372.885 308.827C383.85 278.448 399.966 308.64 377.033 319.061C355.868 328.666 344.92 334.48 338.188 337.795L294.158 359.453C286.712 363.125 277.685 360.048 274.03 352.602L265.547 335.398C261.875 327.952 264.952 318.925 272.398 315.27V315.27Z" fill="white"/>
<path className="palm" fill-rule="evenodd" clip-rule="evenodd" d="M369.23 296.06H369.366L369.383 296.077C369.791 296.077 370.148 295.771 370.216 295.363C370.777 292.065 372.766 288.495 374.109 287.645C374.5 287.39 374.619 286.863 374.364 286.472C374.109 286.081 373.582 285.962 373.191 286.217C371.27 287.424 369.145 291.487 368.533 295.074C368.448 295.55 368.771 295.975 369.23 296.06ZM373.327 307.824C373.395 307.841 373.514 307.841 373.514 307.841V307.858C373.905 307.858 374.262 307.586 374.347 307.195C374.348 307.193 374.351 307.181 374.357 307.159C374.461 306.777 375.366 303.454 378.58 299.63C379.94 298.015 382.405 296.927 382.422 296.927C382.864 296.74 383.051 296.23 382.864 295.805C382.677 295.363 382.167 295.176 381.742 295.363C381.623 295.414 378.903 296.604 377.271 298.525C373.565 302.911 372.715 306.668 372.681 306.821C372.579 307.263 372.868 307.722 373.327 307.824Z" fill="#555555"/>
</g>
<defs>
<clipPath id="clip0_61_1487">
<rect width="153" height="85" fill="white" transform="translate(35 276)"/>
</clipPath>
<clipPath id="clip1_61_1487">
<rect width="153" height="85" fill="white" transform="translate(264 276)"/>
</clipPath>
</defs>
</svg>
