<svg width="450" height="450" viewBox="0 0 450 450" fill="none" xmlns="http://www.w3.org/2000/svg">
<g clip-path="url(#clip0_63_1541)">
<path d="M157.607 359.606L113.067 339.019C108.12 336.741 67.898 318.143 61.625 308.113C59.177 304.203 55.063 294.972 60.265 293.51C65.042 292.167 85.204 296.655 95.676 298.729C110.806 301.738 141.202 295.856 141.202 295.856L178.279 314.913C185.827 318.398 189.108 327.34 185.623 334.871L177.582 352.262C174.097 359.81 165.155 363.091 157.624 359.606H157.607Z" fill="white"/>
</g>
<path d="M293.393 359.606L337.933 339.019C342.88 336.741 383.102 318.143 389.375 308.113C391.823 304.203 395.937 294.972 390.735 293.51C385.958 292.167 365.796 296.655 355.324 298.729C340.194 301.738 309.798 295.856 309.798 295.856L272.738 314.913C265.19 318.398 261.909 327.34 265.394 334.871L273.435 352.262C276.92 359.81 285.862 363.091 293.393 359.606Z" fill="white"/>
<defs>
<clipPath id="clip0_63_1541">
<rect width="153" height="85" fill="white" transform="translate(34 276)"/>
</clipPath>
</defs>
</svg>
