<svg width="450" height="450" viewBox="0 0 450 450" fill="none" xmlns="http://www.w3.org/2000/svg">
<g clip-path="url(#clip0_63_1586)">
<path d="M123.411 338.806L160.36 353.034C168.101 356.015 171.98 364.723 168.993 372.48L162.109 390.36C159.127 398.102 150.42 401.981 142.662 398.993L96.8614 381.357C86.6129 377.411 81.501 365.897 85.4473 355.648C91.269 340.529 108.276 332.979 123.395 338.8L123.411 338.806Z" fill="white"/>
<path className="palm" fill-rule="evenodd" clip-rule="evenodd" d="M98.77 380.875C99.263 381.317 99.875 381.538 100.487 381.538L100.504 381.555C101.201 381.555 101.881 381.283 102.391 380.722C103.343 379.685 103.258 378.07 102.221 377.118C99.433 374.568 99.586 371.933 100.198 370.182C101.252 367.19 104.329 364.691 107.236 364.504C108.647 364.402 109.701 363.195 109.616 361.784C109.514 360.373 108.273 359.319 106.896 359.404C101.949 359.727 97.104 363.552 95.37 368.499C93.806 372.97 95.047 377.475 98.77 380.875ZM111.435 385.686C111.928 386.196 112.591 386.451 113.254 386.451L113.271 386.434C113.917 386.434 114.563 386.196 115.056 385.703C116.059 384.717 116.076 383.102 115.09 382.099C112.846 379.804 112.132 377.56 112.999 375.452C114.019 372.953 117.13 370.964 120.105 370.896C121.516 370.862 122.638 369.706 122.604 368.295C122.57 366.884 121.329 365.796 120.003 365.796C114.988 365.898 110.058 369.162 108.273 373.531C107.304 375.894 106.454 380.586 111.435 385.686Z" fill="#555555"/>
</g>
<g clip-path="url(#clip1_63_1586)">
<path d="M356.134 382.349L310.334 399.985C302.592 402.966 293.874 399.109 290.887 391.351L284.002 373.472C281.021 365.73 284.878 357.013 292.636 354.026L329.585 339.798C344.71 333.992 361.711 341.527 367.533 356.646C371.479 366.894 366.367 378.409 356.118 382.355L356.134 382.349Z" fill="white"/>
<path className="palm" fill-rule="evenodd" clip-rule="evenodd" d="M350.609 381.705C351.119 382.249 351.799 382.538 352.496 382.538H352.513C353.125 382.538 353.737 382.317 354.23 381.875C357.953 378.475 359.194 373.953 357.63 369.482C355.896 364.535 351.051 360.71 346.104 360.387C344.659 360.302 343.469 361.356 343.384 362.767C343.299 364.178 344.353 365.402 345.764 365.487C348.654 365.674 351.748 368.173 352.802 371.165C353.414 372.933 353.567 375.568 350.779 378.101C349.742 379.053 349.657 380.668 350.609 381.705ZM337.961 386.72C338.454 387.213 339.1 387.451 339.746 387.451L339.763 387.468C340.426 387.468 341.089 387.213 341.582 386.703C346.563 381.603 345.696 376.894 344.744 374.548C342.959 370.162 338.029 366.915 333.014 366.813C331.637 366.813 330.447 367.901 330.413 369.312C330.379 370.723 331.501 371.879 332.912 371.913C335.87 371.964 338.998 373.97 340.018 376.469C340.885 378.577 340.171 380.821 337.927 383.116C336.941 384.119 336.958 385.734 337.961 386.72Z" fill="#555555"/>
</g>
<defs>
<clipPath id="clip0_63_1586">
<rect width="153" height="85" fill="white" transform="translate(17 315)"/>
</clipPath>
<clipPath id="clip1_63_1586">
<rect width="153" height="85" fill="white" transform="translate(283 316)"/>
</clipPath>
</defs>
</svg>
