<svg width="450" height="450" viewBox="0 0 450 450" fill="none" xmlns="http://www.w3.org/2000/svg">
<g clip-path="url(#clip0_63_1604)">
<path d="M311.899 431.592L359.652 420.321C364.956 419.063 392.343 412.62 415.038 407.265C423.47 405.276 399.755 379.402 371.008 385.947C371.008 385.947 345.627 379.164 340.85 379.419L300.577 383.686C292.502 385.59 287.504 393.682 289.408 401.774L293.811 420.423C295.715 428.515 303.824 433.513 311.899 431.609V431.592Z" fill="white"/>
<path className="palm" fill-rule="evenodd" clip-rule="evenodd" d="M395.199 410.597C395.709 411.26 396.457 411.6 397.222 411.6V411.583C397.766 411.583 398.31 411.413 398.769 411.056C399.891 410.206 400.095 408.608 399.245 407.486L399.241 407.481C399.002 407.177 394.609 401.579 387.464 400.244C381.14 399.054 371.909 397.439 371.909 397.439L371.025 402.471C371.025 402.471 380.222 404.086 386.529 405.259C391.624 406.208 394.975 410.322 395.189 410.586C395.194 410.591 395.197 410.595 395.199 410.597ZM372.827 415.901C373.337 416.547 374.085 416.887 374.85 416.887C375.394 416.887 375.938 416.717 376.397 416.36C377.519 415.51 377.723 413.912 376.873 412.79L376.869 412.785C376.63 412.481 372.237 406.883 365.092 405.548C358.768 404.358 349.537 402.743 349.537 402.743L348.653 407.775C348.653 407.775 357.85 409.39 364.157 410.563C369.129 411.502 372.434 415.435 372.795 415.864C372.813 415.885 372.824 415.898 372.827 415.901Z" fill="#555555"/>
</g>
<g clip-path="url(#clip1_63_1604)">
<path d="M141.101 431.592L93.348 420.321C88.044 419.063 60.657 412.62 37.962 407.265C29.53 405.276 53.245 379.402 81.992 385.947C81.992 385.947 107.373 379.164 112.15 379.419L152.423 383.686C160.515 385.59 165.513 393.699 163.609 401.774L159.206 420.423C157.302 428.515 149.193 433.513 141.118 431.609L141.101 431.592Z" fill="white"/>
<path className="palm" fill-rule="evenodd" clip-rule="evenodd" d="M54.2308 411.073C54.6898 411.43 55.2338 411.6 55.7778 411.6H55.7948C56.5598 411.6 57.3248 411.26 57.8178 410.597C57.8348 410.563 61.2688 406.245 66.4708 405.276C72.7778 404.103 81.9748 402.488 81.9748 402.488L81.0908 397.456C81.0908 397.456 71.8598 399.071 65.5358 400.261C58.3878 401.593 54.015 407.171 53.7604 407.496C53.7582 407.499 53.7564 407.501 53.7548 407.503C52.9048 408.625 53.1088 410.223 54.2308 411.073ZM76.6028 416.343C77.0618 416.7 77.6058 416.87 78.1498 416.87C78.9148 416.87 79.6628 416.53 80.1728 415.884C80.2068 415.833 83.6068 411.532 88.8428 410.546C95.1498 409.373 104.347 407.758 104.347 407.758L103.463 402.726C103.463 402.726 94.2318 404.341 87.9078 405.531C80.7598 406.863 76.387 412.441 76.1324 412.766L76.1268 412.773C75.2768 413.895 75.4978 415.493 76.6028 416.343Z" fill="#555555"/>
</g>
<defs>
<clipPath id="clip0_63_1604">
<rect width="153" height="85" fill="white" transform="translate(289 347)"/>
</clipPath>
<clipPath id="clip1_63_1604">
<rect width="153" height="85" fill="white" transform="translate(11 347)"/>
</clipPath>
</defs>
</svg>
