<svg width="450" height="450" viewBox="0 0 450 450" fill="none" xmlns="http://www.w3.org/2000/svg">
<path d="M152.406 383.669L111.912 375.407C103.922 385.777 59.637 385.743 59.212 381.357C56.441 352.44 33.576 377.277 55.115 387.749C67.627 393.835 81.227 393.274 86.616 391.693C87.687 391.37 88.775 391.489 88.554 392.016C85.783 398.357 55.642 392.696 54.316 389.5C43.147 362.521 30.584 394.498 51.035 398.697C63.122 401.179 71.503 405.242 86.667 402.488C88.35 402.182 87.483 403.542 87.483 403.542C80.122 408.319 54.452 402.063 53.024 399.836C35.548 372.67 26.572 405.701 51.273 410.733C74.053 415.374 86.021 418.587 93.314 420.304L141.067 431.575C149.159 433.479 157.251 428.481 159.155 420.389L163.558 401.74C165.462 393.648 160.464 385.556 152.372 383.652L152.406 383.669Z" fill="white"/>
<path className="palm" fill-rule="evenodd" clip-rule="evenodd" d="M52.6501 386.1C52.7861 386.423 53.0921 386.627 53.4321 386.627H53.4491C53.5511 386.627 53.6701 386.61 53.7721 386.559C54.2141 386.389 54.4181 385.879 54.2311 385.454C52.8201 382.105 49.8451 378.62 47.7031 377.855C47.2611 377.685 46.7681 377.923 46.6151 378.365C46.4451 378.807 46.6831 379.3 47.1251 379.453C48.6211 379.98 51.3581 383.006 52.6501 386.1ZM51.2391 398.544C51.3751 398.85 51.6811 399.02 52.0041 399.02V399.054C52.1231 399.054 52.2421 399.02 52.3611 398.969C52.7861 398.765 52.9731 398.255 52.7691 397.83C52.768 397.828 52.7664 397.825 52.7645 397.821C52.646 397.581 50.9602 394.17 46.4451 390.775C44.4391 389.262 41.4981 388.701 41.3791 388.684C40.9201 388.599 40.4781 388.905 40.3931 389.364C40.3081 389.823 40.6141 390.265 41.0731 390.35C41.1071 390.35 43.7251 390.843 45.4251 392.118C49.6581 395.297 51.2391 398.51 51.2391 398.544Z" fill="#555555"/>
<path d="M300.594 383.278L341.088 375.016C349.078 385.386 393.363 385.352 393.788 380.966C396.559 352.049 419.424 376.886 397.885 387.358C385.373 393.444 371.773 392.883 366.384 391.302C365.313 390.979 364.225 391.098 364.446 391.625C367.217 397.966 397.358 392.305 398.684 389.109C409.853 362.13 422.416 394.107 401.965 398.306C389.878 400.788 381.497 404.851 366.333 402.097C364.65 401.791 365.517 403.151 365.517 403.151C372.878 407.928 398.548 401.672 399.976 399.445C417.452 372.279 426.428 405.31 401.727 410.342C378.947 414.983 366.979 418.196 359.686 419.913L311.933 431.184C303.841 433.088 295.749 428.09 293.845 419.998L289.408 401.366C287.504 393.274 292.502 385.182 300.594 383.278Z" fill="white"/>
<path className="palm" fill-rule="evenodd" clip-rule="evenodd" d="M399.245 386.559C399.347 386.61 399.466 386.627 399.568 386.627H399.585C399.908 386.627 400.231 386.423 400.367 386.1C401.659 383.006 404.396 379.98 405.892 379.453C406.334 379.3 406.555 378.807 406.402 378.365C406.232 377.923 405.756 377.702 405.314 377.855C403.172 378.62 400.18 382.105 398.786 385.454C398.599 385.879 398.82 386.372 399.245 386.559ZM400.639 398.935C400.741 399.003 400.877 399.02 400.996 399.02V398.986C401.319 398.986 401.608 398.816 401.761 398.51C401.762 398.509 401.767 398.499 401.777 398.481C401.953 398.15 403.583 395.094 407.575 392.084C409.258 390.809 411.91 390.316 411.927 390.316C412.386 390.231 412.692 389.789 412.607 389.33C412.522 388.871 412.08 388.582 411.621 388.65C411.502 388.667 408.578 389.228 406.555 390.741C401.965 394.192 400.299 397.643 400.231 397.796C400.027 398.221 400.214 398.731 400.639 398.935Z" fill="#555555"/>
</svg>
