<svg width="450" height="450" viewBox="0 0 450 450" fill="none" xmlns="http://www.w3.org/2000/svg">
<g clip-path="url(#clip0_60_1462)">
<path d="M160.718 354.369L122.06 339.715C112.506 348.674 68.799 341.534 69.088 337.148C70.992 308.163 44.438 329.022 64.022 342.792C75.395 350.799 88.91 352.431 94.486 351.734C95.591 351.598 96.645 351.887 96.339 352.363C92.582 358.177 63.733 347.756 62.951 344.407C56.253 315.983 38.726 345.529 58.242 352.958C69.768 357.361 77.401 362.699 92.803 362.41C94.52 362.376 93.449 363.583 93.449 363.583C85.425 367.119 61.098 356.834 60.027 354.403C47.141 324.789 32.98 355.967 56.542 364.875C78.285 373.103 89.573 378.203 96.509 381.076L141.848 399.861C149.515 403.04 158.321 399.402 161.5 391.718L168.827 374.021C172.006 366.354 168.368 357.548 160.684 354.369H160.718Z" fill="white"/>
<path className="palm" fill-rule="evenodd" clip-rule="evenodd" d="M62.6519 341.432C62.6553 341.432 62.6586 341.432 62.662 341.432H62.645C62.6473 341.432 62.6496 341.432 62.6519 341.432ZM61.829 340.786C61.9301 341.174 62.2652 341.428 62.6519 341.432C62.6836 341.431 62.7153 341.427 62.747 341.423C62.781 341.419 62.815 341.415 62.849 341.415C63.308 341.313 63.58 340.854 63.478 340.395C62.645 336.859 60.248 332.949 58.259 331.844C57.851 331.623 57.324 331.776 57.103 332.184C56.882 332.592 57.035 333.119 57.443 333.34C58.837 334.105 61.047 337.522 61.829 340.786ZM58.463 352.822C58.565 353.196 58.905 353.434 59.279 353.434L59.296 353.451C59.3686 353.451 59.4288 353.439 59.4978 353.424C59.5096 353.422 59.5216 353.419 59.534 353.417C59.976 353.281 60.248 352.822 60.112 352.363C60.1105 352.358 60.1081 352.351 60.1047 352.34C59.9938 351.99 58.8549 348.398 54.995 344.373C53.244 342.554 50.439 341.534 50.32 341.5C49.878 341.33 49.385 341.568 49.232 342.01C49.062 342.452 49.3 342.945 49.742 343.098C49.776 343.098 52.275 344.016 53.754 345.546C57.426 349.354 58.463 352.788 58.463 352.822Z" fill="#555555"/>
</g>
<g clip-path="url(#clip1_60_1462)">
<path d="M292.282 354.369L330.94 339.715C340.494 348.674 384.201 341.534 383.912 337.148C382.008 308.163 408.562 329.022 388.978 342.792C377.605 350.799 364.09 352.431 358.514 351.734C357.409 351.598 356.355 351.887 356.661 352.363C360.418 358.177 389.267 347.756 390.049 344.407C396.747 315.983 414.274 345.529 394.758 352.958C383.232 357.361 375.599 362.699 360.197 362.41C358.48 362.376 359.551 363.583 359.551 363.583C367.575 367.119 391.902 356.834 392.973 354.403C405.859 324.789 420.02 355.967 396.458 364.875C374.715 373.103 363.427 378.203 356.491 381.076L311.152 399.861C303.485 403.04 294.679 399.402 291.5 391.718L284.156 374.021C280.977 366.354 284.615 357.548 292.299 354.369H292.282Z" fill="white"/>
<path className="palm" d="M393.721 353.434C393.721 353.434 393.568 353.434 393.483 353.4C393.041 353.264 392.769 352.805 392.905 352.346C392.956 352.193 394.044 348.504 398.022 344.356C399.773 342.537 402.578 341.517 402.697 341.483C403.139 341.33 403.632 341.551 403.785 341.993C403.938 342.435 403.717 342.928 403.275 343.081C403.258 343.081 400.725 343.999 399.263 345.529C395.608 349.354 394.571 352.771 394.554 352.805C394.452 353.179 394.112 353.417 393.738 353.417L393.721 353.434Z" fill="#555555"/>
<path className="palm" d="M390.321 341.432C390.321 341.432 390.185 341.432 390.117 341.415C389.658 341.313 389.386 340.854 389.488 340.395C390.338 336.859 392.718 332.949 394.707 331.844C395.115 331.623 395.642 331.759 395.863 332.184C396.084 332.592 395.948 333.119 395.523 333.34C394.129 334.105 391.919 337.522 391.137 340.786C391.052 341.177 390.695 341.432 390.304 341.432H390.321Z" fill="#555555"/>
</g>
<defs>
<clipPath id="clip0_60_1462">
<rect width="153" height="85" fill="white" transform="translate(17 316)"/>
</clipPath>
<clipPath id="clip1_60_1462">
<rect width="153" height="85" fill="white" transform="translate(283 316)"/>
</clipPath>
</defs>
</svg>
