<svg width="36" height="36" viewBox="0 0 36 36" fill="none" xmlns="http://www.w3.org/2000/svg">
<circle cx="18" cy="18" r="16" stroke="#FF52BA" stroke-width="2.5"/>
<g clip-path="url(#clip0_1041_6726)">
<path d="M25.095 25.1901C22.805 26.7884 19.9407 26.9458 17.1236 26.9458C13.9106 26.9458 10.8847 25.6527 9.62146 23.1418C8.3582 20.6309 8.66204 17.3969 9.06577 15.0074C9.78071 10.7656 12.6255 7.89115 16.8899 7.9261C21.1543 7.96104 24.348 10.5596 25.095 15.0074C25.9938 20.3596 25.1816 21.0936 27.6823 21.6788C28.0566 22.3865 26.3527 24.3123 25.095 25.1901ZM15.9899 16.6281C15.9906 16.2944 15.8687 15.973 15.6491 15.7295C15.4295 15.486 15.1287 15.3387 14.8082 15.3175C14.6466 15.3046 14.4842 15.3249 14.3302 15.3772C14.1762 15.4295 14.0336 15.5127 13.9106 15.6223C13.7876 15.7318 13.6866 15.8654 13.6133 16.0155C13.54 16.1656 13.4958 16.3292 13.4834 16.497C13.471 16.6648 13.4905 16.8335 13.5408 16.9935C13.5912 17.1534 13.6714 17.3015 13.7768 17.4293C13.8822 17.5571 14.0109 17.6621 14.1554 17.7382C14.2999 17.8143 14.4574 17.8602 14.6189 17.8731C15.3801 17.9692 15.7965 17.4362 15.9899 16.6281ZM20.2964 16.7067C20.3033 16.3705 20.1829 16.0448 19.9612 15.7998C19.7394 15.5547 19.434 15.4098 19.1104 15.3962C18.9463 15.3723 18.7791 15.3855 18.6203 15.4348C18.4615 15.4842 18.3148 15.5685 18.1902 15.6822C18.0656 15.7958 17.9662 15.936 17.8985 16.0932C17.8309 16.2504 17.7967 16.4209 17.7983 16.5931C17.7787 16.7641 17.7942 16.9375 17.8438 17.1018C17.8934 17.2661 17.9759 17.4177 18.086 17.5465C18.1961 17.6752 18.3312 17.7783 18.4824 17.8489C18.6336 17.9195 18.7975 17.956 18.9633 17.9561C19.7203 17.9954 20.1534 17.5149 20.2964 16.7067Z" fill="#FF52BA"/>
</g>
<defs>
<clipPath id="clip0_1041_6726">
<rect width="25.284" height="21.07" fill="#FF52BA" transform="translate(5.55469 7.92578)"/>
</clipPath>
</defs>
</svg>
