<svg width="14" height="11" viewBox="0 0 14 11" fill="none" xmlns="http://www.w3.org/2000/svg">
<path d="M11.7938 9.98463C10.234 10.909 8.28308 11 6.36426 11C4.17575 11 2.1147 10.2522 1.25425 8.80003C0.393799 7.34789 0.60075 5.47752 0.875747 4.09556C1.36272 1.64238 3.3004 -0.0200293 6.20506 0.000182279C9.10972 0.0203939 11.285 1.52321 11.7938 4.09555C12.4061 7.19097 11.8528 7.61543 13.5561 7.95389C13.8111 8.36317 12.6505 9.47695 11.7938 9.98463ZM5.59204 5.03287C5.59248 4.8399 5.50945 4.65404 5.35988 4.51321C5.21031 4.37237 5.00546 4.28715 4.7871 4.27493C4.67707 4.26747 4.56645 4.27919 4.46155 4.30943C4.35665 4.33967 4.25954 4.38784 4.17575 4.45118C4.09196 4.51452 4.02314 4.5918 3.97321 4.6786C3.92328 4.7654 3.89323 4.86002 3.88477 4.95707C3.8763 5.05411 3.8896 5.15168 3.92389 5.24419C3.95817 5.33671 4.01279 5.42236 4.08461 5.49626C4.15643 5.57016 4.24404 5.63086 4.34246 5.6749C4.44088 5.71893 4.54817 5.74544 4.6582 5.75291C5.17668 5.80849 5.46027 5.50026 5.59204 5.03287ZM8.52535 5.07834C8.53003 4.88388 8.44804 4.69556 8.297 4.55384C8.14595 4.41212 7.9379 4.3283 7.71754 4.32041C7.60572 4.30659 7.49184 4.31422 7.38366 4.34277C7.27549 4.37131 7.17557 4.42011 7.09073 4.48582C7.00589 4.55153 6.93813 4.63262 6.89206 4.72354C6.84599 4.81446 6.82271 4.91307 6.8238 5.01265C6.81045 5.11155 6.821 5.21182 6.85478 5.30685C6.88855 5.40189 6.94477 5.48953 7.01975 5.56401C7.09472 5.63848 7.18674 5.6981 7.28973 5.73894C7.39273 5.77977 7.50436 5.80089 7.61728 5.8009C8.1329 5.82364 8.42796 5.54573 8.52535 5.07834Z" fill="white"/>
</svg>
