<svg width="444" height="480" viewBox="0 0 444 480" fill="none" xmlns="http://www.w3.org/2000/svg">
<g clip-path="url(#bgDsr)">
<path d="M55.011 455.91C55.2621 453.522 58.7379 453.522 58.989 455.91L59.6806 462.484C59.7657 463.293 60.3325 463.97 61.1141 464.196L69.3545 466.579C71.2806 467.136 71.2806 469.864 69.3545 470.421L61.1141 472.804C60.3325 473.03 59.7657 473.707 59.6806 474.516L58.989 481.09C58.7379 483.478 55.2621 483.478 55.011 481.09L54.3194 474.516C54.2343 473.707 53.6675 473.03 52.8859 472.804L44.6455 470.421C42.7194 469.864 42.7194 467.136 44.6455 466.579L52.8859 464.196C53.6675 463.97 54.2343 463.293 54.3194 462.484L55.011 455.91Z" fill="white"/>
<path d="M36.0297 11.2982C36.4149 9.08964 39.5851 9.08965 39.9703 11.2982L43.4012 30.9722C43.5461 31.8032 44.1968 32.4539 45.0278 32.5988L64.7018 36.0297C66.9104 36.4149 66.9104 39.5851 64.7018 39.9703L45.0278 43.4012C44.1968 43.5461 43.5461 44.1968 43.4012 45.0278L39.9703 64.7018C39.5851 66.9104 36.4149 66.9104 36.0297 64.7018L32.5988 45.0278C32.4539 44.1968 31.8032 43.5461 30.9722 43.4012L11.2982 39.9703C9.08964 39.5851 9.08965 36.4149 11.2982 36.0297L30.9722 32.5988C31.8032 32.4539 32.4539 31.8032 32.5988 30.9722L36.0297 11.2982Z" fill="white"/>
<path d="M305.218 184.105C308.151 182.147 311.999 184.667 311.377 188.138L310.364 193.784C310.05 195.538 310.934 197.288 312.531 198.077L317.675 200.616C320.837 202.177 320.579 206.768 317.262 207.965L311.866 209.912C310.19 210.516 309.116 212.157 309.232 213.934L309.605 219.659C309.834 223.178 305.728 225.25 303.033 222.976L298.649 219.276C297.288 218.127 295.33 218.017 293.849 219.006L289.078 222.191C286.145 224.149 282.297 221.63 282.92 218.158L283.932 212.512C284.246 210.758 283.363 209.008 281.765 208.22L276.621 205.68C273.459 204.12 273.717 199.528 277.034 198.331L282.43 196.384C284.106 195.78 285.18 194.14 285.064 192.362L284.692 186.638C284.462 183.119 288.568 181.046 291.263 183.321L295.647 187.02C297.008 188.169 298.966 188.279 300.448 187.29L305.218 184.105Z" fill="white"/>
</g>
<defs>
<clipPath id="bgDsr">
<rect width="444" height="480" fill="white" transform="matrix(1 0 0 -1 0 480)"/>
</clipPath>
</defs>
</svg>
