<svg width="284" height="317" viewBox="0 0 284 317" fill="none" xmlns="http://www.w3.org/2000/svg">
<g clip-path="url(#clip0_44_1411)">
<path d="M257.767 12.5712C258.532 11.7297 259.885 12.6153 259.419 13.6532L257.786 17.2944C257.526 17.8739 257.866 18.5456 258.486 18.6807L262.385 19.5296C263.497 19.7716 263.406 21.3857 262.274 21.5015L258.305 21.9081C257.673 21.9728 257.261 22.6023 257.454 23.2072L258.668 27.0085C259.015 28.0921 257.571 28.8205 256.905 27.8985L254.568 24.6638C254.196 24.149 253.445 24.1068 253.018 24.5766L250.333 27.529C249.568 28.3706 248.215 27.485 248.681 26.4471L250.314 22.8058C250.573 22.2263 250.234 21.5546 249.614 21.4195L245.715 20.5706C244.603 20.3286 244.694 18.7146 245.825 18.5987L249.795 18.1921C250.427 18.1274 250.839 17.4979 250.646 16.893L249.431 13.0917C249.085 12.0082 250.529 11.2797 251.195 12.2017L253.532 15.4365C253.904 15.9512 254.655 15.9934 255.082 15.5236L257.767 12.5712Z" fill="white"/>
</g>
<defs>
<clipPath id="clip0_44_1411">
<rect width="284" height="317" fill="white" transform="matrix(1 0 0 -1 0 317)"/>
</clipPath>
</defs>
</svg>
