<svg width="525" height="828" viewBox="0 0 525 828" fill="none" xmlns="http://www.w3.org/2000/svg">
<g clip-path="url(#clip0_44_1370)">
<path d="M142.729 -67.4502C114.174 -155.791 28.5181 -104.615 0.767522 -152.605C-26.9831 -200.595 11.296 -249.018 11.296 -249.018L842.922 -69.3772L759.64 706.991C479.927 743.36 629.353 551.855 579.116 483.857C534.106 422.934 444.206 476.543 393.668 420.638C322.481 341.894 441.28 261.458 369.663 182.092C298.422 103.144 183.172 203.437 132.701 124.675C82.2299 45.912 163.731 -2.47478 142.729 -67.4502Z" fill="url(#paint0_linear_44_1370)" fill-opacity="0.6"/>
<path fill-rule="evenodd" clip-rule="evenodd" d="M32.7289 33.55C27.9892 18.8867 21.6764 8.06726 14.3163 0.000121686H586.527L525 -13.2905V-319V-320H524H-195V-397H795V0.000121686H586.527L732.922 31.623L649.64 807.991C458.07 832.9 467.792 750.921 476.804 674.936C480.951 639.976 484.947 606.284 469.116 584.857C446.095 553.696 411.33 552.498 376.094 551.284C342.44 550.124 308.357 548.949 283.668 521.638C248.132 482.33 259.939 442.601 271.769 402.793C283.638 362.855 295.53 322.84 259.663 283.092C223.762 243.307 176.686 249.041 132.355 254.44C88.716 259.755 47.738 264.746 22.701 225.675C-6.02098 180.853 7.99603 145.868 21.5395 112.065C31.7951 86.4684 41.7791 61.5494 32.7289 33.55ZM-195 -319H524V-13.5065L-98.704 -148.018C-98.704 -148.018 -136.983 -99.5952 -109.233 -51.6049C-97.5682 -31.4333 -75.6735 -28.7819 -52.089 -25.9259C-29.2672 -23.1622 -4.86301 -20.207 13.3852 -1H-195V-319Z" fill="url(#paint1_linear_44_1370)" fill-opacity="0.7"/>
</g>
<defs>
<linearGradient id="paint0_linear_44_1370" x1="498.24" y1="-160.057" x2="349.528" y2="653.937" gradientUnits="userSpaceOnUse">
<stop stop-color="#DB8DB3"/>
<stop offset="1" stop-color="#C45CE9"/>
</linearGradient>
<linearGradient id="paint1_linear_44_1370" x1="394.605" y1="-284.979" x2="192.76" y2="734.244" gradientUnits="userSpaceOnUse">
<stop stop-color="#DB8DB3"/>
<stop offset="1" stop-color="#C45CE9"/>
</linearGradient>
<clipPath id="clip0_44_1370">
<rect width="525" height="828" fill="white" transform="matrix(1 0 0 -1 0 828)"/>
</clipPath>
</defs>
</svg>
