<svg width="598" height="497" viewBox="0 0 598 497" fill="none" xmlns="http://www.w3.org/2000/svg">
<path fill-rule="evenodd" clip-rule="evenodd" d="M0 0H210.5C275 0 327.5 8.4 327.5 76C327.5 143.6 258.5 147 210.5 147H90C16 147 21 189 21 189C21 189 11 228.5 90 228.5H510.5C578.5 228.5 597.5 253 597.5 283.5C597.5 314 563 332 510.5 332H200C197.843 332.158 195.58 332.306 193.243 332.46C165.97 334.25 128.5 336.71 128.5 362.5C128.5 390.5 172.667 397.5 200 397.5H492.5C519 397.5 554.5 408 554.5 446C554.5 472.071 540.614 488.964 521.4 497H0V0Z" fill="url(#paint0_linear_44_1369)" fill-opacity="0.5"/>
<defs>
<linearGradient id="paint0_linear_44_1369" x1="291.5" y1="-129" x2="291.5" y2="373.5" gradientUnits="userSpaceOnUse">
<stop stop-color="#7FDBE8"/>
<stop offset="1" stop-color="#AF9BFF"/>
</linearGradient>
</defs>
</svg>
