<svg width="622" height="461" viewBox="0 0 622 461" fill="none" xmlns="http://www.w3.org/2000/svg">
<g clip-path="url(#clip0_48_1293)">
<path fill-rule="evenodd" clip-rule="evenodd" d="M-392.854 407.636C-392.854 437.178 -368.905 461.127 -339.363 461.127H193.052C222.594 461.127 246.543 437.178 246.543 407.636C246.543 378.094 222.594 354.146 193.052 354.146H93.6877C73.3963 354.011 56.9902 338.166 56.9902 318.64C56.9902 299.089 73.4369 283.229 93.7631 283.133C93.7038 283.133 93.6445 283.133 93.5852 283.133H-341.477C-341.576 283.133 -341.675 283.133 -341.774 283.134C-322.624 283.294 -307.149 299.129 -307.149 318.64C-307.149 338.15 -322.624 353.986 -341.774 354.145C-341.675 354.146 -341.576 354.146 -341.477 354.146H-339.67C-369.071 354.312 -392.854 378.197 -392.854 407.636ZM-523 226.184C-523 257.636 -497.503 283.133 -466.051 283.133H419.051C450.503 283.133 476 257.636 476 226.184C476 194.731 450.503 169.234 419.051 169.234H-466.051C-497.503 169.234 -523 194.731 -523 226.184ZM-182.312 98.22C-209.435 98.22 -231.422 76.2328 -231.422 49.11C-231.422 21.9874 -209.435 9.15527e-05 -182.312 9.15527e-05H563.38C590.503 9.15527e-05 612.49 21.9874 612.49 49.11C612.49 76.2328 590.503 98.22 563.38 98.22H-182.312ZM-108.527 133.727C-108.527 114.217 -124.002 98.3814 -143.151 98.2215C-143.052 98.2207 -142.953 98.2203 -142.854 98.2203H292.208L292.282 98.2204L292.386 98.2208C272.06 98.3165 255.613 114.177 255.613 133.727C255.613 153.278 272.06 169.138 292.386 169.233C292.327 169.234 292.267 169.234 292.208 169.234H-142.854C-142.953 169.234 -143.052 169.233 -143.151 169.233C-124.002 169.073 -108.527 153.238 -108.527 133.727Z" fill="url(#paint0_linear_48_1293)" fill-opacity="0.5"/>
</g>
<defs>
<linearGradient id="paint0_linear_48_1293" x1="-23.5" y1="461.127" x2="-23.5" y2="9.15527e-05" gradientUnits="userSpaceOnUse">
<stop stop-color="#92C2E3" stop-opacity="0.47"/>
<stop offset="0.963542" stop-color="#A08CED" stop-opacity="0.83"/>
</linearGradient>
<clipPath id="clip0_48_1293">
<rect width="622" height="461" fill="white"/>
</clipPath>
</defs>
</svg>
