<svg width="732" height="350" viewBox="0 0 732 350" fill="none" xmlns="http://www.w3.org/2000/svg">
<g clip-path="url(#clip0_48_1501)">
<path fill-rule="evenodd" clip-rule="evenodd" d="M142.146 63.4907C142.146 33.9486 166.095 10 195.637 10H728.052C757.594 10 781.543 33.9486 781.543 63.4907C781.543 93.0328 757.594 116.981 728.052 116.981H628.694C608.4 117.113 591.99 132.959 591.99 152.487C591.99 172.038 608.438 187.899 628.765 187.994L628.641 187.994L628.586 187.994H193.524C193.424 187.994 193.324 187.994 193.225 187.993C212.376 187.834 227.852 171.999 227.852 152.487C227.852 132.977 212.377 117.142 193.228 116.982C193.327 116.981 193.425 116.981 193.524 116.981H195.34C165.935 116.821 142.146 92.9336 142.146 63.4907ZM12 244.943C12 213.491 37.497 187.994 68.9491 187.994H954.051C985.503 187.994 1011 213.491 1011 244.943C1011 276.396 985.503 301.893 954.051 301.893H68.9491C37.497 301.893 12 276.396 12 244.943ZM162.688 372.907C135.565 372.907 113.578 394.894 113.578 422.017C113.578 449.14 135.565 471.127 162.688 471.127H908.38C935.503 471.127 957.49 449.14 957.49 422.017C957.49 394.894 935.503 372.907 908.38 372.907H162.688ZM426.473 337.4C426.473 356.91 410.998 372.746 391.849 372.905C391.948 372.906 392.047 372.907 392.146 372.907H827.208L827.282 372.907L827.386 372.906C807.059 372.81 790.613 356.95 790.613 337.4C790.613 317.849 807.059 301.989 827.386 301.894L827.302 301.893L827.208 301.893H392.146C392.047 301.893 391.948 301.894 391.849 301.894C410.998 302.054 426.473 317.889 426.473 337.4Z" fill="url(#paint0_linear_48_1501)" fill-opacity="0.3"/>
</g>
<defs>
<linearGradient id="paint0_linear_48_1501" x1="511.5" y1="10" x2="511.5" y2="471.127" gradientUnits="userSpaceOnUse">
<stop stop-color="#FA91FC" stop-opacity="0.59"/>
<stop offset="0.963542" stop-color="#F7BF6C"/>
</linearGradient>
<clipPath id="clip0_48_1501">
<rect width="732" height="350" fill="white"/>
</clipPath>
</defs>
</svg>
