<svg viewBox="0 0 1140 460" fill="none" xmlns="http://www.w3.org/2000/svg" xmlns:xlink="http://www.w3.org/1999/xlink">
<path d="M1104.5 0H339C323.167 0 291.5 10.7 291.5 53.5C291.5 96.3 317.833 101 331 98H391C399.333 98 416 104.6 416 131C416 157.4 399.333 168.333 391 170.5H49C32.6667 174.167 0 191.9 0 233.5C0 275.1 32.6667 285.5 49 285.5H200C205.333 289.167 216.3 301.5 217.5 321.5C218.7 341.5 206.333 352.833 200 356H173.5C160.333 356 134 366.1 134 406.5C134 446.9 160.333 459 173.5 460H726.5C739.667 454.333 766 435.7 766 406.5C766 377.3 739.667 360.667 726.5 356H608.5C598.5 355.5 578.5 347.9 578.5 321.5C578.5 295.1 598.5 286.5 608.5 285.5H952C967.167 281.167 997.5 264.7 997.5 233.5C997.5 202.3 967.167 178.5 952 170.5H802C794.167 171 778.2 165.4 777 139C775.8 112.6 793.167 100.667 802 98H1104.5C1116.17 93.6667 1139.5 78.7 1139.5 53.5C1139.5 28.3 1116.17 7.33333 1104.5 0Z" fill="url(#paint0_linear_1787_9447)" fill-opacity="0.5" />
<defs>
<linearGradient id="paint0_linear_1787_9447" x1="569.75" y1="0" x2="569.75" y2="460" gradientUnits="userSpaceOnUse">
<stop offset="0" stop-color="#A08CED" stop-opacity="0.8"/>
<stop offset="1" stop-color="#92C2E3" stop-opacity="0.5"/>
</linearGradient>
</defs>
</svg>
