<svg width="714" height="570" viewBox="0 0 714 570" fill="none" xmlns="http://www.w3.org/2000/svg">
<path d="M679.001 338.306C717.05 363.699 724.624 416.126 695.445 452.138L684.057 466.194C680.36 470.757 676.255 474.983 671.792 478.82L596.155 543.847C564.356 571.186 518.444 574.679 483.648 552.407V552.407C454.222 533.571 416.288 532.916 385.575 550.713L375.779 556.389C329.385 583.272 270.389 568.414 243.755 523.138V523.138C227.056 494.75 196.587 477.133 163.142 476.528L138.068 476.074C50.526 474.489 -13.4227 395.754 3.5927 310.505L6.99998 293.434L16.6028 215.493C22.243 169.714 61.3425 134.626 107.888 133.573L125.068 133.184C161.374 132.362 191.973 105.203 196.772 69.5395L197.466 64.3827C205.171 7.13534 275.861 -17.5481 316.875 22.6881V22.6881C339.464 44.8487 374.646 48.7654 402.311 32.1993L437.865 10.9097C445.043 6.61113 452.96 3.68995 461.193 2.30231L465.421 1.58968C509.423 -5.82695 546.242 33.0659 535.915 76.0546V76.0546C527.196 112.351 552.376 147.481 589.713 151.11L628.756 154.904V154.904C664.277 155.706 683.77 195.46 662.699 224.13L647.262 245.135C627.826 271.581 634.044 308.303 661.006 326.297L679.001 338.306Z" fill="url(#paint0_radial_1756_10040)" fill-opacity="0.3"/>
<defs>
<radialGradient id="paint0_radial_1756_10040" cx="0" cy="0" r="1" gradientUnits="userSpaceOnUse" gradientTransform="translate(383.651 370.401) rotate(17.5712) scale(464.05 367.528)">
<stop stop-color="#F13D94" stop-opacity="0.51"/>
<stop offset="1" stop-color="#FFE68B" stop-opacity="0"/>
</radialGradient>
</defs>
</svg>
