<svg viewBox="0 0 1008 464" fill="none" xmlns="http://www.w3.org/2000/svg">
<path d="M733.499 0.859131H283.499H176.999C146.499 0.859117 120.999 25.9997 120.999 57C120.999 88.0003 148.999 106 176.999 106L205.499 106.359C220.999 106 251.499 112.8 251.499 146C251.499 179.2 217.499 182.359 205.499 182.359H58.499C19.999 182.359 -0.000976498 204 0 240C0.000976569 276 37.999 289.359 58.499 289.359H402.999C410.166 289.359 438.5 297 438.5 325C438.5 353 410.166 361.026 402.999 361.859H148.999C130 361.859 85 367 85 413C85 459 126.5 463.359 148.999 463.359H919.499C935.5 463.359 976.568 449 975 412C973.432 375 933.5 361.859 919.499 361.859H828C820.833 363.693 792.5 352.696 792.5 326.5C792.5 300.5 818.167 293.693 828 289.359H964.999C979.166 289.859 1007.5 280.959 1007.5 241.359C1007.5 201.759 979.166 185.526 964.999 182.359H616.999C604.499 182.359 574.499 171 574.499 146.5C574.499 122 593.499 106.359 616.999 106.359H733.499C764.999 106.359 784.999 85.0003 784.999 56.5003C784.999 25.4747 767.999 0.859131 733.499 0.859131Z" fill="url(#paint0_linear_1787_9445)" fill-opacity="0.3"/>
<defs>
<linearGradient id="paint0_linear_1787_9445" x1="506.25" y1="2.44318e-07" x2="506.25" y2="463.375" gradientUnits="userSpaceOnUse">
<stop stop-color="#FA91E8" stop-opacity="0.6"/>
<stop offset="1" stop-color="#F6BF6C"/>
</linearGradient>
</defs>
</svg>
