<svg width="644" height="230" viewBox="0 0 644 230" fill="none" xmlns="http://www.w3.org/2000/svg">
<g clip-path="url(#clip0_48_1397)">
<path d="M746.638 -35.8373C787.54 -8.53996 795.926 47.6976 764.908 86.6819L745.633 110.906C740.559 117.284 734.822 123.121 728.521 128.321L657.544 186.88C622.901 215.462 573.85 218.692 536.592 194.843V194.843C504.534 174.323 463.208 173.609 429.748 192.998L419.841 198.738C369.891 227.681 306.374 211.684 277.699 162.938V162.938C259.719 132.374 226.915 113.407 190.907 112.755L171.463 112.403C78.1035 110.714 14.3219 20.499 44.2703 -67.5025L47.5014 -76.997C52.7797 -92.5069 54.863 -108.855 53.627 -125.067L50.9817 -159.764C47.0765 -210.985 87.9526 -255.501 139.973 -256.679L149.915 -256.904C189.004 -257.789 221.948 -287.029 227.115 -325.426L227.862 -330.978C236.157 -392.613 312.266 -419.188 356.423 -375.868V-375.868C380.743 -352.009 418.622 -347.792 448.408 -365.628L486.686 -388.55C494.414 -393.178 502.938 -396.323 511.802 -397.817L516.354 -398.584C563.729 -406.569 603.37 -364.695 592.251 -318.412V-318.412C582.864 -279.333 609.974 -241.511 650.173 -237.604L692.207 -233.519V-233.519C730.451 -232.655 751.438 -189.855 728.753 -158.988L712.132 -136.372C691.206 -107.899 697.901 -68.3632 726.93 -48.99L746.638 -35.8373Z" fill="url(#paint0_radial_48_1397)" fill-opacity="0.5"/>
<path d="M723.001 -71.6938C761.05 -46.3008 768.624 6.12591 739.445 42.1385L728.057 56.1937C724.36 60.7569 720.255 64.9834 715.792 68.8203L640.155 133.847C608.356 161.186 562.444 164.679 527.648 142.407V142.407C498.222 123.571 460.288 122.916 429.575 140.713L419.779 146.389C373.385 173.272 314.389 158.414 287.755 113.138V113.138C271.056 84.7501 240.587 67.1328 207.142 66.5275L182.068 66.0737C94.526 64.4894 30.5773 -14.2461 47.5927 -99.4952L51 -116.566L60.6028 -194.507C66.243 -240.286 105.343 -275.374 151.888 -276.427L169.068 -276.816C205.374 -277.638 235.973 -304.797 240.772 -340.461L241.466 -345.617C249.171 -402.865 319.861 -427.548 360.875 -387.312V-387.312C383.464 -365.151 418.646 -361.235 446.311 -377.801L481.865 -399.09C489.043 -403.389 496.96 -406.31 505.193 -407.698L509.421 -408.41C553.423 -415.827 590.242 -376.934 579.915 -333.945V-333.945C571.196 -297.649 596.376 -262.519 633.713 -258.89L672.756 -255.096V-255.096C708.277 -254.294 727.77 -214.54 706.699 -185.87L691.262 -164.865C671.826 -138.419 678.044 -101.697 705.006 -83.7033L723.001 -71.6938Z" fill="url(#paint1_radial_48_1397)" fill-opacity="0.3"/>
</g>
<defs>
<radialGradient id="paint0_radial_48_1397" cx="0" cy="0" r="1" gradientUnits="userSpaceOnUse" gradientTransform="translate(428.316 -1.5056) rotate(17.5712) scale(499.616 395.697)">
<stop stop-color="#F13D94" stop-opacity="0.51"/>
<stop offset="1" stop-color="#FFE68B" stop-opacity="0"/>
</radialGradient>
<radialGradient id="paint1_radial_48_1397" cx="0" cy="0" r="1" gradientUnits="userSpaceOnUse" gradientTransform="translate(427.651 -39.5992) rotate(17.5712) scale(464.05 367.528)">
<stop stop-color="#F13D94" stop-opacity="0.51"/>
<stop offset="1" stop-color="#FFE68B" stop-opacity="0"/>
</radialGradient>
<clipPath id="clip0_48_1397">
<rect width="644" height="230" fill="white"/>
</clipPath>
</defs>
</svg>
