<svg width="748" height="614" viewBox="0 0 748 614" fill="none" xmlns="http://www.w3.org/2000/svg">
<path d="M710.638 364.163C751.54 391.46 759.926 447.698 728.908 486.682L709.633 510.907C704.559 517.284 698.822 523.122 692.521 528.321L621.544 586.881C586.901 615.463 537.85 618.692 500.592 594.843V594.843C468.534 574.323 427.208 573.61 393.748 592.998L383.841 598.738C333.891 627.681 270.374 611.684 241.699 562.939V562.939C223.719 532.375 190.915 513.407 154.907 512.755L135.463 512.404C42.1035 510.714 -21.6781 420.499 8.27027 332.498L11.5014 323.003C16.7797 307.493 18.863 291.145 17.627 274.933L14.9817 240.237C11.0765 189.015 51.9526 144.499 103.973 143.322L113.915 143.097C153.004 142.212 185.948 112.971 191.115 74.5741L191.862 69.022C200.157 7.38697 276.266 -19.1882 320.423 24.1318V24.1318C344.743 47.9909 382.622 52.2078 412.408 34.372L450.686 11.4507C458.414 6.82271 466.938 3.67765 475.802 2.18365L480.354 1.4164C527.729 -6.56867 567.37 35.3051 556.251 81.5886V81.5886C546.864 120.667 573.974 158.489 614.173 162.396L656.207 166.482V166.482C694.451 167.345 715.438 210.145 692.753 241.013L676.132 263.628C655.206 292.101 661.901 331.637 690.93 351.01L710.638 364.163Z" fill="url(#paint0_radial_1756_10039)" fill-opacity="0.5"/>
<defs>
<radialGradient id="paint0_radial_1756_10039" cx="0" cy="0" r="1" gradientUnits="userSpaceOnUse" gradientTransform="translate(392.316 398.495) rotate(17.5712) scale(499.616 395.697)">
<stop stop-color="#F13D94" stop-opacity="0.51"/>
<stop offset="1" stop-color="#FFE68B" stop-opacity="0"/>
</radialGradient>
</defs>
</svg>
