<svg width="3107" height="880" viewBox="0 0 3107 880" fill="none" xmlns="http://www.w3.org/2000/svg">
<rect x="979.758" y="201.938" width="208.156" height="663.705" fill="#1D1C34"/>
<rect x="632" y="328.487" width="189.459" height="537.156" fill="#1D1C34"/>
<rect x="2624" y="328" width="189.459" height="537.156" fill="#1D1C34"/>
<rect x="2847" y="267" width="260" height="599" fill="#1D1C34"/>
<rect x="1221.57" width="301.639" height="865.643" fill="#1D1C34"/>
<rect x="1959.46" y="300.215" width="229.345" height="565.428" fill="#1D1C34"/>
<rect y="314.398" width="229.345" height="565.428" fill="#1D1C34"/>
<rect x="2278.55" y="119.817" width="255.521" height="745.826" fill="#1D1C34"/>
<rect x="319.089" y="134" width="255.521" height="745.826" fill="#1D1C34"/>
<rect x="1580.54" y="75.3901" width="289.175" height="790.253" fill="#1D1C34"/>
<rect x="1604.78" y="107" width="33.6279" height="43.0802" fill="#2D2B60"/>
<rect x="1656.62" y="107" width="33.6279" height="43.0802" fill="#2D2B60"/>
<rect x="1708.46" y="107" width="33.6279" height="43.0802" fill="#2D2B60"/>
<rect x="1760.31" y="107" width="33.6279" height="43.0802" fill="#2D2B60"/>
<rect x="1812.15" y="107" width="33.6279" height="43.0802" fill="#2D2B60"/>
<rect x="1604.78" y="187.08" width="33.6279" height="43.0802" fill="#2D2B60"/>
<rect x="1656.62" y="187.08" width="33.6279" height="43.0802" fill="#2D2B60"/>
<rect x="1708.46" y="187.08" width="33.6279" height="43.0802" fill="#2D2B60"/>
<rect x="1760.31" y="187.08" width="33.6279" height="43.0802" fill="#2D2B60"/>
<rect x="1812.15" y="187.08" width="33.6279" height="43.0802" fill="#2D2B60"/>
<rect x="1604.78" y="267.16" width="33.6279" height="43.0802" fill="#2D2B60"/>
<rect x="1656.62" y="267.16" width="33.6279" height="43.0802" fill="#2D2B60"/>
<rect x="1708.46" y="267.16" width="33.6279" height="43.0802" fill="#2D2B60"/>
<rect x="1760.31" y="267.16" width="33.6279" height="43.0802" fill="#2D2B60"/>
<rect x="1812.15" y="267.16" width="33.6279" height="43.0802" fill="#2D2B60"/>
<rect x="1604.78" y="347.24" width="33.6279" height="43.0802" fill="#2D2B60"/>
<rect x="1656.62" y="347.24" width="33.6279" height="43.0802" fill="#2D2B60"/>
<rect x="1708.46" y="347.24" width="33.6279" height="43.0802" fill="#2D2B60"/>
<rect x="1760.31" y="347.24" width="33.6279" height="43.0802" fill="#2D2B60"/>
<rect x="1812.15" y="347.24" width="33.6279" height="43.0802" fill="#2D2B60"/>
<rect x="1604.78" y="427.32" width="33.6279" height="43.0802" fill="#2D2B60"/>
<rect x="1656.62" y="427.32" width="33.6279" height="43.0802" fill="#2D2B60"/>
<rect x="1708.46" y="427.32" width="33.6279" height="43.0802" fill="#2D2B60"/>
<rect x="1760.31" y="427.32" width="33.6279" height="43.0802" fill="#2D2B60"/>
<rect x="1812.15" y="427.32" width="33.6279" height="43.0802" fill="#2D2B60"/>
<rect x="1604.78" y="507.4" width="33.6279" height="43.0802" fill="#2D2B60"/>
<rect x="1656.62" y="507.4" width="33.6279" height="43.0802" fill="#2D2B60"/>
<rect x="1708.46" y="507.4" width="33.6279" height="43.0802" fill="#2D2B60"/>
<rect x="1760.31" y="507.4" width="33.6279" height="43.0802" fill="#2D2B60"/>
<rect x="1812.15" y="507.4" width="33.6279" height="43.0802" fill="#2D2B60"/>
<rect x="1604.78" y="587.48" width="33.6279" height="43.0802" fill="#2D2B60"/>
<rect x="1656.62" y="587.48" width="33.6279" height="43.0802" fill="#2D2B60"/>
<rect x="1708.46" y="587.48" width="33.6279" height="43.0802" fill="#2D2B60"/>
<rect x="1760.31" y="587.48" width="33.6279" height="43.0802" fill="#2D2B60"/>
<rect x="1812.15" y="587.48" width="33.6279" height="43.0802" fill="#2D2B60"/>
<rect x="1604.78" y="667.561" width="33.6279" height="43.0802" fill="#2D2B60"/>
<rect x="1656.62" y="667.561" width="33.6279" height="43.0802" fill="#2D2B60"/>
<rect x="1708.46" y="667.561" width="33.6279" height="43.0802" fill="#2D2B60"/>
<rect x="1760.31" y="667.561" width="33.6279" height="43.0802" fill="#2D2B60"/>
<rect x="1812.15" y="667.561" width="33.6279" height="43.0802" fill="#2D2B60"/>
<rect x="1604.78" y="747.641" width="33.6279" height="43.0802" fill="#2D2B60"/>
<rect x="1656.62" y="747.641" width="33.6279" height="43.0802" fill="#2D2B60"/>
<rect x="1708.46" y="747.641" width="33.6279" height="43.0802" fill="#2D2B60"/>
<rect x="1760.31" y="747.641" width="33.6279" height="43.0802" fill="#2D2B60"/>
<rect x="1812.15" y="747.641" width="33.6279" height="43.0802" fill="#2D2B60"/>
</svg>
