<svg width="2996" height="566" viewBox="0 0 2996 566" fill="none" xmlns="http://www.w3.org/2000/svg">
<rect width="172.009" height="514.27" transform="matrix(-1 0 0 1 2134.02 51.1577)" fill="#2D2B60"/>
<rect width="304.132" height="464.459" transform="matrix(-1 0 0 1 2507.95 100.969)" fill="#2D2B60"/>
<rect width="210" height="308" transform="matrix(-1 0 0 1 2752 257)" fill="#2D2B60"/>
<rect width="210" height="308" transform="matrix(-1 0 0 1 2996 257)" fill="#2D2B60"/>
<rect width="289.175" height="565.428" transform="matrix(-1 0 0 1 1868.52 0)" fill="#2D2B60"/>
<rect width="289.175" height="398.492" transform="matrix(-1 0 0 1 1271.48 166.936)" fill="#2D2B60"/>
<rect width="211" height="282" transform="matrix(-1 0 0 1 453 283)" fill="#2D2B60"/>
<rect width="211" height="282" transform="matrix(-1 0 0 1 211 283)" fill="#2D2B60"/>
<rect width="388.89" height="460.42" transform="matrix(-1 0 0 1 950.89 105)" fill="#2D2B60"/>
<rect width="176.995" height="398.492" transform="matrix(-1 0 0 1 1479.63 166.936)" fill="#2D2B60"/>
</svg>
