<svg width="3107" height="544" viewBox="0 0 3107 544" fill="none" xmlns="http://www.w3.org/2000/svg">
<rect x="875.881" y="72.6978" width="438.748" height="471.19" fill="#6765B0"/>
<rect width="347" height="139" transform="matrix(-1 0 0 1 347 404)" fill="#6765B0"/>
<rect x="1565.16" y="228.864" width="264.246" height="315.024" fill="#6765B0"/>
<rect x="1360.75" y="324.448" width="183.227" height="219.44" fill="#6765B0"/>
<rect x="1922.89" width="506.056" height="543.888" fill="#6765B0"/>
<rect x="2524" y="214" width="404" height="330" fill="#6765B0"/>
<rect x="2974" y="43" width="133" height="500" fill="#6765B0"/>
<rect x="396" y="145.396" width="349.004" height="398.492" fill="#6765B0"/>
<rect x="1572.64" y="161.551" width="124.644" height="67.3128" fill="#6765B0"/>
<rect x="1565.16" y="156.166" width="153.312" height="5.38503" fill="#6765B0"/>
<rect x="1585.11" y="183.09" width="24.9289" height="30.9639" fill="#D7D7D7"/>
<rect x="1585.11" y="245.018" width="30.9717" height="43.0802" fill="#2D2B60"/>
<rect x="1632.85" y="245.018" width="30.9717" height="43.0802" fill="#2D2B60"/>
<rect x="1585.11" y="324.447" width="30.9717" height="43.0802" fill="#2D2B60"/>
<rect x="1632.85" y="324.447" width="30.9717" height="43.0802" fill="#2D2B60"/>
<rect x="1585.11" y="403.876" width="30.9717" height="43.0802" fill="#2D2B60"/>
<rect x="1632.85" y="403.876" width="30.9717" height="43.0802" fill="#2D2B60"/>
<rect x="1585.11" y="483.306" width="30.9717" height="43.0802" fill="#2D2B60"/>
<rect x="1632.85" y="483.306" width="30.9717" height="43.0802" fill="#2D2B60"/>
</svg>
