<svg width="450" height="450" viewBox="0 0 450 450" fill="none" xmlns="http://www.w3.org/2000/svg">
<path d="M231.656 133.75C230.203 132.094 227.547 130.984 224.5 130.984C223.031 130.984 221.641 131.25 220.453 131.703C217.906 132.672 216.188 134.531 216.188 136.656C216.188 139.781 219.906 141.281 224.5 141.281C229.094 141.281 232.828 139.781 232.828 136.656C232.828 135.594 232.406 134.609 231.656 133.766V133.75ZM222.719 135.547C222.391 136.266 221.766 136.687 221.328 136.484C220.891 136.281 220.797 135.531 221.141 134.813C221.469 134.094 222.094 133.672 222.531 133.875C222.969 134.078 223.063 134.828 222.719 135.547ZM227.594 136.484C227.156 136.687 226.531 136.266 226.203 135.547C225.875 134.828 225.953 134.078 226.391 133.875C226.828 133.672 227.453 134.094 227.781 134.813C228.109 135.531 228.031 136.281 227.594 136.484Z" fill="white"/>
</svg>
