<svg width="450" height="450" viewBox="0 0 450 450" fill="none" xmlns="http://www.w3.org/2000/svg">
<path d="M231.891 134.926C230.913 135.449 230.103 135.904 229.411 136.309C228.415 136.9 227.689 137.356 227.166 137.727C225.462 138.908 225.715 139.077 224.686 139.077C223.69 139.077 223.673 138.908 221.952 137.761C221.395 137.389 220.686 136.917 219.691 136.326C218.965 135.887 218.104 135.381 217.075 134.808C216.4 134.436 216.349 133.39 216.754 132.428C216.991 131.871 217.548 131.5 218.155 131.5H230.541C231.621 131.5 232.516 132.361 232.516 133.441C232.516 134.149 232.516 134.605 231.908 134.926H231.891Z" fill="white"/>
</svg>
