<svg width="450" height="450" viewBox="0 0 450 450" fill="none" xmlns="http://www.w3.org/2000/svg">
<path d="M231.344 136.547C230.437 137.031 229.687 137.453 229.047 137.828C228.125 138.375 227.453 138.797 226.969 139.141C225.391 140.234 225.625 140.391 224.672 140.391C223.75 140.391 223.734 140.234 222.141 139.172C221.625 138.828 220.969 138.391 220.047 137.844C219.375 137.437 218.578 136.969 217.625 136.438C217 136.094 216.953 135.125 217.328 134.234C217.547 133.719 218.062 133.375 218.625 133.375H230.094C231.094 133.375 231.922 134.172 231.922 135.172C231.922 135.828 231.922 136.25 231.359 136.547H231.344Z" fill="white"/>
</svg>
