<svg width="450" height="450" viewBox="0 0 450 450" fill="none" xmlns="http://www.w3.org/2000/svg">
<path d="M234.794 133.137C232.701 130.741 228.871 129.138 224.483 129.138C222.357 129.138 220.366 129.509 218.644 130.167C214.982 131.568 212.502 134.234 212.502 137.288C212.502 141.794 217.868 143.937 224.483 143.937C231.098 143.937 236.464 141.794 236.464 137.288C236.464 135.769 235.857 134.335 234.777 133.12L234.794 133.137ZM221.918 135.719C221.446 136.748 220.551 137.356 219.91 137.069C219.286 136.782 219.151 135.702 219.623 134.673C220.096 133.643 220.99 133.036 221.631 133.323C222.256 133.609 222.391 134.689 221.918 135.719V135.719ZM228.938 137.069C228.314 137.356 227.402 136.748 226.93 135.719C226.457 134.689 226.576 133.609 227.217 133.323C227.841 133.036 228.752 133.643 229.225 134.673C229.697 135.702 229.579 136.782 228.938 137.069Z" fill="white"/>
</svg>
