<svg width="450" height="450" viewBox="0 0 450 450" fill="none" xmlns="http://www.w3.org/2000/svg">
<path d="M229.906 137.203C229.828 137.469 229.719 137.672 229.562 137.828C228.937 138.484 227.781 138.516 227.109 138.703C226.875 138.766 226.703 138.844 226.641 138.984C226.562 139.141 226.453 139.297 226.297 139.438C225.922 139.797 225.312 140.078 224.5 140.078C223.75 140.078 223.219 139.812 222.828 139.469C222.656 139.312 222.5 139.141 222.359 138.984C222.281 138.891 222.156 138.828 222.016 138.781C221.5 138.609 220.625 138.578 219.953 138.234C219.562 138.031 219.234 137.719 219.094 137.203C218.641 135.562 221.344 129.234 224.484 129.141C224.484 129.141 224.531 129.141 224.547 129.141C228.391 129.141 230.391 135.562 229.937 137.203H229.906Z" fill="white"/>
</svg>
