<svg width="450" height="450" viewBox="0 0 450 450" fill="none" xmlns="http://www.w3.org/2000/svg">
<path d="M233.359 138.765C233.241 139.187 233.039 139.524 232.786 139.794C231.756 140.891 229.849 140.925 228.769 141.229C228.381 141.33 228.111 141.465 227.993 141.684C227.858 141.938 227.672 142.208 227.419 142.444C226.795 143.034 225.816 143.49 224.466 143.49C223.217 143.49 222.374 143.051 221.716 142.494C221.429 142.241 221.176 141.971 220.939 141.701C220.821 141.566 220.619 141.448 220.366 141.364C219.522 141.094 218.087 141.026 216.991 140.453C216.349 140.115 215.809 139.609 215.573 138.765C214.831 136.082 219.269 125.704 224.399 125.552C224.399 125.552 224.483 125.552 224.517 125.552C230.828 125.552 234.102 136.082 233.342 138.765H233.359Z" fill="white"/>
</svg>
