<svg width="136" height="113" viewBox="0 0 136 113" fill="none" xmlns="http://www.w3.org/2000/svg">
<path d="M44.3876 73.3931C44.6101 87.3113 39.536 100.019 26.2033 100.201C12.8705 100.384 1.22262 95.418 1.00014 81.4999C0.777661 67.5817 9.5 57.8181 18.7035 57.6919C32.0362 57.5091 44.1652 59.4749 44.3876 73.3931Z" fill="white"/>
<path fill-rule="evenodd" clip-rule="evenodd" d="M122.941 56.661C122.95 57.2687 122.959 57.8754 122.967 58.4808C124.582 58.3107 126.236 58.5582 127.817 59.2819C133.414 61.8452 135.965 69.4124 133.515 76.1839C131.338 82.1994 125.946 85.5631 120.845 84.4421C116.791 99.9267 105.447 111.051 74.7137 111.476C40.3524 111.951 28.9876 101.088 25.1162 85.6552C19.8442 87.4959 13.8849 84.2681 11.3972 77.9974C8.73855 71.2958 11.0519 63.6565 16.5642 60.9345C18.6407 59.9091 20.875 59.7278 22.9956 60.2584C22.9855 59.5219 22.9751 58.7834 22.9635 58.0434C22.519 29.8373 44.5394 6.66234 72.1473 6.2806C99.7553 5.89887 122.496 28.4549 122.941 56.661Z" fill="#F1C1F8"/>
<path d="M17.3755 51.0392C16.9121 21.3993 45.1908 2.5027 72.0927 1.21043C94.7894 0.120162 119.086 8.19393 126.245 29.5656C133.405 50.9374 130.746 55.5765 122.607 58.758C114.468 61.9396 92.4093 39.7709 84.3338 27.6173C67.872 50.3272 17.7846 77.204 17.3755 51.0392Z" fill="#FAFAFA"/>
<path d="M56.1008 100.784C57.6542 96.6847 61.1859 91.4196 64.0009 89.9998" stroke="#DD9AE7" stroke-width="3" stroke-linecap="round" stroke-linejoin="round"/>
<path d="M84.2796 95.0892C78.1342 96.8901 68.9858 97.3768 64.9964 95.2948" stroke="#DD9AE7" stroke-width="3" stroke-linecap="round" stroke-linejoin="round"/>
<path d="M91.6459 101.519C90.0034 96.9042 87.3357 92.0089 83.0006 88.9998" stroke="#DD9AE7" stroke-width="3" stroke-linecap="round" stroke-linejoin="round"/>
<path d="M101.211 73.8207C96.456 72.6444 90.9013 72.1685 85.9998 74.1238" stroke="#DD9AE7" stroke-width="3" stroke-linecap="round" stroke-linejoin="round"/>
<path d="M62.211 73.8207C57.456 72.6444 51.9013 72.1685 46.9998 74.1238" stroke="#DD9AE7" stroke-width="3" stroke-linecap="round" stroke-linejoin="round"/>
<path d="M67.1272 73.757C67.259 81.3058 61.8247 87.2475 55.286 87.3296C48.7473 87.4118 43.1082 81.6092 42.9765 74.0603C42.8448 66.5115 48.279 60.5698 54.8177 60.4877C61.3564 60.4055 66.9955 66.2081 67.1272 73.757Z" stroke="#A74976" stroke-width="3"/>
<path d="M105.24 73.2347C105.372 80.7835 99.9375 86.7252 93.3988 86.8073C86.8601 86.8895 81.221 81.0869 81.0893 73.5381C80.9576 65.9892 86.3918 60.0475 92.9305 59.9654C99.4692 59.8833 105.108 65.6859 105.24 73.2347Z" stroke="#A74976" stroke-width="3"/>
<path d="M67.501 74.4998C70.5005 68.9997 78.0005 69.9997 80.5005 74.4998" stroke="#A74976" stroke-width="3" stroke-linecap="round" stroke-linejoin="round"/>
<path d="M105 70.9998C109.615 65.1477 118.154 54.2117 122 58.9998" stroke="#A74976" stroke-width="3" stroke-linecap="round" stroke-linejoin="round"/>
<path d="M42.0005 73.1807C37.3857 67.3287 28.8468 56.3927 25.0005 61.1808" stroke="#A74976" stroke-width="3" stroke-linecap="round" stroke-linejoin="round"/>
</svg>
