<svg width="127" height="113" viewBox="0 0 127 113" fill="none" xmlns="http://www.w3.org/2000/svg">
<path fill-rule="evenodd" clip-rule="evenodd" d="M114.197 56.6611C114.207 57.2688 114.215 57.8754 114.223 58.4808C115.839 58.3108 117.493 58.5582 119.073 59.282C124.671 61.8452 127.221 69.4125 124.771 76.1839C122.594 82.1994 117.202 85.5632 112.101 84.4422C108.048 99.9268 96.7033 111.051 65.97 111.476C31.6087 111.951 20.244 101.088 16.3725 85.6553C11.1006 87.496 5.14127 84.2681 2.65358 77.9975C-0.00509732 71.2959 2.30823 63.6565 7.82053 60.9346C9.89708 59.9092 12.1314 59.7279 14.252 60.2585C14.2419 59.522 14.2315 58.7835 14.2198 58.0435C13.7753 29.8374 35.7957 6.6624 63.4037 6.28066C91.0117 5.89893 113.753 28.455 114.197 56.6611Z" fill="#F1C1F8"/>
<path d="M8.63186 51.0393C8.16844 21.3994 36.4472 2.50282 63.3491 1.21055C86.0457 0.120284 110.342 8.19405 117.502 29.5658C124.661 50.9375 122.002 55.5766 113.863 58.7582C105.724 61.9397 83.6656 39.771 75.5901 27.6174C59.1284 50.3274 9.04096 77.2041 8.63186 51.0393Z" fill="#3C3B67"/>
<ellipse rx="13.6264" ry="16.3475" transform="matrix(0.999897 -0.0137097 0.0159827 0.999862 46.2388 73.9337)" fill="white"/>
<ellipse rx="13.6264" ry="16.3475" transform="matrix(0.999897 -0.0137097 0.0159827 0.999862 84.4913 73.3616)" fill="white"/>
<ellipse rx="8.17993" ry="11.2311" transform="matrix(0.999895 -0.0140168 0.0157196 0.999868 51.8395 75.8232)" fill="#3C3B67"/>
<ellipse rx="8.17993" ry="11.2311" transform="matrix(0.999895 -0.0140168 0.0157196 0.999868 90.0861 75.251)" fill="#3C3B67"/>
<path d="M75.283 92.8655C69.1377 94.6664 59.9892 95.153 55.9998 93.071" stroke="#DD9AE7" stroke-width="3" stroke-linecap="round" stroke-linejoin="round"/>
</svg>
