<svg width="268" height="115" viewBox="0 0 268 115" fill="none" xmlns="http://www.w3.org/2000/svg">
<path fill-rule="evenodd" clip-rule="evenodd" d="M255.197 58.6611C255.207 59.2688 255.215 59.8754 255.223 60.4808C256.839 60.3108 258.493 60.5582 260.073 61.282C265.671 63.8452 268.222 71.4125 265.771 78.1839C263.594 84.1994 258.202 87.5632 253.101 86.4422C249.048 101.927 237.703 113.051 206.97 113.476C172.609 113.951 161.244 103.088 157.373 87.6553C152.101 89.496 146.141 86.2681 143.654 79.9975C140.995 73.2959 143.308 65.6565 148.821 62.9346C150.897 61.9092 153.131 61.7279 155.252 62.2585C155.242 61.522 155.231 60.7835 155.22 60.0435C154.775 31.8374 176.796 8.6624 204.404 8.28066C232.012 7.89893 254.753 30.455 255.197 58.6611Z" fill="#F1C1F8"/>
<path d="M149.632 53.0393C149.168 23.3994 177.447 4.50282 204.349 3.21055C227.046 2.12028 251.342 10.194 258.502 31.5658C265.661 52.9375 263.002 57.5766 254.863 60.7582C246.724 63.9397 224.666 41.771 216.59 29.6174C200.128 52.3274 150.041 79.2041 149.632 53.0393Z" fill="#3C3B67"/>
<ellipse rx="13.6264" ry="16.3475" transform="matrix(0.999897 -0.0137097 0.0159827 0.999862 187.239 75.9337)" fill="white"/>
<ellipse rx="13.6264" ry="16.3475" transform="matrix(0.999897 -0.0137097 0.0159827 0.999862 225.491 75.3616)" fill="white"/>
<ellipse rx="8.17993" ry="11.2311" transform="matrix(0.999895 -0.0140168 0.0157196 0.999868 192.84 77.8232)" fill="#3C3B67"/>
<ellipse rx="8.17993" ry="11.2311" transform="matrix(0.999895 -0.0140168 0.0157196 0.999868 231.086 77.251)" fill="#3C3B67"/>
<path d="M44.3876 75.393C44.6101 89.3112 39.536 102.018 26.2033 102.201C12.8705 102.384 1.22262 97.418 1.00014 83.4998C0.777661 69.5817 9.5 59.818 18.7035 59.6918C32.0362 59.509 44.1652 61.4749 44.3876 75.393Z" fill="white"/>
<path fill-rule="evenodd" clip-rule="evenodd" d="M122.94 58.661C122.95 59.2687 122.959 59.8754 122.966 60.4808C124.582 60.3107 126.236 60.5582 127.816 61.2819C133.414 63.8452 135.965 71.4124 133.514 78.1839C131.337 84.1994 125.945 87.5631 120.844 86.4421C116.791 101.927 105.446 113.051 74.7132 113.476C40.3519 113.951 28.9871 103.088 25.1157 87.6552C19.8437 89.4959 13.8844 86.2681 11.3967 79.9974C8.73807 73.2958 11.0514 65.6565 16.5637 62.9345C18.6402 61.9091 20.8745 61.7278 22.9952 62.2584C22.985 61.5219 22.9747 60.7834 22.963 60.0434C22.5185 31.8373 44.5389 8.66234 72.1468 8.2806C99.7548 7.89887 122.496 30.4549 122.94 58.661Z" fill="#F1C1F8"/>
<path d="M17.375 53.0392C16.9116 23.3993 45.1903 4.5027 72.0922 3.21043C94.7889 2.12016 119.085 10.1939 126.245 31.5656C133.405 52.9374 130.745 57.5765 122.606 60.758C114.467 63.9396 92.4088 41.7709 84.3333 29.6173C67.8715 52.3272 17.7841 79.204 17.375 53.0392Z" fill="#FAFAFA"/>
<path d="M56.1008 102.784C57.6542 98.6847 61.1859 93.4196 64.0009 91.9998" stroke="#DD9AE7" stroke-width="3" stroke-linecap="round" stroke-linejoin="round"/>
<path d="M84.2796 97.0892C78.1342 98.8901 68.9858 99.3768 64.9964 97.2948" stroke="#DD9AE7" stroke-width="3" stroke-linecap="round" stroke-linejoin="round"/>
<path d="M216.283 94.8655C210.138 96.6664 200.989 97.153 197 95.071" stroke="#DD9AE7" stroke-width="3" stroke-linecap="round" stroke-linejoin="round"/>
<path d="M91.6459 103.519C90.0034 98.9042 87.3357 94.0089 83.0006 90.9998" stroke="#DD9AE7" stroke-width="3" stroke-linecap="round" stroke-linejoin="round"/>
<path d="M101.211 75.8207C96.456 74.6444 90.9013 74.1685 85.9998 76.1238" stroke="#DD9AE7" stroke-width="3" stroke-linecap="round" stroke-linejoin="round"/>
<path d="M62.211 75.8207C57.456 74.6444 51.9013 74.1685 46.9998 76.1238" stroke="#DD9AE7" stroke-width="3" stroke-linecap="round" stroke-linejoin="round"/>
<path d="M67.1272 75.757C67.259 83.3058 61.8247 89.2475 55.286 89.3296C48.7473 89.4118 43.1082 83.6092 42.9765 76.0603C42.8448 68.5115 48.279 62.5698 54.8177 62.4877C61.3564 62.4055 66.9955 68.2081 67.1272 75.757Z" stroke="#A74976" stroke-width="3"/>
<path d="M105.24 75.2347C105.372 82.7835 99.9375 88.7252 93.3988 88.8073C86.8601 88.8895 81.221 83.0869 81.0893 75.5381C80.9576 67.9892 86.3918 62.0475 92.9305 61.9654C99.4692 61.8833 105.108 67.6859 105.24 75.2347Z" stroke="#A74976" stroke-width="3"/>
<path d="M67.501 76.4998C70.5005 70.9997 78.0005 71.9997 80.5005 76.4998" stroke="#A74976" stroke-width="3" stroke-linecap="round" stroke-linejoin="round"/>
<path d="M105 72.9998C109.615 67.1477 118.154 56.2117 122 60.9998" stroke="#A74976" stroke-width="3" stroke-linecap="round" stroke-linejoin="round"/>
<path d="M42.0005 75.1807C37.3857 69.3287 28.8468 58.3927 25.0005 63.1808" stroke="#A74976" stroke-width="3" stroke-linecap="round" stroke-linejoin="round"/>
</svg>
