<svg width="267" height="115" viewBox="0 0 267 115" fill="none" xmlns="http://www.w3.org/2000/svg">
<path fill-rule="evenodd" clip-rule="evenodd" d="M254.574 58.1142C254.583 58.722 254.592 59.3286 254.599 59.934C256.215 59.764 257.869 60.0114 259.45 60.7352C265.047 63.2984 267.598 70.8657 265.147 77.6371C262.97 83.6526 257.579 87.0164 252.478 85.8954C248.424 101.38 237.08 112.504 206.346 112.929C171.985 113.404 160.62 102.542 156.749 87.1085C151.477 88.9491 145.518 85.7213 143.03 79.4507C140.371 72.7491 142.685 65.1097 148.197 62.3877C150.274 61.3624 152.508 61.1811 154.628 61.7117C154.618 60.9752 154.608 60.2367 154.596 59.4966C154.152 31.2906 176.172 8.11559 203.78 7.73385C231.388 7.35211 254.129 29.9082 254.574 58.1142Z" fill="#F1C1F8"/>
<path d="M149.008 52.4925C148.545 22.8526 176.824 3.95601 203.726 2.66374C226.422 1.57347 250.719 9.64723 257.878 31.0189C265.038 52.3907 262.379 57.0298 254.24 60.2113C246.101 63.3929 224.042 41.2242 215.967 29.0706C199.505 51.7805 149.417 78.6573 149.008 52.4925Z" fill="#3C3B67"/>
<ellipse rx="13.6264" ry="16.3475" transform="matrix(0.999897 -0.0137097 0.0159827 0.999862 186.615 75.3869)" fill="white"/>
<ellipse rx="13.6264" ry="16.3475" transform="matrix(0.999897 -0.0137097 0.0159827 0.999862 224.868 74.8148)" fill="white"/>
<path d="M43.7641 74.8463C43.9866 88.7644 38.9125 101.472 25.5798 101.655C12.247 101.837 0.599087 96.8712 0.376606 82.9531C0.154126 69.0349 8.87646 59.2712 18.0799 59.145C31.4127 58.9622 43.5416 60.9281 43.7641 74.8463Z" fill="white"/>
<path fill-rule="evenodd" clip-rule="evenodd" d="M122.317 58.1142C122.326 58.722 122.335 59.3286 122.343 59.934C123.958 59.764 125.612 60.0114 127.193 60.7352C132.79 63.2984 135.341 70.8657 132.891 77.6371C130.714 83.6526 125.322 87.0164 120.221 85.8954C116.167 101.38 104.823 112.504 74.0896 112.929C39.7283 113.404 28.3636 102.542 24.4921 87.1085C19.2202 88.9491 13.2609 85.7213 10.7732 79.4507C8.11453 72.7491 10.4279 65.1097 15.9402 62.3877C18.0167 61.3624 20.251 61.1811 22.3716 61.7117C22.3615 60.9752 22.3511 60.2367 22.3395 59.4966C21.895 31.2906 43.9153 8.11559 71.5233 7.73385C99.1313 7.35211 121.872 29.9082 122.317 58.1142Z" fill="#F1C1F8"/>
<path d="M16.7515 52.4924C16.2881 22.8525 44.5668 3.95595 71.4687 2.66368C94.1653 1.57341 118.462 9.64717 125.621 31.0189C132.781 52.3906 130.122 57.0297 121.983 60.2113C113.844 63.3928 91.7853 41.2241 83.7098 29.0705C67.248 51.7805 17.1606 78.6572 16.7515 52.4924Z" fill="#FAFAFA"/>
<path d="M55.4773 102.238C57.0307 98.1379 60.5624 92.8729 63.3773 91.4531" stroke="#DD9AE7" stroke-width="3" stroke-linecap="round" stroke-linejoin="round"/>
<path d="M91.0223 102.972C89.3799 98.3575 86.7121 93.4622 82.377 90.4531" stroke="#DD9AE7" stroke-width="3" stroke-linecap="round" stroke-linejoin="round"/>
<path d="M192 69.4557L180 83.4557" stroke="#A758B3" stroke-width="3" stroke-linecap="round" stroke-linejoin="round"/>
<path d="M231 69.4556L219 83.4556" stroke="#A758B3" stroke-width="3" stroke-linecap="round" stroke-linejoin="round"/>
<path d="M98.9998 69.2619L87 81.6459" stroke="#A758B3" stroke-width="3" stroke-linecap="round" stroke-linejoin="round"/>
<path d="M87.0002 69.2619L99 81.6459" stroke="#A758B3" stroke-width="3" stroke-linecap="round" stroke-linejoin="round"/>
<path d="M60.9998 69.2619L49 81.6459" stroke="#A758B3" stroke-width="3" stroke-linecap="round" stroke-linejoin="round"/>
<path d="M49.0002 69.2619L61 81.6459" stroke="#A758B3" stroke-width="3" stroke-linecap="round" stroke-linejoin="round"/>
<path d="M180 69.4557L192 83.4557" stroke="#A758B3" stroke-width="3" stroke-linecap="round" stroke-linejoin="round"/>
<path d="M219 69.4556L231 83.4556" stroke="#A758B3" stroke-width="3" stroke-linecap="round" stroke-linejoin="round"/>
<path d="M66.5037 75.2102C66.6354 82.759 61.2012 88.7007 54.6625 88.7829C48.1238 88.865 42.4847 83.0624 42.353 75.5136C42.2213 67.9648 47.6555 62.0231 54.1942 61.9409C60.7329 61.8588 66.372 67.6614 66.5037 75.2102Z" stroke="#A74976" stroke-width="3"/>
<path d="M104.617 74.6879C104.748 82.2368 99.314 88.1785 92.7753 88.2606C86.2366 88.3427 80.5975 82.5401 80.4658 74.9913C80.3341 67.4425 85.7683 61.5008 92.307 61.4187C98.8457 61.3365 104.485 67.1391 104.617 74.6879Z" stroke="#A74976" stroke-width="3"/>
<path d="M66.8774 75.9531C69.877 70.4529 77.377 71.4529 79.877 75.9531" stroke="#A74976" stroke-width="3" stroke-linecap="round" stroke-linejoin="round"/>
<path d="M104.377 72.453C108.992 66.6009 117.531 55.665 121.377 60.4531" stroke="#A74976" stroke-width="3" stroke-linecap="round" stroke-linejoin="round"/>
<path d="M41.377 74.634C36.7621 68.7819 28.2233 57.8459 24.377 62.634" stroke="#A74976" stroke-width="3" stroke-linecap="round" stroke-linejoin="round"/>
<path d="M67 95.2362L79 95.2362L79 99.2362C79 102.55 76.3137 105.236 73 105.236V105.236C69.6863 105.236 67 102.55 67 99.2362L67 95.2362Z" fill="#A758B3"/>
<path d="M199.5 92.6287L211.5 92.6287L211.5 96.6287C211.5 99.9424 208.814 102.629 205.5 102.629V102.629C202.186 102.629 199.5 99.9424 199.5 96.6287L199.5 92.6287Z" fill="#A758B3"/>
<path d="M73.5 100.236C73.5 98.7362 73.4507 95.1581 72.5261 94.2362" stroke="#A758B3" stroke-width="3" stroke-linecap="round" stroke-linejoin="round"/>
<path d="M80.6268 95.0483C75.616 93.4365 71.5 93.2362 65.5001 95.0483" stroke="#A758B3" stroke-width="3" stroke-linecap="round" stroke-linejoin="round"/>
<path d="M213.127 92.4408C208.116 90.829 204 90.6287 198 92.4408" stroke="#A758B3" stroke-width="3" stroke-linecap="round" stroke-linejoin="round"/>
<path fill-rule="evenodd" clip-rule="evenodd" d="M71.0966 3.09643C44.1947 4.3887 15.916 23.2853 16.3794 52.9252C16.4232 55.7251 17.0359 57.9177 18.1154 59.5729C17.9795 59.5743 17.8436 59.576 17.7075 59.5778C8.50403 59.704 -0.218314 69.4677 0.00416667 83.3859C0.226647 97.304 11.8746 102.27 25.2073 102.087C27.3323 102.058 29.2475 101.711 30.9649 101.091C38.0049 108.912 50.703 113.68 73.7174 113.362C104.451 112.937 115.795 101.813 119.849 86.3281C124.95 87.4491 130.341 84.0853 132.518 78.0698C134.969 71.2984 132.418 63.7312 126.821 61.1679C125.38 60.508 123.877 60.2441 122.399 60.3315L122.396 60.3246C129.914 57.139 132.173 52.12 125.249 31.4516C118.09 10.0799 93.7932 2.00616 71.0966 3.09643ZM148.636 52.9252C148.172 23.2853 176.451 4.38875 203.353 3.09648C226.05 2.00621 250.346 10.08 257.506 31.4517C264.436 52.1379 262.167 57.1477 254.633 60.3329C256.119 60.2415 257.629 60.5047 259.077 61.1679C264.675 63.7312 267.226 71.2985 264.775 78.0699C262.598 84.0854 257.206 87.4492 252.105 86.3282C248.052 101.813 236.707 112.937 205.974 113.362C171.613 113.837 160.248 102.974 156.377 87.5413C151.105 89.3819 145.145 86.1541 142.658 79.8835C139.999 73.1818 142.312 65.5425 147.825 62.8205C149.378 62.0533 151.02 61.7587 152.637 61.8811C150.169 60.2065 148.704 57.311 148.636 52.9252Z" fill="#BB2BB5" fill-opacity="0.31"/>
</svg>
