<svg width="75" height="75" viewBox="0 0 75 75" fill="none" xmlns="http://www.w3.org/2000/svg">
<path d="M36.5317 3.75372C36.7897 2.75343 38.2103 2.75343 38.4683 3.75372L45.0424 29.239C45.1334 29.5914 45.4086 29.8666 45.761 29.9576L71.2463 36.5317C72.2466 36.7897 72.2466 38.2103 71.2463 38.4683L45.761 45.0424C45.4086 45.1334 45.1334 45.4086 45.0424 45.761L38.4683 71.2463C38.2103 72.2466 36.7897 72.2466 36.5317 71.2463L29.9576 45.761C29.8666 45.4086 29.5914 45.1334 29.239 45.0424L3.75372 38.4683C2.75343 38.2103 2.75343 36.7897 3.75372 36.5317L29.239 29.9576C29.5914 29.8666 29.8666 29.5914 29.9576 29.239L36.5317 3.75372Z" fill="white"/>
</svg>
