<svg width="75" height="75" viewBox="0 0 75 75" fill="none" xmlns="http://www.w3.org/2000/svg">
<path d="M36.5344 3.58632C36.8001 2.59964 38.1999 2.59964 38.4656 3.58632L45.3053 28.9891C45.3979 29.3333 45.6667 29.6021 46.0109 29.6947L71.4137 36.5344C72.4004 36.8001 72.4004 38.1999 71.4137 38.4656L46.0109 45.3053C45.6667 45.3979 45.3979 45.6667 45.3053 46.0109L38.4656 71.4137C38.1999 72.4004 36.8001 72.4004 36.5344 71.4137L29.6947 46.0109C29.6021 45.6667 29.3333 45.3979 28.9891 45.3053L3.58632 38.4656C2.59964 38.1999 2.59964 36.8001 3.58632 36.5344L28.9891 29.6947C29.3333 29.6021 29.6021 29.3333 29.6947 28.9891L36.5344 3.58632Z" fill="white"/>
</svg>
