<svg width="75" height="75" viewBox="0 0 75 75" fill="none" xmlns="http://www.w3.org/2000/svg">
<path d="M36.5051 9.82835C36.6265 8.6293 38.3735 8.6293 38.4949 9.82834L40.8649 33.2409C40.9128 33.7135 41.2865 34.0872 41.7591 34.1351L65.1717 36.5051C66.3707 36.6265 66.3707 38.3735 65.1717 38.4949L41.7591 40.8649C41.2865 40.9128 40.9128 41.2865 40.8649 41.7591L38.4949 65.1717C38.3735 66.3707 36.6265 66.3707 36.5051 65.1717L34.1351 41.7591C34.0872 41.2865 33.7135 40.9128 33.2409 40.8649L9.82835 38.4949C8.6293 38.3735 8.6293 36.6265 9.82834 36.5051L33.2409 34.1351C33.7135 34.0872 34.0872 33.7135 34.1351 33.2409L36.5051 9.82835Z" fill="white"/>
</svg>
