<svg width="75" height="75" viewBox="0 0 75 75" fill="none" xmlns="http://www.w3.org/2000/svg">
<path d="M36.5183 5.05431C36.7279 3.97519 38.2721 3.97519 38.4817 5.05431L43.4702 30.7388C43.5479 31.1391 43.8609 31.4521 44.2612 31.5298L69.9457 36.5183C71.0248 36.7279 71.0248 38.2721 69.9457 38.4817L44.2612 43.4702C43.8609 43.5479 43.5479 43.8609 43.4702 44.2612L38.4817 69.9457C38.2721 71.0248 36.7279 71.0248 36.5183 69.9457L31.5298 44.2612C31.4521 43.8609 31.1391 43.5479 30.7388 43.4702L5.05431 38.4817C3.97519 38.2721 3.97519 36.7279 5.05431 36.5183L30.7388 31.5298C31.1391 31.4521 31.4521 31.1391 31.5298 30.7388L36.5183 5.05431Z" fill="white"/>
</svg>
