<svg width="75" height="75" viewBox="0 0 75 75" fill="none" xmlns="http://www.w3.org/2000/svg">
<path d="M36.5433 3.14313C36.831 2.19803 38.169 2.19804 38.4567 3.14313L46.0952 28.2394C46.1922 28.5582 46.4418 28.8078 46.7606 28.9048L71.8569 36.5433C72.802 36.831 72.802 38.169 71.8569 38.4567L46.7606 46.0952C46.4418 46.1922 46.1922 46.4418 46.0952 46.7606L38.4567 71.8569C38.169 72.802 36.831 72.802 36.5433 71.8569L28.9048 46.7606C28.8078 46.4418 28.5582 46.1922 28.2394 46.0952L3.14313 38.4567C2.19803 38.169 2.19804 36.831 3.14313 36.5433L28.2394 28.9048C28.5582 28.8078 28.8078 28.5582 28.9048 28.2394L36.5433 3.14313Z" fill="white"/>
</svg>
