<svg width="75" height="75" viewBox="0 0 75 75" fill="none" xmlns="http://www.w3.org/2000/svg">
<path d="M36.5244 4.33076C36.7588 3.29044 38.2412 3.29044 38.4756 4.33077L44.2553 29.9889C44.3402 30.3656 44.6344 30.6598 45.0111 30.7447L70.6692 36.5244C71.7096 36.7588 71.7096 38.2412 70.6692 38.4756L45.0111 44.2553C44.6344 44.3402 44.3402 44.6344 44.2553 45.0111L38.4756 70.6692C38.2412 71.7096 36.7588 71.7096 36.5244 70.6692L30.7447 45.0111C30.6598 44.6344 30.3656 44.3402 29.9889 44.2553L4.33076 38.4756C3.29044 38.2412 3.29044 36.7588 4.33077 36.5244L29.9889 30.7447C30.3656 30.6598 30.6598 30.3656 30.7447 29.9889L36.5244 4.33076Z" fill="white"/>
</svg>
