<svg width="75" height="75" viewBox="0 0 75 75" fill="none" xmlns="http://www.w3.org/2000/svg">
<path d="M36.508 7.77582C36.6566 6.61121 38.3434 6.61121 38.492 7.77582L41.6447 32.4899C41.7024 32.9418 42.0582 33.2976 42.5101 33.3553L67.2242 36.508C68.3888 36.6566 68.3888 38.3434 67.2242 38.492L42.5101 41.6447C42.0582 41.7024 41.7024 42.0582 41.6447 42.5101L38.492 67.2242C38.3434 68.3888 36.6566 68.3888 36.508 67.2242L33.3553 42.5101C33.2976 42.0582 32.9418 41.7024 32.4899 41.6447L7.77582 38.492C6.61121 38.3434 6.61121 36.6566 7.77582 36.508L32.4899 33.3553C32.9418 33.2976 33.2976 32.9418 33.3553 32.4899L36.508 7.77582Z" fill="white"/>
</svg>
