<svg width="75" height="75" viewBox="0 0 75 75" fill="none" xmlns="http://www.w3.org/2000/svg">
<path d="M36.5029 13.1043C36.5966 11.8721 38.4034 11.8721 38.4971 13.1043L40.0865 33.9922C40.124 34.4847 40.5153 34.876 41.0078 34.9135L61.8957 36.5029C63.1279 36.5966 63.1279 38.4034 61.8957 38.4971L41.0078 40.0865C40.5153 40.124 40.124 40.5153 40.0865 41.0078L38.4971 61.8957C38.4034 63.1279 36.5966 63.1279 36.5029 61.8957L34.9135 41.0078C34.876 40.5153 34.4847 40.124 33.9922 40.0865L13.1043 38.4971C11.8721 38.4034 11.8721 36.5966 13.1043 36.5029L33.9922 34.9135C34.4847 34.876 34.876 34.4847 34.9135 33.9922L36.5029 13.1043Z" fill="white"/>
</svg>
