<svg width="75" height="75" viewBox="0 0 75 75" fill="none" xmlns="http://www.w3.org/2000/svg">
<path d="M36.5118 6.367C36.687 5.23815 38.313 5.23816 38.4882 6.367L42.426 31.7392C42.4928 32.1696 42.8304 32.5072 43.2608 32.574L68.633 36.5118C69.7618 36.687 69.7618 38.313 68.633 38.4882L43.2608 42.426C42.8304 42.4928 42.4928 42.8304 42.426 43.2608L38.4882 68.633C38.313 69.7618 36.687 69.7618 36.5118 68.633L32.574 43.2608C32.5072 42.8304 32.1696 42.4928 31.7392 42.426L6.367 38.4882C5.23815 38.313 5.23816 36.687 6.367 36.5118L31.7392 32.574C32.1696 32.5072 32.5072 32.1696 32.574 31.7392L36.5118 6.367Z" fill="white"/>
</svg>
