<svg width="450" height="450" viewBox="0 0 450 450" fill="none" xmlns="http://www.w3.org/2000/svg">
<path d="M266.669 124.598C266.669 132.044 259.107 138.079 249.791 138.079C240.475 138.079 232.913 132.044 232.913 124.598C232.913 117.152 240.475 119.549 249.791 119.549C259.107 119.549 266.669 117.152 266.669 124.598" fill="white"/>
<path d="M216.087 124.598C216.087 132.044 208.525 138.079 199.209 138.079C189.893 138.079 182.331 132.044 182.331 124.598C182.331 117.152 189.893 119.549 199.209 119.549C208.525 119.549 216.087 117.152 216.087 124.598" fill="white"/>
<path className='pupil' fill-rule="evenodd" clip-rule="evenodd" d="M250.694 126.4C250.694 123.493 252.142 120.943 254.356 119.396V119.379C254.695 119.361 255.029 119.343 255.359 119.325C261.943 118.964 266.669 118.704 266.669 124.581C266.669 128.678 264.37 132.35 260.76 134.815C260.283 134.9 259.789 134.968 259.278 134.968C254.543 134.968 250.694 131.126 250.694 126.4ZM200.111 126.4C200.111 123.493 201.559 120.943 203.773 119.396V119.379C204.112 119.361 204.446 119.343 204.776 119.325C211.36 118.964 216.087 118.704 216.087 124.581C216.087 128.678 213.787 132.35 210.177 134.815C209.7 134.9 209.206 134.968 208.695 134.968C203.96 134.968 200.111 131.126 200.111 126.4Z" fill="#555555"/>
</svg>
