<svg width="450" height="450" viewBox="0 0 450 450" fill="none" xmlns="http://www.w3.org/2000/svg">
<path d="M202.155 135.903C210.263 135.903 216.836 128.513 216.836 119.396C216.836 110.279 210.263 102.889 202.155 102.889C194.047 102.889 187.474 110.279 187.474 119.396C187.474 128.513 194.047 135.903 202.155 135.903Z" fill="white"/>
<path d="M248.378 135.903C256.486 135.903 263.059 128.513 263.059 119.396C263.059 110.279 256.486 102.889 248.378 102.889C240.27 102.889 233.697 110.279 233.697 119.396C233.697 128.513 240.27 135.903 248.378 135.903Z" fill="white"/>
<path className='pupil' d="M198.868 129.358C204.201 129.358 208.525 124.441 208.525 118.376C208.525 112.311 204.201 107.394 198.868 107.394C193.535 107.394 189.211 112.311 189.211 118.376C189.211 124.441 193.535 129.358 198.868 129.358Z" fill="#555555"/>
<path className='pupil' d="M245.091 129.358C250.424 129.358 254.747 124.441 254.747 118.376C254.747 112.311 250.424 107.394 245.091 107.394C239.758 107.394 235.434 112.311 235.434 118.376C235.434 124.441 239.758 129.358 245.091 129.358Z" fill="#555555"/>
</svg>
