<svg width="450" height="450" viewBox="0 0 450 450" fill="none" xmlns="http://www.w3.org/2000/svg">
<path className='pupil' d="M203.892 133.999C207.297 133.999 210.057 130.863 210.057 126.995C210.057 123.127 207.297 119.991 203.892 119.991C200.487 119.991 197.727 123.127 197.727 126.995C197.727 130.863 200.487 133.999 203.892 133.999Z" fill="#555555"/>
<path className='pupil' d="M245.108 133.999C248.513 133.999 251.273 130.863 251.273 126.995C251.273 123.127 248.513 119.991 245.108 119.991C241.703 119.991 238.943 123.127 238.943 126.995C238.943 130.863 241.703 133.999 245.108 133.999Z" fill="#555555"/>
<path className='pupil' d="M195.649 118.835C195.649 118.835 197.727 114.364 203.892 114.364C210.057 114.364 212.34 118.835 212.34 118.835" fill="#555555"/>
<path className='pupil' d="M236.763 118.835C236.763 118.835 238.84 114.364 245.006 114.364C251.171 114.364 253.453 118.835 253.453 118.835" fill="#555555"/>
</svg>
