<svg width="450" height="450" viewBox="0 0 450 450" fill="none" xmlns="http://www.w3.org/2000/svg">
<path d="M234.668 114.602C231.398 129.613 238.006 134.407 239.845 134.815C242.809 135.478 251.903 134.815 258.256 124.938C264.932 114.551 257.83 106.918 253.078 104.725C248.327 102.532 237.052 103.688 234.668 114.602V114.602Z" fill="white"/>
<path d="M214.332 114.602C217.602 129.613 210.994 134.407 209.155 134.815C206.191 135.478 197.097 134.815 190.744 124.938C184.068 114.551 191.17 106.918 195.922 104.725C200.656 102.532 211.948 103.688 214.332 114.602V114.602Z" fill="white"/>
<path className='pupil' fill-rule="evenodd" clip-rule="evenodd" d="M195.922 104.725C200.673 102.532 211.948 103.688 214.332 114.602C217.585 129.613 210.994 134.407 209.155 134.815C206.174 135.478 197.097 134.815 190.744 124.938C184.068 114.534 191.187 106.918 195.922 104.725ZM204.556 113.667C205.97 115.911 208.048 117.135 209.189 116.421C210.33 115.69 210.092 113.293 208.678 111.049C207.264 108.805 205.187 107.581 204.045 108.295C202.904 109.026 203.143 111.423 204.556 113.667ZM234.668 114.602C237.052 103.688 248.344 102.532 253.078 104.725C257.83 106.918 264.932 114.551 258.256 124.938C251.903 134.815 242.809 135.478 239.845 134.815C238.006 134.407 231.398 129.613 234.668 114.602ZM252.823 113.667C254.237 115.911 256.314 117.135 257.455 116.421C258.597 115.69 258.358 113.293 256.945 111.049C255.531 108.805 253.453 107.581 252.312 108.295C251.171 109.026 251.409 111.423 252.823 113.667Z"/>
</svg>
