<svg width="46" height="44" viewBox="0 0 46 44" fill="none" xmlns="http://www.w3.org/2000/svg">
<path d="M6.38461 39.9385C11.923 43.6358 18.8501 44 25.6633 44C33.434 44 40.7521 41.0087 43.8074 35.2001C46.8626 29.3916 46.1277 21.9101 45.1513 16.3822C43.4222 6.56951 36.5421 -0.0801172 26.2286 0.000729119C15.915 0.0815754 8.19119 6.09285 6.38461 16.3822C4.21067 28.7639 6.17517 30.4617 0.127151 31.8156C-0.77808 33.4527 3.34267 37.9078 6.38461 39.9385ZM28.4052 20.1315C28.4036 19.3596 28.6984 18.6162 29.2295 18.0528C29.7606 17.4895 30.488 17.1486 31.2633 17.0997C31.654 17.0699 32.0468 17.1167 32.4192 17.2377C32.7917 17.3587 33.1365 17.5513 33.434 17.8047C33.7315 18.0581 33.9759 18.3672 34.1532 18.7144C34.3304 19.0616 34.4371 19.4401 34.4672 19.8283C34.4973 20.2165 34.45 20.6067 34.3283 20.9768C34.2066 21.3468 34.0126 21.6894 33.7576 21.985C33.5026 22.2806 33.1915 22.5234 32.8421 22.6996C32.4926 22.8757 32.1117 22.9818 31.721 23.0116C29.88 23.2339 28.8731 22.001 28.4052 20.1315ZM17.9899 20.3134C17.9733 19.5355 18.2644 18.7822 18.8007 18.2154C19.337 17.6485 20.0758 17.3132 20.8582 17.2816C21.2552 17.2264 21.6596 17.2569 22.0437 17.3711C22.4278 17.4853 22.7826 17.6804 23.0838 17.9433C23.385 18.2061 23.6257 18.5305 23.7892 18.8941C23.9528 19.2578 24.0355 19.6523 24.0316 20.0506C24.079 20.4462 24.0415 20.8473 23.9216 21.2274C23.8017 21.6076 23.602 21.9581 23.3358 22.256C23.0696 22.5539 22.7429 22.7924 22.3772 22.9557C22.0115 23.1191 21.6151 23.2035 21.2142 23.2036C19.3834 23.2946 18.3357 22.1829 17.9899 20.3134Z" fill="white"/>
</svg>
