<svg width="18" height="18" viewBox="0 0 18 18" fill="none" xmlns="http://www.w3.org/2000/svg">
<path fill-rule="evenodd" clip-rule="evenodd" d="M16.1175 1.03392C16.53 1.45836 16.7678 2.02777 16.7786 2.6169C16.7894 3.20603 16.5723 3.76661 16.1751 4.17533L11.6819 8.79853L16.3479 13.5995C16.7604 14.024 16.9982 14.5934 17.009 15.1825C17.0198 15.7717 16.8027 16.3322 16.4055 16.741C16.0083 17.1497 15.4635 17.373 14.8909 17.3619C14.3183 17.3508 13.7649 17.1061 13.3524 16.6817L8.68645 11.8807L4.19328 16.5039C3.79606 16.9126 3.25124 17.1359 2.67868 17.1248C2.10612 17.1137 1.55272 16.869 1.14022 16.4446C0.727724 16.0202 0.489917 15.4507 0.479113 14.8616C0.46831 14.2725 0.685397 13.7119 1.08262 13.3032L5.57579 8.67999L0.909803 3.87897C0.497304 3.45453 0.259496 2.88512 0.248692 2.29599C0.23789 1.70686 0.454977 1.14628 0.852198 0.737562C1.24942 0.328846 1.79424 0.105476 2.36679 0.116591C2.93935 0.127707 3.49275 0.372397 3.90525 0.796834L8.57124 5.59785L13.0644 0.97465C13.4616 0.565934 14.0065 0.342564 14.579 0.35368C15.1516 0.364796 15.705 0.609486 16.1175 1.03392Z" fill="#C2C2C2"/>
</svg>
