<svg width="18" height="17" viewBox="0 0 18 17" fill="none" xmlns="http://www.w3.org/2000/svg">
<path d="M16.9999 7.39013C17.1858 7.2517 17.3236 7.05857 17.3941 6.83784C17.4647 6.61711 17.4643 6.37983 17.3932 6.15929C17.3221 5.93875 17.1837 5.74599 16.9975 5.60806C16.8113 5.47012 16.5866 5.39392 16.3549 5.39013L11.8549 5.22013C11.8328 5.21861 11.8116 5.21071 11.7938 5.19741C11.7761 5.1841 11.7626 5.16595 11.7549 5.14513L10.1999 0.945135C10.1218 0.731454 9.97989 0.546943 9.79342 0.416582C9.60696 0.286222 9.38494 0.216309 9.15742 0.216309C8.92991 0.216309 8.70788 0.286222 8.52142 0.416582C8.33495 0.546943 8.19305 0.731454 8.11492 0.945135L6.56492 5.16013C6.55726 5.18095 6.54374 5.1991 6.526 5.21241C6.50826 5.22571 6.48705 5.23361 6.46492 5.23513L1.96492 5.40513C1.73322 5.40892 1.50852 5.48512 1.32232 5.62306C1.13611 5.76099 0.99775 5.95375 0.926625 6.17429C0.8555 6.39483 0.855181 6.63211 0.925713 6.85284C0.996244 7.07357 1.13409 7.2667 1.31992 7.40513L4.84992 10.1801C4.86759 10.194 4.88079 10.2128 4.8879 10.2341C4.89501 10.2555 4.89571 10.2784 4.88992 10.3001L3.67492 14.6051C3.61196 14.8244 3.61806 15.0577 3.69239 15.2733C3.76672 15.4889 3.90567 15.6764 4.09034 15.8103C4.27502 15.9441 4.49644 16.0179 4.7245 16.0214C4.95255 16.025 5.17617 15.9582 5.36492 15.8301L9.09492 13.3301C9.11329 13.3174 9.13509 13.3107 9.15742 13.3107C9.17975 13.3107 9.20155 13.3174 9.21992 13.3301L12.9499 15.8301C13.1361 15.9626 13.3589 16.0337 13.5874 16.0337C13.8159 16.0337 14.0387 15.9626 14.2249 15.8301C14.4096 15.6975 14.5487 15.511 14.623 15.2961C14.6974 15.0812 14.7033 14.8485 14.6399 14.6301L13.4149 10.3101C13.4084 10.2884 13.4088 10.2653 13.4159 10.2438C13.4231 10.2223 13.4367 10.2036 13.4549 10.1901L16.9999 7.39013Z" fill="#E384F2"/>
</svg>
