<svg width="32" height="32" viewBox="0 0 32 32" fill="none" xmlns="http://www.w3.org/2000/svg">
<path d="M14.0297 2.29819C14.4149 0.0896482 17.5851 0.0896454 17.9703 2.29819L19.4708 10.9026C19.6157 11.7336 20.2664 12.3843 21.0974 12.5292L29.7018 14.0297C31.9104 14.4149 31.9104 17.5851 29.7018 17.9703L21.0974 19.4708C20.2664 19.6157 19.6157 20.2664 19.4708 21.0974L17.9703 29.7018C17.5851 31.9104 14.4149 31.9104 14.0297 29.7018L12.5292 21.0974C12.3843 20.2664 11.7336 19.6157 10.9026 19.4708L2.29819 17.9703C0.0896482 17.5851 0.0896454 14.4149 2.29819 14.0297L10.9026 12.5292C11.7336 12.3843 12.3843 11.7336 12.5292 10.9026L14.0297 2.29819Z" fill="#81A8E0" fill-opacity="0.5"/>
</svg>
