<svg width="28" height="29" viewBox="0 0 28 29" fill="none" xmlns="http://www.w3.org/2000/svg">
<path d="M12.011 1.90958C12.2621 -0.478127 15.7379 -0.478128 15.989 1.90958L16.6806 8.48416C16.7657 9.29332 17.3325 9.97027 18.1141 10.1962L26.3545 12.5787C28.2806 13.1355 28.2806 15.8645 26.3545 16.4213L18.1141 18.8038C17.3325 19.0297 16.7657 19.7067 16.6806 20.5158L15.989 27.0904C15.7379 29.4781 12.2621 29.4781 12.011 27.0904L11.3194 20.5158C11.2343 19.7067 10.6675 19.0297 9.88587 18.8038L1.64546 16.4213C-0.280564 15.8645 -0.280563 13.1355 1.64546 12.5787L9.88587 10.1962C10.6675 9.97027 11.2343 9.29332 11.3194 8.48416L12.011 1.90958Z" fill="#81A8E0" fill-opacity="0.5"/>
</svg>
