<svg width="22" height="20" viewBox="0 0 22 20" fill="none" xmlns="http://www.w3.org/2000/svg">
<path d="M13.0712 1.16444C15.2896 -0.31658 18.1998 1.58913 17.7292 4.21462C17.4914 5.54112 18.1596 6.86497 19.3681 7.46149C21.7599 8.64217 21.5646 12.1154 19.0556 13.0206C17.7879 13.4779 16.9755 14.7185 17.0631 16.0633C17.2365 18.725 14.131 20.2925 12.0926 18.5722C11.0627 17.703 9.58207 17.6198 8.46125 18.368C6.24286 19.8491 3.33258 17.9434 3.80321 15.3179C4.04099 13.9914 3.37278 12.6675 2.16435 12.071C-0.227446 10.8903 -0.0321919 7.41709 2.47686 6.51192C3.74453 6.0546 4.55692 4.81398 4.46931 3.46919C4.2959 0.807498 7.40144 -0.760024 9.43986 0.960298C10.4697 1.82947 11.9503 1.91271 13.0712 1.16444Z" fill="#81A8E0" fill-opacity="0.5"/>
</svg>
