<svg width="20" height="18" viewBox="0 0 20 18" fill="none" xmlns="http://www.w3.org/2000/svg">
<path d="M13.7669 1.5712C14.5322 0.729651 15.8846 1.61526 15.4192 2.65316L13.7863 6.29442C13.5265 6.87387 13.8655 7.54562 14.4861 7.68071L18.3853 8.52963C19.4968 8.7716 19.406 10.3857 18.2745 10.5015L14.3046 10.9081C13.6729 10.9728 13.2607 11.6023 13.4539 12.2072L14.6684 16.0085C15.0146 17.0921 13.5714 17.8205 12.9052 16.8985L10.5682 13.6638C10.1963 13.149 9.44506 13.1068 9.01781 13.5766L6.33299 16.529C5.56771 17.3706 4.21527 16.485 4.68069 15.4471L6.31355 11.8058C6.57339 11.2263 6.23433 10.5546 5.61382 10.4195L1.71454 9.57059C0.603098 9.32862 0.693837 7.71456 1.82539 7.59868L5.79525 7.19214C6.42699 7.12745 6.8392 6.49794 6.64594 5.89301L5.43149 2.09168C5.08532 1.00816 6.5285 0.279712 7.19464 1.20173L9.53164 4.43646C9.90354 4.95121 10.6548 4.99345 11.0821 4.52362L13.7669 1.5712Z" fill="#81A8E0" fill-opacity="0.5"/>
</svg>
