<svg width="1699" height="1648" viewBox="0 0 1699 1648" fill="none" xmlns="http://www.w3.org/2000/svg">
<path d="M720.549 127.301C755.78 10.307 895.664 -37.2822 994.931 33.9551L1143.26 140.399C1178.8 165.908 1221.45 179.628 1265.2 179.628L1333.32 179.627C1437.42 179.627 1512.84 278.871 1484.96 379.165C1467.18 443.161 1491.48 511.434 1545.7 549.797L1605.83 592.341C1716.17 670.406 1730.7 828.89 1637.11 926.4C1578.27 987.694 1560.25 1078.74 1590.71 1158.05C1656.75 1329.97 1493.41 1504.09 1319.13 1444.54C1244.35 1418.99 1161.59 1436.1 1103.07 1489.21L980.381 1600.55C887.979 1684.41 740.563 1652.96 690.419 1538.7C655.737 1459.67 570.465 1415.71 485.972 1433.3L388.784 1453.53C251.978 1482.01 144.41 1337.44 210.992 1214.58C251.027 1140.71 228.823 1048.54 159.544 1001L67.6452 937.935C50.9922 926.508 36.7541 911.911 25.7445 894.979C-36.3655 799.457 23.384 671.926 136.53 658.514L159.426 655.8C262.041 643.636 329.477 542.624 301.367 443.187L281.421 372.63C250.242 290.198 323.585 206.309 409.442 226.201L517.589 251.257C604.676 271.433 692.472 220.543 718.248 134.945L720.549 127.301Z" fill="url(#paint0_radial_537_621)"/>
<defs>
<radialGradient id="paint0_radial_537_621" cx="0" cy="0" r="1" gradientUnits="userSpaceOnUse" gradientTransform="translate(860.407 825.459) rotate(86.2812) scale(939.269 958.505)">
<stop stop-color="#F13D94" stop-opacity="0.51"/>
<stop offset="1" stop-color="#FFE68B" stop-opacity="0"/>
</radialGradient>
</defs>
</svg>
