<svg width="179" height="173" viewBox="0 0 179 173" fill="none" xmlns="http://www.w3.org/2000/svg">
<g clip-path="url(#clip0_46_1293)">
<path d="M50.5 98.5002C35.9986 130 31.0014 165.5 31 179H120.998C120.998 179 110.13 161.264 96.4986 147C84.1983 134.129 74 123.699 74 113.5C74 91.9999 95.5002 69.0002 110.5 69.0002C125.5 69.0002 140.5 65.0002 140.5 52.0001C140.5 39 120.258 29.5856 103.998 38.9999C85 50.0001 65.0014 67.0001 50.5 98.5002Z" fill="white"/>
<circle cx="118" cy="50.5" r="3.5" fill="#414141"/>
<path d="M172.197 51.271C173.392 51.3954 173.392 53.1358 172.197 53.2602L137.104 56.9139C136.513 56.9753 136 56.5125 136 55.9192L136 48.612C136 48.0188 136.513 47.5559 137.104 47.6174L172.197 51.271Z" fill="#FAFA88"/>
<path d="M104.005 9.80128C103.748 7.86893 105.375 6.21399 107.316 6.39144C112.912 6.90299 117.154 6.95503 122.761 6.41772C124.678 6.23403 126.318 7.82566 126.127 9.74206L123.483 36.2972C123.331 37.8314 122.04 39 120.498 39H110.509C109.005 39 107.733 37.886 107.535 36.3948L104.005 9.80128Z" fill="#414141"/>
<path fill-rule="evenodd" clip-rule="evenodd" d="M107.47 35L106.512 28H124.241L123.522 35H107.47Z" fill="white"/>
<path d="M94.5 35.3378C94.5 34.1098 95.5915 33.1675 96.8075 33.3386C100.863 33.909 109.415 35 115.5 35C121.585 35 130.137 33.909 134.192 33.3386C135.409 33.1675 136.5 34.1098 136.5 35.3378V36.289C136.5 37.274 135.785 38.1109 134.81 38.2509C131.069 38.7878 121.913 40 115.5 40C109.087 40 99.9313 38.7878 96.1904 38.2509C95.2154 38.1109 94.5 37.274 94.5 36.289V35.3378Z" fill="#414141"/>
</g>
<defs>
<clipPath id="clip0_46_1293">
<rect width="179" height="173" fill="white" transform="matrix(1 0 0 -1 0 173)"/>
</clipPath>
</defs>
</svg>
