<svg width="450" height="450" viewBox="0 0 450 450" fill="none" xmlns="http://www.w3.org/2000/svg">
<path d="M173.423 138.064C182.073 138.064 189.086 131.042 189.086 122.38C189.086 113.719 182.073 106.697 173.423 106.697C164.773 106.697 157.76 113.719 157.76 122.38C157.76 131.042 164.773 138.064 173.423 138.064Z" fill="white"/>
<path d="M159.393 160.099C168.043 160.099 175.056 153.077 175.056 144.415C175.056 135.754 168.043 128.732 159.393 128.732C150.742 128.732 143.73 135.754 143.73 144.415C143.73 153.077 150.742 160.099 159.393 160.099Z" fill="white"/>
<path d="M145.362 182.134C154.013 182.134 161.025 175.112 161.025 166.45C161.025 157.789 154.013 150.767 145.362 150.767C136.712 150.767 129.699 157.789 129.699 166.45C129.699 175.112 136.712 182.134 145.362 182.134Z" fill="white"/>
<path d="M131.332 204.169C139.982 204.169 146.995 197.147 146.995 188.485C146.995 179.824 139.982 172.802 131.332 172.802C122.682 172.802 115.669 179.824 115.669 188.485C115.669 197.147 122.682 204.169 131.332 204.169Z" fill="white"/>
<path d="M121.434 227.021L100.193 210.81C96.7069 208.154 97.4042 202.704 101.452 201.019L126.094 190.699C130.142 189.013 134.495 192.334 133.934 196.693L130.533 223.224C129.972 227.583 124.921 229.695 121.434 227.038V227.021Z" fill="white"/>
<path d="M274.577 138.064C283.227 138.064 290.24 131.042 290.24 122.38C290.24 113.719 283.227 106.697 274.577 106.697C265.927 106.697 258.914 113.719 258.914 122.38C258.914 131.042 265.927 138.064 274.577 138.064Z" fill="white"/>
<path d="M288.607 160.099C297.258 160.099 304.27 153.077 304.27 144.415C304.27 135.754 297.258 128.732 288.607 128.732C279.957 128.732 272.944 135.754 272.944 144.415C272.944 153.077 279.957 160.099 288.607 160.099Z" fill="white"/>
<path d="M302.638 182.134C311.288 182.134 318.301 175.112 318.301 166.45C318.301 157.789 311.288 150.767 302.638 150.767C293.987 150.767 286.975 157.789 286.975 166.45C286.975 175.112 293.987 182.134 302.638 182.134Z" fill="white"/>
<path d="M316.668 204.169C325.318 204.169 332.331 197.147 332.331 188.485C332.331 179.824 325.318 172.802 316.668 172.802C308.018 172.802 301.005 179.824 301.005 188.485C301.005 197.147 308.018 204.169 316.668 204.169Z" fill="white"/>
<path d="M326.583 227.021L347.824 210.81C351.31 208.154 350.613 202.704 346.565 201.019L321.923 190.699C317.875 189.013 313.522 192.334 314.083 196.693L317.484 223.224C318.046 227.583 323.096 229.695 326.583 227.038V227.021Z" fill="white"/>
<path d="M222.861 147.344C250.343 149.081 277.502 142.099 278.387 108.008C279.407 68.9104 254.969 52.2224 223.796 52.2224H224.204C193.031 52.2224 168.593 68.9104 169.613 108.008C170.498 142.099 197.657 149.081 225.139 147.344" fill="white"/>
</svg>
