<svg width="450" height="450" viewBox="0 0 450 450" fill="none" xmlns="http://www.w3.org/2000/svg">
<path d="M170.587 101.895C166.464 108.161 166.756 115.433 165.073 122.278C160.007 142.729 137.782 158.174 120.623 174.794C117.206 178.098 113.891 181.623 112.671 185.659C111.452 189.694 112.791 194.394 117.309 196.898C116.845 193.339 119.404 189.865 122.959 187.396C126.515 184.926 130.997 183.309 135.394 181.725C130.585 185.539 126.566 190.273 126.515 195.45C126.429 203.692 136.081 210.095 145.373 214.812C166.224 225.386 191.025 233.628 216.325 231.687C232.177 230.461 246.965 225.335 260.62 219.341C275.786 212.683 280.578 199.588 284.39 187.668C291.003 167.012 290.264 145.761 289.784 124.713C289.612 117.425 284.442 112.47 279.616 105.914C272.574 96.3605 257.992 90.7241 243.255 88.9871C228.536 87.2502 213.491 88.885 198.789 90.707C188.672 91.9672 175.018 95.1856 170.587 101.912V101.895Z" fill="white"/>
</svg>
