<svg width="450" height="450" viewBox="0 0 450 450" fill="none" xmlns="http://www.w3.org/2000/svg">
<path d="M175.801 165.861C191.636 165.861 204.473 155.332 204.473 142.344C204.473 129.356 191.636 118.828 175.801 118.828C159.965 118.828 147.128 129.356 147.128 142.344C147.128 155.332 159.965 165.861 175.801 165.861Z" fill="white"/>
<path d="M163.845 182.838C179.681 182.838 192.518 172.31 192.518 159.322C192.518 146.334 179.681 135.805 163.845 135.805C148.009 135.805 135.172 146.334 135.172 159.322C135.172 172.31 148.009 182.838 163.845 182.838Z" fill="white"/>
<path d="M275.407 165.861C291.243 165.861 304.08 155.332 304.08 142.344C304.08 129.356 291.243 118.828 275.407 118.828C259.572 118.828 246.734 129.356 246.734 142.344C246.734 155.332 259.572 165.861 275.407 165.861Z" fill="white"/>
<path d="M288.23 182.838C304.066 182.838 316.903 172.31 316.903 159.322C316.903 146.334 304.066 135.805 288.23 135.805C272.394 135.805 259.557 146.334 259.557 159.322C259.557 172.31 272.394 182.838 288.23 182.838Z" fill="white"/>
<path d="M192.518 182.838C208.353 182.838 221.191 172.31 221.191 159.322C221.191 146.334 208.353 135.805 192.518 135.805C176.682 135.805 163.845 146.334 163.845 159.322C163.845 172.31 176.682 182.838 192.518 182.838Z" fill="white"/>
<path d="M259.557 182.838C275.393 182.838 288.23 172.31 288.23 159.322C288.23 146.334 275.393 135.805 259.557 135.805C243.722 135.805 230.884 146.334 230.884 159.322C230.884 172.31 243.722 182.838 259.557 182.838Z" fill="white"/>
<path d="M225.255 165.861C241.091 165.861 253.928 155.332 253.928 142.344C253.928 129.356 241.091 118.828 225.255 118.828C209.42 118.828 196.582 129.356 196.582 142.344C196.582 155.332 209.42 165.861 225.255 165.861Z" fill="white"/>
<path d="M223.861 142.344C251.343 144.081 278.502 137.099 279.387 103.008C280.407 63.9104 255.969 47.2224 224.796 47.2224H225.204C194.031 47.2224 169.593 63.9104 170.613 103.008C171.498 137.099 198.657 144.081 226.139 142.344" fill="white"/>
</svg>
