<svg width="450" height="450" viewBox="0 0 450 450" fill="none" xmlns="http://www.w3.org/2000/svg">
<path fill-rule="evenodd" clip-rule="evenodd" d="M173.717 138.061C182.317 137.904 189.239 130.944 189.239 122.38C189.239 113.719 182.157 106.697 173.42 106.697C164.684 106.697 157.602 113.719 157.602 122.38C157.602 124.642 158.085 126.792 158.954 128.735C150.355 128.891 143.432 135.852 143.432 144.415C143.432 146.677 143.915 148.827 144.785 150.77C136.185 150.927 129.263 157.887 129.263 166.45C129.263 168.712 129.746 170.862 130.615 172.805C122.015 172.962 115.093 179.922 115.093 188.485C115.093 190.638 115.53 192.688 116.321 194.555L100.734 201.019C96.6466 202.704 95.9424 208.154 99.4634 210.81L120.915 227.021V227.038C124.436 229.695 129.537 227.583 130.104 223.224L132.583 204.082C140.533 203.255 146.73 196.588 146.73 188.485C146.73 186.224 146.247 184.073 145.378 182.131C153.977 181.974 160.9 175.014 160.9 166.45C160.9 164.189 160.417 162.038 159.547 160.096C168.147 159.939 175.069 152.979 175.069 144.415C175.069 142.153 174.586 140.003 173.717 138.061ZM291.398 122.38C291.398 124.642 290.915 126.792 290.046 128.735C298.645 128.891 305.568 135.852 305.568 144.415C305.568 146.677 305.085 148.827 304.215 150.77C312.815 150.927 319.737 157.887 319.737 166.45C319.737 168.712 319.254 170.862 318.385 172.805C326.985 172.962 333.907 179.922 333.907 188.485C333.907 190.635 333.471 192.684 332.681 194.549L348.283 201.019C352.371 202.704 353.075 208.154 349.554 210.81L328.102 227.021V227.038C324.581 229.695 319.48 227.583 318.913 223.224L316.435 204.084C308.476 203.264 302.27 196.593 302.27 188.485C302.27 186.224 302.753 184.073 303.622 182.131C295.023 181.974 288.1 175.014 288.1 166.45C288.1 164.189 288.583 162.038 289.453 160.096C280.853 159.939 273.931 152.979 273.931 144.415C273.931 142.153 274.414 140.003 275.283 138.061C266.683 137.904 259.761 130.944 259.761 122.38C259.761 113.719 266.843 106.697 275.58 106.697C284.316 106.697 291.398 113.719 291.398 122.38Z" fill="white"/>
</svg>
