<svg width="450" height="450" viewBox="0 0 450 450" fill="none" xmlns="http://www.w3.org/2000/svg">
<path d="M170.617 101.895C166.535 108.161 166.824 115.433 165.158 122.278C160.141 142.729 138.135 158.174 121.145 174.794C117.761 178.098 114.479 181.623 113.271 185.659C112.064 189.694 113.39 194.394 117.863 196.898C117.404 193.339 119.938 189.865 123.458 187.396C126.978 184.926 131.417 183.309 135.771 181.725C131.009 185.539 127.029 190.273 126.978 195.45C126.893 203.692 136.451 210.095 145.651 214.812C166.297 225.386 190.854 233.628 215.905 231.687C231.602 230.461 246.244 225.335 259.764 219.341C274.781 212.683 279.526 199.588 283.301 187.668C289.849 167.012 289.118 145.761 288.641 124.713C288.471 117.425 283.352 112.47 278.574 105.914C271.601 96.3605 257.162 90.7241 242.571 88.9871C227.996 87.2502 213.099 88.885 198.541 90.707C188.525 91.9672 175.004 95.1856 170.617 101.912V101.895Z" fill="white"/>
<path d="M222.861 147.344C250.343 149.081 277.502 142.099 278.387 108.008C279.407 68.9104 254.969 52.2224 223.796 52.2224H224.204C193.031 52.2224 168.593 68.9104 169.613 108.008C170.498 142.099 197.657 149.081 225.139 147.344" fill="white"/>
</svg>
