<svg width="450" height="450" viewBox="0 0 450 450" fill="none" xmlns="http://www.w3.org/2000/svg">
<path d="M174.812 165.861C190.805 165.861 203.769 155.332 203.769 142.344C203.769 129.356 190.805 118.828 174.812 118.828C158.819 118.828 145.854 129.356 145.854 142.344C145.854 155.332 158.819 165.861 174.812 165.861Z" fill="white"/>
<path d="M162.737 182.838C178.73 182.838 191.695 172.31 191.695 159.322C191.695 146.334 178.73 135.805 162.737 135.805C146.745 135.805 133.78 146.334 133.78 159.322C133.78 172.31 146.745 182.838 162.737 182.838Z" fill="white"/>
<path d="M275.408 165.861C291.401 165.861 304.365 155.332 304.365 142.344C304.365 129.356 291.401 118.828 275.408 118.828C259.415 118.828 246.45 129.356 246.45 142.344C246.45 155.332 259.415 165.861 275.408 165.861Z" fill="white"/>
<path d="M288.358 182.838C304.351 182.838 317.316 172.31 317.316 159.322C317.316 146.334 304.351 135.805 288.358 135.805C272.365 135.805 259.4 146.334 259.4 159.322C259.4 172.31 272.365 182.838 288.358 182.838Z" fill="white"/>
<path d="M191.695 182.838C207.688 182.838 220.653 172.31 220.653 159.322C220.653 146.334 207.688 135.805 191.695 135.805C175.702 135.805 162.737 146.334 162.737 159.322C162.737 172.31 175.702 182.838 191.695 182.838Z" fill="white"/>
<path d="M259.4 182.838C275.393 182.838 288.358 172.31 288.358 159.322C288.358 146.334 275.393 135.805 259.4 135.805C243.408 135.805 230.443 146.334 230.443 159.322C230.443 172.31 243.408 182.838 259.4 182.838Z" fill="white"/>
<path d="M224.758 165.861C240.751 165.861 253.715 155.332 253.715 142.344C253.715 129.356 240.751 118.828 224.758 118.828C208.765 118.828 195.8 129.356 195.8 142.344C195.8 155.332 208.765 165.861 224.758 165.861Z" fill="white"/>
</svg>
