<svg width="450" height="450" viewBox="0 0 450 450" fill="none" xmlns="http://www.w3.org/2000/svg">
<path d="M212.342 51.5541C213.474 41.1942 206.047 31.8834 195.753 30.7578C185.458 29.6322 176.194 37.118 175.062 47.4779C173.929 57.8378 181.356 67.1486 191.651 68.2742C201.945 69.3998 211.209 61.914 212.342 51.5541Z" fill="white"/>
<path d="M260.122 56.7922C261.255 46.4323 253.827 37.1215 243.533 35.9959C233.238 34.8703 223.975 42.3561 222.842 52.716C221.709 63.0759 229.136 72.3867 239.431 73.5123C249.725 74.6379 258.989 67.1521 260.122 56.7922Z" fill="white"/>
<path d="M245.664 74.1859C246.797 63.826 239.37 54.5152 229.075 53.3896C218.781 52.264 209.517 59.7498 208.384 70.1097C207.252 80.4695 214.679 89.7804 224.973 90.906C235.268 92.0316 244.531 84.5457 245.664 74.1859Z" fill="white"/>
<path d="M234.984 54.015C236.117 43.6552 228.69 34.3444 218.395 33.2187C208.101 32.0931 198.837 39.579 197.704 49.9388C196.571 60.2987 203.999 69.6095 214.293 70.7351C224.588 71.8607 233.851 64.3749 234.984 54.015Z" fill="white"/>
<path d="M213.644 76.646C214.777 66.2862 207.35 56.9753 197.055 55.8497C186.761 54.7241 177.497 62.2099 176.364 72.5698C175.231 82.9297 182.659 92.2405 192.953 93.3661C203.248 94.4917 212.511 87.0059 213.644 76.646Z" fill="white"/>
<path d="M191.668 68.2777C192.8 57.9179 185.373 48.607 175.079 47.4814C164.784 46.3558 155.521 53.8416 154.388 64.2015C153.255 74.5614 160.682 83.8722 170.977 84.9978C181.271 86.1234 190.535 78.6376 191.668 68.2777Z" fill="white"/>
<path d="M185.366 86.5656C186.498 76.2057 179.071 66.8949 168.777 65.7693C158.482 64.6436 149.219 72.1295 148.086 82.4894C146.953 92.8492 154.38 102.16 164.675 103.286C174.969 104.411 184.233 96.9254 185.366 86.5656Z" fill="white"/>
<path d="M286.359 69.2142C287.492 58.8543 280.065 49.5435 269.77 48.4179C259.476 47.2923 250.212 54.7781 249.079 65.138C247.947 75.4978 255.374 84.8087 265.668 85.9343C275.963 87.0599 285.226 79.5741 286.359 69.2142Z" fill="white"/>
<path d="M274.034 81.5479C275.167 71.1881 267.74 61.8773 257.445 60.7516C247.151 59.626 237.887 67.1119 236.755 77.4717C235.622 87.8316 243.049 97.1424 253.343 98.268C263.638 99.3936 272.902 91.9078 274.034 81.5479Z" fill="white"/>
<path d="M298.661 89.5511C299.793 79.1912 292.366 69.8804 282.072 68.7548C271.777 67.6292 262.513 75.115 261.381 85.4749C260.248 95.8347 267.675 105.146 277.97 106.271C288.264 107.397 297.528 99.911 298.661 89.5511Z" fill="white"/>
</svg>
