<svg width="450" height="450" viewBox="0 0 450 450" fill="none" xmlns="http://www.w3.org/2000/svg">
<path d="M222.698 87.216C253.638 85.975 267.459 99.745 271.777 114.161C273.358 119.465 277.999 115.028 278.662 113.498C280.77 108.534 285.53 97.569 279.308 83.459C273.12 69.468 259.316 55.902 217.275 57.279C186.029 58.299 171.579 71.015 168.706 85.363C167.21 92.894 165.969 102.074 167.006 110.846C167.601 115.861 174.588 116.626 176.101 111.798C177.257 108.109 178.838 104.437 181.15 100.408C185.74 92.418 197.759 88.219 222.715 87.233L222.698 87.216Z" fill="white"/>
<path d="M197.232 39.905C206.752 31.609 220.913 31.405 235.652 33.241C245.019 34.397 249.354 35.774 251.802 41.35C254.777 48.133 256.511 57.16 243.71 60.271C242.078 60.662 240.446 59.472 238.814 59.557C222.715 60.39 211.41 61.172 202.468 59.625C191.707 57.755 191.928 44.529 197.232 39.888V39.905Z" fill="white"/>
</svg>
