<svg width="450" height="450" viewBox="0 0 450 450" fill="none" xmlns="http://www.w3.org/2000/svg">
<path d="M142.681 399.484L96.8831 381.855C91.8001 379.9 76.2621 374.681 72.9811 365.314C70.1081 357.137 73.8651 343.622 80.0871 339.423C92.8881 330.804 104.924 332.181 114.58 335.904L160.378 353.533C168.13 356.525 171.989 365.229 169.014 372.981L162.129 390.865C159.137 398.617 150.433 402.476 142.681 399.501V399.484Z" fill="white"/>
<path d="M310.337 399.484L356.135 381.855C361.218 379.9 376.756 374.681 380.037 365.314C382.91 357.137 379.153 343.622 372.931 339.423C360.13 330.804 348.094 332.181 338.438 335.904L292.64 353.533C284.888 356.525 281.029 365.229 284.004 372.981L290.889 390.865C293.881 398.617 302.585 402.476 310.337 399.501V399.484Z" fill="white"/>
</svg>
