<svg width="450" height="450" viewBox="0 0 450 450" fill="none" xmlns="http://www.w3.org/2000/svg">
<path d="M293.391 359.203L337.931 338.616C342.878 336.338 358.042 330.099 360.711 320.545C363.04 312.198 358.416 298.955 351.939 295.181C338.611 287.412 326.694 289.571 317.293 293.923L272.736 314.51C265.188 317.995 261.907 326.937 265.392 334.468L273.433 351.859C276.918 359.407 285.86 362.688 293.391 359.203Z" fill="white"/>
<path d="M157.932 359.203L113.392 338.616C108.445 336.338 93.2806 330.099 90.6116 320.545C88.2826 312.198 92.9066 298.955 99.3836 295.181C112.712 287.412 124.629 289.571 134.03 293.923L178.57 314.51C186.118 317.995 189.399 326.937 185.914 334.468L177.873 351.859C174.388 359.407 165.446 362.688 157.915 359.203H157.932Z" fill="white"/>
</svg>
