<svg width="450" height="450" viewBox="0 0 450 450" fill="none" xmlns="http://www.w3.org/2000/svg">
<path d="M140.774 431.441L93.0209 420.17C87.7169 418.912 71.6179 415.852 67.0959 407.012C63.1519 399.294 65.0219 385.388 70.6319 380.39C82.1409 370.122 94.2619 369.85 104.343 372.23L152.096 383.501C160.188 385.405 165.186 393.514 163.282 401.589L158.879 420.238C156.975 428.33 148.866 433.328 140.791 431.424L140.774 431.441Z" fill="white"/>
<path d="M311.896 431.441L359.649 420.17C364.953 418.912 381.052 415.852 385.574 407.012C389.518 399.294 387.648 385.388 382.038 380.39C370.529 370.122 358.408 369.85 348.327 372.23L300.591 383.518C292.499 385.439 287.501 393.531 289.405 401.623L293.808 420.272C295.712 428.364 303.821 433.362 311.896 431.458V431.441Z" fill="white"/>
</svg>
