<svg width="450" height="450" viewBox="0 0 450 450" fill="none" xmlns="http://www.w3.org/2000/svg">
<path d="M184.292 110.463C184.292 110.463 174.959 91.667 152.264 91.5991C121.613 91.5143 142.88 100.997 142.88 100.997C142.88 100.997 138.46 116.774 148.949 127.258C159.438 137.742 181.521 135.129 181.521 135.129L184.275 110.48L184.292 110.463Z" fill="white"/>
<path d="M266.708 110.463C266.708 110.463 276.041 91.667 298.736 91.5991C329.387 91.5143 308.12 100.997 308.12 100.997C308.12 100.997 312.54 116.774 302.051 127.258C291.562 137.742 269.479 135.129 269.479 135.129L266.725 110.48L266.708 110.463Z" fill="white"/>
</svg>
