<svg width="450" height="450" viewBox="0 0 450 450" fill="none" xmlns="http://www.w3.org/2000/svg">
<path d="M169.757 134.654C170.046 134.654 170.301 134.654 170.59 134.705C173.327 135.045 184.275 132.11 184.275 125.68C184.275 112.889 147.215 82.6589 137.984 95.3143C127.937 109.055 155.307 113.059 155.307 113.059C155.307 113.059 133.666 109.14 136.998 117.487C139.446 123.611 156.276 123.492 156.276 123.492C156.276 123.492 143.917 123.763 147.215 130.108C148.983 133.518 167.343 134.671 169.74 134.654H169.757Z" fill="white"/>
<path d="M281.243 134.654C280.954 134.654 280.699 134.654 280.41 134.705C277.673 135.045 266.725 132.11 266.725 125.68C266.725 112.889 303.785 82.6589 313.016 95.3143C323.063 109.055 295.693 113.059 295.693 113.059C295.693 113.059 317.334 109.14 314.002 117.487C311.554 123.611 294.724 123.492 294.724 123.492C294.724 123.492 307.083 123.763 303.785 130.108C302.017 133.518 283.657 134.671 281.26 134.654H281.243Z" fill="white"/>
</svg>
