<svg width="36" height="32" viewBox="0 0 36 32" fill="#fff" xmlns="http://www.w3.org/2000/svg">
    <path
        d="M31.0033 29.0462C26.669 31.7352 21.2477 32 15.9157 32C9.83426 32 4.10701 29.8245 1.71599 25.6001C-0.67504 21.3757 -0.0999645 15.9346 0.664199 11.9144C2.01741 4.77783 7.40183 -0.058267 15.4733 0.000530268C23.5448 0.0593276 29.5895 4.43116 31.0033 11.9143C32.7047 20.9192 31.1673 22.154 35.9005 23.1386C36.6089 24.3292 33.384 27.5693 31.0033 29.0462ZM13.7698 14.6411C13.7711 14.0797 13.5404 13.539 13.1247 13.1293C12.7091 12.7196 12.1398 12.4717 11.5331 12.4362C11.2273 12.4145 10.9199 12.4485 10.6284 12.5365C10.337 12.6245 10.0671 12.7646 9.83426 12.9489C9.60142 13.1332 9.41017 13.358 9.27143 13.6105C9.1327 13.863 9.04919 14.1383 9.02567 14.4206C9.00215 14.7029 9.0391 14.9867 9.13438 15.2558C9.22966 15.525 9.38142 15.7741 9.58099 15.9891C9.78056 16.2041 10.024 16.3807 10.2975 16.5088C10.571 16.6369 10.8691 16.714 11.1749 16.7357C12.6157 16.8974 13.4037 16.0008 13.7698 14.6411ZM21.9209 14.7734C21.934 14.2077 21.7061 13.6598 21.2864 13.2475C20.8667 12.8352 20.2885 12.5914 19.6762 12.5685C19.3655 12.5283 19.049 12.5505 18.7484 12.6335C18.4478 12.7165 18.1702 12.8585 17.9344 13.0497C17.6987 13.2408 17.5104 13.4767 17.3824 13.7412C17.2543 14.0057 17.1896 14.2926 17.1927 14.5823C17.1556 14.87 17.1849 15.1617 17.2787 15.4381C17.3726 15.7146 17.5288 15.9695 17.7372 16.1862C17.9455 16.4029 18.2012 16.5763 18.4874 16.6951C18.7736 16.8139 19.0838 16.8753 19.3976 16.8753C20.8304 16.9415 21.6503 16.133 21.9209 14.7734Z" />
</svg>