<svg width="36" height="36" viewBox="0 0 36 36" fill="none" xmlns="http://www.w3.org/2000/svg">
<circle cx="18" cy="18" r="16" stroke="white" stroke-width="2.5"/>
<g clip-path="url(#clip0_2586_9979)">
<path d="M25.095 25.1904C22.805 26.7886 19.9407 26.946 17.1236 26.946C13.9106 26.946 10.8847 25.653 9.62146 23.1421C8.3582 20.6312 8.66204 17.3972 9.06577 15.0076C9.78071 10.7658 12.6255 7.89139 16.8899 7.92634C21.1543 7.96129 24.348 10.5598 25.095 15.0076C25.9938 20.3599 25.1816 21.0938 27.6823 21.679C28.0566 22.3867 26.3527 24.3125 25.095 25.1904ZM15.9899 16.6283C15.9906 16.2946 15.8687 15.9733 15.6491 15.7298C15.4295 15.4862 15.1287 15.3389 14.8082 15.3178C14.6466 15.3049 14.4842 15.3251 14.3302 15.3774C14.1762 15.4297 14.0336 15.513 13.9106 15.6225C13.7876 15.732 13.6866 15.8657 13.6133 16.0158C13.54 16.1658 13.4958 16.3294 13.4834 16.4972C13.471 16.665 13.4905 16.8337 13.5408 16.9937C13.5912 17.1537 13.6714 17.3018 13.7768 17.4296C13.8822 17.5573 14.0109 17.6623 14.1554 17.7384C14.2999 17.8146 14.4574 17.8604 14.6189 17.8733C15.3801 17.9694 15.7965 17.4365 15.9899 16.6283ZM20.2964 16.7069C20.3033 16.3707 20.1829 16.0451 19.9612 15.8C19.7394 15.555 19.434 15.4101 19.1104 15.3964C18.9463 15.3725 18.7791 15.3857 18.6203 15.4351C18.4615 15.4844 18.3148 15.5688 18.1902 15.6824C18.0656 15.796 17.9662 15.9362 17.8985 16.0935C17.8309 16.2507 17.7967 16.4212 17.7983 16.5934C17.7787 16.7644 17.7942 16.9377 17.8438 17.1021C17.8934 17.2664 17.9759 17.4179 18.086 17.5467C18.1961 17.6755 18.3312 17.7786 18.4824 17.8492C18.6336 17.9198 18.7975 17.9563 18.9633 17.9563C19.7203 17.9956 20.1534 17.5151 20.2964 16.7069Z" fill="white"/>
</g>
<defs>
<clipPath id="clip0_2586_9979">
<rect width="25.284" height="21.07" fill="white" transform="translate(5.55469 7.92603)"/>
</clipPath>
</defs>
</svg>
