<svg width="24" height="18" viewBox="0 0 24 18" fill="none" xmlns="http://www.w3.org/2000/svg">
<path fill-rule="evenodd" clip-rule="evenodd" d="M0.5 2.8668C0.5 2.23167 1.01487 1.7168 1.65 1.7168H22.35C22.9851 1.7168 23.5 2.23167 23.5 2.8668C23.5 3.50192 22.9851 4.0168 22.35 4.0168H1.65C1.01487 4.0168 0.5 3.50192 0.5 2.8668Z" fill="white"/>
<path fill-rule="evenodd" clip-rule="evenodd" d="M0.5 9.00059C0.5 8.36546 1.01487 7.85059 1.65 7.85059H22.35C22.9851 7.85059 23.5 8.36546 23.5 9.00059C23.5 9.63571 22.9851 10.1506 22.35 10.1506H1.65C1.01487 10.1506 0.5 9.63571 0.5 9.00059Z" fill="white"/>
<path fill-rule="evenodd" clip-rule="evenodd" d="M0.5 15.1334C0.5 14.4983 1.01487 13.9834 1.65 13.9834H22.35C22.9851 13.9834 23.5 14.4983 23.5 15.1334C23.5 15.7685 22.9851 16.2834 22.35 16.2834H1.65C1.01487 16.2834 0.5 15.7685 0.5 15.1334Z" fill="white"/>
<path d="M16.6001 2.86693C16.6001 4.34889 15.3987 5.55026 13.9167 5.55026C12.4348 5.55026 11.2334 4.34889 11.2334 2.86693C11.2334 1.38496 12.4348 0.183594 13.9167 0.183594C15.3987 0.183594 16.6001 1.38496 16.6001 2.86693Z" fill="white"/>
<path d="M9.69992 9.00072C9.69992 10.4827 8.49855 11.684 7.01659 11.684C5.53462 11.684 4.33325 10.4827 4.33325 9.00072C4.33325 7.51875 5.53462 6.31738 7.01659 6.31738C8.49855 6.31738 9.69992 7.51875 9.69992 9.00072Z" fill="white"/>
<path d="M20.4333 15.1335C20.4333 16.6155 19.2319 17.8169 17.75 17.8169C16.268 17.8169 15.0667 16.6155 15.0667 15.1335C15.0667 13.6516 16.268 12.4502 17.75 12.4502C19.2319 12.4502 20.4333 13.6516 20.4333 15.1335Z" fill="white"/>
</svg>
