<svg width="36" height="35" viewBox="0 0 36 35" fill="none" xmlns="http://www.w3.org/2000/svg">
<path fill-rule="evenodd" clip-rule="evenodd" d="M18 2.75C9.8538 2.75 3.25 9.3538 3.25 17.5C3.25 25.6462 9.8538 32.25 18 32.25C26.1462 32.25 32.75 25.6462 32.75 17.5C32.75 9.3538 26.1462 2.75 18 2.75ZM0.75 17.5C0.75 7.97309 8.47309 0.25 18 0.25C27.5269 0.25 35.25 7.97309 35.25 17.5C35.25 27.0269 27.5269 34.75 18 34.75C8.47309 34.75 0.75 27.0269 0.75 17.5Z" fill="white"/>
<g clip-path="url(#clip0_46_1055)">
<path d="M25.095 24.6901C22.805 26.2884 19.9407 26.4458 17.1236 26.4458C13.9106 26.4458 10.8847 25.1527 9.62146 22.6418C8.3582 20.1309 8.66204 16.8969 9.06577 14.5074C9.78071 10.2656 12.6255 7.39115 16.8899 7.4261C21.1543 7.46104 24.348 10.0596 25.095 14.5074C25.9938 19.8596 25.1816 20.5936 27.6823 21.1788C28.0566 21.8865 26.3527 23.8123 25.095 24.6901ZM15.9899 16.1281C15.9906 15.7944 15.8687 15.473 15.6491 15.2295C15.4295 14.986 15.1287 14.8387 14.8082 14.8175C14.6466 14.8046 14.4842 14.8249 14.3302 14.8772C14.1762 14.9295 14.0336 15.0127 13.9106 15.1223C13.7876 15.2318 13.6866 15.3654 13.6133 15.5155C13.54 15.6656 13.4958 15.8292 13.4834 15.997C13.471 16.1648 13.4905 16.3335 13.5408 16.4935C13.5912 16.6534 13.6714 16.8015 13.7768 16.9293C13.8822 17.0571 14.0109 17.1621 14.1554 17.2382C14.2999 17.3143 14.4574 17.3602 14.6189 17.3731C15.3801 17.4692 15.7965 16.9362 15.9899 16.1281ZM20.2964 16.2067C20.3033 15.8705 20.1829 15.5448 19.9612 15.2998C19.7394 15.0547 19.434 14.9098 19.1104 14.8962C18.9463 14.8723 18.7791 14.8855 18.6203 14.9348C18.4615 14.9842 18.3148 15.0685 18.1902 15.1822C18.0656 15.2958 17.9662 15.436 17.8985 15.5932C17.8309 15.7504 17.7967 15.9209 17.7983 16.0931C17.7787 16.2641 17.7942 16.4375 17.8438 16.6018C17.8934 16.7661 17.9759 16.9177 18.086 17.0465C18.1961 17.1752 18.3312 17.2783 18.4824 17.3489C18.6336 17.4195 18.7975 17.456 18.9633 17.4561C19.7203 17.4954 20.1534 17.0149 20.2964 16.2067Z" fill="white"/>
</g>
<defs>
<clipPath id="clip0_46_1055">
<rect width="25.284" height="21.07" fill="white" transform="translate(5.55469 7.42578)"/>
</clipPath>
</defs>
</svg>
