<svg width="450" height="450" viewBox="0 0 450 450" fill="none" xmlns="http://www.w3.org/2000/svg">
<g clip-path="url(#clip0_97_549)">
<path d="M405.472 124.622C405.472 124.622 433.488 110.291 426.926 98.0172C419.208 83.6182 394.694 100.023 394.694 100.023C394.694 100.023 419.633 77.7022 406.781 66.8222C392.909 55.0752 376.453 84.0772 376.453 84.0772C376.453 84.0772 383.882 52.1002 368.99 52.6782C356.478 53.1542 351.769 74.6422 351.769 74.6422C341.314 108.88 345.751 111.532 360.524 124.231C372.832 134.822 382.063 134.227 405.489 124.622" fill="white"/>
<path d="M44.528 124.622C44.528 124.622 16.512 110.291 23.074 98.0172C30.792 83.6182 55.306 100.023 55.306 100.023C55.306 100.023 30.367 77.7022 43.219 66.8222C57.091 55.0752 73.547 84.0772 73.547 84.0772C73.547 84.0772 66.118 52.1002 81.01 52.6782C93.522 53.1542 98.231 74.6422 98.231 74.6422C108.686 108.88 104.249 111.532 89.476 124.231C77.168 134.822 67.937 134.227 44.511 124.622" fill="white"/>
</g>
<defs>
<clipPath id="clip0_97_549">
<rect width="442" height="102" fill="white" transform="translate(4 30)"/>
</clipPath>
</defs>
</svg>
