<svg width="450" height="450" viewBox="0 0 450 450" fill="none" xmlns="http://www.w3.org/2000/svg">
<g clip-path="url(#clip0_97_558)">
<path d="M379.139 157.359C379.139 157.359 408.532 146.105 403.296 133.202C397.159 118.055 371.047 131.757 371.047 131.757C371.047 131.757 398.23 112.224 386.619 100.035C374.073 86.8772 354.608 113.958 354.608 113.958C354.608 113.958 365.403 82.9672 350.528 81.9472C338.033 81.0972 331.063 101.956 331.063 101.956C317.004 134.885 321.152 137.996 334.463 152.191C345.564 164.04 354.812 164.431 379.122 157.393" fill="white"/>
<path d="M70.861 157.359C70.861 157.359 41.468 146.105 46.704 133.202C52.841 118.055 78.953 131.757 78.953 131.757C78.953 131.757 51.77 112.224 63.381 100.035C75.927 86.8772 95.392 113.958 95.392 113.958C95.392 113.958 84.597 82.9672 99.472 81.9472C111.967 81.0972 118.937 101.956 118.937 101.956C132.996 134.885 128.848 137.996 115.537 152.191C104.436 164.04 95.188 164.431 70.878 157.393" fill="white"/>
</g>
<defs>
<clipPath id="clip0_97_558">
<rect width="442" height="102" fill="white" transform="translate(4 60)"/>
</clipPath>
</defs>
</svg>
