<svg width="450" height="450" viewBox="0 0 450 450" fill="none" xmlns="http://www.w3.org/2000/svg">
<path d="M106.269 182.446C106.269 182.446 76.4681 177.822 76.0091 162.539C75.7371 153.121 82.3841 150.894 82.3841 150.894C82.3841 150.894 72.4561 144.621 74.2071 137.498C77.2671 124.986 88.0451 126.125 88.0451 126.125C88.0451 126.125 84.5941 117.217 94.4371 111.386C104.535 105.402 110.111 114.344 110.111 114.344C110.111 114.344 112.134 105.181 122.674 104.059C135.611 102.682 143.227 126.057 143.227 126.057L140.745 123.575C152.475 133.571 151.761 153.682 139.147 168.523C126.516 183.347 112.049 183.5 106.286 182.429" fill="white"/>
<path className="palm" fill-rule="evenodd" clip-rule="evenodd" d="M134.034 127.266C137.236 123.506 136.25 117.408 131.832 113.647C127.414 109.886 121.237 109.885 118.035 113.645C114.834 117.406 115.82 123.503 120.238 127.264C124.656 131.026 130.833 131.027 134.034 127.266ZM112.595 132.527C115.796 128.767 114.81 122.669 110.392 118.908C105.974 115.147 99.797 115.146 96.5956 118.906C93.3942 122.667 94.3804 128.764 98.7985 132.525C103.216 136.287 109.393 136.288 112.595 132.527ZM96.144 135.611C100.562 139.373 101.548 145.47 98.3469 149.231C95.1454 152.991 88.9687 152.99 84.5507 149.229C80.1326 145.467 79.1464 139.37 82.3478 135.609C85.5492 131.849 91.726 131.85 96.144 135.611ZM99.4828 171.617C102.684 167.857 101.698 161.759 97.2799 157.998C92.8619 154.236 86.6851 154.236 83.4837 157.996C80.2823 161.756 81.2686 167.854 85.6866 171.615C90.1046 175.376 96.2814 175.377 99.4828 171.617ZM139.016 139.258C143.076 142.715 143.98 148.322 141.034 151.782C140.13 152.844 138.969 153.58 137.675 153.991C137.496 157.686 136.096 161.421 133.444 164.536C130.798 167.644 127.342 169.62 123.731 170.39C123.528 171.718 122.988 172.969 122.093 174.021C119.147 177.481 113.467 177.483 109.406 174.026C105.715 170.884 104.633 165.965 106.679 162.496C103.786 156.783 104.583 149.397 109.239 143.928C113.894 138.459 121.058 136.495 127.159 138.438C130.253 135.829 135.309 136.102 139.016 139.258Z" fill="#555555"/>
<path d="M342.827 182.446C342.827 182.446 372.628 177.822 373.087 162.539C373.359 153.121 366.712 150.894 366.712 150.894C366.712 150.894 376.64 144.621 374.889 137.498C371.829 124.986 361.051 126.125 361.051 126.125C361.051 126.125 364.502 117.217 354.659 111.386C344.561 105.402 338.985 114.344 338.985 114.344C338.985 114.344 336.962 105.181 326.422 104.059C313.485 102.682 305.869 126.057 305.869 126.057L308.351 123.575C296.621 133.571 297.335 153.682 309.949 168.523C322.563 183.364 337.047 183.5 342.81 182.429" fill="white"/>
<path className="palm" fill-rule="evenodd" clip-rule="evenodd" d="M329.144 127.264C333.562 123.503 334.549 117.406 331.347 113.645C328.146 109.885 321.969 109.886 317.551 113.647C313.133 117.408 312.147 123.506 315.348 127.266C318.55 131.027 324.726 131.026 329.144 127.264ZM352.792 118.895C355.994 122.656 355.007 128.753 350.589 132.515C346.171 136.276 339.995 136.277 336.793 132.516C333.592 128.756 334.578 122.659 338.996 118.897C343.414 115.136 349.591 115.135 352.792 118.895ZM310.373 139.263C314.07 136.115 319.109 135.835 322.205 138.421C328.306 136.48 335.468 138.445 340.123 143.912C344.781 149.384 345.576 156.775 342.678 162.49C344.742 165.959 343.663 170.893 339.964 174.042C335.903 177.499 330.224 177.497 327.278 174.037C326.375 172.977 325.834 171.715 325.635 170.376C322.022 169.606 318.564 167.63 315.917 164.52C313.268 161.409 311.869 157.678 311.686 153.987C310.404 153.575 309.252 152.842 308.354 151.787C305.409 148.327 306.312 142.72 310.373 139.263ZM367.013 135.605C370.215 139.365 369.229 145.462 364.811 149.224C360.393 152.985 354.216 152.986 351.014 149.226C347.813 145.465 348.799 139.368 353.217 135.606C357.635 131.845 363.812 131.844 367.013 135.605ZM363.686 171.593C368.104 167.831 369.09 161.734 365.889 157.973C362.687 154.213 356.511 154.214 352.093 157.975C347.675 161.737 346.688 167.834 349.89 171.595C353.091 175.355 359.268 175.354 363.686 171.593Z" fill="#555555"/>
</svg>
