<svg width="450" height="450" viewBox="0 0 450 450" fill="none" xmlns="http://www.w3.org/2000/svg">
<path d="M372.679 164.096C378.816 161.648 399.811 149.816 394.15 140.789C390.189 134.482 365.76 155.732 360.286 145.94C354.098 134.839 392.603 115.527 384.749 106.568C377.184 97.9491 353.112 132.901 342.742 125.948C333.273 119.607 357.804 95.7391 351.633 88.7181C344.986 81.1701 328.19 109.696 328.19 109.696C316.613 119.879 320.081 137.457 332.933 152.077C345.785 166.697 363.074 168.006 372.679 164.079" fill="white"/>
<path d="M395.34 150.955C400.776 150.955 405.183 146.548 405.183 141.112C405.183 135.676 400.776 131.269 395.34 131.269C389.904 131.269 385.497 135.676 385.497 141.112C385.497 146.548 389.904 150.955 395.34 150.955Z" fill="white"/>
<path d="M383.967 115.544C389.403 115.544 393.81 111.137 393.81 105.701C393.81 100.265 389.403 95.8579 383.967 95.8579C378.531 95.8579 374.124 100.265 374.124 105.701C374.124 111.137 378.531 115.544 383.967 115.544Z" fill="white"/>
<path d="M351.616 98.5781C357.052 98.5781 361.459 94.1712 361.459 88.7351C361.459 83.299 357.052 78.8921 351.616 78.8921C346.18 78.8921 341.773 83.299 341.773 88.7351C341.773 94.1712 346.18 98.5781 351.616 98.5781Z" fill="white"/>
<path d="M77.321 164.096C71.184 161.648 50.189 149.816 55.85 140.789C59.811 134.482 84.24 155.732 89.714 145.94C95.902 134.839 57.397 115.527 65.251 106.568C73.105 97.6091 96.888 132.901 107.258 125.948C116.727 119.607 92.196 95.7391 98.367 88.7181C105.014 81.1701 121.81 109.696 121.81 109.696C133.387 119.879 129.919 137.457 117.067 152.077C104.215 166.697 86.926 168.006 77.321 164.079" fill="white"/>
<path d="M54.66 150.955C60.0961 150.955 64.503 146.548 64.503 141.112C64.503 135.676 60.0961 131.269 54.66 131.269C49.2239 131.269 44.817 135.676 44.817 141.112C44.817 146.548 49.2239 150.955 54.66 150.955Z" fill="white"/>
<path d="M66.033 115.544C71.4691 115.544 75.876 111.137 75.876 105.701C75.876 100.265 71.4691 95.8579 66.033 95.8579C60.5969 95.8579 56.19 100.265 56.19 105.701C56.19 111.137 60.5969 115.544 66.033 115.544Z" fill="white"/>
<path d="M98.384 98.5781C103.82 98.5781 108.227 94.1712 108.227 88.7351C108.227 83.299 103.82 78.8921 98.384 78.8921C92.9479 78.8921 88.541 83.299 88.541 88.7351C88.541 94.1712 92.9479 98.5781 98.384 98.5781Z" fill="white"/>
</svg>
