<svg width="450" height="450" viewBox="0 0 450 450" fill="none" xmlns="http://www.w3.org/2000/svg">
<path d="M127.12 115.694C127.12 115.694 126.729 93.2201 114.455 91.6561C100.43 89.8711 102.436 105.086 102.436 105.086C102.436 105.086 81.8153 82.3401 72.2443 87.8651C54.1903 98.3031 80.3533 117.496 80.3533 117.496C80.3533 117.496 56.7913 98.0991 48.7673 114.419C42.9703 126.234 71.9213 136.468 71.9213 136.468C71.9213 136.468 50.6373 132.49 48.8183 144.101C47.2713 154.012 78.5683 162.478 78.5683 162.478L75.6613 160.506C87.6633 170.179 107.298 165.742 119.521 150.578C131.744 135.414 131.914 115.286 119.912 105.613" fill="white"/>
<path className="palm" d="M110.902 141.126C110.647 141.126 110.409 141.092 110.154 141.024C109.559 140.837 104.306 139.018 103.218 130.008C102.215 121.814 104.272 116.731 104.357 116.527C104.901 115.218 106.38 114.606 107.689 115.15C108.981 115.694 109.61 117.173 109.066 118.465C109.015 118.584 107.451 122.698 108.267 129.396C108.964 135.057 111.599 136.128 111.701 136.179C113.044 136.587 113.775 137.998 113.367 139.341C113.027 140.446 111.99 141.143 110.902 141.143V141.126Z" fill="#555555" fill-opacity="0.5"/>
<path d="M316.682 115.694C316.682 115.694 317.073 93.2201 329.347 91.6561C343.372 89.8711 341.366 105.086 341.366 105.086C341.366 105.086 361.987 82.3401 371.558 87.8651C389.612 98.3031 363.449 117.496 363.449 117.496C363.449 117.496 387.011 98.0991 395.035 114.419C400.832 126.234 371.881 136.468 371.881 136.468C371.881 136.468 393.165 132.49 394.984 144.101C396.531 154.012 365.234 162.478 365.234 162.478L368.141 160.506C356.139 170.179 336.504 165.742 324.281 150.578C312.058 135.414 311.888 115.286 323.89 105.613" fill="white"/>
<path className="palm" d="M332.917 141.126C331.829 141.126 330.809 140.412 330.469 139.307C330.061 137.964 330.826 136.536 332.169 136.128C332.186 136.128 334.821 135.023 335.518 129.379C336.334 122.613 334.736 118.482 334.719 118.448C334.192 117.139 334.821 115.66 336.13 115.133C337.422 114.589 338.901 115.218 339.445 116.51C339.53 116.714 341.587 121.814 340.584 129.991C339.479 139.001 334.243 140.837 333.648 141.007C333.41 141.075 333.155 141.109 332.917 141.109V141.126Z" fill="#555555" fill-opacity="0.5"/>
</svg>
