<svg width="450" height="450" viewBox="0 0 450 450" fill="none" xmlns="http://www.w3.org/2000/svg">
<path fill-rule="evenodd" clip-rule="evenodd" d="M335.855 101.659C340.946 101.28 344.958 97.0304 344.958 91.843C344.958 86.4069 340.552 82 335.115 82C329.679 82 325.272 86.4069 325.272 91.843C325.272 93.3056 325.591 94.6936 326.164 95.9414C320.541 103.36 315.583 116.51 315.583 116.51C305.91 128.512 312.336 145.24 327.5 157.463C342.664 169.686 359.919 168.02 368.725 162.512C372.442 160.232 381.857 152.804 385.761 145.74C386.21 145.803 386.669 145.835 387.135 145.835C392.572 145.835 396.978 141.428 396.978 135.992C396.978 130.556 392.572 126.149 387.135 126.149C381.699 126.149 377.292 130.556 377.292 135.992C377.292 136.603 377.348 137.2 377.454 137.78C375.881 138.759 374.196 139.919 372.466 141.109L372.466 141.109L372.466 141.109C365.267 146.063 357.299 151.547 353.408 146.736C349.378 141.755 356.193 132.774 362.748 124.135L362.748 124.135C365.759 120.167 368.716 116.27 370.541 112.867C375.669 112.527 379.723 108.26 379.723 103.046C379.723 97.6099 375.317 93.203 369.88 93.203C364.444 93.203 360.037 97.6099 360.037 103.046C360.037 104.42 360.319 105.728 360.827 106.916C358.2 109.366 355.407 112.643 352.569 115.972C345.623 124.121 338.405 132.587 332.685 130.042C327.14 127.582 330.238 118.588 333.256 109.825C334.228 107.004 335.191 104.206 335.855 101.659Z" fill="white"/>
<path fill-rule="evenodd" clip-rule="evenodd" d="M122.815 95.9414C123.387 94.6937 123.706 93.3056 123.706 91.843C123.706 86.4069 119.299 82 113.863 82C108.427 82 104.02 86.4069 104.02 91.843C104.02 97.0303 108.033 101.28 113.123 101.659C113.787 104.206 114.751 107.004 115.723 109.825C118.74 118.588 121.838 127.582 116.294 130.042C110.519 132.612 103.128 124.034 96.0773 115.851C93.3152 112.645 90.6054 109.5 88.0655 107.11C88.6278 105.871 88.941 104.495 88.941 103.046C88.941 97.6099 84.5341 93.203 79.098 93.203C73.6619 93.203 69.255 97.6099 69.255 103.046C69.255 108.26 73.3094 112.527 78.4375 112.867C80.2628 116.27 83.2194 120.167 86.2307 124.135C92.7858 132.774 99.6005 141.755 95.571 146.736C91.6793 151.547 83.7114 146.063 76.5124 141.109C74.7828 139.919 73.0976 138.759 71.524 137.78C71.6304 137.2 71.686 136.603 71.686 135.992C71.686 130.556 67.2791 126.149 61.843 126.149C56.4069 126.149 52 130.556 52 135.992C52 141.428 56.4069 145.835 61.843 145.835C62.3094 145.835 62.7683 145.803 63.2175 145.74C67.1215 152.804 76.5367 160.232 80.254 162.512C89.06 168.02 106.315 169.686 121.479 157.463C136.643 145.24 143.069 128.512 133.396 116.51C133.396 116.51 128.438 103.36 122.815 95.9414Z" fill="white"/>
</svg>
