<svg width="450" height="450" viewBox="0 0 450 450" fill="none" xmlns="http://www.w3.org/2000/svg">
<path d="M385.827 142.446C385.827 142.446 415.628 137.822 416.087 122.539C416.359 113.121 409.712 110.894 409.712 110.894C409.712 110.894 419.64 104.621 417.889 97.4975C414.829 84.9855 404.051 86.1245 404.051 86.1245C404.051 86.1245 407.502 77.2165 397.659 71.3855C387.561 65.4015 381.985 74.3435 381.985 74.3435C381.985 74.3435 379.962 65.1805 369.422 64.0585C356.485 62.6815 348.869 86.0565 348.869 86.0565L351.351 83.5745C339.621 93.5705 340.335 113.682 352.949 128.523C365.563 143.364 380.047 143.5 385.81 142.429" fill="white"/>
<path className="palm" fill-rule="evenodd" clip-rule="evenodd" d="M372.144 87.2645C376.562 83.5031 377.549 77.4056 374.347 73.6453C371.146 69.8849 364.969 69.8858 360.551 73.6471C356.133 77.4085 355.147 83.506 358.348 87.2663C361.55 91.0267 367.726 91.0258 372.144 87.2645ZM395.792 78.8954C398.994 82.6557 398.007 88.7532 393.589 92.5146C389.171 96.2759 382.995 96.2768 379.793 92.5165C376.592 88.7561 377.578 82.6586 381.996 78.8973C386.414 75.1359 392.591 75.1351 395.792 78.8954ZM353.373 99.2626C357.07 96.1152 362.109 95.8353 365.205 98.4215C371.306 96.4799 378.468 98.4449 383.123 103.912C387.781 109.384 388.576 116.775 385.678 122.49C387.742 125.959 386.663 130.893 382.964 134.042C378.903 137.499 373.224 137.497 370.278 134.037C369.375 132.977 368.834 131.715 368.634 130.376C365.022 129.606 361.564 127.63 358.917 124.52C356.268 121.409 354.869 117.678 354.686 113.987C353.404 113.575 352.252 112.842 351.354 111.787C348.409 108.327 349.312 102.72 353.373 99.2626ZM410.013 95.6046C413.215 99.3649 412.229 105.462 407.811 109.224C403.393 112.985 397.216 112.986 394.014 109.226C390.813 105.465 391.799 99.3678 396.217 95.6065C400.635 91.8451 406.812 91.8443 410.013 95.6046ZM406.686 131.593C411.104 127.831 412.09 121.734 408.889 117.973C405.687 114.213 399.511 114.214 395.093 117.975C390.675 121.737 389.688 127.834 392.89 131.595C396.091 135.355 402.268 135.354 406.686 131.593Z" fill="#555555"/>
<path d="M63.2691 142.446C63.2691 142.446 33.4681 137.822 33.0091 122.539C32.7371 113.121 39.3841 110.894 39.3841 110.894C39.3841 110.894 29.4561 104.621 31.2071 97.4975C34.2671 84.9855 45.0451 86.1245 45.0451 86.1245C45.0451 86.1245 41.5941 77.2165 51.4371 71.3855C61.5351 65.4015 67.1111 74.3435 67.1111 74.3435C67.1111 74.3435 69.1341 65.1805 79.6741 64.0585C92.6111 62.6815 100.227 86.0565 100.227 86.0565L97.7451 83.5745C109.475 93.5705 108.761 113.682 96.1471 128.523C83.5161 143.347 69.0491 143.5 63.2861 142.429" fill="white"/>
<path className="palm" fill-rule="evenodd" clip-rule="evenodd" d="M91.0345 87.2663C94.236 83.506 93.2497 77.4085 88.8317 73.6471C84.4137 69.8858 78.2369 69.8849 75.0355 73.6453C71.8341 77.4056 72.8203 83.5031 77.2383 87.2645C81.6564 91.0258 87.8331 91.0267 91.0345 87.2663ZM67.3918 78.9081C71.8099 82.6695 72.7961 88.767 69.5947 92.5273C66.3933 96.2876 60.2165 96.2868 55.7985 92.5254C51.3805 88.7641 50.3942 82.6666 53.5956 78.9062C56.797 75.1459 62.9738 75.1468 67.3918 78.9081ZM98.0342 111.782C100.98 108.322 100.076 102.715 96.0157 99.2579C92.309 96.1021 87.253 95.8291 84.1591 98.4376C78.0575 96.4947 70.8944 98.4594 66.2388 103.928C61.5827 109.397 60.7863 116.783 63.6789 122.496C61.6328 125.965 62.7154 130.884 66.4065 134.026C70.4671 137.483 76.1468 137.481 79.0926 134.021C79.9883 132.969 80.528 131.718 80.7314 130.39C84.3423 129.62 87.7984 127.644 90.4445 124.536C93.0959 121.422 94.4957 117.686 94.6755 113.991C95.9687 113.58 97.1302 112.844 98.0342 111.782ZM53.144 95.6114C57.5621 99.3727 58.5483 105.47 55.3469 109.231C52.1455 112.991 45.9687 112.99 41.5507 109.229C37.1327 105.467 36.1464 99.3698 39.3478 95.6095C42.5492 91.8492 48.726 91.85 53.144 95.6114ZM56.4828 131.617C59.6843 127.857 58.698 121.759 54.28 117.998C49.862 114.236 43.6852 114.236 40.4838 117.996C37.2824 121.756 38.2686 127.854 42.6866 131.615C47.1047 135.376 53.2814 135.377 56.4828 131.617Z" fill="#555555"/>
</svg>
