<svg width="450" height="450" viewBox="0 0 450 450" fill="none" xmlns="http://www.w3.org/2000/svg">
<path fill-rule="evenodd" clip-rule="evenodd" d="M323.855 115.659C328.946 115.28 332.958 111.03 332.958 105.843C332.958 100.407 328.552 96 323.115 96C317.679 96 313.272 100.407 313.272 105.843C313.272 107.306 313.591 108.694 314.164 109.941C308.541 117.36 303.583 130.51 303.583 130.51C293.91 142.512 300.336 159.24 315.5 171.463C330.664 183.686 347.919 182.02 356.725 176.512C360.442 174.232 369.857 166.804 373.761 159.74C374.21 159.803 374.669 159.835 375.135 159.835C380.572 159.835 384.978 155.428 384.978 149.992C384.978 144.556 380.572 140.149 375.135 140.149C369.699 140.149 365.292 144.556 365.292 149.992C365.292 150.603 365.348 151.2 365.454 151.78C363.881 152.759 362.196 153.919 360.466 155.109L360.466 155.109L360.466 155.109C353.267 160.063 345.299 165.547 341.408 160.736C337.378 155.755 344.193 146.774 350.748 138.135L350.748 138.135C353.759 134.167 356.716 130.27 358.541 126.867C363.669 126.527 367.723 122.26 367.723 117.046C367.723 111.61 363.317 107.203 357.88 107.203C352.444 107.203 348.037 111.61 348.037 117.046C348.037 118.42 348.319 119.728 348.827 120.916C346.2 123.366 343.407 126.643 340.569 129.972C333.623 138.121 326.405 146.587 320.685 144.042C315.14 141.582 318.238 132.588 321.256 123.825C322.228 121.004 323.191 118.206 323.855 115.659Z" fill="white"/>
<path fill-rule="evenodd" clip-rule="evenodd" d="M138.815 109.941C139.387 108.694 139.706 107.306 139.706 105.843C139.706 100.407 135.299 96 129.863 96C124.427 96 120.02 100.407 120.02 105.843C120.02 111.03 124.033 115.28 129.123 115.659C129.787 118.206 130.751 121.004 131.723 123.825C134.74 132.588 137.838 141.582 132.294 144.042C126.519 146.612 119.128 138.034 112.077 129.851C109.315 126.645 106.605 123.5 104.066 121.11C104.628 119.871 104.941 118.495 104.941 117.046C104.941 111.61 100.534 107.203 95.098 107.203C89.6619 107.203 85.255 111.61 85.255 117.046C85.255 122.26 89.3094 126.527 94.4375 126.867C96.2628 130.27 99.2194 134.167 102.231 138.135C108.786 146.774 115.601 155.755 111.571 160.736C107.679 165.547 99.7114 160.063 92.5124 155.109C90.7828 153.919 89.0976 152.759 87.524 151.78C87.6304 151.2 87.686 150.603 87.686 149.992C87.686 144.556 83.2791 140.149 77.843 140.149C72.4069 140.149 68 144.556 68 149.992C68 155.428 72.4069 159.835 77.843 159.835C78.3094 159.835 78.7683 159.803 79.2175 159.74C83.1215 166.804 92.5367 174.232 96.254 176.512C105.06 182.02 122.315 183.686 137.479 171.463C152.643 159.24 159.069 142.512 149.396 130.51C149.396 130.51 144.438 117.36 138.815 109.941Z" fill="white"/>
</svg>
