<svg width="450" height="450" viewBox="0 0 450 450" fill="none" xmlns="http://www.w3.org/2000/svg">
<g clip-path="url(#clip0_97_486)">
<path d="M334.446 188.949C334.446 188.949 364.57 190.598 368.174 175.757C370.401 166.611 364.349 163.041 364.349 163.041C364.349 163.041 375.348 158.961 375.127 151.634C374.719 138.765 363.941 137.643 363.941 137.643C363.941 137.643 369.16 129.653 360.745 121.901C352.109 113.945 344.799 121.544 344.799 121.544C344.799 121.544 344.714 112.16 334.65 108.879C322.274 104.85 309.983 126.151 309.983 126.151L312.924 124.23C299.375 131.574 295.907 151.413 305.172 168.532C314.437 185.651 328.581 188.796 334.429 188.949" fill="white"/>
<path className='palm' fill-rule="evenodd" clip-rule="evenodd" d="M329.938 135.872C334.314 133.502 336.225 128.562 334.208 124.839C332.191 121.116 327.009 120.02 322.633 122.39C318.258 124.761 316.347 129.701 318.364 133.424C320.381 137.147 325.563 138.243 329.938 135.872ZM351.258 133.047C353.276 136.77 351.364 141.71 346.989 144.081C342.614 146.451 337.432 145.355 335.415 141.632C333.397 137.909 335.309 132.969 339.684 130.599C344.059 128.228 349.241 129.324 351.258 133.047ZM312.044 142.615C315.709 140.629 319.992 141.294 322.126 144.022C327.592 143.476 333.254 146.398 336.188 151.814C339.122 157.229 338.479 163.565 335.04 167.845C336.155 171.122 334.373 175.07 330.711 177.054C326.691 179.232 321.927 178.221 320.071 174.795C319.505 173.751 319.275 172.604 319.341 171.452C316.441 170.165 313.885 167.889 312.213 164.805C310.542 161.72 310.032 158.336 310.538 155.204C309.532 154.63 308.693 153.809 308.126 152.762C306.27 149.336 308.024 144.793 312.044 142.615ZM360.238 149.603C362.256 153.326 360.344 158.265 355.969 160.636C351.594 163.007 346.412 161.91 344.395 158.187C342.377 154.464 344.289 149.524 348.664 147.154C353.039 144.783 358.221 145.88 360.238 149.603ZM351.034 179.22C355.409 176.849 357.321 171.909 355.304 168.186C353.286 164.463 348.104 163.367 343.729 165.738C339.354 168.108 337.443 173.048 339.46 176.771C341.477 180.494 346.659 181.59 351.034 179.22Z" fill="#555555"/>
<path d="M115.554 188.949C115.554 188.949 85.43 190.598 81.826 175.757C79.599 166.611 85.651 163.041 85.651 163.041C85.651 163.041 74.652 158.961 74.873 151.634C75.281 138.765 86.059 137.643 86.059 137.643C86.059 137.643 80.84 129.653 89.255 121.901C97.67 114.149 105.201 121.544 105.201 121.544C105.201 121.544 105.286 112.16 115.35 108.879C127.726 104.85 140.017 126.151 140.017 126.151L137.076 124.23C150.625 131.574 154.093 151.413 144.828 168.532C135.563 185.651 121.419 188.796 115.571 188.949" fill="white"/>
<path className='palm' fill-rule="evenodd" clip-rule="evenodd" d="M131.644 133.417C133.661 129.694 131.75 124.754 127.375 122.384C123 120.013 117.818 121.11 115.8 124.833C113.783 128.556 115.695 133.495 120.07 135.866C124.445 138.237 129.627 137.14 131.644 133.417ZM110.321 130.594C114.696 132.965 116.608 137.905 114.591 141.628C112.573 145.351 107.391 146.447 103.016 144.076C98.6411 141.706 96.7296 136.766 98.7468 133.043C100.764 129.32 105.946 128.224 110.321 130.594ZM141.865 152.754C143.721 149.328 141.967 144.785 137.947 142.607C134.289 140.625 130.016 141.284 127.877 143.999C122.412 143.453 116.75 146.374 113.815 151.791C110.881 157.206 111.524 163.544 114.965 167.824C113.845 171.102 115.627 175.053 119.292 177.039C123.312 179.217 128.076 178.206 129.932 174.78C130.499 173.734 130.729 172.584 130.661 171.428C133.562 170.142 136.118 167.866 137.79 164.781C139.46 161.699 139.971 158.318 139.467 155.188C140.467 154.615 141.301 153.796 141.865 152.754ZM101.325 147.156C105.701 149.527 107.612 154.467 105.595 158.19C103.578 161.913 98.3956 163.009 94.0205 160.639C89.6453 158.268 87.7339 153.328 89.7511 149.605C91.7683 145.882 96.9503 144.786 101.325 147.156ZM110.544 176.766C112.562 173.043 110.65 168.103 106.275 165.733C101.9 163.362 96.7179 164.458 94.7007 168.181C92.6835 171.904 94.5949 176.844 98.9701 179.215C103.345 181.585 108.527 180.489 110.544 176.766Z" fill="#555555"/>
</g>
<defs>
<clipPath id="clip0_97_486">
<rect width="442" height="102" fill="white" transform="translate(4 87)"/>
</clipPath>
</defs>
</svg>
