<svg width="450" height="450" viewBox="0 0 450 450" fill="none" xmlns="http://www.w3.org/2000/svg">
<path d="M100.694 173.179C100.694 173.179 71.7429 156.4 79.2399 146.574C86.7879 136.697 101.561 142.817 101.561 142.817C101.561 142.817 88.4369 124.185 99.3679 115.379C109.721 107.032 124.579 124.27 124.579 124.27C124.579 124.27 123.134 106.233 137.176 101.235C146.628 97.8686 157.559 131.835 157.559 131.835L155.587 128.928C165.26 140.93 160.823 160.565 145.659 172.788C130.495 185.011 110.367 185.181 100.694 173.179" fill="white"/>
<path d="M352.029 173.179C352.029 173.179 380.98 156.4 373.483 146.574C365.935 136.697 351.162 142.817 351.162 142.817C351.162 142.817 364.286 124.185 353.355 115.379C343.002 107.032 328.144 124.27 328.144 124.27C328.144 124.27 329.589 106.233 315.547 101.235C306.078 97.8686 295.147 131.835 295.147 131.835L297.119 128.928C287.446 140.93 291.883 160.565 307.047 172.788C322.211 185.011 342.339 185.181 352.012 173.179" fill="white"/>
</svg>
