<svg width="450" height="450" viewBox="0 0 450 450" fill="none" xmlns="http://www.w3.org/2000/svg">
<path fill-rule="evenodd" clip-rule="evenodd" d="M356.855 83.6586C361.946 83.2805 365.958 79.0304 365.958 73.843C365.958 68.4069 361.552 64 356.115 64C350.679 64 346.272 68.4069 346.272 73.843C346.272 75.3056 346.591 76.6936 347.164 77.9414C341.541 85.3604 336.583 98.51 336.583 98.51C326.91 110.512 333.336 127.24 348.5 139.463C363.664 151.686 380.919 150.02 389.725 144.512C393.442 142.232 402.857 134.804 406.761 127.74C407.21 127.803 407.669 127.835 408.135 127.835C413.572 127.835 417.978 123.428 417.978 117.992C417.978 112.556 413.572 108.149 408.135 108.149C402.699 108.149 398.292 112.556 398.292 117.992C398.292 118.603 398.348 119.2 398.454 119.78C396.881 120.759 395.196 121.919 393.466 123.109L393.466 123.109L393.466 123.109C386.267 128.063 378.299 133.547 374.408 128.736C370.378 123.755 377.193 114.774 383.748 106.135L383.748 106.135C386.759 102.167 389.716 98.2704 391.541 94.8672C396.669 94.5274 400.723 90.2602 400.723 85.046C400.723 79.6099 396.317 75.203 390.88 75.203C385.444 75.203 381.037 79.6099 381.037 85.046C381.037 86.4199 381.319 87.728 381.827 88.9159C379.2 91.3661 376.407 94.6426 373.569 97.9723C366.623 106.121 359.405 114.587 353.685 112.042C348.14 109.582 351.238 100.588 354.256 91.825C355.228 89.0036 356.191 86.2062 356.855 83.6586Z" fill="white"/>
<path fill-rule="evenodd" clip-rule="evenodd" d="M99.8148 77.9414C100.387 76.6937 100.706 75.3056 100.706 73.843C100.706 68.4069 96.2992 64 90.863 64C85.4269 64 81.02 68.4069 81.02 73.843C81.02 79.0303 85.0327 83.2805 90.1235 83.6586C90.7875 86.2062 91.7509 89.0036 92.7226 91.8249C95.7405 100.588 98.8381 109.582 93.294 112.042C87.5189 114.612 80.1278 106.034 73.0773 97.8508C70.3152 94.6452 67.6054 91.5002 65.0655 89.11C65.6278 87.8711 65.941 86.4951 65.941 85.046C65.941 79.6099 61.5341 75.203 56.098 75.203C50.6619 75.203 46.255 79.6099 46.255 85.046C46.255 90.2602 50.3094 94.5274 55.4375 94.8672C57.2628 98.2704 60.2194 102.167 63.2307 106.135C69.7858 114.774 76.6005 123.755 72.571 128.736C68.6793 133.547 60.7114 128.063 53.5124 123.109C51.7828 121.919 50.0976 120.759 48.524 119.78C48.6304 119.2 48.686 118.603 48.686 117.992C48.686 112.556 44.2791 108.149 38.843 108.149C33.4069 108.149 29 112.556 29 117.992C29 123.428 33.4069 127.835 38.843 127.835C39.3094 127.835 39.7683 127.803 40.2175 127.74C44.1215 134.804 53.5367 142.232 57.254 144.512C66.06 150.02 83.315 151.686 98.479 139.463C113.643 127.24 120.069 110.512 110.396 98.51C110.396 98.51 105.438 85.3604 99.8148 77.9414Z" fill="white"/>
</svg>
