<svg width="450" height="450" viewBox="0 0 450 450" fill="none" xmlns="http://www.w3.org/2000/svg">
<g clip-path="url(#clip0_97_495)">
<g clip-path="url(#clip1_97_495)">
<path d="M56.071 132.796C56.071 132.796 27.647 122.698 30.044 107.619C31.523 98.3199 38.476 97.3679 38.476 97.3679C38.476 97.3679 29.891 89.3609 32.934 82.6969C38.272 70.9669 48.642 74.1119 48.642 74.1119C48.642 74.1119 46.908 64.7279 57.669 60.8179C68.702 56.8059 72.51 66.6319 72.51 66.6319C72.51 66.6319 76.199 57.9959 86.756 58.8629C99.727 59.9169 102.855 84.2949 102.855 84.2949L100.883 81.3879C110.556 93.3899 106.119 113.025 90.955 125.248C75.791 137.471 61.545 134.921 56.088 132.813" fill="white"/>
<path className='palm' fill-rule="evenodd" clip-rule="evenodd" d="M90.4878 86.6887C93.7845 84.0314 93.9256 78.7365 90.8028 74.8623C87.68 70.988 82.476 70.0015 79.1792 72.6588C75.8825 75.3161 75.7414 80.611 78.8642 84.4852C81.987 88.3594 87.191 89.346 90.4878 86.6887ZM71.9031 75.8615C75.0259 79.7357 74.8848 85.0306 71.5881 87.6879C68.2913 90.3452 63.0873 89.3587 59.9645 85.4844C56.8417 81.6102 56.9828 76.3153 60.2795 73.658C63.5763 71.0007 68.7804 71.9872 71.9031 75.8615ZM84.0477 118.009C86.7782 115.808 88.5537 112.884 89.295 109.8C90.4473 109.66 91.5407 109.225 92.4697 108.476C95.5033 106.031 95.6364 101.163 92.767 97.6027C90.1508 94.3569 85.9419 93.3193 82.9202 95.0148C78.0872 92.4 71.7335 92.9116 66.9356 96.7789C62.1361 100.647 60.2873 106.75 61.8188 112.029C59.5375 114.624 59.6634 118.944 62.2733 122.182C65.1427 125.742 69.9281 126.646 72.9617 124.201C73.8869 123.455 74.5423 122.484 74.925 121.393C78.0919 121.321 81.321 120.207 84.0477 118.009ZM57.2192 87.6882C60.342 91.5624 60.201 96.8573 56.9042 99.5146C53.6075 102.172 48.4034 101.185 45.2806 97.3111C42.1579 93.4369 42.2989 88.142 45.5957 85.4847C48.8924 82.8274 54.0965 83.8139 57.2192 87.6882ZM54.2856 118.549C57.5823 115.891 57.7234 110.596 54.6006 106.722C51.4778 102.848 46.2738 101.861 42.977 104.519C39.6803 107.176 39.5392 112.471 42.662 116.345C45.7848 120.219 50.9888 121.206 54.2856 118.549Z" fill="#555555"/>
<path d="M393.929 132.796C393.929 132.796 422.353 122.698 419.956 107.619C418.477 98.3199 411.524 97.3679 411.524 97.3679C411.524 97.3679 420.109 89.3609 417.066 82.6969C411.728 70.9669 401.358 74.1119 401.358 74.1119C401.358 74.1119 403.092 64.7279 392.331 60.8179C381.298 56.8059 377.49 66.6319 377.49 66.6319C377.49 66.6319 373.801 57.9959 363.244 58.8629C350.273 59.9169 347.145 84.2949 347.145 84.2949L349.117 81.3879C339.444 93.3899 343.881 113.025 359.045 125.248C374.209 137.471 388.455 134.921 393.912 132.813" fill="white"/>
<path className='palm' fill-rule="evenodd" clip-rule="evenodd" d="M371.128 84.4662C374.25 80.5919 374.109 75.2971 370.813 72.6398C367.516 69.9825 362.312 70.969 359.189 74.8432C356.066 78.7175 356.207 84.0123 359.504 86.6696C362.801 89.3269 368.005 88.3404 371.128 84.4662ZM389.713 73.6471C393.01 76.3044 393.151 81.5993 390.028 85.4735C386.905 89.3477 381.701 90.3343 378.404 87.677C375.108 85.0197 374.967 79.7248 378.089 75.8506C381.212 71.9763 386.416 70.9898 389.713 73.6471ZM388.161 111.994C389.686 106.718 387.836 100.623 383.041 96.7578C378.249 92.8957 371.906 92.3803 367.076 94.983C364.055 93.2932 359.85 94.3317 357.236 97.575C354.367 101.135 354.5 106.003 357.533 108.448C358.454 109.191 359.537 109.624 360.679 109.769C361.419 112.857 363.195 115.785 365.928 117.988C368.66 120.19 371.896 121.304 375.068 121.372C375.451 122.464 376.106 123.435 377.032 124.181C380.066 126.626 384.851 125.723 387.72 122.163C390.335 118.918 390.457 114.588 388.161 111.994ZM404.379 85.4662C407.675 88.1235 407.816 93.4183 404.694 97.2926C401.571 101.167 396.367 102.153 393.07 99.4961C389.773 96.8388 389.632 91.5439 392.755 87.6697C395.878 83.7954 401.082 82.8089 404.379 85.4662ZM407.306 116.332C410.428 112.458 410.287 107.163 406.991 104.506C403.694 101.848 398.49 102.835 395.367 106.709C392.244 110.583 392.385 115.878 395.682 118.535C398.979 121.193 404.183 120.206 407.306 116.332Z" fill="#555555"/>
</g>
</g>
<defs>
<clipPath id="clip0_97_495">
<rect width="450" height="450" fill="white"/>
</clipPath>
<clipPath id="clip1_97_495">
<rect width="442" height="137.581" fill="white" transform="translate(4 -3)"/>
</clipPath>
</defs>
</svg>
