<svg width="450" height="450" viewBox="0 0 450 450" fill="none" xmlns="http://www.w3.org/2000/svg">
<path d="M364.827 166.446C364.827 166.446 394.628 161.822 395.087 146.539C395.359 137.121 388.712 134.894 388.712 134.894C388.712 134.894 398.64 128.621 396.889 121.498C393.829 108.986 383.051 110.125 383.051 110.125C383.051 110.125 386.502 101.217 376.659 95.3855C366.561 89.4015 360.985 98.3435 360.985 98.3435C360.985 98.3435 358.962 89.1805 348.422 88.0585C335.485 86.6815 327.869 110.057 327.869 110.057L330.351 107.575C318.621 117.571 319.335 137.682 331.949 152.523C344.563 167.364 359.047 167.5 364.81 166.429" fill="white"/>
<path className="palm" fill-rule="evenodd" clip-rule="evenodd" d="M351.144 111.264C355.562 107.503 356.549 101.406 353.347 97.6453C350.146 93.8849 343.969 93.8858 339.551 97.6471C335.133 101.408 334.147 107.506 337.348 111.266C340.55 115.027 346.726 115.026 351.144 111.264ZM374.792 102.895C377.994 106.656 377.007 112.753 372.589 116.515C368.171 120.276 361.995 120.277 358.793 116.517C355.592 112.756 356.578 106.659 360.996 102.897C365.414 99.1359 371.591 99.1351 374.792 102.895ZM332.373 123.263C336.07 120.115 341.109 119.835 344.205 122.421C350.306 120.48 357.468 122.445 362.123 127.912C366.781 133.384 367.576 140.775 364.678 146.49C366.742 149.959 365.663 154.893 361.964 158.042C357.903 161.499 352.224 161.497 349.278 158.037C348.375 156.977 347.834 155.715 347.635 154.376C344.022 153.606 340.564 151.63 337.917 148.52C335.268 145.409 333.869 141.678 333.686 137.987C332.404 137.575 331.252 136.842 330.354 135.787C327.409 132.327 328.312 126.72 332.373 123.263ZM389.013 119.605C392.215 123.365 391.229 129.462 386.811 133.224C382.393 136.985 376.216 136.986 373.014 133.226C369.813 129.465 370.799 123.368 375.217 119.606C379.635 115.845 385.812 115.844 389.013 119.605ZM385.686 155.593C390.104 151.831 391.09 145.734 387.889 141.974C384.687 138.213 378.511 138.214 374.093 141.975C369.675 145.737 368.688 151.834 371.89 155.595C375.091 159.355 381.268 159.354 385.686 155.593Z" fill="#555555"/>
<path d="M87.2691 166.446C87.2691 166.446 57.4681 161.822 57.0091 146.539C56.7371 137.121 63.3841 134.894 63.3841 134.894C63.3841 134.894 53.4561 128.621 55.2071 121.498C58.2671 108.986 69.0451 110.125 69.0451 110.125C69.0451 110.125 65.5941 101.217 75.4371 95.3855C85.5351 89.4015 91.1111 98.3435 91.1111 98.3435C91.1111 98.3435 93.1341 89.1805 103.674 88.0585C116.611 86.6815 124.227 110.057 124.227 110.057L121.745 107.575C133.475 117.571 132.761 137.682 120.147 152.523C107.516 167.347 93.0491 167.5 87.2861 166.429" fill="white"/>
<path className="palm" fill-rule="evenodd" clip-rule="evenodd" d="M115.035 111.266C118.236 107.506 117.25 101.408 112.832 97.6471C108.414 93.8858 102.237 93.8849 99.0355 97.6453C95.8341 101.406 96.8203 107.503 101.238 111.264C105.656 115.026 111.833 115.027 115.035 111.266ZM91.3918 102.908C95.8099 106.669 96.7961 112.767 93.5947 116.527C90.3933 120.288 84.2165 120.287 79.7985 116.525C75.3805 112.764 74.3942 106.667 77.5956 102.906C80.7971 99.1459 86.9738 99.1468 91.3918 102.908ZM122.034 135.782C124.98 132.322 124.076 126.715 120.016 123.258C116.309 120.102 111.253 119.829 108.159 122.438C102.058 120.495 94.8944 122.459 90.2388 127.928C85.5827 133.397 84.7863 140.783 87.6789 146.496C85.6328 149.965 86.7154 154.884 90.4065 158.026C94.4671 161.483 100.147 161.481 103.093 158.021C103.988 156.969 104.528 155.718 104.731 154.39C108.342 153.62 111.798 151.644 114.445 148.536C117.096 145.422 118.496 141.686 118.675 137.991C119.969 137.58 121.13 136.844 122.034 135.782ZM77.144 119.611C81.5621 123.373 82.5483 129.47 79.3469 133.231C76.1455 136.991 69.9687 136.99 65.5507 133.229C61.1327 129.467 60.1464 123.37 63.3478 119.609C66.5492 115.849 72.726 115.85 77.144 119.611ZM80.4828 155.617C83.6843 151.857 82.698 145.759 78.28 141.998C73.862 138.236 67.6852 138.236 64.4838 141.996C61.2824 145.756 62.2686 151.854 66.6866 155.615C71.1047 159.376 77.2814 159.377 80.4828 155.617Z" fill="#555555"/>
</svg>
