<svg width="450" height="450" viewBox="0 0 450 450" fill="none" xmlns="http://www.w3.org/2000/svg">
<path d="M157.12 134.694C157.12 134.694 156.729 112.22 144.455 110.656C130.43 108.871 132.436 124.086 132.436 124.086C132.436 124.086 111.815 101.34 102.244 106.865C84.1903 117.303 110.353 136.496 110.353 136.496C110.353 136.496 86.7913 117.099 78.7673 133.419C72.9703 145.234 101.921 155.468 101.921 155.468C101.921 155.468 80.6373 151.49 78.8183 163.101C77.2713 173.012 108.568 181.478 108.568 181.478L105.661 179.506C117.663 189.179 137.298 184.742 149.521 169.578C161.744 154.414 161.914 134.286 149.912 124.613" fill="white"/>
<path className="palm" d="M140.902 160.126C140.647 160.126 140.409 160.092 140.154 160.024C139.559 159.837 134.306 158.018 133.218 149.008C132.215 140.814 134.272 135.731 134.357 135.527C134.901 134.218 136.38 133.606 137.689 134.15C138.981 134.694 139.61 136.173 139.066 137.465C139.015 137.584 137.451 141.698 138.267 148.396C138.964 154.057 141.599 155.128 141.701 155.179C143.044 155.587 143.775 156.998 143.367 158.341C143.027 159.446 141.99 160.143 140.902 160.143V160.126Z" fill="#555555" fill-opacity="0.5"/>
<path d="M298.682 134.694C298.682 134.694 299.073 112.22 311.347 110.656C325.372 108.871 323.366 124.086 323.366 124.086C323.366 124.086 343.987 101.34 353.558 106.865C371.612 117.303 345.449 136.496 345.449 136.496C345.449 136.496 369.011 117.099 377.035 133.419C382.832 145.234 353.881 155.468 353.881 155.468C353.881 155.468 375.165 151.49 376.984 163.101C378.531 173.012 347.234 181.478 347.234 181.478L350.141 179.506C338.139 189.179 318.504 184.742 306.281 169.578C294.058 154.414 293.888 134.286 305.89 124.613" fill="white"/>
<path className="palm" d="M314.917 160.126C313.829 160.126 312.809 159.412 312.469 158.307C312.061 156.964 312.826 155.536 314.169 155.128C314.186 155.128 316.821 154.023 317.518 148.379C318.334 141.613 316.736 137.482 316.719 137.448C316.192 136.139 316.821 134.66 318.13 134.133C319.422 133.589 320.901 134.218 321.445 135.51C321.53 135.714 323.587 140.814 322.584 148.991C321.479 158.001 316.243 159.837 315.648 160.007C315.41 160.075 315.155 160.109 314.917 160.109V160.126Z" fill="#555555" fill-opacity="0.5"/>
</svg>
