<svg width="450" height="450" viewBox="0 0 450 450" fill="none" xmlns="http://www.w3.org/2000/svg">
<path d="M80.6939 158.179C80.6939 158.179 51.7429 141.4 59.2399 131.574C66.7879 121.697 81.5609 127.817 81.5609 127.817C81.5609 127.817 68.4369 109.185 79.3679 100.379C89.7209 92.0316 104.579 109.27 104.579 109.27C104.579 109.27 103.134 91.2326 117.176 86.2346C126.628 82.8686 137.559 116.835 137.559 116.835L135.587 113.928C145.26 125.93 140.823 145.565 125.659 157.788C110.495 170.011 90.3669 170.181 80.6939 158.179" fill="white"/>
<path d="M371.735 158.179C371.735 158.179 400.686 141.4 393.189 131.574C385.641 121.697 370.868 127.817 370.868 127.817C370.868 127.817 383.992 109.185 373.061 100.379C362.708 92.0316 347.85 109.27 347.85 109.27C347.85 109.27 349.295 91.2326 335.253 86.2346C325.784 82.8686 314.853 116.835 314.853 116.835L316.825 113.928C307.152 125.93 311.589 145.565 326.753 157.788C341.917 170.011 362.045 170.181 371.718 158.179" fill="white"/>
</svg>
