<svg width="450" height="450" viewBox="0 0 450 450" fill="none" xmlns="http://www.w3.org/2000/svg">
<g clip-path="url(#clip0_97_477)">
<path d="M320.489 119.837C320.489 119.837 316.902 97.6351 328.683 93.9291C342.164 89.6961 342.878 105.013 342.878 105.013C342.878 105.013 359.147 78.9691 369.534 82.7261C389.152 89.8151 366.797 113.326 366.797 113.326C366.797 113.326 386.551 90.0531 397.346 104.707C405.149 115.298 378.459 130.513 378.459 130.513C378.459 130.513 398.706 122.829 402.548 133.947C405.829 143.433 376.521 157.305 376.521 157.305L379.02 154.84C368.922 166.485 348.811 165.584 334.089 152.834C319.384 140.084 315.644 120.296 325.742 108.651" fill="white"/>
<path className='palm' d="M344.731 143.722C343.66 143.909 342.538 143.399 342.011 142.362C341.382 141.104 341.875 139.574 343.133 138.928C343.15 138.911 345.564 137.381 345.241 131.686C344.85 124.886 342.538 121.112 342.521 121.061C341.773 119.871 342.13 118.307 343.32 117.559C344.51 116.794 346.074 117.151 346.822 118.324C346.941 118.511 349.865 123.152 350.341 131.397C350.851 140.458 346.006 143.195 345.462 143.467C345.241 143.586 345.003 143.654 344.748 143.705L344.731 143.722Z" fill="black"/>
<path d="M128.44 119.837C128.44 119.837 132.027 97.6351 120.246 93.9291C106.765 89.6961 106.051 105.013 106.051 105.013C106.051 105.013 89.782 78.9691 79.395 82.7261C59.777 89.8151 82.132 113.326 82.132 113.326C82.132 113.326 62.378 90.0531 51.583 104.707C43.78 115.298 70.47 130.513 70.47 130.513C70.47 130.513 50.223 122.829 46.381 133.947C43.1 143.433 72.408 157.305 72.408 157.305L69.909 154.84C80.007 166.485 100.118 165.584 114.84 152.834C129.545 140.084 133.285 120.296 123.187 108.651" fill="white"/>
<path className='palm' d="M104.198 143.722C105.269 143.909 106.391 143.399 106.918 142.362C107.547 141.104 107.054 139.574 105.796 138.928C105.779 138.911 103.365 137.381 103.688 131.686C104.079 124.886 106.391 121.112 106.408 121.061C107.156 119.871 106.799 118.307 105.609 117.559C104.419 116.794 102.855 117.151 102.107 118.324C101.988 118.511 99.064 123.152 98.588 131.397C98.078 140.458 102.923 143.195 103.467 143.467C103.688 143.586 103.926 143.654 104.181 143.705L104.198 143.722Z" fill="black"/>
</g>
<defs>
<clipPath id="clip0_97_477">
<rect width="442" height="102" fill="white" transform="translate(4 61)"/>
</clipPath>
</defs>
</svg>
