<svg width="450" height="450" viewBox="0 0 450 450" fill="none" xmlns="http://www.w3.org/2000/svg">
<path d="M56.6939 138.179C56.6939 138.179 27.7429 121.4 35.2399 111.574C42.7879 101.697 57.5609 107.817 57.5609 107.817C57.5609 107.817 44.4369 89.1846 55.3679 80.3786C65.7209 72.0316 80.5789 89.2696 80.5789 89.2696C80.5789 89.2696 79.1339 71.2326 93.1759 66.2346C102.628 62.8686 113.559 96.8346 113.559 96.8346L111.587 93.9276C121.26 105.93 116.823 125.565 101.659 137.788C86.4949 150.011 66.3669 150.181 56.6939 138.179" fill="white"/>
<path d="M390.735 138.179C390.735 138.179 419.686 121.4 412.189 111.574C404.641 101.697 389.868 107.817 389.868 107.817C389.868 107.817 402.992 89.1846 392.061 80.3786C381.708 72.0316 366.85 89.2696 366.85 89.2696C366.85 89.2696 368.295 71.2326 354.253 66.2346C344.784 62.8686 333.853 96.8346 333.853 96.8346L335.825 93.9276C326.152 105.93 330.589 125.565 345.753 137.788C360.917 150.011 381.045 150.181 390.718 138.179" fill="white"/>
</svg>
