<svg width="450" height="450" viewBox="0 0 450 450" fill="none" xmlns="http://www.w3.org/2000/svg">
<g clip-path="url(#clip0_97_468)">
<g clip-path="url(#clip1_97_468)">
<path d="M344.867 94.2119C344.867 94.2119 338.628 72.6049 349.882 67.5049C362.751 61.6739 365.318 76.8039 365.318 76.8039C365.318 76.8039 378.323 48.9919 389.084 51.4569C409.416 56.1149 390.053 82.1589 390.053 82.1589C390.053 82.1589 406.866 56.6759 419.327 69.9019C428.354 79.4729 403.687 97.7989 403.687 97.7989C403.687 97.7989 422.863 87.7179 428.014 98.2919C432.417 107.319 404.996 124.625 404.996 124.625L407.189 121.888C398.57 134.672 378.493 136.202 362.343 125.305C346.193 114.425 340.107 95.2319 348.726 82.4479" fill="white"/>
<path className='palm' d="M371.829 115.003C370.775 115.326 369.602 114.952 368.956 113.983C368.174 112.81 368.48 111.229 369.653 110.447C369.67 110.43 371.863 108.611 370.86 103.001C369.653 96.3031 366.899 92.8181 366.882 92.7841C365.998 91.6961 366.168 90.0811 367.256 89.1971C368.344 88.2961 369.942 88.4661 370.826 89.5371C370.979 89.7071 374.43 93.9741 375.892 102.083C377.49 111.008 373.019 114.306 372.509 114.663C372.288 114.799 372.067 114.918 371.829 114.986V115.003Z" fill="black"/>
<path d="M105.133 94.2119C105.133 94.2119 111.372 72.6049 100.118 67.5049C87.249 61.6739 84.682 76.8039 84.682 76.8039C84.682 76.8039 71.677 48.9919 60.916 51.4569C40.584 56.1149 59.947 82.1589 59.947 82.1589C59.947 82.1589 43.134 56.6759 30.673 69.9019C21.646 79.4729 46.313 97.7989 46.313 97.7989C46.313 97.7989 27.137 87.7179 21.986 98.2919C17.583 107.319 45.004 124.625 45.004 124.625L42.811 121.888C51.43 134.672 71.507 136.202 87.657 125.305C103.807 114.425 109.893 95.2319 101.274 82.4479" fill="white"/>
<path className='palm' d="M78.171 115.003C79.225 115.326 80.398 114.952 81.044 113.983C81.826 112.81 81.52 111.229 80.347 110.447C80.33 110.43 78.137 108.611 79.14 103.001C80.347 96.3028 83.101 92.8178 83.118 92.7838C84.002 91.6958 83.832 90.0808 82.744 89.1968C81.656 88.2958 80.058 88.4658 79.174 89.5368C79.021 89.7068 75.57 93.9738 74.108 102.083C72.51 111.008 76.981 114.306 77.491 114.663C77.712 114.799 77.933 114.918 78.171 114.986V115.003Z" fill="black"/>
</g>
</g>
<defs>
<clipPath id="clip0_97_468">
<rect width="450" height="450" fill="white"/>
</clipPath>
<clipPath id="clip1_97_468">
<rect width="442" height="137.581" fill="white" transform="translate(4 -5)"/>
</clipPath>
</defs>
</svg>
