<svg width="450" height="450" viewBox="0 0 450 450" fill="none" xmlns="http://www.w3.org/2000/svg">
<g clip-path="url(#clip0_97_522)">
<path d="M400.644 135.818C406.271 132.367 424.954 117.118 417.814 109.196C412.833 103.654 392.382 128.763 385.327 120.042C377.337 110.165 411.983 84.563 402.701 77.083C393.776 69.892 376.028 108.431 364.604 103.348C354.183 98.724 374.294 71.014 367.018 65.149C359.181 58.842 347.502 89.816 347.502 89.816C337.829 101.818 344.255 118.546 359.419 130.769C374.583 142.992 391.838 141.326 400.644 135.818" fill="white"/>
<path d="M419.055 119.141C424.491 119.141 428.898 114.734 428.898 109.298C428.898 103.862 424.491 99.4551 419.055 99.4551C413.619 99.4551 409.212 103.862 409.212 109.298C409.212 114.734 413.619 119.141 419.055 119.141Z" fill="white"/>
<path d="M401.817 86.1953C407.253 86.1953 411.66 81.7884 411.66 76.3523C411.66 70.9161 407.253 66.5093 401.817 66.5093C396.381 66.5093 391.974 70.9161 391.974 76.3523C391.974 81.7884 396.381 86.1953 401.817 86.1953Z" fill="white"/>
<path d="M367.035 74.9922C372.471 74.9922 376.878 70.5853 376.878 65.1492C376.878 59.713 372.471 55.3062 367.035 55.3062C361.599 55.3062 357.192 59.713 357.192 65.1492C357.192 70.5853 361.599 74.9922 367.035 74.9922Z" fill="white"/>
<path d="M49.356 135.818C43.729 132.367 25.046 117.118 32.186 109.196C37.167 103.654 57.618 128.763 64.673 120.042C72.663 110.165 38.017 84.563 47.299 77.083C56.581 69.603 73.972 108.431 85.396 103.348C95.817 98.724 75.706 71.014 82.982 65.149C90.819 58.842 102.498 89.816 102.498 89.816C112.171 101.818 105.745 118.546 90.581 130.769C75.417 142.992 58.162 141.326 49.356 135.818" fill="white"/>
<path d="M30.945 119.141C36.3811 119.141 40.788 114.734 40.788 109.298C40.788 103.862 36.3811 99.4551 30.945 99.4551C25.5089 99.4551 21.102 103.862 21.102 109.298C21.102 114.734 25.5089 119.141 30.945 119.141Z" fill="white"/>
<path d="M48.183 86.1953C53.6191 86.1953 58.026 81.7884 58.026 76.3523C58.026 70.9161 53.6191 66.5093 48.183 66.5093C42.7469 66.5093 38.34 70.9161 38.34 76.3523C38.34 81.7884 42.7469 86.1953 48.183 86.1953Z" fill="white"/>
<path d="M82.965 74.9922C88.4011 74.9922 92.808 70.5853 92.808 65.1492C92.808 59.713 88.4011 55.3062 82.965 55.3062C77.5289 55.3062 73.122 59.713 73.122 65.1492C73.122 70.5853 77.5289 74.9922 82.965 74.9922Z" fill="white"/>
</g>
<defs>
<clipPath id="clip0_97_522">
<rect width="442" height="102" fill="white" transform="translate(4 38)"/>
</clipPath>
</defs>
</svg>
