<svg width="450" height="450" viewBox="0 0 450 450" fill="none" xmlns="http://www.w3.org/2000/svg">
<g clip-path="url(#clip0_97_513)">
<path d="M337.37 190.915C343.507 190.388 365.403 185.492 362.768 175.921C360.932 169.24 333.443 181.599 331.199 171.399C328.666 159.839 368.191 152.988 363.584 142.907C358.977 132.826 328.309 157.85 320.931 148.874C314.199 140.68 342.487 126.009 338.883 118.104C335.007 109.587 312.346 130.48 312.346 130.48C299.29 136.43 297.658 153.039 305.172 169.529C312.686 186.019 327.748 191.85 337.37 190.932" fill="white"/>
<path d="M363.754 185.679C368.815 185.679 372.917 181.577 372.917 176.516C372.917 171.455 368.815 167.353 363.754 167.353C358.693 167.353 354.591 171.455 354.591 176.516C354.591 181.577 358.693 185.679 363.754 185.679Z" fill="white"/>
<path d="M363.159 151.067C368.22 151.067 372.322 146.965 372.322 141.904C372.322 136.844 368.22 132.741 363.159 132.741C358.098 132.741 353.996 136.844 353.996 141.904C353.996 146.965 358.098 151.067 363.159 151.067Z" fill="white"/>
<path d="M338.883 127.233C343.944 127.233 348.046 123.131 348.046 118.07C348.046 113.01 343.944 108.907 338.883 108.907C333.822 108.907 329.72 113.01 329.72 118.07C329.72 123.131 333.822 127.233 338.883 127.233Z" fill="white"/>
<path d="M112.63 190.915C106.493 190.388 84.597 185.492 87.232 175.921C89.068 169.24 116.557 181.599 118.801 171.399C121.334 159.839 81.809 152.988 86.416 142.907C90.836 133.2 121.691 157.85 129.069 148.874C135.801 140.68 107.513 126.009 111.117 118.104C114.993 109.587 137.654 130.48 137.654 130.48C150.71 136.43 152.342 153.039 144.828 169.529C137.314 186.019 122.252 191.85 112.63 190.932" fill="white"/>
<path d="M86.246 185.679C91.3066 185.679 95.409 181.577 95.409 176.516C95.409 171.455 91.3066 167.353 86.246 167.353C81.1854 167.353 77.083 171.455 77.083 176.516C77.083 181.577 81.1854 185.679 86.246 185.679Z" fill="white"/>
<path d="M86.841 151.067C91.9016 151.067 96.004 146.965 96.004 141.904C96.004 136.844 91.9016 132.741 86.841 132.741C81.7804 132.741 77.678 136.844 77.678 141.904C77.678 146.965 81.7804 151.067 86.841 151.067Z" fill="white"/>
<path d="M111.117 127.233C116.178 127.233 120.28 123.131 120.28 118.07C120.28 113.01 116.178 108.907 111.117 108.907C106.056 108.907 101.954 113.01 101.954 118.07C101.954 123.131 106.056 127.233 111.117 127.233Z" fill="white"/>
</g>
<defs>
<clipPath id="clip0_97_513">
<rect width="442" height="102" fill="white" transform="translate(4 89)"/>
</clipPath>
</defs>
</svg>
