<svg width="450" height="450" viewBox="0 0 450 450" fill="none" xmlns="http://www.w3.org/2000/svg">
<path d="M364.502 163.609C364.502 163.609 394.303 158.985 394.762 143.702C395.034 134.284 388.387 132.057 388.387 132.057C388.387 132.057 398.315 125.784 396.564 118.661C393.504 106.149 382.726 107.288 382.726 107.288C382.726 107.288 386.177 98.3801 376.334 92.5491C366.236 86.5651 360.66 95.5071 360.66 95.5071C360.66 95.5071 358.637 86.3441 348.097 85.2221C335.16 83.8451 327.544 107.22 327.544 107.22L330.026 104.738C318.296 114.734 319.01 134.845 331.624 149.686C344.238 164.527 358.722 164.663 364.485 163.592" fill="white"/>
<path className='palm' fill-rule="evenodd" clip-rule="evenodd" d="M349.078 112.616C352.867 109.39 353.713 104.161 350.968 100.937C348.223 97.7131 342.926 97.7144 339.137 100.94C335.349 104.166 334.502 109.395 337.247 112.619C339.992 115.843 345.289 115.842 349.078 112.616ZM369.36 105.443C372.105 108.667 371.259 113.895 367.47 117.121C363.681 120.347 358.384 120.348 355.639 117.124C352.894 113.9 353.741 108.671 357.53 105.446C361.318 102.22 366.615 102.219 369.36 105.443ZM332.985 122.931C336.149 120.238 340.458 119.994 343.114 122.197C348.352 120.519 354.508 122.202 358.506 126.899C362.502 131.593 363.184 137.933 360.697 142.835C362.469 145.809 361.544 150.041 358.372 152.742C354.89 155.706 350.02 155.704 347.494 152.737C346.721 151.829 346.257 150.747 346.085 149.599C342.985 148.94 340.016 147.244 337.744 144.576C335.476 141.912 334.276 138.718 334.116 135.558C333.015 135.205 332.026 134.576 331.255 133.67C328.729 130.703 329.504 125.895 332.985 122.931ZM381.576 119.783C384.321 123.007 383.475 128.236 379.686 131.462C375.897 134.687 370.6 134.689 367.855 131.464C365.11 128.24 365.957 123.012 369.746 119.786C373.535 116.56 378.831 116.559 381.576 119.783ZM378.712 150.659C382.501 147.433 383.347 142.204 380.602 138.98C377.857 135.756 372.561 135.757 368.772 138.983C364.983 142.209 364.137 147.437 366.881 150.662C369.626 153.886 374.923 153.884 378.712 150.659Z" fill="#555555"/>
<path d="M85.498 163.609C85.498 163.609 55.697 158.985 55.238 143.702C54.966 134.284 61.613 132.057 61.613 132.057C61.613 132.057 51.685 125.784 53.436 118.661C56.496 106.149 67.274 107.288 67.274 107.288C67.274 107.288 63.823 98.3801 73.666 92.5491C83.764 86.5651 89.34 95.5071 89.34 95.5071C89.34 95.5071 91.363 86.3441 101.903 85.2221C114.84 83.8451 122.456 107.22 122.456 107.22L119.974 104.738C131.704 114.734 130.99 134.845 118.376 149.686C105.745 164.51 91.278 164.663 85.515 163.592" fill="white"/>
<path className='palm' fill-rule="evenodd" clip-rule="evenodd" d="M112.734 112.623C115.479 109.399 114.633 104.171 110.844 100.945C107.055 97.7191 101.758 97.7178 99.0133 100.942C96.2684 104.166 97.1147 109.395 100.904 112.621C104.693 115.846 109.989 115.848 112.734 112.623ZM92.4672 105.448C96.2561 108.674 97.1024 113.902 94.3575 117.127C91.6125 120.351 86.3158 120.349 82.5269 117.124C78.7379 113.898 77.8916 108.669 80.6366 105.445C83.3815 102.221 88.6782 102.222 92.4672 105.448ZM118.76 133.668C121.286 130.701 120.511 125.893 117.029 122.929C113.857 120.228 109.531 119.99 106.877 122.215C101.639 120.539 95.4862 122.223 91.4886 126.918C87.494 131.61 86.8117 137.947 89.2952 142.849C87.5272 145.823 88.4529 150.052 91.6236 152.751C95.1051 155.715 99.975 155.713 102.501 152.746C103.272 151.84 103.736 150.763 103.908 149.618C107.01 148.96 109.979 147.264 112.251 144.595C114.523 141.927 115.723 138.727 115.879 135.562C116.988 135.21 117.985 134.578 118.76 133.668ZM80.2535 119.789C84.0424 123.015 84.8887 128.244 82.1438 131.468C79.3989 134.692 74.1021 134.691 70.3132 131.465C66.5243 128.239 65.678 123.01 68.4229 119.786C71.1679 116.562 76.4646 116.563 80.2535 119.789ZM83.134 150.656C85.8789 147.432 85.0326 142.203 81.2437 138.977C77.4548 135.752 72.1581 135.75 69.4131 138.974C66.6682 142.199 67.5145 147.427 71.3034 150.653C75.0923 153.879 80.3891 153.88 83.134 150.656Z" fill="#555555"/>
</svg>
