<svg width="450" height="450" viewBox="0 0 450 450" fill="none" xmlns="http://www.w3.org/2000/svg">
<path d="M103.12 88.6941C103.12 88.6941 102.729 66.2201 90.4553 64.6561C76.4303 62.8711 78.4363 78.0861 78.4363 78.0861C78.4363 78.0861 57.8153 55.3401 48.2443 60.8651C30.1903 71.3031 56.3533 90.4961 56.3533 90.4961C56.3533 90.4961 32.7913 71.0991 24.7673 87.4191C18.9703 99.2341 47.9213 109.468 47.9213 109.468C47.9213 109.468 26.6373 105.49 24.8183 117.101C23.2713 127.012 54.5683 135.478 54.5683 135.478L51.6613 133.506C63.6633 143.179 83.2983 138.742 95.5213 123.578C107.744 108.414 107.914 88.2861 95.9123 78.6131" fill="white"/>
<path className="palm" d="M86.9024 114.126C86.6474 114.126 86.4094 114.092 86.1544 114.024C85.5594 113.837 80.3064 112.018 79.2184 103.008C78.2154 94.8141 80.2724 89.7311 80.3574 89.5271C80.9014 88.2181 82.3804 87.6061 83.6894 88.1501C84.9814 88.6941 85.6104 90.1731 85.0664 91.4651C85.0154 91.5841 83.4514 95.6981 84.2674 102.396C84.9644 108.057 87.5994 109.128 87.7014 109.179C89.0444 109.587 89.7754 110.998 89.3674 112.341C89.0274 113.446 87.9904 114.143 86.9024 114.143V114.126Z" fill="#555555" fill-opacity="0.5"/>
<path  d="M345.682 88.6941C345.682 88.6941 346.073 66.2201 358.347 64.6561C372.372 62.8711 370.366 78.0861 370.366 78.0861C370.366 78.0861 390.987 55.3401 400.558 60.8651C418.612 71.3031 392.449 90.4961 392.449 90.4961C392.449 90.4961 416.011 71.0991 424.035 87.4191C429.832 99.2341 400.881 109.468 400.881 109.468C400.881 109.468 422.165 105.49 423.984 117.101C425.531 127.012 394.234 135.478 394.234 135.478L397.141 133.506C385.139 143.179 365.504 138.742 353.281 123.578C341.058 108.414 340.888 88.2861 352.89 78.6131" fill="white"/>
<path className="palm" d="M361.917 114.126C360.829 114.126 359.809 113.412 359.469 112.307C359.061 110.964 359.826 109.536 361.169 109.128C361.186 109.128 363.821 108.023 364.518 102.379C365.334 95.6131 363.736 91.4821 363.719 91.4481C363.192 90.1391 363.821 88.6601 365.13 88.1331C366.422 87.5891 367.901 88.2181 368.445 89.5101C368.53 89.7141 370.587 94.8141 369.584 102.991C368.479 112.001 363.243 113.837 362.648 114.007C362.41 114.075 362.155 114.109 361.917 114.109V114.126Z" fill="#555555" fill-opacity="0.5"/>
</svg>
