<svg width="450" height="450" viewBox="0 0 450 450" fill="none" xmlns="http://www.w3.org/2000/svg">
<path d="M305.444 131.455C305.444 131.455 310.918 109.644 323.226 110.902C337.285 112.347 331.879 126.695 331.879 126.695C331.879 126.695 357.124 109.202 365.182 116.767C380.397 131.03 350.562 143.78 350.562 143.78C350.562 143.78 377.915 130.231 382.029 147.928C385.004 160.746 354.472 164.163 354.472 164.163C354.472 164.163 376.113 165.115 375.246 176.845C374.498 186.858 342.096 187.997 342.096 187.997L345.377 186.722C331.488 193.42 313.383 184.648 304.917 167.104C296.451 149.577 300.837 129.925 314.726 123.21" fill="white"/>
<path className='palm' d="M318.262 162.99C317.191 162.735 316.375 161.817 316.29 160.678C316.205 159.267 317.259 158.06 318.67 157.975C318.704 157.975 321.509 157.499 323.464 152.161C325.793 145.769 325.164 141.383 325.164 141.332C324.96 139.955 325.895 138.646 327.289 138.425C328.683 138.204 329.975 139.139 330.196 140.516C330.23 140.737 331.08 146.16 328.258 153.912C325.147 162.446 319.622 163.024 318.993 163.075C318.738 163.075 318.483 163.075 318.245 163.007L318.262 162.99Z" fill="black"/>
<path d="M144.556 131.455C144.556 131.455 139.082 109.644 126.774 110.902C112.715 112.347 118.121 126.695 118.121 126.695C118.121 126.695 92.876 109.202 84.818 116.767C69.603 131.03 99.438 143.78 99.438 143.78C99.438 143.78 72.085 130.231 67.971 147.928C64.996 160.746 95.528 164.163 95.528 164.163C95.528 164.163 73.887 165.115 74.754 176.845C75.502 186.858 107.904 187.997 107.904 187.997L104.623 186.722C118.512 193.42 136.617 184.648 145.083 167.104C153.549 149.577 149.163 129.925 135.274 123.21" fill="white"/>
<path className='palm' d="M131.738 162.99C132.809 162.735 133.625 161.817 133.71 160.678C133.795 159.267 132.741 158.06 131.33 157.975C131.296 157.975 128.491 157.499 126.536 152.161C124.207 145.769 124.836 141.383 124.836 141.332C125.04 139.955 124.105 138.646 122.711 138.425C121.317 138.204 120.025 139.139 119.804 140.516C119.77 140.737 118.92 146.16 121.742 153.912C124.853 162.446 130.378 163.024 131.007 163.075C131.262 163.075 131.517 163.075 131.755 163.007L131.738 162.99Z" fill="black"/>
</svg>
