<svg width="450" height="450" viewBox="0 0 450 450" fill="none" xmlns="http://www.w3.org/2000/svg">
<g clip-path="url(#clip0_97_540)">
<path d="M350.256 182.371C350.256 182.371 381.315 177.288 378.816 163.603C375.875 147.521 347.519 155.664 347.519 155.664C347.519 155.664 378.102 142.047 369.177 127.75C359.555 112.314 335.024 134.907 335.024 134.907C335.024 134.907 351.871 106.738 337.506 102.726C325.453 99.3599 314.386 118.383 314.386 118.383C293.952 147.776 297.386 151.669 307.552 168.261C316.035 182.116 325.011 184.377 350.239 182.388" fill="white"/>
<path d="M99.744 182.371C99.744 182.371 68.685 177.288 71.184 163.603C74.125 147.521 102.481 155.664 102.481 155.664C102.481 155.664 71.898 142.047 80.823 127.75C90.445 112.314 114.976 134.907 114.976 134.907C114.976 134.907 98.129 106.738 112.494 102.726C124.547 99.3599 135.614 118.383 135.614 118.383C156.048 147.776 152.614 151.669 142.448 168.261C133.965 182.116 124.989 184.377 99.761 182.388" fill="white"/>
</g>
<defs>
<clipPath id="clip0_97_540">
<rect width="442" height="102" fill="white" transform="translate(4 81)"/>
</clipPath>
</defs>
</svg>
